<svg xmlns="http://www.w3.org/2000/svg" width="17.206" height="16.331" viewBox="0 0 17.206 16.331">
  <g id="Groupe_2242" data-name="Groupe 2242" transform="translate(-843.268 -636.035)">
    <path id="Icon_ionic-md-timer" data-name="Icon ionic-md-timer" d="M11.022,16.078a.957.957,0,1,0,.955-.907A.935.935,0,0,0,11.022,16.078Zm0-12.7V7h1.911V5.263A6.465,6.465,0,0,1,18.67,11.54a6.524,6.524,0,0,1-6.692,6.352A6.524,6.524,0,0,1,5.286,11.54,6.092,6.092,0,0,1,6.8,7.528l5.182,4.919,1.348-1.28L6.824,5v.02a7.984,7.984,0,0,0-3.449,6.52,8.386,8.386,0,0,0,8.6,8.165,8.391,8.391,0,0,0,8.6-8.165,8.391,8.391,0,0,0-8.6-8.165Zm6.692,8.165a.957.957,0,1,0-.955.907A.935.935,0,0,0,17.714,11.54Zm-11.473,0a.957.957,0,1,0,.955-.907A.935.935,0,0,0,6.241,11.54Z" transform="translate(839.893 632.66)" fill="#152e48"/>
  </g>
</svg>
