<svg xmlns="http://www.w3.org/2000/svg" width="11.939" height="12.347" viewBox="0 0 11.939 12.347">
  <g id="Groupe_2244" data-name="Groupe 2244" transform="translate(-954.704 -1250.921)">
    <path id="Icon_metro-cross" data-name="Icon metro-cross" d="M14.4,11.847h0L10.779,8.1,14.4,4.356h0a.385.385,0,0,0,.085-.138A.4.4,0,0,0,14.4,3.81L12.69,2.041a.364.364,0,0,0-.394-.088.37.37,0,0,0-.133.088h0L8.54,5.787,4.918,2.041h0a.369.369,0,0,0-.133-.088.364.364,0,0,0-.394.088L2.68,3.81a.4.4,0,0,0-.085.408.385.385,0,0,0,.085.138h0L6.3,8.1,2.68,11.847h0a.386.386,0,0,0-.085.138.4.4,0,0,0,.085.408l1.711,1.769a.364.364,0,0,0,.394.088.37.37,0,0,0,.133-.088h0L8.54,10.417l3.622,3.746h0a.37.37,0,0,0,.133.088.364.364,0,0,0,.394-.088L14.4,12.393a.4.4,0,0,0,.085-.408.385.385,0,0,0-.085-.138Z" transform="translate(952.133 1248.993)" fill="#ff0202"/>
  </g>
</svg>
