<svg xmlns="http://www.w3.org/2000/svg" width="21.699" height="17.359" viewBox="0 0 21.699 17.359">
  <g id="Groupe_2240" data-name="Groupe 2240" transform="translate(-719.438 -444.641)">
    <path id="Icon_awesome-project-diagram" data-name="Icon awesome-project-diagram" d="M13.02,10.85H8.68a1.085,1.085,0,0,0-1.085,1.085v4.34A1.085,1.085,0,0,0,8.68,17.359h4.34A1.085,1.085,0,0,0,14.1,16.274v-4.34A1.085,1.085,0,0,0,13.02,10.85ZM6.51,1.085A1.085,1.085,0,0,0,5.425,0H1.085A1.085,1.085,0,0,0,0,1.085v4.34A1.085,1.085,0,0,0,1.085,6.51H4.33l2.48,4.341A2.163,2.163,0,0,1,8.68,9.765h.009L6.51,5.951V4.34H14.1V2.17H6.51ZM20.614,0h-4.34a1.085,1.085,0,0,0-1.085,1.085v4.34A1.085,1.085,0,0,0,16.274,6.51h4.34A1.085,1.085,0,0,0,21.7,5.425V1.085A1.085,1.085,0,0,0,20.614,0Z" transform="translate(719.438 444.641)" fill="#143d66"/>
  </g>
</svg>
