<svg xmlns="http://www.w3.org/2000/svg" width="37.296" height="35.64" viewBox="0 0 37.296 35.64">
  <g id="Groupe_2242" data-name="Groupe 2242" transform="translate(-437.129 -1416.18)">
    <path id="Icon_zocial-linkedin" data-name="Icon zocial-linkedin" d="M-.18,4.356a3.877,3.877,0,0,1,1.26-2.97A4.623,4.623,0,0,1,4.356.216a4.485,4.485,0,0,1,3.2,1.152,4.06,4.06,0,0,1,1.26,3.1A3.791,3.791,0,0,1,7.6,7.344,4.631,4.631,0,0,1,4.284,8.532H4.248a4.406,4.406,0,0,1-3.2-1.188A3.99,3.99,0,0,1-.18,4.356Zm.468,31.5V11.808H8.28V35.856H.288Zm12.42,0H20.7V22.428a5.183,5.183,0,0,1,.288-1.944,5.221,5.221,0,0,1,1.53-2.07,3.911,3.911,0,0,1,2.574-.846q4.032,0,4.032,5.436V35.856h7.992V22.068q0-5.328-2.52-8.082a8.6,8.6,0,0,0-6.66-2.754,8.17,8.17,0,0,0-7.236,4V15.3h-.036l.036-.072v-3.42H12.708q.072,1.152.072,7.164t-.072,16.884Z" transform="translate(437.309 1415.964)" fill="#143d66"/>
  </g>
</svg>
