<svg xmlns="http://www.w3.org/2000/svg" width="54.603" height="123.046" viewBox="0 0 54.603 123.046">
  <g id="Groupe_2130" data-name="Groupe 2130" transform="translate(-309.693 -1437.136)">
    <path id="Tracé_19205" data-name="Tracé 19205" d="M2681.106,1762.333c-12.906,0-23.368,3.747-23.368,8.37s10.462,8.372,23.368,8.372,23.371-3.749,23.371-8.372S2694.012,1762.333,2681.106,1762.333Z" transform="translate(-2340.18 -218.894)" fill="#ccc" fill-rule="evenodd"/>
    <g id="Groupe_1504" data-name="Groupe 1504" transform="translate(309.693 1437.136)">
      <path id="Tracé_15606" data-name="Tracé 15606" d="M2698.559,1381.075a1.187,1.187,0,0,1,0-2.248,4.289,4.289,0,0,1,3.9,0l5.119,2.956a1.186,1.186,0,0,1,0,2.249,4.3,4.3,0,0,1-3.894,0Z" transform="translate(-2672.747 -1272.721)" fill="#143d66" fill-rule="evenodd"/>
      <path id="Tracé_15607" data-name="Tracé 15607" d="M2699.2,1380.307a.894.894,0,0,1-.27-.222l-.007-.01,0-.006,0,0a.9.9,0,0,1,.27-.225h0a2.28,2.28,0,0,1,.612-.235,3.775,3.775,0,0,1,1.633,0,2.275,2.275,0,0,1,.613.235l.058.032,5.067,2.926a.859.859,0,0,1,.268.223l.007.01,0,.006,0,0a.863.863,0,0,1-.272.223l-.042.025a2.466,2.466,0,0,1-.573.211,3.85,3.85,0,0,1-1.634,0,2.31,2.31,0,0,1-.616-.236l-5.12-2.957Zm-1.952.981a2.882,2.882,0,0,0,.924.808l5.121,2.957a4.388,4.388,0,0,0,1.166.453,5.536,5.536,0,0,0,2.588,0,4.505,4.505,0,0,0,1.1-.416l.069-.038a2.936,2.936,0,0,0,.921-.807h0a2.059,2.059,0,0,0,.407-1.211,2.036,2.036,0,0,0-.344-1.12c-.018-.031-.038-.063-.059-.094a2.948,2.948,0,0,0-.926-.806l-5.061-2.923-.055-.032a4.406,4.406,0,0,0-1.17-.455,5.548,5.548,0,0,0-2.589,0,4.452,4.452,0,0,0-1.173.455v0a2.909,2.909,0,0,0-.921.8l0,0a2.061,2.061,0,0,0-.407,1.209,2.027,2.027,0,0,0,.345,1.12A.66.66,0,0,0,2697.246,1381.289Z" transform="translate(-2672.857 -1272.848)" fill="#143d66" fill-rule="evenodd"/>
      <path id="Tracé_15608" data-name="Tracé 15608" d="M2708.027,1386.424a1.186,1.186,0,0,1,0-2.248,4.3,4.3,0,0,1,3.9,0l5.119,2.956a1.187,1.187,0,0,1,0,2.249,4.307,4.307,0,0,1-3.895,0Z" transform="translate(-2693.476 -1271.97)" fill="#143d66" fill-rule="evenodd"/>
      <path id="Tracé_15609" data-name="Tracé 15609" d="M2708.669,1385.657a.827.827,0,0,1-.271-.223l-.006-.01,0,0,0,0a.827.827,0,0,1,.271-.224l0,0v0a2.277,2.277,0,0,1,.612-.236,3.784,3.784,0,0,1,1.634,0,2.275,2.275,0,0,1,.614.236l.058.03,5.066,2.925a.863.863,0,0,1,.269.224l.007.01,0,0h0a.893.893,0,0,1-.273.224l-.042.025a2.475,2.475,0,0,1-.572.211,3.825,3.825,0,0,1-1.633,0,2.346,2.346,0,0,1-.618-.236l-5.118-2.957Zm-1.954.983a2.931,2.931,0,0,0,.926.806l5.12,2.955a4.394,4.394,0,0,0,1.167.455,5.547,5.547,0,0,0,2.588,0,4.445,4.445,0,0,0,1.1-.417l.07-.038a2.892,2.892,0,0,0,.92-.806l0,0a2,2,0,0,0,.063-2.33.883.883,0,0,0-.06-.093,2.917,2.917,0,0,0-.925-.807l-5.062-2.922-.054-.033a4.344,4.344,0,0,0-1.171-.455,5.535,5.535,0,0,0-2.587,0,4.383,4.383,0,0,0-1.172.455v0a2.914,2.914,0,0,0-.922.8l0,0a2.069,2.069,0,0,0-.407,1.21,2.025,2.025,0,0,0,.346,1.119A.927.927,0,0,0,2706.715,1386.64Z" transform="translate(-2693.617 -1272.098)" fill="#143d66" fill-rule="evenodd"/>
      <path id="Tracé_15610" data-name="Tracé 15610" d="M2717.52,1338.317a3.875,3.875,0,0,1,2.473,3.613c0,.11,0,.218-.013.325l-.044,21.329c0,6.618-.572,13.857-.846,20.535a1.37,1.37,0,0,1-.806,1.125,4.313,4.313,0,0,1-3.9,0,1.371,1.371,0,0,1-.808-1.125c-.019-6.864-.064-13.734-.064-20.6l-1.686-13.562-2.137,1.206-.556,18.517c-.243,6.842-.563,13.693-.844,20.534a1.367,1.367,0,0,1-.807,1.125,4.312,4.312,0,0,1-3.895,0,1.368,1.368,0,0,1-.807-1.125c-.019-6.866-.065-13.732-.065-20.6l-1.257-21.267c-.009-.106-.013-.214-.013-.323,0-2.308,1.43-3.052,3.119-4.006l5.5-3.112,3.911-2.211A4.041,4.041,0,0,1,2717.52,1338.317Z" transform="translate(-2688.954 -1278.371)" fill="#04c38f" fill-rule="evenodd"/>
      <path id="Tracé_15611" data-name="Tracé 15611" d="M2717.273,1339.406a2.84,2.84,0,0,1,1.81,2.651v.121l-.01.118a1.051,1.051,0,0,0,0,.168l-.045,21.246h0c0,4.455-.255,9.126-.5,13.722-.125,2.268-.247,4.517-.339,6.773v.041h0c0,.006-.005,0-.011.006v0l0,0a.827.827,0,0,1-.272.223l-.042.027a2.436,2.436,0,0,1-.573.21,3.8,3.8,0,0,1-1.632,0,2.349,2.349,0,0,1-.618-.237.852.852,0,0,1-.269-.223l-.018-.025c-.008-2.556-.019-5.1-.029-7.638-.017-3.822-.032-7.637-.032-12.94a1.342,1.342,0,0,0-.012-.162l-1.683-13.525a1.034,1.034,0,0,0-1.154-.9,1.017,1.017,0,0,0-.467.179l-2.05,1.156a1.034,1.034,0,0,0-.525.871h0l-.555,18.508c-.159,4.524-.358,9.116-.555,13.708-.1,2.23-.192,4.459-.291,6.823v.04h0c0,.007,0,0-.012.008h0a.849.849,0,0,1-.272.222l-.041.026a2.383,2.383,0,0,1-.573.212,3.831,3.831,0,0,1-1.634,0,2.292,2.292,0,0,1-.615-.237.85.85,0,0,1-.271-.222l-.019-.027c-.006-2.559-.018-5.1-.029-7.646-.017-3.823-.031-7.646-.031-12.933a1.01,1.01,0,0,0-.008-.131l-1.256-21.222h0l-.011-.117v-.12c0-1.647,1.114-2.277,2.456-3.034l.136-.076h0l9.4-5.315a3.974,3.974,0,0,1,1.406-.487,2.6,2.6,0,0,1,1.266.16Zm3.023-.117a4.923,4.923,0,0,0-2.28-1.808,4.626,4.626,0,0,0-2.252-.29,5.972,5.972,0,0,0-2.157.731h0c-3.155,1.736-6.289,3.556-9.422,5.329h0l-.131.073c-1.92,1.084-3.516,1.985-3.516,4.831l.017.407h0l1.252,21.183c0,3.336.02,8.139.039,12.94.012,2.559.022,5.116.029,7.658h0a2.034,2.034,0,0,0,.344,1.121.97.97,0,0,0,.059.092,2.892,2.892,0,0,0,.925.806,4.379,4.379,0,0,0,1.167.455,5.563,5.563,0,0,0,2.588,0,4.4,4.4,0,0,0,1.1-.418l.069-.036a2.912,2.912,0,0,0,.921-.806h0a2.064,2.064,0,0,0,.405-1.212h0c.089-2.167.189-4.471.289-6.774.2-4.553.392-9.107.556-13.723l.538-17.942.284-.16,1.488,11.964c0,3.321.021,8.11.04,12.888q.016,3.833.029,7.648h0a2.029,2.029,0,0,0,.345,1.12.951.951,0,0,0,.059.093,2.94,2.94,0,0,0,.925.807,4.367,4.367,0,0,0,1.168.452,5.545,5.545,0,0,0,2.588,0,4.381,4.381,0,0,0,1.1-.416l.069-.037a2.906,2.906,0,0,0,.922-.807l0,0a2.043,2.043,0,0,0,.407-1.21h0c.089-2.144.212-4.416.337-6.708.253-4.671.512-9.418.512-13.827h0c.015-7.115-.2-14.583.063-21.654A4.879,4.879,0,0,0,2720.3,1339.289Z" transform="translate(-2689.089 -1278.498)" fill="#143d66" fill-rule="evenodd"/>
      <path id="Tracé_15612" data-name="Tracé 15612" d="M2711.814,1347.735a1.031,1.031,0,0,0-1.029-1.788l-5.615,3.242a1.031,1.031,0,0,0,1.027,1.787Z" transform="translate(-2684.841 -1277.285)" fill="#143d66" fill-rule="evenodd"/>
      <path id="Tracé_15613" data-name="Tracé 15613" d="M2725.031,1341.759l2.777.542-.962,5.168-1.2.44-1.494,4.353-1.349-1.036C2723.342,1345.213,2723.177,1346.316,2725.031,1341.759Z" transform="translate(-2721.765 -1277.853)" fill="#fff" fill-rule="evenodd"/>
      <path id="Tracé_15614" data-name="Tracé 15614" d="M2725.792,1343.064l.938.182-.665,3.582-.651.238a1.031,1.031,0,0,0-.625.636h0l-.676,1.968a25.106,25.106,0,0,1,.422-3.27,17.061,17.061,0,0,1,.946-2.591l.311-.744Zm2.337-1.653-2.736-.532a1.035,1.035,0,0,0-1.195.619c-.274.673-.463,1.126-.627,1.518a18.3,18.3,0,0,0-1.051,2.915,35.453,35.453,0,0,0-.555,4.587l-.063.679a1.039,1.039,0,0,0,.4.978l1.3,1a1.037,1.037,0,0,0,1.658-.446l1.333-3.889.738-.27a1.031,1.031,0,0,0,.664-.785l.952-5.112.011-.049A1.038,1.038,0,0,0,2728.129,1341.411Z" transform="translate(-2721.891 -1277.98)" fill="#143d66" fill-rule="evenodd"/>
      <path id="Tracé_15615" data-name="Tracé 15615" d="M2688.149,1296l2.643,1.011,1.919-4.894-.787-1.013,1.038-4.483-1.695.166C2688.546,1292.174,2688.991,1291.149,2688.149,1296Z" transform="translate(-2645.866 -1285.584)" fill="#fff" fill-rule="evenodd"/>
      <path id="Tracé_15616" data-name="Tracé 15616" d="M2687.908,1297.092l2.645,1.011a1.035,1.035,0,0,0,1.336-.6l1.917-4.886a1.035,1.035,0,0,0-.192-1.063l-.445-.57.928-4.008a1.035,1.035,0,0,0-.777-1.238,1.018,1.018,0,0,0-.384-.015l-1.637.16a1.033,1.033,0,0,0-.826.563l-.338.67a35.318,35.318,0,0,0-1.954,4.185,18.307,18.307,0,0,0-.649,3.029c-.062.383-.137.831-.274,1.621a1.038,1.038,0,0,0,.651,1.14Zm2.426-1.289-.895-.342.132-.8a16.972,16.972,0,0,1,.567-2.7,25.222,25.222,0,0,1,1.375-2.995l-.471,2.031h0a1.037,1.037,0,0,0,.193.865l.426.546Z" transform="translate(-2645.993 -1285.712)" fill="#143d66" fill-rule="evenodd"/>
      <path id="Tracé_15617" data-name="Tracé 15617" d="M2710.012,1297.15l-2.818,10.807c-.024.058-.051.116-.08.173a2.444,2.444,0,0,1-.58.745l-12.239,12.289-4.728-5.4,13.428-10.39,3.373-9.883C2707.18,1293.11,2711,1293.38,2710.012,1297.15Z" transform="translate(-2664.693 -1284.556)" fill="#01e3a6" fill-rule="evenodd"/>
      <path id="Tracé_15618" data-name="Tracé 15618" d="M2709.139,1297.018l-2.8,10.719-.045.091a1.689,1.689,0,0,1-.317.4l-.054.05-11.459,11.5-3.276-3.742,12.56-9.717a1.023,1.023,0,0,0,.347-.485l3.373-9.884a1.184,1.184,0,0,1,.89-.817.834.834,0,0,1,.389.012.592.592,0,0,1,.266.162c.254.267.354.816.122,1.711Zm-.819,11.325,2.816-10.807a3.714,3.714,0,0,0-.621-3.652,2.667,2.667,0,0,0-1.2-.721,2.91,2.91,0,0,0-1.327-.062,3.249,3.249,0,0,0-2.477,2.187l-3.271,9.589-13.18,10.2-.05.041a1.032,1.032,0,0,0-.1,1.456l4.7,5.373a.882.882,0,0,0,.072.08,1.033,1.033,0,0,0,1.461,0l12.221-12.271a3.5,3.5,0,0,0,.429-.456,3.658,3.658,0,0,0,.326-.505l.035-.061.057-.121.055-.124h0A1.238,1.238,0,0,0,2708.32,1308.343Z" transform="translate(-2664.818 -1284.682)" fill="#143d66" fill-rule="evenodd"/>
      <path id="Tracé_15619" data-name="Tracé 15619" d="M2720.434,1342.392V1315.2c-.278-2.5-3.954-4.615-5.567-3.682l-11.319,6.534c-1.227.687-2.789,2.149-2.825,3.874v29.165c.051,2.334,4.136,2.417,5.561,1.6l4.266-2.464,8.195-4.73C2719.821,1344.871,2720.434,1344.32,2720.434,1342.392Z" transform="translate(-2688.558 -1282.125)" fill="#01e3a6" fill-rule="evenodd"/>
      <path id="Tracé_15620" data-name="Tracé 15620" d="M2721.6,1342.519v-27.191a1.161,1.161,0,0,0-.017-.191,4.362,4.362,0,0,0-.565-1.608,6.67,6.67,0,0,0-2.418-2.339,5.222,5.222,0,0,0-3.043-.782,2.775,2.775,0,0,0-1.078.343l-.053.033-11.25,6.5v0a7.726,7.726,0,0,0-2.38,2.093,4.683,4.683,0,0,0-.971,2.665v27.913h-.005v1.27a1.052,1.052,0,0,0,.009.136,2.7,2.7,0,0,0,.355,1.2v0h0a3.37,3.37,0,0,0,1.89,1.441,6.653,6.653,0,0,0,2.259.317,5.757,5.757,0,0,0,2.6-.608q6.233-3.6,12.466-7.2v0a4.2,4.2,0,0,0,1.6-1.4,4.653,4.653,0,0,0,.6-2.589Zm-2.073-27.14v27.14a2.835,2.835,0,0,1-.277,1.49,2.5,2.5,0,0,1-.892.716l0,0-12.46,7.192a3.675,3.675,0,0,1-1.611.334,4.545,4.545,0,0,1-1.547-.212,1.394,1.394,0,0,1-.772-.519h0a.638.638,0,0,1-.082-.264v-1.31h0v-27.873a2.677,2.677,0,0,1,.576-1.492,5.579,5.579,0,0,1,1.724-1.5l0,0,11.274-6.508.057-.031a.7.7,0,0,1,.268-.075,3.174,3.174,0,0,1,1.79.513,4.561,4.561,0,0,1,1.658,1.586A2.3,2.3,0,0,1,2719.526,1315.379Z" transform="translate(-2688.698 -1282.252)" fill="#143d66" fill-rule="evenodd"/>
      <path id="Tracé_15621" data-name="Tracé 15621" d="M2707.929,1312.626a4.176,4.176,0,0,0,3.781,0,1.153,1.153,0,0,0,0-2.184,4.188,4.188,0,0,0-3.783,0A1.153,1.153,0,0,0,2707.929,1312.626Z" transform="translate(-2687.906 -1282.308)" fill="#fff" fill-rule="evenodd"/>
      <path id="Tracé_15622" data-name="Tracé 15622" d="M2707.537,1313.649a5.183,5.183,0,0,0,4.819,0,2.739,2.739,0,0,0,1.02-.981h0a1.949,1.949,0,0,0,0-2.011l0,0h0a2.723,2.723,0,0,0-1.022-.979,5.186,5.186,0,0,0-4.82,0,2.726,2.726,0,0,0-1.02.979c-.016.026-.029.052-.042.078a1.957,1.957,0,0,0-.233.929h0a1.984,1.984,0,0,0,.28,1v0h0a2.72,2.72,0,0,0,1.023.977v0Zm2.408-1.478a2.81,2.81,0,0,1-1.373-.312v0l0,0a.808.808,0,0,1-.247-.2.872.872,0,0,1,.251-.2,3.191,3.191,0,0,1,2.747,0,.847.847,0,0,1,.251.2.871.871,0,0,1-.251.2A2.819,2.819,0,0,1,2709.945,1312.171Z" transform="translate(-2688.038 -1282.435)" fill="#0087ca" fill-rule="evenodd"/>
      <path id="Tracé_15623" data-name="Tracé 15623" d="M2707.194,1311.345h5.348l.395,5.087a1.121,1.121,0,0,1,.012.157,1.531,1.531,0,0,1-.9,1.257,4.813,4.813,0,0,1-4.354,0,1.528,1.528,0,0,1-.9-1.257,1.121,1.121,0,0,1,.012-.157Z" transform="translate(-2687.958 -1282.117)" fill="#fff" fill-rule="evenodd"/>
      <path id="Tracé_15624" data-name="Tracé 15624" d="M2708.28,1312.508h3.432l.32,4.127.007.081v0h0v0h0a.169.169,0,0,1-.041.078h0a1.068,1.068,0,0,1-.346.284,3.38,3.38,0,0,1-1.657.38,3.417,3.417,0,0,1-1.661-.377v0a1.08,1.08,0,0,1-.346-.284h0a.176.176,0,0,1-.041-.078h0l.009-.08.318-4.128Zm4.39-2.07h-6.305l-.466,6a2.317,2.317,0,0,0-.018.279h0a2.187,2.187,0,0,0,.427,1.282l0,0a3.115,3.115,0,0,0,.992.868h0a5.809,5.809,0,0,0,5.388,0,3.133,3.133,0,0,0,.991-.868l0,0a2.171,2.171,0,0,0,.427-1.282h0c0-.043,0-.094-.006-.155,0-.044-.007-.086-.012-.123l-.465-6Zm-.63,6.279" transform="translate(-2688.091 -1282.245)" fill="#143d66" fill-rule="evenodd"/>
      <path id="Tracé_15625" data-name="Tracé 15625" d="M2710.621,1300.958h-1a4.564,4.564,0,0,0-4.616,4.616l.238,5.632a4.7,4.7,0,0,0,4.616,4.617h.5a4.711,4.711,0,0,0,4.616-4.617l.265-5.632A4.556,4.556,0,0,0,2710.621,1300.958Z" transform="translate(-2688.217 -1283.574)" fill="#fff" fill-rule="evenodd"/>
      <path id="Tracé_15626" data-name="Tracé 15626" d="M2710.751,1300.048h-1l-.238.01a5.765,5.765,0,0,0-3.794,1.652,5.351,5.351,0,0,0-1.626,3.812l.009.22.237,5.633a5.972,5.972,0,0,0,1.722,3.978,5.513,5.513,0,0,0,3.926,1.633h.5a5.5,5.5,0,0,0,3.918-1.63,6.026,6.026,0,0,0,1.731-3.977l.262-5.634c.006-.124.009-.205.009-.242a5.324,5.324,0,0,0-1.62-3.792,5.784,5.784,0,0,0-3.774-1.653c-.131-.006-.22-.01-.261-.01Zm-1,2.073,1.175,0a3.7,3.7,0,0,1,2.414,1.063,3.253,3.253,0,0,1,1,2.318v.153l-.262,5.634a3.94,3.94,0,0,1-1.132,2.6,3.442,3.442,0,0,1-2.453,1.023h-.5a3.451,3.451,0,0,1-2.46-1.026,3.9,3.9,0,0,1-1.125-2.594l-.236-5.634v-.138a3.288,3.288,0,0,1,1-2.339,3.691,3.691,0,0,1,2.426-1.063Z" transform="translate(-2688.352 -1283.701)" fill="#143d66" fill-rule="evenodd"/>
      <path id="Tracé_15627" data-name="Tracé 15627" d="M2710.754,1300.958h-1a4.563,4.563,0,0,0-4.616,4.616l.237,5.632a5.269,5.269,0,0,0,2.525-4.447c3.86.453,5.134.239,7.328-2.488A4.653,4.653,0,0,0,2710.754,1300.958Z" transform="translate(-2688.352 -1283.574)" fill="#143d66" fill-rule="evenodd"/>
      <path id="Tracé_15628" data-name="Tracé 15628" d="M2710.886,1300.049h-1l-.237.009a5.766,5.766,0,0,0-3.795,1.652,5.351,5.351,0,0,0-1.626,3.812l.009.22.238,5.633a1.034,1.034,0,0,0,1.626.805,7.253,7.253,0,0,0,2.087-2.135,5.884,5.884,0,0,0,.762-2.021,9.269,9.269,0,0,0,3.679-.2,7.382,7.382,0,0,0,3.537-2.777,1.036,1.036,0,0,0,.179-.96,5.51,5.51,0,0,0-2.032-2.9,5.759,5.759,0,0,0-3.422-1.139Zm-1,2.072h1a3.687,3.687,0,0,1,2.192.727,3.526,3.526,0,0,1,1.1,1.346,4.883,4.883,0,0,1-2.175,1.656,9.876,9.876,0,0,1-3.863.011v0c-.03,0-.059-.006-.089-.007a1.034,1.034,0,0,0-1.061,1,4.2,4.2,0,0,1-.561,2.081l-.138-3.281v-.138a3.288,3.288,0,0,1,1-2.339,3.69,3.69,0,0,1,2.427-1.063Z" transform="translate(-2688.49 -1283.701)" fill="#143d66" fill-rule="evenodd"/>
      <path id="Tracé_15629" data-name="Tracé 15629" d="M2727.062,1325.393l-.439-4.855-3.171-1.006c-1.929,4.31-4.089,8.514-6.464,12.82a2.265,2.265,0,0,0-.328.886l-2.021,11.06a1.762,1.762,0,0,0-.015.728,1.814,1.814,0,0,0,3.558.06l2.763-10.564Z" transform="translate(-2711.662 -1280.969)" fill="#01e3a6" fill-rule="evenodd"/>
      <path id="Tracé_15630" data-name="Tracé 15630" d="M2724.52,1320.08a1.033,1.033,0,1,0-1.886-.843c-.953,2.129-1.968,4.243-3.044,6.368-1.065,2.1-2.193,4.22-3.382,6.375a3.218,3.218,0,0,0-.445,1.238l-2.011,11a2.893,2.893,0,0,0-.064.552,2.644,2.644,0,0,0,.046.568,2.849,2.849,0,0,0,4.776,1.546,2.885,2.885,0,0,0,.81-1.449h0l2.707-10.352,6.021-8.983a1.032,1.032,0,1,0-1.715-1.148l-6.214,9.272-2.809,10.735-.012.041a.8.8,0,0,1-.219.4.779.779,0,0,1-.99.08.781.781,0,0,1-.323-.5,1.031,1.031,0,0,1-.012-.162.77.77,0,0,1,.021-.156c.74-3.692,1.3-7.448,2.039-11.141a1.087,1.087,0,0,1,.064-.25,1.141,1.141,0,0,1,.109-.227l.036-.057c1.186-2.151,2.324-4.287,3.415-6.441C2722.515,1324.406,2723.542,1322.262,2724.52,1320.08Z" transform="translate(-2711.789 -1281.097)" fill="#143d66" fill-rule="evenodd"/>
    </g>
  </g>
</svg>
