<svg xmlns="http://www.w3.org/2000/svg" width="52.969" height="103.481" viewBox="0 0 52.969 103.481">
  <g id="Groupe_2129" data-name="Groupe 2129" transform="translate(-313.504 -1166.186)">
    <path id="Tracé_15407" data-name="Tracé 15407" d="M2679.839,1762.333c-12.207,0-22.1,3.544-22.1,7.917s9.9,7.918,22.1,7.918,22.1-3.545,22.1-7.918S2692.047,1762.333,2679.839,1762.333Z" transform="translate(-2335.471 -508.501)" fill="#ccc" fill-rule="evenodd"/>
    <path id="Tracé_15408" data-name="Tracé 15408" d="M2670.883,1726.568a3.753,3.753,0,0,1,2.4,3.5c0,.107,0,.211-.014.315l.642,20.27-1.125,20.134,5.361,3.229a1.326,1.326,0,0,1-.781,1.089,3.865,3.865,0,0,1-1.885.451l-6.191-2.921a1.325,1.325,0,0,1-.781-1.089c0-.027,0-.053,0-.08l.385-20.087-1.179-13.967-.949.034-1.043,17.829-2.4,20.537,5.411,3.324a1.324,1.324,0,0,1-.781,1.089,3.863,3.863,0,0,1-1.887.451l-6.135-2.879a1.634,1.634,0,0,1-.685-.675,2.172,2.172,0,0,1-.073-1.041l1.194-20.868-.723-21.365c-.01-.1-.013-.206-.013-.312,0-2.235,1.386-2.955,3.022-3.881l3.282-1.857,1.519-.859A3.914,3.914,0,0,1,2670.883,1726.568Z" transform="translate(-2334.792 -517.031)" fill="#fff" fill-rule="evenodd"/>
    <path id="Tracé_15409" data-name="Tracé 15409" d="M2671.443,1725.736a4.831,4.831,0,0,1,3.088,4.5l-.016.361.638,20.189c0,.031,0,.062,0,.094l-1.088,19.487,4.808,2.895a1.077,1.077,0,0,1,.521.924,2.072,2.072,0,0,1-.406,1.216h0a2.885,2.885,0,0,1-.916.8h0a4.322,4.322,0,0,1-1.153.447,5.524,5.524,0,0,1-1.271.151,1.059,1.059,0,0,1-.527-.138l-6.124-2.887a1.179,1.179,0,0,1-.151-.087,2.831,2.831,0,0,1-.84-.757v0l0,0a2.065,2.065,0,0,1-.405-1.219.937.937,0,0,1,.006-.111c.338-6.511.259-13.426.385-19.985l-.47-5.556-.552,9.441-.007.063h0l-2.32,19.858,4.822,2.963a1.071,1.071,0,0,1,.515.919h0a2.069,2.069,0,0,1-.408,1.216l0,0a2.891,2.891,0,0,1-.917.8h0a4.342,4.342,0,0,1-1.155.448,5.5,5.5,0,0,1-1.271.151,1.071,1.071,0,0,1-.544-.146l-6.046-2.838a1.132,1.132,0,0,1-.116-.062,3.12,3.12,0,0,1-.6-.457,2.386,2.386,0,0,1-.48-.661,2.5,2.5,0,0,1-.193-1.376c.486-6.983.805-14.032,1.205-21.028l-.719-21.249h0l-.019-.4c0-2.8,1.563-3.682,3.444-4.743l.126-.071v0c1.6-.905,3.2-1.834,4.815-2.722h0a5.841,5.841,0,0,1,2.118-.718,4.551,4.551,0,0,1,2.217.287Zm.466,2.991a2.691,2.691,0,0,0-1.241-.986,2.434,2.434,0,0,0-1.188-.151,3.73,3.73,0,0,0-1.333.464l-4.79,2.706h0l-.132.075c-1.277.722-2.339,1.322-2.339,2.872l0,.115.01.109h0l.724,21.366a.842.842,0,0,1,0,.145l-1.2,21.088-.019.3a.287.287,0,0,0,.049.064,1.159,1.159,0,0,0,.165.127l5.854,2.746a3.229,3.229,0,0,0,.557-.078,2.478,2.478,0,0,0,.3-.093l-4.335-2.662a1.08,1.08,0,0,1-.555-1.07l2.4-20.53,1.041-17.773a1.078,1.078,0,0,1,1.041-1.016l.865-.03.03,0a1.077,1.077,0,0,1,1.162.986l1.18,13.968h0c0,.034,0,.07,0,.1l-.383,20.021c0,.032,0,.066,0,.1a.693.693,0,0,0,.188.161l5.926,2.795a2.974,2.974,0,0,0,.551-.077,2.3,2.3,0,0,0,.288-.086l-4.312-2.6v0a1.072,1.072,0,0,1-.521-.98l1.123-20.1-.637-20.127a1.254,1.254,0,0,1,0-.206,2.053,2.053,0,0,0,.009-.227,2.672,2.672,0,0,0-.463-1.51Zm-2.154,42.954,0,0v-.006l0,0Zm0,.035,0-.028Z" transform="translate(-2334.959 -517.201)" fill="#143d66" fill-rule="evenodd"/>
    <path id="Tracé_15410" data-name="Tracé 15410" d="M2672.018,1763.771l6.26,3.771a1.551,1.551,0,0,1-.912,1.271,4.522,4.522,0,0,1-2.2.527l-7.229-3.411a1.714,1.714,0,0,1-.885-1.029C2669.528,1765.268,2670.889,1765.232,2672.018,1763.771Z" transform="translate(-2333.994 -510.496)" fill="#143d66" fill-rule="evenodd"/>
    <path id="Tracé_15411" data-name="Tracé 15411" d="M2672.028,1763.018l5.364,3.229a1.077,1.077,0,0,1,.521.923,2.069,2.069,0,0,1-.406,1.216h0a2.893,2.893,0,0,1-.917.8h0a4.336,4.336,0,0,1-1.154.448,5.517,5.517,0,0,1-1.27.151,1.07,1.07,0,0,1-.528-.138l-6.123-2.888c-.033-.015-.066-.033-.1-.052a3.034,3.034,0,0,1-.765-.626,2.207,2.207,0,0,1-.483-.931,1.077,1.077,0,0,1,.805-1.294,1.062,1.062,0,0,1,.409-.016,7.267,7.267,0,0,0,2.2.109,1.611,1.611,0,0,0,1.036-.671,1.075,1.075,0,0,1,1.406-.262v0Zm3.2,4.442-3.578-2.154a3.4,3.4,0,0,1-.971.567l3.71,1.751a3.052,3.052,0,0,0,.551-.078A2.23,2.23,0,0,0,2675.229,1767.46Z" transform="translate(-2333.476 -510.186)" fill="#143d66" fill-rule="evenodd"/>
    <path id="Tracé_15412" data-name="Tracé 15412" d="M2664.015,1768l6.32,3.882a1.548,1.548,0,0,1-.912,1.271,4.519,4.519,0,0,1-2.2.527l-7.164-3.362a1.907,1.907,0,0,1-.8-.787,1.112,1.112,0,0,1-.088-.267C2661.622,1769.624,2662.894,1769.455,2664.015,1768Z" transform="translate(-2334.322 -510.221)" fill="#143d66" fill-rule="evenodd"/>
    <path id="Tracé_15413" data-name="Tracé 15413" d="M2664.048,1767.256l5.413,3.324a1.075,1.075,0,0,1,.515.919h0a2.068,2.068,0,0,1-.407,1.216l0,0a2.885,2.885,0,0,1-.917.8h0a4.34,4.34,0,0,1-1.155.448,5.47,5.47,0,0,1-1.272.151,1.077,1.077,0,0,1-.543-.146l-6.046-2.838a1,1,0,0,1-.116-.062,3.07,3.07,0,0,1-.6-.457,2.417,2.417,0,0,1-.479-.661h0a2.232,2.232,0,0,1-.1-.247,2.074,2.074,0,0,1-.059-.237,1.077,1.077,0,0,1,1.206-1.276v0a6.034,6.034,0,0,0,2.107.054,1.8,1.8,0,0,0,1.038-.729,1.076,1.076,0,0,1,1.411-.26Zm3.26,4.527-3.639-2.236a3.511,3.511,0,0,1-1.021.621l3.8,1.786a3.178,3.178,0,0,0,.556-.078A2.442,2.442,0,0,0,2667.309,1771.783Z" transform="translate(-2334.955 -509.394)" fill="#143d66" fill-rule="evenodd"/>
    <path id="Tracé_15414" data-name="Tracé 15414" d="M2684.778,1724.785l-11.141-1.322c-.044-.042-.086-.088-.127-.134a2.386,2.386,0,0,1-.463-.8l-6.662-15.543,5.484-1.919,4.329,15.6,8.912,1.26,5.1.021.613,1.081-.911,1.313-1.261,1.369c-2.142.168-2.274-.529-3.872-.926Z" transform="translate(-2333.434 -521.012)" fill="#fff" fill-rule="evenodd"/>
    <path id="Tracé_15415" data-name="Tracé 15415" d="M2684.76,1726.018l-11.079-1.315a1.073,1.073,0,0,1-.682-.357l-.041-.042-.088-.1a3.646,3.646,0,0,1-.393-.545,3.551,3.551,0,0,1-.251-.538l-6.663-15.543a1.076,1.076,0,0,1,.57-1.411.671.671,0,0,1,.1-.038l5.448-1.908a1.076,1.076,0,0,1,1.37.662l.021.068,4.139,14.917,8.156,1.152,5.011.021a1.075,1.075,0,0,1,.931.544l.615,1.081a1.078,1.078,0,0,1-.07,1.17l-.893,1.285a1.137,1.137,0,0,1-.093.117l-1.26,1.369a1.08,1.08,0,0,1-.707.345h0a5.143,5.143,0,0,1-3.112-.542h0a5.865,5.865,0,0,0-1.03-.4Zm-10.4-3.4,10.668,1.266a1.055,1.055,0,0,1,.263.052,7.544,7.544,0,0,1,1.408.527h0a3.157,3.157,0,0,0,1.629.365l.917-1,.445-.64-4.352-.018a1.089,1.089,0,0,1-.206-.01l-8.912-1.26a1.076,1.076,0,0,1-.89-.779l-4.02-14.49-3.312,1.159,6.21,14.489h0l.028.071a1.306,1.306,0,0,0,.109.23Z" transform="translate(-2333.603 -521.182)" fill="#143d66" fill-rule="evenodd"/>
    <path id="Tracé_15416" data-name="Tracé 15416" d="M2673.658,1725.769l-.407-3.963,1.339-4.882c1.032-3.765,1.317-9.728-1.709-12.739-1.235-1.23-2.87-2.008-3.8-1.471l-7.823,4.518c-1.2.67-2.72,2.095-2.757,3.777l1.679,14.888-.417,2.4c-5.443,12.3-.091,18.266-.119,24.909,5.634,1.157,12.62-2.907,14.8-7.8C2674.313,1743.355,2675.492,1733.143,2673.658,1725.769Z" transform="translate(-2335.131 -521.487)" fill="#fff" fill-rule="evenodd"/>
    <path id="Tracé_15417" data-name="Tracé 15417" d="M2672.758,1726.021l-.4-3.936a1.108,1.108,0,0,1,.051-.455l1.322-4.821a18.756,18.756,0,0,0,.547-7.093,7.87,7.87,0,0,0-1.978-4.6,5.346,5.346,0,0,0-1.735-1.193,1.077,1.077,0,0,0-.771-.108l-.06.032-7.778,4.49v0a5.392,5.392,0,0,0-1.658,1.444,2.62,2.62,0,0,0-.547,1.341l1.672,14.825a1.073,1.073,0,0,1-.007.3l-.417,2.4a.981.981,0,0,1-.082.266c-3.6,8.147-2.26,13.427-1.093,18.02a29.678,29.678,0,0,1,1.042,5.518,12.486,12.486,0,0,0,6.946-1.552,13.142,13.142,0,0,0,5.719-5.538c-.01-.58.032-1.476.086-2.611.188-4.006.525-11.119-.827-16.557a.993.993,0,0,1-.028-.174Zm1.757-3.961.379,3.692c1.405,5.724,1.063,13,.87,17.1-.06,1.264-.1,2.214-.077,2.665a1.076,1.076,0,0,1-.094.5,15.144,15.144,0,0,1-6.78,6.788,14.13,14.13,0,0,1-9.213,1.625,1.075,1.075,0,0,1-.859-1.057,24.021,24.021,0,0,0-1.011-5.909c-1.246-4.907-2.679-10.545,1.165-19.309l.369-2.124L2657.6,1711.3h0a1,1,0,0,1-.007-.139,4.661,4.661,0,0,1,.962-2.637,7.621,7.621,0,0,1,2.342-2.059v0l7.754-4.476.056-.034a3.008,3.008,0,0,1,2.624-.036,7.509,7.509,0,0,1,2.476,1.674,9.951,9.951,0,0,1,2.593,5.839,21,21,0,0,1-.605,7.945Z" transform="translate(-2335.306 -521.655)" fill="#143d66" fill-rule="evenodd"/>
    <path id="Tracé_15418" data-name="Tracé 15418" d="M2655.379,1733.7l-.7,5.078-1.156.486-1.251,4.309-1.362-.946c.25-5.882.14-4.8,1.735-9.324l1.2-10.633a2.205,2.205,0,0,1,.279-.879c1.9-3.869,3.223-7.845,5.187-11.5,1.813-3.371,5.752.285,3.952,3.234l-5.537,9.174Z" transform="translate(-2336.332 -520.287)" fill="#fff" fill-rule="evenodd"/>
    <path id="Tracé_15419" data-name="Tracé 15419" d="M2656.606,1734.072l-.689,5.019a1.074,1.074,0,0,1-.695.867l-.635.266-1.109,3.817a1.075,1.075,0,0,1-1.331.734,1.11,1.11,0,0,1-.316-.151v0l-1.363-.946a1.079,1.079,0,0,1-.456-1l.027-.655a34.321,34.321,0,0,1,.333-4.5,17.686,17.686,0,0,1,.892-2.9c.125-.344.269-.742.5-1.392l1.2-10.564a3.182,3.182,0,0,1,.126-.6,3.1,3.1,0,0,1,.279-.635l.008-.014c.784-1.606,1.51-3.336,2.229-5.05.911-2.172,1.811-4.317,2.935-6.407a3.14,3.14,0,0,1,3.056-1.91,3.246,3.246,0,0,1,1.51.534,4.065,4.065,0,0,1,1.12,1.11,4.157,4.157,0,0,1,.135,4.565h0l-5.443,9.021-2.313,10.795Zm-2.736,4.124.606-4.421a.812.812,0,0,1,.02-.129l2.347-10.958a1.09,1.09,0,0,1,.138-.372l5.535-9.173h0l0,0a2.036,2.036,0,0,0-.075-2.237,1.9,1.9,0,0,0-.52-.52,1.074,1.074,0,0,0-.5-.186c-.32-.026-.678.194-.991.779-1.059,1.967-1.946,4.079-2.844,6.221-.705,1.68-1.417,3.377-2.289,5.158a.993.993,0,0,1-.067.141,1.154,1.154,0,0,0-.093.214,1.133,1.133,0,0,0-.045.191l-.005.056-1.2,10.615a1.089,1.089,0,0,1-.057.257c-.164.466-.368,1.033-.547,1.526a16.528,16.528,0,0,0-.8,2.552,20.2,20.2,0,0,0-.231,2.633l.409-1.407a1.073,1.073,0,0,1,.615-.689Z" transform="translate(-2336.502 -520.457)" fill="#143d66" fill-rule="evenodd"/>
    <path id="Tracé_15420" data-name="Tracé 15420" d="M2664.1,1702.176l4.717.863-.473,4.55a1.037,1.037,0,0,1-.016.141,1.377,1.377,0,0,1-1,.964,4.312,4.312,0,0,1-3.84-.7,1.375,1.375,0,0,1-.594-1.254.861.861,0,0,1,.037-.138Z" transform="translate(-2334.088 -521.554)" fill="#fff" fill-rule="evenodd"/>
    <path id="Tracé_15421" data-name="Tracé 15421" d="M2664.5,1701.3l4.677.855a1.076,1.076,0,0,1,.875,1.167l-.472,4.534-.006.087c0,.047-.013.1-.022.154a2.1,2.1,0,0,1-.628,1.144,2.941,2.941,0,0,1-1.066.641,5.4,5.4,0,0,1-4.9-.9,2.954,2.954,0,0,1-.775-.978,2.094,2.094,0,0,1-.181-1.287,1.438,1.438,0,0,1,.032-.154l0,0a.607.607,0,0,1,.027-.091l1.159-4.4a1.076,1.076,0,0,1,1.276-.777Zm3.31,2.791-2.758-.505-.912,3.461-.016.046c0-.006.007-.008.008,0a.836.836,0,0,0,.218.254,3.243,3.243,0,0,0,2.784.51.857.857,0,0,0,.3-.162l0,0,.375-3.6Zm-.375,3.6v0Zm-3.322-.57c0,.014,0,0,0-.007Z" transform="translate(-2334.259 -521.724)" fill="#143d66" fill-rule="evenodd"/>
    <path id="Tracé_15422" data-name="Tracé 15422" d="M2668.74,1692.27c-2.546-.466-5.335,1.133-5.576,3.729l-.523,5.7c-.221,2.4.661,4.871,3.381,5.369,2.6.475,4.361-1.351,5.06-3.825l1.554-5.514C2673.332,1695.257,2671.346,1692.745,2668.74,1692.27Z" transform="translate(-2334.141 -523.425)" fill="#fff" fill-rule="evenodd"/>
    <path id="Tracé_15423" data-name="Tracé 15423" d="M2668.718,1693.5c-.116-.022-.23-.037-.337-.046a4.093,4.093,0,0,0-2.577.633,2.988,2.988,0,0,0-1.365,1.942l-.006.031c-.012.07-.02.14-.029.21l-.522,5.7a4.806,4.806,0,0,0,.562,2.959,3.009,3.009,0,0,0,4.2.763,4.813,4.813,0,0,0,1.572-2.566l1.555-5.514c.026-.093.045-.174.059-.248a2.979,2.979,0,0,0-.576-2.274,4.054,4.054,0,0,0-2.173-1.506c-.129-.035-.25-.063-.361-.085Zm-.143-2.187c.18.016.358.04.53.071.2.036.383.079.556.128a6.227,6.227,0,0,1,3.335,2.324,5.1,5.1,0,0,1,.948,3.917c-.029.158-.062.3-.1.443l-1.555,5.513a6.939,6.939,0,0,1-2.347,3.7,5.161,5.161,0,0,1-7.316-1.336,6.938,6.938,0,0,1-.883-4.3l.525-5.7c.012-.132.028-.262.052-.392l.006-.042a5.117,5.117,0,0,1,2.31-3.361A6.259,6.259,0,0,1,2668.575,1691.309Z" transform="translate(-2334.312 -523.595)" fill="#143d66" fill-rule="evenodd"/>
    <path id="Tracé_15424" data-name="Tracé 15424" d="M2666.923,1699.688l-1.577,8.367a3.277,3.277,0,0,1-2.6,1.959l-2.941-.5c2.323-4.229,1.506-7.851,2.259-11.776.827-4.31,3.229-7.421,7.507-6.705,3.995.668,4.609,4.05,4.192,6.325l-1.72.513Z" transform="translate(-2334.668 -523.662)" fill="#143d66" fill-rule="evenodd"/>
    <path id="Tracé_15425" data-name="Tracé 15425" d="M2668.035,1700.666l-1.463,7.764h0l0,.015a1.06,1.06,0,0,1-.031.126,3.869,3.869,0,0,1-1.519,1.911,3.456,3.456,0,0,1-2.285.761c-.911-.1-2.017-.344-2.941-.5a1.078,1.078,0,0,1-.881-1.243,1.1,1.1,0,0,1,.133-.366,16.359,16.359,0,0,0,1.708-7.436,30.8,30.8,0,0,1,.422-4,10.691,10.691,0,0,1,3.024-6.046,6.565,6.565,0,0,1,5.718-1.517h.008l.112.019c.03.006.06.011.09.02a5.753,5.753,0,0,1,4.315,3.083,7.216,7.216,0,0,1,.57,4.342v.009h0l-.018.1a1.076,1.076,0,0,1-.8.86l-1.659.5-4.5,1.6Zm-3.576,7.352,1.567-8.313a1.077,1.077,0,0,1,.708-.862L2671.9,1697l1.051-.312a4.811,4.811,0,0,0-.433-2.469,3.7,3.7,0,0,0-2.795-1.933l-.171-.027v0a4.511,4.511,0,0,0-3.923,1,8.621,8.621,0,0,0-2.342,4.85,28.419,28.419,0,0,0-.387,3.718,19.837,19.837,0,0,1-1.336,7.036c.516.09,1.05.168,1.561.268a3.008,3.008,0,0,0,.644-.4,2,2,0,0,0,.679-.679l.007-.035Z" transform="translate(-2334.838 -523.832)" fill="#143d66" fill-rule="evenodd"/>
    <path id="Tracé_15426" data-name="Tracé 15426" d="M2682.576,1725l6.726-3.694,3.45-3.606-6.725,3.693Z" transform="translate(-2330.399 -518.647)" fill="#fff" fill-rule="evenodd"/>
    <path id="Tracé_15427" data-name="Tracé 15427" d="M2689.989,1722.421l-6.726,3.694a1.077,1.077,0,0,1-1.3-1.687l3.419-3.574a1.067,1.067,0,0,1,.293-.236l6.726-3.693v0a1.073,1.073,0,0,1,1.292,1.682l-3.387,3.54A1.041,1.041,0,0,1,2689.989,1722.421Z" transform="translate(-2330.572 -518.816)" fill="#143d66" fill-rule="evenodd"/>
  </g>
</svg>
