<svg xmlns="http://www.w3.org/2000/svg" width="83.39" height="83.389" viewBox="0 0 83.39 83.389">
  <g id="Groupe_1824" data-name="Groupe 1824" transform="translate(-1415.714 -774.829)">
    <g id="Groupe_1823" data-name="Groupe 1823" transform="translate(1416.714 820.236)">
      <path id="Tracé_18965" data-name="Tracé 18965" d="M1414.636,892.137h0a6.563,6.563,0,0,1,.173-9.449l27.9-25.61,7.185,7.124-25.81,27.763A6.565,6.565,0,0,1,1414.636,892.137Z" transform="translate(-1412.714 -857.078)" fill="none" stroke="#04c38f" stroke-linecap="round" stroke-linejoin="round" stroke-width="2"/>
    </g>
    <g id="Tracé_18966" data-name="Tracé 18966" transform="translate(-16.623 -7)" fill="none" stroke-linecap="round" stroke-linejoin="round">
      <path d="M1463.825,828.131l5.6,5.6a1.675,1.675,0,0,0,2.37,0l4.2-4.2a24.714,24.714,0,1,0-7.969-7.969l-4.2,4.2A1.676,1.676,0,0,0,1463.825,828.131Zm11.081-5.483c-.168-.168-.326-.34-.487-.512a19.962,19.962,0,1,1,29.156.055c-.144.153-.285.308-.435.457A19.987,19.987,0,0,1,1474.907,822.648Z" stroke="none"/>
      <path d="M 1470.608642578125 834.2203979492188 C 1471.03759765625 834.2203979492188 1471.466674804688 834.0567016601562 1471.793579101562 833.729248046875 L 1475.997314453125 829.5258178710938 C 1479.974243164062 831.9933471679688 1484.504272460938 833.2276000976562 1489.033813476562 833.2276000976562 C 1495.358764648438 833.2276000976562 1501.682739257812 830.821044921875 1506.49853515625 826.005126953125 C 1516.134765625 816.3697509765625 1516.134765625 800.69140625 1506.49853515625 791.0556640625 C 1501.680786132812 786.23779296875 1495.352416992188 783.8289184570312 1489.02392578125 783.8289184570312 C 1482.695434570312 783.8289184570312 1476.366943359375 786.23779296875 1471.548950195312 791.0556640625 C 1463.283935546875 799.3204956054688 1462.115478515625 812.0269165039062 1468.028686523438 821.5567626953125 L 1463.825317382812 825.7600708007812 C 1463.170288085938 826.4146118164062 1463.170288085938 827.4761352539062 1463.825317382812 828.1310424804688 L 1469.423706054688 833.729248046875 C 1469.750610351562 834.0567016601562 1470.179565429688 834.2203979492188 1470.608642578125 834.2203979492188 M 1489.02392578125 788.5748901367188 C 1494.136352539062 788.5748901367188 1499.248779296875 790.52099609375 1503.140991210938 794.4132690429688 C 1510.775512695312 802.0477294921875 1510.9169921875 814.3749389648438 1503.57568359375 822.1902465820312 C 1503.431396484375 822.3436279296875 1503.290649414062 822.49853515625 1503.140991210938 822.6476440429688 C 1499.248779296875 826.539794921875 1494.136352539062 828.48583984375 1489.02392578125 828.48583984375 C 1483.911499023438 828.48583984375 1478.799072265625 826.539794921875 1474.90673828125 822.6476440429688 C 1474.739013671875 822.4798583984375 1474.580444335938 822.307373046875 1474.419555664062 822.1356201171875 C 1467.131103515625 814.3175048828125 1467.290405273438 802.0299682617188 1474.90673828125 794.4132690429688 C 1478.799072265625 790.52099609375 1483.911499023438 788.5748901367188 1489.02392578125 788.5748901367188 M 1470.608642578125 836.220458984375 C 1469.625854492188 836.220458984375 1468.702392578125 835.8375244140625 1468.00830078125 835.1422729492188 L 1462.4111328125 829.5452880859375 C 1461.716552734375 828.8508911132812 1461.334106445312 827.9275512695312 1461.334106445312 826.9454345703125 C 1461.334106445312 825.9630737304688 1461.716796875 825.0396728515625 1462.41162109375 824.3453369140625 L 1465.527954101562 821.2290649414062 C 1464.364501953125 819.0755615234375 1463.505981445312 816.7742919921875 1462.9697265625 814.3677978515625 C 1462.328979492188 811.49267578125 1462.16552734375 808.5481567382812 1462.483642578125 805.6160888671875 C 1462.804931640625 802.6553955078125 1463.608276367188 799.7953491210938 1464.871459960938 797.1153564453125 C 1466.17919921875 794.3406982421875 1467.950073242188 791.8261108398438 1470.134765625 789.6414184570312 C 1472.680541992188 787.0957641601562 1475.652954101562 785.1243286132812 1478.969604492188 783.78173828125 C 1482.170654296875 782.4859008789062 1485.553466796875 781.8289184570312 1489.02392578125 781.8289184570312 C 1492.494384765625 781.8289184570312 1495.877197265625 782.4859619140625 1499.078247070312 783.78173828125 C 1502.394775390625 785.1243286132812 1505.3671875 787.0958251953125 1507.912719726562 789.6414794921875 C 1510.45849609375 792.1870727539062 1512.430053710938 795.1594848632812 1513.772705078125 798.4761352539062 C 1515.068603515625 801.6771850585938 1515.725708007812 805.0599975585938 1515.725708007812 808.530517578125 C 1515.725708007812 812.0010986328125 1515.068603515625 815.3838500976562 1513.772705078125 818.5848999023438 C 1512.430053710938 821.9014892578125 1510.45849609375 824.8738403320312 1507.912719726562 827.41943359375 C 1505.3681640625 829.9639282226562 1502.397338867188 831.9345092773438 1499.08251953125 833.2761840820312 C 1495.883666992188 834.571044921875 1492.502807617188 835.2276000976562 1489.033813476562 835.2276000976562 C 1484.572387695312 835.2276000976562 1480.211547851562 834.1251831054688 1476.325073242188 832.0263671875 L 1473.207763671875 835.1434936523438 C 1472.514770507812 835.8375854492188 1471.59130859375 836.220458984375 1470.608642578125 836.220458984375 Z M 1489.02392578125 790.5748901367188 C 1484.219604492188 790.5748901367188 1479.708251953125 792.4403076171875 1476.320922851562 795.8275146484375 C 1473.012939453125 799.1356811523438 1471.1494140625 803.5407104492188 1471.073608398438 808.231201171875 C 1470.997924804688 812.91064453125 1472.705810546875 817.3643188476562 1475.882446289062 820.7718505859375 L 1475.968994140625 820.8644409179688 C 1476.091918945312 820.9961547851562 1476.208129882812 821.1205444335938 1476.321166992188 821.233642578125 C 1479.708251953125 824.6204833984375 1484.219604492188 826.4859008789062 1489.02392578125 826.4859008789062 C 1493.828369140625 826.4859008789062 1498.339599609375 824.6204833984375 1501.726806640625 821.2333984375 C 1501.814575195312 821.14599609375 1501.90576171875 821.0481567382812 1502.002319335938 820.9446411132812 C 1502.041015625 820.9030151367188 1502.079833984375 820.8614501953125 1502.118896484375 820.8199462890625 C 1505.317138671875 817.4151611328125 1507.041870117188 812.9552612304688 1506.974487304688 808.2626953125 C 1506.906982421875 803.5601806640625 1505.043212890625 799.1439208984375 1501.726806640625 795.8275146484375 C 1498.339599609375 792.4402465820312 1493.828369140625 790.5748901367188 1489.02392578125 790.5748901367188 Z" stroke="none" fill="#04c38f"/>
    </g>
  </g>
</svg>
