<svg xmlns="http://www.w3.org/2000/svg" width="94.631" height="79.569" viewBox="0 0 94.631 79.569">
  <g id="Group_1044" data-name="Group 1044" transform="translate(1 1)">
    <g id="Groupe_1315" data-name="Groupe 1315">
      <g id="Group_1040" data-name="Group 1040" transform="translate(19.941)">
        <path id="Path_10554" data-name="Path 10554" d="M929.383,514.216h-15.95a2.565,2.565,0,0,0-2.565,2.564v9.211a2.565,2.565,0,0,0,2.565,2.565h.984v1.788a.888.888,0,0,0,1.5.639l2.562-2.432h10.9a2.564,2.564,0,0,0,2.564-2.564v-9.212A2.564,2.564,0,0,0,929.383,514.216Z" transform="translate(-910.868 -514.216)" fill="#fff" stroke="#04c38f" stroke-miterlimit="10" stroke-width="2"/>
      </g>
      <g id="Group_1041" data-name="Group 1041" transform="translate(54.447 2.07)">
        <path id="Path_10555" data-name="Path 10555" d="M942.074,515.953h14.01a2.252,2.252,0,0,1,2.252,2.253h0v8.1a2.252,2.252,0,0,1-2.252,2.253h-.865v1.57a.779.779,0,0,1-1.316.565l-2.251-2.13h-9.577a2.252,2.252,0,0,1-2.253-2.252h0v-8.1a2.252,2.252,0,0,1,2.248-2.256Z" transform="translate(-939.821 -515.953)" fill="#fff" stroke="#04c38f" stroke-miterlimit="10" stroke-width="2"/>
      </g>
      <g id="Group_1042" data-name="Group 1042" transform="translate(2.245 10.861)">
        <circle id="Ellipse_12" data-name="Ellipse 12" cx="7.151" cy="7.151" r="7.151" fill="#fff" stroke="#04c38f" stroke-miterlimit="10" stroke-width="2"/>
      </g>
      <path id="Path_10556" data-name="Path 10556" d="M923.225,558.877H912.313a1.641,1.641,0,0,1-1.643-1.639v0c0-5.282,0-11.059.008-14.827,0-2.275-1.552-4.118-3.469-4.118h-4.87c-4.531,0-8.2,4.357-8.2,9.731V564.31c0,2.9,1.984,5.253,4.43,5.253H917.89a1.555,1.555,0,0,1,1.554,1.555v13.9a2.148,2.148,0,0,0,2.149,2.149h4.086a2.148,2.148,0,0,0,2.149-2.149V563.477A4.6,4.6,0,0,0,923.225,558.877Z" transform="translate(-894.136 -509.599)" fill="#fff" stroke="#04c38f" stroke-miterlimit="10" stroke-width="2"/>
      <g id="Group_1043" data-name="Group 1043" transform="translate(76.086 10.861)">
        <circle id="Ellipse_13" data-name="Ellipse 13" cx="7.151" cy="7.151" r="7.151" fill="#fff" stroke="#04c38f" stroke-miterlimit="10" stroke-width="2"/>
      </g>
      <path id="Path_10557" data-name="Path 10557" d="M948.193,558.877h10.912a1.643,1.643,0,0,0,1.645-1.641h0c0-5.282-.006-11.059-.01-14.827,0-2.275,1.551-4.118,3.468-4.118h4.87c4.531,0,8.2,4.357,8.2,9.731V564.31c0,2.9-1.983,5.253-4.43,5.253H953.53a1.554,1.554,0,0,0-1.554,1.554h0v13.9a2.148,2.148,0,0,1-2.149,2.149h-4.085a2.149,2.149,0,0,1-2.149-2.149V563.477A4.6,4.6,0,0,1,948.193,558.877Z" transform="translate(-884.651 -509.599)" fill="#fff" stroke="#04c38f" stroke-miterlimit="10" stroke-width="2"/>
      <path id="Rectangle_564" data-name="Rectangle 564" d="M917.715,544.919h37.908a3.857,3.857,0,0,1,3.858,3.858h0a3.858,3.858,0,0,1-3.858,3.858H917.715a3.859,3.859,0,0,1-3.858-3.858h0A3.858,3.858,0,0,1,917.715,544.919Z" transform="translate(-890.354 -508.327)" fill="#fff" stroke="#04c38f" stroke-miterlimit="10" stroke-width="2"/>
    </g>
  </g>
</svg>
