<svg xmlns="http://www.w3.org/2000/svg" width="89.117" height="74.952" viewBox="0 0 89.117 74.952">
  <g id="Group_1044" data-name="Group 1044" transform="translate(1 1)">
    <g id="Groupe_1315" data-name="Groupe 1315">
      <g id="Group_1040" data-name="Group 1040" transform="translate(18.754)">
        <path id="Path_10554" data-name="Path 10554" d="M928.28,514.216h-15a2.412,2.412,0,0,0-2.412,2.411v8.663a2.412,2.412,0,0,0,2.412,2.412h.926v1.681a.835.835,0,0,0,1.41.6l2.41-2.288H928.28a2.411,2.411,0,0,0,2.411-2.411v-8.664A2.411,2.411,0,0,0,928.28,514.216Z" transform="translate(-910.868 -514.216)" fill="#fff" stroke="#143d66" stroke-miterlimit="10" stroke-width="2"/>
      </g>
      <g id="Group_1041" data-name="Group 1041" transform="translate(51.206 1.947)">
        <path id="Path_10555" data-name="Path 10555" d="M941.94,515.953h13.176a2.118,2.118,0,0,1,2.119,2.119h0v7.614a2.118,2.118,0,0,1-2.119,2.119H954.3v1.476a.732.732,0,0,1-1.237.531l-2.117-2H941.94a2.118,2.118,0,0,1-2.119-2.118h0v-7.615a2.118,2.118,0,0,1,2.114-2.122Z" transform="translate(-939.821 -515.953)" fill="#fff" stroke="#143d66" stroke-miterlimit="10" stroke-width="2"/>
      </g>
      <g id="Group_1042" data-name="Group 1042" transform="translate(2.111 10.215)">
        <circle id="Ellipse_12" data-name="Ellipse 12" cx="6.725" cy="6.725" r="6.725" fill="#fff" stroke="#143d66" stroke-miterlimit="10" stroke-width="2"/>
      </g>
      <path id="Path_10556" data-name="Path 10556" d="M921.494,557.652H911.231a1.544,1.544,0,0,1-1.546-1.541v0c0-4.968,0-10.4.008-13.945,0-2.14-1.459-3.873-3.263-3.873h-4.58c-4.262,0-7.715,4.1-7.715,9.152v15.32c0,2.729,1.866,4.941,4.167,4.941h18.173a1.462,1.462,0,0,1,1.462,1.463v13.073a2.02,2.02,0,0,0,2.021,2.021H923.8a2.02,2.02,0,0,0,2.021-2.021V561.978A4.328,4.328,0,0,0,921.494,557.652Z" transform="translate(-894.136 -511.307)" fill="#fff" stroke="#143d66" stroke-miterlimit="10" stroke-width="2"/>
      <g id="Group_1043" data-name="Group 1043" transform="translate(71.557 10.215)">
        <circle id="Ellipse_13" data-name="Ellipse 13" cx="6.725" cy="6.725" r="6.725" fill="#fff" stroke="#143d66" stroke-miterlimit="10" stroke-width="2"/>
      </g>
      <path id="Path_10557" data-name="Path 10557" d="M947.92,557.652h10.263a1.545,1.545,0,0,0,1.547-1.543h0c0-4.968-.006-10.4-.009-13.945,0-2.14,1.458-3.873,3.262-3.873h4.58c4.262,0,7.715,4.1,7.715,9.152v15.32c0,2.729-1.865,4.941-4.166,4.941H952.939a1.462,1.462,0,0,0-1.462,1.462h0v13.073a2.021,2.021,0,0,1-2.021,2.021h-3.842a2.021,2.021,0,0,1-2.021-2.021V561.978A4.329,4.329,0,0,1,947.92,557.652Z" transform="translate(-888.159 -511.307)" fill="#fff" stroke="#143d66" stroke-miterlimit="10" stroke-width="2"/>
      <path id="Rectangle_564" data-name="Rectangle 564" d="M917.485,544.919h35.652a3.628,3.628,0,0,1,3.628,3.628h0a3.629,3.629,0,0,1-3.628,3.628H917.485a3.629,3.629,0,0,1-3.628-3.628h0A3.629,3.629,0,0,1,917.485,544.919Z" transform="translate(-891.753 -510.505)" fill="#fff" stroke="#143d66" stroke-miterlimit="10" stroke-width="2"/>
    </g>
  </g>
</svg>
