<svg xmlns="http://www.w3.org/2000/svg" width="335.106" height="265.408" viewBox="0 0 335.106 265.408">
  <g id="Groupe_1065" data-name="Groupe 1065" transform="translate(-586.013 -1580.471)">
    <path id="Tracé_10612" data-name="Tracé 10612" d="M680.684,1586.138c-10.049-4.264-18.515-2.973-28.5.744-15.335,6.591-26.4,16.782-36.767,29.652-10.926,14.4-18.109,28.286-23.068,45.673-3.322,13.3-4.661,25.038-1.606,38.514,2.432,8.471,5.4,14.143,12.518,19.5l7.527,4.364,13.2,7.608,77.246-134.164Z" transform="translate(-0.728 -0.724)" fill="#00cef0" fill-rule="evenodd"/>
    <path id="Tracé_10613" data-name="Tracé 10613" d="M667.385,1585.063c-5,0-9.893,1.291-15.134,3.248-13.151,5.672-24.222,14.613-35.767,28.929a130.469,130.469,0,0,0-22.655,44.89c-3.737,14.927-4.2,25.762-1.574,37.361,2.168,7.551,4.79,12.989,11.669,18.19l18.483,10.641,74.961-130.172-18.444-10.68a29.247,29.247,0,0,0-11.538-2.406Zm-44.131,148.7a2.378,2.378,0,0,1-1.155-.292l-20.713-11.972c-8.109-6.083-11.171-12.46-13.578-20.851-3.493-15.434-1.3-28.186,1.581-39.706a135.014,135.014,0,0,1,23.464-46.515c12.081-15,23.694-24.353,37.693-30.377,8.924-3.326,18.7-5.672,30.3-.764a1.8,1.8,0,0,1,.259.139l20.548,11.892a2.312,2.312,0,0,1,.838,3.148l-77.262,134.166a2.308,2.308,0,0,1-1.392,1.056A1.978,1.978,0,0,1,623.254,1733.759Z" transform="translate(0 0)" fill="#0087ca" fill-rule="evenodd"/>
    <path id="Tracé_10614" data-name="Tracé 10614" d="M671.208,1733.352c30.264-17.467,54.8-59.952,54.8-94.9,0-34.976-24.535-49.155-54.8-31.668-30.271,17.468-54.822,59.989-54.822,94.943C616.386,1736.7,640.937,1750.82,671.208,1733.352Z" transform="translate(-7.329 -4.541)" fill="#a6edf8" fill-rule="evenodd"/>
    <path id="Tracé_10615" data-name="Tracé 10615" d="M670.479,1732.615h0Zm24.457-131.777c-7.1,0-15.029,2.427-23.311,7.2-29.584,17.073-53.66,58.778-53.66,92.949,0,16.04,5.287,27.932,14.892,33.468,9.6,5.555,22.57,4.206,36.477-3.834,29.577-17.075,53.645-58.759,53.645-92.909,0-16.08-5.3-27.973-14.907-33.508a25.886,25.886,0,0,0-13.136-3.365Zm-48.959,141.576a30.46,30.46,0,0,1-15.428-3.969c-11.078-6.4-17.182-19.718-17.182-37.46,0-35.638,25.1-79.14,55.967-96.941,15.375-8.881,29.959-10.23,41.03-3.832,11.1,6.394,17.215,19.716,17.215,37.5,0,35.618-25.1,79.08-55.954,96.881v.021C662.617,1739.795,653.9,1742.414,645.976,1742.414Z" transform="translate(-6.6 -3.804)" fill="#0087ca" fill-rule="evenodd"/>
    <path id="Tracé_10616" data-name="Tracé 10616" d="M699.939,1626.108l-1.435-.6c-5.57-1.84-9.612-1.586-15.251-.177-11.109,3.463-19.247,10.152-26.979,18.641-10.575,12.361-17.681,25.936-21.118,41.9-1.657,9.253-2.017,17.451,1.152,26.407,1.973,4.637,3.812,7.375,7.864,10.447l5.423,3.109,2.017,1.174c7.222,5.026,12.563,7.728,29.264-1.917s39.472-49.038,39.472-68.364-5.057-22.65-13.087-26.367Z" transform="translate(-11.557 -10.551)" fill="#fff" fill-rule="evenodd"/>
    <path id="Tracé_10617" data-name="Tracé 10617" d="M690.3,1625.771a30.177,30.177,0,0,0-7.222,1.055c-9.252,2.9-17.014,8.274-25.832,17.958a91.008,91.008,0,0,0-20.576,40.84c-1.36,7.573-2.184,15.944,1.07,25.155,1.894,4.462,3.637,6.75,7.092,9.371l7.195,4.127c6.3,4.382,10.731,7.472,26.972-1.916,16.115-9.313,38.32-47.767,38.32-66.37,0-18.855-4.929-21.123-11.759-24.273l-8.689-4.832a20.716,20.716,0,0,0-6.57-1.114ZM662.28,1733.136c-4.937,0-8.573-2.094-12.715-4.988l-7.273-4.186c-4.9-3.658-6.846-6.867-8.835-11.522-3.668-10.367-2.787-19.444-1.3-27.717,3.424-15.921,10.5-29.966,21.639-42.992,9.453-10.387,17.826-16.138,28.043-19.325,5.861-1.468,10.4-1.879,16.649.175l1.613.684c.09.039.173.077.257.118l7.314,4.263c8.525,3.911,14.243,8.058,14.243,28.342,0,20.168-23.168,60.285-40.628,70.359C672.787,1731.259,666.946,1733.136,662.28,1733.136Z" transform="translate(-10.825 -9.821)" fill="#0087ca" fill-rule="evenodd"/>
    <path id="Tracé_10618" data-name="Tracé 10618" d="M739.117,1836.293l-33.946-26.935-43.479-82.308c-4.875-3.68-6.891-7.552-8.555-13.343-2.615-11.579-.536-22.375,3.344-33.408a92.828,92.828,0,0,1,15.107-26.153c26.888-31.432,86.791-20.773,120.853-10.052a20.021,20.021,0,0,1,12.586,11.05l7.984,17.213a19.878,19.878,0,0,1,1.435,13.183l-6.662,30.161,36.447,83.053-38.2,21.282c.773,2.563-8.41,13.378-18.755,10.445-1.446,2.171-.5,7.1-12.066,6.728.5,2.174-2.344,4.208-7.517,4.208l-24.154-3.248A8.8,8.8,0,0,1,739.117,1836.293Z" transform="translate(-15.916 -12.751)" fill="#fff" fill-rule="evenodd"/>
    <path id="Tracé_10619" data-name="Tracé 10619" d="M706.251,1807.139l33.574,26.64h0a6.394,6.394,0,0,0,3.284,1.41l24.161,3.226c3.254,0,4.828-1.1,4.981-1.486a2.153,2.153,0,0,1,.458-1.918,2.407,2.407,0,0,1,1.844-.8c7.73.215,8.441-1.781,9.167-3.735a9.614,9.614,0,0,1,.926-1.976,2.31,2.31,0,0,1,2.529-.938,12.724,12.724,0,0,0,10.438-2.017c3.512-2.287,5.338-5.2,5.448-5.926a1.853,1.853,0,0,1,1.129-2.287l36.364-20.284-35.6-81.117a2.417,2.417,0,0,1-.147-1.428l6.67-30.162a17.623,17.623,0,0,0-1.289-11.734l-7.971-17.2a17.757,17.757,0,0,0-11.192-9.836c-20.409-6.435-89.274-24.725-118.426,9.368a90.591,90.591,0,0,0-14.7,25.488c-4.417,12.519-5.426,22.415-3.246,32.059,1.465,5.086,3.139,8.569,7.7,12.01a2.29,2.29,0,0,1,.65.763l43.248,81.879Zm60.8,35.855h-.093l-24.448-3.267a10.8,10.8,0,0,1-5.558-2.348l-33.933-26.934a2.319,2.319,0,0,1-.609-.723l-43.24-81.88c-5.227-4.088-7.327-8.49-8.979-14.219-2.407-10.641-1.352-21.341,3.4-34.8a94.871,94.871,0,0,1,15.465-26.817c31.053-36.3,102.257-17.467,123.346-10.815a22.394,22.394,0,0,1,13.981,12.283l7.978,17.192a22.236,22.236,0,0,1,1.6,14.669l-6.5,29.418,36.142,82.37a2.306,2.306,0,0,1-.976,2.935l-37.114,20.673c-.544,2.232-2.537,4.5-3.56,5.538-1.812,1.836-7.985,7.336-16.055,6.159-1.2,3.072-3.338,6.2-11.46,6.378a4.62,4.62,0,0,1-.657,1.1C774.208,1841.878,771.02,1842.994,767.049,1842.994Z" transform="translate(-15.186 -12.037)" fill="#0087ca" fill-rule="evenodd"/>
    <path id="Tracé_10620" data-name="Tracé 10620" d="M853.979,1808.744l-21.685-17.017-16.565-25.664-14.5-14.532a36.561,36.561,0,0,1-11.036-25.389l-.656-18.25-31.387-3.111-12.416,14.848c-3.361,4.029-8.4,6.258-13.41,4.693l-11.69-3.6a3.619,3.619,0,0,1-1.979-5.4l24.406-38.477a11.093,11.093,0,0,1,7.478-5.36l52.143-8.1a3.786,3.786,0,0,1,3.085,1.195l31.48,27.715c27.389,24.117,14.375,23.687,41.647,30.221,8.257,1.975,12.714,4.069,25,8.86,19.129,37.89-9.565,65.644-37.595,74.348C866.3,1805.731,856.409,1809.782,853.979,1808.744Z" transform="translate(-31.867 -20)" fill="#00ffba" fill-rule="evenodd"/>
    <path id="Tracé_10621" data-name="Tracé 10621" d="M854.6,1805.883c1.4.155,6.13-1.255,10.416-3.015,14.258-4.439,31.883-15.2,39.118-32.273,5.029-11.871,4.264-24.683-2.309-38.122l-5.77-2.289c-7.53-2.972-11.677-4.617-18.091-6.142-17.47-4.186-19.138-5.672-25.074-12.811a146.956,146.956,0,0,0-17.558-17.936l-31.481-27.7a2.219,2.219,0,0,0-1.223-.665l-52.14,8.1c-3.026.47-4.989,2.914-5.891,4.323l-24.4,38.477a1.315,1.315,0,0,0,.718,1.955l5.186,3.343,5.049,1.448a15.717,15.717,0,0,0,12.418-5.143l12.418-14.866a2.35,2.35,0,0,1,1.994-.8l31.389,3.111a2.273,2.273,0,0,1,2.069,2.19l.665,18.269a34.064,34.064,0,0,0,10.354,23.844l14.5,14.515,16.659,25.72,20.987,16.472Zm.055,4.557a5.009,5.009,0,0,1-1.985-.333,2.326,2.326,0,0,1-.513-.294l-21.684-17.018a2.126,2.126,0,0,1-.511-.568l-16.565-25.66-14.2-14.143a38.986,38.986,0,0,1-11.7-26.913l-.586-16.275-28.181-2.778-11.644,13.907c-4.216,5.066-11.4,6.258-17.13,5.792a24.364,24.364,0,0,1-6.562-2.3,15.515,15.515,0,0,1-6.212-6.876c-1.08-2.687,3.2-8.514,4.22-10.1l19.319-31.995a13.268,13.268,0,0,1,9.063-6.4l52.139-8.1a6.074,6.074,0,0,1,4.961,1.74l31.478,27.717a149.916,149.916,0,0,1,18.063,18.425c5.145,6.2,6.084,7.317,22.612,11.288,6.73,1.6,10.994,3.285,18.722,6.357l6.551,2.581a2.288,2.288,0,0,1,1.232,1.115c7.45,14.767,8.431,29.555,2.837,42.759-7.864,18.544-26.759,30.142-41.819,34.836C863.448,1808.5,858.083,1810.44,854.652,1810.44Z" transform="translate(-31.464 -19.269)" fill="#0087ca" fill-rule="evenodd"/>
    <path id="Tracé_10622" data-name="Tracé 10622" d="M812.222,1883.389h-.078c-12.667-.432-22.837-3.952-31.1-10.739-7.934-6.551-22.075-22.24-25.155-25.877a2.28,2.28,0,0,1,.261-3.228,2.307,2.307,0,0,1,3.241.253c3.031,3.58,16.876,18.953,24.579,25.292,7.45,6.142,16.71,9.308,28.33,9.7a2.3,2.3,0,0,1-.081,4.6Z" transform="translate(-40.86 -63.349)" fill="#0087ca" fill-rule="evenodd"/>
    <path id="Tracé_10623" data-name="Tracé 10623" d="M834.726,1869.087h-.03l-1-.021c-9.717-.135-19.772-.274-28.958-8.273-7.749-6.767-28.865-26.094-33.188-30.829a2.3,2.3,0,1,1,3.381-3.108c4.244,4.633,25.149,23.746,32.834,30.474,7.908,6.885,16.7,7.023,26,7.14l.993.02a2.29,2.29,0,0,1,2.268,2.307A2.314,2.314,0,0,1,834.726,1869.087Z" transform="translate(-44.623 -59.276)" fill="#0087ca" fill-rule="evenodd"/>
    <path id="Tracé_10624" data-name="Tracé 10624" d="M863.878,1853.137h-.252c-13.622-1.486-27.78-3.677-38.172-12.676-8.318-7.2-26.656-23.551-30.241-28.186a2.3,2.3,0,0,1,3.636-2.815c2.913,3.774,19.065,18.405,29.61,27.519,9.4,8.138,22.233,10.113,35.666,11.58a2.295,2.295,0,0,1-.246,4.577Z" transform="translate(-50.365 -55.044)" fill="#0087ca" fill-rule="evenodd"/>
    <path id="Tracé_10625" data-name="Tracé 10625" d="M797.3,1894.232h-.24c-10.467-1.077-23.531-3.208-31.652-10.367-6.7-5.906-17.681-16.255-21.256-20.224a2.3,2.3,0,1,1,3.422-3.072c3.385,3.755,14.312,14.043,20.874,19.853,7.145,6.28,19.294,8.235,29.09,9.233a2.294,2.294,0,0,1-.237,4.576Z" transform="translate(-38.017 -67.404)" fill="#0087ca" fill-rule="evenodd"/>
    <path id="Tracé_10626" data-name="Tracé 10626" d="M965.266,1739.522l-20.793-12.011c-7.334-3.09-12.791-3.168-20.537-1.722-12.01,2.993-20.637,8.547-30.006,16.45-1.591,1.408-3.637,3.326-5.136,4.831a131.147,131.147,0,0,0-30.569,49.644A102.022,102.022,0,0,0,852.892,1824c-.313,14.437,1.979,28.4,14.165,37.614l20.715,11.972Z" transform="translate(-64.393 -34.847)" fill="#00ffba" fill-rule="evenodd"/>
    <path id="Tracé_10627" data-name="Tracé 10627" d="M931.653,1726.423a43.176,43.176,0,0,0-8.041.882c-11.773,2.951-20.106,8.506-28.927,15.96-1.527,1.35-3.536,3.228-5,4.694a129.506,129.506,0,0,0-30.016,48.764,100.791,100.791,0,0,0-5.224,26.681c-.245,11.7,1.029,26.406,13.271,35.64L886.2,1869.7l75.181-130.075-18.778-10.856a27.362,27.362,0,0,0-10.953-2.348ZM887.037,1875.14a2.178,2.178,0,0,1-1.139-.313l-20.722-11.951c-14.132-10.661-15.6-26.777-15.328-39.668a105.053,105.053,0,0,1,5.456-27.95,134.377,134.377,0,0,1,31.122-50.544c1.543-1.546,3.628-3.5,5.256-4.929,8.087-6.826,17.417-13.575,30.952-16.978,7.786-1.448,13.829-1.6,22.007,1.857l21.046,12.129a2.371,2.371,0,0,1,1.073,1.388,2.478,2.478,0,0,1-.234,1.76l-77.495,134.049A2.278,2.278,0,0,1,887.037,1875.14Z" transform="translate(-63.658 -34.112)" fill="#0087ca" fill-rule="evenodd"/>
    <path id="Tracé_10628" data-name="Tracé 10628" d="M934.987,1874.717c30.281-17.469,54.808-59.934,54.808-94.907,0-34.954-24.527-49.135-54.808-31.667-30.258,17.485-54.8,60.009-54.8,94.943C880.184,1878.061,904.729,1892.2,934.987,1874.717Z" transform="translate(-70.985 -38.656)" fill="#a6edf8" fill-rule="evenodd"/>
    <path id="Tracé_10629" data-name="Tracé 10629" d="M958.723,1742.2c-7.1,0-15.042,2.427-23.315,7.2-29.594,17.095-53.667,58.778-53.667,92.949,0,16.061,5.294,27.953,14.889,33.487,9.614,5.555,22.582,4.187,36.47-3.834,29.594-17.095,53.655-58.777,53.655-92.929,0-16.059-5.282-27.952-14.906-33.508a26.027,26.027,0,0,0-13.125-3.364Zm-48.959,141.6a30.6,30.6,0,0,1-15.417-3.969c-11.1-6.4-17.206-19.718-17.206-37.48,0-35.638,25.114-79.121,55.959-96.919,15.373-8.88,29.966-10.25,41.056-3.835,11.091,6.4,17.213,19.716,17.213,37.478,0,35.618-25.116,79.081-55.961,96.9C926.409,1881.176,917.687,1883.8,909.765,1883.8Z" transform="translate(-70.251 -37.919)" fill="#0087ca" fill-rule="evenodd"/>
    <path id="Tracé_10630" data-name="Tracé 10630" d="M719.556,1847.422l-16.029-.473a9.537,9.537,0,0,1-6.381-2.56l-2.489-2.251a9.617,9.617,0,0,1-3.256-7.372v-6.28l-1.375-.371a9.57,9.57,0,0,1-5.067-3.305l-4.448-5.479a9.547,9.547,0,0,1-2.206-5.885l-.159-4.381-1.623-.569a10.428,10.428,0,0,1-5.631-4.6l-2.809-4.673a16.414,16.414,0,0,1-2.422-9.877l.114-2c-6.105-2.935-10.582-8.8-10.375-16.432l.113-4.869.58-10.232c.618-5.692,2.629-6.885,7.221-7.274a13.174,13.174,0,0,1,6.4.957l2.574,1.192a11.689,11.689,0,0,1,5,4.264,11.184,11.184,0,0,1,2.284,6.044l.129,1.527.03,4.969,3.042,1.368,3.292,2.875a11.386,11.386,0,0,1,4,9.175l-.252,9.251a21.553,21.553,0,0,1,4.064,2.466l3.293,2.6c2.828,2.212,4.526,6.652,4.409,10.152l-.389,11.464c3.857.177,5.595,1.506,9.093,4.343a11.218,11.218,0,0,1,4.2,7.393l1.413,9.544Z" transform="translate(-16.742 -40.544)" fill="#00ffba" fill-rule="evenodd"/>
    <path id="Tracé_10631" data-name="Tracé 10631" d="M663.817,1750.061c-.342,0-.694.021-1.039.041-3.5.312-4.62.625-5.127,5.242l-.7,14.884a15.252,15.252,0,0,0,9.085,14.319,2.315,2.315,0,0,1,1.291,2.209l-.121,2a14.2,14.2,0,0,0,2.1,8.547l2.818,4.676a8.019,8.019,0,0,0,4.434,3.619l1.62.586a2.3,2.3,0,0,1,1.521,2.074l.159,4.362a7.28,7.28,0,0,0,1.706,4.538l4.455,5.479a7.374,7.374,0,0,0,3.879,2.54l1.376.373a2.307,2.307,0,0,1,1.691,2.211l-.011,6.28a7.372,7.372,0,0,0,2.515,5.671l2.49,2.25a7.205,7.205,0,0,0,4.89,1.977l12.553.352-2.382-6.026-1.545-10.093a9.057,9.057,0,0,0-3.385-5.927c-3.439-2.8-4.677-3.677-7.74-3.814a2.3,2.3,0,0,1-2.192-2.386l.381-11.462c.1-3.012-1.452-6.652-3.529-8.274l-3.285-2.6a20.764,20.764,0,0,0-3.692-2.21,2.308,2.308,0,0,1-1.259-2.131l.259-9.253a9.037,9.037,0,0,0-3.218-7.355l-3.05-2.661-2.734-1.23a2.351,2.351,0,0,1-1.354-2.094l-.135-6.3a9.1,9.1,0,0,0-1.849-4.872,9.392,9.392,0,0,0-4.1-3.54l-2.576-1.2a10.419,10.419,0,0,0-4.2-.8Zm55,98.918h-.059l-16.037-.451a11.928,11.928,0,0,1-7.857-3.169l-2.488-2.247a11.948,11.948,0,0,1-4.022-9.077l.011-4.52a11.822,11.822,0,0,1-5.922-3.989l-4.457-5.477a11.872,11.872,0,0,1-2.727-7.258l-.259-2.853a12.727,12.727,0,0,1-6.807-5.6l-2.82-4.656a18.852,18.852,0,0,1-2.75-11.208l.032-.507a19.63,19.63,0,0,1-10.3-17.858l.121-4.851.6-10.288c.78-7.336,4.013-9,9.307-9.448a15.543,15.543,0,0,1,7.54,1.154l2.585,1.191a13.9,13.9,0,0,1,5.875,4.97,13.534,13.534,0,0,1,2.75,7.237l.121,1.506.024,3.7,1.711.762a2.484,2.484,0,0,1,.565.371l3.294,2.875a13.634,13.634,0,0,1,4.791,10.955l-.224,7.8a24.193,24.193,0,0,1,3.149,2.034l3.294,2.6c3.629,2.853,5.408,8.214,5.288,12.048l-.313,9.349c3.285.626,5.325,2.268,8.16,4.6a13.5,13.5,0,0,1,5.037,8.822l1.411,9.566,3.523,8.781a2.3,2.3,0,0,1-2.141,3.131Z" transform="translate(-16.008 -39.813)" fill="#0087ca" fill-rule="evenodd"/>
    <path id="Tracé_10632" data-name="Tracé 10632" d="M658.894,1756.915l6.944,5.4-.766,11.99c-.022.294-.4.391-.7.391-.282.039-.883-.565-1.091-.763l-2.872-2.874c-.88-.862-1.843-1.879-1.811-3.13Z" transform="translate(-17.516 -42.577)" fill="#fff" fill-rule="evenodd"/>
    <path id="Tracé_10633" data-name="Tracé 10633" d="M660.346,1760.8l-.173,6.455c-.009.195.373.7,1.137,1.448l.976.976.452-7.042-2.393-1.838Zm3.31,15.471a4.01,4.01,0,0,1-2.72-1.426l-2.875-2.878c-.955-.958-2.549-2.542-2.49-4.83l.29-11.012a2.3,2.3,0,0,1,3.706-1.761l6.947,5.4a2.281,2.281,0,0,1,.887,1.957l-.767,12.009a2.787,2.787,0,0,1-2.833,2.544Z" transform="translate(-16.784 -41.846)" fill="#0087ca" fill-rule="evenodd"/>
    <path id="Tracé_10634" data-name="Tracé 10634" d="M671.7,1781.329l8.013,5.338-.051,10.349a.868.868,0,0,1-.269.645.877.877,0,0,1-.641.256h-1a5.248,5.248,0,0,1-4.042-1.861l-.741-.839a5.285,5.285,0,0,1-1.33-3.6Z" transform="translate(-20.661 -48.468)" fill="#fff" fill-rule="evenodd"/>
    <path id="Tracé_10635" data-name="Tracé 10635" d="M673.233,1784.881l-.03,6.023a2.894,2.894,0,0,0,.765,2.055l.742.86a2.858,2.858,0,0,0,1.924,1.036l.048-7.706-3.448-2.268Zm4.784,10.012h0Zm-1.383,1.39Zm1.39,3.207H677a7.551,7.551,0,0,1-5.763-2.661l-.741-.839a7.566,7.566,0,0,1-1.892-5.105l.061-10.289a2.343,2.343,0,0,1,1.224-2.034,2.309,2.309,0,0,1,2.353.116l8.016,5.34a2.3,2.3,0,0,1,1.029,1.916l-.053,10.369a3.221,3.221,0,0,1-3.21,3.187Z" transform="translate(-19.93 -47.736)" fill="#0087ca" fill-rule="evenodd"/>
    <path id="Tracé_10636" data-name="Tracé 10636" d="M689.41,1810.872l8.029,6.1-.051,9.585a.939.939,0,0,1-.275.646.9.9,0,0,1-.65.254h-1a5.284,5.284,0,0,1-4.034-1.878l-.742-.841a5.253,5.253,0,0,1-1.335-3.6Z" transform="translate(-24.936 -55.597)" fill="#fff" fill-rule="evenodd"/>
    <path id="Tracé_10637" data-name="Tracé 10637" d="M690.959,1814.754l-.033,5.674a2.922,2.922,0,0,0,.767,2.072l.731.841a2.933,2.933,0,0,0,1.932,1.058l.039-7.022-3.438-2.622Zm4.774,9.663h0Zm-1.382,1.388v0Zm1.4,3.229H695.7l-.978-.021a7.484,7.484,0,0,1-5.763-2.661l-.734-.839a7.472,7.472,0,0,1-1.9-5.107l.054-10.289a2.331,2.331,0,0,1,1.29-2.055,2.29,2.29,0,0,1,2.407.235l8.016,6.122a2.282,2.282,0,0,1,.91,1.84l-.054,9.583a3.208,3.208,0,0,1-.942,2.25A3.244,3.244,0,0,1,695.749,1829.035Z" transform="translate(-24.207 -54.862)" fill="#0087ca" fill-rule="evenodd"/>
    <path id="Tracé_10638" data-name="Tracé 10638" d="M706.872,1845.06l8.016,5.79-.687,8.292a.9.9,0,0,1-.918.822h-1.069a5.265,5.265,0,0,1-4.042-1.858l-.039-.058c-.886-1-1.208-3.834-1.208-5.184Z" transform="translate(-29.164 -63.847)" fill="#fff" fill-rule="evenodd"/>
    <path id="Tracé_10639" data-name="Tracé 10639" d="M708.471,1848.843l.024,3.267a9.581,9.581,0,0,0,.663,3.719,2.95,2.95,0,0,0,2.115,1.093l.478-5.691-3.281-2.388Zm4.089,12.7h-.024l-1.072-.021a7.414,7.414,0,0,1-5.751-2.643c-1.759-1.994-1.813-6.257-1.819-6.746l-.055-7.784a2.3,2.3,0,0,1,3.644-1.9l8.025,5.809a2.3,2.3,0,0,1,.939,2.055l-.687,8.295A3.211,3.211,0,0,1,712.56,1861.54Z" transform="translate(-28.432 -63.112)" fill="#0087ca" fill-rule="evenodd"/>
    <path id="Tracé_10640" data-name="Tracé 10640" d="M682.92,1773.523a35.349,35.349,0,0,0-4.04.568c-2.706.586-6.092,1.582-7.787,3.814-1.644,2.17-1.859,12.3-2.124,15.472C668.647,1779.957,665.988,1772.7,682.92,1773.523Z" transform="translate(-19.936 -46.569)" fill="#a6edf8" fill-rule="evenodd"/>
    <path id="Tracé_10641" data-name="Tracé 10641" d="M668.237,1794.952h-.07a2.327,2.327,0,0,1-2.231-2.25c-.037-1.6-.107-3.109-.183-4.538-.291-6.279-.528-11.229,2.718-14.474,2.552-2.544,6.833-3.521,13.816-3.207a2.306,2.306,0,0,1,2.192,2.228,2.279,2.279,0,0,1-2.056,2.348c-1.533.175-2.781.333-3.8.548-1.237.275-5,1.075-6.431,2.973-.926,1.371-1.347,8.88-1.506,11.7-.061,1.058-.105,1.937-.162,2.563A2.3,2.3,0,0,1,668.237,1794.952Z" transform="translate(-19.204 -45.837)" fill="#0087ca" fill-rule="evenodd"/>
    <path id="Tracé_10642" data-name="Tracé 10642" d="M727.815,1711.33l6.537.764a1.79,1.79,0,0,1,1.377.886c1.951,3.2-10.248,15.711-12.41,18.287l-5.881-4.133c1.694-3.963,2.852-6.7,2.852-6.7l1.377-2.791L724.2,1715" transform="translate(-29.564 -30.101)" fill="#fff" stroke="rgba(0,0,0,0)" stroke-width="1" fill-rule="evenodd"/>
    <path id="Tracé_10643" data-name="Tracé 10643" d="M727.936,1712.654h0Zm-6.81,14.829c1.543,0,2.039-.39,3.359-1.21a15.944,15.944,0,0,0,3.059-3.17c4.971-5.851,5.338-7.808,5.836-9.315a28.434,28.434,0,0,0-4.212-.894,17.132,17.132,0,0,0-3.694,0c-2.166,2.249-3.411,4.22-5.362,6.613,0,0-3.279,4.191-2.812,5.932S719.582,1727.482,721.125,1727.482Zm1.283,4.345a1.928,1.928,0,0,1-.467-.059s-4.905-1.445-6.086-2.444a4.629,4.629,0,0,1-1.451-1.842c-.39-.476,1.171-5.947,1.451-6.573,1.63-2.2,5-7.239,6.779-9.918.427-.643.788-1.189.788-1.189s2.316-1.622,3.607-1.466h0l6.35.7a4.034,4.034,0,0,1,3.033,1.9c2.141,3.443-1.932,8.9-10.72,18.386-.7.743-1.231,1.33-1.551,1.7" transform="translate(-28.294 -30.018)" fill="#0087ca" stroke="rgba(0,0,0,0)" stroke-width="1" fill-rule="evenodd"/>
    <path id="Tracé_10644" data-name="Tracé 10644" d="M696.912,1803.411c-3.705.392-8.314,1.545-9.993,4.811-1.116,2.212-1.369,11.112-1.673,14.086C684.861,1812.586,682.188,1802.707,696.912,1803.411Z" transform="translate(-23.841 -53.788)" fill="#a6edf8" fill-rule="evenodd"/>
    <path id="Tracé_10645" data-name="Tracé 10645" d="M684.517,1823.879h-.084a2.3,2.3,0,0,1-2.224-2.209c-.049-1.155-.118-2.309-.191-3.444-.367-5.436-.742-11.05,2.756-14.63,2.377-2.426,6.175-3.5,11.515-3.226a2.3,2.3,0,0,1,.139,4.593c-4.333.452-7.237,1.724-8.186,3.58-.625,1.2-1.007,7.061-1.191,9.9-.089,1.371-.169,2.583-.259,3.386A2.3,2.3,0,0,1,684.517,1823.879Z" transform="translate(-23.111 -53.052)" fill="#0087ca" fill-rule="evenodd"/>
    <path id="Tracé_10646" data-name="Tracé 10646" d="M712.359,1838.629c-8.931.587-8.992,4.362-9.566,11.932C702.6,1841.29,701.777,1838.238,712.359,1838.629Z" transform="translate(-28.156 -62.287)" fill="#a6edf8" fill-rule="evenodd"/>
    <path id="Tracé_10647" data-name="Tracé 10647" d="M702.069,1851.842h-.052a2.08,2.08,0,0,1-2.256-1.976l-.046-1.7c-.124-4.7-.213-8.08,2.065-10.33,1.809-1.8,4.653-2.444,9.94-2.25a2.3,2.3,0,0,1,.052,4.6c-6.718.43-6.846,2.133-7.38,9.274-.006.076-.023.174-.032.272l-.015.039A2.538,2.538,0,0,1,702.069,1851.842Z" transform="translate(-27.424 -61.553)" fill="#0087ca" fill-rule="evenodd"/>
    <path id="Tracé_10648" data-name="Tracé 10648" d="M767.205,1708.007c.685,1.935,3.292,6.9-.389,11.344,2.826-2.934,5.331-3.285,8.41-3.267C770.505,1714.892,769.085,1710.824,767.205,1708.007Z" transform="translate(-43.629 -30.775)" fill="#a6edf8" fill-rule="evenodd"/>
    <path id="Tracé_10649" data-name="Tracé 10649" d="M766.085,1720.926a2.3,2.3,0,0,1-1.768-3.774c2.241-2.7,1.376-5.6.294-8.333l-.3-.764A2.3,2.3,0,0,1,768.39,1706c.382.569.752,1.194,1.124,1.84,1.369,2.346,2.667,4.538,5.546,5.261a2.305,2.305,0,0,1-.565,4.538h0c-2.872.2-4.622.374-6.753,2.564A2.237,2.237,0,0,1,766.085,1720.926Z" transform="translate(-42.898 -30.042)" fill="#0087ca" fill-rule="evenodd"/>
    <path id="Tracé_10650" data-name="Tracé 10650" d="M818.3,1716.848c-3.216,1.7-4.355,2.837-12.56,3.445,6.633.663,4.439,2.892,5.19,6.925C811.132,1720.859,814.91,1719.763,818.3,1716.848Z" transform="translate(-53.021 -32.908)" fill="#a6edf8" fill-rule="evenodd"/>
    <path id="Tracé_10651" data-name="Tracé 10651" d="M810.2,1728.772a2.3,2.3,0,0,1-2.263-1.878,16.486,16.486,0,0,1-.229-3.092,6.293,6.293,0,0,0-.084-1.33h0a7.334,7.334,0,0,0-2.835-.624,2.282,2.282,0,0,1-2.079-2.309,2.322,2.322,0,0,1,2.133-2.269c6.746-.488,8.183-1.29,10.559-2.6l1.093-.588a2.3,2.3,0,0,1,2.583,3.776c-.763.645-1.552,1.233-2.324,1.8-2.572,1.879-4.127,3.013-4.256,6.9a2.315,2.315,0,0,1-2.131,2.212Z" transform="translate(-52.289 -32.176)" fill="#0087ca" fill-rule="evenodd"/>
  </g>
</svg>
