<svg xmlns="http://www.w3.org/2000/svg" width="249.805" height="323.531" viewBox="0 0 249.805 323.531">
  <g id="Groupe_1066" data-name="Groupe 1066" transform="translate(-1765.284 -2067.408)">
    <path id="Tracé_10568" data-name="Tracé 10568" d="M1906.44,2151.725c8.036-4.4,16.437-7,25.05-2.488-6.264-3.616-15.4-10.135-21.8-10.931-6.59-.819-12.729,1.594-18.373,4.688-19.547,11.862-33.617,35.761-35.327,58.486l15.125,8.731C1872.822,2187.486,1886.893,2163.586,1906.44,2151.725Z" transform="translate(-24.766 -19.314)" fill="#00cef0" fill-rule="evenodd"/>
    <path id="Tracé_10569" data-name="Tracé 10569" d="M1904.369,2148.7a40.262,40.262,0,0,1,13.112-4.865l.759-.106c-3.533-1.975-7-3.592-9.753-3.933a21.2,21.2,0,0,0-8.574.791,41.844,41.844,0,0,0-8.34,3.615l-.069.034c-9.282,5.673-17.3,14.2-23.239,24.035a75.32,75.32,0,0,0-10.639,30.976l10.56,6.1a80.979,80.979,0,0,1,11.064-30.843c6.348-10.509,14.985-19.651,25.033-25.748l.087-.054Zm13.834-.081a35.64,35.64,0,0,0-11.508,4.316c-9.309,5.666-17.354,14.211-23.306,24.067a74.787,74.787,0,0,0-10.772,32.478,2.42,2.42,0,0,1-3.623,1.909l-15.007-8.665a2.42,2.42,0,0,1-1.315-2.334,79.641,79.641,0,0,1,11.452-34.614,76.192,76.192,0,0,1,24.856-25.644l.265-.168a46.51,46.51,0,0,1,9.324-4.01,26,26,0,0,1,10.5-.96c5.514.684,12.438,4.957,18.313,8.583,1.571.967,3.073,1.9,4.332,2.624a2.412,2.412,0,0,1-2.253,4.266A17.8,17.8,0,0,0,1918.2,2148.621Z" transform="translate(-23.858 -18.405)" fill="#0087ca" fill-rule="evenodd"/>
    <path id="Tracé_10570" data-name="Tracé 10570" d="M1906.44,2151.725c8.036-4.4,16.437-7,25.05-2.488-6.264-3.616-15.4-10.135-21.8-10.931-6.59-.819-12.729,1.594-18.373,4.688-19.547,11.862-33.617,35.761-35.327,58.486l15.125,8.731C1872.822,2187.486,1886.893,2163.586,1906.44,2151.725Z" transform="translate(-24.766 -19.314)" fill="#00cef0" fill-rule="evenodd"/>
    <path id="Tracé_10571" data-name="Tracé 10571" d="M1904.369,2148.7a40.262,40.262,0,0,1,13.112-4.865l.759-.106c-3.533-1.975-7-3.592-9.753-3.933a21.2,21.2,0,0,0-8.574.791,41.844,41.844,0,0,0-8.34,3.615l-.069.034c-9.282,5.673-17.3,14.2-23.239,24.035a75.32,75.32,0,0,0-10.639,30.976l10.56,6.1a80.979,80.979,0,0,1,11.064-30.843c6.348-10.509,14.985-19.651,25.033-25.748l.087-.054Zm13.834-.081a35.64,35.64,0,0,0-11.508,4.316c-9.309,5.666-17.354,14.211-23.306,24.067a74.787,74.787,0,0,0-10.772,32.478,2.42,2.42,0,0,1-3.623,1.909l-15.007-8.665a2.42,2.42,0,0,1-1.315-2.334,79.641,79.641,0,0,1,11.452-34.614,76.192,76.192,0,0,1,24.856-25.644l.265-.168a46.51,46.51,0,0,1,9.324-4.01,26,26,0,0,1,10.5-.96c5.514.684,12.438,4.957,18.313,8.583,1.571.967,3.073,1.9,4.332,2.624a2.412,2.412,0,0,1-2.253,4.266A17.8,17.8,0,0,0,1918.2,2148.621Z" transform="translate(-23.858 -18.405)" fill="#0087ca" fill-rule="evenodd"/>
    <path id="Tracé_10572" data-name="Tracé 10572" d="M1926.56,2080.867c-4.6-2.654-14.86-9.505-19.053-10.027-20.535-2.551-42.883,41.812-25.53,52.321l15.124,8.732c-19.018-12.065,9.546-61.463,29.458-51.025Zm-14.714,52.447-.016.01-15.124-8.733.017-.011Z" transform="translate(-30.163 -0.908)" fill="#a6edf8" fill-rule="evenodd"/>
    <path id="Tracé_10573" data-name="Tracé 10573" d="M1923.218,2075.674l3.574,2.159a2.412,2.412,0,0,1-2.253,4.265c-5.686-2.981-12.486.126-18.341,5.915a50.916,50.916,0,0,0-12.755,22.075c-1.346,5.123-1.533,10.029-.052,13.793a2.417,2.417,0,0,1,1.235-2.306l.017-.01a2.422,2.422,0,0,1,2.374.02l15.038,8.681a2.413,2.413,0,0,1,.057,4.249l-.018.01a2.416,2.416,0,0,1-2.372-.02l-15.038-8.682a2.332,2.332,0,0,1-.543-.387,10.019,10.019,0,0,0,3.35,3.5,2.415,2.415,0,0,1-2.5,4.133c-5.037-2.895-10.2-5.777-15.173-8.76-4.521-2.737-6.775-7.314-7.274-12.75-.493-5.368.756-11.594,3.2-17.622a56.045,56.045,0,0,1,10.243-16.411c6.059-6.635,13.505-10.917,20.906-10,3.792.469,11.046,4.909,16.326,8.143Zm-7.7,1c-3.688-2.161-7.348-4.1-9.213-4.335-5.676-.7-11.681,2.9-16.746,8.45a51.165,51.165,0,0,0-9.338,14.973c-2.174,5.367-3.292,10.809-2.874,15.371.36,3.932,1.9,7.188,4.943,9.046l5.913,3.414c-1.124-4.367-.811-9.485.568-14.729a55.7,55.7,0,0,1,14.04-24.29C1906.736,2080.69,1911.1,2077.833,1915.521,2076.67Z" transform="translate(-29.258 0)" fill="#0087ca" fill-rule="evenodd"/>
    <path id="Tracé_10574" data-name="Tracé 10574" d="M1926.56,2080.867c-4.6-2.654-14.86-9.505-19.053-10.027-20.535-2.551-42.883,41.812-25.53,52.321l15.124,8.732c-19.018-12.065,9.546-61.463,29.458-51.025Zm-14.714,52.447-.016.01-15.124-8.733.017-.011Z" transform="translate(-30.163 -0.908)" fill="#a6edf8" fill-rule="evenodd"/>
    <path id="Tracé_10575" data-name="Tracé 10575" d="M1923.218,2075.674l3.574,2.159a2.412,2.412,0,0,1-2.253,4.265c-5.686-2.981-12.486.126-18.341,5.915a50.916,50.916,0,0,0-12.755,22.075c-1.346,5.123-1.533,10.029-.052,13.793a2.417,2.417,0,0,1,1.235-2.306l.017-.01a2.422,2.422,0,0,1,2.374.02l15.038,8.681a2.413,2.413,0,0,1,.057,4.249l-.018.01a2.416,2.416,0,0,1-2.372-.02l-15.038-8.682a2.332,2.332,0,0,1-.543-.387,10.019,10.019,0,0,0,3.35,3.5,2.415,2.415,0,0,1-2.5,4.133c-5.037-2.895-10.2-5.777-15.173-8.76-4.521-2.737-6.775-7.314-7.274-12.75-.493-5.368.756-11.594,3.2-17.622a56.045,56.045,0,0,1,10.243-16.411c6.059-6.635,13.505-10.917,20.906-10,3.792.469,11.046,4.909,16.326,8.143Zm-7.7,1c-3.688-2.161-7.348-4.1-9.213-4.335-5.676-.7-11.681,2.9-16.746,8.45a51.165,51.165,0,0,0-9.338,14.973c-2.174,5.367-3.292,10.809-2.874,15.371.36,3.932,1.9,7.188,4.943,9.046l5.913,3.414c-1.124-4.367-.811-9.485.568-14.729a55.7,55.7,0,0,1,14.04-24.29C1906.736,2080.69,1911.1,2077.833,1915.521,2076.67Z" transform="translate(-29.258 0)" fill="#0087ca" fill-rule="evenodd"/>
    <path id="Tracé_10576" data-name="Tracé 10576" d="M1937.17,2152.518c-6.668-3.849-15.624-2.954-25.058,2.493-9.772,5.647-18.622,15.335-25.028,26.424-5.875,10.177-9.693,21.537-10.29,32.056l70.666-40.8C1946.866,2162.86,1943.046,2155.91,1937.17,2152.518Z" transform="translate(-30.446 -22.595)" fill="#00cef0" fill-rule="evenodd"/>
    <path id="Tracé_10577" data-name="Tracé 10577" d="M1935.054,2153.7a16.5,16.5,0,0,0-10.04-1.928,31.948,31.948,0,0,0-12.6,4.418,58.622,58.622,0,0,0-12.992,10.491,82.59,82.59,0,0,0-18.153,30.743,65.781,65.781,0,0,0-2.509,10.719l65.266-37.681a27.814,27.814,0,0,0-2.705-9.917,16.191,16.191,0,0,0-6.266-6.844Zm-10.514-6.732a21.26,21.26,0,0,1,12.935,2.553,20.957,20.957,0,0,1,8.157,8.83,33.643,33.643,0,0,1,3.332,13.294,2.427,2.427,0,0,1-1.211,2.231l-70.54,40.725a2.413,2.413,0,0,1-3.737-2.149,66.923,66.923,0,0,1,3.193-16.5,87.406,87.406,0,0,1,19.256-32.6,63.151,63.151,0,0,1,14.069-11.339A36.863,36.863,0,0,1,1924.539,2146.969Z" transform="translate(-29.54 -21.689)" fill="#0087ca" fill-rule="evenodd"/>
    <path id="Tracé_10578" data-name="Tracé 10578" d="M1937.17,2152.518c-6.668-3.849-15.624-2.954-25.058,2.493-9.772,5.647-18.622,15.335-25.028,26.424-5.875,10.177-9.693,21.537-10.29,32.056l70.666-40.8C1946.866,2162.86,1943.046,2155.91,1937.17,2152.518Z" transform="translate(-30.446 -22.595)" fill="#a6edf8" fill-rule="evenodd"/>
    <path id="Tracé_10579" data-name="Tracé 10579" d="M1935.054,2153.7a16.5,16.5,0,0,0-10.04-1.928,31.948,31.948,0,0,0-12.6,4.418,58.622,58.622,0,0,0-12.992,10.491,82.59,82.59,0,0,0-18.153,30.743,65.781,65.781,0,0,0-2.509,10.719l65.266-37.681a27.814,27.814,0,0,0-2.705-9.917,16.191,16.191,0,0,0-6.266-6.844Zm-10.514-6.732a21.26,21.26,0,0,1,12.935,2.553,20.957,20.957,0,0,1,8.157,8.83,33.643,33.643,0,0,1,3.332,13.294,2.427,2.427,0,0,1-1.211,2.231l-70.54,40.725a2.413,2.413,0,0,1-3.737-2.149,66.923,66.923,0,0,1,3.193-16.5,87.406,87.406,0,0,1,19.256-32.6,63.151,63.151,0,0,1,14.069-11.339A36.863,36.863,0,0,1,1924.539,2146.969Z" transform="translate(-29.54 -21.689)" fill="#0087ca" fill-rule="evenodd"/>
    <path id="Tracé_10580" data-name="Tracé 10580" d="M1917.555,2133.719l.016-.009c5.744-3.322,10.947-9.021,14.712-15.538h0c3.766-6.528,6.1-13.886,6.1-20.533s-2.334-11.311-6.1-13.487-8.98-1.859-14.728,1.461-10.964,9.02-14.729,15.548-6.106,13.89-6.106,20.532,2.336,11.307,6.1,13.484S1911.8,2137.04,1917.555,2133.719Z" transform="translate(-35.887 -4.194)" fill="#fff" fill-rule="evenodd"/>
    <path id="Tracé_10581" data-name="Tracé 10581" d="M1917.834,2134.91l-.017.009a22.454,22.454,0,0,1-8.9,3.07,13.518,13.518,0,0,1-8.053-1.546l-.158-.083a13.526,13.526,0,0,1-5.52-6.3,22.452,22.452,0,0,1-1.795-9.277,38.242,38.242,0,0,1,1.682-10.787,52.518,52.518,0,0,1,11.855-20.536,38.249,38.249,0,0,1,8.516-6.849,22.536,22.536,0,0,1,8.931-3.089,13.011,13.011,0,0,1,13.728,7.926,22.524,22.524,0,0,1,1.793,9.281,38.254,38.254,0,0,1-1.681,10.8,51.233,51.233,0,0,1-4.72,10.893l-.029.052a51.665,51.665,0,0,1-6.973,9.434l-.128.144a38.2,38.2,0,0,1-8.49,6.839l-.039.02Zm-2.385-4.194a33.536,33.536,0,0,0,7.416-5.992l.119-.115a46.714,46.714,0,0,0,6.3-8.557l.107-.166a46.354,46.354,0,0,0,4.188-9.719,33.442,33.442,0,0,0,1.472-9.434,17.743,17.743,0,0,0-1.359-7.293,8.175,8.175,0,0,0-8.845-5.11,17.752,17.752,0,0,0-7,2.467,33.4,33.4,0,0,0-7.419,6,47.335,47.335,0,0,0-10.72,18.573,33.335,33.335,0,0,0-1.474,9.423,17.751,17.751,0,0,0,1.36,7.29,8.748,8.748,0,0,0,3.535,4.1l.105.067a8.856,8.856,0,0,0,5.211.939A17.743,17.743,0,0,0,1915.449,2130.716Z" transform="translate(-34.978 -3.287)" fill="#0087ca" fill-rule="evenodd"/>
    <path id="Tracé_10582" data-name="Tracé 10582" d="M1917.555,2133.719l.016-.009c5.744-3.322,10.947-9.021,14.712-15.538h0c3.766-6.528,6.1-13.886,6.1-20.533s-2.334-11.311-6.1-13.487-8.98-1.859-14.728,1.461-10.964,9.02-14.729,15.548-6.106,13.89-6.106,20.532,2.336,11.307,6.1,13.484S1911.8,2137.04,1917.555,2133.719Z" transform="translate(-35.887 -4.194)" fill="#fff" fill-rule="evenodd"/>
    <path id="Tracé_10583" data-name="Tracé 10583" d="M1917.834,2134.91l-.017.009a22.454,22.454,0,0,1-8.9,3.07,13.518,13.518,0,0,1-8.053-1.546l-.158-.083a13.526,13.526,0,0,1-5.52-6.3,22.452,22.452,0,0,1-1.795-9.277,38.242,38.242,0,0,1,1.682-10.787,52.518,52.518,0,0,1,11.855-20.536,38.249,38.249,0,0,1,8.516-6.849,22.536,22.536,0,0,1,8.931-3.089,13.011,13.011,0,0,1,13.728,7.926,22.524,22.524,0,0,1,1.793,9.281,38.254,38.254,0,0,1-1.681,10.8,51.233,51.233,0,0,1-4.72,10.893l-.029.052a51.665,51.665,0,0,1-6.973,9.434l-.128.144a38.2,38.2,0,0,1-8.49,6.839l-.039.02Zm-2.385-4.194a33.536,33.536,0,0,0,7.416-5.992l.119-.115a46.714,46.714,0,0,0,6.3-8.557l.107-.166a46.354,46.354,0,0,0,4.188-9.719,33.442,33.442,0,0,0,1.472-9.434,17.743,17.743,0,0,0-1.359-7.293,8.175,8.175,0,0,0-8.845-5.11,17.752,17.752,0,0,0-7,2.467,33.4,33.4,0,0,0-7.419,6,47.335,47.335,0,0,0-10.72,18.573,33.335,33.335,0,0,0-1.474,9.423,17.751,17.751,0,0,0,1.36,7.29,8.748,8.748,0,0,0,3.535,4.1l.105.067a8.856,8.856,0,0,0,5.211.939A17.743,17.743,0,0,0,1915.449,2130.716Z" transform="translate(-34.978 -3.287)" fill="#0087ca" fill-rule="evenodd"/>
    <path id="Tracé_10584" data-name="Tracé 10584" d="M1819.06,2423.578c8.037-4.407,16.436-7,25.05-2.49-6.262-3.616-15.4-10.135-21.8-10.932-6.587-.819-12.729,1.594-18.37,4.688-19.547,11.862-33.617,35.761-35.327,58.485l15.124,8.734C1785.444,2459.339,1799.514,2435.438,1819.06,2423.578Z" transform="translate(-0.908 -93.54)" fill="#00cef0" fill-rule="evenodd"/>
    <path id="Tracé_10585" data-name="Tracé 10585" d="M1816.99,2420.553a40.194,40.194,0,0,1,13.11-4.864l.763-.1c-3.534-1.975-7.008-3.593-9.755-3.933a21.168,21.168,0,0,0-8.575.791,41.752,41.752,0,0,0-8.341,3.614l-.068.034c-9.277,5.671-17.3,14.2-23.238,24.034a75.317,75.317,0,0,0-10.641,30.976l10.561,6.1a80.955,80.955,0,0,1,11.062-30.841c6.349-10.51,14.986-19.652,25.035-25.751l.087-.054Zm13.83-.079a35.676,35.676,0,0,0-11.505,4.312c-9.312,5.669-17.352,14.215-23.308,24.072a74.761,74.761,0,0,0-10.77,32.477,2.419,2.419,0,0,1-3.621,1.909l-15.011-8.667a2.423,2.423,0,0,1-1.315-2.336,79.634,79.634,0,0,1,11.454-34.615,76.179,76.179,0,0,1,24.854-25.641l.265-.167a46.233,46.233,0,0,1,9.324-4.01,25.981,25.981,0,0,1,10.505-.96c5.513.681,12.436,4.957,18.313,8.581,1.573.97,3.068,1.894,4.33,2.624a2.412,2.412,0,0,1-2.251,4.266A17.817,17.817,0,0,0,1830.82,2420.474Z" transform="translate(0 -92.632)" fill="#0087ca" fill-rule="evenodd"/>
    <path id="Tracé_10586" data-name="Tracé 10586" d="M1839.18,2352.721c-4.6-2.656-14.861-9.508-19.054-10.028-20.534-2.551-42.883,41.81-25.53,52.319l15.125,8.731c-19.019-12.064,9.547-61.463,29.459-51.023Zm-14.714,52.445-.018.01-15.124-8.731.018-.01Z" transform="translate(-6.305 -75.135)" fill="#a6edf8" fill-rule="evenodd"/>
    <path id="Tracé_10587" data-name="Tracé 10587" d="M1835.84,2347.524c1.383.85,2.631,1.613,3.645,2.2a2.414,2.414,0,0,1-2.326,4.228c-5.686-2.98-12.485.123-18.342,5.916a50.933,50.933,0,0,0-12.753,22.075c-1.346,5.123-1.531,10.029-.05,13.793a2.432,2.432,0,0,1,3.634-2.3l15.123,8.733a2.424,2.424,0,0,1-2.439,4.189l-15.123-8.732a2.485,2.485,0,0,1-.449-.34,10.1,10.1,0,0,0,3.352,3.508,2.417,2.417,0,0,1-2.506,4.133c-4.149-2.415-11.656-6.134-15.163-8.761-4.52-2.738-6.777-7.315-7.275-12.75-.493-5.368.756-11.594,3.2-17.622a55.977,55.977,0,0,1,10.242-16.409c6.063-6.638,13.508-10.919,20.909-10,3.79.469,11.046,4.911,16.325,8.141Zm-7.7,1c-3.688-2.159-7.348-4.1-9.212-4.336-5.673-.7-11.679,2.905-16.748,8.454a51.092,51.092,0,0,0-9.336,14.971c-2.173,5.365-3.292,10.808-2.874,15.371.359,3.927,1.892,7.177,4.93,9.038l5.923,3.414c-1.121-4.364-.807-9.479.57-14.719a55.723,55.723,0,0,1,14.028-24.281C1819.356,2352.542,1823.719,2349.684,1828.141,2348.52Z" transform="translate(-5.4 -74.227)" fill="#0087ca" fill-rule="evenodd"/>
    <path id="Tracé_10588" data-name="Tracé 10588" d="M1849.79,2424.37c-6.668-3.85-15.623-2.954-25.058,2.493-9.772,5.646-18.622,15.335-25.027,26.425-5.877,10.177-9.692,21.536-10.29,32.057l70.665-40.8C1859.488,2434.714,1855.665,2427.763,1849.79,2424.37Z" transform="translate(-6.589 -96.822)" fill="#a6edf8" fill-rule="evenodd"/>
    <path id="Tracé_10589" data-name="Tracé 10589" d="M1847.672,2425.554a16.506,16.506,0,0,0-10.041-1.928,31.874,31.874,0,0,0-12.6,4.416,58.761,58.761,0,0,0-13,10.495,80.721,80.721,0,0,0-11.15,15.056l-.076.12a81.47,81.47,0,0,0-6.921,15.564,65.892,65.892,0,0,0-2.511,10.72l65.267-37.682a27.779,27.779,0,0,0-2.708-9.916,16.2,16.2,0,0,0-6.265-6.845Zm-10.515-6.731a21.276,21.276,0,0,1,12.937,2.553,20.953,20.953,0,0,1,8.155,8.831,33.639,33.639,0,0,1,3.336,13.292,2.428,2.428,0,0,1-1.211,2.231l-70.543,40.727a2.413,2.413,0,0,1-3.737-2.149,66.9,66.9,0,0,1,3.2-16.505,86.091,86.091,0,0,1,7.34-16.489l.074-.141a85.69,85.69,0,0,1,11.833-15.961,63.3,63.3,0,0,1,14.076-11.344A36.8,36.8,0,0,1,1837.157,2418.822Z" transform="translate(-5.681 -95.916)" fill="#0087ca" fill-rule="evenodd"/>
    <path id="Tracé_10590" data-name="Tracé 10590" d="M1830.174,2405.569l.018-.009c5.744-3.322,10.947-9.02,14.712-15.538l0,0c3.767-6.529,6.1-13.885,6.1-20.532s-2.333-11.314-6.1-13.487-8.981-1.861-14.73,1.459-10.963,9.02-14.728,15.549-6.105,13.89-6.105,20.532,2.334,11.307,6.105,13.485S1824.422,2408.891,1830.174,2405.569Z" transform="translate(-12.029 -78.42)" fill="#fff" fill-rule="evenodd"/>
    <path id="Tracé_10591" data-name="Tracé 10591" d="M1828.079,2402.56a33.421,33.421,0,0,0,7.407-5.985,46.536,46.536,0,0,0,6.419-8.67l.106-.169a46.246,46.246,0,0,0,4.192-9.721,33.41,33.41,0,0,0,1.473-9.43,17.733,17.733,0,0,0-1.362-7.292,8.17,8.17,0,0,0-8.844-5.109,17.68,17.68,0,0,0-6.992,2.467l-.133.071a33.542,33.542,0,0,0-7.3,5.925,46.181,46.181,0,0,0-6.419,8.663,46.7,46.7,0,0,0-4.3,9.906,33.391,33.391,0,0,0-1.474,9.425,17.752,17.752,0,0,0,1.362,7.294,8.755,8.755,0,0,0,3.532,4.1l.108.067a8.853,8.853,0,0,0,5.208.94,17.76,17.76,0,0,0,6.99-2.465l.026-.015Zm10.9-2.657a38.17,38.17,0,0,1-8.492,6.841l-.017.01a22.54,22.54,0,0,1-8.938,3.089,13.569,13.569,0,0,1-8.053-1.545l-.158-.083a13.538,13.538,0,0,1-5.521-6.3,22.483,22.483,0,0,1-1.795-9.281,38.215,38.215,0,0,1,1.684-10.789,52.338,52.338,0,0,1,11.853-20.532,38.241,38.241,0,0,1,8.38-6.768l.129-.081a22.476,22.476,0,0,1,8.94-3.09,13,13,0,0,1,13.725,7.924,22.472,22.472,0,0,1,1.8,9.281,38.28,38.28,0,0,1-1.681,10.8,51.275,51.275,0,0,1-4.721,10.893l-.031.053A51.353,51.353,0,0,1,1838.984,2399.9Z" transform="translate(-11.12 -77.514)" fill="#0087ca" fill-rule="evenodd"/>
    <path id="Tracé_10592" data-name="Tracé 10592" d="M2038.032,2297.152c8.036-4.4,16.437-7,25.049-2.487-6.262-3.617-15.4-10.136-21.8-10.932-6.589-.819-12.729,1.594-18.373,4.688-19.545,11.861-33.616,35.761-35.325,58.485l15.123,8.73C2004.415,2332.916,2018.485,2309.014,2038.032,2297.152Z" transform="translate(-60.696 -59.021)" fill="#00cef0" fill-rule="evenodd"/>
    <path id="Tracé_10593" data-name="Tracé 10593" d="M2035.961,2294.131a40.1,40.1,0,0,1,13.11-4.865l.759-.105c-3.531-1.974-7-3.593-9.75-3.933a21.191,21.191,0,0,0-8.578.79,41.886,41.886,0,0,0-8.34,3.614l-.066.035c-9.28,5.672-17.3,14.2-23.239,24.033a75.352,75.352,0,0,0-10.642,30.976l10.561,6.1a80.966,80.966,0,0,1,11.064-30.843c6.349-10.508,14.985-19.65,25.033-25.748l.088-.053Zm13.83-.081a35.676,35.676,0,0,0-11.5,4.313c-9.311,5.669-17.353,14.213-23.306,24.069a74.775,74.775,0,0,0-10.772,32.479,2.419,2.419,0,0,1-3.621,1.908l-15.011-8.666a2.42,2.42,0,0,1-1.315-2.336,79.66,79.66,0,0,1,11.456-34.618,76.179,76.179,0,0,1,24.853-25.637l.266-.169a46.436,46.436,0,0,1,9.321-4.009,25.965,25.965,0,0,1,10.508-.96c5.512.682,12.431,4.954,18.306,8.577,1.53.944,2.989,1.843,4.414,2.666a2.413,2.413,0,0,1-2.326,4.228l-.1-.049A17.835,17.835,0,0,0,2049.792,2294.05Z" transform="translate(-59.788 -58.113)" fill="#0087ca" fill-rule="evenodd"/>
    <path id="Tracé_10594" data-name="Tracé 10594" d="M2058.152,2226.3c-4.6-2.656-14.858-9.506-19.052-10.027-20.535-2.551-42.884,41.81-25.529,52.319l15.124,8.731c-19.018-12.065,9.545-61.463,29.458-51.024Zm-14.714,52.446-.016.01-15.124-8.732.017-.01Z" transform="translate(-66.094 -40.617)" fill="#a6edf8" fill-rule="evenodd"/>
    <path id="Tracé_10595" data-name="Tracé 10595" d="M2054.812,2221.1c1.383.848,2.632,1.611,3.646,2.2a2.413,2.413,0,0,1-2.324,4.228c-5.687-2.98-12.486.126-18.341,5.914a50.955,50.955,0,0,0-12.757,22.079c-1.346,5.124-1.531,10.027-.05,13.792a2.432,2.432,0,0,1,3.635-2.3l15.125,8.733a2.424,2.424,0,0,1-2.44,4.188l-15.123-8.732a2.587,2.587,0,0,1-.45-.339,10.065,10.065,0,0,0,3.353,3.508,2.417,2.417,0,0,1-2.506,4.132c-4.15-2.414-11.654-6.133-15.161-8.762-4.523-2.738-6.777-7.313-7.277-12.75-.491-5.365.756-11.591,3.2-17.619a56.035,56.035,0,0,1,10.24-16.409c6.062-6.638,13.508-10.923,20.912-10,3.79.47,11.046,4.912,16.324,8.143Zm-7.7,1c-3.688-2.159-7.348-4.1-9.211-4.334-5.676-.7-11.683,2.905-16.751,8.453a51.106,51.106,0,0,0-9.334,14.972c-2.173,5.367-3.29,10.807-2.874,15.369.36,3.925,1.892,7.178,4.931,9.037l5.922,3.415c-1.121-4.364-.808-9.479.569-14.718A55.736,55.736,0,0,1,2034.406,2230C2038.33,2226.116,2042.692,2223.26,2047.113,2222.1Z" transform="translate(-65.188 -39.707)" fill="#0087ca" fill-rule="evenodd"/>
    <path id="Tracé_10596" data-name="Tracé 10596" d="M2068.762,2297.947c-6.669-3.85-15.624-2.955-25.058,2.493-9.772,5.646-18.623,15.334-25.028,26.425-5.875,10.176-9.693,21.536-10.29,32.055l70.666-40.8C2078.458,2308.289,2074.638,2301.34,2068.762,2297.947Z" transform="translate(-66.377 -62.303)" fill="#a6edf8" fill-rule="evenodd"/>
    <path id="Tracé_10597" data-name="Tracé 10597" d="M2066.645,2299.131a16.515,16.515,0,0,0-10.042-1.93,31.924,31.924,0,0,0-12.6,4.422,58.492,58.492,0,0,0-13,10.488,82.592,82.592,0,0,0-18.153,30.742,65.692,65.692,0,0,0-2.509,10.714l65.266-37.681a27.815,27.815,0,0,0-2.708-9.914,16.185,16.185,0,0,0-6.263-6.842Zm-10.515-6.732a21.27,21.27,0,0,1,12.937,2.552,20.982,20.982,0,0,1,8.153,8.829,33.618,33.618,0,0,1,3.334,13.294,2.413,2.413,0,0,1-1.2,2.231l-70.666,40.8a2.414,2.414,0,0,1-3.622-2.222,67,67,0,0,1,3.193-16.5,87.442,87.442,0,0,1,19.254-32.594,63.2,63.2,0,0,1,14.071-11.34A36.715,36.715,0,0,1,2056.13,2292.4Z" transform="translate(-65.47 -61.397)" fill="#0087ca" fill-rule="evenodd"/>
    <path id="Tracé_10598" data-name="Tracé 10598" d="M2049.146,2279.146l.019-.01c5.743-3.321,10.945-9.02,14.712-15.538l0,0c3.766-6.527,6.1-13.884,6.1-20.532s-2.334-11.313-6.1-13.486-8.98-1.86-14.73,1.46-10.963,9.02-14.729,15.547-6.106,13.891-6.106,20.534,2.336,11.306,6.106,13.483S2043.394,2282.468,2049.146,2279.146Z" transform="translate(-71.817 -43.901)" fill="#fff" fill-rule="evenodd"/>
    <path id="Tracé_10599" data-name="Tracé 10599" d="M2047.052,2276.136a33.2,33.2,0,0,0,7.407-5.979,46.929,46.929,0,0,0,6.418-8.676l.112-.177a46.306,46.306,0,0,0,4.186-9.712,33.457,33.457,0,0,0,1.472-9.431,17.749,17.749,0,0,0-1.363-7.295,8.17,8.17,0,0,0-8.843-5.106,17.766,17.766,0,0,0-7,2.466l-.13.073a33.515,33.515,0,0,0-7.3,5.924l-.118.117a47.537,47.537,0,0,0-10.6,18.453,33.387,33.387,0,0,0-1.474,9.425,17.753,17.753,0,0,0,1.362,7.292,8.757,8.757,0,0,0,3.532,4.1l.107.067a8.894,8.894,0,0,0,5.211.939,17.768,17.768,0,0,0,6.991-2.465l.025-.015Zm10.9-2.662a38.322,38.322,0,0,1-8.492,6.847l-.018.01a22.508,22.508,0,0,1-8.937,3.089,13.57,13.57,0,0,1-8.055-1.546l-.157-.084a13.52,13.52,0,0,1-5.521-6.293,22.493,22.493,0,0,1-1.795-9.28,38.221,38.221,0,0,1,1.683-10.789,52.255,52.255,0,0,1,11.728-20.39l.126-.143a38.325,38.325,0,0,1,8.379-6.767l.13-.081a22.518,22.518,0,0,1,8.942-3.09,13.022,13.022,0,0,1,13.723,7.924,22.476,22.476,0,0,1,1.8,9.281,38.276,38.276,0,0,1-1.68,10.795,51.2,51.2,0,0,1-4.631,10.736l-.243.421A51.13,51.13,0,0,1,2057.957,2273.474Z" transform="translate(-70.908 -42.995)" fill="#0087ca" fill-rule="evenodd"/>
    <path id="Tracé_10600" data-name="Tracé 10600" d="M1959.573,2255.686l-15.9-9.174-8.988,1.878,15.889,9.174,9-1.878ZM1913.32,2322.1l-15.891-9.177,2.872,8.728,15.89,9.179-2.871-8.73Zm-44.259-32.506,8.994-8.508,1.978-6.644-4.33-7.186,8.572-14.844,8.384.156,4.77-5.038,2.872-12.039,12.139-7.013,9.838,5.679,6.186-7.261,15.894,9.177-8.384,9.835-4.768.473-8.995-5.193-6.02,3.476-2.871,12.039-4.766,5.036-8.385-.155-8.574,14.849,4.327,7.185-1.979,6.644-8.984,8.507v6.953l8.984,5.192,1.979,4.363-4.327,12.18-15.888-9.173,3.188-8.991-9.834-5.681Z" transform="translate(-28.335 -43.546)" fill="#00cef0" fill-rule="evenodd"/>
    <path id="Tracé_10601" data-name="Tracé 10601" d="M1951.982,2253.706l-9.615-5.551-1.9.4,9.614,5.552,1.906-.4Zm-8.014-10.192,15.766,9.1a2.416,2.416,0,0,1-.579,4.53l-9,1.878a2.407,2.407,0,0,1-1.7-.274l-15.89-9.174a2.411,2.411,0,0,1-1.155-1.6l-.031-.183-.849.084a2.428,2.428,0,0,1-1.44-.311l-7.792-4.5-3.905,2.252-2.63,11.036a2.541,2.541,0,0,1-.607,1.1l-4.674,4.936a2.406,2.406,0,0,1-1.88.857l-6.963-.128-7.149,12.381,3.591,5.963a2.429,2.429,0,0,1,.247,1.939l-1.98,6.644a2.439,2.439,0,0,1-.652,1.061l-8.227,7.79v4.531l7.683,4.44a2.4,2.4,0,0,1,1.084,1.149l.35.773a2.41,2.41,0,0,1,2.143.138l15.808,9.129a2.4,2.4,0,0,1,1.17,1.389l2.87,8.733a2.416,2.416,0,0,1-3.509,2.835l-15.757-9.1a2.413,2.413,0,0,1-1.22-1.407l-.983-2.991-3.144,8.846-.19.4a2.414,2.414,0,0,1-3.29.889l-15.734-9.084a2.414,2.414,0,0,1-1.234-2.982l2.518-7.1-7.943-4.586a2.427,2.427,0,0,1-1.363-2.179v-14.019a2.478,2.478,0,0,1,.768-1.749l8.513-8.054,1.492-5.013-3.781-6.276a2.42,2.42,0,0,1-.02-2.458l8.573-14.843a2.423,2.423,0,0,1,2.127-1.2l7.324.136,3.587-3.787,2.723-11.418a2.445,2.445,0,0,1,1.145-1.532l12.137-7.012a2.412,2.412,0,0,1,2.421,0l8.093,4.672,4.861-5.707a2.422,2.422,0,0,1,3.07-.547l15.895,9.177.359.255a2.418,2.418,0,0,1,.263,3.405l-6.095,7.148,3.086-.645a2.442,2.442,0,0,1,1.694.275ZM1910.4,2322.82l-9.6-5.545.6,1.839,9.6,5.549-.607-1.843Zm-39.828-33.112v11.607l8.623,4.981a2.419,2.419,0,0,1,1.067,2.894l-2.518,7.106,11.634,6.714,3.029-8.528-1.257-2.774-8.313-4.8a2.423,2.423,0,0,1-1.2-2.091l-.006-6.953a2.42,2.42,0,0,1,.892-1.878l8.38-7.934,1.493-5.006-3.777-6.27a2.417,2.417,0,0,1,.041-2.564l8.514-14.743a2.42,2.42,0,0,1,2.264-1.2l7.2.131,3.569-3.772,2.725-11.43a2.422,2.422,0,0,1,1.336-1.636l5.838-3.37a2.416,2.416,0,0,1,2.4,0l8.323,4.805,3.03-.3,5.872-6.89-11.637-6.722-4.888,5.736a2.418,2.418,0,0,1-3.044.519l-8.626-4.982-10.024,5.791-2.632,11.029a2.394,2.394,0,0,1-.72,1.227l-4.656,4.917a2.4,2.4,0,0,1-1.874.745l-6.878-.125-7.147,12.374,3.592,5.968a2.409,2.409,0,0,1,.209,2.055l-1.937,6.521a2.412,2.412,0,0,1-.8,1.194Z" transform="translate(-27.425 -42.639)" fill="#0087ca" fill-rule="evenodd"/>
    <path id="Tracé_10602" data-name="Tracé 10602" d="M1954.573,2288.306l1.977-6.646,8.991-8.506v-14.02l-8.991,1.876-1.977-4.368,4.327-12.176q-4.289-2.478-8.571-4.949l-8.388,9.836-4.766.473-2.872-8.725q-6.073,3.5-12.143,7.008l-2.87,12.04-4.77,5.035-8.384-.154q-4.283,7.422-8.571,14.845l4.327,7.184-1.977,6.648-8.992,8.506v14.02l8.992-1.876,1.977,4.367-4.327,12.178q4.289,2.474,8.571,4.948l8.387-9.837,4.766-.471,2.87,8.725,12.143-7.009,2.872-12.041,4.769-5.036,8.385.154q4.283-7.421,8.571-14.845Z" transform="translate(-34.304 -46.993)" fill="#a6edf8" fill-rule="evenodd"/>
    <path id="Tracé_10603" data-name="Tracé 10603" d="M1951.365,2286.651l1.961-6.585a2.406,2.406,0,0,1,.816-1.2l8.07-7.636V2261.2l-6.077,1.268a2.417,2.417,0,0,1-2.693-1.37l-1.981-4.368a2.417,2.417,0,0,1-.076-1.8l3.656-10.29-5.086-2.935-7.087,8.308a2.393,2.393,0,0,1-1.66.836l-4.7.468a2.421,2.421,0,0,1-2.531-1.646l-1.951-5.905-8.653,5-2.631,11.036a2.388,2.388,0,0,1-.72,1.226l-4.655,4.915a2.417,2.417,0,0,1-1.875.746l-6.884-.128-7.142,12.375,3.592,5.97a2.415,2.415,0,0,1,.209,2.054l-1.938,6.522a2.394,2.394,0,0,1-.8,1.193l-8.091,7.655v10.026l6.079-1.27a2.42,2.42,0,0,1,2.694,1.372l1.978,4.367a2.42,2.42,0,0,1,.075,1.8l-3.654,10.293,5.087,2.936,7.086-8.313a2.409,2.409,0,0,1,1.659-.838l4.706-.464a2.417,2.417,0,0,1,2.532,1.656l1.943,5.9,8.658-5,2.632-11.037a2.409,2.409,0,0,1,.72-1.227l4.657-4.916a2.421,2.421,0,0,1,1.874-.746l6.883.127,7.144-12.376-3.6-5.967a2.422,2.422,0,0,1-.228-2Zm6.414-4.6-1.493,5.019,3.777,6.272a2.436,2.436,0,0,1,.019,2.451l-8.53,14.775a2.413,2.413,0,0,1-2.169,1.28l-7.323-.134-3.587,3.787-2.724,11.416a2.463,2.463,0,0,1-1.155,1.534l-11.973,6.912a2.456,2.456,0,0,1-.621.306,2.419,2.419,0,0,1-3.047-1.552l-2.262-6.881-1.867.184-7.737,9.076a2.417,2.417,0,0,1-3.068.548l-8.477-4.894a2.418,2.418,0,0,1-1.162-2.948l4-11.267-.777-1.718-6.924,1.448a2.423,2.423,0,0,1-3.081-2.33v-14.021a2.472,2.472,0,0,1,.766-1.749l8.51-8.052,1.492-5.014-3.777-6.274a2.437,2.437,0,0,1-.02-2.45l8.53-14.775a2.408,2.408,0,0,1,2.169-1.28l7.324.135,3.588-3.786,2.718-11.417a2.468,2.468,0,0,1,1.154-1.533l11.938-6.891a2.371,2.371,0,0,1,.648-.327,2.423,2.423,0,0,1,3.055,1.542l2.269,6.889,1.865-.183,7.738-9.075a2.42,2.42,0,0,1,3.068-.545l8.476,4.894a2.417,2.417,0,0,1,1.163,2.946l-4,11.263.777,1.718,6.927-1.448a2.423,2.423,0,0,1,3.081,2.332v14.019a2.479,2.479,0,0,1-.768,1.75Z" transform="translate(-33.396 -46.086)" fill="#0087ca" fill-rule="evenodd"/>
    <path id="Tracé_10604" data-name="Tracé 10604" d="M1945.5,2305.021c3.838-6.645,3.838-13.826,0-16.041s-10.056,1.375-13.891,8.021-3.834,13.826,0,16.041S1941.665,2311.664,1945.5,2305.021Z" transform="translate(-44.628 -60.319)" fill="#00cef0" fill-rule="evenodd"/>
    <path id="Tracé_10605" data-name="Tracé 10605" d="M1946.611,2305.448a22.553,22.553,0,0,1-7.616,8l-.137.084c-3.261,1.885-6.643,2.26-9.366.688s-4.086-4.687-4.086-8.448a22.375,22.375,0,0,1,3.121-10.732l.084-.162a22.553,22.553,0,0,1,7.689-8.125l.136-.086c3.229-1.865,6.576-2.253,9.284-.733l.085.045c2.713,1.573,4.075,4.685,4.077,8.448a22.219,22.219,0,0,1-3.082,10.679l-.189.34Zm-4-2.729a17.472,17.472,0,0,0,2.436-8.29c.01-1.969-.514-3.518-1.557-4.2l-.21-.123c-1.108-.568-2.713-.245-4.424.742l-.125.067a17.588,17.588,0,0,0-5.852,6.232l-.2.332a17.489,17.489,0,0,0-2.439,8.294c0,2.044.558,3.629,1.665,4.269s2.76.33,4.525-.687l.125-.068a17.618,17.618,0,0,0,5.853-6.23Z" transform="translate(-43.719 -59.411)" fill="#0087ca" fill-rule="evenodd"/>
    <path id="Tracé_10606" data-name="Tracé 10606" d="M1928.228,2244.893a2.416,2.416,0,0,1-2.421,4.181l-15.887-9.176a2.415,2.415,0,1,1,2.419-4.179Z" transform="translate(-39.162 -45.867)" fill="#0087ca" fill-rule="evenodd"/>
    <path id="Tracé_10607" data-name="Tracé 10607" d="M1906.189,2268.169a2.415,2.415,0,1,1-2.421,4.18l-15.9-9.177a2.416,2.416,0,0,1,2.422-4.182Z" transform="translate(-33.143 -52.221)" fill="#0087ca" fill-rule="evenodd"/>
    <path id="Tracé_10608" data-name="Tracé 10608" d="M1894.386,2288.6a2.411,2.411,0,0,1-2.4,4.181l-15.9-9.177a2.41,2.41,0,1,1,2.4-4.18Z" transform="translate(-29.924 -57.8)" fill="#0087ca" fill-rule="evenodd"/>
    <path id="Tracé_10609" data-name="Tracé 10609" d="M1885.249,2319.321a2.41,2.41,0,1,1-2.4,4.179l-15.891-9.174a2.411,2.411,0,1,1,2.4-4.181Z" transform="translate(-27.43 -66.19)" fill="#0087ca" fill-rule="evenodd"/>
    <path id="Tracé_10610" data-name="Tracé 10610" d="M1885.553,2338.774a2.415,2.415,0,0,1-2.422,4.179l-15.108-8.723a2.415,2.415,0,0,1,2.421-4.179Z" transform="translate(-27.723 -71.623)" fill="#0087ca" fill-rule="evenodd"/>
    <path id="Tracé_10611" data-name="Tracé 10611" d="M1945.258,2235.444a2.415,2.415,0,1,1-2.421,4.18l-15.015-8.672a2.415,2.415,0,0,1,2.421-4.179Z" transform="translate(-44.05 -43.424)" fill="#0087ca" fill-rule="evenodd"/>
  </g>
</svg>
