<svg id="logo" xmlns="http://www.w3.org/2000/svg" width="109.337" height="46.5" viewBox="0 0 109.337 46.5">
  <path id="Tracé_14826" data-name="Tracé 14826" d="M28.041,7.125c.175-1.452-.041-3.573,1.1-4.571C29.481,1,31.918,1.366,31.539.381,31.305-.237,30.158.057,29.693.17a49.263,49.263,0,0,1-4.979,1.285L23.082,1c-2.1.282-3.308,1.951-4.475,3.277-.979,1.113-2.3,3.834-1.25,5.463-.059.356-.118.711-.176,1.069l2.384,3.484c.822.589.931,1.027,1.816,1.608l.547.822a4.638,4.638,0,0,0,3.219.173c3.436.319,3.063-6.64,4.154-8.1A2.918,2.918,0,0,0,28.041,7.125ZM13.228,28.017a16.207,16.207,0,0,0,2.623-.61c1.037-.52,4.6-3.014,3.469-5.044-.351-4.276-5.512-.662-7.709-2.162-2.224-.286-4.724-4.493-5.393-6.294a2.944,2.944,0,0,0-.509-1.033c0-.058-.228.2-.225.136-.651.757-.538,1.419-.639,3.265L3.97,16.22A2.06,2.06,0,0,1,3.533,17.6c-.063.114-.13.223-.193.337-.553-.186-.277.078-.5-.384C.79,17.651.941,19.709,0,20.881.042,24.722,7.646,29.462,13.228,28.017Zm25.26-11.668a15.231,15.231,0,0,0-6.6,2.426,4.648,4.648,0,0,0-1.319,1.276,2.1,2.1,0,0,0-.223,1.425,2.3,2.3,0,0,0,.855,1.58c4.074-.3,11.148-.559,12.524,2.865.074.476.181.762.191.876,1.348-.332.362-.214,2.349.1a8.96,8.96,0,0,0,2.322-.364.947.947,0,0,0,.528-.387,2.3,2.3,0,0,1-.044-.5,1.9,1.9,0,0,0,.983-.168c1.884-.306.893-1.192,1.783-2.189C51.3,16.888,44.738,15.4,38.488,16.349ZM31.215,30.265c-.945.722-1.343.543-1.9,1.661-.056,0,.085.17.026.17.565,1.124,1.856,1.578,2.807,2.368.3.25,1.1,1.639,1.478,1.74.427.51.707,1.921.985,1.921.292.4-.023,1.331.261,1.694.021,1.672-.212,1.792-.5,2.112,0,.117.161.421.161.534.079.08.75.561,1.042.5.909.028,4.642,2.94,4.938,3.5,2.678.2,2.484-.617,4.331-1.4.5-.215.9-.011,1.224-.353s.372-1.042.7-1.4C46.812,36.731,37.851,30.494,31.215,30.265Zm-10.548,1.5c-.373.4-1.4.544-1.683,1a18.863,18.863,0,0,1-2.232,3c-2.536,2.407-7.964,3.616-10.643,1.316-.174.012-.072.113.136.771.2,1.247,1.2,4.17.83,4.917.239.83.492.526.946.985.312.312.439,1.125.8,1.345q.614-.039,1.224-.085c.073.228.149.454.224.688.522-.04,1.047-.077,1.571-.115.3.066,1.185.527,1.446.6.582-.042,1.164-.08,1.745-.122a4.35,4.35,0,0,0,3.618-.96c.626-.421,1.313-.354,1.87-.83a12.953,12.953,0,0,0,2.418-2.978c1.261-2.293.835-7.78-.309-9.138C22.178,31.665,21.649,31.656,20.667,31.769Z" transform="translate(0 -0.001)" fill="#01e3a6" fill-rule="evenodd"/>
  <g id="Groupe_1399" data-name="Groupe 1399" transform="translate(55.729 16.377)">
    <path id="Tracé_14827" data-name="Tracé 14827" d="M65.876,32.658a4.2,4.2,0,0,1-4.436-4.322v-.223S66.1,28,67.674,28c2.687,0,3.793-.025,5.91-.054v-1.5c0-6.774-2.873-10.068-8.787-10.068-2.727,0-9.068,1.024-9.068,10.508,0,6.326,3.2,10.106,8.778,10.106,4.384,0,7.076-1.117,9.025-2.541-.219-.329-1.854-3.263-2.065-3.583A9.264,9.264,0,0,1,65.876,32.658ZM61.44,24.312c.077-1.15.489-3.821,3.392-3.821,2.976,0,3.139,2.512,3.139,3.836V24.6s-1.986.054-3.174.054-3.375-.054-3.375-.054Z" transform="translate(-55.729 -16.378)" fill="#01e3a6"/>
    <path id="Tracé_14828" data-name="Tracé 14828" d="M84.942,16.8c5.513,0,9.243,3.482,9.243,9.718,0,7.837-5.122,10.155-10.49,10.155H76.512c.025-.434,0-1.593,0-3.047V19.848c0-1.452.025-2.378,0-3.045ZM83.331,32.9c3.044,0,5.52-1.007,5.52-6.382,0-4.572-2.476-6.093-5.52-6.093h-1.6V32.9Z" transform="translate(-55.729 -16.378)" fill="#01e3a6"/>
    <path id="Tracé_14829" data-name="Tracé 14829" d="M102,33.629c0,1.454.071,3.047.071,3.047h-5.33s.036-1.593.036-3.047V19.848c0-1.452-.036-3.045-.036-3.045h12.6v3.845s-2.816-.072-3.773-.072H102v4l3.568.038c.668,0,2.968-.038,2.968-.038V28.24s-2.042-.055-2.968-.055L102,28.206v5.423Z" transform="translate(-55.729 -16.378)" fill="#01e3a6"/>
  </g>
</svg>
