<svg xmlns="http://www.w3.org/2000/svg" width="82.82" height="33.128" viewBox="0 0 82.82 33.128">
  <path id="Tracé_14822" data-name="Tracé 14822" d="M0,0V2.267H16.121V0ZM18.4,0V2.267H41.378A8.747,8.747,0,0,0,35.923,0Zm27.48,0V2.267h13.9L58.958,0ZM69.747,0l-.825,2.267H82.694V0ZM0,4.408V6.674H16.121V4.408Zm18.4,0V6.674H44.044a5.957,5.957,0,0,0-.822-2.263Zm27.48,0V6.674H61.306l-.764-2.263Zm22.213,0-.763,2.263H82.694V4.411ZM4.633,8.816v2.27h6.981V8.816Zm18.4,0v2.27h6.981V8.816Zm13.772,0v2.27h6.981a7.724,7.724,0,0,0,.443-2.27Zm13.707,0v2.27H62.895l-.825-2.27Zm16.059,0-.828,2.27H78.188V8.816ZM4.633,13.227v2.267h6.981V13.227Zm18.4,0v2.267H40.87a7.645,7.645,0,0,0,1.967-2.267Zm27.48,0v2.267H57.5V14.232l.443,1.262H70.73l.476-1.262v1.262h6.981V13.227H65.082l-.7,1.92-.7-1.92ZM4.633,17.635V19.9h6.981V17.635Zm18.4,0V19.9h19.8a7.7,7.7,0,0,0-1.967-2.267Zm27.48,0V19.9H57.5V17.635Zm8.25,0,.844,2.267H69.2l.8-2.267Zm12.439,0V19.9h6.981V17.635ZM4.633,22.043v2.267h6.981V22.043Zm18.4,0v2.267h6.981V22.043Zm13.772,0v2.267h7.425a7.7,7.7,0,0,0-.443-2.267Zm13.707,0v2.267H57.5V22.043Zm9.835,0,.819,2.267H67.6l.825-2.267Zm10.854,0v2.267h6.981V22.043ZM.126,26.45v2.27H16.247V26.45Zm18.279,0v2.27H43.222a5.982,5.982,0,0,0,.822-2.27Zm27.606,0v2.27H57.5V26.45Zm15.93,0,.841,2.27h3.271l.789-2.27Zm9.266,0v2.27H82.82V26.45ZM.126,30.862v2.267H16.247V30.862Zm18.279,0v2.263H35.923a8.752,8.752,0,0,0,5.454-2.263Zm27.606,0v2.267H57.5V30.862Zm17.525,0,.809,2.26.139,0,.822-2.263Zm7.671,0v2.267H82.82V30.862Z" fill="#01e3a6"/>
</svg>
