<svg id="logo" xmlns="http://www.w3.org/2000/svg" width="149.805" height="32" viewBox="0 0 149.805 32">
  <path id="Tracé_13793" data-name="Tracé 13793" d="M178.912,33.545l-.893,2.53h-.074a17.965,17.965,0,0,0-.868-2.481l-4.788-12.031H167.6V40.739h3.1V28.906c0-.744,0-1.588-.025-2.629-.025-.521-.074-.918-.1-1.216h.074A11.584,11.584,0,0,0,171.1,26.7l5.755,13.991h2.183l5.705-14.115a15.036,15.036,0,0,0,.372-1.513h.074c-.074,1.414-.124,2.679-.149,3.448V40.664h3.3V21.514h-4.515Zm12.552-6.623h3.225V40.664h-3.225Zm1.637-5.8a1.932,1.932,0,0,0-1.364.546,1.829,1.829,0,0,0,0,2.654,1.912,1.912,0,0,0,1.364.521,1.978,1.978,0,0,0,1.364-.521A1.745,1.745,0,0,0,195.036,23a1.839,1.839,0,0,0-.571-1.34,1.81,1.81,0,0,0-1.364-.546M206.124,26.8a9,9,0,0,0-1.811-.2,7.782,7.782,0,0,0-3.919.967,6.479,6.479,0,0,0-2.58,2.654,8.437,8.437,0,0,0-.893,3.969,7.362,7.362,0,0,0,.868,3.547,5.946,5.946,0,0,0,2.431,2.456,7.156,7.156,0,0,0,3.547.868,7.8,7.8,0,0,0,3.895-.918l.025-.025V37.142l-.124.1A5.544,5.544,0,0,1,206,38.06a4.781,4.781,0,0,1-1.538.3,3.8,3.8,0,0,1-3.026-1.191,4.575,4.575,0,0,1-1.116-3.25,4.689,4.689,0,0,1,1.141-3.349,3.981,3.981,0,0,1,3.026-1.24,5.279,5.279,0,0,1,3.076,1.042l.124.1v-3.15l-.025-.025a7.479,7.479,0,0,0-1.538-.5m10.642-.1a3.4,3.4,0,0,0-2.183.769,4.628,4.628,0,0,0-1.24,1.86h-.025V26.922h-3.225V40.664h3.225v-7.02a4.733,4.733,0,0,1,.794-2.9,2.486,2.486,0,0,1,2.084-1.116,7.956,7.956,0,0,1,.967.124,2.545,2.545,0,0,1,.769.322l.124.1V26.947l-.074-.025a2.451,2.451,0,0,0-1.215-.223m8.781-.074a7.111,7.111,0,0,0-5.333,1.984,7.389,7.389,0,0,0-1.91,5.408,7.071,7.071,0,0,0,1.885,5.135,7.746,7.746,0,0,0,10.27-.124,7.364,7.364,0,0,0,1.91-5.333,7.178,7.178,0,0,0-1.811-5.184,6.528,6.528,0,0,0-5.011-1.885m2.58,10.567a3.251,3.251,0,0,1-2.7,1.141,3.388,3.388,0,0,1-2.778-1.191,4.9,4.9,0,0,1-.992-3.3,5.208,5.208,0,0,1,.992-3.374,3.411,3.411,0,0,1,2.754-1.191,3.3,3.3,0,0,1,2.679,1.141,5.088,5.088,0,0,1,.992,3.349,5.739,5.739,0,0,1-.943,3.423m11.436-4.564a7.725,7.725,0,0,1-1.96-1.017,1.408,1.408,0,0,1-.372-1.042,1.152,1.152,0,0,1,.521-.992,2.39,2.39,0,0,1,1.414-.372,6.421,6.421,0,0,1,1.662.248,4.278,4.278,0,0,1,1.439.67l.124.1V27.195l-.074-.025a8.95,8.95,0,0,0-1.464-.422,9.944,9.944,0,0,0-1.588-.149,5.747,5.747,0,0,0-3.8,1.191,3.667,3.667,0,0,0-1.464,3.026,3.938,3.938,0,0,0,.322,1.687,3.76,3.76,0,0,0,.992,1.29,8.644,8.644,0,0,0,1.984,1.116c.744.322,1.315.571,1.662.769a3.367,3.367,0,0,1,.744.6,1.41,1.41,0,0,1,.2.769c0,.918-.695,1.364-2.109,1.364a5.567,5.567,0,0,1-1.786-.322,6.9,6.9,0,0,1-1.811-.918l-.124-.1v3.15l.074.025a9.623,9.623,0,0,0,1.736.546,11.076,11.076,0,0,0,1.86.223,6.041,6.041,0,0,0,3.994-1.191,3.8,3.8,0,0,0,1.513-3.126,3.478,3.478,0,0,0-.794-2.357,10.058,10.058,0,0,0-2.9-1.712m12.2-6a7.111,7.111,0,0,0-5.333,1.984,7.493,7.493,0,0,0-1.91,5.408,7.071,7.071,0,0,0,1.885,5.135,7.746,7.746,0,0,0,10.27-.124,7.364,7.364,0,0,0,1.91-5.333,7.178,7.178,0,0,0-1.811-5.184,6.528,6.528,0,0,0-5.011-1.885m2.555,10.567a3.251,3.251,0,0,1-2.7,1.141,3.356,3.356,0,0,1-2.778-1.191,4.9,4.9,0,0,1-.992-3.3,5.208,5.208,0,0,1,.992-3.374,3.411,3.411,0,0,1,2.753-1.191,3.332,3.332,0,0,1,2.679,1.141,5.088,5.088,0,0,1,.992,3.349,5.412,5.412,0,0,1-.943,3.423m21.507-7.615V26.922h-3.25V22.853l-.1.025L269.4,23.8l-.074.025v3.1h-4.862V25.185a2.72,2.72,0,0,1,.546-1.811,1.926,1.926,0,0,1,1.513-.6,3.619,3.619,0,0,1,1.439.322l.124.074v-2.8l-.074-.025a6.2,6.2,0,0,0-4.391.347,4.3,4.3,0,0,0-1.761,1.761,5.076,5.076,0,0,0-.645,2.555v1.91h-2.257v2.629h2.257V40.664h3.25V29.576h4.862v7.07c0,2.9,1.364,4.366,4.093,4.366a8.5,8.5,0,0,0,1.364-.149,4.464,4.464,0,0,0,1.017-.322l.025-.025V37.861l-.124.1a2.1,2.1,0,0,1-.67.3,2.271,2.271,0,0,1-.645.1,1.718,1.718,0,0,1-1.414-.521,2.686,2.686,0,0,1-.447-1.761v-6.5h3.3Z" transform="translate(-126.025 -15.114)" fill="#01e3a6"/>
  <path id="Tracé_13794" data-name="Tracé 13794" d="M0,0H15.206V15.206H0Z" fill="#01e3a6"/>
  <path id="Tracé_13795" data-name="Tracé 13795" d="M67.7,0H82.906V15.206H67.7Z" transform="translate(-50.906)" fill="#01e3a6"/>
  <path id="Tracé_13796" data-name="Tracé 13796" d="M0,67.7H15.206V82.906H0Z" transform="translate(0 -50.906)" fill="#01e3a6"/>
  <path id="Tracé_13797" data-name="Tracé 13797" d="M67.7,67.7H82.906V82.906H67.7Z" transform="translate(-50.906 -50.906)" fill="#01e3a6"/>
</svg>
