<svg id="logo" xmlns="http://www.w3.org/2000/svg" width="78.031" height="40.58" viewBox="0 0 78.031 40.58">
  <path id="Tracé_14823" data-name="Tracé 14823" d="M1.7.925C.762.925.2,1.362.2,2.173V40.131a1.179,1.179,0,0,0,1.249,1.249h68.3a1.164,1.164,0,0,0,1.373-.936S77.988,18.9,78.113,18.53a1.234,1.234,0,0,0-.562-1.686C55.388,2.86,22.05.8,7,.8,4.82.8,3.072.925,1.7.925Z" transform="translate(-0.2 -0.8)" fill="#01e3a6"/>
  <path id="Tracé_14824" data-name="Tracé 14824" d="M18.024,35.386c-2.56-1.124-4.245-1.81-3.808-3.059.437-1.5,3-2.06,5.307-1.935a9.676,9.676,0,0,1,3,.437l.812-2.622a14.621,14.621,0,0,0-3.434-.312c-4.62-.125-8.74,1.124-9.739,3.746-1.249,3.059,2.31,4.932,5.431,6.368,2.56,1.124,4.37,2.31,3.683,3.621-.437,1.124-2.31,1.623-4.807,1.623a18.517,18.517,0,0,1-7.117-1.686L6.1,44.314a24.8,24.8,0,0,0,7.616,1.81c5.182.125,8.615-1.124,9.989-4C25.2,38.7,21.27,36.947,18.024,35.386Z" transform="translate(-2.417 -10.976)" fill="#143d66"/>
  <path id="Tracé_14825" data-name="Tracé 14825" d="M35.272,39.961a.125.125,0,0,0,.25,0c0-.125,2.56-7.866,2.56-7.866a47.165,47.165,0,0,1,6.555,13.547h4.12l2.06-6.493a.125.125,0,1,1,.25,0c.562,4,4.682,6.742,10.488,6.742a23.633,23.633,0,0,0,7.929-1.373l2.185-6.867h8.366l.812-2.622h-8.49l1.5-4.433h9.989l.936-2.747H70.67l-4.682,14.8a16.073,16.073,0,0,1-3.559.312c-2.747,0-5.057-.687-6.305-2.185a4.771,4.771,0,0,1-1.061-4.12c.562-3.746,4.245-6.181,9.177-6.181a13.178,13.178,0,0,1,3.121.25l1.061-2.872a20.185,20.185,0,0,0-4-.25c-4.37,0-8.3,1.5-10.676,4.12,0,.125-.125.125-.25.125s-.125,0-.125-.125l1.249-3.871H50.942l-4.12,12.424A44.065,44.065,0,0,0,39.7,27.85H35.772L32.9,36.964A7.029,7.029,0,0,1,35.272,39.961Z" transform="translate(-12.485 -10.869)" fill="#143d66"/>
</svg>
