<svg id="logo" xmlns="http://www.w3.org/2000/svg" width="126.314" height="35.043" viewBox="0 0 126.314 35.043">
  <path id="Tracé_14830" data-name="Tracé 14830" d="M0,8.538H7.518L11.883,19.72,16.311,8.538h7.327L12.615,35.043H5.256l3.026-7.009Zm31.252-.446c-5.639,0-9.207,5.065-9.207,10.1,0,5.671,3.918,10.162,9.111,10.162,3.887,0,5.352-2.357,5.352-2.357v1.848h6.563V8.538H36.508V10.29A6.757,6.757,0,0,0,31.252,8.092Zm1.4,6.212a3.95,3.95,0,1,1,0,7.9,3.956,3.956,0,0,1-3.95-3.887A3.812,3.812,0,0,1,32.654,14.3ZM45.3,27.843V0H52.15V10.354a6.338,6.338,0,0,1,5.033-2.262c4.173,0,6.626,3.122,6.626,7.55v12.2H56.992V17.3c0-1.5-.7-2.963-2.326-2.963-1.657,0-2.517,1.465-2.517,2.963V27.843ZM75.5,8.092A9.991,9.991,0,0,0,65.18,18.286c0,5.989,4.651,10.1,10.354,10.1,5.511,0,10.322-3.918,10.322-10C85.855,11.723,80.79,8.092,75.5,8.092Zm.064,6.244a3.879,3.879,0,0,1,3.855,3.918,3.943,3.943,0,0,1-3.855,3.855,3.808,3.808,0,0,1-3.823-3.887A3.708,3.708,0,0,1,75.565,14.336ZM97.26,8.092A9.991,9.991,0,0,0,86.938,18.286c0,5.989,4.651,10.1,10.354,10.1,5.511,0,10.322-3.918,10.322-10C107.613,11.723,102.58,8.092,97.26,8.092Zm.064,6.244a3.879,3.879,0,0,1,3.855,3.918,3.943,3.943,0,0,1-3.855,3.855A3.808,3.808,0,0,1,93.5,18.222,3.727,3.727,0,0,1,97.324,14.336Zm15.706,4.81a4.556,4.556,0,1,1-4.556,4.556A4.555,4.555,0,0,1,113.029,19.146Zm6.053-1.657h-8.187L118.158,0h8.155Z" fill="#01e3a6"/>
</svg>
