<svg xmlns="http://www.w3.org/2000/svg" width="109.535" height="79.69" viewBox="0 0 109.535 79.69">
  <g id="Groupe_1058" data-name="Groupe 1058" transform="translate(1.015 1)">
    <g id="Groupe_1819" data-name="Groupe 1819" transform="translate(0 0)">
      <g id="Groupe_1050" data-name="Groupe 1050">
        <rect id="Rectangle_565" data-name="Rectangle 565" width="60.243" height="43.5" rx="15.382" transform="translate(5.927)" fill="none" stroke="#fff" stroke-linecap="round" stroke-linejoin="round" stroke-width="2"/>
        <path id="Tracé_10561" data-name="Tracé 10561" d="M580.43-60.379a4.386,4.386,0,0,1-4.387,4.387H512.6a4.386,4.386,0,0,1-4.387-4.387" transform="translate(-508.204 121.951)" fill="none" stroke="#fff" stroke-linecap="round" stroke-linejoin="round" stroke-width="2"/>
        <path id="Tracé_10562" data-name="Tracé 10562" d="M572.972-79.613,515.4-79.8c-4.769-.015-7.933-1.311-7.066-2.895l6.421-11.733c.867-1.583,4.542-2.867,8.208-2.867h44.252c3.666,0,7.208,1.3,7.912,2.907l5.211,11.893C581.037-80.887,577.741-79.6,572.972-79.613Z" transform="translate(-508.188 141.956)" fill="none" stroke="#fff" stroke-linecap="round" stroke-linejoin="round" stroke-width="2"/>
        <path id="Tracé_10563" data-name="Tracé 10563" d="M583.49-162.7l-7.036.944a.514.514,0,0,0-.339.824l1.461,1.894-8.6,6.574a.488.488,0,0,1-.688-.1l-2.919-3.934a.487.487,0,0,0-.706-.082l-10.941,9.254a1.128,1.128,0,0,0-.133,1.589,1.128,1.128,0,0,0,1.589.133l9.1-7.7a.488.488,0,0,1,.706.082l2.85,3.842a.487.487,0,0,0,.687.1l10.422-7.97,1.5,1.941a.514.514,0,0,0,.883-.118l2.7-6.565A.515.515,0,0,0,583.49-162.7Z" transform="translate(-532.652 177.409)" fill="#fff"/>
      </g>
      <g id="Groupe_1057" data-name="Groupe 1057" transform="translate(77.554 5.143)">
        <g id="Groupe_1056" data-name="Groupe 1056" transform="translate(1.479 29.882)">
          <g id="Groupe_1055" data-name="Groupe 1055">
            <g id="Groupe_1054" data-name="Groupe 1054">
              <g id="Groupe_1053" data-name="Groupe 1053">
                <g id="Groupe_1051" data-name="Groupe 1051">
                  <path id="Tracé_10564" data-name="Tracé 10564" d="M641.155-126.07V-90.88a3.738,3.738,0,0,1-3.742,3.736h-21a3.738,3.738,0,0,1-3.742-3.736V-126.07a3.74,3.74,0,0,1,3.742-3.738h21A3.74,3.74,0,0,1,641.155-126.07Z" transform="translate(-612.668 129.808)" fill="none" stroke="#fff" stroke-linecap="round" stroke-linejoin="round" stroke-width="2"/>
                </g>
                <g id="Groupe_1052" data-name="Groupe 1052" transform="translate(0 32.497)">
                  <path id="Tracé_10565" data-name="Tracé 10565" d="M641.155-50.119v6.43a3.738,3.738,0,0,1-3.742,3.736h-21a3.738,3.738,0,0,1-3.742-3.736v-6.43Z" transform="translate(-612.668 50.119)" fill="none" stroke="#fff" stroke-linecap="round" stroke-linejoin="round" stroke-width="2"/>
                </g>
              </g>
            </g>
          </g>
        </g>
        <path id="Tracé_10566" data-name="Tracé 10566" d="M694.06-164.075a16.694,16.694,0,0,1,3.59,5.126,17.641,17.641,0,0,1,1.575,6.106c.058.748.036,1.494.052,2.241a1.918,1.918,0,0,1-1.923,1.96,1.928,1.928,0,0,1-1.91-2.038,16.423,16.423,0,0,0-.308-3.792,14.332,14.332,0,0,0-.957-2.868,14.042,14.042,0,0,0-1.837-2.977,13.528,13.528,0,0,0-2.564-2.457,14.42,14.42,0,0,0-2.706-1.582,14.785,14.785,0,0,0-3.266-.986,29.662,29.662,0,0,0-4.08-.237,1.732,1.732,0,0,1-1.627-1.258,1.794,1.794,0,0,1,.4-1.924,1.945,1.945,0,0,1,1.475-.627,21.163,21.163,0,0,1,5.926.586,18.235,18.235,0,0,1,4.3,1.75A16.834,16.834,0,0,1,694.06-164.075Z" transform="translate(-675.813 169.395)" fill="none" stroke="#fff" stroke-linecap="round" stroke-linejoin="round" stroke-width="2"/>
        <path id="Tracé_10567" data-name="Tracé 10567" d="M684.581-147.3a10.518,10.518,0,0,1,2.915,5.546,12.7,12.7,0,0,1,.169,3.432,2,2,0,0,1-1.905,1.778,2.044,2.044,0,0,1-2.1-1.388,4.257,4.257,0,0,1-.128-1.277,8.055,8.055,0,0,0-.365-2.627,6.527,6.527,0,0,0-2.585-3.357,6.733,6.733,0,0,0-3.9-1.1c-.43.007-.861.012-1.291,0a2.039,2.039,0,0,1-1.945-1.28,2.025,2.025,0,0,1,.4-2.27,2.038,2.038,0,0,1,1.562-.651,17.667,17.667,0,0,1,3.549.2,10.946,10.946,0,0,1,3.275,1.2A10.744,10.744,0,0,1,684.581-147.3Z" transform="translate(-673.253 159.153)" fill="none" stroke="#fff" stroke-linecap="round" stroke-linejoin="round" stroke-width="2"/>
      </g>
    </g>
  </g>
</svg>
