<svg id="Groupe_1591" data-name="Groupe 1591" xmlns="http://www.w3.org/2000/svg" width="101" height="124.991" viewBox="0 0 101 124.991">
  <path id="Tracé_14932" data-name="Tracé 14932" d="M2832.89,1517.61c12.267,0,22.212,3.563,22.212,7.957s-9.945,7.955-22.212,7.955-22.21-3.561-22.21-7.955S2820.623,1517.61,2832.89,1517.61Z" transform="translate(-2754.102 -1414.687)" fill-rule="evenodd" opacity="0.2"/>
  <path id="Tracé_14933" data-name="Tracé 14933" d="M2795.153,1522.029c12.267,0,22.211,3.562,22.211,7.958s-9.944,7.954-22.211,7.954-22.21-3.561-22.21-7.954S2782.888,1522.029,2795.153,1522.029Z" transform="translate(-2768.94 -1412.95)" fill-rule="evenodd" opacity="0.2"/>
  <path id="Tracé_14934" data-name="Tracé 14934" d="M2807.816,1479.45l-2.186-3.2-4.886,3.281.082,1.435-3.81,3.465c1.034.9,1.909,1.52,5.11-.156C2804.829,1482.862,2804.812,1482.507,2807.816,1479.45Z" transform="translate(-2759.474 -1430.948)" fill="#fff" fill-rule="evenodd"/>
  <path id="Tracé_14935" data-name="Tracé 14935" d="M2806.547,1479.667l-.9-1.311-3.246,2.182.041.719a1.268,1.268,0,0,1-.411,1l-2.342,2.13a8.068,8.068,0,0,0,2.208-.872,11.245,11.245,0,0,0,3.818-2.986c.242-.256.514-.54.827-.865Zm.483-3.768,2.187,3.2a1.262,1.262,0,0,1-.144,1.6c-.61.62-1.105,1.142-1.524,1.579a13.057,13.057,0,0,1-4.482,3.479,7.71,7.71,0,0,1-4.046,1.189,3.945,3.945,0,0,1-2.48-1.194h0a1.016,1.016,0,0,1-.1-.1,1.265,1.265,0,0,1,.083-1.786l3.367-3.061-.047-.837a1.258,1.258,0,0,1,.559-1.115l4.875-3.277A1.263,1.263,0,0,1,2807.03,1475.9Z" transform="translate(-2759.831 -1431.304)" fill="#143d66" fill-rule="evenodd"/>
  <path id="Tracé_14936" data-name="Tracé 14936" d="M2782.746,1524.329a1.451,1.451,0,0,1,0-2.748,5.266,5.266,0,0,1,4.761,0l6.256,3.612a1.45,1.45,0,0,1,0,2.747,5.257,5.257,0,0,1-4.761,0Z" transform="translate(-2765.472 -1413.35)" fill="#fff" fill-rule="evenodd"/>
  <path id="Tracé_14937" data-name="Tracé 14937" d="M2782.475,1525.778a3.564,3.564,0,0,1-1.13-.985,1.275,1.275,0,0,1-.072-.113,2.49,2.49,0,0,1-.421-1.368,2.517,2.517,0,0,1,.5-1.478l0,0a3.568,3.568,0,0,1,1.125-.985h0a5.367,5.367,0,0,1,1.432-.554,6.791,6.791,0,0,1,3.163,0,5.358,5.358,0,0,1,1.431.554l.065.041,6.186,3.572a3.58,3.58,0,0,1,1.129.985,1.331,1.331,0,0,1,.072.113,2.444,2.444,0,0,1-.075,2.847l0,0a3.551,3.551,0,0,1-1.125.986l-.085.045a5.337,5.337,0,0,1-1.347.51,6.739,6.739,0,0,1-3.163,0,5.362,5.362,0,0,1-1.425-.554l-6.257-3.613Zm.926-2.459a1.063,1.063,0,0,0,.33.275l6.257,3.611a2.8,2.8,0,0,0,.752.287,4.57,4.57,0,0,0,2,0,2.784,2.784,0,0,0,.7-.256l.052-.03a1.067,1.067,0,0,0,.333-.273l0,0,.005-.007-.009-.012a1.022,1.022,0,0,0-.33-.273l-6.19-3.572-.071-.039a2.745,2.745,0,0,0-.747-.288,4.7,4.7,0,0,0-2,0,2.744,2.744,0,0,0-.748.288v0l0,0a1.063,1.063,0,0,0-.33.273h0l0,.005Z" transform="translate(-2765.829 -1413.707)" fill="#143d66" fill-rule="evenodd"/>
  <path id="Tracé_14938" data-name="Tracé 14938" d="M2773.277,1529.68a1.452,1.452,0,0,1,0-2.749,5.264,5.264,0,0,1,4.76,0l6.256,3.613a1.45,1.45,0,0,1,0,2.747,5.255,5.255,0,0,1-4.761,0Z" transform="translate(-2769.196 -1411.246)" fill="#fff" fill-rule="evenodd"/>
  <path id="Tracé_14939" data-name="Tracé 14939" d="M2773.008,1531.128a3.528,3.528,0,0,1-1.132-.985c-.026-.037-.05-.075-.072-.113a2.486,2.486,0,0,1-.421-1.368,2.522,2.522,0,0,1,.5-1.479l0,0a3.555,3.555,0,0,1,1.127-.983l0,0a5.385,5.385,0,0,1,1.432-.555,6.8,6.8,0,0,1,3.164,0,5.324,5.324,0,0,1,1.429.555l.066.042,6.186,3.57a3.533,3.533,0,0,1,1.13.986,1.037,1.037,0,0,1,.074.113,2.493,2.493,0,0,1,.419,1.368,2.521,2.521,0,0,1-.494,1.479l0,0a3.548,3.548,0,0,1-1.125.984l-.085.045a5.352,5.352,0,0,1-1.347.51,6.74,6.74,0,0,1-3.163,0,5.365,5.365,0,0,1-1.427-.554l-6.253-3.613Zm.924-2.459a1.05,1.05,0,0,0,.33.273l6.257,3.612a2.845,2.845,0,0,0,.753.288,4.695,4.695,0,0,0,2,0,2.951,2.951,0,0,0,.7-.258l.052-.031a1.076,1.076,0,0,0,.334-.273l0,0,.006-.008-.009-.011a1.047,1.047,0,0,0-.33-.272l-6.19-3.575-.071-.038a2.829,2.829,0,0,0-.748-.289,4.709,4.709,0,0,0-2,0,2.837,2.837,0,0,0-.749.289v0l-.005,0a1.039,1.039,0,0,0-.33.273l0,0,0,.007Z" transform="translate(-2769.553 -1411.603)" fill="#143d66" fill-rule="evenodd"/>
  <path id="Tracé_14940" data-name="Tracé 14940" d="M2790.757,1481.026a4.732,4.732,0,0,1,3.024,4.413c0,.134-.006.266-.018.4l-.055,26.062c0,8.085-.7,16.93-1.033,25.09a1.673,1.673,0,0,1-.985,1.374,5.256,5.256,0,0,1-4.761,0,1.673,1.673,0,0,1-.985-1.374c-.024-8.387-.079-16.78-.079-25.166l-2.017-16.1-2.61,1.474-.722,22.16c-.3,8.359-.689,16.731-1.032,25.09a1.676,1.676,0,0,1-.986,1.374,5.258,5.258,0,0,1-4.761,0,1.672,1.672,0,0,1-.985-1.374c-.024-8.39-.079-16.78-.079-25.169l-1.537-25.986c-.01-.131-.016-.262-.016-.394,0-2.82,1.747-3.73,3.812-4.9l6.719-3.8,4.78-2.7A4.925,4.925,0,0,1,2790.757,1481.026Z" transform="translate(-2769.656 -1429.193)" fill="#04c38f" fill-rule="evenodd"/>
  <path id="Tracé_14941" data-name="Tracé 14941" d="M2791.571,1480.2a6.005,6.005,0,0,1,3.833,5.592c-.322,8.639-.058,17.764-.077,26.459h0c0,5.385-.315,11.188-.625,16.894-.153,2.8-.3,5.576-.411,8.2h0a2.517,2.517,0,0,1-.495,1.478v0a3.542,3.542,0,0,1-1.124.985l-.086.044a5.413,5.413,0,0,1-1.347.511,6.783,6.783,0,0,1-3.162,0,5.434,5.434,0,0,1-1.428-.556,3.6,3.6,0,0,1-1.129-.985c-.027-.038-.05-.074-.073-.113a2.5,2.5,0,0,1-.42-1.368h0c-.007-3.1-.021-6.224-.034-9.344-.023-5.839-.049-11.69-.049-15.749l-1.775-14.152-.351.2-.7,21.455c-.2,5.639-.441,11.2-.678,16.769-.121,2.813-.242,5.627-.353,8.277h0a2.517,2.517,0,0,1-.5,1.478l0,0a3.518,3.518,0,0,1-1.126.985l-.083.045a5.43,5.43,0,0,1-1.347.509,6.748,6.748,0,0,1-3.163,0,5.365,5.365,0,0,1-1.424-.554,3.545,3.545,0,0,1-1.132-.985,1.138,1.138,0,0,1-.072-.113,2.489,2.489,0,0,1-.421-1.368h0c-.006-3.107-.02-6.233-.033-9.357-.026-5.868-.051-11.736-.051-15.812l-1.528-25.881h0l-.021-.5c0-3.476,1.95-4.578,4.3-5.9l.16-.091v0c3.829-2.166,7.659-4.39,11.512-6.511h0a7.336,7.336,0,0,1,2.635-.893,5.678,5.678,0,0,1,2.754.354Zm.7,3.634a3.482,3.482,0,0,0-1.609-1.279,3.175,3.175,0,0,0-1.547-.2,4.821,4.821,0,0,0-1.716.6l-11.484,6.493v0l-.166.095c-1.64.925-3,1.694-3,3.708l0,.147.013.142h0l1.533,25.927a1.13,1.13,0,0,1,.011.162c0,1.131,0,2.207,0,3.593,0,4.5.021,8.357.035,12.21q.022,4.66.036,9.341l.023.032a1.059,1.059,0,0,0,.331.274,2.858,2.858,0,0,0,.753.287,4.639,4.639,0,0,0,2,0,2.9,2.9,0,0,0,.7-.256l.051-.031a1.073,1.073,0,0,0,.334-.274l0,0,0,0c.008-.013.014,0,.014-.007h0v-.051c.12-2.887.237-5.612.354-8.337.242-5.609.483-11.222.68-16.748l.72-22.155h0a1.257,1.257,0,0,1,.64-1.057l2.5-1.414a1.251,1.251,0,0,1,.575-.219,1.264,1.264,0,0,1,1.408,1.1l2.011,16.059a1.2,1.2,0,0,1,.017.2c0,6.479.021,11.141.04,15.813.012,3.1.026,6.208.032,9.328l.025.032a1.051,1.051,0,0,0,.33.275,2.859,2.859,0,0,0,.753.287,4.644,4.644,0,0,0,2,0,2.969,2.969,0,0,0,.7-.256l.05-.031a1.08,1.08,0,0,0,.335-.275l0,0,0,0c.008-.012.013,0,.013-.007h0l0-.051c.113-2.757.262-5.5.412-8.274.3-5.616.616-11.323.616-16.765h0l.057-25.959a.94.94,0,0,1,0-.206l.011-.146,0-.147A3.451,3.451,0,0,0,2792.27,1483.838Z" transform="translate(-2770.013 -1429.55)" fill="#143d66" fill-rule="evenodd"/>
  <path id="Tracé_14942" data-name="Tracé 14942" d="M2778.045,1456.9a5.1,5.1,0,0,0,4.621,0c1.275-.736,1.276-1.932,0-2.668a5.114,5.114,0,0,0-4.621,0C2776.768,1454.964,2776.771,1456.16,2778.045,1456.9Z" transform="translate(-2767.31 -1439.825)" fill="#fff" fill-rule="evenodd"/>
  <path id="Tracé_14943" data-name="Tracé 14943" d="M2779.035,1456.161a3.9,3.9,0,0,0,3.354,0,.248.248,0,1,0,0-.482,3.89,3.89,0,0,0-3.355,0,.247.247,0,1,0,0,.482l0,0v0Zm1.677,2.911a6.007,6.007,0,0,1-2.942-.724v0a3.336,3.336,0,0,1-1.251-1.194h0l0,0a2.451,2.451,0,0,1-.341-1.227h.005a2.436,2.436,0,0,1,.283-1.134c.017-.032.033-.064.052-.1a3.334,3.334,0,0,1,1.248-1.2,6.343,6.343,0,0,1,5.888,0,3.32,3.32,0,0,1,1.247,1.2h0v0a2.378,2.378,0,0,1,0,2.457h0a3.338,3.338,0,0,1-1.245,1.2A6.011,6.011,0,0,1,2780.713,1459.071Z" transform="translate(-2767.667 -1440.182)" fill="#0087ca" fill-rule="evenodd"/>
  <path id="Tracé_14944" data-name="Tracé 14944" d="M2793.28,1495.186h0a1.847,1.847,0,0,0,1.142-1.911v-33.429c-.341-3.05-4.831-5.637-6.8-4.5l-9.595,5.541-3.558,2.053c-1.5.839-3.407,2.625-3.452,4.733v34.5a1.318,1.318,0,0,0,0,.629v.145l.036-.015c.147.435-.417.825.657,1.443a7.269,7.269,0,0,0,5.66,0l15.912-9.185Z" transform="translate(-2769.712 -1439.276)" fill="#00ffba" fill-rule="evenodd"/>
  <path id="Tracé_14945" data-name="Tracé 14945" d="M2794.383,1496.564a1.135,1.135,0,0,1-.222.129l-15.81,9.128a6.883,6.883,0,0,1-3.346.749,7.935,7.935,0,0,1-3.567-.749c-1.407-.812-1.392-1.529-1.293-2.207a1.249,1.249,0,0,1-.042-.315v-.029a2.614,2.614,0,0,1-.034-.431,2.484,2.484,0,0,1,.041-.464V1468a5.744,5.744,0,0,1,1.188-3.254,9.4,9.4,0,0,1,2.909-2.557l13.136-7.583a3.385,3.385,0,0,1,1.317-.421,6.381,6.381,0,0,1,3.717.956,8.14,8.14,0,0,1,2.956,2.857,5.342,5.342,0,0,1,.692,1.965,1.421,1.421,0,0,1,.021.234v33.34a2.662,2.662,0,0,1-.375,1.77,3.776,3.776,0,0,1-1.288,1.253Zm-1.293-2.164a1.246,1.246,0,0,0,.415-.383.2.2,0,0,0,.038-.131,1.217,1.217,0,0,1-.027-.255h0v-33.367a2.8,2.8,0,0,0-.365-.995,5.577,5.577,0,0,0-2.026-1.939,3.885,3.885,0,0,0-2.185-.627.822.822,0,0,0-.328.093c-4.384,2.531-8.761,5.112-13.166,7.6a6.816,6.816,0,0,0-2.107,1.835,3.283,3.283,0,0,0-.7,1.821v34.47a1.273,1.273,0,0,1-.033.292h0v.022l0,.032a1.012,1.012,0,0,1,.036.125,1.62,1.62,0,0,1,.049.647l.006-.008-.035.228c.011-.073.022-.144.029-.22l.006-.008a5.431,5.431,0,0,0,2.312.4,4.472,4.472,0,0,0,2.091-.4l15.805-9.124A1.167,1.167,0,0,1,2793.09,1494.4Z" transform="translate(-2770.069 -1439.633)" fill="#143d66" fill-rule="evenodd"/>
  <path id="Tracé_14946" data-name="Tracé 14946" d="M2777.226,1455.03h6.537l.479,6.213a1.376,1.376,0,0,1,.016.194,1.874,1.874,0,0,1-1.1,1.535,5.88,5.88,0,0,1-5.321,0,1.87,1.87,0,0,1-1.1-1.535,1.275,1.275,0,0,1,.016-.192Z" transform="translate(-2767.449 -1439.293)" fill="#fff" fill-rule="evenodd"/>
  <path id="Tracé_14947" data-name="Tracé 14947" d="M2777.583,1454.121h7.706l.568,7.334c.007.046.01.1.015.149.006.076.01.14.01.19h-.006a2.673,2.673,0,0,1-.522,1.569h0a3.812,3.812,0,0,1-1.21,1.06,7.091,7.091,0,0,1-6.581,0h0a3.82,3.82,0,0,1-1.213-1.062h0a2.656,2.656,0,0,1-.522-1.567h-.006a2.3,2.3,0,0,1,.025-.34l.566-7.332Zm5.365,2.531h-4.193l-.39,5.043-.01.1h-.006a.219.219,0,0,0,.05.1h0a1.344,1.344,0,0,0,.421.347h0a4.679,4.679,0,0,0,4.055,0,1.31,1.31,0,0,0,.421-.347h0a.206.206,0,0,0,.05-.1h0v0l-.011-.1-.391-5.043Zm.4,5.141" transform="translate(-2767.807 -1439.65)" fill="#143d66" fill-rule="evenodd"/>
  <path id="Tracé_14948" data-name="Tracé 14948" d="M2781.812,1444.643h-1.226a5.576,5.576,0,0,0-5.641,5.638l.291,6.884a5.744,5.744,0,0,0,5.64,5.64h.616a5.755,5.755,0,0,0,5.64-5.64l.321-6.884A5.566,5.566,0,0,0,2781.812,1444.643Z" transform="translate(-2768.153 -1443.377)" fill="#fff" fill-rule="evenodd"/>
  <path id="Tracé_14949" data-name="Tracé 14949" d="M2782.17,1446.266h-1.417a4.513,4.513,0,0,0-2.964,1.3,4.012,4.012,0,0,0-1.224,2.859v.167l.287,6.882a4.771,4.771,0,0,0,1.375,3.171,4.223,4.223,0,0,0,3.006,1.254h.616a4.207,4.207,0,0,0,3-1.25,4.8,4.8,0,0,0,1.381-3.179l.323-6.882v-.185a3.986,3.986,0,0,0-1.218-2.836,4.519,4.519,0,0,0-2.95-1.3Zm-1.227-2.532h1.227c.052,0,.161,0,.32.012a7.053,7.053,0,0,1,4.612,2.021,6.5,6.5,0,0,1,1.979,4.634c0,.043,0,.142-.01.294l-.322,6.882a7.339,7.339,0,0,1-2.115,4.861,6.712,6.712,0,0,1-4.786,1.991h-.616a6.731,6.731,0,0,1-4.8-1.995,7.308,7.308,0,0,1-2.106-4.863l-.288-6.882-.012-.266a6.534,6.534,0,0,1,1.988-4.657,7.042,7.042,0,0,1,4.635-2.022Z" transform="translate(-2768.511 -1443.734)" fill="#143d66" fill-rule="evenodd"/>
  <path id="Tracé_14950" data-name="Tracé 14950" d="M2781.814,1444.643h-1.228a5.577,5.577,0,0,0-5.641,5.64l.291,6.882a6.443,6.443,0,0,0,3.086-5.434c4.716.553,6.274.293,8.954-3.04A5.686,5.686,0,0,0,2781.814,1444.643Z" transform="translate(-2768.153 -1443.377)" fill="#143d66" fill-rule="evenodd"/>
  <path id="Tracé_14951" data-name="Tracé 14951" d="M2782.17,1446.266h-1.416a4.513,4.513,0,0,0-2.965,1.3,4.012,4.012,0,0,0-1.224,2.859v.167l.168,4.008a5.142,5.142,0,0,0,.684-2.544,1.26,1.26,0,0,1,1.3-1.225.962.962,0,0,1,.109.007v0a12.031,12.031,0,0,0,4.721-.016,5.952,5.952,0,0,0,2.657-2.021,4.281,4.281,0,0,0-1.35-1.644,4.5,4.5,0,0,0-2.68-.888Zm-1.227-2.532h1.227a7.025,7.025,0,0,1,4.182,1.392,6.727,6.727,0,0,1,2.484,3.542,1.263,1.263,0,0,1-.22,1.173,9,9,0,0,1-4.322,3.391,11.319,11.319,0,0,1-4.494.248,7.185,7.185,0,0,1-.932,2.467,8.806,8.806,0,0,1-2.549,2.609,1.264,1.264,0,0,1-1.988-.985l-.288-6.881-.012-.267a6.536,6.536,0,0,1,1.988-4.657,7.042,7.042,0,0,1,4.636-2.022Z" transform="translate(-2768.511 -1443.734)" fill="#143d66" fill-rule="evenodd"/>
  <path id="Tracé_14952" data-name="Tracé 14952" d="M2783.869,1489.421a1.26,1.26,0,1,1,1.256,2.184l-5.758,3.326a1.261,1.261,0,1,1-1.257-2.186Z" transform="translate(-2767.157 -1425.837)" fill="#143d66" fill-rule="evenodd"/>
  <path id="Tracé_14953" data-name="Tracé 14953" d="M2793.955,1481.023l.86-4.137,6.3,1.254.52,1.479,5.3,1.892-1.445,2.385C2798.148,1483.139,2799.494,1483.358,2793.955,1481.023Z" transform="translate(-2760.678 -1430.7)" fill="#fff" fill-rule="evenodd"/>
  <path id="Tracé_14954" data-name="Tracé 14954" d="M2793.074,1481.124l.86-4.14a1.264,1.264,0,0,1,1.479-.982v0l6.3,1.254a1.266,1.266,0,0,1,.975.9l.292.83,4.732,1.69a1.267,1.267,0,0,1,.766,1.617,1.3,1.3,0,0,1-.137.273l-1.417,2.341a1.266,1.266,0,0,1-1.283.595l-.837-.086a42.878,42.878,0,0,1-5.594-.752,21.927,21.927,0,0,1-3.544-1.326c-.719-.311-1.547-.668-1.847-.794a1.261,1.261,0,0,1-.745-1.418Zm3.077-2.4-.393,1.9c.455.193.695.3.908.39a20.82,20.82,0,0,0,3.15,1.2,42.811,42.811,0,0,0,5.245.692l.113.011.228-.376-3.836-1.371v0a1.262,1.262,0,0,1-.767-.773l-.28-.8Z" transform="translate(-2761.034 -1431.057)" fill="#143d66" fill-rule="evenodd"/>
  <path id="Tracé_14955" data-name="Tracé 14955" d="M2790.243,1477.51l-11.806-15.229-5.969,5.238,13.99,14.115a2.74,2.74,0,0,0,1.194.8c.066.024.134.044.2.061l13.277,3.963a2.237,2.237,0,1,0,1.438-4.236Z" transform="translate(-2769.125 -1436.442)" fill="#00ffba" fill-rule="evenodd"/>
  <path id="Tracé_14956" data-name="Tracé 14956" d="M2770.1,1465.56a1.261,1.261,0,1,1,2.52-.109,2.875,2.875,0,0,0,.317,1.175,2.955,2.955,0,0,0,.786.956l14.484,12.316a1.14,1.14,0,0,1,.138.134l0,0a1.447,1.447,0,0,0,.291.262,1.512,1.512,0,0,0,.352.173l.158.046h0l13.277,3.962a1.15,1.15,0,0,1,.109.039,1.345,1.345,0,0,0,.132.027,1.075,1.075,0,0,0,.2,0,.976.976,0,0,0,.7-1.567.99.99,0,0,0-.463-.328l-.05-.016v0l-12.326-4.713a1.232,1.232,0,0,1-.493-.337l-8.18-8.065a1.263,1.263,0,0,1,1.772-1.8l8.044,7.933,12.083,4.618v0a3.513,3.513,0,0,1,2.327,2.969,1.033,1.033,0,0,1,.011.173,3.5,3.5,0,0,1-3.149,3.643,1.209,1.209,0,0,1-.189.014,3.6,3.6,0,0,1-.614-.028,3.312,3.312,0,0,1-.572-.127l-.064-.017-13.277-3.962,0,0-.1-.026-.146-.047a4.106,4.106,0,0,1-1.684-1.1l-14.354-12.2a5.454,5.454,0,0,1-1.449-1.768A5.392,5.392,0,0,1,2770.1,1465.56Z" transform="translate(-2770.058 -1435.67)" fill="#143d66" fill-rule="evenodd"/>
  <path id="Tracé_14957" data-name="Tracé 14957" d="M2805.642,1486.669a2.054,2.054,0,0,1-.757.344,2.079,2.079,0,0,1-1.677-3.717l9.781-7.633,7.782-14.851c.517-1.24,3.423-2.9,5.327-1.815,1.8,1.028,1.633,3.646,1.08,4.615s-.165.268-.258.391l-9.973,14.087a3.174,3.174,0,0,1-.731.818.851.851,0,0,1-.168.112Z" transform="translate(-2757.382 -1437.872)" fill="#a6edf8" fill-rule="evenodd"/>
  <path id="Tracé_14958" data-name="Tracé 14958" d="M2806.654,1488.1a3.187,3.187,0,0,1-.492.278,3.236,3.236,0,0,1-.637.219h-.007a3.341,3.341,0,0,1-4-2.508v-.005a3.343,3.343,0,0,1,1.316-3.465l9.526-7.434,7.615-14.531a2.848,2.848,0,0,1,.145-.291,5.746,5.746,0,0,1,2.653-2.14l.072-.028a5.034,5.034,0,0,1,3.816-.153,4,4,0,0,1,.426.209,4.1,4.1,0,0,1,1.95,2.721,5.512,5.512,0,0,1-.4,3.618c-.08.139-.157.263-.233.376l0,.01a.152.152,0,0,1-.037.049,3.02,3.02,0,0,1-.188.246l-9.786,13.826a4.038,4.038,0,0,1-.457.612,4.612,4.612,0,0,1-.617.574c-.094.067-.159.112-.211.143l-10.355,7.612c-.03.021-.061.04-.092.06Zm-1.539-2.015a.989.989,0,0,0,.1-.055l10.381-7.632a1.448,1.448,0,0,1,.148-.106l.1-.056v0a1.835,1.835,0,0,0,.212-.207,1.3,1.3,0,0,0,.158-.208h0c.021-.036.043-.071.067-.105l9.911-14c.024-.041.052-.083.08-.12a2.251,2.251,0,0,1,.152-.181.111.111,0,0,1,.017-.077,2.76,2.76,0,0,0,.135-1.789,1.64,1.64,0,0,0-.745-1.1c-.05-.028-.1-.052-.137-.069a2.574,2.574,0,0,0-1.88.147l-.052.024a3.18,3.18,0,0,0-1.448,1.073l-.015.028h0c-.014.033-.03.067-.045.1l-7.765,14.815a1.281,1.281,0,0,1-.359.446l-9.742,7.6c-.029.024-.057.046-.087.067a.825.825,0,0,0-.286.375.812.812,0,0,0-.041.418.932.932,0,0,1,.023.109.82.82,0,0,0,.913.568,1.012,1.012,0,0,1,.111-.026c.036-.011.07-.024.1-.035Zm10.75-7.861-.028.011v0Z" transform="translate(-2757.739 -1438.228)" fill="#143d66" fill-rule="evenodd"/>
  <path id="Tracé_14959" data-name="Tracé 14959" d="M2819.013,1481.423a4.4,4.4,0,0,0-2.811,4.106c0,.124,0,.246.014.369l.052,24.239,1.32,23.626-6.291,3.788a1.554,1.554,0,0,0,.916,1.278,4.512,4.512,0,0,0,2.213.529l7.262-3.426a1.557,1.557,0,0,0,.918-1.279.884.884,0,0,0-.005-.092l.005-23.875.927-16.083,2.894,1.046,1.227,20.92,2.324,23.964-6.35,3.9a1.553,1.553,0,0,0,.917,1.279,4.528,4.528,0,0,0,2.214.529l7.2-3.378a1.934,1.934,0,0,0,.8-.792,2.559,2.559,0,0,0,.087-1.222l-.912-24.353.848-25.069c.012-.12.015-.244.015-.365,0-2.623-1.624-3.47-3.545-4.556l-4.657-2.633-3.561-2.015A4.592,4.592,0,0,0,2819.013,1481.423Z" transform="translate(-2753.859 -1429.028)" fill="#fff" fill-rule="evenodd"/>
  <path id="Tracé_14960" data-name="Tracé 14960" d="M2819.827,1482.957a3.132,3.132,0,0,0-2,2.929v.136l.011.134a1.2,1.2,0,0,1,0,.2l.05,24.071,1.321,23.625a1.266,1.266,0,0,1-.609,1.152v0l-5.06,3.045a3.265,3.265,0,0,0,.337.1,3.886,3.886,0,0,0,.646.091l6.953-3.281a.869.869,0,0,0,.224-.188.771.771,0,0,1,0-.142l0-23.789,0-.068h0l.929-16.083a1.261,1.261,0,0,1,1.328-1.192,1.22,1.22,0,0,1,.434.1l2.817,1.017a1.264,1.264,0,0,1,.834,1.119h0s.338,9.712,1.224,20.92,2.323,23.914,2.323,23.914a1.261,1.261,0,0,1-.6,1.2l-5.139,3.158a3.058,3.058,0,0,0,.355.107,3.624,3.624,0,0,0,.651.092l6.87-3.223a1.069,1.069,0,0,0,.191-.149.289.289,0,0,0,.06-.07l0,0h0l-.023-.347c0-.056-.007-.109-.013-.28l-.911-24.354a.8.8,0,0,1,0-.108l.85-25.108h0l.013-.127v-.134c0-1.822-1.247-2.526-2.746-3.371l-.156-.088h0l-8.2-4.638a4.416,4.416,0,0,0-1.567-.543,2.844,2.844,0,0,0-1.395.177Zm-3.544-.268a5.7,5.7,0,0,1,2.633-2.087,5.336,5.336,0,0,1,2.6-.334,6.867,6.867,0,0,1,2.485.84h0c2.757,1.517,5.495,3.107,8.236,4.656l0,0,.148.083c2.206,1.246,4.041,2.281,4.041,5.568l-.021.47h0l-.844,24.958.909,24.314.014.2a2.916,2.916,0,0,1-.226,1.613h0a2.819,2.819,0,0,1-.562.777,3.614,3.614,0,0,1-.706.535,1.2,1.2,0,0,1-.135.074l-7.095,3.328a1.252,1.252,0,0,1-.637.172,6.5,6.5,0,0,1-1.491-.177,5.111,5.111,0,0,1-1.356-.525h0a3.429,3.429,0,0,1-1.075-.939l0,0a2.433,2.433,0,0,1-.478-1.428h0a1.262,1.262,0,0,1,.6-1.077l5.676-3.486-2.243-23.124c0-.036-.008-.072-.011-.109l-1.176-20.087-.519-.188-.83,14.393,0,23.72,0,.047c0,.041,0,.087,0,.13a2.416,2.416,0,0,1-.476,1.429v0l0,0a3.331,3.331,0,0,1-.986.89,1.5,1.5,0,0,1-.176.1l-7.185,3.388a1.26,1.26,0,0,1-.619.162,6.448,6.448,0,0,1-1.492-.177,5.121,5.121,0,0,1-1.355-.525l0,0a3.4,3.4,0,0,1-1.076-.939l0,0a2.416,2.416,0,0,1-.478-1.427,1.264,1.264,0,0,1,.611-1.082l5.641-3.4-1.278-22.866h0l0-.068c-.016-8.08.238-16.586-.07-24.608a5.647,5.647,0,0,1,.988-3.2Zm5.417,52.284v0Zm0,0v0Z" transform="translate(-2754.216 -1429.385)" fill="#143d66" fill-rule="evenodd"/>
  <path id="Tracé_14961" data-name="Tracé 14961" d="M2817.589,1518.91l-6.291,3.787a1.554,1.554,0,0,0,.916,1.278,4.516,4.516,0,0,0,2.213.529l7.262-3.426a1.7,1.7,0,0,0,.888-1.034C2820.088,1520.414,2818.722,1520.378,2817.589,1518.91Z" transform="translate(-2753.859 -1414.176)" fill="#00cef0" fill-rule="evenodd"/>
  <path id="Tracé_14962" data-name="Tracé 14962" d="M2817.737,1520.867l-4.2,2.529a3.358,3.358,0,0,0,.337.1,3.913,3.913,0,0,0,.646.09l4.354-2.053a3.982,3.982,0,0,1-1.139-.668Zm-6.737,1.105,6.292-3.788h0a1.262,1.262,0,0,1,1.651.311,1.911,1.911,0,0,0,1.215.786,8.611,8.611,0,0,0,2.581-.13,1.283,1.283,0,0,1,.482.018,1.267,1.267,0,0,1,.945,1.518,2.594,2.594,0,0,1-.57,1.094,3.535,3.535,0,0,1-.9.735c-.037.021-.073.043-.113.061l-7.185,3.388a1.261,1.261,0,0,1-.619.162,6.435,6.435,0,0,1-1.492-.177,5.124,5.124,0,0,1-1.355-.525l0,0a3.39,3.39,0,0,1-1.076-.939l0,0a2.414,2.414,0,0,1-.478-1.426A1.263,1.263,0,0,1,2811,1521.972Z" transform="translate(-2754.216 -1414.532)" fill="#143d66" fill-rule="evenodd"/>
  <path id="Tracé_14963" data-name="Tracé 14963" d="M2814.7,1505.792c-2.554-3.288,1.153-19.266,2.5-22.883l-1.34-6.8a27.871,27.871,0,0,1-.433-8.317l.5-5.535c.316-2.835,4.492-5.243,6.323-4.182l4.86,2.8,3.308,1.911c1.4.78,3.17,2.442,3.211,4.4l-.8,20.527,2.721,12.66c.038.164-.388,8.873-.544,11.583-.047.812.063,1.817-.7,2.257a6.76,6.76,0,0,1-5.262,0l-13.422-7.749A2.678,2.678,0,0,1,2814.7,1505.792Z" transform="translate(-2752.864 -1438.196)" fill="#a6edf8" fill-rule="evenodd"/>
  <path id="Tracé_14964" data-name="Tracé 14964" d="M2814.057,1506.919c-1.231-1.584-1.327-5.131-.9-9.085a83.59,83.59,0,0,1,3.084-14.658l-1.275-6.469a29.192,29.192,0,0,1-.448-8.674l.507-5.557h0a5.017,5.017,0,0,1,.665-1.949,7.664,7.664,0,0,1,2.779-2.691,6.029,6.029,0,0,1,3.512-.9,3.216,3.216,0,0,1,1.26.4l.065.041,4.791,2.766,0,0,3.293,1.9a8.834,8.834,0,0,1,2.732,2.4,5.407,5.407,0,0,1,1.122,3.078v.074l-.8,20.363q1.346,6.257,2.691,12.515a1.293,1.293,0,0,1,.008.482c-.008.74-.063,2.177-.142,3.823-.129,2.749-.3,6.124-.386,7.608-.008.156-.013.252-.015.347-.028,1.063-.059,2.207-1.317,2.933a7.463,7.463,0,0,1-3.363.709,6.483,6.483,0,0,1-3.155-.709l-13.422-7.747a1.665,1.665,0,0,0-.151-.083l-.066-.039a3.134,3.134,0,0,1-1.074-.879Zm1.617-8.819c-.371,3.383-.385,6.289.382,7.277a1.076,1.076,0,0,0,.309.22l.035.017.033.02h0l-.033-.018.033.018h0l13.594,7.849a4.077,4.077,0,0,0,1.9.362,4.971,4.971,0,0,0,2.1-.362,4.4,4.4,0,0,0,.054-.808c0-.17.009-.331.013-.426.089-1.532.26-4.9.387-7.589.1-2.057.2-3.593.188-3.637l-2.725-12.683h0a1.213,1.213,0,0,1-.026-.311l.8-20.494a2.986,2.986,0,0,0-.636-1.6,6.2,6.2,0,0,0-1.931-1.68l-3.322-1.92v0l-4.79-2.765-.071-.036a.684.684,0,0,0-.269-.077,3.536,3.536,0,0,0-1.979.573,5.1,5.1,0,0,0-1.852,1.771,2.492,2.492,0,0,0-.337.961h0l-.5,5.509a28.187,28.187,0,0,0-.091,4,27.765,27.765,0,0,0,.51,3.965l1.34,6.8h0a1.259,1.259,0,0,1-.057.681A77.779,77.779,0,0,0,2815.674,1498.1Z" transform="translate(-2753.218 -1438.553)" fill="#143d66" fill-rule="evenodd"/>
  <path id="Tracé_14965" data-name="Tracé 14965" d="M2835.709,1486.047l-3.885.606.869,5.911,1.353.55,1.508,5.009,2.284-1.23C2837.479,1490.04,2837.619,1491.3,2835.709,1486.047Z" transform="translate(-2745.787 -1427.097)" fill="#fff" fill-rule="evenodd"/>
  <path id="Tracé_14966" data-name="Tracé 14966" d="M2835.238,1487.809l-1.624.252.583,3.966.68.277a1.26,1.26,0,0,1,.732.806h0l1.063,3.523.216-.118,0-.05a38.919,38.919,0,0,0-.4-4.892,18.994,18.994,0,0,0-.958-2.969l-.3-.8Zm-3.25-2.047,3.825-.6a1.266,1.266,0,0,1,1.439.807c.3.815.484,1.316.646,1.751a20.793,20.793,0,0,1,1.076,3.366,40.547,40.547,0,0,1,.437,5.245l.041.8a1.261,1.261,0,0,1-.659,1.23l-2.239,1.206a1.178,1.178,0,0,1-.283.124,1.264,1.264,0,0,1-1.572-.85l-1.335-4.432-.687-.281a1.265,1.265,0,0,1-.877-1.026l-.87-5.91h0A1.262,1.262,0,0,1,2831.988,1485.763Z" transform="translate(-2746.144 -1427.453)" fill="#143d66" fill-rule="evenodd"/>
  <path id="Tracé_14967" data-name="Tracé 14967" d="M2839.187,1494.587l-2.23-12.69c-.01-.067-.022-.132-.036-.2a2.488,2.488,0,0,0-.19-.562l-6.832-17.171-6.686,3.143,8.783,16.065,3.122,12.282a2.117,2.117,0,0,0,.331.767,2.081,2.081,0,0,0,3.738-1.636Z" transform="translate(-2749.174 -1435.78)" fill="#a6edf8" fill-rule="evenodd"/>
  <path id="Tracé_14968" data-name="Tracé 14968" d="M2824.889,1474.248a1.261,1.261,0,1,1,2.214-1.206l5.4,9.882a1.224,1.224,0,0,1,.116.293h0l3.124,12.283c.008.036.016.072.022.108a.627.627,0,0,0,.035.1h0c.015.035.03.065.043.092s.053.072.077.11a.806.806,0,0,0,.48.276.83.83,0,0,0,.556-.092c.038-.029.077-.057.117-.082a.8.8,0,0,0,.233-.328.821.821,0,0,0,.037-.479l-2.239-12.741-.024-.153c-.014-.057-.026-.1-.04-.143h0a1.177,1.177,0,0,0-.059-.141,1.333,1.333,0,0,1-.056-.144l-6.829-17.091a1.26,1.26,0,0,1,2.343-.929l6.827,17.086a4.185,4.185,0,0,1,.165.408h0v.005a3.662,3.662,0,0,1,.12.425l.029.149c.617,4.207,1.5,8.561,2.243,12.768a3.33,3.33,0,0,1-1.36,3.414l0,0a3.325,3.325,0,0,1-4.646-.822l0,0a3.234,3.234,0,0,1-.333-.589l0,0a3.155,3.155,0,0,1-.183-.539l-3.1-12.189Z" transform="translate(-2748.576 -1436.132)" fill="#143d66" fill-rule="evenodd"/>
  <path id="Tracé_14969" data-name="Tracé 14969" d="M2825.217,1457.314h-5.628l-.412,5.351a1.015,1.015,0,0,0-.014.166,1.612,1.612,0,0,0,.95,1.322,5.059,5.059,0,0,0,4.58,0,1.611,1.611,0,0,0,.951-1.322.974.974,0,0,0-.013-.166Z" transform="translate(-2750.766 -1438.395)" fill="#fff" fill-rule="evenodd"/>
  <path id="Tracé_14970" data-name="Tracé 14970" d="M2824.4,1458.937h-3.287c-.029.37-.333,4.224-.325,4.232h0a.976.976,0,0,0,.307.249,3.842,3.842,0,0,0,3.315,0l.056-.029a.866.866,0,0,0,.25-.22l.008-.006-.327-4.225Zm-4.459-2.533h5.628a1.264,1.264,0,0,1,1.26,1.172l.411,5.3a2.274,2.274,0,0,1,.022.314h-.006a2.466,2.466,0,0,1-.406,1.339,1.024,1.024,0,0,1-.073.113,3.4,3.4,0,0,1-1.018.912l-.079.052a6.294,6.294,0,0,1-5.848,0,3.483,3.483,0,0,1-1.1-.964h0a2.46,2.46,0,0,1-.483-1.45h-.005a2.085,2.085,0,0,1,.023-.314l.4-5.24a1.268,1.268,0,0,1,1.265-1.231Zm4.793,6.785" transform="translate(-2751.124 -1438.753)" fill="#143d66" fill-rule="evenodd"/>
  <path id="Tracé_14971" data-name="Tracé 14971" d="M2823.088,1446.859c3.038,0,5.92,2.435,5.648,5.485l-.6,6.691c-.25,2.817-1.79,5.484-5.032,5.484-3.107,0-4.749-2.48-5.033-5.484l-.631-6.691C2817.157,1449.339,2819.981,1446.859,2823.088,1446.859Z" transform="translate(-2751.452 -1442.505)" fill="#fff" fill-rule="evenodd"/>
  <path id="Tracé_14972" data-name="Tracé 14972" d="M2823.445,1445.951c.169,0,.379.011.621.033a7.339,7.339,0,0,1,4.349,1.953,6,6,0,0,1,1.962,4.364c0,.131-.01.3-.029.507l-.6,6.693a8.139,8.139,0,0,1-1.926,4.783,6.047,6.047,0,0,1-8.725,0,8.117,8.117,0,0,1-1.928-4.768l-.631-6.693c-.019-.209-.03-.386-.03-.533a5.99,5.99,0,0,1,1.923-4.323,7.316,7.316,0,0,1,4.342-1.975c.251-.024.476-.036.67-.036Zm.4,2.545c-.1-.01-.231-.012-.4-.012s-.32,0-.434.015a4.758,4.758,0,0,0-2.828,1.283,3.479,3.479,0,0,0-1.14,2.5c0,.129,0,.228.01.3l.631,6.693a5.629,5.629,0,0,0,1.275,3.294,3.534,3.534,0,0,0,5.007,0,5.606,5.606,0,0,0,1.272-3.288l.6-6.691c0-.062.006-.158.006-.291a3.5,3.5,0,0,0-1.159-2.534A4.789,4.789,0,0,0,2823.849,1448.5Z" transform="translate(-2751.81 -1442.863)" fill="#143d66" fill-rule="evenodd"/>
  <path id="Tracé_14973" data-name="Tracé 14973" d="M2826.5,1523.77l-6.351,3.9a1.554,1.554,0,0,0,.917,1.279,4.533,4.533,0,0,0,2.214.529l7.2-3.378a1.936,1.936,0,0,0,.8-.791,1.263,1.263,0,0,0,.088-.267C2828.906,1525.4,2827.625,1525.227,2826.5,1523.77Z" transform="translate(-2750.378 -1412.265)" fill="#00cef0" fill-rule="evenodd"/>
  <path id="Tracé_14974" data-name="Tracé 14974" d="M2826.646,1525.738l-4.272,2.624a3.216,3.216,0,0,0,.356.108,3.619,3.619,0,0,0,.651.092l4.464-2.094a4.153,4.153,0,0,1-1.2-.729Zm-6.8,1.211,6.351-3.9a1.265,1.265,0,0,1,1.657.307,2.11,2.11,0,0,0,1.22.855,6.949,6.949,0,0,0,2.416-.055,1.263,1.263,0,0,1,1.474,1.485,2.1,2.1,0,0,1-.074.283,2.22,2.22,0,0,1-.118.286,2.742,2.742,0,0,1-.563.781,3.638,3.638,0,0,1-.707.535,1.426,1.426,0,0,1-.135.073l-7.095,3.329a1.256,1.256,0,0,1-.638.172,6.489,6.489,0,0,1-1.491-.177,5.1,5.1,0,0,1-1.356-.525h0a3.438,3.438,0,0,1-1.075-.939l0,0a2.436,2.436,0,0,1-.478-1.428h0A1.264,1.264,0,0,1,2819.849,1526.949Z" transform="translate(-2750.735 -1412.621)" fill="#143d66" fill-rule="evenodd"/>
  <path id="Tracé_14975" data-name="Tracé 14975" d="M2819.967,1462.73a1.261,1.261,0,1,1,2.5.326c-.285,2.187-.467,3.6-.539,4.87a25.548,25.548,0,0,0,.123,4.011,1.261,1.261,0,0,1-2.512.228,27.968,27.968,0,0,1-.133-4.377C2819.482,1466.453,2819.67,1464.993,2819.967,1462.73Z" transform="translate(-2750.684 -1436.698)" fill="#143d66" fill-rule="evenodd"/>
  <path id="Tracé_14976" data-name="Tracé 14976" d="M2824.735,1456.145l.055,4.9c.011,1.116,1.791,2.828,2.588,2.809l3.5.04-.122-8.982c-.069-5.149-2.541-9.323-7.249-9.323s-7.577,3.561-7.221,8.7c.017.249.036.482.058.7.191,1.879.4,3.317,2.184,4.548l-.632-6.691-.014-.646,1.328.763Z" transform="translate(-2751.909 -1443.004)" fill="#00cef0" fill-rule="evenodd"/>
  <path id="Tracé_14977" data-name="Tracé 14977" d="M2826.353,1456.491l.054,4.9a2.183,2.183,0,0,0,.65.968,3.471,3.471,0,0,0,.659.594l2.242.024-.1-7.691a10.122,10.122,0,0,0-1.788-6.053,5.117,5.117,0,0,0-4.2-2.02c-.2,0-.381.007-.536.017a5.512,5.512,0,0,0-3.963,1.9,6.039,6.039,0,0,0-1.138,2.162,1.264,1.264,0,0,1,.68.191l6.813,3.926a1.26,1.26,0,0,1,.633,1.082Zm-2.466,4.921-.047-4.178-4.165-2.4.464,4.918a1.261,1.261,0,0,1-1.971,1.177,5.588,5.588,0,0,1-2.144-2.6,10.415,10.415,0,0,1-.578-2.864l-.036-.358-.027-.38c-.023-.336-.034-.646-.034-.93a9.621,9.621,0,0,1,2.078-6.291,8,8,0,0,1,5.732-2.8c.25-.016.486-.026.7-.026a7.558,7.558,0,0,1,6.2,3,12.636,12.636,0,0,1,2.313,7.576l.121,9.006a1.259,1.259,0,0,1-1.269,1.251l-3.489-.039a4.032,4.032,0,0,1-2.5-1.362,4.378,4.378,0,0,1-1.352-2.672Z" transform="translate(-2752.266 -1443.361)" fill="#143d66" fill-rule="evenodd"/>
</svg>
