<svg xmlns="http://www.w3.org/2000/svg" width="17.382" height="9.582" viewBox="0 0 17.382 9.582">
  <path id="Icon_ionic-ios-arrow-round-forward" data-name="Icon ionic-ios-arrow-round-forward" d="M15.875,11.415a.58.58,0,0,0,0,.817l2.7,2.7-13.875,0a.577.577,0,0,0,0,1.154l13.87,0-2.7,2.7a.584.584,0,0,0,0,.817.575.575,0,0,0,.812,0l3.657-3.683h0a.648.648,0,0,0,.12-.182.551.551,0,0,0,.044-.222.578.578,0,0,0-.164-.4l-3.657-3.683A.565.565,0,0,0,15.875,11.415Z" transform="translate(-3.622 -10.752)" fill="#143d66" stroke="#143d66" stroke-width="1"/>
</svg>
