<svg xmlns="http://www.w3.org/2000/svg" width="55.541" height="79.989" viewBox="0 0 55.541 79.989">
  <g id="Groupe_2244" data-name="Groupe 2244" transform="translate(-866.496 -480.379)">
    <g id="Groupe_1736" data-name="Groupe 1736" transform="translate(867.496 481.379)">
      <g id="Groupe_1820" data-name="Groupe 1820" transform="translate(0)">
        <g id="Groupe_1734" data-name="Groupe 1734" transform="translate(0)">
          <g id="Groupe_1697" data-name="Groupe 1697" transform="translate(7.584 17.438)">
            <path id="Tracé_18947" data-name="Tracé 18947" d="M-783.015,1635.676l.218-.037.087-.014a18.132,18.132,0,0,1,2.728-.187h.9c.577,0,1.14.023,1.683.072.295.026.584.058.866.1.136.02.27.041.4.066a9.463,9.463,0,0,1,1.782.486,6.5,6.5,0,0,1,.946.455,4.864,4.864,0,0,1,2.385,4.549.2.2,0,0,1-.2.2h-16.711a.2.2,0,0,1-.142-.059.2.2,0,0,1-.058-.141C-788.128,1637.745-786.012,1636.212-783.015,1635.676Z" transform="translate(788.128 -1624.691)" fill="#143d66" stroke="#143d66" stroke-linecap="round" stroke-linejoin="round" stroke-width="2.451"/>
            <ellipse id="Ellipse_33" data-name="Ellipse 33" cx="4.109" cy="4.109" rx="4.109" ry="4.109" transform="translate(3.318 7.755) rotate(-70.67)" fill="#143d66" stroke="#143d66" stroke-linecap="round" stroke-linejoin="round" stroke-width="2.451"/>
          </g>
          <g id="Groupe_1733" data-name="Groupe 1733">
            <g id="Groupe_1731" data-name="Groupe 1731" transform="translate(0 8.383)">
              <g id="Groupe_1699" data-name="Groupe 1699">
                <g id="Groupe_1698" data-name="Groupe 1698">
                  <path id="Tracé_18948" data-name="Tracé 18948" d="M-763.253,1589.777H-752.3a5.184,5.184,0,0,1,5.184,5.184V1654.2a5.184,5.184,0,0,1-5.184,5.184H-795.47a5.183,5.183,0,0,1-5.184-5.184v-59.238a5.183,5.183,0,0,1,5.184-5.184h10.956" transform="translate(800.654 -1589.777)" fill="none" stroke="#143d66" stroke-linecap="round" stroke-linejoin="round" stroke-width="2"/>
                </g>
              </g>
              <g id="Groupe_1730" data-name="Groupe 1730" transform="translate(4.867 11.445)">
                <g id="Groupe_1704" data-name="Groupe 1704" transform="translate(0 19.958)">
                  <g id="Groupe_1701" data-name="Groupe 1701" transform="translate(0 5.166)">
                    <g id="Groupe_1700" data-name="Groupe 1700">
                      <path id="Tracé_18949" data-name="Tracé 18949" d="M-758.431,1671.146h-30.816a.787.787,0,0,1-.787-.787.787.787,0,0,1,.787-.787h30.816a.787.787,0,0,1,.787.787A.787.787,0,0,1-758.431,1671.146Z" transform="translate(790.034 -1669.572)" fill="#143d66"/>
                    </g>
                  </g>
                  <g id="Groupe_1703" data-name="Groupe 1703" transform="translate(33.919)">
                    <g id="Groupe_1702" data-name="Groupe 1702">
                      <path id="Tracé_18950" data-name="Tracé 18950" d="M-707.048,1658.466a.5.5,0,0,0-.708-.037l-5.3,4.762-2.576-1.642a.256.256,0,0,0-.3.02.257.257,0,0,0-.031.362l2.457,2.914a.791.791,0,0,0,.057.06.715.715,0,0,0,1.011-.032l.056-.06,5.324-5.67A.5.5,0,0,0-707.048,1658.466Z" transform="translate(716.022 -1658.301)" fill="#143d66"/>
                    </g>
                  </g>
                </g>
                <g id="Groupe_1707" data-name="Groupe 1707" transform="translate(27.444)">
                  <g id="Groupe_1706" data-name="Groupe 1706">
                    <g id="Groupe_1705" data-name="Groupe 1705">
                      <path id="Tracé_18951" data-name="Tracé 18951" d="M-715.8,1615.538h-14a.377.377,0,0,1-.357-.393.376.376,0,0,1,.357-.394h14a.377.377,0,0,1,.358.394A.377.377,0,0,1-715.8,1615.538Z" transform="translate(730.15 -1614.751)" fill="#143d66"/>
                    </g>
                  </g>
                </g>
                <g id="Groupe_1710" data-name="Groupe 1710" transform="translate(27.444 3.239)">
                  <g id="Groupe_1709" data-name="Groupe 1709">
                    <g id="Groupe_1708" data-name="Groupe 1708">
                      <path id="Tracé_18952" data-name="Tracé 18952" d="M-715.8,1622.605h-14a.377.377,0,0,1-.357-.394.377.377,0,0,1,.357-.394h14a.377.377,0,0,1,.358.394A.377.377,0,0,1-715.8,1622.605Z" transform="translate(730.15 -1621.818)" fill="#143d66"/>
                    </g>
                  </g>
                </g>
                <g id="Groupe_1713" data-name="Groupe 1713" transform="translate(27.444 6.477)">
                  <g id="Groupe_1712" data-name="Groupe 1712">
                    <g id="Groupe_1711" data-name="Groupe 1711">
                      <path id="Tracé_18953" data-name="Tracé 18953" d="M-715.8,1629.672h-14a.377.377,0,0,1-.357-.394.377.377,0,0,1,.357-.394h14a.377.377,0,0,1,.358.394A.377.377,0,0,1-715.8,1629.672Z" transform="translate(730.15 -1628.885)" fill="#143d66"/>
                    </g>
                  </g>
                </g>
                <g id="Groupe_1716" data-name="Groupe 1716" transform="translate(27.444 9.716)">
                  <g id="Groupe_1715" data-name="Groupe 1715">
                    <g id="Groupe_1714" data-name="Groupe 1714">
                      <path id="Tracé_18954" data-name="Tracé 18954" d="M-715.8,1636.739h-14a.377.377,0,0,1-.357-.394.377.377,0,0,1,.357-.394h14a.377.377,0,0,1,.358.394A.377.377,0,0,1-715.8,1636.739Z" transform="translate(730.15 -1635.952)" fill="#143d66"/>
                    </g>
                  </g>
                </g>
                <g id="Groupe_1719" data-name="Groupe 1719" transform="translate(27.444 12.955)">
                  <g id="Groupe_1718" data-name="Groupe 1718">
                    <g id="Groupe_1717" data-name="Groupe 1717">
                      <path id="Tracé_18955" data-name="Tracé 18955" d="M-715.8,1643.807h-14a.377.377,0,0,1-.357-.394.376.376,0,0,1,.357-.393h14a.377.377,0,0,1,.358.393A.377.377,0,0,1-715.8,1643.807Z" transform="translate(730.15 -1643.02)" fill="#143d66"/>
                    </g>
                  </g>
                </g>
                <g id="Groupe_1724" data-name="Groupe 1724" transform="translate(0 30.718)">
                  <g id="Groupe_1721" data-name="Groupe 1721" transform="translate(0 5.166)">
                    <g id="Groupe_1720" data-name="Groupe 1720">
                      <path id="Tracé_18956" data-name="Tracé 18956" d="M-758.431,1694.624h-30.816a.787.787,0,0,1-.787-.787.787.787,0,0,1,.787-.787h30.816a.787.787,0,0,1,.787.787A.787.787,0,0,1-758.431,1694.624Z" transform="translate(790.034 -1693.05)" fill="#143d66"/>
                    </g>
                  </g>
                  <g id="Groupe_1723" data-name="Groupe 1723" transform="translate(33.919)">
                    <g id="Groupe_1722" data-name="Groupe 1722">
                      <path id="Tracé_18957" data-name="Tracé 18957" d="M-707.048,1681.945a.5.5,0,0,0-.708-.038l-5.3,4.762-2.576-1.642a.257.257,0,0,0-.3.02.257.257,0,0,0-.031.362l2.457,2.914c.018.021.037.041.057.06a.716.716,0,0,0,1.011-.032l.056-.06,5.324-5.669A.5.5,0,0,0-707.048,1681.945Z" transform="translate(716.022 -1681.779)" fill="#143d66"/>
                    </g>
                  </g>
                </g>
                <g id="Groupe_1729" data-name="Groupe 1729" transform="translate(0 41.478)">
                  <g id="Groupe_1726" data-name="Groupe 1726" transform="translate(0 5.166)">
                    <g id="Groupe_1725" data-name="Groupe 1725">
                      <path id="Tracé_18958" data-name="Tracé 18958" d="M-758.431,1718.1h-30.816a.787.787,0,0,1-.787-.787.787.787,0,0,1,.787-.787h30.816a.787.787,0,0,1,.787.787A.787.787,0,0,1-758.431,1718.1Z" transform="translate(790.034 -1716.529)" fill="#143d66"/>
                    </g>
                  </g>
                  <g id="Groupe_1728" data-name="Groupe 1728" transform="translate(33.919)">
                    <g id="Groupe_1727" data-name="Groupe 1727">
                      <path id="Tracé_18959" data-name="Tracé 18959" d="M-707.048,1705.423a.5.5,0,0,0-.708-.038l-5.3,4.763-2.576-1.642a.256.256,0,0,0-.3.02.256.256,0,0,0-.031.361l2.457,2.914a.714.714,0,0,0,.057.06.716.716,0,0,0,1.011-.031l.056-.06,5.324-5.669A.5.5,0,0,0-707.048,1705.423Z" transform="translate(716.022 -1705.257)" fill="#143d66"/>
                    </g>
                  </g>
                </g>
              </g>
            </g>
            <g id="Groupe_1732" data-name="Groupe 1732" transform="translate(16.14)">
              <path id="Tracé_18960" data-name="Tracé 18960" d="M-747.018,1577.025h-.36v-1.475a4.065,4.065,0,0,0-4.065-4.065h-6.725a4.066,4.066,0,0,0-4.065,4.065v1.475h-.36a2.843,2.843,0,0,0-2.843,2.843,2.843,2.843,0,0,0,2.843,2.843h15.576a2.843,2.843,0,0,0,2.843-2.843A2.843,2.843,0,0,0-747.018,1577.025Z" transform="translate(765.437 -1571.485)" fill="#143d66" stroke="#143d66" stroke-linecap="round" stroke-linejoin="round" stroke-width="2"/>
            </g>
          </g>
        </g>
      </g>
    </g>
  </g>
</svg>
