<svg xmlns="http://www.w3.org/2000/svg" width="25.072" height="23.796" viewBox="0 0 25.072 23.796">
  <g id="Groupe_2240" data-name="Groupe 2240" transform="translate(-1615.334 -254.303)">
    <path id="Icon_ionic-md-timer" data-name="Icon ionic-md-timer" d="M14.519,21.886a1.394,1.394,0,1,0,1.392-1.321A1.363,1.363,0,0,0,14.519,21.886Zm0-18.511V8.661H17.3V6.126a9.42,9.42,0,0,1,8.359,9.147,9.506,9.506,0,0,1-9.751,9.255,9.506,9.506,0,0,1-9.751-9.255,8.876,8.876,0,0,1,2.2-5.846l7.552,7.168,1.965-1.865L8.4,5.743v.029a11.634,11.634,0,0,0-5.026,9.5c0,6.573,5.6,11.9,12.536,11.9s12.536-5.326,12.536-11.9-5.611-11.9-12.536-11.9Zm9.751,11.9a1.394,1.394,0,1,0-1.392,1.321A1.363,1.363,0,0,0,24.27,15.273Zm-16.718,0a1.394,1.394,0,1,0,1.392-1.321A1.363,1.363,0,0,0,7.552,15.273Z" transform="translate(1611.959 250.928)" fill="#04c38f"/>
  </g>
</svg>
