<svg xmlns="http://www.w3.org/2000/svg" width="77.842" height="66.506" viewBox="0 0 77.842 66.506">
  <g id="Groupe_2240" data-name="Groupe 2240" transform="translate(-331.497 -339.008)">
    <g id="Groupe_1687" data-name="Groupe 1687" transform="translate(332.5 340.008)">
      <g id="Groupe_1685" data-name="Groupe 1685" transform="translate(30.373 0)">
        <path id="Tracé_18938" data-name="Tracé 18938" d="M-730.028-13.409h-26.263a4.179,4.179,0,0,0-4.222,4.135V5.582a4.179,4.179,0,0,0,4.222,4.135h1.622V12.6a1.466,1.466,0,0,0,2.469,1.039l4.22-3.922h17.952a4.179,4.179,0,0,0,4.222-4.135V-9.274A4.179,4.179,0,0,0-730.028-13.409Z" transform="translate(760.513 13.409)" fill="none" stroke="#143d66" stroke-linecap="round" stroke-linejoin="round" stroke-width="2"/>
      </g>
      <g id="Groupe_1686" data-name="Groupe 1686" transform="translate(39.688 27.232)">
        <path id="Tracé_18939" data-name="Tracé 18939" d="M-734.865,148.859c.152-.027.305-.053.461-.078.06-.01.122-.02.183-.028a38.244,38.244,0,0,1,5.763-.4h1.888l.015,0c1.219,0,2.408.05,3.556.152.623.054,1.234.123,1.83.212.287.042.57.087.85.138a20.041,20.041,0,0,1,3.764,1.028,13.632,13.632,0,0,1,2,.962c3.114,1.839,5.039,4.865,5.039,9.609a.423.423,0,0,1-.423.424h-35.3a.424.424,0,0,1-.3-.125.419.419,0,0,1-.123-.3C-745.667,153.231-741.2,149.992-734.865,148.859Z" transform="translate(745.667 -125.652)" fill="none" stroke="#143d66" stroke-linecap="round" stroke-linejoin="round" stroke-width="2"/>
        <ellipse id="Ellipse_29" data-name="Ellipse 29" cx="8.681" cy="8.681" rx="8.681" ry="8.681" transform="translate(7.01 16.383) rotate(-70.67)" fill="none" stroke="#143d66" stroke-linecap="round" stroke-linejoin="round" stroke-width="2"/>
      </g>
      <path id="Tracé_18940" data-name="Tracé 18940" d="M-879.414,35.628a15.716,15.716,0,0,1,10.04,1.363,16.28,16.28,0,0,1,7.362,7.565,12.893,12.893,0,0,1,1.036,4.166c.1.817.188,1.636.285,2.453a2.056,2.056,0,0,0,.108.427q.933,2.36,1.869,4.721l.97,2.447c.267.673.728,1.688.169,2.364a1.2,1.2,0,0,1-.98.433c-.69,0-1.379,0-2.1,0-.005.121-.014.223-.014.326,0,1.361,0,2.723,0,4.085a6.261,6.261,0,0,1-6.355,6.334h-2.408v2.812a.956.956,0,0,1-.958.956c-5.04-.021-10.064-.2-15.119-.217a.952.952,0,0,1-.951-.951c0-2.165,0-7.537.006-10.91a.728.728,0,0,0-.263-.558A15.627,15.627,0,0,1-892.5,52.316,15.883,15.883,0,0,1-879.414,35.628Z" transform="translate(892.546 -11.574)" fill="none" stroke="#143d66" stroke-linecap="round" stroke-linejoin="round" stroke-width="2"/>
    </g>
  </g>
</svg>
