<svg xmlns="http://www.w3.org/2000/svg" width="70.038" height="72.512" viewBox="0 0 70.038 72.512">
  <g id="Groupe_1696" data-name="Groupe 1696" transform="translate(1 1)">
    <g id="Groupe_1688" data-name="Groupe 1688" transform="translate(31.241 0)">
      <path id="Tracé_18941" data-name="Tracé 18941" d="M-471.983,1804.206H-483.7a1.883,1.883,0,0,0-1.883,1.883v6.766a1.883,1.883,0,0,0,1.883,1.883h.724v1.313a.652.652,0,0,0,1.1.473l1.882-1.786h8.008a1.883,1.883,0,0,0,1.883-1.883v-6.766A1.883,1.883,0,0,0-471.983,1804.206Z" transform="translate(485.581 -1804.206)" fill="none" stroke="#143d66" stroke-linecap="round" stroke-linejoin="round" stroke-width="2"/>
    </g>
    <g id="Groupe_1689" data-name="Groupe 1689" transform="translate(43.966 13.867)">
      <path id="Tracé_18942" data-name="Tracé 18942" d="M-448.708,1849.318h8.74a1.405,1.405,0,0,1,1.405,1.405v5.048a1.405,1.405,0,0,1-1.405,1.4h-.54v.979a.487.487,0,0,1-.822.353l-1.4-1.332h-5.974a1.4,1.4,0,0,1-1.4-1.4v-5.048A1.4,1.4,0,0,1-448.708,1849.318Z" transform="translate(450.113 -1849.318)" fill="none" stroke="#143d66" stroke-linecap="round" stroke-linejoin="round" stroke-width="2"/>
    </g>
    <g id="Groupe_1690" data-name="Groupe 1690" transform="translate(10.571 11.414)">
      <path id="Tracé_18943" data-name="Tracé 18943" d="M-536.212,1840.6h-10.949a1.613,1.613,0,0,0-1.76,1.4v5.048a1.613,1.613,0,0,0,1.76,1.405h.676v.979c0,.427.641.647,1.029.353l1.759-1.333h7.484a1.613,1.613,0,0,0,1.76-1.405V1842A1.613,1.613,0,0,0-536.212,1840.6Z" transform="translate(548.922 -1840.596)" fill="none" stroke="#143d66" stroke-linecap="round" stroke-linejoin="round" stroke-width="2"/>
    </g>
    <g id="Groupe_1691" data-name="Groupe 1691" transform="translate(1.648 21.02)">
      <ellipse id="Ellipse_30" data-name="Ellipse 30" cx="5.252" cy="5.252" rx="5.252" ry="5.252" fill="none" stroke="#143d66" stroke-linecap="round" stroke-linejoin="round" stroke-width="2"/>
    </g>
    <path id="Tracé_18944" data-name="Tracé 18944" d="M-556.755,1924.973h-8.015a1.206,1.206,0,0,1-1.207-1.206c0-3.88,0-8.123.007-10.89a2.815,2.815,0,0,0-2.548-3.024h-3.576c-3.328,0-6.026,3.2-6.026,7.147v11.964c0,2.131,1.457,3.859,3.253,3.859h14.193a1.141,1.141,0,0,1,1.141,1.141v10.21a1.578,1.578,0,0,0,1.579,1.578h3a1.578,1.578,0,0,0,1.579-1.578v-15.822A3.379,3.379,0,0,0-556.755,1924.973Z" transform="translate(578.12 -1875.736)" fill="none" stroke="#143d66" stroke-linecap="round" stroke-linejoin="round" stroke-width="2"/>
    <g id="Groupe_1692" data-name="Groupe 1692" transform="translate(55.884 21.02)">
      <ellipse id="Ellipse_31" data-name="Ellipse 31" cx="5.252" cy="5.252" rx="5.252" ry="5.252" fill="none" stroke="#143d66" stroke-linecap="round" stroke-linejoin="round" stroke-width="2"/>
    </g>
    <path id="Tracé_18945" data-name="Tracé 18945" d="M-448.7,1924.973h8.015a1.206,1.206,0,0,0,1.207-1.206c0-3.88,0-8.123-.007-10.89a2.815,2.815,0,0,1,2.548-3.024h3.577c3.328,0,6.026,3.2,6.026,7.147v11.964c0,2.131-1.457,3.859-3.253,3.859h-14.193a1.142,1.142,0,0,0-1.141,1.141v10.21a1.578,1.578,0,0,1-1.579,1.578h-3a1.578,1.578,0,0,1-1.579-1.578v-15.822A3.379,3.379,0,0,1-448.7,1924.973Z" transform="translate(495.368 -1875.736)" fill="none" stroke="#143d66" stroke-linecap="round" stroke-linejoin="round" stroke-width="2"/>
    <g id="Groupe_1695" data-name="Groupe 1695" transform="translate(24.439 14.991)">
      <g id="Groupe_1693" data-name="Groupe 1693" transform="translate(0 12.974)">
        <path id="Tracé_18946" data-name="Tracé 18946" d="M-495.3,1891.944h-4.172a7.493,7.493,0,0,0-7.493,7.493v12.542a4.046,4.046,0,0,0,4.045,4.046h.257V1931.5a2.993,2.993,0,0,0,2.993,2.993h4.567a2.993,2.993,0,0,0,2.993-2.993v-15.472h.257a4.046,4.046,0,0,0,4.045-4.046v-12.542A7.493,7.493,0,0,0-495.3,1891.944Z" transform="translate(506.965 -1891.944)" fill="none" stroke="#143d66" stroke-linecap="round" stroke-linejoin="round" stroke-width="2"/>
      </g>
      <g id="Groupe_1694" data-name="Groupe 1694" transform="translate(4.073)">
        <ellipse id="Ellipse_32" data-name="Ellipse 32" cx="5.506" cy="5.506" rx="5.506" ry="5.506" fill="none" stroke="#143d66" stroke-linecap="round" stroke-linejoin="round" stroke-width="2"/>
      </g>
    </g>
    <path id="Tracé_18970" data-name="Tracé 18970" d="M2.833,0H30.677c1.565,0,2.833.642,2.833,1.435S32.242,2.87,30.677,2.87H2.833C1.269,2.87,0,2.227,0,1.435S1.269,0,2.833,0Z" transform="translate(17.263 41.317)" fill="#fff" stroke="#143d66" stroke-linecap="round" stroke-width="2"/>
  </g>
</svg>
