<svg id="free" xmlns="http://www.w3.org/2000/svg" width="107.067" height="107.067" viewBox="0 0 107.067 107.067">
  <g id="Groupe_2091" data-name="Groupe 2091" transform="translate(18.62 41.896)">
    <g id="Groupe_2090" data-name="Groupe 2090">
      <path id="Tracé_19293" data-name="Tracé 19293" d="M96.971,192h-9.31a2.329,2.329,0,0,0-2.328,2.328v18.62a2.328,2.328,0,1,0,4.655,0V196.655h6.983a2.328,2.328,0,1,0,0-4.655Z" transform="translate(-85.333 -192)" fill="#04c38f" stroke="#143d66" stroke-width="1"/>
    </g>
  </g>
  <g id="Groupe_2093" data-name="Groupe 2093" transform="translate(18.62 51.206)">
    <g id="Groupe_2092" data-name="Groupe 2092">
      <path id="Tracé_19294" data-name="Tracé 19294" d="M92.316,234.667H87.661a2.328,2.328,0,1,0,0,4.655h4.655a2.328,2.328,0,1,0,0-4.655Z" transform="translate(-85.333 -234.667)" fill="#04c38f" stroke="#143d66" stroke-width="1"/>
    </g>
  </g>
  <g id="Groupe_2095" data-name="Groupe 2095">
    <g id="Groupe_2094" data-name="Groupe 2094">
      <path id="Tracé_19295" data-name="Tracé 19295" d="M53.534,0a53.534,53.534,0,1,0,53.534,53.534A53.6,53.6,0,0,0,53.534,0Zm0,102.412a48.879,48.879,0,1,1,48.879-48.879A48.932,48.932,0,0,1,53.534,102.412Z" fill="#143d66"/>
    </g>
  </g>
  <g id="Groupe_2097" data-name="Groupe 2097" transform="translate(22.161 13.965)">
    <g id="Groupe_2096" data-name="Groupe 2096">
      <path id="Tracé_19296" data-name="Tracé 19296" d="M163.791,78.836a39.511,39.511,0,0,0-61.718,0A2.326,2.326,0,1,0,105.7,81.75a34.859,34.859,0,0,1,54.46,0,2.328,2.328,0,0,0,3.631-2.914Z" transform="translate(-101.56 -64)" fill="#143d66"/>
    </g>
  </g>
  <g id="Groupe_2099" data-name="Groupe 2099" transform="translate(24.208 76.808)">
    <g id="Groupe_2098" data-name="Groupe 2098">
      <path id="Tracé_19297" data-name="Tracé 19297" d="M168.867,352.633a2.329,2.329,0,0,0-3.286.088,34.815,34.815,0,0,1-50.624,0,2.326,2.326,0,1,0-3.375,3.2,39.462,39.462,0,0,0,57.374,0A2.326,2.326,0,0,0,168.867,352.633Z" transform="translate(-110.941 -351.994)" fill="#143d66"/>
    </g>
  </g>
  <g id="Groupe_2101" data-name="Groupe 2101" transform="translate(37.241 41.896)">
    <g id="Groupe_2100" data-name="Groupe 2100">
      <path id="Tracé_19298" data-name="Tracé 19298" d="M178.552,205.9a6.982,6.982,0,0,0-.9-13.9h-4.655a2.329,2.329,0,0,0-2.328,2.328v18.62a2.328,2.328,0,1,0,4.655,0v-3.691l5.335,5.339a2.338,2.338,0,0,0,1.648.68,2.3,2.3,0,0,0,1.643-.684,2.329,2.329,0,0,0,0-3.291Zm-3.231-4.595v-4.655h2.328a2.328,2.328,0,1,1,0,4.655h-2.328Z" transform="translate(-170.666 -192)" fill="#04c38f" stroke="#143d66" stroke-width="1"/>
    </g>
  </g>
  <g id="Groupe_2103" data-name="Groupe 2103" transform="translate(55.861 41.896)">
    <g id="Groupe_2102" data-name="Groupe 2102">
      <path id="Tracé_19299" data-name="Tracé 19299" d="M267.637,210.62h-6.983V196.655h6.983a2.328,2.328,0,1,0,0-4.655h-9.31A2.329,2.329,0,0,0,256,194.328v18.62a2.329,2.329,0,0,0,2.328,2.328h9.31a2.328,2.328,0,1,0,0-4.655Z" transform="translate(-255.999 -192)" fill="#04c38f" stroke="#143d66" stroke-width="1"/>
    </g>
  </g>
  <g id="Groupe_2105" data-name="Groupe 2105" transform="translate(55.861 51.206)">
    <g id="Groupe_2104" data-name="Groupe 2104">
      <path id="Tracé_19300" data-name="Tracé 19300" d="M262.983,234.667h-4.655a2.328,2.328,0,1,0,0,4.655h4.655a2.328,2.328,0,1,0,0-4.655Z" transform="translate(-256 -234.667)" fill="#04c38f" stroke="#143d66" stroke-width="1"/>
    </g>
  </g>
  <g id="Groupe_2107" data-name="Groupe 2107" transform="translate(74.482 41.896)">
    <g id="Groupe_2106" data-name="Groupe 2106">
      <path id="Tracé_19301" data-name="Tracé 19301" d="M352.971,210.62h-6.983V196.655h6.983a2.328,2.328,0,1,0,0-4.655h-9.31a2.329,2.329,0,0,0-2.328,2.328v18.62a2.329,2.329,0,0,0,2.328,2.328h9.31a2.328,2.328,0,0,0,0-4.655Z" transform="translate(-341.333 -192)" fill="#04c38f" stroke="#143d66" stroke-width="1"/>
    </g>
  </g>
  <g id="Groupe_2109" data-name="Groupe 2109" transform="translate(74.482 51.206)">
    <g id="Groupe_2108" data-name="Groupe 2108">
      <path id="Tracé_19302" data-name="Tracé 19302" d="M348.316,234.667h-4.655a2.328,2.328,0,1,0,0,4.655h4.655a2.328,2.328,0,1,0,0-4.655Z" transform="translate(-341.333 -234.667)" fill="#04c38f" stroke="#143d66" stroke-width="1"/>
    </g>
  </g>
</svg>
