<svg id="Groupe_1421" data-name="Groupe 1421" xmlns="http://www.w3.org/2000/svg" width="130.106" height="332.103" viewBox="0 0 130.106 332.103">
  <path id="Tracé_15606" data-name="Tracé 15606" d="M2725.182,1385.944a3.314,3.314,0,0,0,0-6.28,11.979,11.979,0,0,0-10.879,0l-14.3,8.254a3.314,3.314,0,0,0,0,6.28,12.007,12.007,0,0,0,10.876,0Z" transform="translate(-2664.287 -1083.327)" fill="#01e3a6" fill-rule="evenodd"/>
  <path id="Tracé_15607" data-name="Tracé 15607" d="M2725.734,1385.428a2.486,2.486,0,0,0,.752-.621l.02-.029-.013-.016-.007.007a2.484,2.484,0,0,0-.752-.628h-.014a6.431,6.431,0,0,0-1.711-.656,10.586,10.586,0,0,0-4.561,0,6.417,6.417,0,0,0-1.712.656l-.163.089-14.15,8.172a2.4,2.4,0,0,0-.75.621l-.02.028.01.017.01-.006a2.392,2.392,0,0,0,.759.624l.118.071a6.817,6.817,0,0,0,1.6.589,10.735,10.735,0,0,0,4.561,0,6.456,6.456,0,0,0,1.723-.659l14.3-8.257Zm5.451,2.741a8.05,8.05,0,0,1-2.581,2.255l-14.3,8.259a12.254,12.254,0,0,1-3.256,1.266,15.5,15.5,0,0,1-7.229,0,12.618,12.618,0,0,1-3.08-1.162l-.195-.1a8.222,8.222,0,0,1-2.573-2.255l.01,0a5.582,5.582,0,0,1-.175-6.509c.05-.087.107-.175.165-.261a8.24,8.24,0,0,1,2.587-2.251l14.135-8.163.155-.092a12.315,12.315,0,0,1,3.267-1.271,15.547,15.547,0,0,1,7.229,0,12.444,12.444,0,0,1,3.275,1.271l0,.006a8.135,8.135,0,0,1,2.572,2.246l-.007.006a5.752,5.752,0,0,1,1.136,3.378,5.659,5.659,0,0,1-.963,3.127A1.951,1.951,0,0,1,2731.185,1388.169Z" transform="translate(-2666.272 -1085.31)" fill="#fff" fill-rule="evenodd"/>
  <path id="Tracé_15608" data-name="Tracé 15608" d="M2734.65,1391.29a3.312,3.312,0,0,0,0-6.277,12,12,0,0,0-10.878,0l-14.3,8.255a3.316,3.316,0,0,0,0,6.282,12.033,12.033,0,0,0,10.878,0Z" transform="translate(-2643.602 -1071.637)" fill="#01e3a6" fill-rule="evenodd"/>
  <path id="Tracé_15609" data-name="Tracé 15609" d="M2735.2,1390.778a2.318,2.318,0,0,0,.754-.623l.019-.03-.009-.012-.01.007a2.327,2.327,0,0,0-.754-.625l-.008-.007,0,.007a6.427,6.427,0,0,0-1.711-.659,10.6,10.6,0,0,0-4.563,0,6.417,6.417,0,0,0-1.714.659l-.161.086-14.148,8.168a2.4,2.4,0,0,0-.752.625l-.02.029.014.012.006,0a2.5,2.5,0,0,0,.765.625l.116.07a6.931,6.931,0,0,0,1.6.588,10.688,10.688,0,0,0,4.562,0,6.573,6.573,0,0,0,1.726-.658l14.295-8.259Zm5.456,2.745a8.186,8.186,0,0,1-2.585,2.252l-14.3,8.254a12.246,12.246,0,0,1-3.26,1.27,15.487,15.487,0,0,1-7.229,0,12.389,12.389,0,0,1-3.077-1.165l-.2-.1a8.079,8.079,0,0,1-2.569-2.252l.006-.005a5.579,5.579,0,0,1-.175-6.506,2.491,2.491,0,0,1,.168-.258,8.157,8.157,0,0,1,2.582-2.255l14.137-8.161.152-.093a12.17,12.17,0,0,1,3.27-1.27,15.475,15.475,0,0,1,7.228,0,12.225,12.225,0,0,1,3.275,1.27l0,.006a8.129,8.129,0,0,1,2.575,2.245l-.01.006a5.768,5.768,0,0,1,1.138,3.379,5.661,5.661,0,0,1-.966,3.127A2.475,2.475,0,0,1,2740.657,1393.523Z" transform="translate(-2645.588 -1073.623)" fill="#f5f5f5" fill-rule="evenodd"/>
  <path id="Tracé_15610" data-name="Tracé 15610" d="M2708.358,1338.768a10.827,10.827,0,0,0-6.909,10.091q0,.459.037.908l.125,59.568c0,18.483,1.6,38.7,2.363,57.353a3.826,3.826,0,0,0,2.255,3.14,12.044,12.044,0,0,0,10.878,0,3.831,3.831,0,0,0,2.255-3.14c.052-19.171.178-38.357.178-57.524l4.71-37.876,5.967,3.369,1.552,51.716c.677,19.11,1.573,38.241,2.359,57.349a3.82,3.82,0,0,0,2.255,3.143,12.035,12.035,0,0,0,10.878,0,3.819,3.819,0,0,0,2.254-3.143c.052-19.174.179-38.351.179-57.528l3.513-59.4c.024-.3.038-.6.038-.9,0-6.445-3.993-8.524-8.713-11.189l-15.359-8.69-10.923-6.175C2714.889,1338,2711.629,1337.5,2708.358,1338.768Z" transform="translate(-2656.21 -1171.347)" fill="#01e3a6" fill-rule="evenodd"/>
  <path id="Tracé_15611" data-name="Tracé 15611" d="M2711.382,1343.438a7.931,7.931,0,0,0-5.054,7.4l0,.337.029.332a3.449,3.449,0,0,1,0,.471l.125,59.337h.007c0,12.442.712,25.488,1.406,38.322.349,6.334.688,12.614.948,18.915v.114h.011c0,.017.013-.012.031.017l0,.005.01-.005a2.312,2.312,0,0,0,.761.622l.115.074a6.835,6.835,0,0,0,1.6.585,10.555,10.555,0,0,0,4.56,0,6.561,6.561,0,0,0,1.726-.659,2.387,2.387,0,0,0,.75-.622l.05-.071q.038-10.705.084-21.33c.044-10.674.087-21.33.087-36.14a3.429,3.429,0,0,1,.035-.453l4.7-37.773a2.894,2.894,0,0,1,4.529-2.019l5.722,3.229a2.882,2.882,0,0,1,1.464,2.433h0l1.551,51.691c.447,12.636,1,25.46,1.551,38.284.271,6.228.539,12.454.812,19.056v.111h.01c0,.019.012-.007.032.021v0l.012,0a2.36,2.36,0,0,0,.76.621l.115.071a6.6,6.6,0,0,0,1.6.592,10.726,10.726,0,0,0,4.564,0,6.436,6.436,0,0,0,1.718-.662,2.353,2.353,0,0,0,.755-.621l.054-.076c.021-7.146.052-14.25.081-21.354.045-10.675.088-21.353.088-36.119a2.688,2.688,0,0,1,.023-.366l3.505-59.269h-.007l.03-.327,0-.335c0-4.6-3.114-6.359-6.859-8.473l-.382-.213,0,0-26.244-14.843a11.092,11.092,0,0,0-3.928-1.36,7.294,7.294,0,0,0-3.535.446Zm-8.445-.328a13.758,13.758,0,0,1,6.369-5.051,12.905,12.905,0,0,1,6.289-.809,16.668,16.668,0,0,1,6.024,2.041v0c8.811,4.847,17.564,9.932,26.316,14.885l0,0,.366.2c5.362,3.029,9.82,5.545,9.82,13.493l-.048,1.137h0l-3.5,59.161c0,9.318-.055,22.731-.111,36.141-.034,7.146-.062,14.288-.08,21.387h.011a5.676,5.676,0,0,1-.964,3.13c-.047.085-.1.171-.163.258a8.091,8.091,0,0,1-2.585,2.251,12.258,12.258,0,0,1-3.261,1.271,15.516,15.516,0,0,1-7.227,0,12.338,12.338,0,0,1-3.079-1.169l-.192-.1a8.121,8.121,0,0,1-2.574-2.251l.006,0a5.768,5.768,0,0,1-1.133-3.385h.006c-.249-6.054-.527-12.489-.805-18.92-.548-12.716-1.1-25.434-1.551-38.327l-1.5-50.108-.792-.448-4.156,33.414c0,9.276-.057,22.651-.111,35.994q-.045,10.706-.081,21.361h.012a5.679,5.679,0,0,1-.962,3.128,2.716,2.716,0,0,1-.167.258,8.193,8.193,0,0,1-2.582,2.254,12.231,12.231,0,0,1-3.262,1.264,15.52,15.52,0,0,1-7.228,0,12.277,12.277,0,0,1-3.077-1.163l-.194-.1a8.113,8.113,0,0,1-2.573-2.254l.011-.007a5.7,5.7,0,0,1-1.137-3.379h.006c-.248-5.99-.593-12.333-.943-18.735-.707-13.047-1.428-26.3-1.428-38.617h.011c-.042-19.871.56-40.73-.176-60.476A13.633,13.633,0,0,1,2702.937,1343.11Z" transform="translate(-2658.195 -1173.33)" fill="#fff" fill-rule="evenodd"/>
  <path id="Tracé_15612" data-name="Tracé 15612" d="M2706.1,1351.186a2.881,2.881,0,0,1,2.874-4.993l15.679,9.053a2.879,2.879,0,1,1-2.869,4.993Z" transform="translate(-2649.208 -1154.43)" fill="#fff" fill-rule="evenodd"/>
  <path id="Tracé_15613" data-name="Tracé 15613" d="M2730.554,1341.759l-7.756,1.512,2.685,14.435,3.366,1.229,4.17,12.159,3.768-2.895C2735.271,1351.4,2735.733,1354.487,2730.554,1341.759Z" transform="translate(-2609.569 -1163.278)" fill="#01e3a6" fill-rule="evenodd"/>
  <path id="Tracé_15614" data-name="Tracé 15614" d="M2730.763,1347.032l-2.622.509,1.856,10,1.819.665a2.875,2.875,0,0,1,1.745,1.777l.005,0,1.889,5.5a69.811,69.811,0,0,0-1.181-9.133,47.461,47.461,0,0,0-2.642-7.234l-.869-2.08Zm-6.527-4.617,7.641-1.487a2.889,2.889,0,0,1,3.338,1.729c.765,1.88,1.291,3.146,1.751,4.242a51.01,51.01,0,0,1,2.936,8.14c.648,2.744.935,5.939,1.549,12.811l.177,1.9a2.9,2.9,0,0,1-1.1,2.732l-3.627,2.784a2.921,2.921,0,0,1-.959.55,2.892,2.892,0,0,1-3.672-1.8l-3.724-10.862-2.061-.755a2.87,2.87,0,0,1-1.852-2.191l-2.658-14.275-.031-.138A2.9,2.9,0,0,1,2724.237,1342.414Z" transform="translate(-2611.554 -1165.262)" fill="#fff" fill-rule="evenodd"/>
  <path id="Tracé_15615" data-name="Tracé 15615" d="M2701.592,1312.81l-7.385,2.826-5.359-13.668,2.2-2.828-2.9-12.521,4.733.462C2700.485,1302.134,2699.242,1299.271,2701.592,1312.81Z" transform="translate(-2685.261 -1283.73)" fill="#01e3a6" fill-rule="evenodd"/>
  <path id="Tracé_15616" data-name="Tracé 15616" d="M2704.6,1317.493l-7.385,2.825a2.891,2.891,0,0,1-3.731-1.672L2688.133,1305a2.885,2.885,0,0,1,.532-2.968l1.243-1.592-2.593-11.194a2.89,2.89,0,0,1,2.172-3.459,2.856,2.856,0,0,1,1.073-.041l4.571.446a2.885,2.885,0,0,1,2.307,1.572l.945,1.87c3.1,6.121,4.536,8.965,5.456,11.688a50.925,50.925,0,0,1,1.813,8.461c.174,1.07.383,2.321.766,4.529a2.9,2.9,0,0,1-1.819,3.184Zm-6.775-3.6,2.5-.956-.366-2.232a47.5,47.5,0,0,0-1.586-7.535,70.518,70.518,0,0,0-3.841-8.366l1.317,5.671h-.007a2.89,2.89,0,0,1-.539,2.418l-1.192,1.525Z" transform="translate(-2687.242 -1285.712)" fill="#fff" fill-rule="evenodd"/>
  <path id="Tracé_15617" data-name="Tracé 15617" d="M2690.014,1302.873l7.873,30.183c.067.162.144.324.222.484a6.835,6.835,0,0,0,1.621,2.08l34.183,34.322,13.205-15.078-37.5-29.017-9.42-27.6C2697.925,1291.591,2687.269,1292.346,2690.014,1302.873Z" transform="translate(-2682.165 -1267.701)" fill="#01e3a6" fill-rule="evenodd"/>
  <path id="Tracé_15618" data-name="Tracé 15618" d="M2694.782,1304.127l7.807,29.937.128.255a4.01,4.01,0,0,0,.364.542,4.191,4.191,0,0,0,.521.564l.149.141,32,32.13,9.149-10.452-35.08-27.138a2.876,2.876,0,0,1-.969-1.356l-9.42-27.6a3.311,3.311,0,0,0-2.487-2.283,2.331,2.331,0,0,0-1.087.036,1.65,1.65,0,0,0-.743.451c-.708.746-.988,2.278-.339,4.777Zm2.29,31.628-7.868-30.182c-1.236-4.736-.236-8.132,1.732-10.2a7.46,7.46,0,0,1,3.348-2.013,8.143,8.143,0,0,1,3.706-.173,9.079,9.079,0,0,1,6.92,6.109l9.136,26.781,36.811,28.479.137.115a2.881,2.881,0,0,1,.271,4.066l-13.139,15.005a2.735,2.735,0,0,1-.2.223,2.889,2.889,0,0,1-4.083-.012l-34.131-34.272a9.625,9.625,0,0,1-1.2-1.274,10.464,10.464,0,0,1-.911-1.411l-.1-.172-.158-.337-.152-.347.006,0A2.811,2.811,0,0,1,2697.072,1335.755Z" transform="translate(-2684.143 -1269.676)" fill="#fff" fill-rule="evenodd"/>
  <path id="Tracé_15619" data-name="Tracé 15619" d="M2700.722,1398.145V1322.2c.779-6.971,11.043-12.887,15.548-10.283l31.613,18.247c3.427,1.92,7.79,6,7.89,10.82v81.452c-.143,6.518-11.551,6.751-15.531,4.456l-11.915-6.883-22.886-13.212C2702.436,1405.067,2700.722,1403.527,2700.722,1398.145Z" transform="translate(-2657.794 -1229.826)" fill="#01e3a6" fill-rule="evenodd"/>
  <path id="Tracé_15620" data-name="Tracé 15620" d="M2699.814,1400.125v-75.94a3.247,3.247,0,0,1,.049-.532,12.188,12.188,0,0,1,1.579-4.493,18.612,18.612,0,0,1,6.754-6.531,14.57,14.57,0,0,1,8.5-2.185,7.724,7.724,0,0,1,3.009.958l.149.093,31.423,18.142,0-.006a21.569,21.569,0,0,1,6.647,5.844,13.085,13.085,0,0,1,2.714,7.442v77.958h.014v3.548a3.041,3.041,0,0,1-.026.379,7.546,7.546,0,0,1-.991,3.35l-.005.01.005,0a9.415,9.415,0,0,1-5.279,4.025,18.58,18.58,0,0,1-6.31.885,16.082,16.082,0,0,1-7.253-1.7q-17.409-10.055-34.816-20.1l0,.006a11.728,11.728,0,0,1-4.477-3.923c-1.1-1.742-1.685-3.955-1.685-7.232Zm5.791-75.8v75.8a7.923,7.923,0,0,0,.774,4.159,6.969,6.969,0,0,0,2.49,2l0,.007,34.8,20.087a10.261,10.261,0,0,0,4.5.933,12.66,12.66,0,0,0,4.323-.592,3.883,3.883,0,0,0,2.158-1.449h0a1.8,1.8,0,0,0,.227-.739l0-3.657h.012v-77.847a7.5,7.5,0,0,0-1.609-4.165,15.6,15.6,0,0,0-4.815-4.19l.005-.01-31.488-18.177-.158-.087a1.963,1.963,0,0,0-.751-.21,8.889,8.889,0,0,0-5,1.433,12.8,12.8,0,0,0-4.63,4.429A6.492,6.492,0,0,0,2705.6,1324.325Z" transform="translate(-2659.777 -1231.806)" fill="#fff" fill-rule="evenodd"/>
  <path id="Tracé_15621" data-name="Tracé 15621" d="M2719.893,1317.35a11.661,11.661,0,0,1-10.56,0c-2.917-1.681-2.917-4.414,0-6.1a11.7,11.7,0,0,1,10.567,0C2722.813,1312.937,2722.809,1315.669,2719.893,1317.35Z" transform="translate(-2643.766 -1232.675)" fill="#fff" fill-rule="evenodd"/>
  <path id="Tracé_15622" data-name="Tracé 15622" d="M2723.328,1321.835a14.474,14.474,0,0,1-13.458,0,7.633,7.633,0,0,1-2.847-2.739l-.009,0a5.453,5.453,0,0,1,0-5.618l.009-.007-.009,0a7.619,7.619,0,0,1,2.856-2.733,14.483,14.483,0,0,1,13.461,0,7.62,7.62,0,0,1,2.849,2.733c.044.072.082.145.118.219a5.48,5.48,0,0,1,.651,2.594h.011a5.537,5.537,0,0,1-.78,2.8l0,.006,0,0a7.609,7.609,0,0,1-2.856,2.728l0,.007Zm-6.728-4.127a7.863,7.863,0,0,0,3.835-.872v.006l.01-.006a2.259,2.259,0,0,0,.69-.549,2.445,2.445,0,0,0-.7-.55,8.9,8.9,0,0,0-7.672,0,2.349,2.349,0,0,0-.7.554,2.407,2.407,0,0,0,.7.545A7.87,7.87,0,0,0,2716.6,1317.708Z" transform="translate(-2645.75 -1234.66)" fill="#0087ca" fill-rule="evenodd"/>
  <path id="Tracé_15623" data-name="Tracé 15623" d="M2722.86,1311.345h-14.936l-1.1,14.206a3.1,3.1,0,0,0-.034.44c0,1.267.843,2.541,2.522,3.51a13.445,13.445,0,0,0,12.162,0c1.683-.969,2.518-2.243,2.518-3.51a2.834,2.834,0,0,0-.032-.44Z" transform="translate(-2644.542 -1229.716)" fill="#01e3a6" fill-rule="evenodd"/>
  <path id="Tracé_15624" data-name="Tracé 15624" d="M2722.169,1316.22h-9.589l-.891,11.527-.02.226,0-.006h0v.006h-.01a.476.476,0,0,0,.113.217h.008a3.008,3.008,0,0,0,.966.793,9.463,9.463,0,0,0,4.63,1.06,9.562,9.562,0,0,0,4.638-1.054l-.005-.007a3.018,3.018,0,0,0,.965-.793h.008a.494.494,0,0,0,.113-.217h-.014l-.022-.223-.887-11.53Zm-12.264-5.783h17.611l1.3,16.757a6.231,6.231,0,0,1,.052.779h-.013a6.091,6.091,0,0,1-1.192,3.579l.006.007a8.729,8.729,0,0,1-2.769,2.424h-.009a16.225,16.225,0,0,1-15.047,0,8.763,8.763,0,0,1-2.77-2.424l.009-.007a6.056,6.056,0,0,1-1.192-3.579h-.011c0-.12.006-.264.019-.433.007-.124.019-.239.035-.344l1.3-16.759Zm1.761,17.536" transform="translate(-2646.526 -1231.7)" fill="#fff" fill-rule="evenodd"/>
  <path id="Tracé_15625" data-name="Tracé 15625" d="M2717.9,1300.958h2.806c7.089,0,13.191,5.806,12.892,12.891l-.664,15.731a13.129,13.129,0,0,1-12.891,12.894h-1.405c-7.091,0-12.56-5.812-12.891-12.894l-.739-15.731C2704.677,1306.763,2710.813,1300.958,2717.9,1300.958Z" transform="translate(-2648.457 -1252.406)" fill="#01e3a6" fill-rule="evenodd"/>
  <path id="Tracé_15626" data-name="Tracé 15626" d="M2719.883,1300.048h2.8l.664.028a16.1,16.1,0,0,1,10.6,4.615,14.938,14.938,0,0,1,4.542,10.646l-.024.615-.663,15.731a16.686,16.686,0,0,1-4.809,11.11,15.4,15.4,0,0,1-10.965,4.56h-1.406a15.349,15.349,0,0,1-10.942-4.551,16.826,16.826,0,0,1-4.835-11.107l-.732-15.735c-.018-.346-.024-.573-.024-.675a14.865,14.865,0,0,1,4.524-10.591,16.152,16.152,0,0,1,10.541-4.618c.365-.015.614-.028.729-.028Zm2.8,5.789-3.283,0a10.324,10.324,0,0,0-6.743,2.971,9.085,9.085,0,0,0-2.787,6.475l0,.427.733,15.734a11,11,0,0,0,3.161,7.264,9.614,9.614,0,0,0,6.852,2.857h1.406a9.639,9.639,0,0,0,6.87-2.867,10.885,10.885,0,0,0,3.139-7.245l.663-15.734v-.385a9.184,9.184,0,0,0-2.8-6.532,10.3,10.3,0,0,0-6.777-2.968Z" transform="translate(-2650.44 -1254.395)" fill="#fff" fill-rule="evenodd"/>
  <path id="Tracé_15627" data-name="Tracé 15627" d="M2717.612,1300.958h2.805c7.092,0,13.189,5.806,12.893,12.891l-.661,15.731c-4.158-2.927-6.877-6.537-7.052-12.419-10.78,1.264-14.339.668-20.468-6.949A13,13,0,0,1,2717.612,1300.958Z" transform="translate(-2648.169 -1252.406)" fill="#01e3a6" fill-rule="evenodd"/>
  <path id="Tracé_15628" data-name="Tracé 15628" d="M2719.59,1300.049h2.8l.662.026a16.1,16.1,0,0,1,10.6,4.615,14.945,14.945,0,0,1,4.543,10.645l-.026.615-.664,15.73a2.889,2.889,0,0,1-4.541,2.25,20.254,20.254,0,0,1-5.828-5.962,16.483,16.483,0,0,1-2.13-5.644c-4.246.39-7.395.338-10.273-.563-3.624-1.139-6.435-3.475-9.878-7.757a2.89,2.89,0,0,1-.5-2.681,15.372,15.372,0,0,1,5.675-8.091,16.083,16.083,0,0,1,9.557-3.183Zm2.8,5.787h-2.8a10.3,10.3,0,0,0-6.125,2.028,9.85,9.85,0,0,0-3.085,3.758c2.2,2.551,4.007,3.972,6.075,4.624,2.513.786,5.787.617,10.79.032v.006c.083-.01.165-.015.248-.019a2.886,2.886,0,0,1,2.962,2.805,11.724,11.724,0,0,0,1.566,5.812l.385-9.163v-.385a9.188,9.188,0,0,0-2.8-6.532,10.3,10.3,0,0,0-6.777-2.967Z" transform="translate(-2650.146 -1254.392)" fill="#fff" fill-rule="evenodd"/>
  <path id="Tracé_15629" data-name="Tracé 15629" d="M2714.592,1335.9l1.227-13.56,8.857-2.809c5.389,12.037,11.421,23.78,18.054,35.8a6.333,6.333,0,0,1,.916,2.475l5.645,30.888a4.953,4.953,0,0,1,.042,2.032,5.068,5.068,0,0,1-9.937.167l-7.718-29.5Z" transform="translate(-2627.498 -1211.832)" fill="#01e3a6" fill-rule="evenodd"/>
  <path id="Tracé_15630" data-name="Tracé 15630" d="M2724.024,1322.688a2.884,2.884,0,1,1,5.267-2.353c2.66,5.946,5.5,11.849,8.5,17.785,2.974,5.872,6.124,11.786,9.443,17.8a9,9,0,0,1,1.243,3.458l5.616,30.707a8.222,8.222,0,0,1,.181,1.542,7.527,7.527,0,0,1-.129,1.585,7.956,7.956,0,0,1-13.341,4.316,8.056,8.056,0,0,1-2.259-4.048h0l-7.56-28.912-16.818-25.087a2.883,2.883,0,1,1,4.791-3.208l17.358,25.894,7.843,29.981.035.114a2.238,2.238,0,0,0,.611,1.1,2.188,2.188,0,0,0,3.669-1.175,2.764,2.764,0,0,0,.032-.453,2.288,2.288,0,0,0-.058-.436c-2.066-10.311-3.63-20.8-5.695-31.115a3.562,3.562,0,0,0-.483-1.332l-.1-.159c-3.313-6.006-6.491-11.971-9.538-17.986C2729.622,1334.769,2726.753,1328.782,2724.024,1322.688Z" transform="translate(-2629.474 -1213.813)" fill="#fff" fill-rule="evenodd"/>
</svg>
