<svg xmlns="http://www.w3.org/2000/svg" width="1313.48" height="531.651" viewBox="0 0 1313.48 531.651">
  <g id="Groupe_2240" data-name="Groupe 2240" transform="translate(-306.068 -1116.349)">
    <g id="Groupe_1320" data-name="Groupe 1320" transform="translate(93.006 872.737)">
      <g id="Group_1039" data-name="Group 1039" transform="translate(535.081 252.252)">
        <g id="Groupe_1314" data-name="Groupe 1314">
          <path id="Path_10551" data-name="Path 10551" d="M604.208,223.373A15.238,15.238,0,1,0,579.492,235.3a5.023,5.023,0,0,1,1.909,3.931v5.137h15.14v-5.137a5,5,0,0,1,1.9-3.921A15.2,15.2,0,0,0,604.208,223.373Z" transform="translate(-573.732 -208.131)" fill="rgba(0,0,0,0)" stroke="#134f76" stroke-miterlimit="10" stroke-width="2"/>
          <path id="Rectangle_563" data-name="Rectangle 563" d="M585.9,266.329h15.318v3.992a5.566,5.566,0,0,1-5.566,5.567H591.47a5.566,5.566,0,0,1-5.566-5.567v-3.992Z" transform="translate(-578.325 -230.091)" fill="rgba(0,0,0,0)" stroke="#134f76" stroke-miterlimit="10" stroke-width="2"/>
          <path id="Path_10552" data-name="Path 10552" d="M600.948,280.087a3.074,3.074,0,0,1-3.073,3.075H590.1a3.074,3.074,0,0,1-3.075-3.073h0" transform="translate(-578.747 -235.283)" fill="rgba(0,0,0,0)" stroke="#134f76" stroke-miterlimit="10" stroke-width="2"/>
          <path id="Path_10553" data-name="Path 10553" d="M602.236,216.105s7.768,1.594,7.57,10.557" transform="translate(-584.488 -211.14)" fill="rgba(0,0,0,0)" stroke="#134f76" stroke-miterlimit="10" stroke-width="2"/>
        </g>
      </g>
      <g id="Vous_avez_une_idée_à_développer_" data-name="Vous avez une idée à développer " transform="translate(222.848 366.984)" style="isolation: isolate">
        <text id="Je_suis_client" data-name="Je suis client" transform="translate(1 21)" fill="#134f76" font-size="20" font-family="Helvetica" style="isolation: isolate"><tspan x="0" y="0">Je suis client</tspan></text>
      </g>
      <g id="Vous_avez_une_idée_à_développer_2" data-name="Vous avez une idée à développer " transform="translate(212.062 653.709)" style="isolation: isolate">
        <text id="Je_suis_consultant" data-name="Je suis consultant" transform="translate(1 21)" fill="#134f76" font-size="20" font-family="Helvetica" style="isolation: isolate"><tspan x="0" y="0">Je suis consultant</tspan></text>
      </g>
      <g id="nous_sélections_vos_consultants_" data-name="nous sélections vos consultants " transform="translate(1066.316 309.017)" style="isolation: isolate">
        <text id="BeAdvize_sélectione_Mes_consultants" data-name="BeAdvize sélectione
Mes consultants" transform="translate(99 21)" fill="#134f76" font-size="20" font-family="Helvetica" style="isolation: isolate"><tspan x="-90.054" y="0">BeAdvize sélectione</tspan><tspan x="-72.256" y="24">Mes consultants</tspan></text>
      </g>
      <g id="Group_1048" data-name="Group 1048" transform="translate(1128.495 244.612)">
        <g id="Groupe_1316" data-name="Groupe 1316">
          <g id="Group_1045" data-name="Group 1045">
            <path id="Path_10558" data-name="Path 10558" d="M1262.076,220.642h-7.064a22.064,22.064,0,0,0-18.928-19.222v-7.173a2.207,2.207,0,0,0-2.19-2.223h-1.119a2.206,2.206,0,0,0-2.189,2.223h0v7.173a22.064,22.064,0,0,0-18.928,19.222h-7.064a2.206,2.206,0,0,0-2.189,2.223h0V224a2.207,2.207,0,0,0,2.189,2.224h7.064a22.065,22.065,0,0,0,18.929,19.222v7.174a2.206,2.206,0,0,0,2.189,2.223h1.119a2.207,2.207,0,0,0,2.19-2.223v-7.175a22.065,22.065,0,0,0,18.928-19.222h7.064a2.207,2.207,0,0,0,2.189-2.224v-1.137A2.206,2.206,0,0,0,1262.076,220.642Zm-25.991,21.525V239.64a2.207,2.207,0,0,0-2.19-2.223h-1.119a2.207,2.207,0,0,0-2.189,2.223v2.526a18.84,18.84,0,0,1-15.7-15.942h2.489a2.206,2.206,0,0,0,2.189-2.223h0v-1.137a2.206,2.206,0,0,0-2.189-2.223h-2.489a18.839,18.839,0,0,1,15.7-15.942v2.525a2.206,2.206,0,0,0,2.189,2.223h1.12a2.206,2.206,0,0,0,2.19-2.223h0V204.7a18.841,18.841,0,0,1,15.7,15.942H1249.3a2.207,2.207,0,0,0-2.19,2.223h0V224a2.207,2.207,0,0,0,2.19,2.223h2.487a18.841,18.841,0,0,1-15.7,15.943Z" transform="translate(-1202.405 -192.023)" fill="rgba(0,0,0,0)" stroke="#134f76" stroke-miterlimit="10" stroke-width="2"/>
          </g>
          <g id="Group_1046" data-name="Group 1046" transform="translate(22.838 24.739)">
            <path id="Path_10559" data-name="Path 10559" d="M1246.663,250.76l.208-.035.083-.013a17.414,17.414,0,0,1,2.612-.179h.862q.829,0,1.612.069c.283.024.559.056.83.1.13.019.259.039.385.063a9.106,9.106,0,0,1,1.707.466,6.247,6.247,0,0,1,.906.436,4.659,4.659,0,0,1,2.282,4.357.192.192,0,0,1-.192.192h-16a.192.192,0,0,1-.136-.057.188.188,0,0,1-.056-.135C1241.767,252.742,1243.793,251.274,1246.663,250.76Z" transform="translate(-1241.765 -241.322)" fill="rgba(0,0,0,0)" stroke="#134f76" stroke-miterlimit="10" stroke-width="2"/>
            <ellipse id="Ellipse_14" data-name="Ellipse 14" cx="3.935" cy="3.935" rx="3.935" ry="3.935" transform="translate(4.26)" fill="rgba(0,0,0,0)" stroke="#134f76" stroke-miterlimit="10" stroke-width="2"/>
          </g>
        </g>
      </g>
      <g id="Group_1047" data-name="Group 1047" transform="translate(1467.219 418.259)">
        <g id="Groupe_1317" data-name="Groupe 1317" transform="translate(35.138 0) rotate(34)">
          <path id="Path_10560" data-name="Path 10560" d="M26.83,43.872a8.089,8.089,0,0,0-2.131-5.62,5.948,5.948,0,0,0-.52-.688c.818-7.212.964-14.426-.619-21.649A19.6,19.6,0,0,0,22.22,12.7,53.349,53.349,0,0,0,14.668.665c-.549-.684-1.071-1-1.738-.153A53.211,53.211,0,0,0,5.263,12.73a18.782,18.782,0,0,0-1.647,4.72,70.1,70.1,0,0,0-.346,20.1,1.859,1.859,0,0,0-.283.322C1.828,39.48.611,40.985.618,43.233.632,47.724.382,52.216.19,56.706c-.084,1.977-.544,3.945.371,6.131C2.5,59.669,4.44,56.506,6.353,53.325a1.125,1.125,0,0,0,.091-.2,1.708,1.708,0,0,0,.2.081.864.864,0,0,0-.145.75c.135.956-.225,2.483,1.155,2.537,4,.161,8.018.136,12.019-.01,1.557-.057,1.229-1.647,1.33-2.644a.745.745,0,0,0-.188-.676c.055-.024.109-.05.161-.08a1.449,1.449,0,0,0,.161.383q2.838,4.668,5.7,9.32l.5-.155a6.781,6.781,0,0,0,.154-1.172C27.268,55.6,26.936,49.737,26.83,43.872Z" fill="#04c38f" stroke="#143d66" stroke-miterlimit="10" stroke-width="2"/>
          <circle id="Ellipse_15" data-name="Ellipse 15" cx="2.471" cy="2.471" r="2.471" transform="translate(11.274 22.782)" fill="#04c38f" stroke="#143d66" stroke-miterlimit="10" stroke-width="2"/>
        </g>
      </g>
      <path id="Path_11712" data-name="Path 11712" d="M280.5,379.5l355.382.7c9.384-.46,43.377-.247,43.94-.135,14.766,2.923,33.778,4.39,48.4,16.4,3.6,2.961,23.119,13.089,36.416,46.121s-1.083,65.177,15.975,95.1C793,559.42,826.683,580.558,875.53,580.558s79.507-11.819,101.879-41.7,3.138-64.146,24.853-103.493c14.354-26.008,26.968-37.462,34.7-42.111,29.023-17.438,57.714-11.624,144.182-11.06,83.257.543,102.293-4.028,129.564,13.482,25.011,16.059,38.534,38.867,40.489,42.245,19.822,34.247,21.6,40.113,35.61,65.642,12.082,21.473,30.314,21.208,49.439,21.115,40.588.106,62.975-29.164,62.975-29.164" transform="translate(-15.014 -13.486)" fill="rgba(0,0,0,0)" stroke="#004f84" stroke-width="3"/>
      <path id="Path_11712-2" data-name="Path 11712" d="M280.41,674.7c196.339-.63,344.25-.962,371.36,0a130.272,130.272,0,0,0,24.537-1.5c10.481-1.617,29.637-4.407,45.888-17.114,3.6-2.819,13.734-11.274,23.394-30.806,18.939-38.294,4.027-54.6,20.695-87.282,3.981-7.808,14.3-28.043,36.89-40.219,14.537-7.835,35.083-8.468,75.58-9.412,27.833-.65,41.995-.887,53.986,3.423,25.278,9.084,39.635,27.858,44.088,34.228,24.017,34.355,4.378,57.525,26.093,94.984,14.354,24.762,36.351,37.5,44.088,41.93,29.024,16.6,49.146,16.06,135.615,15.524,83.259-.517,102.288,3.16,129.559-13.51,25.012-15.289,37.891-40.729,39.846-43.945,19.823-32.6,13.191-49.327,27.2-73.632,15.292-28.806,40.7-20.408,57.26-21.449,25.563-2.747,41.7-23.926,41.7-23.926" transform="translate(-7.734 -26.261)" fill="none" stroke="#01e3a6" stroke-width="3"/>
      <path id="Tracé_13790" data-name="Tracé 13790" d="M490,694" transform="translate(-14.968 -47.103)" fill="rgba(0,0,0,0)"/>
      <text id="Les_équipes_BeAdvize_me_contactent_rapidement_pour_mieux_définir_mes_besoins_" data-name="Les équipes BeAdvize me contactent rapidement pour mieux définir mes besoins


" transform="translate(739.993 318.263)" fill="#143d66" font-size="15" font-family="Helvetica"><tspan x="2.591" y="12">Les équipes BeAdvize me contactent </tspan><tspan x="10.53" y="34">rapidement pour mieux définir mes </tspan><tspan x="100.149" y="56">besoins</tspan></text>
      <text id="Mon_projet_est_étudié_par_les_équipes_afin_de_me_proposer_une_sélection_très_fine_de_consultants._Ces_derniers_me_répondront_avec_une_méthodologie_une_roadmap_et_un_budget._Je_sélectionne_ceux_avec_qui_je_souhaite_travailler._" data-name="Mon projet est étudié par les équipes afin de me proposer une sélection très fine de consultants. Ces derniers me répondront avec une méthodologie, une roadmap et un budget. Je sélectionne ceux avec qui je souhaite travailler.



" transform="translate(1042.993 381.263)" fill="#143d66" font-size="15" font-family="Helvetica"><tspan x="4.008" y="12">Mon projet est étudié par les équipes </tspan><tspan x="14.013" y="34">afin de me proposer une sélection </tspan><tspan x="3.188" y="56">très fine de consultants. Ces derniers </tspan><tspan x="45.698" y="78">me répondront avec une </tspan><tspan x="14.837" y="100">méthodologie, une roadmap et un </tspan><tspan x="4.001" y="122">budget. Je sélectionne ceux avec qui </tspan></text>
      <text id="Les_équipes_me_contactent_rapidement_pour_mieux_définir_ma_recherche_" data-name="Les équipes me contactent rapidement pour mieux définir ma recherche
" transform="translate(755.993 582.263)" fill="#5f5f5f" font-size="15" font-family="Helvetica"><tspan x="20.359" y="12">Les équipes me contactent </tspan><tspan x="10.782" y="34">rapidement pour mieux définir </tspan><tspan x="64.147" y="56">ma recherche</tspan></text>
      <text id="Je_reçois_des_appels_d_offre_qui_correspondent_parfaitement_à_ma_recherche_de_mission._Je_définie_ma_réponse_avec_une_méthodologie_et_un_tarif._Les_équipes_BeAdvize_m_accompagnent_durant_toute_cette_étape._" data-name="Je reçois des appels d’offre qui correspondent parfaitement à ma recherche de mission. Je définie ma réponse avec une méthodologie et un tarif. Les équipes BeAdvize m’accompagnent durant toute cette étape.



" transform="translate(1006.993 662.263)" fill="#5f5f5f" font-size="15" font-family="Helvetica"><tspan x="19.208" y="12">Je reçois des appels d’offre qui correspondent </tspan><tspan x="2.413" y="34">parfaitement à ma recherche de mission. Je définie </tspan><tspan x="3.644" y="56">ma réponse avec une méthodologie et un tarif. Les </tspan><tspan x="11.147" y="78">équipes BeAdvize m’accompagnent durant toute </tspan><tspan x="133.304" y="100">cette étape.</tspan></text>
      <text id="J_ai_un_projet_à_développer_ou_une_mission_à_pourvoir_:_je_m_inscris_et_dépose_mon_projet_ou_mission_en_quelques_clics_" data-name="J’ai un projet à développer, ou une mission à pourvoir : je m’inscris et dépose mon projet ou mission en quelques clics
" transform="translate(426.993 380.263)" fill="#143d66" font-size="15" font-family="Helvetica"><tspan x="7.328" y="12">J’ai un projet à développer, ou une </tspan><tspan x="9.467" y="34">mission à pourvoir : je m’inscris et </tspan><tspan x="11.518" y="56">dépose mon projet ou mission en </tspan><tspan x="74.891" y="78">quelques clics</tspan><tspan font-family="OpenSans-Semibold, Open Sans" font-weight="600"><tspan x="122" y="100"></tspan></tspan></text>
      <text id="Je_cherche_une_mission_qui_correspond_à_mon_expertise_:_je_m_inscris_et_renseigne_mes_critères_en_quelques_clics_" data-name="Je cherche une mission qui correspond à mon expertise : je m’inscris et renseigne mes critères en quelques clics
" transform="translate(443.993 661.263)" fill="#5f5f5f" font-size="15" font-family="Helvetica"><tspan x="22.617" y="12">Je cherche une mission qui </tspan><tspan x="8.445" y="34">correspond à mon expertise : je </tspan><tspan x="24.719" y="56">m’inscris et renseigne mes </tspan><tspan x="29.293" y="78">critères en quelques clics</tspan><tspan font-family="OpenSans-Semibold, Open Sans" font-weight="600"><tspan x="113.5" y="100"></tspan></tspan></text>
      <g id="Group_1044" data-name="Group 1044" transform="translate(837.345 487.539)">
        <g id="Groupe_1315" data-name="Groupe 1315">
          <g id="Group_1040" data-name="Group 1040" transform="translate(12.307)">
            <path id="Path_10554" data-name="Path 10554" d="M922.294,514.216h-9.843a1.583,1.583,0,0,0-1.583,1.582v5.685a1.583,1.583,0,0,0,1.583,1.583h.608v1.1a.548.548,0,0,0,.925.394l1.581-1.5h6.729a1.582,1.582,0,0,0,1.582-1.582v-5.685A1.582,1.582,0,0,0,922.294,514.216Z" transform="translate(-910.868 -514.216)" fill="#04c38f" stroke="#134f76" stroke-miterlimit="10" stroke-width="2"/>
          </g>
          <g id="Group_1041" data-name="Group 1041" transform="translate(33.602 1.278)">
            <path id="Path_10555" data-name="Path 10555" d="M941.211,515.953h8.646a1.39,1.39,0,0,1,1.39,1.39h0v5a1.39,1.39,0,0,1-1.39,1.39h-.534v.969a.481.481,0,0,1-.812.349l-1.389-1.314h-5.911a1.39,1.39,0,0,1-1.39-1.39h0v-5a1.39,1.39,0,0,1,1.387-1.392Z" transform="translate(-939.821 -515.953)" fill="#04c38f" stroke="#134f76" stroke-miterlimit="10" stroke-width="2"/>
          </g>
          <g id="Group_1042" data-name="Group 1042" transform="translate(1.385 6.703)">
            <circle id="Ellipse_12" data-name="Ellipse 12" cx="4.413" cy="4.413" r="4.413" fill="#04c38f" stroke="#134f76" stroke-miterlimit="10" stroke-width="2"/>
          </g>
          <path id="Path_10556" data-name="Path 10556" d="M912.088,551h-6.734a1.013,1.013,0,0,1-1.014-1.011v0c0-3.26,0-6.825.005-9.15a2.366,2.366,0,0,0-2.141-2.541H899.2c-2.8,0-5.063,2.689-5.063,6.005v10.053a3.021,3.021,0,0,0,2.734,3.242H908.8a.959.959,0,0,1,.959.96v8.578a1.326,1.326,0,0,0,1.326,1.326H913.6a1.326,1.326,0,0,0,1.326-1.326V553.834A2.84,2.84,0,0,0,912.088,551Z" transform="translate(-894.136 -520.583)" fill="#04c38f" stroke="#134f76" stroke-miterlimit="10" stroke-width="2"/>
          <g id="Group_1043" data-name="Group 1043" transform="translate(46.956 6.703)">
            <circle id="Ellipse_13" data-name="Ellipse 13" cx="4.413" cy="4.413" r="4.413" fill="#04c38f" stroke="#134f76" stroke-miterlimit="10" stroke-width="2"/>
          </g>
          <path id="Path_10557" data-name="Path 10557" d="M946.432,551h6.734a1.014,1.014,0,0,0,1.015-1.013h0c0-3.26,0-6.825-.006-9.15a2.365,2.365,0,0,1,2.14-2.541h3.005c2.8,0,5.063,2.689,5.063,6.005v10.053a3.02,3.02,0,0,1-2.734,3.242H949.726a.959.959,0,0,0-.959.959h0v8.578a1.326,1.326,0,0,1-1.326,1.326h-2.521a1.326,1.326,0,0,1-1.326-1.326V553.834A2.841,2.841,0,0,1,946.432,551Z" transform="translate(-907.217 -520.583)" fill="#04c38f" stroke="#134f76" stroke-miterlimit="10" stroke-width="2"/>
          <path id="Rectangle_564" data-name="Rectangle 564" d="M916.238,544.919h23.4a2.381,2.381,0,0,1,2.381,2.381h0a2.381,2.381,0,0,1-2.381,2.381h-23.4a2.382,2.382,0,0,1-2.381-2.381h0A2.381,2.381,0,0,1,916.238,544.919Z" transform="translate(-899.352 -522.337)" fill="#04c38f" stroke="#134f76" stroke-miterlimit="10" stroke-width="2"/>
        </g>
      </g>
      <path id="Tracé_19208" data-name="Tracé 19208" d="M524,0" transform="translate(578.091 565.763)" fill="none" stroke="#707070" stroke-width="1"/>
      <text id="J_ai_un_projet_à_développer_" data-name="J’ai un projet à développer
" transform="translate(482.994 307.263)" fill="#143d66" font-size="20" font-family="Helvetica-Bold, Helvetica" font-weight="700"><tspan x="0" y="15">J’ai un projet </tspan><tspan x="0" y="40">à développer</tspan></text>
      <text id="BeAdvize_me_contacte" data-name="BeAdvize me contacte" transform="translate(807.994 400.263)" fill="#143d66" stroke="#01e3a6" stroke-width="0.5" font-size="20" font-family="Helvetica-Bold, Helvetica" font-weight="700"><tspan x="0.754" y="15">BeAdvize me </tspan><tspan x="21.877" y="40">contacte</tspan></text>
      <text id="Le_projet_peut_commencer" data-name="Le projet peut commencer" transform="translate(1358.994 400.263)" fill="#143d66" stroke="#01e3a6" stroke-width="0.5" font-size="20" font-family="Helvetica-Bold, Helvetica" font-weight="700"><tspan x="0" y="15">Le projet peut </tspan><tspan x="0" y="40">commencer</tspan></text>
      <text id="Je_recherche_une_mission" data-name="Je recherche une mission" transform="translate(482.994 592.263)" fill="#04c38f" font-size="20" font-family="Helvetica-Bold, Helvetica" font-weight="700"><tspan x="4.791" y="15">Je recherche </tspan><tspan x="8.155" y="40">une mission</tspan></text>
      <text id="J_ai_un_projet_à_développer_ou_une_mission_à_pourvoir_:_je_m_inscris_et_dépose_mon_projet_ou_mission_en_quelques_clics_2" data-name="J’ai un projet à développer, ou une mission à pourvoir : je m’inscris et dépose mon projet ou mission en quelques clics
" transform="translate(426.994 380.263)" fill="#143d66" font-size="15" font-family="Helvetica"><tspan x="7.328" y="12">J’ai un projet à développer, ou une </tspan><tspan x="9.467" y="34">mission à pourvoir : je m’inscris et </tspan><tspan x="11.518" y="56">dépose mon projet ou mission en </tspan><tspan x="74.891" y="78">quelques clics</tspan><tspan font-family="OpenSans-Semibold, Open Sans" font-weight="600"><tspan x="122" y="100"></tspan></tspan></text>
    </g>
    <g id="Groupe_2130" data-name="Groupe 2130">
      <path id="Tracé_19205" data-name="Tracé 19205" d="M2675.269,1762.333c-9.682,0-17.531,2.811-17.531,6.279s7.849,6.281,17.531,6.281,17.533-2.812,17.533-6.281S2684.952,1762.333,2675.269,1762.333Z" transform="translate(-2342.145 -245.446)" fill="#ccc" fill-rule="evenodd"/>
      <g id="Groupe_1504" data-name="Groupe 1504" transform="translate(309.693 1437.136)">
        <path id="Tracé_15606" data-name="Tracé 15606" d="M2698.357,1380.4a.89.89,0,0,1,0-1.687,3.217,3.217,0,0,1,2.922,0l3.841,2.217a.89.89,0,0,1,0,1.687,3.226,3.226,0,0,1-2.922,0Z" transform="translate(-2678.993 -1299.107)" fill="#143d66" fill-rule="evenodd"/>
        <path id="Tracé_15607" data-name="Tracé 15607" d="M2698.61,1379.594a.667.667,0,0,1-.2-.167l-.005-.008,0,0,0,0a.67.67,0,0,1,.2-.169h0a1.709,1.709,0,0,1,.459-.176,2.838,2.838,0,0,1,1.225,0,1.706,1.706,0,0,1,.46.176l.044.024,3.8,2.195a.644.644,0,0,1,.2.167l.005.008,0,0,0,0a.647.647,0,0,1-.2.167l-.031.019a1.832,1.832,0,0,1-.43.158,2.885,2.885,0,0,1-1.225,0,1.726,1.726,0,0,1-.462-.177l-3.841-2.218Zm-1.465.736a2.163,2.163,0,0,0,.693.606l3.843,2.218a3.289,3.289,0,0,0,.875.34,4.155,4.155,0,0,0,1.941,0,3.388,3.388,0,0,0,.828-.312l.052-.028a2.206,2.206,0,0,0,.691-.606h0a1.544,1.544,0,0,0,.305-.908,1.528,1.528,0,0,0-.259-.84c-.013-.023-.029-.047-.044-.07a2.213,2.213,0,0,0-.695-.6l-3.8-2.193-.041-.024a3.3,3.3,0,0,0-.878-.341,4.166,4.166,0,0,0-1.942,0,3.339,3.339,0,0,0-.88.341v0a2.185,2.185,0,0,0-.691.6h0a1.546,1.546,0,0,0-.305.907,1.518,1.518,0,0,0,.259.84A.5.5,0,0,0,2697.145,1380.33Z" transform="translate(-2678.848 -1298.976)" fill="#143d66" fill-rule="evenodd"/>
        <path id="Tracé_15608" data-name="Tracé 15608" d="M2707.825,1385.746a.89.89,0,0,1,0-1.686,3.225,3.225,0,0,1,2.922,0l3.84,2.218a.89.89,0,0,1,0,1.687,3.231,3.231,0,0,1-2.922,0Z" transform="translate(-2696.909 -1299.881)" fill="#143d66" fill-rule="evenodd"/>
        <path id="Tracé_15609" data-name="Tracé 15609" d="M2708.08,1384.944a.618.618,0,0,1-.2-.167l0-.008,0,0,0,0a.619.619,0,0,1,.2-.168l0,0v0a1.714,1.714,0,0,1,.459-.177,2.846,2.846,0,0,1,1.226,0,1.716,1.716,0,0,1,.46.177l.043.023,3.8,2.194a.653.653,0,0,1,.2.168l0,.008,0,0h0a.675.675,0,0,1-.206.168l-.031.019a1.865,1.865,0,0,1-.429.158,2.869,2.869,0,0,1-1.225,0,1.76,1.76,0,0,1-.464-.177l-3.84-2.219Zm-1.466.738a2.2,2.2,0,0,0,.694.6l3.841,2.217a3.292,3.292,0,0,0,.876.341,4.159,4.159,0,0,0,1.941,0,3.343,3.343,0,0,0,.827-.313l.052-.028a2.168,2.168,0,0,0,.69-.6h0a1.5,1.5,0,0,0,.047-1.748.7.7,0,0,0-.045-.069,2.192,2.192,0,0,0-.694-.606l-3.8-2.192-.041-.025a3.257,3.257,0,0,0-.878-.341,4.155,4.155,0,0,0-1.941,0,3.283,3.283,0,0,0-.879.341v0a2.188,2.188,0,0,0-.692.6l0,0a1.551,1.551,0,0,0-.306.908,1.519,1.519,0,0,0,.259.84A.682.682,0,0,0,2706.614,1385.681Z" transform="translate(-2696.788 -1299.749)" fill="#143d66" fill-rule="evenodd"/>
        <path id="Tracé_15610" data-name="Tracé 15610" d="M2713.505,1338.254a2.908,2.908,0,0,1,1.855,2.71c0,.082,0,.164-.01.244l-.033,16c0,4.965-.429,10.4-.635,15.406a1.028,1.028,0,0,1-.605.844,3.235,3.235,0,0,1-2.922,0,1.028,1.028,0,0,1-.606-.844c-.014-5.15-.048-10.3-.048-15.452l-1.265-10.174-1.6.905-.417,13.892c-.182,5.133-.422,10.272-.634,15.405a1.025,1.025,0,0,1-.605.844,3.234,3.234,0,0,1-2.922,0,1.026,1.026,0,0,1-.605-.844c-.014-5.151-.049-10.3-.049-15.453l-.943-15.955c-.007-.079-.01-.161-.01-.242,0-1.731,1.073-2.29,2.34-3.006l4.125-2.334,2.934-1.659A3.032,3.032,0,0,1,2713.505,1338.254Z" transform="translate(-2692.075 -1293.281)" fill="#04c38f" fill-rule="evenodd"/>
        <path id="Tracé_15611" data-name="Tracé 15611" d="M2713.093,1338.845a2.131,2.131,0,0,1,1.358,1.989v.091l-.008.089a.876.876,0,0,0,0,.126l-.034,15.939h0c0,3.342-.191,6.847-.378,10.294-.094,1.7-.185,3.388-.254,5.081v.031h0s0,0-.008,0h0a.618.618,0,0,1-.2.167l-.031.02a1.839,1.839,0,0,1-.43.157,2.846,2.846,0,0,1-1.225,0,1.769,1.769,0,0,1-.464-.177.64.64,0,0,1-.2-.167l-.014-.019q-.009-2.876-.022-5.73c-.012-2.867-.024-5.729-.024-9.708a.985.985,0,0,0-.009-.122l-1.262-10.147a.776.776,0,0,0-.866-.677.762.762,0,0,0-.35.134l-1.538.867a.775.775,0,0,0-.394.654h0l-.417,13.885c-.12,3.394-.269,6.839-.417,10.284-.072,1.673-.144,3.345-.218,5.119v.03h0c0,.005,0,0-.009.006h0a.639.639,0,0,1-.2.167l-.03.019a1.772,1.772,0,0,1-.43.159,2.872,2.872,0,0,1-1.226,0,1.721,1.721,0,0,1-.462-.178.635.635,0,0,1-.2-.167l-.014-.021c0-1.92-.014-3.828-.021-5.736-.012-2.868-.023-5.736-.023-9.7a.69.69,0,0,0-.006-.1l-.942-15.921h0l-.008-.088v-.09c0-1.236.836-1.708,1.843-2.276l.1-.057h0l7.05-3.987a2.983,2.983,0,0,1,1.055-.365,1.955,1.955,0,0,1,.949.12Zm2.269-.088a3.694,3.694,0,0,0-1.71-1.356,3.465,3.465,0,0,0-1.689-.218,4.479,4.479,0,0,0-1.618.548h0c-2.367,1.3-4.718,2.668-7.069,4h0l-.1.055c-1.44.813-2.638,1.489-2.638,3.625l.013.305h0l.939,15.892c0,2.5.015,6.106.03,9.708.009,1.92.017,3.838.021,5.745h0a1.527,1.527,0,0,0,.259.841.758.758,0,0,0,.044.069,2.176,2.176,0,0,0,.694.6,3.3,3.3,0,0,0,.876.341,4.173,4.173,0,0,0,1.942,0,3.311,3.311,0,0,0,.827-.314l.052-.027a2.183,2.183,0,0,0,.692-.6h0a1.549,1.549,0,0,0,.3-.909h0c.067-1.626.142-3.355.216-5.082.147-3.416.294-6.832.417-10.3l.4-13.46.213-.12,1.116,8.976c0,2.492.015,6.084.03,9.669q.012,2.876.021,5.738h0a1.524,1.524,0,0,0,.259.84.777.777,0,0,0,.045.07,2.206,2.206,0,0,0,.693.605,3.278,3.278,0,0,0,.877.339,4.163,4.163,0,0,0,1.941,0,3.292,3.292,0,0,0,.826-.312l.052-.027a2.18,2.18,0,0,0,.691-.605l0,0a1.533,1.533,0,0,0,.305-.908h0c.067-1.609.159-3.313.254-5.032.19-3.5.384-7.065.384-10.374h0c.011-5.338-.15-10.941.047-16.245A3.662,3.662,0,0,0,2715.362,1338.757Z" transform="translate(-2691.949 -1293.15)" fill="#143d66" fill-rule="evenodd"/>
        <path id="Tracé_15612" data-name="Tracé 15612" d="M2710.025,1347.254a.774.774,0,0,0-.772-1.341l-4.212,2.432a.773.773,0,1,0,.771,1.341Z" transform="translate(-2689.79 -1294.401)" fill="#143d66" fill-rule="evenodd"/>
        <path id="Tracé_15613" data-name="Tracé 15613" d="M2724.473,1341.759l2.083.406-.721,3.878-.9.33-1.121,3.266-1.012-.778C2723.206,1344.35,2723.083,1345.178,2724.473,1341.759Z" transform="translate(-2722.024 -1293.815)" fill="#fff" fill-rule="evenodd"/>
        <path id="Tracé_15614" data-name="Tracé 15614" d="M2724.818,1342.511l.7.137-.5,2.687-.489.179a.773.773,0,0,0-.469.477h0l-.507,1.476a18.772,18.772,0,0,1,.317-2.453,12.757,12.757,0,0,1,.71-1.943l.233-.559Zm1.753-1.24-2.052-.4a.776.776,0,0,0-.9.465c-.205.5-.347.845-.47,1.139a13.729,13.729,0,0,0-.789,2.187,26.626,26.626,0,0,0-.416,3.441l-.048.51a.78.78,0,0,0,.3.734l.975.748a.778.778,0,0,0,1.244-.335l1-2.918.553-.2a.772.772,0,0,0,.5-.589l.714-3.835.008-.037A.779.779,0,0,0,2726.571,1341.271Z" transform="translate(-2721.891 -1293.684)" fill="#143d66" fill-rule="evenodd"/>
        <path id="Tracé_15615" data-name="Tracé 15615" d="M2688.149,1293.655l1.983.759,1.44-3.671-.591-.76.779-3.364-1.271.124C2688.447,1290.787,2688.78,1290.018,2688.149,1293.655Z" transform="translate(-2656.428 -1285.843)" fill="#fff" fill-rule="evenodd"/>
        <path id="Tracé_15616" data-name="Tracé 15616" d="M2687.742,1294.249l1.984.759a.777.777,0,0,0,1-.449l1.438-3.666a.776.776,0,0,0-.143-.8l-.334-.427.7-3.007a.776.776,0,0,0-.583-.929.768.768,0,0,0-.288-.011l-1.228.12a.775.775,0,0,0-.62.422l-.254.5a26.456,26.456,0,0,0-1.466,3.14,13.687,13.687,0,0,0-.487,2.273c-.047.287-.1.624-.206,1.216a.779.779,0,0,0,.488.855Zm1.82-.967-.671-.257.1-.6a12.734,12.734,0,0,1,.426-2.024,18.822,18.822,0,0,1,1.032-2.247l-.354,1.523h0a.776.776,0,0,0,.145.649l.32.41Z" transform="translate(-2656.297 -1285.712)" fill="#143d66" fill-rule="evenodd"/>
        <path id="Tracé_15617" data-name="Tracé 15617" d="M2704.9,1296.352l-2.114,8.108c-.018.043-.039.087-.06.13a1.841,1.841,0,0,1-.436.559l-9.182,9.219-3.547-4.05,10.074-7.794,2.53-7.415C2702.78,1293.322,2705.643,1293.524,2704.9,1296.352Z" transform="translate(-2670.906 -1286.904)" fill="#00ffba" fill-rule="evenodd"/>
        <path id="Tracé_15618" data-name="Tracé 15618" d="M2704.024,1296.027l-2.1,8.042-.034.068a1.265,1.265,0,0,1-.238.3l-.04.038-8.6,8.631-2.458-2.808,9.423-7.29a.767.767,0,0,0,.26-.364l2.53-7.415a.889.889,0,0,1,.668-.613.626.626,0,0,1,.292.01.447.447,0,0,1,.2.121c.19.2.265.612.091,1.283Zm-.615,8.5,2.113-8.108a2.786,2.786,0,0,0-.466-2.74,2,2,0,0,0-.9-.541,2.185,2.185,0,0,0-1-.046,2.438,2.438,0,0,0-1.858,1.641l-2.454,7.194-9.888,7.65-.037.031a.774.774,0,0,0-.073,1.092l3.529,4.031a.693.693,0,0,0,.054.06.776.776,0,0,0,1.1,0l9.168-9.206a2.577,2.577,0,0,0,.322-.342,2.741,2.741,0,0,0,.245-.379l.026-.046.042-.091.041-.093h0A.9.9,0,0,0,2703.409,1304.523Z" transform="translate(-2670.774 -1286.773)" fill="#143d66" fill-rule="evenodd"/>
        <path id="Tracé_15619" data-name="Tracé 15619" d="M2715.51,1334.625v-20.4c-.209-1.873-2.966-3.462-4.176-2.762l-8.491,4.9a3.873,3.873,0,0,0-2.119,2.907v21.88c.038,1.751,3.1,1.813,4.172,1.2l3.2-1.849,6.147-3.549A2.178,2.178,0,0,0,2715.51,1334.625Z" transform="translate(-2691.597 -1289.411)" fill="#01e3a6" fill-rule="evenodd"/>
        <path id="Tracé_15620" data-name="Tracé 15620" d="M2716.158,1334.493v-20.4a.855.855,0,0,0-.013-.143,3.272,3.272,0,0,0-.424-1.207,5,5,0,0,0-1.814-1.754,3.918,3.918,0,0,0-2.283-.587,2.08,2.08,0,0,0-.808.257l-.04.025-8.44,4.873v0a5.8,5.8,0,0,0-1.786,1.57,3.512,3.512,0,0,0-.729,2v20.941h0v.953a.829.829,0,0,0,.007.1,2.023,2.023,0,0,0,.266.9v0h0a2.529,2.529,0,0,0,1.418,1.081,4.994,4.994,0,0,0,1.695.238,4.321,4.321,0,0,0,1.948-.456l9.352-5.4v0a3.15,3.15,0,0,0,1.2-1.054,3.492,3.492,0,0,0,.452-1.943Zm-1.555-20.361v20.361a2.129,2.129,0,0,1-.208,1.117,1.873,1.873,0,0,1-.669.537v0l-9.348,5.4a2.756,2.756,0,0,1-1.208.251,3.411,3.411,0,0,1-1.161-.159,1.045,1.045,0,0,1-.579-.389h0a.483.483,0,0,1-.061-.2v-.982h0v-20.911a2.009,2.009,0,0,1,.432-1.119,4.187,4.187,0,0,1,1.293-1.126v0l8.458-4.882.042-.023a.522.522,0,0,1,.2-.056,2.385,2.385,0,0,1,1.343.385,3.432,3.432,0,0,1,1.244,1.19A1.732,1.732,0,0,1,2714.6,1314.132Z" transform="translate(-2691.475 -1289.28)" fill="#143d66" fill-rule="evenodd"/>
        <path id="Tracé_15621" data-name="Tracé 15621" d="M2707.733,1311.968a3.133,3.133,0,0,0,2.837,0,.865.865,0,0,0,0-1.638,3.143,3.143,0,0,0-2.838,0A.865.865,0,0,0,2707.733,1311.968Z" transform="translate(-2692.712 -1289.222)" fill="#fff" fill-rule="evenodd"/>
        <path id="Tracé_15622" data-name="Tracé 15622" d="M2707.212,1312.508a3.889,3.889,0,0,0,3.615,0,2.056,2.056,0,0,0,.765-.736h0a1.463,1.463,0,0,0,0-1.509l0,0h0a2.045,2.045,0,0,0-.767-.734,3.89,3.89,0,0,0-3.616,0,2.047,2.047,0,0,0-.765.734c-.012.02-.022.039-.032.059a1.468,1.468,0,0,0-.175.7h0a1.489,1.489,0,0,0,.21.753v0h0a2.044,2.044,0,0,0,.767.733v0Zm1.807-1.109a2.11,2.11,0,0,1-1.03-.234v0l0,0a.606.606,0,0,1-.185-.148.659.659,0,0,1,.188-.148,2.393,2.393,0,0,1,2.061,0,.634.634,0,0,1,.188.149.649.649,0,0,1-.188.146A2.116,2.116,0,0,1,2709.019,1311.4Z" transform="translate(-2692.584 -1289.091)" fill="#0087ca" fill-rule="evenodd"/>
        <path id="Tracé_15623" data-name="Tracé 15623" d="M2707.093,1311.345h4.012l.3,3.816a.823.823,0,0,1,.009.118,1.149,1.149,0,0,1-.677.943,3.61,3.61,0,0,1-3.267,0,1.146,1.146,0,0,1-.677-.943.823.823,0,0,1,.009-.118Z" transform="translate(-2692.662 -1289.418)" fill="#fff" fill-rule="evenodd"/>
        <path id="Tracé_15624" data-name="Tracé 15624" d="M2707.681,1311.991h2.575l.24,3.1.005.061h0a.128.128,0,0,1-.031.058h0a.805.805,0,0,1-.26.213,2.539,2.539,0,0,1-1.243.285,2.565,2.565,0,0,1-1.246-.283v0a.811.811,0,0,1-.259-.213h0a.132.132,0,0,1-.031-.058h0l.006-.06.239-3.1Zm3.294-1.553h-4.73l-.349,4.5a1.7,1.7,0,0,0-.014.209h0a1.638,1.638,0,0,0,.32.962l0,0a2.343,2.343,0,0,0,.744.651h0a4.359,4.359,0,0,0,4.042,0,2.354,2.354,0,0,0,.744-.651l0,0a1.629,1.629,0,0,0,.321-.962h0c0-.032,0-.071,0-.116s0-.064-.009-.093l-.349-4.5Zm-.473,4.71" transform="translate(-2692.534 -1289.287)" fill="#143d66" fill-rule="evenodd"/>
        <path id="Tracé_15625" data-name="Tracé 15625" d="M2709.216,1300.958h-.754a3.423,3.423,0,0,0-3.463,3.463l.178,4.226a3.527,3.527,0,0,0,3.463,3.464h.377a3.534,3.534,0,0,0,3.463-3.464l.2-4.226A3.418,3.418,0,0,0,2709.216,1300.958Z" transform="translate(-2692.408 -1287.916)" fill="#fff" fill-rule="evenodd"/>
        <path id="Tracé_15626" data-name="Tracé 15626" d="M2709.087,1300.048h-.753l-.178.008a4.326,4.326,0,0,0-2.847,1.24,4.015,4.015,0,0,0-1.22,2.86l.007.165.178,4.226a4.481,4.481,0,0,0,1.292,2.984,4.136,4.136,0,0,0,2.945,1.225h.378a4.123,4.123,0,0,0,2.939-1.223,4.519,4.519,0,0,0,1.3-2.983l.2-4.227c0-.093.007-.154.007-.182a3.994,3.994,0,0,0-1.216-2.845,4.339,4.339,0,0,0-2.832-1.24c-.1,0-.165-.008-.2-.008Zm-.753,1.555h.882a2.774,2.774,0,0,1,1.811.8,2.44,2.44,0,0,1,.749,1.739v.115l-.2,4.226a2.955,2.955,0,0,1-.849,1.951,2.582,2.582,0,0,1-1.84.767h-.378a2.589,2.589,0,0,1-1.845-.77,2.927,2.927,0,0,1-.844-1.946l-.177-4.227v-.1a2.467,2.467,0,0,1,.752-1.755,2.768,2.768,0,0,1,1.82-.8Z" transform="translate(-2692.283 -1287.784)" fill="#143d66" fill-rule="evenodd"/>
        <path id="Tracé_15627" data-name="Tracé 15627" d="M2709.349,1300.958h-.754a3.423,3.423,0,0,0-3.463,3.463l.177,4.226a3.953,3.953,0,0,0,1.894-3.336c2.9.339,3.852.18,5.5-1.867A3.492,3.492,0,0,0,2709.349,1300.958Z" transform="translate(-2692.543 -1287.916)" fill="#143d66" fill-rule="evenodd"/>
        <path id="Tracé_15628" data-name="Tracé 15628" d="M2709.222,1300.049h-.753l-.178.007a4.326,4.326,0,0,0-2.847,1.24,4.014,4.014,0,0,0-1.22,2.86l.007.165.178,4.226a.776.776,0,0,0,1.219.6,5.439,5.439,0,0,0,1.566-1.6,4.416,4.416,0,0,0,.572-1.516,6.952,6.952,0,0,0,2.76-.151,5.536,5.536,0,0,0,2.653-2.084.777.777,0,0,0,.134-.72,4.134,4.134,0,0,0-1.524-2.173,4.32,4.32,0,0,0-2.567-.855Zm-.753,1.554h.753a2.768,2.768,0,0,1,1.645.545,2.649,2.649,0,0,1,.829,1.01,3.666,3.666,0,0,1-1.632,1.242,7.41,7.41,0,0,1-2.9.008v0l-.067-.005a.776.776,0,0,0-.8.754,3.151,3.151,0,0,1-.421,1.561l-.1-2.461v-.1a2.467,2.467,0,0,1,.753-1.755,2.767,2.767,0,0,1,1.82-.8Z" transform="translate(-2692.42 -1287.784)" fill="#143d66" fill-rule="evenodd"/>
        <path id="Tracé_15629" data-name="Tracé 15629" d="M2723.948,1323.929l-.33-3.642-2.379-.755c-1.448,3.234-3.068,6.388-4.85,9.618a1.7,1.7,0,0,0-.246.665l-1.516,8.3a1.33,1.33,0,0,0-.011.546,1.361,1.361,0,0,0,2.669.045l2.073-7.926Z" transform="translate(-2712.394 -1290.602)" fill="#00ffba" fill-rule="evenodd"/>
        <path id="Tracé_15630" data-name="Tracé 15630" d="M2721.814,1319.717a.775.775,0,1,0-1.415-.632c-.715,1.6-1.477,3.183-2.284,4.778-.8,1.577-1.645,3.166-2.537,4.782a2.41,2.41,0,0,0-.334.929l-1.509,8.249a2.191,2.191,0,0,0-.048.414,1.992,1.992,0,0,0,.035.426,2.137,2.137,0,0,0,3.583,1.159,2.163,2.163,0,0,0,.607-1.087h0l2.031-7.766,4.517-6.739a.774.774,0,1,0-1.287-.862l-4.662,6.956-2.107,8.053-.009.031a.6.6,0,0,1-.164.3.588.588,0,0,1-.986-.316.725.725,0,0,1-.009-.121.582.582,0,0,1,.016-.117c.555-2.77.975-5.588,1.53-8.358a.816.816,0,0,1,.048-.187.838.838,0,0,1,.082-.17l.027-.042c.89-1.614,1.744-3.216,2.562-4.832C2720.31,1322.962,2721.081,1321.354,2721.814,1319.717Z" transform="translate(-2712.263 -1290.471)" fill="#143d66" fill-rule="evenodd"/>
      </g>
    </g>
    <g id="Groupe_2129" data-name="Groupe 2129">
      <path id="Tracé_15407" data-name="Tracé 15407" d="M2674,1762.333c-8.98,0-16.26,2.607-16.26,5.824s7.28,5.825,16.26,5.825,16.262-2.608,16.262-5.825S2682.978,1762.333,2674,1762.333Z" transform="translate(-2337.787 -531.667)" fill="#ccc" fill-rule="evenodd"/>
      <path id="Tracé_15408" data-name="Tracé 15408" d="M2667.781,1726.5a2.761,2.761,0,0,1,1.764,2.574c0,.079,0,.155-.01.231l.472,14.912-.827,14.813,3.944,2.376a.976.976,0,0,1-.575.8,2.844,2.844,0,0,1-1.387.332l-4.554-2.149a.975.975,0,0,1-.574-.8c0-.02,0-.039,0-.059l.283-14.777-.867-10.275-.7.025-.768,13.117-1.765,15.109,3.981,2.446a.974.974,0,0,1-.574.8,2.843,2.843,0,0,1-1.388.332l-4.513-2.118a1.2,1.2,0,0,1-.5-.5,1.6,1.6,0,0,1-.054-.766l.879-15.353-.532-15.718c-.007-.075-.01-.152-.01-.229,0-1.644,1.02-2.174,2.223-2.855l2.415-1.366,1.117-.632A2.879,2.879,0,0,1,2667.781,1726.5Z" transform="translate(-2337.66 -528.425)" fill="#fff" fill-rule="evenodd"/>
      <path id="Tracé_15409" data-name="Tracé 15409" d="M2667.953,1725.651a3.554,3.554,0,0,1,2.272,3.311l-.012.266.469,14.853c0,.023,0,.045,0,.069l-.8,14.336,3.537,2.13a.792.792,0,0,1,.384.679,1.526,1.526,0,0,1-.3.895h0a2.122,2.122,0,0,1-.674.59h0a3.184,3.184,0,0,1-.849.329,4.062,4.062,0,0,1-.935.111.78.78,0,0,1-.388-.1l-4.5-2.124a.827.827,0,0,1-.111-.064,2.081,2.081,0,0,1-.618-.557v0l0,0a1.52,1.52,0,0,1-.3-.9.763.763,0,0,1,0-.082c.249-4.79.191-9.877.284-14.7l-.346-4.088-.406,6.946-.005.046h0l-1.707,14.609,3.548,2.18a.788.788,0,0,1,.379.676h0a1.524,1.524,0,0,1-.3.895h0a2.126,2.126,0,0,1-.674.589h0a3.19,3.19,0,0,1-.85.329,4.042,4.042,0,0,1-.935.111.79.79,0,0,1-.4-.108l-4.448-2.088a.88.88,0,0,1-.085-.045,2.285,2.285,0,0,1-.443-.336,1.756,1.756,0,0,1-.353-.486,1.837,1.837,0,0,1-.142-1.012c.357-5.137.592-10.323.887-15.47l-.529-15.633h0l-.014-.3c0-2.059,1.15-2.709,2.534-3.489l.093-.052v0c1.179-.666,2.357-1.349,3.542-2h0a4.3,4.3,0,0,1,1.558-.528,3.345,3.345,0,0,1,1.631.211Zm.343,2.2a1.981,1.981,0,0,0-.913-.725,1.793,1.793,0,0,0-.875-.111,2.745,2.745,0,0,0-.981.342l-3.524,1.991h0l-.1.055c-.939.531-1.721.972-1.721,2.113v.085l.007.081h0l.533,15.718a.646.646,0,0,1,0,.107l-.886,15.514-.014.218a.207.207,0,0,0,.036.047.837.837,0,0,0,.121.094l4.307,2.02a2.382,2.382,0,0,0,.409-.058,1.817,1.817,0,0,0,.221-.068l-3.189-1.958a.8.8,0,0,1-.409-.787l1.765-15.1.766-13.076a.794.794,0,0,1,.766-.747l.637-.022.022,0a.792.792,0,0,1,.855.725l.868,10.276h0c0,.025,0,.052,0,.077l-.282,14.729c0,.024,0,.048,0,.072a.507.507,0,0,0,.139.118l4.36,2.056a2.209,2.209,0,0,0,.405-.057,1.679,1.679,0,0,0,.212-.064l-3.172-1.909v0a.789.789,0,0,1-.383-.721l.826-14.788-.468-14.807a.919.919,0,0,1,0-.151,1.452,1.452,0,0,0,.007-.167,1.966,1.966,0,0,0-.341-1.111Zm-1.584,31.6v0Zm0,.026v0Z" transform="translate(-2337.543 -528.31)" fill="#143d66" fill-rule="evenodd"/>
      <path id="Tracé_15410" data-name="Tracé 15410" d="M2670.7,1763.771l4.605,2.774a1.141,1.141,0,0,1-.671.935,3.326,3.326,0,0,1-1.62.388l-5.318-2.509a1.261,1.261,0,0,1-.651-.757C2668.873,1764.872,2669.875,1764.846,2670.7,1763.771Z" transform="translate(-2339.162 -533.516)" fill="#143d66" fill-rule="evenodd"/>
      <path id="Tracé_15411" data-name="Tracé 15411" d="M2670.473,1762.978l3.946,2.375a.793.793,0,0,1,.383.679,1.524,1.524,0,0,1-.3.894h0a2.127,2.127,0,0,1-.675.59h0a3.185,3.185,0,0,1-.849.329,4.056,4.056,0,0,1-.935.111.787.787,0,0,1-.388-.1l-4.5-2.124c-.024-.011-.048-.025-.072-.038a2.234,2.234,0,0,1-.563-.46,1.622,1.622,0,0,1-.355-.685.792.792,0,0,1,.592-.952.78.78,0,0,1,.3-.011,5.343,5.343,0,0,0,1.619.08,1.186,1.186,0,0,0,.762-.494.791.791,0,0,1,1.034-.193v0Zm2.355,3.268-2.632-1.584a2.507,2.507,0,0,1-.714.417l2.729,1.288a2.235,2.235,0,0,0,.405-.057A1.617,1.617,0,0,0,2672.828,1766.245Z" transform="translate(-2338.541 -533.048)" fill="#143d66" fill-rule="evenodd"/>
      <path id="Tracé_15412" data-name="Tracé 15412" d="M2662.734,1768l4.649,2.856a1.139,1.139,0,0,1-.671.935,3.323,3.323,0,0,1-1.621.387l-5.27-2.473a1.4,1.4,0,0,1-.587-.579.8.8,0,0,1-.065-.2C2660.974,1769.2,2661.909,1769.071,2662.734,1768Z" transform="translate(-2337.32 -534.432)" fill="#143d66" fill-rule="evenodd"/>
      <path id="Tracé_15413" data-name="Tracé 15413" d="M2662.52,1767.214l3.982,2.445a.79.79,0,0,1,.379.676h0a1.523,1.523,0,0,1-.3.895h0a2.121,2.121,0,0,1-.674.589h0a3.2,3.2,0,0,1-.849.329,4.028,4.028,0,0,1-.936.111.791.791,0,0,1-.4-.107l-4.448-2.088a.722.722,0,0,1-.085-.045,2.267,2.267,0,0,1-.443-.336,1.778,1.778,0,0,1-.352-.487h0a1.625,1.625,0,0,1-.073-.182,1.528,1.528,0,0,1-.043-.175.792.792,0,0,1,.887-.938h0a4.435,4.435,0,0,0,1.55.04,1.32,1.32,0,0,0,.764-.536.792.792,0,0,1,1.038-.192Zm2.4,3.331-2.677-1.645a2.584,2.584,0,0,1-.751.457l2.8,1.314a2.334,2.334,0,0,0,.409-.058A1.822,1.822,0,0,0,2664.918,1770.545Z" transform="translate(-2337.547 -533.584)" fill="#143d66" fill-rule="evenodd"/>
      <path id="Tracé_15414" data-name="Tracé 15414" d="M2679.917,1719.574l-8.2-.972c-.032-.031-.063-.065-.093-.1a1.757,1.757,0,0,1-.341-.586l-4.9-11.435,4.034-1.411,3.185,11.474,6.557.927,3.751.016.451.8-.67.966-.928,1.007c-1.576.124-1.673-.389-2.848-.681Z" transform="translate(-2338.574 -525.736)" fill="#fff" fill-rule="evenodd"/>
      <path id="Tracé_15415" data-name="Tracé 15415" d="M2679.663,1720.242l-8.151-.967a.789.789,0,0,1-.5-.263l-.03-.031-.065-.072a2.676,2.676,0,0,1-.289-.4,2.615,2.615,0,0,1-.185-.4l-4.9-11.435a.792.792,0,0,1,.419-1.038.494.494,0,0,1,.076-.028l4.008-1.4a.791.791,0,0,1,1.008.487l.015.05,3.045,10.974,6,.847,3.687.016a.791.791,0,0,1,.685.4l.453.8a.793.793,0,0,1-.052.861l-.657.945a.84.84,0,0,1-.068.086l-.927,1.007a.794.794,0,0,1-.52.254h0a3.782,3.782,0,0,1-2.29-.4h0a4.33,4.33,0,0,0-.758-.291Zm-7.651-2.5,7.849.931a.773.773,0,0,1,.194.038,5.547,5.547,0,0,1,1.036.388h0a2.324,2.324,0,0,0,1.2.269l.674-.733.328-.471-3.2-.013a.8.8,0,0,1-.152-.007l-6.557-.927a.792.792,0,0,1-.655-.573l-2.958-10.66-2.437.853,4.568,10.659h0l.021.052a.956.956,0,0,0,.08.17Z" transform="translate(-2338.459 -525.621)" fill="#143d66" fill-rule="evenodd"/>
      <path id="Tracé_15416" data-name="Tracé 15416" d="M2669.339,1719.629l-.3-2.916.985-3.592c.759-2.77.969-7.156-1.257-9.372-.909-.905-2.112-1.477-2.8-1.082l-5.755,3.323a3.7,3.7,0,0,0-2.028,2.779l1.235,10.953-.306,1.768c-4,9.046-.067,13.438-.087,18.325,4.145.851,9.284-2.139,10.886-5.737C2669.821,1732.567,2670.688,1725.054,2669.339,1719.629Z" transform="translate(-2337.426 -525.417)" fill="#fff" fill-rule="evenodd"/>
      <path id="Tracé_15417" data-name="Tracé 15417" d="M2668.434,1719.575l-.3-2.9a.813.813,0,0,1,.038-.335l.972-3.547a13.8,13.8,0,0,0,.4-5.218,5.79,5.79,0,0,0-1.455-3.384,3.937,3.937,0,0,0-1.276-.878.791.791,0,0,0-.567-.079l-.044.024-5.722,3.3v0a3.967,3.967,0,0,0-1.22,1.063,1.926,1.926,0,0,0-.4.986l1.23,10.907a.791.791,0,0,1-.005.219l-.307,1.767a.726.726,0,0,1-.06.2c-2.651,5.993-1.663,9.878-.8,13.257a21.847,21.847,0,0,1,.767,4.059,9.187,9.187,0,0,0,5.11-1.142A9.669,9.669,0,0,0,2669,1733.8c-.007-.426.024-1.086.063-1.921.139-2.947.386-8.18-.609-12.181a.722.722,0,0,1-.021-.128Zm1.292-2.914.279,2.716c1.034,4.211.782,9.561.64,12.58-.044.93-.076,1.629-.057,1.96a.791.791,0,0,1-.069.368,11.14,11.14,0,0,1-4.988,4.994,10.394,10.394,0,0,1-6.778,1.2.791.791,0,0,1-.632-.777,17.679,17.679,0,0,0-.744-4.348c-.917-3.61-1.971-7.758.857-14.206l.271-1.563-1.223-10.841h0a.74.74,0,0,1-.005-.1,3.429,3.429,0,0,1,.708-1.94,5.61,5.61,0,0,1,1.723-1.515v0l5.7-3.293.041-.025a2.212,2.212,0,0,1,1.93-.027,5.525,5.525,0,0,1,1.821,1.232,7.321,7.321,0,0,1,1.908,4.3,15.446,15.446,0,0,1-.445,5.845Z" transform="translate(-2337.313 -525.301)" fill="#143d66" fill-rule="evenodd"/>
      <path id="Tracé_15418" data-name="Tracé 15418" d="M2654.2,1727.155l-.512,3.736-.85.357-.92,3.17-1-.7c.184-4.327.1-3.531,1.276-6.859l.886-7.822a1.624,1.624,0,0,1,.205-.647c1.4-2.846,2.371-5.772,3.816-8.457,1.334-2.48,4.232.209,2.907,2.379l-4.073,6.749Z" transform="translate(-2336.617 -526.227)" fill="#fff" fill-rule="evenodd"/>
      <path id="Tracé_15419" data-name="Tracé 15419" d="M2654.862,1727.19l-.507,3.692a.79.79,0,0,1-.511.638l-.467.2-.816,2.808a.791.791,0,0,1-.979.54.823.823,0,0,1-.232-.111v0l-1-.7a.794.794,0,0,1-.335-.739l.02-.481a25.231,25.231,0,0,1,.245-3.312,13.017,13.017,0,0,1,.656-2.132c.092-.253.2-.546.366-1.024l.883-7.771a2.351,2.351,0,0,1,.093-.445,2.292,2.292,0,0,1,.206-.467l.006-.01c.577-1.182,1.111-2.455,1.64-3.715.67-1.6,1.332-3.176,2.159-4.713a2.31,2.31,0,0,1,2.248-1.4,2.39,2.39,0,0,1,1.111.393,2.993,2.993,0,0,1,.824.817,3.059,3.059,0,0,1,.1,3.359h0l-4,6.637-1.7,7.942Zm-2.013,3.034.446-3.252a.579.579,0,0,1,.014-.1l1.727-8.062a.8.8,0,0,1,.1-.274l4.072-6.749h0l0,0a1.5,1.5,0,0,0-.055-1.646,1.393,1.393,0,0,0-.383-.383.788.788,0,0,0-.366-.137c-.235-.019-.5.142-.729.573-.779,1.447-1.432,3-2.093,4.577-.519,1.236-1.043,2.484-1.684,3.795a.734.734,0,0,1-.05.1.891.891,0,0,0-.1.3l0,.041-.885,7.81a.811.811,0,0,1-.042.189c-.12.342-.271.76-.4,1.122a12.138,12.138,0,0,0-.588,1.878,14.835,14.835,0,0,0-.17,1.937l.3-1.035a.79.79,0,0,1,.452-.507Z" transform="translate(-2336.502 -526.111)" fill="#143d66" fill-rule="evenodd"/>
      <path id="Tracé_15420" data-name="Tracé 15420" d="M2663.777,1702.176l3.47.635-.348,3.347a.763.763,0,0,1-.011.1,1.013,1.013,0,0,1-.735.709,3.173,3.173,0,0,1-2.825-.517,1.012,1.012,0,0,1-.437-.923.634.634,0,0,1,.027-.1Z" transform="translate(-2338.129 -525.37)" fill="#fff" fill-rule="evenodd"/>
      <path id="Tracé_15421" data-name="Tracé 15421" d="M2663.835,1701.289l3.441.629a.791.791,0,0,1,.644.859l-.347,3.336,0,.064c0,.035-.01.072-.016.113a1.548,1.548,0,0,1-.462.841,2.166,2.166,0,0,1-.784.472,3.974,3.974,0,0,1-3.6-.66,2.173,2.173,0,0,1-.57-.72,1.541,1.541,0,0,1-.133-.947,1.035,1.035,0,0,1,.024-.113v0a.45.45,0,0,1,.02-.067l.853-3.233a.792.792,0,0,1,.939-.571Zm2.435,2.053-2.029-.372-.671,2.546-.012.034s.005-.006.006,0a.612.612,0,0,0,.16.187,2.385,2.385,0,0,0,2.048.375.631.631,0,0,0,.219-.119l0,0,.276-2.65Zm-.276,2.652v0Zm-2.444-.419c0,.01,0,0,0-.005Z" transform="translate(-2338.016 -525.255)" fill="#143d66" fill-rule="evenodd"/>
      <path id="Tracé_15422" data-name="Tracé 15422" d="M2667.12,1692.248a3.41,3.41,0,0,0-4.1,2.744l-.385,4.2c-.163,1.765.487,3.584,2.487,3.95,1.915.349,3.208-.994,3.723-2.814l1.143-4.057A3.4,3.4,0,0,0,2667.12,1692.248Z" transform="translate(-2338.096 -524.106)" fill="#fff" fill-rule="evenodd"/>
      <path id="Tracé_15423" data-name="Tracé 15423" d="M2666.864,1692.912c-.085-.016-.169-.027-.248-.034a3.011,3.011,0,0,0-1.9.465,2.2,2.2,0,0,0-1,1.429l0,.023c-.009.052-.015.1-.021.155l-.384,4.194a3.535,3.535,0,0,0,.413,2.177,2.214,2.214,0,0,0,3.089.562,3.542,3.542,0,0,0,1.156-1.887l1.144-4.057c.019-.068.033-.128.043-.183a2.192,2.192,0,0,0-.424-1.673,2.982,2.982,0,0,0-1.6-1.108c-.095-.026-.184-.047-.266-.062Zm-.1-1.609c.133.012.263.029.39.052.146.026.281.058.409.094a4.581,4.581,0,0,1,2.454,1.71,3.753,3.753,0,0,1,.7,2.882c-.021.116-.046.224-.075.326l-1.144,4.056a5.106,5.106,0,0,1-1.727,2.725,3.8,3.8,0,0,1-5.383-.983,5.1,5.1,0,0,1-.65-3.163l.386-4.195c.009-.1.021-.193.038-.288l0-.031a3.764,3.764,0,0,1,1.7-2.472A4.6,4.6,0,0,1,2666.759,1691.3Z" transform="translate(-2337.982 -523.992)" fill="#143d66" fill-rule="evenodd"/>
      <path id="Tracé_15424" data-name="Tracé 15424" d="M2665.041,1697.371l-1.16,6.156a2.411,2.411,0,0,1-1.914,1.441l-2.164-.371c1.709-3.111,1.108-5.776,1.662-8.663.608-3.171,2.375-5.459,5.523-4.933,2.939.492,3.391,2.98,3.084,4.653l-1.265.377Z" transform="translate(-2337.742 -523.947)" fill="#eafff9" fill-rule="evenodd"/>
      <path id="Tracé_15425" data-name="Tracé 15425" d="M2665.619,1697.851l-1.076,5.712h0l0,.011a.818.818,0,0,1-.023.093,2.847,2.847,0,0,1-1.117,1.406,2.542,2.542,0,0,1-1.681.56c-.67-.071-1.484-.253-2.164-.37a.793.793,0,0,1-.648-.915.81.81,0,0,1,.1-.269,12.036,12.036,0,0,0,1.257-5.47,22.685,22.685,0,0,1,.31-2.94,7.866,7.866,0,0,1,2.225-4.448,4.83,4.83,0,0,1,4.207-1.116h.006l.082.014c.022,0,.044.008.066.015a4.232,4.232,0,0,1,3.175,2.269,5.309,5.309,0,0,1,.42,3.194v.006h0l-.013.072a.792.792,0,0,1-.585.632l-1.221.364-3.313,1.179Zm-2.631,5.409,1.153-6.116a.792.792,0,0,1,.521-.634l3.8-1.353.773-.23a3.538,3.538,0,0,0-.319-1.817,2.723,2.723,0,0,0-2.056-1.422l-.126-.02v0a3.318,3.318,0,0,0-2.886.734,6.342,6.342,0,0,0-1.723,3.568,20.9,20.9,0,0,0-.285,2.735,14.592,14.592,0,0,1-.983,5.176c.38.066.772.123,1.149.2a2.223,2.223,0,0,0,.473-.291,1.474,1.474,0,0,0,.5-.5l.005-.026Z" transform="translate(-2337.627 -523.832)" fill="#143d66" fill-rule="evenodd"/>
      <path id="Tracé_15426" data-name="Tracé 15426" d="M2682.576,1723.071l4.948-2.718,2.538-2.653-4.948,2.717Z" transform="translate(-2340.621 -527.334)" fill="#fff" fill-rule="evenodd"/>
      <path id="Tracé_15427" data-name="Tracé 15427" d="M2687.79,1720.934l-4.948,2.718a.792.792,0,0,1-.955-1.241l2.515-2.629a.784.784,0,0,1,.216-.174l4.948-2.717v0a.789.789,0,0,1,.95,1.237l-2.491,2.6A.766.766,0,0,1,2687.79,1720.934Z" transform="translate(-2340.508 -527.22)" fill="#143d66" fill-rule="evenodd"/>
    </g>
    <line id="Ligne_34" data-name="Ligne 34" x2="537" transform="translate(313.5 1382.5)" fill="none" stroke="#134f76" stroke-width="1" stroke-dasharray="6"/>
    <line id="Ligne_35" data-name="Ligne 35" x2="395" transform="translate(1074.5 1378.5)" fill="none" stroke="#134f76" stroke-width="1" stroke-dasharray="6"/>
    <g id="Groupe_1824" data-name="Groupe 1824" transform="translate(-791.412 630.366)">
      <g id="Groupe_1823" data-name="Groupe 1823" transform="translate(1416.714 804.452)">
        <path id="Tracé_18965" data-name="Tracé 18965" d="M1413.937,879.388h0a4.177,4.177,0,0,1,.11-6.013l17.756-16.3,4.572,4.534-16.425,17.668A4.178,4.178,0,0,1,1413.937,879.388Z" transform="translate(-1412.714 -857.078)" fill="none" stroke="#04c38f" stroke-linecap="round" stroke-linejoin="round" stroke-width="2"/>
      </g>
      <g id="Tracé_18966" data-name="Tracé 18966" transform="translate(-27.531 -7)" fill="none" stroke-linecap="round" stroke-linejoin="round">
        <path d="M1463.647,812.022l3.563,3.563a1.066,1.066,0,0,0,1.508,0l2.675-2.675a15.727,15.727,0,1,0-5.071-5.071l-2.675,2.675A1.067,1.067,0,0,0,1463.647,812.022Zm7.052-3.49c-.107-.107-.208-.216-.31-.326a12.7,12.7,0,1,1,18.554.035c-.092.1-.181.2-.277.291A12.719,12.719,0,0,1,1470.7,808.532Z" stroke="none"/>
        <path d="M 1467.963500976562 815.896728515625 C 1468.236450195312 815.896728515625 1468.509521484375 815.7925415039062 1468.717529296875 815.5841674804688 L 1471.392700195312 812.9091796875 C 1473.923095703125 814.4791870117188 1476.806640625 815.264892578125 1479.688720703125 815.264892578125 C 1483.714233398438 815.264892578125 1487.737915039062 813.7337036132812 1490.802856445312 810.6687622070312 C 1496.93505859375 804.5369873046875 1496.93505859375 794.5597534179688 1490.802856445312 788.4277954101562 C 1487.737060546875 785.3618774414062 1483.709838867188 783.828857421875 1479.682495117188 783.828857421875 C 1475.6552734375 783.828857421875 1471.6279296875 785.3618774414062 1468.561889648438 788.4277954101562 C 1463.302368164062 793.6874389648438 1462.55859375 801.7733764648438 1466.321655273438 807.8378295898438 L 1463.646728515625 810.5128173828125 C 1463.22998046875 810.9293212890625 1463.22998046875 811.6047973632812 1463.646728515625 812.0215454101562 L 1467.20947265625 815.5841674804688 C 1467.41748046875 815.7925415039062 1467.690551757812 815.896728515625 1467.963500976562 815.896728515625 M 1479.682495117188 786.84912109375 C 1482.935913085938 786.84912109375 1486.189331054688 788.087646484375 1488.666137695312 790.5645751953125 C 1493.524536132812 795.4228515625 1493.61474609375 803.2675170898438 1488.94287109375 808.240966796875 C 1488.85107421875 808.3385620117188 1488.761474609375 808.4371948242188 1488.666137695312 808.5320434570312 C 1486.189331054688 811.0089111328125 1482.935913085938 812.247314453125 1479.682495117188 812.247314453125 C 1476.429077148438 812.247314453125 1473.175659179688 811.0089111328125 1470.698608398438 808.5320434570312 C 1470.591918945312 808.4253540039062 1470.491088867188 808.3156127929688 1470.388793945312 808.2062377929688 C 1465.75048828125 803.2310180664062 1465.851806640625 795.4115600585938 1470.698608398438 790.5645751953125 C 1473.175659179688 788.087646484375 1476.429077148438 786.84912109375 1479.682495117188 786.84912109375 M 1467.963500976562 817.896728515625 C 1467.1435546875 817.896728515625 1466.373046875 817.5772094726562 1465.7939453125 816.9971313476562 L 1462.232543945312 813.435791015625 C 1461.653198242188 812.8564453125 1461.334106445312 812.0862426757812 1461.334106445312 811.26708984375 C 1461.334106445312 810.4476928710938 1461.6533203125 809.6774291992188 1462.23291015625 809.0982055664062 L 1463.839965820312 807.4910888671875 C 1462.327392578125 804.461669921875 1461.701416015625 801.0111083984375 1462.069946289062 797.615234375 C 1462.283203125 795.6506958007812 1462.81640625 793.7527465820312 1463.654663085938 791.9740600585938 C 1464.522705078125 790.1322631835938 1465.697875976562 788.46337890625 1467.147705078125 787.0136108398438 C 1468.837036132812 785.3242797851562 1470.809814453125 784.015869140625 1473.011352539062 783.124755859375 C 1475.135498046875 782.264892578125 1477.380004882812 781.828857421875 1479.682495117188 781.828857421875 C 1481.984985351562 781.828857421875 1484.2294921875 782.264892578125 1486.353637695312 783.124755859375 C 1488.55517578125 784.0159301757812 1490.52783203125 785.3242797851562 1492.217041015625 787.0136108398438 C 1493.906372070312 788.702880859375 1495.21484375 790.6756591796875 1496.106079101562 792.8770751953125 C 1496.965942382812 795.0012817382812 1497.401977539062 797.2457885742188 1497.401977539062 799.54833984375 C 1497.401977539062 801.8508911132812 1496.965942382812 804.0953979492188 1496.106079101562 806.2195434570312 C 1495.21484375 808.4210205078125 1493.906372070312 810.3937377929688 1492.217041015625 812.0830078125 C 1490.5283203125 813.771728515625 1488.556518554688 815.0795288085938 1486.356323242188 815.9700927734375 C 1484.233764648438 816.8292236328125 1481.990356445312 817.264892578125 1479.688720703125 817.264892578125 C 1476.912109375 817.264892578125 1474.193603515625 816.6209716796875 1471.738647460938 815.3916015625 L 1470.131713867188 816.9984130859375 C 1469.553955078125 817.5772094726562 1468.783447265625 817.896728515625 1467.963500976562 817.896728515625 Z M 1479.6826171875 788.84912109375 C 1476.8193359375 788.84912109375 1474.131103515625 789.9606323242188 1472.11279296875 791.9788208007812 C 1470.141967773438 793.9497680664062 1469.031616210938 796.5745239257812 1468.986572265625 799.36962890625 C 1468.941528320312 802.1583862304688 1469.958984375 804.8123168945312 1471.851684570312 806.8424072265625 L 1471.904296875 806.8988647460938 C 1471.978881835938 806.978759765625 1472.049194335938 807.05419921875 1472.11279296875 807.1177368164062 C 1474.131103515625 809.1359252929688 1476.8193359375 810.2473754882812 1479.6826171875 810.2473754882812 C 1482.545654296875 810.2473754882812 1485.23388671875 809.1359252929688 1487.251953125 807.1178588867188 C 1487.253173828125 807.1165771484375 1487.25439453125 807.1153564453125 1487.255615234375 807.1141357421875 C 1487.300048828125 807.0700073242188 1487.353515625 807.0126342773438 1487.41015625 806.951904296875 L 1487.486083984375 806.87060546875 C 1489.391235351562 804.842529296875 1490.418823242188 802.1849365234375 1490.378540039062 799.3883666992188 C 1490.338256835938 796.5861206054688 1489.227905273438 793.9547119140625 1487.251953125 791.9788208007812 C 1485.23388671875 789.9605712890625 1482.545654296875 788.84912109375 1479.6826171875 788.84912109375 Z" stroke="none" fill="#04c38f"/>
      </g>
    </g>
    <g id="Groupe_1830" data-name="Groupe 1830" transform="translate(-940.303 -270.362)">
      <g id="Groupe_1827" data-name="Groupe 1827" transform="translate(2181.502 1672.625)">
        <g id="Groupe_1825" data-name="Groupe 1825" transform="translate(4.578 30.22)">
          <path id="Tracé_18967" data-name="Tracé 18967" d="M2205.912,1777.828a1.807,1.807,0,0,1,2.475.755,25.279,25.279,0,0,0,17.107,12.96,25.022,25.022,0,0,0,21.835-6.32,25.89,25.89,0,0,0,6.287-9.472l-4.767,2.962a1.8,1.8,0,0,1-2.509-.624,1.889,1.889,0,0,1,.611-2.563l7.615-4.731a3.394,3.394,0,0,1,3.244-.363,3.514,3.514,0,0,1,2.123,2.628l1.644,8.788a1.864,1.864,0,0,1-1.451,2.182,1.815,1.815,0,0,1-2.137-1.482l-1-5.348a29.21,29.21,0,0,1-7.174,10.758,28.791,28.791,0,0,1-19.653,7.778,27.234,27.234,0,0,1-5.374-.53,28.973,28.973,0,0,1-19.615-14.848A1.885,1.885,0,0,1,2205.912,1777.828Z" transform="translate(-2204.953 -1770.176)" fill="none" stroke="#04c38f" stroke-linecap="round" stroke-linejoin="round" stroke-width="2"/>
        </g>
        <g id="Groupe_1826" data-name="Groupe 1826">
          <path id="Tracé_18968" data-name="Tracé 18968" d="M2248.019,1700.367a1.805,1.805,0,0,1-2.474-.755,25.281,25.281,0,0,0-17.107-12.96,25.027,25.027,0,0,0-21.836,6.32,25.9,25.9,0,0,0-6.287,9.472l4.767-2.962a1.8,1.8,0,0,1,2.51.624,1.888,1.888,0,0,1-.611,2.563l-7.615,4.731a3.394,3.394,0,0,1-3.244.364,3.516,3.516,0,0,1-2.123-2.628l-1.644-8.788a1.864,1.864,0,0,1,1.451-2.182,1.815,1.815,0,0,1,.345-.033,1.837,1.837,0,0,1,1.792,1.516l1,5.348a29.217,29.217,0,0,1,7.174-10.758,28.8,28.8,0,0,1,19.654-7.777,27.257,27.257,0,0,1,5.373.53,28.975,28.975,0,0,1,19.615,14.848A1.885,1.885,0,0,1,2248.019,1700.367Z" transform="translate(-2192.322 -1682.462)" fill="none" stroke="#04c38f" stroke-linecap="round" stroke-linejoin="round" stroke-width="2"/>
        </g>
      </g>
      <g id="Groupe_1829" data-name="Groupe 1829" transform="translate(2199.46 1691.562)">
        <path id="Tracé_18969" data-name="Tracé 18969" d="M2271.061,1747.344V1732.3a.572.572,0,0,0-.82-.492l-7.1,3.22V1732.3a.572.572,0,0,0-.82-.492l-7.1,3.22V1732.3a.572.572,0,0,0-.821-.492l-7.792,3.536a.543.543,0,0,0-.326.491v11.316" transform="translate(-2246.293 -1731.754)" fill="none" stroke="#04c38f" stroke-linecap="round" stroke-linejoin="round" stroke-width="2"/>
        <g id="Groupe_1828" data-name="Groupe 1828" transform="translate(3.057 9.17)">
          <rect id="Rectangle_894" data-name="Rectangle 894" width="3.377" height="3.211" rx="1.605" fill="none" stroke="#04c38f" stroke-linecap="round" stroke-linejoin="round" stroke-width="2"/>
          <rect id="Rectangle_895" data-name="Rectangle 895" width="3.377" height="3.211" rx="1.605" transform="translate(7.638)" fill="none" stroke="#04c38f" stroke-linecap="round" stroke-linejoin="round" stroke-width="2"/>
          <rect id="Rectangle_896" data-name="Rectangle 896" width="3.377" height="3.211" rx="1.605" transform="translate(15.276)" fill="none" stroke="#04c38f" stroke-linecap="round" stroke-linejoin="round" stroke-width="2"/>
        </g>
        <path id="Rectangle_897" data-name="Rectangle 897" d="M0,0H24.768a0,0,0,0,1,0,0V0a3.749,3.749,0,0,1-3.749,3.749H3.749A3.749,3.749,0,0,1,0,0V0A0,0,0,0,1,0,0Z" transform="translate(0 15.59)" fill="none" stroke="#04c38f" stroke-linecap="round" stroke-linejoin="round" stroke-width="2"/>
      </g>
    </g>
    <text id="Ma_recherche_est_étudiée_par_l_équipe" data-name="Ma recherche est étudiée par l’équipe" transform="translate(1170 1467)" fill="#04c38f" font-size="20" font-family="Helvetica-Bold, Helvetica" font-weight="700"><tspan x="20.291" y="15">Ma recherche est </tspan><tspan x="8.089" y="40">étudiée par l’équipe</tspan></text>
  </g>
</svg>
