<svg xmlns="http://www.w3.org/2000/svg" width="50.476" height="78.157" viewBox="0 0 50.476 78.157">
  <g id="Group_1039" data-name="Group 1039" transform="translate(1 1)">
    <g id="Groupe_1314" data-name="Groupe 1314">
      <path id="Path_10551" data-name="Path 10551" d="M622.208,232.375a24.238,24.238,0,1,0-39.314,18.973,7.99,7.99,0,0,1,3.037,6.254v8.171h24.082V257.6a7.961,7.961,0,0,1,3.015-6.237A24.181,24.181,0,0,0,622.208,232.375Z" transform="translate(-573.732 -208.131)" fill="rgba(0,0,0,0)" stroke="#134f76" stroke-miterlimit="10" stroke-width="2"/>
      <path id="Rectangle_563" data-name="Rectangle 563" d="M585.9,266.329h24.365v6.351a8.854,8.854,0,0,1-8.853,8.854h-6.659a8.854,8.854,0,0,1-8.853-8.854v-6.351Z" transform="translate(-573.849 -208.689)" fill="rgba(0,0,0,0)" stroke="#134f76" stroke-miterlimit="10" stroke-width="2"/>
      <path id="Path_10552" data-name="Path 10552" d="M609.174,280.087a4.89,4.89,0,0,1-4.889,4.891H591.913a4.89,4.89,0,0,1-4.891-4.889v0" transform="translate(-573.859 -208.82)" fill="rgba(0,0,0,0)" stroke="#134f76" stroke-miterlimit="10" stroke-width="2"/>
      <path id="Path_10553" data-name="Path 10553" d="M602.236,216.105s12.357,2.535,12.041,16.793" transform="translate(-574.005 -208.207)" fill="rgba(0,0,0,0)" stroke="#134f76" stroke-miterlimit="10" stroke-width="2"/>
    </g>
  </g>
</svg>
