<svg xmlns="http://www.w3.org/2000/svg" width="1042.5" height="22" viewBox="0 0 1042.5 22">
  <g id="Groupe_2242" data-name="Groupe 2242" transform="translate(-389.5 -5083)">
    <g id="Groupe_2241" data-name="Groupe 2241">
      <path id="Tracé_19015" data-name="Tracé 19015" d="M0,0H1012" transform="translate(409 5093.043)" fill="none" stroke="#143d66" stroke-width="2"/>
      <g id="Tracé_19290" data-name="Tracé 19290" transform="translate(389.5 5083)" fill="#01e3a6">
        <path d="M 11 20.00002288818359 C 5.485980033874512 20.00002288818359 1 15.7383337020874 1 10.50001335144043 C 1 5.261693477630615 5.485980033874512 1.000003337860107 11 1.000003337860107 C 16.5140209197998 1.000003337860107 21 5.261693477630615 21 10.50001335144043 C 21 15.7383337020874 16.5140209197998 20.00002288818359 11 20.00002288818359 Z" stroke="none"/>
        <path d="M 11 2.000003814697266 C 6.037380218505859 2.000003814697266 2 5.813093185424805 2 10.50001335144043 C 2 15.18693351745605 6.037380218505859 19.00002288818359 11 19.00002288818359 C 15.96261978149414 19.00002288818359 20 15.18693351745605 20 10.50001335144043 C 20 5.813093185424805 15.96261978149414 2.000003814697266 11 2.000003814697266 M 11 3.814697265625e-06 C 17.07513046264648 3.814697265625e-06 22 4.701013565063477 22 10.50001335144043 C 22 16.29901313781738 17.07513046264648 21.00002288818359 11 21.00002288818359 C 4.924869537353516 21.00002288818359 0 16.29901313781738 0 10.50001335144043 C 0 4.701013565063477 4.924869537353516 3.814697265625e-06 11 3.814697265625e-06 Z" stroke="none" fill="#143d66"/>
      </g>
      <g id="Ellipse_38" data-name="Ellipse 38" transform="translate(923.999 5084)" fill="#01e3a6" stroke="#143d66" stroke-width="2">
        <ellipse cx="11" cy="10.5" rx="11" ry="10.5" stroke="none"/>
        <ellipse cx="11" cy="10.5" rx="10" ry="9.5" fill="none"/>
      </g>
      <g id="Tracé_19291" data-name="Tracé 19291" transform="translate(1410 5083)" fill="#01e3a6">
        <path d="M 11 20.00002288818359 C 5.485980033874512 20.00002288818359 1 15.7383337020874 1 10.50001335144043 C 1 5.261693477630615 5.485980033874512 1.000003337860107 11 1.000003337860107 C 16.5140209197998 1.000003337860107 21 5.261693477630615 21 10.50001335144043 C 21 15.7383337020874 16.5140209197998 20.00002288818359 11 20.00002288818359 Z" stroke="none"/>
        <path d="M 11 2.000003814697266 C 6.037380218505859 2.000003814697266 2 5.813093185424805 2 10.50001335144043 C 2 15.18693351745605 6.037380218505859 19.00002288818359 11 19.00002288818359 C 15.96261978149414 19.00002288818359 20 15.18693351745605 20 10.50001335144043 C 20 5.813093185424805 15.96261978149414 2.000003814697266 11 2.000003814697266 M 11 3.814697265625e-06 C 17.07513046264648 3.814697265625e-06 22 4.701013565063477 22 10.50001335144043 C 22 16.29901313781738 17.07513046264648 21.00002288818359 11 21.00002288818359 C 4.924869537353516 21.00002288818359 0 16.29901313781738 0 10.50001335144043 C 0 4.701013565063477 4.924869537353516 3.814697265625e-06 11 3.814697265625e-06 Z" stroke="none" fill="#143d66"/>
      </g>
    </g>
  </g>
</svg>
