<svg xmlns="http://www.w3.org/2000/svg" width="1102" height="23" viewBox="0 0 1102 23">
  <g id="Groupe_2240" data-name="Groupe 2240" transform="translate(-404.5 -2230)">
    <line id="Ligne_46" data-name="Ligne 46" x2="1102" transform="translate(404.5 2241.5)" fill="none"/>
    <g id="Groupe_2081" data-name="Groupe 2081" transform="translate(0 80)">
      <path id="Tracé_19015" data-name="Tracé 19015" d="M0,0H959.5" transform="translate(465.5 2160.5)" fill="none" stroke="#143d66" stroke-width="2"/>
      <g id="Tracé_19290" data-name="Tracé 19290" transform="translate(446 2150)" fill="#01e3a6">
        <path d="M 11 21 C 5.485980033874512 21 1 16.5140209197998 1 11 C 1 5.485980033874512 5.485980033874512 1 11 1 C 16.5140209197998 1 21 5.485980033874512 21 11 C 21 16.5140209197998 16.5140209197998 21 11 21 Z" stroke="none"/>
        <path d="M 11 2 C 6.037380218505859 2 2 6.037380218505859 2 11 C 2 15.96261978149414 6.037380218505859 20 11 20 C 15.96261978149414 20 20 15.96261978149414 20 11 C 20 6.037380218505859 15.96261978149414 2 11 2 M 11 0 C 17.07513046264648 0 22 4.924869537353516 22 11 C 22 17.07513046264648 17.07513046264648 22 11 22 C 4.924869537353516 22 0 17.07513046264648 0 11 C 0 4.924869537353516 4.924869537353516 0 11 0 Z" stroke="none" fill="#143d66"/>
      </g>
      <g id="Ellipse_38" data-name="Ellipse 38" transform="translate(953 2151)" fill="#01e3a6" stroke="#143d66" stroke-width="2">
        <circle cx="11" cy="11" r="11" stroke="none"/>
        <circle cx="11" cy="11" r="10" fill="none"/>
      </g>
      <g id="Tracé_19291" data-name="Tracé 19291" transform="translate(1414 2150)" fill="#01e3a6">
        <path d="M 11 21 C 5.485980033874512 21 1 16.5140209197998 1 11 C 1 5.485980033874512 5.485980033874512 1 11 1 C 16.5140209197998 1 21 5.485980033874512 21 11 C 21 16.5140209197998 16.5140209197998 21 11 21 Z" stroke="none"/>
        <path d="M 11 2 C 6.037380218505859 2 2 6.037380218505859 2 11 C 2 15.96261978149414 6.037380218505859 20 11 20 C 15.96261978149414 20 20 15.96261978149414 20 11 C 20 6.037380218505859 15.96261978149414 2 11 2 M 11 0 C 17.07513046264648 0 22 4.924869537353516 22 11 C 22 17.07513046264648 17.07513046264648 22 11 22 C 4.924869537353516 22 0 17.07513046264648 0 11 C 0 4.924869537353516 4.924869537353516 0 11 0 Z" stroke="none" fill="#143d66"/>
      </g>
    </g>
  </g>
</svg>
