<svg xmlns="http://www.w3.org/2000/svg" width="241.393" height="357.041" viewBox="0 0 241.393 357.041">
  <g id="Groupe_1068" data-name="Groupe 1068" transform="translate(-2065.108 -865.15)">
    <g id="Groupe_1067" data-name="Groupe 1067" transform="translate(2102.119 1083.937)">
      <path id="Tracé_10652" data-name="Tracé 10652" d="M2167.834,1209.4c8.872-4.865,18.149-7.728,27.657-2.749-6.913-3.992-17-11.19-24.071-12.07-7.275-.9-14.054,1.76-20.286,5.176-21.581,13.1-37.118,39.486-39.006,64.577l16.7,9.641C2130.718,1248.887,2146.252,1222.5,2167.834,1209.4Z" transform="translate(-2109.842 -1138.009)" fill="#00cef0" fill-rule="evenodd"/>
      <path id="Tracé_10653" data-name="Tracé 10653" d="M2166.287,1206.95a43.956,43.956,0,0,1,14.348-5.329c.67-.1,1.337-.179,2.011-.233-4.289-2.46-8.586-4.562-11.951-4.98a23.776,23.776,0,0,0-9.622.888,46.484,46.484,0,0,0-9.285,4.02l-.065.033c-10.312,6.3-19.219,15.765-25.81,26.678a83.535,83.535,0,0,0-11.826,34.612l12.369,7.143a88.774,88.774,0,0,1,12.235-34.477c6.98-11.559,16.472-21.606,27.512-28.305l.084-.05Zm15.029-.8a39.755,39.755,0,0,0-12.829,4.807c-10.343,6.293-19.272,15.776-25.877,26.713a82.9,82.9,0,0,0-11.947,36.028,2.4,2.4,0,0,1-.306.968,2.283,2.283,0,0,1-3.114.84l-16.54-9.55a2.286,2.286,0,0,1-1.3-2.239,87.567,87.567,0,0,1,12.594-38.055c6.939-11.5,16.373-21.5,27.339-28.2l.252-.158a50.66,50.66,0,0,1,10.218-4.4,28.278,28.278,0,0,1,11.446-1.05c6.006.744,13.609,5.438,20.062,9.416,1.7,1.048,3.319,2.048,4.88,2.948a2.285,2.285,0,0,1-2.2,4l-.09-.047A20.059,20.059,0,0,0,2181.316,1206.15Z" transform="translate(-2109.392 -1137.559)" fill="#0087ca" fill-rule="evenodd"/>
      <path id="Tracé_10654" data-name="Tracé 10654" d="M2187.209,1140.856c-5.077-2.931-16.408-10.5-21.037-11.072-22.672-2.817-47.349,46.165-28.187,57.767l16.7,9.641C2133.684,1183.873,2165.224,1129.331,2187.209,1140.856Z" transform="translate(-2112.96 -1127.377)" fill="#a6edf8" fill-rule="evenodd"/>
      <path id="Tracé_10655" data-name="Tracé 10655" d="M2183.874,1136c1.533.936,2.91,1.783,4.033,2.43a2.284,2.284,0,0,1-2.2,4c-6.445-3.381-14.107.1-20.683,6.6a56.539,56.539,0,0,0-14.195,24.55c-2.348,8.948-1.53,17.325,4.634,21.233a2.289,2.289,0,0,1-2.374,3.914c-4.575-2.661-12.868-6.772-16.735-9.672-4.876-2.954-7.309-7.9-7.851-13.786-.539-5.86.83-12.677,3.5-19.275a61.522,61.522,0,0,1,11.235-18.006c6.617-7.245,14.726-11.921,22.762-10.924,4.1.509,12.07,5.385,17.872,8.937Zm-7.3.927c-4.373-2.593-8.873-5.036-11.127-5.318-6.4-.794-13.147,3.245-18.824,9.459a56.874,56.874,0,0,0-10.379,16.644c-2.42,5.974-3.665,12.047-3.2,17.144.413,4.456,2.162,8.152,5.633,10.273l7.354,4.241c-1.512-4.94-1.225-10.868.372-16.954a61.288,61.288,0,0,1,15.394-26.648C2166.353,1141.261,2171.447,1138.019,2176.575,1136.925Z" transform="translate(-2112.511 -1126.927)" fill="#0087ca" fill-rule="evenodd"/>
      <path id="Tracé_10656" data-name="Tracé 10656" d="M2198.773,1208.549c-15.27-8.817-40.029,5.488-55.3,31.928-6.489,11.237-10.7,23.782-11.362,35.4l78.026-45.048C2209.481,1219.969,2205.262,1212.295,2198.773,1208.549Z" transform="translate(-2113.123 -1139.904)" fill="#a6edf8" fill-rule="evenodd"/>
      <path id="Tracé_10657" data-name="Tracé 10657" d="M2197.189,1210.076c-6.873-3.963-16.064-2.627-25.363,2.741l-.119.065c-9.638,5.6-19.3,15.468-26.706,28.292l-.073.115a89.96,89.96,0,0,0-7.686,17.277,72.11,72.11,0,0,0-2.892,12.669l72.947-42.115a31.262,31.262,0,0,0-3.053-11.331,18.256,18.256,0,0,0-7.056-7.713Zm-27.654-1.215c10.707-6.181,21.533-7.585,29.927-2.741a22.775,22.775,0,0,1,8.865,9.595,36.779,36.779,0,0,1,3.643,14.526,2.3,2.3,0,0,1-1.147,2.112l-77.908,44.981a2.286,2.286,0,0,1-3.536-2.036,73.37,73.37,0,0,1,3.51-18.129,94.666,94.666,0,0,1,8.085-18.154l.07-.135c7.8-13.5,18.063-23.955,28.361-29.938Z" transform="translate(-2112.674 -1139.455)" fill="#0087ca" fill-rule="evenodd"/>
      <path id="Tracé_10658" data-name="Tracé 10658" d="M2197.252,1157.645c0-7.334-2.578-12.49-6.736-14.891s-9.916-2.053-16.263,1.613-12.106,9.958-16.264,17.166-6.74,15.336-6.74,22.67,2.576,12.485,6.74,14.888C2172.424,1207.425,2197.252,1181.231,2197.252,1157.645Z" transform="translate(-2116.266 -1129.275)" fill="#fff" fill-rule="evenodd"/>
      <path id="Tracé_10659" data-name="Tracé 10659" d="M2194.51,1157.2a19.966,19.966,0,0,0-1.536-8.209,9.419,9.419,0,0,0-10.152-5.864,19.945,19.945,0,0,0-7.876,2.767,37.485,37.485,0,0,0-8.287,6.693,52.7,52.7,0,0,0-11.924,20.658,37.257,37.257,0,0,0-1.644,10.515,19.933,19.933,0,0,0,1.538,8.207,10.055,10.055,0,0,0,4.057,4.7,9.71,9.71,0,0,0,4.919,1.268c4,0,8.475-2.04,12.755-5.417a49.98,49.98,0,0,0,11.89-14.062l.068-.112c3.757-6.548,6.193-13.989,6.193-21.147Zm2.636-10.09a24.475,24.475,0,0,1,1.948,10.09c0,7.973-2.681,16.209-6.815,23.413l-.073.138a54.559,54.559,0,0,1-13.021,15.352c-5.071,4-10.527,6.417-15.581,6.417a14.232,14.232,0,0,1-7.212-1.894,14.568,14.568,0,0,1-5.937-6.78,24.391,24.391,0,0,1-1.951-10.086,41.751,41.751,0,0,1,1.845-11.814,57.639,57.639,0,0,1,13-22.508,41.815,41.815,0,0,1,9.31-7.5,24.536,24.536,0,0,1,9.718-3.36,13.976,13.976,0,0,1,14.771,8.528Z" transform="translate(-2115.815 -1128.826)" fill="#0087ca" fill-rule="evenodd"/>
    </g>
    <path id="Tracé_10660" data-name="Tracé 10660" d="M2237.862,1228.144l16.7,9.643c1.886-25.09,17.423-51.48,39-64.577,8.873-4.863,18.147-7.728,27.658-2.748-6.915-3.992-17-11.191-24.07-12.069-7.275-.9-14.057,1.76-20.286,5.176C2255.284,1176.666,2239.75,1203.056,2237.862,1228.144Z" transform="translate(-28.371 -48.129)" fill="#00ffba" fill-rule="evenodd"/>
    <path id="Tracé_10661" data-name="Tracé 10661" d="M2239.818,1226.446l12.367,7.141a88.828,88.828,0,0,1,12.239-34.472c6.977-11.556,16.471-21.6,27.51-28.3l.084-.048a43.943,43.943,0,0,1,14.348-5.331c.669-.1,1.341-.179,2.012-.233-4.286-2.461-8.586-4.562-11.952-4.982a23.78,23.78,0,0,0-9.621.886,46.682,46.682,0,0,0-9.287,4.023l-.063.032c-10.314,6.3-19.221,15.766-25.812,26.679a83.421,83.421,0,0,0-11.824,34.609Zm13.147,12.871-16.591-9.58a2.3,2.3,0,0,1-1.243-2.212,87.552,87.552,0,0,1,12.593-38.052c6.944-11.5,16.374-21.5,27.341-28.2l.25-.161a51.134,51.134,0,0,1,10.218-4.4,28.316,28.316,0,0,1,11.448-1.048c6.006.746,13.609,5.435,20.059,9.418,1.7,1.048,3.317,2.045,4.879,2.948a2.285,2.285,0,0,1-2.2,4l-.09-.047a20.043,20.043,0,0,0-12.58-2.031,39.735,39.735,0,0,0-12.829,4.807c-10.345,6.291-19.272,15.775-25.876,26.71a82.986,82.986,0,0,0-11.95,36.029,2.315,2.315,0,0,1-.3.976A2.291,2.291,0,0,1,2252.965,1239.317Z" transform="translate(-27.921 -47.679)" fill="#0087ca" fill-rule="evenodd"/>
    <path id="Tracé_10662" data-name="Tracé 10662" d="M2312.94,1104.666c-5.077-2.933-16.408-10.5-21.039-11.071-22.672-2.818-47.349,46.165-28.187,57.768l16.7,9.641C2259.414,1147.684,2290.954,1093.14,2312.94,1104.666Z" transform="translate(-31.488 -37.497)" fill="#00ffba" fill-rule="evenodd"/>
    <path id="Tracé_10663" data-name="Tracé 10663" d="M2309.6,1099.808c1.533.936,2.911,1.782,4.033,2.43a2.284,2.284,0,0,1-2.2,4c-6.445-3.38-14.109.1-20.685,6.6a56.471,56.471,0,0,0-14.19,24.545c-2.351,8.947-1.533,17.324,4.631,21.234a2.286,2.286,0,0,1-2.362,3.912c-5.56-3.192-11.254-6.373-16.745-9.667-4.88-2.954-7.313-7.9-7.852-13.789-.538-5.862.828-12.675,3.5-19.279a61.451,61.451,0,0,1,11.238-18c6.615-7.243,14.724-11.92,22.757-10.922,4.1.511,12.073,5.386,17.873,8.939Zm-7.3.924c-4.376-2.589-8.875-5.035-11.131-5.315-6.4-.794-13.145,3.24-18.82,9.455a56.774,56.774,0,0,0-10.378,16.642c-2.422,5.976-3.668,12.047-3.2,17.146.406,4.465,2.16,8.165,5.642,10.283l7.341,4.24c-1.514-4.94-1.225-10.871.374-16.96a61.251,61.251,0,0,1,15.39-26.643C2292.083,1105.074,2297.177,1101.828,2302.308,1100.733Z" transform="translate(-31.04 -37.047)" fill="#0087ca" fill-rule="evenodd"/>
    <path id="Tracé_10664" data-name="Tracé 10664" d="M2324.505,1172.358c-15.272-8.815-40.029,5.489-55.3,31.93-6.488,11.238-10.7,23.779-11.362,35.395l78.025-45.048C2335.211,1183.778,2330.994,1176.1,2324.505,1172.358Z" transform="translate(-31.652 -50.024)" fill="#a6edf8" fill-rule="evenodd"/>
    <path id="Tracé_10665" data-name="Tracé 10665" d="M2322.918,1173.887c-6.871-3.966-16.063-2.627-25.362,2.74l-.12.066c-9.638,5.595-19.3,15.466-26.705,28.29l-.071.115a90.16,90.16,0,0,0-7.687,17.278,72.17,72.17,0,0,0-2.891,12.669l72.948-42.117a31.272,31.272,0,0,0-3.052-11.329,18.24,18.24,0,0,0-7.059-7.713Zm-27.654-1.216c10.709-6.181,21.535-7.586,29.926-2.741a22.739,22.739,0,0,1,8.866,9.595,36.735,36.735,0,0,1,3.644,14.527,2.3,2.3,0,0,1-1.146,2.113l-77.909,44.979a2.283,2.283,0,0,1-3.535-2.034,73.445,73.445,0,0,1,3.511-18.13,94.688,94.688,0,0,1,8.082-18.153l.071-.134c7.8-13.505,18.063-23.956,28.361-29.941Z" transform="translate(-31.203 -49.575)" fill="#0087ca" fill-rule="evenodd"/>
    <path id="Tracé_10666" data-name="Tracé 10666" d="M2322.981,1121.453c0-7.335-2.577-12.491-6.735-14.892s-9.917-2.051-16.263,1.613-12.1,9.96-16.264,17.169-6.74,15.336-6.74,22.67,2.578,12.485,6.74,14.888C2298.153,1171.236,2322.981,1145.04,2322.981,1121.453Z" transform="translate(-34.794 -39.395)" fill="#fff" fill-rule="evenodd"/>
    <path id="Tracé_10667" data-name="Tracé 10667" d="M2320.239,1121a19.952,19.952,0,0,0-1.536-8.209,9.409,9.409,0,0,0-10.152-5.864,19.948,19.948,0,0,0-7.871,2.772,37.185,37.185,0,0,0-8.292,6.69,52.617,52.617,0,0,0-11.923,20.66l-.028.084a37.381,37.381,0,0,0-1.615,10.426,19.911,19.911,0,0,0,1.539,8.206,10.046,10.046,0,0,0,4.054,4.7,9.708,9.708,0,0,0,4.921,1.269c4,0,8.476-2.04,12.755-5.419a49.922,49.922,0,0,0,11.888-14.06c3.8-6.576,6.261-14.064,6.261-21.259Zm2.637-10.09a24.46,24.46,0,0,1,1.947,10.09c0,8.029-2.711,16.317-6.888,23.551a54.561,54.561,0,0,1-13.018,15.352c-5.072,4-10.526,6.418-15.582,6.418a14.2,14.2,0,0,1-7.212-1.9,14.528,14.528,0,0,1-5.936-6.777,24.407,24.407,0,0,1-1.948-10.087,41.813,41.813,0,0,1,1.814-11.72l.027-.1a57.652,57.652,0,0,1,13-22.5,41.9,41.9,0,0,1,9.309-7.5,24.484,24.484,0,0,1,9.718-3.361,13.983,13.983,0,0,1,14.773,8.528Z" transform="translate(-34.345 -38.946)" fill="#0087ca" fill-rule="evenodd"/>
    <path id="Tracé_10668" data-name="Tracé 10668" d="M2179.214,985.64c0-3.425-.053-5.094,1.167-8.385a21.155,21.155,0,0,1,8.456-10.7l115.882-66.844a57.291,57.291,0,0,1,5.2-2.871,6.659,6.659,0,0,1,4.287-.389l-19.087-11.019a6.377,6.377,0,0,0-3.347.069,10.7,10.7,0,0,0-2.4,1.034l-115.883,66.845c-1.379.8-3.878,2.131-5.2,3.128-4.559,3.436-8.1,9.945-8.16,15.688l-.038,84.559a6.469,6.469,0,0,0,1.906,4.675l.157.15,19.087,11.019a6.439,6.439,0,0,1-2.064-4.826Z" transform="translate(-15.599 -3.298)" fill="#00ffba" fill-rule="evenodd"/>
    <path id="Tracé_10669" data-name="Tracé 10669" d="M2176.072,985.125l-.006-.433c0-3.439,0-5.265,1.331-8.856a25.871,25.871,0,0,1,3.938-7.005,20.867,20.867,0,0,1,5.647-5.055c38.351-20.453,79.14-45.109,116.772-67.358.8-.481,1.81-1.081,2.766-1.6l-12.951-7.477-.378,0a5.322,5.322,0,0,0-1.236.173,6.307,6.307,0,0,0-.874.315l-117.835,67.893a43.426,43.426,0,0,0-3.887,2.363,18.616,18.616,0,0,0-5.075,6.206,16.931,16.931,0,0,0-2.047,7.405l-.039,84.515a4.385,4.385,0,0,0,.31,1.605l.056.154a3.783,3.783,0,0,0,.689.995l12.789,7.383.033-81.226Zm5.259-.433-.049,82.553a4.169,4.169,0,0,0,.314,1.619,4.041,4.041,0,0,0,.947,1.327,2.623,2.623,0,0,1-3.125,4.164l-18.963-10.949a2.609,2.609,0,0,1-.637-.451l-.188-.179a8.9,8.9,0,0,1-1.88-2.729l-.12-.252a9.577,9.577,0,0,1-.679-3.537l.039-84.578a22.2,22.2,0,0,1,2.624-9.81,23.883,23.883,0,0,1,6.574-7.975,44.626,44.626,0,0,1,4.475-2.743c38.373-21.621,79.542-44.427,116.9-67.416a14.583,14.583,0,0,1,1.4-.712,11.737,11.737,0,0,1,1.592-.566,10.877,10.877,0,0,1,2.532-.358,6.513,6.513,0,0,1,2.491.377l.33.166,18.936,10.931a2.627,2.627,0,0,1-1.783,4.911,3.614,3.614,0,0,0-1.271-.1,5.171,5.171,0,0,0-1.409.374,42.971,42.971,0,0,0-3.955,2.176c-37.8,21.965-80.427,44.082-116.77,67.366a15.593,15.593,0,0,0-4.206,3.773,20.7,20.7,0,0,0-3.118,5.581A16.858,16.858,0,0,0,2181.331,984.692Z" transform="translate(-15.083 -2.783)" fill="#0087ca" fill-rule="evenodd"/>
    <path id="Tracé_10670" data-name="Tracé 10670" d="M2267.126,1032.852c23.092-11.976,32.092-1.566,46.779,6.673.134-12.151.442-23.458-2.21-33.846l.466-.268c5.3-3.056,9.619-10.54,9.621-16.661.01-23.845.03-59.625.038-83.468,0-6.119-4.314-8.622-9.611-5.565l-119.621,69c-5.295,3.056-9.619,10.543-9.622,16.659V987.8l-.037,82.131a6.633,6.633,0,0,0,9.947,5.749Z" transform="translate(-19.349 -5.462)" fill="#fff" fill-rule="evenodd"/>
    <path id="Tracé_10671" data-name="Tracé 10671" d="M2265.406,1030.007c20.842-10.809,30.871-4.582,42.886,2.88l2.528,1.56c.106-10.24.052-19.84-2.191-28.635a2.635,2.635,0,0,1,1.383-3.007l.451-.255a18.744,18.744,0,0,0,8.17-14.316l.048-83.466a6.286,6.286,0,0,0-.659-3.054l-.06-.108a2.306,2.306,0,0,0-.8-.793,2.362,2.362,0,0,0-1.2-.282,6,6,0,0,0-2.971.94l-119.623,69a18.788,18.788,0,0,0-8.3,14.388l-.038,84.557a4.112,4.112,0,0,0,.518,2.014l.064.115a4.047,4.047,0,0,0,1.426,1.345l.1.063a3.935,3.935,0,0,0,3.908-.06l74.354-42.89Zm40.112,7.344c-10.635-6.6-19.512-12.114-37.705-2.679l-74.15,42.77a9.021,9.021,0,0,1-9.078.091l-.177-.094a9.227,9.227,0,0,1-3.3-3.21l-.1-.165a9.2,9.2,0,0,1-1.227-4.644l.038-84.557a23.922,23.922,0,0,1,10.948-18.934l119.623-69a11.279,11.279,0,0,1,5.582-1.651,7.429,7.429,0,0,1,3.83.994,7.511,7.511,0,0,1,2.668,2.653l.1.163a11.288,11.288,0,0,1,1.368,5.682l-.048,83.466a22.259,22.259,0,0,1-3.175,10.8,23.384,23.384,0,0,1-6.539,7.354c2.109,9.529,1.99,19.679,1.861,30.495l-.022,1.986a2.629,2.629,0,0,1-3.908,2.439C2309.781,1040,2307.616,1038.654,2305.517,1037.351Z" transform="translate(-18.832 -4.947)" fill="#0087ca" fill-rule="evenodd"/>
    <path id="Tracé_10672" data-name="Tracé 10672" d="M2089.367,972.5c.074-6.621,4.482-14.26,10.184-17.632l122.628-70.737c3.375-1.947,6.96-4.792,10.792-3.164-2.709-1.565-20.56-12.089-21.839-12.457-3.489-1-7.146,1.781-10.036,3.45l-52.345,30.193-66.329,38.259c-5.371,3.1-8.3,4.6-11.487,10.486a20.48,20.48,0,0,0-2.651,9.427l-.042,89.183c.024,2.283.619,5.02,2.646,6.366l7.156,4.129c-1.827,11.529-1.628,22.064-1.5,33.634l21.086,12.174c-.153-14.223-.364-24.315,2.366-38.53l-10.664-6.157Z" transform="translate(-0.515 -0.517)" fill="#a7d6f4" fill-rule="evenodd"/>
    <path id="Tracé_10673" data-name="Tracé 10673" d="M2086.231,971.975a25.118,25.118,0,0,1,11.467-19.882l122.662-70.749,1.4-.842c.914-.556,1.841-1.121,2.793-1.617-6.079-3.544-14.079-8.194-14.657-8.359l-.158-.051c-1.843-.406-4.324,1.107-6.445,2.4-39.577,23.782-80.676,46.639-120.77,69.692-4.52,2.6-7.095,4.085-9.791,9.063a20.856,20.856,0,0,0-1.741,4.227,15.419,15.419,0,0,0-.6,3.974l-.038,89.143a7.927,7.927,0,0,0,.518,2.913,2.77,2.77,0,0,0,.952,1.283l7.013,4.046a2.624,2.624,0,0,1,1.283,2.683c-1.71,10.808-1.605,20.831-1.484,31.7l15.805,9.127c-.109-11.5-.021-20.675,2.116-32.615l-9.049-5.223a2.622,2.622,0,0,1-1.314-2.272l.039-88.637Zm7.876-8.713a18.475,18.475,0,0,0-2.633,8.745l-.041,87.093,9.171,5.292a2.631,2.631,0,0,1,1.452,2.869c-2.591,13.508-2.487,23.276-2.341,36.591l.013,1.282a2.625,2.625,0,0,1-3.937,2.435l-21.081-12.176a2.637,2.637,0,0,1-1.308-2.25l-.012-1.419c-.118-10.532-.224-20.288,1.281-30.859l-5.747-3.316a7.883,7.883,0,0,1-2.907-3.645,13.319,13.319,0,0,1-.911-4.891l.04-89.2a20.747,20.747,0,0,1,.786-5.377,26.084,26.084,0,0,1,2.173-5.3c3.4-6.277,6.45-8.034,11.805-11.116,40.087-23.044,81.039-45.9,120.648-69.628,3.016-1.842,6.545-3.992,10.512-2.989l.267.059c1.361.39,13.362,7.409,19.406,10.94l3.039,1.775a2.626,2.626,0,0,1-2.344,4.687c-2.044-.865-4.56.664-6.946,2.112l-1.524.909-122.6,70.728A18.455,18.455,0,0,0,2094.107,963.262Z" fill="#0087ca" fill-rule="evenodd"/>
    <path id="Tracé_10674" data-name="Tracé 10674" d="M2101.214,1104.547h0l-7.268,1.193-18.258-10.534,3.578,2.064-.05.315c-1.674,11.346-1.575,21.919-1.454,33.319l21.084,12.174c-.136-12.91-.2-24.392,2.112-37.207Z" transform="translate(-1.738 -37.781)" fill="#fff" fill-rule="evenodd"/>
    <path id="Tracé_10675" data-name="Tracé 10675" d="M2097.723,1107.291l-3.611.594a2.617,2.617,0,0,1-1.84-.384l-11.178-6.45c-.515,4.343-.783,8.575-.912,12.8-.151,4.977-.119,9.956-.067,15.082l15.811,9.131c-.034-4.841-.017-9.519.179-14.172a140.191,140.191,0,0,1,1.618-16.6Zm-3.539-4.736,6.2-1.018a2.628,2.628,0,0,1,3.156,3.058l-.253,1.324a131,131,0,0,0-1.936,18.177c-.254,6.016-.205,12.023-.14,18.372a2.625,2.625,0,0,1-3.937,2.436l-21.082-12.176a2.636,2.636,0,0,1-1.307-2.25c-.059-5.732-.115-11.262.054-16.773a148.581,148.581,0,0,1,1.215-15.5l-2.027-1.171,2.611-4.544,17.446,10.066Zm-13.811-7.971,1.225,2.649A2.627,2.627,0,0,0,2080.374,1094.584Z" transform="translate(-1.481 -37.335)" fill="#0087ca" fill-rule="evenodd"/>
    <path id="Tracé_10676" data-name="Tracé 10676" d="M2092.767,977.782l-21.088-12.172-3.387,10.7.576,92.86c1.236,3.172,4.854,4.322,9.184,6.82-1.834,11.642-1.625,21.968-1.5,33.636l21.086,12.172c-.149-14.277-.372-24.25,2.366-38.53l-10.665-6.157c.005-13.8-.888-87.242.661-93.019Z" transform="translate(-0.523 -16.498)" fill="#a7d6f4" fill-rule="evenodd"/>
    <path id="Tracé_10677" data-name="Tracé 10677" d="M2088.9,978.36,2072.686,969l-2.288,7.221.574,91.848c.745,1.329,2.613,2.31,4.938,3.531l.134.076c.864.454,1.789.944,2.8,1.524a2.628,2.628,0,0,1,1.285,2.674c-1.712,10.87-1.607,20.671-1.489,31.557l0,.158,15.807,9.123c-.11-11.529-.03-20.625,2.115-32.621l-9.049-5.223a2.622,2.622,0,0,1-1.314-2.272l-.073-14.73c-.176-29.543-.524-73.975.814-78.97l.132-.38,1.825-4.155Zm-16.428-15.537,20.9,12.067a2.629,2.629,0,0,1,1.287,3.438l-2.675,6.082c-1.13,5.407-.785,48.442-.615,77.435l.077,13.24,9.166,5.29a2.631,2.631,0,0,1,1.451,2.869c-2.586,13.5-2.483,23.137-2.343,36.393l.017,1.622a2.622,2.622,0,0,1-3.927,2.293l-21.036-12.145a2.618,2.618,0,0,1-1.365-2.278l-.016-1.658c-.115-10.5-.217-20.02,1.28-30.587l-1.21-.634c-3.5-1.839-6.246-3.284-7.559-6.653a2.614,2.614,0,0,1-.173-.934l-.577-92.651a2.62,2.62,0,0,1,.112-1.009l3.388-10.7.236-.515A2.624,2.624,0,0,1,2072.47,962.823Z" transform="translate(-0.006 -15.983)" fill="#0087ca" fill-rule="evenodd"/>
    <path id="Tracé_10678" data-name="Tracé 10678" d="M2311,939.775a2.626,2.626,0,1,1,2.63,4.546l-43.01,24.833a2.626,2.626,0,0,1-2.633-4.545Z" transform="translate(-33.103 -12.197)" fill="#0087ca" fill-rule="evenodd"/>
    <path id="Tracé_10679" data-name="Tracé 10679" d="M2303.607,973.925a2.626,2.626,0,0,1,2.632,4.544l-38.058,21.975a2.626,2.626,0,1,1-2.634-4.544Z" transform="translate(-32.702 -17.806)" fill="#0087ca" fill-rule="evenodd"/>
    <path id="Tracé_10680" data-name="Tracé 10680" d="M2211.55,1058.082a2.62,2.62,0,0,1-2.61-4.544l92.352-53.272a2.62,2.62,0,0,1,2.613,4.543Z" transform="translate(-23.405 -22.132)" fill="#0087ca" fill-rule="evenodd"/>
    <path id="Tracé_10681" data-name="Tracé 10681" d="M2240.415,980.321c.008-25.567.03-64.621.041-90.189,0-6.476-4.575-9.118-10.178-5.886l-126.585,73.02c-5.609,3.233-10.18,11.153-10.18,17.629l-.042,89.182c0,6.466,4.566,9.122,10.173,5.883l.49-.283c-2.808,14.2-2.5,25.8-2.367,38.53,4.084-6.992,8.153-13.964,12.18-20.992,25.667-44.834,76.1-67.369,116-89.105a19.736,19.736,0,0,0,7.383-7.581A20.207,20.207,0,0,0,2240.415,980.321Z" transform="translate(-4.658 -2.909)" fill="#fff" fill-rule="evenodd"/>
    <path id="Tracé_10682" data-name="Tracé 10682" d="M2237.271,979.8l.046-90.189a6.827,6.827,0,0,0-.711-3.3,2.448,2.448,0,0,0-2.319-1.331,6.649,6.649,0,0,0-3.221,1.022l-126.583,73.016a19.979,19.979,0,0,0-8.867,15.36l-.041,89.182a6.828,6.828,0,0,0,.712,3.3,2.741,2.741,0,0,0,.968,1.006,2.67,2.67,0,0,0,1.347.323,6.623,6.623,0,0,0,3.214-1.018l.486-.286a2.623,2.623,0,0,1,3.891,2.772,140.974,140.974,0,0,0-2.4,28.451l7.356-12.72c22.987-40.154,65.185-62.537,102.421-82.291,5.122-2.715,10.146-5.381,14.606-7.81a14.186,14.186,0,0,0,3.368-2.6,20.992,20.992,0,0,0,3.009-4.008,21.272,21.272,0,0,0,2.053-4.6,15.035,15.035,0,0,0,.668-4.276Zm5.293-90.189-.047,90.189a19.624,19.624,0,0,1-.878,5.8,26.465,26.465,0,0,1-2.567,5.738,26.132,26.132,0,0,1-3.766,5.016,19.476,19.476,0,0,1-4.623,3.544c-5.037,2.745-9.817,5.28-14.668,7.851-36.6,19.417-78.069,41.414-100.3,80.254l-12.19,21.012a2.628,2.628,0,0,1-4.894-1.3l-.023-2.18c-.118-10.64-.231-20.649,1.6-32.218a9.252,9.252,0,0,1-1.606.144,7.742,7.742,0,0,1-6.854-3.962,11.864,11.864,0,0,1-1.424-5.933l.05-89.182a25.1,25.1,0,0,1,11.5-19.9l126.584-73.016a11.776,11.776,0,0,1,5.832-1.739,7.727,7.727,0,0,1,6.858,3.966A11.775,11.775,0,0,1,2242.563,889.615Z" transform="translate(-4.141 -2.392)" fill="#0087ca" fill-rule="evenodd"/>
    <path id="Tracé_10683" data-name="Tracé 10683" d="M2123.74,989.443a2.621,2.621,0,0,1-2.612-4.544l85.56-49.308a2.62,2.62,0,1,1,2.611,4.543Z" transform="translate(-8.984 -11.511)" fill="#0087ca" fill-rule="evenodd"/>
    <path id="Tracé_10684" data-name="Tracé 10684" d="M2123.728,1019.093a2.621,2.621,0,1,1-2.613-4.543l97.731-56.374a2.621,2.621,0,1,1,2.612,4.544Z" transform="translate(-8.982 -15.22)" fill="#0087ca" fill-rule="evenodd"/>
    <path id="Tracé_10685" data-name="Tracé 10685" d="M2123.714,1056.011a2.621,2.621,0,0,1-2.61-4.546l62.928-36.3a2.62,2.62,0,1,1,2.611,4.544Z" transform="translate(-8.98 -24.579)" fill="#0087ca" fill-rule="evenodd"/>
    <path id="Tracé_10686" data-name="Tracé 10686" d="M2093.356,1102.158a2.62,2.62,0,0,1-2.61,4.544l-20.41-11.782a2.621,2.621,0,0,1,2.612-4.544Z" transform="translate(-0.643 -36.931)" fill="#0087ca" fill-rule="evenodd"/>
  </g>
</svg>
