<svg xmlns="http://www.w3.org/2000/svg" xmlns:xlink="http://www.w3.org/1999/xlink" width="189.557" height="51.659" viewBox="0 0 189.557 51.659">
  <defs>
    <linearGradient id="linear-gradient" x1="0.062" y1="0.233" x2="0.764" y2="0.265" gradientUnits="objectBoundingBox">
      <stop offset="0" stop-color="#00ffba"/>
      <stop offset="1" stop-color="#143d66"/>
    </linearGradient>
  </defs>
  <g id="Groupe_1822" data-name="Groupe 1822" transform="translate(0 0)">
    <path id="Tracé_12748" data-name="Tracé 12748" d="M5985.52,3236.982c0-.413,0-.969-.061-1.622a14.371,14.371,0,0,0-.47-2.715,11.126,11.126,0,0,0-1.107-2.744,8.856,8.856,0,0,0-4-3.761,10.856,10.856,0,0,0-2.532-.894,11.4,11.4,0,0,0-2.305-.259,13.035,13.035,0,0,0-2.744.228,10.641,10.641,0,0,0-2.715.849,9.876,9.876,0,0,0-2.456,1.653,10.018,10.018,0,0,0-1.593,1.926,10.814,10.814,0,0,0-1.409,3.4,14.394,14.394,0,0,0-.077,6.034,10.819,10.819,0,0,0,1.122,3.048,10.4,10.4,0,0,0,4.079,4.033,10.515,10.515,0,0,0,3.306,1.062,13.468,13.468,0,0,0,4.9-.077,10.472,10.472,0,0,0,2.351-.651,10.678,10.678,0,0,0,2.5-1.517,10.963,10.963,0,0,0,1.728-1.744,10.638,10.638,0,0,0,1.318-2.168c-.3-.019-.734-.042-1.258-.045a11.946,11.946,0,0,0-2.108.106,5.481,5.481,0,0,0-2,.591c-.208.117-.311.2-.712.425-.45.252-.895.473-1.167.591a7.984,7.984,0,0,1-2.533.576,7.235,7.235,0,0,1-2.759-.228,5.481,5.481,0,0,1-2.032-1.015,5.4,5.4,0,0,1-1.292-1.559,6.11,6.11,0,0,1-.658-2.057,8.049,8.049,0,0,1-.113-1.464Zm-16.873-1.98a6.792,6.792,0,0,1,.061-1,6.533,6.533,0,0,1,.325-1.336,5.864,5.864,0,0,1,.9-1.617,5.672,5.672,0,0,1,1.486-1.3,5.794,5.794,0,0,1,1.92-.728,6.771,6.771,0,0,1,2.335-.051,5.51,5.51,0,0,1,2.285.778,5.356,5.356,0,0,1,1.233,1.1,5.683,5.683,0,0,1,1.1,2.153l-9.113.014Z" transform="translate(-5925.478 -3205.798)" fill="#143d66"/>
    <path id="Tracé_12749" data-name="Tracé 12749" d="M6580.5,3237.23c0-.414,0-.969-.061-1.623a14.258,14.258,0,0,0-.471-2.714,11.022,11.022,0,0,0-1.106-2.744,8.838,8.838,0,0,0-4-3.761,10.815,10.815,0,0,0-2.531-.895,11.384,11.384,0,0,0-2.305-.258,13.018,13.018,0,0,0-2.745.228,10.642,10.642,0,0,0-2.714.849,9.878,9.878,0,0,0-2.457,1.653,10.1,10.1,0,0,0-1.591,1.926,10.769,10.769,0,0,0-1.411,3.4,14.431,14.431,0,0,0-.075,6.034,10.8,10.8,0,0,0,1.122,3.048,10.409,10.409,0,0,0,4.078,4.033,10.515,10.515,0,0,0,3.306,1.061,13.475,13.475,0,0,0,4.9-.075,10.453,10.453,0,0,0,2.351-.651,10.7,10.7,0,0,0,2.5-1.517,10.858,10.858,0,0,0,1.73-1.744,10.678,10.678,0,0,0,1.319-2.168c-.3-.02-.734-.042-1.26-.046a12.041,12.041,0,0,0-2.106.107,5.481,5.481,0,0,0-2,.591c-.208.117-.311.2-.711.424-.451.252-.9.473-1.168.592a8.007,8.007,0,0,1-2.533.576,7.272,7.272,0,0,1-2.76-.228,5.5,5.5,0,0,1-2.031-1.016,5.316,5.316,0,0,1-1.292-1.559,6.027,6.027,0,0,1-.658-2.057,8.054,8.054,0,0,1-.114-1.463Zm-16.874-1.981a6.953,6.953,0,0,1,.062-1,6.6,6.6,0,0,1,.323-1.336,5.88,5.88,0,0,1,.9-1.617,5.639,5.639,0,0,1,1.485-1.3,5.8,5.8,0,0,1,1.922-.728,6.752,6.752,0,0,1,2.334-.051,5.5,5.5,0,0,1,2.286.779,5.387,5.387,0,0,1,1.232,1.1,5.676,5.676,0,0,1,1.1,2.154l-9.111.013Z" transform="translate(-6390.941 -3205.992)" fill="#143d66"/>
    <path id="Tracé_12750" data-name="Tracé 12750" d="M5946.629,3250.318" transform="translate(-5912.076 -3225.617)" fill="#134f76"/>
    <path id="Tracé_12751" data-name="Tracé 12751" d="M6131.848,3196.4" transform="translate(-6056.977 -3183.437)" fill="#fff"/>
    <path id="Tracé_12752" data-name="Tracé 12752" d="M6081.828,3191.206a3.181,3.181,0,0,0-.529-.879,3.388,3.388,0,0,0-2.569-1.177,3.485,3.485,0,0,0-.994.149,3.335,3.335,0,0,0-1.634,1.035,3.129,3.129,0,0,0-.514.868L6062.5,3219.25l5.292.076,4.608-10.341h12.041l4.413,10.311,5.4.03C6087.276,3203.59,6082.249,3192.23,6081.828,3191.206Zm-5.115,13.532q-1.851,1.456-3.7,2.913l5.531-12.388q2.056,4.784,4.109,9.568Z" transform="translate(-6002.721 -3177.763)" fill="#143d66"/>
    <path id="Tracé_12753" data-name="Tracé 12753" d="M6272.447,3309.481" transform="translate(-6166.97 -3271.902)" fill="#fff" stroke="#00a19a" stroke-miterlimit="10" stroke-width="0.701"/>
    <path id="Tracé_12754" data-name="Tracé 12754" d="M6228.352,3186.869a2.412,2.412,0,0,0-1.6-.553,2.377,2.377,0,0,0-1.364.476,2.526,2.526,0,0,0-.925,1.691,2.43,2.43,0,0,0-.02.3q-.011,4.223-.021,8.447a6.992,6.992,0,0,0-.559-.455,7.894,7.894,0,0,0-2.191-1.083,10.716,10.716,0,0,0-2.548-.465,10.885,10.885,0,0,0-4.083.425,10.636,10.636,0,0,0-4.911,3.354,11.508,11.508,0,0,0,4.051,18.154,12.9,12.9,0,0,0,6.476.943,13.244,13.244,0,0,0,3.645-.939l4.862-.036.03-28.529A2.467,2.467,0,0,0,6228.352,3186.869Zm-6.869,26.307a9.456,9.456,0,0,1-1.533.172,7.692,7.692,0,0,1-4.541-1.032,6.671,6.671,0,0,1-3.153-5.543,7.188,7.188,0,0,1,.406-2.722,5.868,5.868,0,0,1,5.614-4.092,6.341,6.341,0,0,1,3.683.894,6.257,6.257,0,0,1,2.295,2.507l.076,11.956Q6222.905,3214.247,6221.483,3213.176Z" transform="translate(-6116.032 -3175.546)" fill="#143d66"/>
    <path id="Tracé_12755" data-name="Tracé 12755" d="M6342.859,3228.511a2.569,2.569,0,0,0-.984-1.138,2.491,2.491,0,0,0-1.272-.351,2.431,2.431,0,0,0-.718.106,2.351,2.351,0,0,0-.811.456,2.8,2.8,0,0,0-.526.637,4.366,4.366,0,0,0-.314.568c-1.378,2.85-3.39,6.946-4.626,9.512-.146.3-.294.608-.44.911v5.618c-2.219-4.907-5.005-11.251-7.25-16.219a2.529,2.529,0,0,0-.12-.266l-.027-.061-.006,0a2.47,2.47,0,1,0-4.281,2.464c2.592,5.787,5.724,12.932,8.288,18.649h3.843c2.751-5.647,6.391-13.047,9.193-18.794l.033-.071.079-.158a2.219,2.219,0,0,0,.153-.883A2.547,2.547,0,0,0,6342.859,3228.511Z" transform="translate(-6205.063 -3207.393)" fill="#143d66"/>
    <path id="Tracé_12756" data-name="Tracé 12756" d="M6438.409,3229.044a2.386,2.386,0,0,0-4.329.038,2.492,2.492,0,0,0-.242,1.27l-.062,19.269h4.885v-19.439h0A2.428,2.428,0,0,0,6438.409,3229.044Z" transform="translate(-6293.181 -3207.907)" fill="#143d66"/>
    <circle id="Ellipse_22" data-name="Ellipse 22" cx="3.084" cy="3.084" r="3.084" transform="translate(139.954 10.904)" fill="#143d66"/>
    <path id="Tracé_12757" data-name="Tracé 12757" d="M6483.528,3245.622h-.027c-.061,0-.121-.009-.182-.009-.042,0-.082,0-.124.007l-5.383-.053-3.891,2.982q1.02-1.481,2.044-2.962c1.483-2.305,3.1-4.645,4.757-7.068,1.544-2.253,3-4.3,4.242-5.809l0,0a2.761,2.761,0,0,0,.589-1.655c0-.025,0-.046,0-.068a2.47,2.47,0,0,0-1.4-2.163,2.515,2.515,0,0,0-1.269-.242c-6.424-.021-6.229-.012-12.652-.032v.019a2.511,2.511,0,0,0-.323-.021,2.445,2.445,0,1,0,0,4.89,2.386,2.386,0,0,0,.323-.022v.019c4.384,0,5.738-.013,8.163-.021q-3.911,6.049-8.308,12.192-.875,1.218-1.752,2.414c-.269.392-.6.848-.946,1.305-.2.266-.416.534-.457.585q-.226.285-.441.546l17.069-.017a2.343,2.343,0,0,0,1.41-.523,2.551,2.551,0,0,0,.17-3.576A2.415,2.415,0,0,0,6483.528,3245.622Z" transform="translate(-6318.771 -3208.583)" fill="#143d66"/>
    <path id="Tracé_12758" data-name="Tracé 12758" d="M6539.265,3303.329" transform="translate(-6375.708 -3267.089)" fill="#fff"/>
    <path id="Tracé_12759" data-name="Tracé 12759" d="M5823.446,3236.335a10.163,10.163,0,0,0-3.943-6.587,10.687,10.687,0,0,0-6.888-2.219c-2.75.06-10.324.03-20.661,0a3.845,3.845,0,0,0-.422.01,4.181,4.181,0,0,0-2,.712,3.737,3.737,0,0,0-1.415,1.684,3.361,3.361,0,0,0-.224,1.286v28.221l12.865-9.678h12.559a11.707,11.707,0,0,0,3.541-.825,11.377,11.377,0,0,0,3.824-2.526,11.193,11.193,0,0,0,2.738-5.194A11.577,11.577,0,0,0,5823.446,3236.335Zm-5.465,2.561a5.232,5.232,0,0,1-2.584,4.332,6.206,6.206,0,0,1-2.939.932h-13.751l-5.206,4.084q.02-7.634.036-15.268h19.216a4.663,4.663,0,0,1,3.813,1.505,5.113,5.113,0,0,1,1.063,1.841A6.206,6.206,0,0,1,5817.98,3238.9Z" transform="translate(-5787.896 -3207.786)" fill="#143d66"/>
    <path id="Tracé_12760" data-name="Tracé 12760" d="M5819.013,3170.71a7.348,7.348,0,0,0-.355-1.149,10.4,10.4,0,0,0-.908-1.889,9.592,9.592,0,0,0-2.462-2.605,9.849,9.849,0,0,0-4.542-1.793,9.724,9.724,0,0,0-1.334-.076l-.181,0h-.015c-.063,0-5.812,0-18.574,0l-.061,0h.017a2.5,2.5,0,0,1,1.409.431,2.5,2.5,0,0,0-1.4-.426,2.728,2.728,0,0,0-2.513,2.513,2.526,2.526,0,0,0,2.513,2.512l.046,0h19.363c.152.023.369.058.621.12a4.815,4.815,0,0,1,1.411.526,4.2,4.2,0,0,1,1.184,1.063,4.461,4.461,0,0,1,.584.957,4.115,4.115,0,0,1,.252.729c.031.136.058.272.125.559.01.047.021.094.033.14a2.5,2.5,0,0,0,4.824-.005c.01-.035.017-.071.024-.106a2.632,2.632,0,0,0,.056-.446c0-.021,0-.041,0-.062v-.021A3.564,3.564,0,0,0,5819.013,3170.71Z" transform="translate(-5788.052 -3157.461)" fill="url(#linear-gradient)"/>
    <path id="Tracé_12761" data-name="Tracé 12761" d="M5849.9,3137.874" transform="translate(-5836.4 -3137.65)" fill="#134f76" stroke="#00a19a" stroke-miterlimit="10" stroke-width="0.117"/>
    <path id="Tracé_12762" data-name="Tracé 12762" d="M5894.571,3136.844" transform="translate(-5871.35 -3136.844)" fill="#134f76"/>
    <path id="Tracé_12763" data-name="Tracé 12763" d="M5827.02,3137.874" transform="translate(-5818.503 -3137.65)" fill="#134f76" stroke="#00a19a" stroke-miterlimit="10" stroke-width="0.117"/>
    <path id="Tracé_12764" data-name="Tracé 12764" d="M5871.695,3136.844" transform="translate(-5853.453 -3136.844)" fill="#134f76"/>
  </g>
</svg>
