<svg xmlns="http://www.w3.org/2000/svg" xmlns:xlink="http://www.w3.org/1999/xlink" width="227" height="61.864" viewBox="0 0 227 61.864">
  <defs>
    <linearGradient id="linear-gradient" x1="0.062" y1="0.233" x2="1.238" y2="0.218" gradientUnits="objectBoundingBox">
      <stop offset="0" stop-color="#01e3a6"/>
      <stop offset="1" stop-color="#0f6cc9"/>
    </linearGradient>
  </defs>
  <g id="Groupe_1592" data-name="Groupe 1592" transform="translate(-5787.895 -3136.844)">
    <path id="Tracé_12748" data-name="Tracé 12748" d="M5989.817,3239.352a19.175,19.175,0,0,0-.073-1.942,17.126,17.126,0,0,0-.562-3.251,13.3,13.3,0,0,0-1.325-3.287,10.612,10.612,0,0,0-4.794-4.5,12.983,12.983,0,0,0-3.033-1.071,13.674,13.674,0,0,0-2.76-.309,15.56,15.56,0,0,0-3.286.273,12.756,12.756,0,0,0-3.251,1.016,11.814,11.814,0,0,0-2.942,1.979,12.062,12.062,0,0,0-1.907,2.306,12.908,12.908,0,0,0-1.687,4.068,15.1,15.1,0,0,0-.419,3.2,15.332,15.332,0,0,0,.327,4.031,12.989,12.989,0,0,0,1.344,3.65,12.456,12.456,0,0,0,4.885,4.83,12.592,12.592,0,0,0,3.959,1.272,16.137,16.137,0,0,0,5.864-.092,12.48,12.48,0,0,0,2.814-.78,12.774,12.774,0,0,0,3-1.816,13.086,13.086,0,0,0,2.069-2.088,12.755,12.755,0,0,0,1.579-2.6c-.359-.024-.878-.051-1.507-.054a14.31,14.31,0,0,0-2.524.126,6.569,6.569,0,0,0-2.4.708c-.249.14-.372.24-.853.509-.539.3-1.071.566-1.4.708a9.581,9.581,0,0,1-3.034.69,8.682,8.682,0,0,1-3.3-.273,6.552,6.552,0,0,1-2.434-1.216,6.474,6.474,0,0,1-1.546-1.866,7.307,7.307,0,0,1-.787-2.464,9.735,9.735,0,0,1-.136-1.753Zm-20.205-2.371a8.136,8.136,0,0,1,.073-1.2,7.8,7.8,0,0,1,.389-1.6,7.051,7.051,0,0,1,1.077-1.937,6.777,6.777,0,0,1,1.78-1.561,6.936,6.936,0,0,1,2.3-.872,8.108,8.108,0,0,1,2.8-.06,6.591,6.591,0,0,1,2.736.932,6.4,6.4,0,0,1,1.477,1.319,6.8,6.8,0,0,1,1.319,2.578l-10.912.017Z" transform="translate(-130.022 -65.164)" fill="#fff"/>
    <path id="Tracé_12749" data-name="Tracé 12749" d="M6584.794,3239.6c.005-.5,0-1.161-.072-1.944a17.023,17.023,0,0,0-.564-3.25,13.267,13.267,0,0,0-1.325-3.286,10.582,10.582,0,0,0-4.794-4.5,12.954,12.954,0,0,0-3.031-1.072,13.611,13.611,0,0,0-2.761-.309,15.592,15.592,0,0,0-3.286.273,12.739,12.739,0,0,0-3.251,1.017,11.83,11.83,0,0,0-2.941,1.979,12.062,12.062,0,0,0-1.906,2.307,12.943,12.943,0,0,0-1.69,4.067,17.287,17.287,0,0,0-.089,7.227,12.9,12.9,0,0,0,1.344,3.65,12.464,12.464,0,0,0,4.883,4.83,12.6,12.6,0,0,0,3.958,1.27,16.131,16.131,0,0,0,5.866-.091,12.485,12.485,0,0,0,2.815-.78,12.944,12.944,0,0,0,6.646-6.5c-.361-.024-.88-.051-1.509-.055a14.41,14.41,0,0,0-2.522.128,6.557,6.557,0,0,0-2.4.708c-.249.14-.372.239-.852.508-.54.3-1.074.567-1.4.709a9.584,9.584,0,0,1-3.034.689,8.7,8.7,0,0,1-3.3-.272,6.586,6.586,0,0,1-2.433-1.216,6.393,6.393,0,0,1-1.546-1.867,7.257,7.257,0,0,1-.788-2.464,9.748,9.748,0,0,1-.135-1.752Zm-20.206-2.372a8.369,8.369,0,0,1,.074-1.2,7.889,7.889,0,0,1,.387-1.6,7,7,0,0,1,1.079-1.937,6.757,6.757,0,0,1,1.777-1.562,6.924,6.924,0,0,1,2.3-.871,8.061,8.061,0,0,1,2.8-.061,6.6,6.6,0,0,1,2.737.932,6.466,6.466,0,0,1,1.476,1.32,6.8,6.8,0,0,1,1.319,2.579l-10.911.016Z" transform="translate(-569.901 -65.347)" fill="#fff"/>
    <path id="Tracé_12750" data-name="Tracé 12750" d="M5946.629,3250.318" transform="translate(-117.356 -83.894)" fill="#134f76"/>
    <path id="Tracé_12751" data-name="Tracé 12751" d="M6131.848,3196.4" transform="translate(-254.292 -44.032)" fill="#fff"/>
    <path id="Tracé_12752" data-name="Tracé 12752" d="M6085.647,3191.612a3.8,3.8,0,0,0-.634-1.053,4.056,4.056,0,0,0-3.075-1.409,4.171,4.171,0,0,0-1.191.178,4,4,0,0,0-1.956,1.24,3.725,3.725,0,0,0-.616,1.039L6062.5,3225.2l6.337.091,5.519-12.384h14.419l5.284,12.348,6.464.036C6092.171,3206.442,6086.15,3192.839,6085.647,3191.612Zm-6.125,16.2q-2.216,1.744-4.43,3.488,3.311-7.418,6.624-14.835,2.462,5.729,4.922,11.458Z" transform="translate(-203.018 -38.67)" fill="#fff"/>
    <path id="Tracé_12753" data-name="Tracé 12753" d="M6272.447,3309.481" transform="translate(-358.24 -127.634)" fill="#fff" stroke="#00a19a" stroke-miterlimit="10" stroke-width="0.701"/>
    <path id="Tracé_12754" data-name="Tracé 12754" d="M6232.5,3186.979a2.891,2.891,0,0,0-1.915-.662,2.848,2.848,0,0,0-1.633.57,3.032,3.032,0,0,0-1.107,2.025,2.929,2.929,0,0,0-.023.357q-.014,5.057-.024,10.115a8.444,8.444,0,0,0-.669-.544,9.459,9.459,0,0,0-2.625-1.3,12.847,12.847,0,0,0-3.051-.556,13.04,13.04,0,0,0-4.89.508,12.745,12.745,0,0,0-5.882,4.017,13.782,13.782,0,0,0,4.851,21.74,15.451,15.451,0,0,0,7.756,1.129,15.842,15.842,0,0,0,4.365-1.124l5.822-.043.036-34.165A2.956,2.956,0,0,0,6232.5,3186.979Zm-8.228,31.5a11.292,11.292,0,0,1-1.835.206,9.208,9.208,0,0,1-5.437-1.236,7.986,7.986,0,0,1-3.777-6.638,8.608,8.608,0,0,1,.487-3.26,7.026,7.026,0,0,1,6.723-4.9,7.6,7.6,0,0,1,4.411,1.071,7.494,7.494,0,0,1,2.748,3q.045,7.159.091,14.318Z" transform="translate(-310.102 -36.575)" fill="#fff"/>
    <path id="Tracé_12755" data-name="Tracé 12755" d="M6347.15,3228.805a3.082,3.082,0,0,0-1.181-1.362,2.983,2.983,0,0,0-1.523-.421,2.9,2.9,0,0,0-.86.128,2.806,2.806,0,0,0-.97.546,3.343,3.343,0,0,0-.63.763,5.239,5.239,0,0,0-.377.68c-1.651,3.413-4.06,8.319-5.54,11.391-.175.364-.352.728-.526,1.091v6.728c-2.657-5.876-6-13.473-8.683-19.423a2.93,2.93,0,0,0-.143-.318l-.033-.074-.006,0a2.958,2.958,0,1,0-5.127,2.95c3.1,6.93,6.854,15.486,9.926,22.332h4.6c3.294-6.762,7.653-15.624,11.009-22.507l.04-.084c.032-.063.063-.127.094-.19a2.64,2.64,0,0,0,.184-1.057A3.091,3.091,0,0,0,6347.15,3228.805Z" transform="translate(-394.239 -66.671)" fill="#fff"/>
    <path id="Tracé_12756" data-name="Tracé 12756" d="M6439.323,3229.314a2.856,2.856,0,0,0-5.184.045,3,3,0,0,0-.291,1.521l-.073,23.076h5.85v-23.279h0A2.93,2.93,0,0,0,6439.323,3229.314Z" transform="translate(-477.514 -67.157)" fill="#fff"/>
    <circle id="Ellipse_22" data-name="Ellipse 22" cx="3.693" cy="3.693" r="3.693" transform="translate(5955.494 3149.902)" fill="#fff"/>
    <path id="Tracé_12757" data-name="Tracé 12757" d="M6486.9,3249v0h-.033c-.073-.005-.145-.011-.218-.011-.049,0-.1.006-.147.008l-6.447-.063-4.66,3.571q1.225-1.774,2.449-3.547c1.776-2.761,3.707-5.562,5.7-8.464,1.849-2.7,3.593-5.145,5.08-6.956l0,0a3.314,3.314,0,0,0,.7-1.982c0-.03,0-.055,0-.082a2.959,2.959,0,0,0-1.678-2.59,3.008,3.008,0,0,0-1.52-.29c-7.694-.025-7.458-.014-15.15-.038v.022a3,3,0,0,0-.388-.026,2.928,2.928,0,1,0,.388,5.829v.022c5.249,0,6.871-.015,9.773-.025q-4.682,7.244-9.948,14.6-1.047,1.458-2.1,2.891c-.324.469-.715,1.016-1.133,1.563-.244.318-.5.639-.548.7q-.27.341-.528.654l20.44-.021a2.8,2.8,0,0,0,1.688-.625,2.906,2.906,0,0,0-1.72-5.137Z" transform="translate(-501.699 -67.796)" fill="#fff"/>
    <path id="Tracé_12758" data-name="Tracé 12758" d="M6539.265,3303.329" transform="translate(-555.505 -123.086)" fill="#fff"/>
    <path id="Tracé_12759" data-name="Tracé 12759" d="M5830.468,3238.075a12.172,12.172,0,0,0-4.722-7.888,12.8,12.8,0,0,0-8.248-2.657c-3.294.072-12.363.037-24.742,0a4.67,4.67,0,0,0-.506.012,5,5,0,0,0-2.392.853,4.478,4.478,0,0,0-1.7,2.016,4.03,4.03,0,0,0-.268,1.541v33.8l15.406-11.59h15.038a14.02,14.02,0,0,0,4.24-.988,13.638,13.638,0,0,0,4.581-3.025,13.412,13.412,0,0,0,3.278-6.219A13.877,13.877,0,0,0,5830.468,3238.075Zm-6.545,3.067a6.263,6.263,0,0,1-3.095,5.188,7.436,7.436,0,0,1-3.52,1.117h-16.467l-6.234,4.891q.023-9.142.043-18.284h23.012a5.589,5.589,0,0,1,4.565,1.8,6.129,6.129,0,0,1,1.272,2.205A7.45,7.45,0,0,1,5823.923,3241.142Z" transform="translate(0 -67.042)" fill="#fff"/>
    <path id="Tracé_12760" data-name="Tracé 12760" d="M5825.121,3172.194a8.971,8.971,0,0,0-.425-1.376,12.48,12.48,0,0,0-1.088-2.262,11.479,11.479,0,0,0-2.949-3.12,11.774,11.774,0,0,0-7.037-2.239l-.215.005h-.018c-.076,0-6.961,0-22.244-.005l-.073,0h.02a2.986,2.986,0,0,1,1.686.517,2.983,2.983,0,0,0-1.674-.51c-.792,0-3.009.9-3.009,3.009a3.025,3.025,0,0,0,3.009,3.009l.056,0h23.188c.183.027.442.07.744.144a5.8,5.8,0,0,1,1.69.63,5.032,5.032,0,0,1,1.417,1.273,5.377,5.377,0,0,1,.7,1.145,4.935,4.935,0,0,1,.3.873c.038.163.069.326.15.669.013.056.026.113.041.168a2.99,2.99,0,0,0,5.777-.006c.012-.042.02-.085.029-.126a3.091,3.091,0,0,0,.068-.534c0-.025,0-.049,0-.074v-.025A4.3,4.3,0,0,0,5825.121,3172.194Z" transform="translate(-0.148 -19.484)" fill="url(#linear-gradient)"/>
    <path id="Tracé_12761" data-name="Tracé 12761" d="M5849.9,3137.874" transform="translate(-45.839 -0.762)" fill="#134f76" stroke="#00a19a" stroke-miterlimit="10" stroke-width="0.117"/>
    <path id="Tracé_12762" data-name="Tracé 12762" d="M5894.571,3136.844" transform="translate(-78.868)" fill="#134f76"/>
    <path id="Tracé_12763" data-name="Tracé 12763" d="M5827.02,3137.874" transform="translate(-28.926 -0.762)" fill="#134f76" stroke="#00a19a" stroke-miterlimit="10" stroke-width="0.117"/>
    <path id="Tracé_12764" data-name="Tracé 12764" d="M5871.695,3136.844" transform="translate(-61.955)" fill="#134f76"/>
  </g>
</svg>
