<svg xmlns="http://www.w3.org/2000/svg" width="63.473" height="91.542" viewBox="0 0 63.473 91.542">
  <g id="Groupe_1736" data-name="Groupe 1736" transform="translate(1 1)">
    <g id="Groupe_1820" data-name="Groupe 1820" transform="translate(0)">
      <g id="Groupe_1734" data-name="Groupe 1734" transform="translate(0)">
        <g id="Groupe_1697" data-name="Groupe 1697" transform="translate(8.708 20.022)">
          <path id="Tracé_18947" data-name="Tracé 18947" d="M-782.258,1635.711l.251-.042.1-.016a20.813,20.813,0,0,1,3.132-.215h1.034c.663,0,1.309.027,1.932.082.339.03.67.067.995.115.156.023.31.047.462.075a10.878,10.878,0,0,1,2.046.558,7.453,7.453,0,0,1,1.086.523,5.585,5.585,0,0,1,2.739,5.222.23.23,0,0,1-.23.23H-787.9a.231.231,0,0,1-.163-.068.227.227,0,0,1-.067-.162C-788.128,1638.087-785.7,1636.326-782.258,1635.711Z" transform="translate(788.128 -1623.099)" fill="#fff" stroke="#fff" stroke-linecap="round" stroke-linejoin="round" stroke-width="2.451"/>
          <ellipse id="Ellipse_33" data-name="Ellipse 33" cx="4.718" cy="4.718" rx="4.718" ry="4.718" transform="translate(3.81 8.903) rotate(-70.67)" fill="#fff" stroke="#fff" stroke-linecap="round" stroke-linejoin="round" stroke-width="2.451"/>
        </g>
        <g id="Groupe_1733" data-name="Groupe 1733">
          <g id="Groupe_1731" data-name="Groupe 1731" transform="translate(0 9.625)">
            <g id="Groupe_1699" data-name="Groupe 1699">
              <g id="Groupe_1698" data-name="Groupe 1698">
                <path id="Tracé_18948" data-name="Tracé 18948" d="M-757.712,1589.777h12.579a5.951,5.951,0,0,1,5.952,5.952v68.014a5.951,5.951,0,0,1-5.952,5.952H-794.7a5.951,5.951,0,0,1-5.952-5.952v-68.014a5.951,5.951,0,0,1,5.952-5.952h12.579" transform="translate(800.654 -1589.777)" fill="none" stroke="#fff" stroke-linecap="round" stroke-linejoin="round" stroke-width="2"/>
              </g>
            </g>
            <g id="Groupe_1730" data-name="Groupe 1730" transform="translate(5.588 13.141)">
              <g id="Groupe_1704" data-name="Groupe 1704" transform="translate(0 22.915)">
                <g id="Groupe_1701" data-name="Groupe 1701" transform="translate(0 5.931)">
                  <g id="Groupe_1700" data-name="Groupe 1700">
                    <path id="Tracé_18949" data-name="Tracé 18949" d="M-753.749,1671.379h-35.381a.9.9,0,0,1-.9-.9.9.9,0,0,1,.9-.9h35.381a.9.9,0,0,1,.9.9A.9.9,0,0,1-753.749,1671.379Z" transform="translate(790.034 -1669.572)" fill="#fff"/>
                  </g>
                </g>
                <g id="Groupe_1703" data-name="Groupe 1703" transform="translate(38.944)">
                  <g id="Groupe_1702" data-name="Groupe 1702">
                    <path id="Tracé_18950" data-name="Tracé 18950" d="M-705.719,1658.491a.575.575,0,0,0-.812-.042l-6.08,5.468-2.958-1.885a.294.294,0,0,0-.348.023.3.3,0,0,0-.035.415l2.821,3.345a.907.907,0,0,0,.066.069.821.821,0,0,0,1.161-.036l.065-.069,6.113-6.51A.578.578,0,0,0-705.719,1658.491Z" transform="translate(716.022 -1658.301)" fill="#fff"/>
                  </g>
                </g>
              </g>
              <g id="Groupe_1707" data-name="Groupe 1707" transform="translate(31.51)">
                <g id="Groupe_1706" data-name="Groupe 1706">
                  <g id="Groupe_1705" data-name="Groupe 1705">
                    <path id="Tracé_18951" data-name="Tracé 18951" d="M-713.671,1615.655H-729.74a.432.432,0,0,1-.41-.451.432.432,0,0,1,.41-.452h16.068a.432.432,0,0,1,.411.452A.432.432,0,0,1-713.671,1615.655Z" transform="translate(730.15 -1614.751)" fill="#fff"/>
                  </g>
                </g>
              </g>
              <g id="Groupe_1710" data-name="Groupe 1710" transform="translate(31.51 3.719)">
                <g id="Groupe_1709" data-name="Groupe 1709">
                  <g id="Groupe_1708" data-name="Groupe 1708">
                    <path id="Tracé_18952" data-name="Tracé 18952" d="M-713.671,1622.722H-729.74a.433.433,0,0,1-.41-.452.433.433,0,0,1,.41-.452h16.068a.433.433,0,0,1,.411.452A.433.433,0,0,1-713.671,1622.722Z" transform="translate(730.15 -1621.818)" fill="#fff"/>
                  </g>
                </g>
              </g>
              <g id="Groupe_1713" data-name="Groupe 1713" transform="translate(31.51 7.437)">
                <g id="Groupe_1712" data-name="Groupe 1712">
                  <g id="Groupe_1711" data-name="Groupe 1711">
                    <path id="Tracé_18953" data-name="Tracé 18953" d="M-713.671,1629.789H-729.74a.433.433,0,0,1-.41-.452.433.433,0,0,1,.41-.452h16.068a.433.433,0,0,1,.411.452A.433.433,0,0,1-713.671,1629.789Z" transform="translate(730.15 -1628.885)" fill="#fff"/>
                  </g>
                </g>
              </g>
              <g id="Groupe_1716" data-name="Groupe 1716" transform="translate(31.51 11.156)">
                <g id="Groupe_1715" data-name="Groupe 1715">
                  <g id="Groupe_1714" data-name="Groupe 1714">
                    <path id="Tracé_18954" data-name="Tracé 18954" d="M-713.671,1636.856H-729.74a.433.433,0,0,1-.41-.452.433.433,0,0,1,.41-.452h16.068a.433.433,0,0,1,.411.452A.433.433,0,0,1-713.671,1636.856Z" transform="translate(730.15 -1635.952)" fill="#fff"/>
                  </g>
                </g>
              </g>
              <g id="Groupe_1719" data-name="Groupe 1719" transform="translate(31.51 14.875)">
                <g id="Groupe_1718" data-name="Groupe 1718">
                  <g id="Groupe_1717" data-name="Groupe 1717">
                    <path id="Tracé_18955" data-name="Tracé 18955" d="M-713.671,1643.923H-729.74a.432.432,0,0,1-.41-.452.432.432,0,0,1,.41-.452h16.068a.432.432,0,0,1,.411.452A.432.432,0,0,1-713.671,1643.923Z" transform="translate(730.15 -1643.02)" fill="#fff"/>
                  </g>
                </g>
              </g>
              <g id="Groupe_1724" data-name="Groupe 1724" transform="translate(0 35.269)">
                <g id="Groupe_1721" data-name="Groupe 1721" transform="translate(0 5.931)">
                  <g id="Groupe_1720" data-name="Groupe 1720">
                    <path id="Tracé_18956" data-name="Tracé 18956" d="M-753.749,1694.858h-35.381a.9.9,0,0,1-.9-.9.9.9,0,0,1,.9-.9h35.381a.9.9,0,0,1,.9.9A.9.9,0,0,1-753.749,1694.858Z" transform="translate(790.034 -1693.05)" fill="#fff"/>
                  </g>
                </g>
                <g id="Groupe_1723" data-name="Groupe 1723" transform="translate(38.944)">
                  <g id="Groupe_1722" data-name="Groupe 1722">
                    <path id="Tracé_18957" data-name="Tracé 18957" d="M-705.719,1681.969a.575.575,0,0,0-.812-.043l-6.08,5.468-2.958-1.885a.3.3,0,0,0-.348.023.3.3,0,0,0-.035.415l2.821,3.345c.021.024.043.047.066.069a.822.822,0,0,0,1.161-.037l.065-.068,6.113-6.509A.578.578,0,0,0-705.719,1681.969Z" transform="translate(716.022 -1681.779)" fill="#fff"/>
                  </g>
                </g>
              </g>
              <g id="Groupe_1729" data-name="Groupe 1729" transform="translate(0 47.623)">
                <g id="Groupe_1726" data-name="Groupe 1726" transform="translate(0 5.931)">
                  <g id="Groupe_1725" data-name="Groupe 1725">
                    <path id="Tracé_18958" data-name="Tracé 18958" d="M-753.749,1718.337h-35.381a.9.9,0,0,1-.9-.9.9.9,0,0,1,.9-.9h35.381a.9.9,0,0,1,.9.9A.9.9,0,0,1-753.749,1718.337Z" transform="translate(790.034 -1716.529)" fill="#fff"/>
                  </g>
                </g>
                <g id="Groupe_1728" data-name="Groupe 1728" transform="translate(38.944)">
                  <g id="Groupe_1727" data-name="Groupe 1727">
                    <path id="Tracé_18959" data-name="Tracé 18959" d="M-705.719,1705.447a.576.576,0,0,0-.812-.043l-6.08,5.469-2.958-1.885a.294.294,0,0,0-.348.023.294.294,0,0,0-.035.415l2.821,3.346a.794.794,0,0,0,.066.069.822.822,0,0,0,1.161-.036l.065-.069,6.113-6.509A.578.578,0,0,0-705.719,1705.447Z" transform="translate(716.022 -1705.257)" fill="#fff"/>
                  </g>
                </g>
              </g>
            </g>
          </g>
          <g id="Groupe_1732" data-name="Groupe 1732" transform="translate(18.53)">
            <path id="Tracé_18960" data-name="Tracé 18960" d="M-744.289,1577.846h-.414v-1.693a4.667,4.667,0,0,0-4.667-4.668h-7.722a4.668,4.668,0,0,0-4.668,4.668v1.693h-.414a3.264,3.264,0,0,0-3.264,3.264,3.264,3.264,0,0,0,3.264,3.264h17.884a3.264,3.264,0,0,0,3.264-3.264A3.264,3.264,0,0,0-744.289,1577.846Z" transform="translate(765.437 -1571.485)" fill="#fff" stroke="#fff" stroke-linecap="round" stroke-linejoin="round" stroke-width="2"/>
          </g>
        </g>
      </g>
    </g>
  </g>
</svg>
