<svg xmlns="http://www.w3.org/2000/svg" width="93.433" height="96.759" viewBox="0 0 93.433 96.759">
  <g id="Groupe_1696" data-name="Groupe 1696" transform="translate(1 1)">
    <g id="Groupe_1688" data-name="Groupe 1688" transform="translate(41.984 0)">
      <path id="Tracé_18941" data-name="Tracé 18941" d="M-467.307,1804.206h-15.744a2.531,2.531,0,0,0-2.53,2.531v9.093a2.53,2.53,0,0,0,2.53,2.531h.973v1.764a.877.877,0,0,0,1.48.636l2.529-2.4h10.762a2.531,2.531,0,0,0,2.531-2.531v-9.093A2.531,2.531,0,0,0-467.307,1804.206Z" transform="translate(485.581 -1804.206)" fill="none" stroke="#fff" stroke-linecap="round" stroke-linejoin="round" stroke-width="2"/>
    </g>
    <g id="Groupe_1689" data-name="Groupe 1689" transform="translate(59.085 18.636)">
      <path id="Tracé_18942" data-name="Tracé 18942" d="M-448.225,1849.318h11.745a1.888,1.888,0,0,1,1.888,1.888v6.783a1.888,1.888,0,0,1-1.888,1.888h-.725v1.316a.654.654,0,0,1-1.1.474l-1.887-1.79h-8.028a1.888,1.888,0,0,1-1.888-1.888v-6.783A1.888,1.888,0,0,1-448.225,1849.318Z" transform="translate(450.113 -1849.318)" fill="none" stroke="#fff" stroke-linecap="round" stroke-linejoin="round" stroke-width="2"/>
    </g>
    <g id="Groupe_1690" data-name="Groupe 1690" transform="translate(14.206 15.339)">
      <path id="Tracé_18943" data-name="Tracé 18943" d="M-531.842,1840.6h-14.715a2.168,2.168,0,0,0-2.366,1.888v6.783a2.168,2.168,0,0,0,2.366,1.888h.909v1.316c0,.575.861.87,1.383.475l2.364-1.791h10.058a2.167,2.167,0,0,0,2.365-1.888v-6.783A2.167,2.167,0,0,0-531.842,1840.6Z" transform="translate(548.922 -1840.596)" fill="none" stroke="#fff" stroke-linecap="round" stroke-linejoin="round" stroke-width="2"/>
    </g>
    <g id="Groupe_1691" data-name="Groupe 1691" transform="translate(2.215 28.248)">
      <ellipse id="Ellipse_30" data-name="Ellipse 30" cx="7.058" cy="7.058" rx="7.058" ry="7.058" fill="none" stroke="#fff" stroke-linecap="round" stroke-linejoin="round" stroke-width="2"/>
    </g>
    <path id="Tracé_18944" data-name="Tracé 18944" d="M-549.408,1930.173h-10.771a1.62,1.62,0,0,1-1.622-1.621c0-5.214.005-10.916.009-14.635,0-2.245-1.531-4.064-3.425-4.064h-4.806c-4.472,0-8.1,4.3-8.1,9.605v16.078c0,2.864,1.957,5.186,4.372,5.186h19.073a1.534,1.534,0,0,1,1.533,1.534v13.722a2.121,2.121,0,0,0,2.121,2.121h4.033a2.121,2.121,0,0,0,2.121-2.121v-21.263A4.541,4.541,0,0,0-549.408,1930.173Z" transform="translate(578.12 -1864.004)" fill="none" stroke="#fff" stroke-linecap="round" stroke-linejoin="round" stroke-width="2"/>
    <g id="Groupe_1692" data-name="Groupe 1692" transform="translate(75.101 28.248)">
      <ellipse id="Ellipse_31" data-name="Ellipse 31" cx="7.058" cy="7.058" rx="7.058" ry="7.058" fill="none" stroke="#fff" stroke-linecap="round" stroke-linejoin="round" stroke-width="2"/>
    </g>
    <path id="Tracé_18945" data-name="Tracé 18945" d="M-447.535,1930.173h10.771a1.621,1.621,0,0,0,1.622-1.621c0-5.214-.006-10.916-.009-14.635,0-2.245,1.532-4.064,3.424-4.064h4.806c4.472,0,8.1,4.3,8.1,9.605v16.078c0,2.864-1.958,5.186-4.372,5.186h-19.073a1.534,1.534,0,0,0-1.534,1.534v13.722a2.121,2.121,0,0,1-2.121,2.121h-4.032a2.121,2.121,0,0,1-2.121-2.121v-21.263A4.542,4.542,0,0,1-447.535,1930.173Z" transform="translate(510.255 -1864.004)" fill="none" stroke="#fff" stroke-linecap="round" stroke-linejoin="round" stroke-width="2"/>
    <g id="Groupe_1695" data-name="Groupe 1695" transform="translate(32.843 20.146)">
      <g id="Groupe_1693" data-name="Groupe 1693" transform="translate(0 17.436)">
        <path id="Tracé_18946" data-name="Tracé 18946" d="M-491.288,1891.944H-496.9a10.07,10.07,0,0,0-10.07,10.07v16.855a5.437,5.437,0,0,0,5.436,5.437h.345V1945.1a4.023,4.023,0,0,0,4.023,4.022h6.138A4.023,4.023,0,0,0-487,1945.1v-20.792h.345a5.437,5.437,0,0,0,5.436-5.437v-16.855A10.07,10.07,0,0,0-491.288,1891.944Z" transform="translate(506.965 -1891.944)" fill="none" stroke="#fff" stroke-linecap="round" stroke-linejoin="round" stroke-width="2"/>
      </g>
      <g id="Groupe_1694" data-name="Groupe 1694" transform="translate(5.474)">
        <ellipse id="Ellipse_32" data-name="Ellipse 32" cx="7.4" cy="7.4" rx="7.4" ry="7.4" fill="none" stroke="#fff" stroke-linecap="round" stroke-linejoin="round" stroke-width="2"/>
      </g>
    </g>
    <path id="Tracé_18970" data-name="Tracé 18970" d="M3.808,0H41.226c2.1,0,3.808.863,3.808,1.928s-1.7,1.928-3.808,1.928H3.808C1.7,3.857,0,2.993,0,1.928S1.7,0,3.808,0Z" transform="translate(23.199 55.524)" fill="#fff" stroke="#fff" stroke-linecap="round" stroke-width="2"/>
  </g>
</svg>
