<svg xmlns="http://www.w3.org/2000/svg" width="86.091" height="91.516" viewBox="0 0 86.091 91.516">
  <g id="Groupe_1818" data-name="Groupe 1818" transform="translate(1 1)">
    <g id="Groupe_1683" data-name="Groupe 1683" transform="translate(0 0)">
      <g id="Groupe_1677" data-name="Groupe 1677">
        <path id="Tracé_18935" data-name="Tracé 18935" d="M3424.377,1095.342v48.245a9.8,9.8,0,0,1-9.807,9.793H3350.1a9.8,9.8,0,0,1-9.81-9.793v-48.245a9.8,9.8,0,0,1,9.81-9.794h64.475A9.8,9.8,0,0,1,3424.377,1095.342Z" transform="translate(-3340.286 -1085.548)" fill="none" stroke="#fff" stroke-linecap="round" stroke-linejoin="round" stroke-width="2"/>
      </g>
      <g id="Groupe_1678" data-name="Groupe 1678" transform="translate(0 56.3)">
        <path id="Tracé_18936" data-name="Tracé 18936" d="M3424.377,1173.631v1.739a9.8,9.8,0,0,1-9.807,9.793H3350.1a9.8,9.8,0,0,1-9.81-9.793v-1.739Z" transform="translate(-3340.286 -1173.631)" fill="none" stroke="#fff" stroke-linecap="round" stroke-linejoin="round" stroke-width="2"/>
      </g>
      <g id="Groupe_1679" data-name="Groupe 1679" transform="translate(39.448 59.204)">
        <ellipse id="Ellipse_28" data-name="Ellipse 28" cx="2.599" cy="2.595" rx="2.599" ry="2.595" fill="none" stroke="#fff" stroke-width="2"/>
      </g>
      <g id="Groupe_1682" data-name="Groupe 1682" transform="translate(22.926 67.833)">
        <g id="Groupe_1680" data-name="Groupe 1680" transform="translate(8.744)">
          <path id="Tracé_18937" data-name="Tracé 18937" d="M3410.588,1207.8l-2.533-16.124h-15.686l-2.533,16.124" transform="translate(-3389.835 -1191.674)" fill="none" stroke="#fff" stroke-linecap="round" stroke-linejoin="round" stroke-width="2"/>
        </g>
        <g id="Groupe_1681" data-name="Groupe 1681" transform="translate(0 16.124)">
          <rect id="Rectangle_877" data-name="Rectangle 877" width="38.24" height="5.56" rx="2.78" fill="none" stroke="#fff" stroke-linecap="round" stroke-linejoin="round" stroke-width="2"/>
        </g>
      </g>
    </g>
    <g id="Groupe_1684" data-name="Groupe 1684" transform="translate(17.713 5.935)">
      <g id="Groupe_1671" data-name="Groupe 1671" transform="translate(33.95 27.474)">
        <path id="Tracé_18930" data-name="Tracé 18930" d="M-251.927,711.77l.237-.04.094-.015a19.636,19.636,0,0,1,2.96-.2h.978c.626,0,1.237.026,1.826.078.32.028.634.063.94.109.148.022.293.045.437.071a10.3,10.3,0,0,1,1.933.528,7.011,7.011,0,0,1,1.027.494,5.279,5.279,0,0,1,2.588,4.936.217.217,0,0,1-.217.218h-18.134a.217.217,0,0,1-.154-.064.215.215,0,0,1-.063-.153C-257.475,714.016-255.179,712.352-251.927,711.77Z" transform="translate(257.475 -699.85)" fill="none" stroke="#fff" stroke-linecap="round" stroke-linejoin="round" stroke-width="2"/>
        <ellipse id="Ellipse_25" data-name="Ellipse 25" cx="4.459" cy="4.459" rx="4.459" ry="4.459" transform="translate(3.601 8.415) rotate(-70.67)" fill="none" stroke="#fff" stroke-linecap="round" stroke-linejoin="round" stroke-width="2"/>
      </g>
      <g id="Groupe_1672" data-name="Groupe 1672" transform="translate(0 27.474)">
        <path id="Tracé_18931" data-name="Tracé 18931" d="M-421.186,711.77l.237-.04.094-.015a19.639,19.639,0,0,1,2.96-.2h.978c.626,0,1.237.026,1.827.078.32.028.634.063.94.109.148.022.293.045.437.071a10.3,10.3,0,0,1,1.933.528,7,7,0,0,1,1.027.494,5.279,5.279,0,0,1,2.588,4.936.217.217,0,0,1-.217.218h-18.134a.217.217,0,0,1-.154-.064.215.215,0,0,1-.063-.153C-426.734,714.016-424.438,712.352-421.186,711.77Z" transform="translate(426.734 -699.85)" fill="none" stroke="#fff" stroke-linecap="round" stroke-linejoin="round" stroke-width="2"/>
        <ellipse id="Ellipse_26" data-name="Ellipse 26" cx="4.459" cy="4.459" rx="4.459" ry="4.459" transform="translate(3.601 8.415) rotate(-70.67)" fill="none" stroke="#fff" stroke-linecap="round" stroke-linejoin="round" stroke-width="2"/>
      </g>
      <g id="Groupe_1673" data-name="Groupe 1673" transform="translate(16.952 20.161)">
        <path id="Tracé_18932" data-name="Tracé 18932" d="M-336.668,675.31l.236-.04.094-.015a19.648,19.648,0,0,1,2.96-.2h.978c.626,0,1.237.026,1.826.078.32.028.634.063.94.109.148.021.293.045.437.071a10.273,10.273,0,0,1,1.933.528,7.016,7.016,0,0,1,1.027.494,5.279,5.279,0,0,1,2.588,4.936.217.217,0,0,1-.217.218,7.953,7.953,0,0,0-3.036,2.748,8.024,8.024,0,0,0-1.242,4.744l-9.94-.113a7.152,7.152,0,0,0-.9-4.631A7.089,7.089,0,0,0-342,681.486a.216.216,0,0,1-.085-.017.218.218,0,0,1-.069-.047.215.215,0,0,1-.063-.154C-342.216,677.556-339.92,675.892-336.668,675.31Z" transform="translate(342.216 -663.389)" fill="none" stroke="#fff" stroke-linecap="round" stroke-linejoin="round" stroke-width="2"/>
        <ellipse id="Ellipse_27" data-name="Ellipse 27" cx="4.459" cy="4.459" rx="4.459" ry="4.459" transform="translate(3.601 8.415) rotate(-70.67)" fill="none" stroke="#fff" stroke-linecap="round" stroke-linejoin="round" stroke-width="2"/>
      </g>
      <g id="Groupe_1674" data-name="Groupe 1674" transform="translate(0.417 2.212)">
        <path id="Tracé_18933" data-name="Tracé 18933" d="M-424.652,537.268l.253,3.33a.737.737,0,0,0,.791.679l1.421-.108a8.835,8.835,0,0,0,.905,1.807l-.922,1.074a.737.737,0,0,0,.079,1.039l2.533,2.175a.737.737,0,0,0,1.039-.079l.894-1.041a8.826,8.826,0,0,0,1.958.666l.1,1.343a.737.737,0,0,0,.791.679l3.33-.253a.737.737,0,0,0,.679-.791l-.1-1.282a8.825,8.825,0,0,0,1.914-.943l.956.821a.737.737,0,0,0,1.039-.079l2.175-2.533a.737.737,0,0,0-.079-1.039l-.923-.792a8.831,8.831,0,0,0,.69-2.07l1.2-.091a.737.737,0,0,0,.679-.791l-.253-3.33a.737.737,0,0,0-.791-.679l-1.2.091a8.836,8.836,0,0,0-.994-1.942l.792-.923a.737.737,0,0,0-.079-1.039l-2.533-2.175a.737.737,0,0,0-1.039.079l-.821.956a8.825,8.825,0,0,0-2.035-.643l-.1-1.282a.737.737,0,0,0-.791-.679l-3.33.253a.737.737,0,0,0-.679.791l.1,1.343a8.831,8.831,0,0,0-1.835.954l-1.041-.894a.737.737,0,0,0-1.039.079l-2.175,2.533a.737.737,0,0,0,.079,1.039l1.074.922a8.82,8.82,0,0,0-.622,1.923l-1.421.108A.737.737,0,0,0-424.652,537.268Zm6.187,1.2a4.53,4.53,0,0,1,4.173-4.86,4.53,4.53,0,0,1,4.86,4.173,4.53,4.53,0,0,1-4.173,4.86A4.53,4.53,0,0,1-418.464,538.472Z" transform="translate(424.654 -527.422)" fill="none" stroke="#fff" stroke-linecap="round" stroke-linejoin="round" stroke-width="2"/>
      </g>
      <g id="Groupe_1675" data-name="Groupe 1675" transform="translate(22.8 0)">
        <path id="Tracé_18934" data-name="Tracé 18934" d="M-313.064,522.792l.164,2.165a.479.479,0,0,0,.514.441l.924-.07a5.736,5.736,0,0,0,.589,1.175l-.6.7a.479.479,0,0,0,.051.676l1.647,1.414a.479.479,0,0,0,.676-.051l.581-.677a5.742,5.742,0,0,0,1.273.433l.066.873a.479.479,0,0,0,.514.441l2.164-.164a.479.479,0,0,0,.441-.514l-.063-.833a5.727,5.727,0,0,0,1.245-.613l.622.534a.479.479,0,0,0,.676-.051l1.414-1.647a.479.479,0,0,0-.051-.675l-.6-.515a5.75,5.75,0,0,0,.448-1.346l.781-.059a.479.479,0,0,0,.441-.514l-.164-2.165a.479.479,0,0,0-.514-.442l-.781.059a5.74,5.74,0,0,0-.647-1.262l.515-.6a.479.479,0,0,0-.051-.675l-1.647-1.414a.479.479,0,0,0-.676.051l-.534.622a5.748,5.748,0,0,0-1.323-.418l-.063-.833a.479.479,0,0,0-.514-.441l-2.165.164a.479.479,0,0,0-.441.514l.066.873a5.739,5.739,0,0,0-1.193.62l-.677-.581a.479.479,0,0,0-.676.051l-1.414,1.647a.479.479,0,0,0,.051.676l.7.6a5.738,5.738,0,0,0-.4,1.25l-.923.07A.479.479,0,0,0-313.064,522.792Zm4.022.783a2.945,2.945,0,0,1,2.713-3.159,2.945,2.945,0,0,1,3.16,2.713,2.945,2.945,0,0,1-2.713,3.159A2.945,2.945,0,0,1-309.041,523.575Z" transform="translate(313.065 -516.392)" fill="none" stroke="#fff" stroke-linecap="round" stroke-linejoin="round" stroke-width="2"/>
      </g>
    </g>
  </g>
</svg>
