<svg xmlns="http://www.w3.org/2000/svg" width="104.005" height="88.758" viewBox="0 0 104.005 88.758">
  <g id="Groupe_1687" data-name="Groupe 1687" transform="translate(1.005 1)">
    <g id="Groupe_1685" data-name="Groupe 1685" transform="translate(40.85 0)">
      <path id="Tracé_18938" data-name="Tracé 18938" d="M-719.511-13.409h-35.324a5.62,5.62,0,0,0-5.678,5.561V12.133a5.62,5.62,0,0,0,5.678,5.561h2.182v3.877a1.972,1.972,0,0,0,3.321,1.4l5.675-5.274h24.145a5.621,5.621,0,0,0,5.678-5.561V-7.848A5.621,5.621,0,0,0-719.511-13.409Z" transform="translate(760.513 13.409)" fill="none" stroke="#fff" stroke-linecap="round" stroke-linejoin="round" stroke-width="2"/>
    </g>
    <g id="Groupe_1686" data-name="Groupe 1686" transform="translate(53.379 36.627)">
      <path id="Tracé_18939" data-name="Tracé 18939" d="M-731.139,149.032c.2-.037.411-.071.619-.105.081-.014.164-.026.247-.038a51.438,51.438,0,0,1,7.751-.531h2.54l.02,0c1.64.005,3.239.067,4.782.2.838.073,1.66.166,2.461.285.386.056.767.117,1.144.186a26.956,26.956,0,0,1,5.063,1.382,18.33,18.33,0,0,1,2.688,1.294c4.188,2.474,6.778,6.544,6.778,12.924a.569.569,0,0,1-.569.57H-745.1a.571.571,0,0,1-.4-.168.564.564,0,0,1-.166-.4C-745.667,154.913-739.655,150.556-731.139,149.032Z" transform="translate(745.667 -117.819)" fill="none" stroke="#fff" stroke-linecap="round" stroke-linejoin="round" stroke-width="2"/>
      <ellipse id="Ellipse_29" data-name="Ellipse 29" cx="11.676" cy="11.676" rx="11.676" ry="11.676" transform="translate(9.428 22.035) rotate(-70.67)" fill="none" stroke="#fff" stroke-linecap="round" stroke-linejoin="round" stroke-width="2"/>
    </g>
    <path id="Tracé_18940" data-name="Tracé 18940" d="M-874.885,35.728a21.138,21.138,0,0,1,13.5,1.833,21.894,21.894,0,0,1,9.9,10.175,17.338,17.338,0,0,1,1.393,5.6c.132,1.1.252,2.2.384,3.3a2.766,2.766,0,0,0,.145.574q1.255,3.175,2.513,6.349l1.3,3.292c.359.906.979,2.27.227,3.179a1.619,1.619,0,0,1-1.318.582c-.927-.005-1.855,0-2.827,0-.007.162-.018.3-.018.439,0,1.831,0,3.663,0,5.494a8.421,8.421,0,0,1-8.547,8.519h-3.239v3.783a1.286,1.286,0,0,1-1.289,1.286c-6.778-.028-13.536-.265-20.334-.293a1.28,1.28,0,0,1-1.279-1.279c0-2.912,0-10.137.008-14.673a.98.98,0,0,0-.353-.75,21.018,21.018,0,0,1-7.77-14.966C-893.37,46.661-884.975,37.672-874.885,35.728Z" transform="translate(892.546 -3.376)" fill="none" stroke="#fff" stroke-linecap="round" stroke-linejoin="round" stroke-width="2"/>
  </g>
</svg>
