<svg xmlns="http://www.w3.org/2000/svg" width="46.661" height="45.938" viewBox="0 0 46.661 45.938">
  <g id="Groupe_2240" data-name="Groupe 2240" transform="translate(-1284.383 -24)">
    <path id="Icon_awesome-user-circle" data-name="Icon awesome-user-circle" d="M23.33.563A23.148,23.148,0,0,0,0,23.531,23.148,23.148,0,0,0,23.33,46.5a23.148,23.148,0,0,0,23.33-22.969A23.148,23.148,0,0,0,23.33.563Zm0,8.891a8.151,8.151,0,1,1-8.279,8.15A8.215,8.215,0,0,1,23.33,9.454Zm0,31.86A18.142,18.142,0,0,1,9.549,35a10.51,10.51,0,0,1,9.266-5.538,2.335,2.335,0,0,1,.668.1,12.633,12.633,0,0,0,3.848.639,12.585,12.585,0,0,0,3.848-.639,2.335,2.335,0,0,1,.668-.1A10.51,10.51,0,0,1,37.112,35,18.142,18.142,0,0,1,23.33,41.314Z" transform="translate(1284.383 23.438)" fill="#01e3a6"/>
  </g>
</svg>
