<svg xmlns="http://www.w3.org/2000/svg" width="56.981" height="56.098" viewBox="0 0 56.981 56.098">
  <g id="Groupe_2242" data-name="Groupe 2242" transform="translate(-353.127 -373.176)">
    <path id="Icon_awesome-user-circle" data-name="Icon awesome-user-circle" d="M28.49.563A28.267,28.267,0,0,0,0,28.611,28.267,28.267,0,0,0,28.49,56.66a28.267,28.267,0,0,0,28.49-28.049A28.267,28.267,0,0,0,28.49.563Zm0,10.858a9.954,9.954,0,1,1-10.11,9.953A10.032,10.032,0,0,1,28.49,11.42Zm0,38.906a22.155,22.155,0,0,1-16.83-7.713A12.834,12.834,0,0,1,22.976,35.85a2.852,2.852,0,0,1,.816.124,15.427,15.427,0,0,0,4.7.78,15.369,15.369,0,0,0,4.7-.78A2.852,2.852,0,0,1,34,35.85,12.834,12.834,0,0,1,45.32,42.613,22.155,22.155,0,0,1,28.49,50.326Z" transform="translate(353.127 372.613)" fill="#143d66"/>
  </g>
</svg>
