<svg xmlns="http://www.w3.org/2000/svg" width="72.23" height="83.892" viewBox="0 0 72.23 83.892">
  <g id="Group_1047" data-name="Group 1047" transform="translate(2.024 1.369)">
    <g id="Groupe_1317" data-name="Groupe 1317" transform="translate(41.739 0) rotate(34)">
      <path id="Path_10560" data-name="Path 10560" d="M31.871,52.115a9.608,9.608,0,0,0-2.532-6.676,7.066,7.066,0,0,0-.618-.817c.972-8.567,1.145-17.136-.736-25.716a23.278,23.278,0,0,0-1.591-3.817A63.372,63.372,0,0,0,17.424.79C16.771-.023,16.151-.4,15.359.608,11.815,5.127,8.481,9.771,6.252,15.122A22.311,22.311,0,0,0,4.3,20.728a83.27,83.27,0,0,0-.411,23.878,2.208,2.208,0,0,0-.336.382C2.172,46.9.725,48.685.734,51.356c.017,5.334-.28,10.67-.508,16-.1,2.348-.646,4.686.441,7.283,2.3-3.763,4.608-7.52,6.88-11.3a1.337,1.337,0,0,0,.108-.241,2.029,2.029,0,0,0,.241.1,1.026,1.026,0,0,0-.172.89c.16,1.136-.267,2.95,1.372,3.014,4.753.191,9.524.161,14.277-.012,1.849-.068,1.46-1.956,1.58-3.141a.885.885,0,0,0-.223-.8c.065-.029.129-.06.191-.1a1.721,1.721,0,0,0,.191.455q3.371,5.545,6.769,11.071l.6-.184A8.054,8.054,0,0,0,32.661,73C32.391,66.044,32,59.081,31.871,52.115Z" transform="translate(0 0)" fill="#fff" stroke="#143d66" stroke-miterlimit="10" stroke-width="2"/>
      <circle id="Ellipse_15" data-name="Ellipse 15" cx="2.935" cy="2.935" r="2.935" transform="translate(13.392 27.062)" fill="#fff" stroke="#143d66" stroke-miterlimit="10" stroke-width="2"/>
    </g>
  </g>
</svg>
