<svg xmlns="http://www.w3.org/2000/svg" width="75.45" height="87.642" viewBox="0 0 75.45 87.642">
  <g id="Group_1047" data-name="Group 1047" transform="translate(2.022 1.368)">
    <g id="Groupe_1317" data-name="Groupe 1317" transform="translate(43.693 0) rotate(34)">
      <path id="Path_10560" data-name="Path 10560" d="M33.362,54.554a10.058,10.058,0,0,0-2.65-6.989,7.4,7.4,0,0,0-.647-.855c1.017-8.968,1.2-17.938-.77-26.92a24.368,24.368,0,0,0-1.665-4A66.338,66.338,0,0,0,18.239.827c-.683-.851-1.332-1.247-2.162-.19-3.709,4.73-7.2,9.592-9.533,15.192A23.355,23.355,0,0,0,4.5,21.7a87.167,87.167,0,0,0-.43,25,2.312,2.312,0,0,0-.352.4c-1.44,2-2.955,3.87-2.946,6.666C.786,59.343.475,64.929.236,70.512.131,72.969-.44,75.417.7,78.135,3.105,74.2,5.522,70.264,7.9,66.308a1.4,1.4,0,0,0,.113-.253,2.123,2.123,0,0,0,.252.1,1.074,1.074,0,0,0-.18.932c.168,1.189-.279,3.088,1.436,3.155,4.976.2,9.97.169,14.945-.012C26.4,70.16,26,68.184,26.121,66.943a.926.926,0,0,0-.234-.84c.068-.03.135-.063.2-.1a1.8,1.8,0,0,0,.2.476q3.529,5.8,7.086,11.589L34,77.876a8.432,8.432,0,0,0,.191-1.457C33.907,69.135,33.494,61.847,33.362,54.554Z" transform="translate(0 0)" fill="#fff" stroke="#04c38f" stroke-miterlimit="10" stroke-width="2"/>
      <circle id="Ellipse_15" data-name="Ellipse 15" cx="3.072" cy="3.072" r="3.072" transform="translate(14.018 28.329)" fill="#fff" stroke="#04c38f" stroke-miterlimit="10" stroke-width="2"/>
    </g>
  </g>
</svg>
