<svg xmlns="http://www.w3.org/2000/svg" width="729" height="86.367" viewBox="0 0 729 86.367">
  <g id="Groupe_2241" data-name="Groupe 2241" transform="translate(-598 -95.633)">
    <g id="Groupe_2016" data-name="Groupe 2016" transform="translate(0 3)">
      <g id="Groupe_2015" data-name="Groupe 2015" transform="translate(-46 -1)">
        <path id="Tracé_19215" data-name="Tracé 19215" d="M0,0H560.625" transform="translate(724.875 136.305)" fill="none" stroke="#143d66" stroke-width="2"/>
        <g id="Ellipse_48" data-name="Ellipse 48" transform="translate(723 129)" fill="#01e3a6" stroke="#143d66" stroke-width="2">
          <ellipse cx="6.5" cy="7" rx="6.5" ry="7" stroke="none"/>
          <ellipse cx="6.5" cy="7" rx="5.5" ry="6" fill="none"/>
        </g>
        <g id="Ellipse_49" data-name="Ellipse 49" transform="translate(903 130)" fill="#e4f0f8" stroke="#143d66" stroke-width="2">
          <ellipse cx="6.5" cy="7" rx="6.5" ry="7" stroke="none"/>
          <ellipse cx="6.5" cy="7" rx="5.5" ry="6" fill="none"/>
        </g>
        <g id="Ellipse_50" data-name="Ellipse 50" transform="translate(1091 130)" fill="#e4f0f8" stroke="#143d66" stroke-width="2">
          <ellipse cx="6.5" cy="7" rx="6.5" ry="7" stroke="none"/>
          <ellipse cx="6.5" cy="7" rx="5.5" ry="6" fill="none"/>
        </g>
        <g id="Ellipse_57" data-name="Ellipse 57" transform="translate(1279 129)" fill="#e4f0f8" stroke="#143d66" stroke-width="2">
          <ellipse cx="6.5" cy="7" rx="6.5" ry="7" stroke="none"/>
          <ellipse cx="6.5" cy="7" rx="5.5" ry="6" fill="none"/>
        </g>
        <text id="Sourcing_candidat" data-name="Sourcing candidat" transform="translate(644 153)" fill="#04c38f" font-size="18" font-family="OpenSans-Bold, Open Sans" font-weight="700"><tspan x="0" y="19">Sourcing candidat</tspan></text>
        <text id="Sélection_candidat" data-name="Sélection candidat" transform="translate(838 153)" fill="#143d66" font-size="18" font-family="OpenSans, Open Sans"><tspan x="0" y="19">Sélection candidat</tspan></text>
        <text id="Projet_affecté" data-name="Projet affecté" transform="translate(1044 153)" fill="#143d66" font-size="18" font-family="OpenSans, Open Sans"><tspan x="0" y="19">Projet affecté</tspan></text>
        <text id="Projet_Terminé" data-name="Projet Terminé" transform="translate(1226 153)" fill="#143d66" font-size="18" font-family="OpenSans, Open Sans"><tspan x="0" y="19">Projet Terminé</tspan></text>
        <g id="Group_1047" data-name="Group 1047" transform="translate(1086.272 89.918) rotate(16)">
          <g id="Groupe_1317" data-name="Groupe 1317" transform="translate(15.996 0) rotate(34)">
            <path id="Path_10560" data-name="Path 10560" d="M12.214,19.972a3.682,3.682,0,0,0-.97-2.559,2.707,2.707,0,0,0-.237-.313,29.867,29.867,0,0,0-.282-9.855,8.921,8.921,0,0,0-.61-1.463A24.287,24.287,0,0,0,6.677.3c-.25-.311-.488-.457-.791-.07A24.224,24.224,0,0,0,2.4,5.8a8.55,8.55,0,0,0-.75,2.149,31.912,31.912,0,0,0-.158,9.151.846.846,0,0,0-.129.146,4.046,4.046,0,0,0-1.079,2.44c.007,2.044-.107,4.089-.195,6.133a5.89,5.89,0,0,0,.169,2.791c.881-1.442,1.766-2.882,2.637-4.33a.512.512,0,0,0,.041-.092.778.778,0,0,0,.092.037.393.393,0,0,0-.066.341c.061.435-.1,1.131.526,1.155,1.822.073,3.65.062,5.472,0,.709-.026.56-.75.606-1.2a.339.339,0,0,0-.086-.308c.025-.011.05-.023.073-.036a.659.659,0,0,0,.073.174q1.292,2.125,2.594,4.243l.229-.07a3.087,3.087,0,0,0,.07-.534C12.413,25.31,12.262,22.642,12.214,19.972Z" transform="translate(0 0)" fill="#fff" stroke="#143d66" stroke-miterlimit="10" stroke-width="1"/>
            <circle id="Ellipse_15" data-name="Ellipse 15" cx="1.125" cy="1.125" r="1.125" transform="translate(5.132 10.371)" fill="#fff" stroke="#143d66" stroke-miterlimit="10" stroke-width="1"/>
          </g>
        </g>
        <g id="Group_1044" data-name="Group 1044" transform="translate(895.416 97.118)">
          <g id="Groupe_1315" data-name="Groupe 1315">
            <g id="Group_1040" data-name="Group 1040" transform="translate(5.952)">
              <path id="Path_10554" data-name="Path 10554" d="M916.394,514.216h-4.761a.766.766,0,0,0-.766.765v2.749a.766.766,0,0,0,.766.766h.294v.534a.265.265,0,0,0,.447.191l.765-.726h3.255a.765.765,0,0,0,.765-.765v-2.75A.765.765,0,0,0,916.394,514.216Z" transform="translate(-910.868 -514.216)" fill="#fff" stroke="#134f76" stroke-miterlimit="10" stroke-width="1"/>
            </g>
            <g id="Group_1041" data-name="Group 1041" transform="translate(16.251 0.618)">
              <path id="Path_10555" data-name="Path 10555" d="M940.493,515.953h4.182a.672.672,0,0,1,.672.672h0v2.416a.672.672,0,0,1-.672.672h-.258v.469a.233.233,0,0,1-.393.169l-.672-.636h-2.859a.672.672,0,0,1-.672-.672h0v-2.417a.672.672,0,0,1,.671-.673Z" transform="translate(-939.821 -515.953)" fill="#fff" stroke="#134f76" stroke-miterlimit="10" stroke-width="1"/>
            </g>
            <g id="Group_1042" data-name="Group 1042" transform="translate(0.67 3.242)">
              <circle id="Ellipse_12" data-name="Ellipse 12" cx="2.134" cy="2.134" r="2.134" fill="#fff" stroke="#134f76" stroke-miterlimit="10" stroke-width="1"/>
            </g>
            <path id="Path_10556" data-name="Path 10556" d="M902.818,544.435h-3.257a.49.49,0,0,1-.49-.489h0c0-1.577,0-3.3,0-4.426a1.144,1.144,0,0,0-1.035-1.229h-1.454a2.706,2.706,0,0,0-2.448,2.9v4.862a1.461,1.461,0,0,0,1.322,1.568h5.768a.464.464,0,0,1,.464.464v4.149a.641.641,0,0,0,.641.641h1.219a.641.641,0,0,0,.641-.641v-6.43A1.374,1.374,0,0,0,902.818,544.435Z" transform="translate(-894.136 -529.726)" fill="#fff" stroke="#134f76" stroke-miterlimit="10" stroke-width="1"/>
            <g id="Group_1043" data-name="Group 1043" transform="translate(22.71 3.242)">
              <circle id="Ellipse_13" data-name="Ellipse 13" cx="2.134" cy="2.134" r="2.134" fill="#fff" stroke="#134f76" stroke-miterlimit="10" stroke-width="1"/>
            </g>
            <path id="Path_10557" data-name="Path 10557" d="M944.966,544.435h3.257a.49.49,0,0,0,.491-.49h0c0-1.577,0-3.3,0-4.426a1.144,1.144,0,0,1,1.035-1.229H951.2a2.706,2.706,0,0,1,2.448,2.9v4.862a1.461,1.461,0,0,1-1.322,1.568h-5.767a.464.464,0,0,0-.464.464h0v4.149a.641.641,0,0,1-.641.641h-1.219a.641.641,0,0,1-.641-.641v-6.43A1.374,1.374,0,0,1,944.966,544.435Z" transform="translate(-926 -529.726)" fill="#fff" stroke="#134f76" stroke-miterlimit="10" stroke-width="1"/>
            <path id="Rectangle_564" data-name="Rectangle 564" d="M915.008,544.919h11.315a1.151,1.151,0,0,1,1.151,1.151h0a1.152,1.152,0,0,1-1.151,1.151H915.008a1.152,1.152,0,0,1-1.151-1.151h0A1.152,1.152,0,0,1,915.008,544.919Z" transform="translate(-906.842 -533.997)" fill="#fff" stroke="#134f76" stroke-miterlimit="10" stroke-width="1"/>
          </g>
        </g>
        <g id="Groupe_1824" data-name="Groupe 1824" transform="translate(-698.412 -686.711)">
          <g id="Groupe_1823" data-name="Groupe 1823" transform="translate(1412.714 797.995)">
            <path id="Tracé_18965" data-name="Tracé 18965" d="M1413.341,868.519h0a2.142,2.142,0,0,1,.056-3.084l9.106-8.357,2.344,2.325-8.423,9.06A2.142,2.142,0,0,1,1413.341,868.519Z" transform="translate(-1412.714 -857.078)" fill="#01e3a6" stroke="#143d66" stroke-linecap="round" stroke-linejoin="round" stroke-width="1"/>
          </g>
          <g id="Tracé_18966" data-name="Tracé 18966" transform="translate(-40.831 0)" fill="#01e3a6" stroke-linecap="round" stroke-linejoin="round">
            <path d="M 1465.708374023438 800.7738647460938 C 1465.428344726562 800.7738647460938 1465.165283203125 800.664794921875 1464.967651367188 800.4667358398438 L 1463.14111328125 798.6402587890625 C 1462.943237304688 798.4425048828125 1462.834228515625 798.1795043945312 1462.834228515625 797.8997802734375 C 1462.834228515625 797.6199951171875 1462.943237304688 797.35693359375 1463.141235351562 797.1591796875 L 1464.239379882812 796.06103515625 C 1463.381958007812 794.5202026367188 1463.016723632812 792.7227783203125 1463.208618164062 790.95556640625 C 1463.418090820312 789.0252075195312 1464.289306640625 787.2062377929688 1465.661743164062 785.8338012695312 C 1467.276977539062 784.2185668945312 1469.427734375 783.3290405273438 1471.717895507812 783.3290405273438 C 1474.008056640625 783.3290405273438 1476.158935546875 784.2185668945312 1477.774169921875 785.8338012695312 C 1479.389526367188 787.4491577148438 1480.279174804688 789.5999755859375 1480.279174804688 791.8901977539062 C 1480.279174804688 794.180419921875 1479.389526367188 796.3312377929688 1477.774169921875 797.946533203125 C 1476.159912109375 799.5608520507812 1474.01025390625 800.4498901367188 1471.72119140625 800.4498901367188 C 1470.252563476562 800.4498901367188 1468.817749023438 800.0772094726562 1467.546875 799.368896484375 L 1466.448608398438 800.4671020507812 C 1466.251342773438 800.664794921875 1465.98828125 800.7738647460938 1465.708374023438 800.7738647460938 Z M 1471.718017578125 785.8778686523438 C 1470.109375 785.8778686523438 1468.598754882812 786.5025634765625 1467.464477539062 787.63671875 C 1466.356811523438 788.7445068359375 1465.732666015625 790.2195434570312 1465.707397460938 791.7900390625 C 1465.682006835938 793.3568725585938 1466.25390625 794.8480834960938 1467.317749023438 795.9891357421875 L 1467.34228515625 796.015380859375 C 1467.384399414062 796.0606689453125 1467.42431640625 796.103515625 1467.464111328125 796.1431884765625 C 1468.598754882812 797.27783203125 1470.109375 797.9024658203125 1471.718017578125 797.9024658203125 C 1473.32666015625 797.9024658203125 1474.837280273438 797.27783203125 1475.971435546875 796.1436157226562 C 1476.004638671875 796.1105346679688 1476.03564453125 796.0770874023438 1476.066772460938 796.0436401367188 L 1476.102294921875 796.005615234375 C 1477.173706054688 794.8651123046875 1477.751220703125 793.3717651367188 1477.728637695312 791.8005981445312 C 1477.7060546875 790.2260131835938 1477.081909179688 788.7472534179688 1475.971435546875 787.6367797851562 C 1474.837280273438 786.5025634765625 1473.32666015625 785.8778686523438 1471.718017578125 785.8778686523438 Z" stroke="none"/>
            <path d="M 1465.708374023438 800.2738647460938 C 1465.848388671875 800.2738647460938 1465.988403320312 800.220458984375 1466.095092773438 800.113525390625 L 1467.466918945312 798.7418212890625 C 1468.7646484375 799.547119140625 1470.243041992188 799.9498901367188 1471.72119140625 799.9498901367188 C 1473.785278320312 799.9498901367188 1475.84912109375 799.1644897460938 1477.420654296875 797.5929565429688 C 1480.565307617188 794.4484252929688 1480.565307617188 789.3319702148438 1477.420654296875 786.1873779296875 C 1475.848388671875 784.6151733398438 1473.783203125 783.8290405273438 1471.717895507812 783.8290405273438 C 1469.652709960938 783.8290405273438 1467.58740234375 784.6151733398438 1466.015258789062 786.1873779296875 C 1463.317993164062 788.8846435546875 1462.9365234375 793.03125 1464.866333007812 796.1411743164062 L 1463.49462890625 797.512939453125 C 1463.28076171875 797.7265625 1463.28076171875 798.0729370117188 1463.49462890625 798.2866821289062 L 1465.321533203125 800.113525390625 C 1465.42822265625 800.220458984375 1465.568237304688 800.2738647460938 1465.708374023438 800.2738647460938 M 1471.718017578125 785.3778686523438 C 1473.386352539062 785.3778686523438 1475.054809570312 786.0130004882812 1476.324951171875 787.283203125 C 1478.81640625 789.7745971679688 1478.862548828125 793.7974853515625 1476.466796875 796.347900390625 C 1476.419799804688 796.39794921875 1476.373779296875 796.4485473632812 1476.324951171875 796.4971923828125 C 1475.054809570312 797.767333984375 1473.386352539062 798.4024658203125 1471.718017578125 798.4024658203125 C 1470.049560546875 798.4024658203125 1468.381225585938 797.767333984375 1467.110961914062 796.4971923828125 C 1467.05615234375 796.4425048828125 1467.00439453125 796.3861694335938 1466.952026367188 796.330078125 C 1464.573364257812 793.7787475585938 1464.625366210938 789.768798828125 1467.110961914062 787.283203125 C 1468.381225585938 786.0130004882812 1470.049560546875 785.3778686523438 1471.718017578125 785.3778686523438 M 1465.708374023438 801.2738647460938 C 1465.294555664062 801.2738647460938 1464.905883789062 801.1126708984375 1464.61376953125 800.8199462890625 L 1462.787475585938 798.9937744140625 C 1462.495239257812 798.7017211914062 1462.334228515625 798.3131103515625 1462.334228515625 797.8997802734375 C 1462.334228515625 797.486328125 1462.495361328125 797.09765625 1462.787963867188 796.805419921875 L 1463.624877929688 795.9684448242188 C 1462.845336914062 794.4152221679688 1462.522338867188 792.6444702148438 1462.71142578125 790.901611328125 C 1462.933227539062 788.8583374023438 1463.85546875 786.9329833984375 1465.30810546875 785.4802856445312 C 1467.017822265625 783.7705688476562 1469.294189453125 782.8290405273438 1471.717895507812 782.8290405273438 C 1474.1416015625 782.8290405273438 1476.418090820312 783.7705688476562 1478.127807617188 785.4802856445312 C 1479.837524414062 787.1900024414062 1480.779174804688 789.4664306640625 1480.779174804688 791.8901977539062 C 1480.779174804688 794.31396484375 1479.837524414062 796.5903930664062 1478.127685546875 798.300048828125 C 1476.4189453125 800.0088500976562 1474.143798828125 800.9498901367188 1471.72119140625 800.9498901367188 C 1470.295166015625 800.9498901367188 1468.89892578125 800.61767578125 1467.639282226562 799.983642578125 L 1466.802124023438 800.8206787109375 C 1466.5107421875 801.1126708984375 1466.1220703125 801.2738647460938 1465.708374023438 801.2738647460938 Z M 1471.718017578125 786.3778686523438 C 1470.242919921875 786.3778686523438 1468.857788085938 786.9505004882812 1467.818115234375 787.9902954101562 C 1466.802612304688 789.0057983398438 1466.230590820312 790.3580932617188 1466.207275390625 791.7981567382812 C 1466.18408203125 793.2349243164062 1466.708251953125 794.6022338867188 1467.683471679688 795.6481323242188 L 1467.708129882812 795.6746215820312 C 1467.7470703125 795.7164916992188 1467.783935546875 795.7559814453125 1467.817260742188 795.7892456054688 C 1468.857788085938 796.829833984375 1470.242919921875 797.4024658203125 1471.718017578125 797.4024658203125 C 1473.193115234375 797.4024658203125 1474.578125 796.829833984375 1475.617797851562 795.7901000976562 C 1475.647338867188 795.7606811523438 1475.674072265625 795.731689453125 1475.700927734375 795.7028198242188 L 1475.73779296875 795.663330078125 C 1476.719970703125 794.6178588867188 1477.249389648438 793.2485961914062 1477.228637695312 791.8078002929688 C 1477.207885742188 790.3640747070312 1476.635864257812 789.00830078125 1475.617797851562 787.9902954101562 C 1474.578125 786.9505004882812 1473.193115234375 786.3778686523438 1471.718017578125 786.3778686523438 Z" stroke="none" fill="#143d66"/>
          </g>
        </g>
      </g>
      <path id="Icon_awesome-check" data-name="Icon awesome-check" d="M9.51,25.047l-9.1-9.1a1.4,1.4,0,0,1,0-1.98l1.98-1.98a1.4,1.4,0,0,1,1.98,0l6.13,6.13L23.63,4.987a1.4,1.4,0,0,1,1.98,0l1.98,1.98a1.4,1.4,0,0,1,0,1.98l-16.1,16.1A1.4,1.4,0,0,1,9.51,25.047Z" transform="translate(1228 96.405)" fill="#fff" stroke="#143d66" stroke-width="1"/>
    </g>
  </g>
</svg>
