<svg xmlns="http://www.w3.org/2000/svg" width="728" height="94.242" viewBox="0 0 728 94.242">
  <g id="Groupe_2241" data-name="Groupe 2241" transform="translate(-599 -92.758)">
    <g id="Groupe_2016" data-name="Groupe 2016" transform="translate(0 3)">
      <g id="Groupe_2015" data-name="Groupe 2015" transform="translate(-46 -1)">
        <path id="Tracé_19215" data-name="Tracé 19215" d="M0,0H560.625" transform="translate(724.875 136.305)" fill="none" stroke="#143d66" stroke-width="2"/>
        <g id="Ellipse_48" data-name="Ellipse 48" transform="translate(723 129)" fill="#143d66" stroke="#143d66" stroke-width="1">
          <ellipse cx="6.5" cy="7" rx="6.5" ry="7" stroke="none"/>
          <ellipse cx="6.5" cy="7" rx="6" ry="6.5" fill="none"/>
        </g>
        <g id="Tracé_19216" data-name="Tracé 19216" transform="translate(903 130)" fill="#f8dc47">
          <path d="M 6.5 13 C 3.467289924621582 13 1 10.30840969085693 1 7 C 1 3.691590070724487 3.467289924621582 1 6.5 1 C 9.532710075378418 1 12 3.691590070724487 12 7 C 12 10.30840969085693 9.532710075378418 13 6.5 13 Z" stroke="none"/>
          <path d="M 6.5 2 C 4.01869010925293 2 2 4.242989540100098 2 7 C 2 9.757009506225586 4.01869010925293 12 6.5 12 C 8.98130989074707 12 11 9.757009506225586 11 7 C 11 4.242989540100098 8.98130989074707 2 6.5 2 M 6.5 0 C 10.0898494720459 0 13 3.134010314941406 13 7 C 13 10.86598968505859 10.0898494720459 14 6.5 14 C 2.910149574279785 14 0 10.86598968505859 0 7 C 0 3.134010314941406 2.910149574279785 0 6.5 0 Z" stroke="none" fill="#143d66"/>
        </g>
        <g id="Ellipse_50" data-name="Ellipse 50" transform="translate(1091 130)" fill="#e4f0f8" stroke="#143d66" stroke-width="2">
          <ellipse cx="6.5" cy="7" rx="6.5" ry="7" stroke="none"/>
          <ellipse cx="6.5" cy="7" rx="5.5" ry="6" fill="none"/>
        </g>
        <g id="Ellipse_57" data-name="Ellipse 57" transform="translate(1279 129)" fill="#e4f0f8" stroke="#143d66" stroke-width="2">
          <ellipse cx="6.5" cy="7" rx="6.5" ry="7" stroke="none"/>
          <ellipse cx="6.5" cy="7" rx="5.5" ry="6" fill="none"/>
        </g>
        <text id="Appel_à_candidature" data-name="Appel à candidature" transform="translate(645 153)" fill="#143d66" font-size="18" font-family="OpenSans-Bold, Open Sans" font-weight="700"><tspan x="0" y="19">Appel à candidature</tspan></text>
        <text id="Déliberation" transform="translate(853 153)" fill="#04c38f" font-size="18" font-family="OpenSans-Bold, Open Sans" font-weight="700"><tspan x="0" y="19">Déliberation</tspan></text>
        <text id="Projet_affecté" data-name="Projet affecté" transform="translate(1044 153)" fill="#143d66" font-size="18" font-family="OpenSans, Open Sans"><tspan x="0" y="19">Projet affecté</tspan></text>
        <text id="Projet_Terminé" data-name="Projet Terminé" transform="translate(1226 153)" fill="#143d66" font-size="18" font-family="OpenSans, Open Sans"><tspan x="0" y="19">Projet Terminé</tspan></text>
        <g id="Group_1047" data-name="Group 1047" transform="translate(1086.272 89.918) rotate(16)">
          <g id="Groupe_1317" data-name="Groupe 1317" transform="translate(15.996 0) rotate(34)">
            <path id="Path_10560" data-name="Path 10560" d="M12.214,19.972a3.682,3.682,0,0,0-.97-2.559,2.707,2.707,0,0,0-.237-.313,29.867,29.867,0,0,0-.282-9.855,8.921,8.921,0,0,0-.61-1.463A24.287,24.287,0,0,0,6.677.3c-.25-.311-.488-.457-.791-.07A24.224,24.224,0,0,0,2.4,5.8a8.55,8.55,0,0,0-.75,2.149,31.912,31.912,0,0,0-.158,9.151.846.846,0,0,0-.129.146,4.046,4.046,0,0,0-1.079,2.44c.007,2.044-.107,4.089-.195,6.133a5.89,5.89,0,0,0,.169,2.791c.881-1.442,1.766-2.882,2.637-4.33a.512.512,0,0,0,.041-.092.778.778,0,0,0,.092.037.393.393,0,0,0-.066.341c.061.435-.1,1.131.526,1.155,1.822.073,3.65.062,5.472,0,.709-.026.56-.75.606-1.2a.339.339,0,0,0-.086-.308c.025-.011.05-.023.073-.036a.659.659,0,0,0,.073.174q1.292,2.125,2.594,4.243l.229-.07a3.087,3.087,0,0,0,.07-.534C12.413,25.31,12.262,22.642,12.214,19.972Z" transform="translate(0 0)" fill="#fff" stroke="#143d66" stroke-miterlimit="10" stroke-width="1"/>
            <circle id="Ellipse_15" data-name="Ellipse 15" cx="1.125" cy="1.125" r="1.125" transform="translate(5.132 10.371)" fill="#fff" stroke="#143d66" stroke-miterlimit="10" stroke-width="1"/>
          </g>
        </g>
        <g id="Group_1044" data-name="Group 1044" transform="translate(895.416 97.118)">
          <g id="Groupe_1315" data-name="Groupe 1315">
            <g id="Group_1040" data-name="Group 1040" transform="translate(5.952)">
              <path id="Path_10554" data-name="Path 10554" d="M916.394,514.216h-4.761a.766.766,0,0,0-.766.765v2.749a.766.766,0,0,0,.766.766h.294v.534a.265.265,0,0,0,.447.191l.765-.726h3.255a.765.765,0,0,0,.765-.765v-2.75A.765.765,0,0,0,916.394,514.216Z" transform="translate(-910.868 -514.216)" fill="#04c38f" stroke="#134f76" stroke-miterlimit="10" stroke-width="1"/>
            </g>
            <g id="Group_1041" data-name="Group 1041" transform="translate(16.251 0.618)">
              <path id="Path_10555" data-name="Path 10555" d="M940.493,515.953h4.182a.672.672,0,0,1,.672.672h0v2.416a.672.672,0,0,1-.672.672h-.258v.469a.233.233,0,0,1-.393.169l-.672-.636h-2.859a.672.672,0,0,1-.672-.672h0v-2.417a.672.672,0,0,1,.671-.673Z" transform="translate(-939.821 -515.953)" fill="#04c38f" stroke="#134f76" stroke-miterlimit="10" stroke-width="1"/>
            </g>
            <g id="Group_1042" data-name="Group 1042" transform="translate(0.67 3.242)">
              <circle id="Ellipse_12" data-name="Ellipse 12" cx="2.134" cy="2.134" r="2.134" fill="#04c38f" stroke="#134f76" stroke-miterlimit="10" stroke-width="1"/>
            </g>
            <path id="Path_10556" data-name="Path 10556" d="M902.818,544.435h-3.257a.49.49,0,0,1-.49-.489h0c0-1.577,0-3.3,0-4.426a1.144,1.144,0,0,0-1.035-1.229h-1.454a2.706,2.706,0,0,0-2.448,2.9v4.862a1.461,1.461,0,0,0,1.322,1.568h5.768a.464.464,0,0,1,.464.464v4.149a.641.641,0,0,0,.641.641h1.219a.641.641,0,0,0,.641-.641v-6.43A1.374,1.374,0,0,0,902.818,544.435Z" transform="translate(-894.136 -529.726)" fill="#04c38f" stroke="#134f76" stroke-miterlimit="10" stroke-width="1"/>
            <g id="Group_1043" data-name="Group 1043" transform="translate(22.71 3.242)">
              <circle id="Ellipse_13" data-name="Ellipse 13" cx="2.134" cy="2.134" r="2.134" fill="#04c38f" stroke="#134f76" stroke-miterlimit="10" stroke-width="1"/>
            </g>
            <path id="Path_10557" data-name="Path 10557" d="M944.966,544.435h3.257a.49.49,0,0,0,.491-.49h0c0-1.577,0-3.3,0-4.426a1.144,1.144,0,0,1,1.035-1.229H951.2a2.706,2.706,0,0,1,2.448,2.9v4.862a1.461,1.461,0,0,1-1.322,1.568h-5.767a.464.464,0,0,0-.464.464h0v4.149a.641.641,0,0,1-.641.641h-1.219a.641.641,0,0,1-.641-.641v-6.43A1.374,1.374,0,0,1,944.966,544.435Z" transform="translate(-926 -529.726)" fill="#04c38f" stroke="#134f76" stroke-miterlimit="10" stroke-width="1"/>
            <path id="Rectangle_564" data-name="Rectangle 564" d="M915.008,544.919h11.315a1.151,1.151,0,0,1,1.151,1.151h0a1.152,1.152,0,0,1-1.151,1.151H915.008a1.152,1.152,0,0,1-1.151-1.151h0A1.152,1.152,0,0,1,915.008,544.919Z" transform="translate(-906.842 -533.997)" fill="#04c38f" stroke="#134f76" stroke-miterlimit="10" stroke-width="1"/>
          </g>
        </g>
        <g id="Groupe_2012" data-name="Groupe 2012" transform="translate(-1559.44 -1415.468)">
          <path id="Tracé_15606" data-name="Tracé 15606" d="M2697.969,1379.093a.321.321,0,0,1,0-.608,1.161,1.161,0,0,1,1.053,0l1.384.8a.321.321,0,0,1,0,.608,1.163,1.163,0,0,1-1.052,0Z" transform="translate(-408.561 156.415)" fill="#143d66" fill-rule="evenodd"/>
          <path id="Tracé_15607" data-name="Tracé 15607" d="M2697.479,1378.223a.236.236,0,0,1-.073-.06l0,0h0a.23.23,0,0,1,.073-.061h0a.613.613,0,0,1,.165-.064,1.031,1.031,0,0,1,.442,0,.615.615,0,0,1,.166.064l.016.009,1.369.791a.234.234,0,0,1,.073.06l0,0v0h0a.233.233,0,0,1-.074.06l-.011.007a.662.662,0,0,1-.155.057,1.039,1.039,0,0,1-.441,0,.636.636,0,0,1-.167-.064l-1.384-.8Zm-.528.265a.786.786,0,0,0,.25.218l1.384.8a1.191,1.191,0,0,0,.315.122,1.5,1.5,0,0,0,.7,0,1.218,1.218,0,0,0,.3-.113l.019-.01a.794.794,0,0,0,.249-.219h0a.54.54,0,0,0,.017-.63.289.289,0,0,0-.016-.025.8.8,0,0,0-.25-.218l-1.368-.79-.015-.009a1.2,1.2,0,0,0-.316-.123,1.5,1.5,0,0,0-.7,0,1.2,1.2,0,0,0-.316.123h0a.794.794,0,0,0-.249.217h0a.557.557,0,0,0-.11.327.544.544,0,0,0,.093.3A.216.216,0,0,0,2696.951,1378.488Z" transform="translate(-407.926 157.043)" fill="#143d66" fill-rule="evenodd"/>
          <path id="Tracé_15608" data-name="Tracé 15608" d="M2707.438,1384.443a.32.32,0,0,1,0-.607,1.162,1.162,0,0,1,1.053,0l1.383.8a.32.32,0,0,1,0,.608,1.163,1.163,0,0,1-1.052,0Z" transform="translate(-421.072 152.712)" fill="#143d66" fill-rule="evenodd"/>
          <path id="Tracé_15609" data-name="Tracé 15609" d="M2706.948,1383.573a.223.223,0,0,1-.073-.06l0,0h0a.224.224,0,0,1,.073-.061h0a.612.612,0,0,1,.166-.064,1.023,1.023,0,0,1,.441,0,.616.616,0,0,1,.166.064l.016.008,1.369.79a.231.231,0,0,1,.073.06l0,0h0a.243.243,0,0,1-.074.061l-.011.007a.679.679,0,0,1-.155.057,1.035,1.035,0,0,1-.441,0,.624.624,0,0,1-.167-.064l-1.384-.8Zm-.528.266a.8.8,0,0,0,.25.218l1.384.8a1.189,1.189,0,0,0,.315.123,1.5,1.5,0,0,0,.7,0,1.2,1.2,0,0,0,.3-.113l.019-.01a.78.78,0,0,0,.249-.218h0a.56.56,0,0,0,.11-.327.551.551,0,0,0-.093-.3.229.229,0,0,0-.016-.025.791.791,0,0,0-.25-.218l-1.368-.79-.015-.009a1.173,1.173,0,0,0-.316-.123,1.493,1.493,0,0,0-.7,0,1.176,1.176,0,0,0-.317.123h0a.789.789,0,0,0-.249.217h0a.555.555,0,0,0-.11.327.547.547,0,0,0,.093.3A.226.226,0,0,0,2706.42,1383.839Z" transform="translate(-420.448 153.341)" fill="#143d66" fill-rule="evenodd"/>
          <path id="Tracé_15610" data-name="Tracé 15610" d="M2705.792,1338.133a1.048,1.048,0,0,1,.669.976c0,.03,0,.059,0,.088l-.012,5.764c0,1.789-.155,3.745-.229,5.55a.369.369,0,0,1-.218.3,1.165,1.165,0,0,1-1.053,0,.371.371,0,0,1-.218-.3c-.005-1.855-.017-3.712-.017-5.566l-.455-3.665-.578.326-.15,5c-.066,1.849-.152,3.7-.229,5.549a.37.37,0,0,1-.218.3,1.166,1.166,0,0,1-1.052,0,.37.37,0,0,1-.218-.3c-.005-1.855-.018-3.711-.018-5.567l-.34-5.747c0-.029,0-.058,0-.087,0-.624.386-.825.843-1.083l1.486-.841,1.057-.6A1.091,1.091,0,0,1,2705.792,1338.133Z" transform="translate(-415.639 184.292)" fill="#fff" fill-rule="evenodd"/>
          <path id="Tracé_15611" data-name="Tracé 15611" d="M2705.062,1337.765a.767.767,0,0,1,.489.716v.033l0,.032a.407.407,0,0,0,0,.046l-.012,5.742h0c0,1.2-.069,2.466-.136,3.708-.034.613-.067,1.221-.092,1.83v.011h0s0,0,0,0h0a.223.223,0,0,1-.074.06l-.011.007a.663.663,0,0,1-.155.057,1.024,1.024,0,0,1-.441,0,.652.652,0,0,1-.167-.064.225.225,0,0,1-.073-.06l0-.007q0-1.036-.008-2.064c0-1.033-.009-2.064-.009-3.5a.322.322,0,0,0,0-.044l-.455-3.655a.28.28,0,0,0-.438-.2l-.554.312a.279.279,0,0,0-.142.236h0l-.15,5c-.043,1.223-.1,2.464-.15,3.7-.026.6-.052,1.205-.079,1.844v.011h0s0,0,0,0h0a.23.23,0,0,1-.074.06l-.011.007a.636.636,0,0,1-.155.057,1.04,1.04,0,0,1-.441,0,.615.615,0,0,1-.167-.064.224.224,0,0,1-.073-.06l-.005-.007c0-.692,0-1.379-.008-2.066,0-1.033-.008-2.066-.008-3.495a.282.282,0,0,0,0-.035l-.339-5.735h0l0-.032v-.032c0-.445.3-.615.664-.82l.037-.021h0l2.54-1.436a1.079,1.079,0,0,1,.38-.132.706.706,0,0,1,.342.043Zm.817-.032a1.331,1.331,0,0,0-.616-.489,1.25,1.25,0,0,0-.609-.078,1.618,1.618,0,0,0-.583.2h0c-.852.469-1.7.961-2.546,1.44h0l-.035.02c-.519.293-.95.537-.95,1.306l0,.11h0l.338,5.725c0,.9.005,2.2.011,3.5,0,.692.006,1.383.007,2.07h0a.549.549,0,0,0,.093.3l.016.025a.784.784,0,0,0,.25.218,1.188,1.188,0,0,0,.315.123,1.5,1.5,0,0,0,.7,0,1.2,1.2,0,0,0,.3-.113l.019-.01a.784.784,0,0,0,.249-.218h0a.558.558,0,0,0,.109-.328h0c.024-.586.051-1.208.078-1.831.053-1.23.106-2.461.15-3.709l.146-4.849.077-.043.4,3.233c0,.9.006,2.192.011,3.483q0,1.036.008,2.067h0a.549.549,0,0,0,.093.3.229.229,0,0,0,.016.025.8.8,0,0,0,.25.218,1.182,1.182,0,0,0,.316.122,1.507,1.507,0,0,0,.7,0,1.189,1.189,0,0,0,.3-.112l.018-.01a.786.786,0,0,0,.249-.218h0a.553.553,0,0,0,.11-.327h0c.024-.58.057-1.194.091-1.813.068-1.262.138-2.545.138-3.737h0c0-1.923-.054-3.941.017-5.852A1.32,1.32,0,0,0,2705.879,1337.734Z" transform="translate(-415.011 184.92)" fill="#143d66" fill-rule="evenodd"/>
          <path id="Tracé_15612" data-name="Tracé 15612" d="M2706.589,1346.33a.279.279,0,0,0-.278-.483l-1.517.876a.279.279,0,0,0,.278.483Z" transform="translate(-416.866 178.934)" fill="#143d66" fill-rule="evenodd"/>
          <path id="Tracé_15613" data-name="Tracé 15613" d="M2723.4,1341.759l.75.146-.26,1.4-.325.119-.4,1.177-.365-.28A5.34,5.34,0,0,1,2723.4,1341.759Z" transform="translate(-440.086 181.737)" fill="#fff" fill-rule="evenodd"/>
          <path id="Tracé_15614" data-name="Tracé 15614" d="M2722.945,1341.449l.254.049-.18.968-.176.064a.278.278,0,0,0-.169.172h0l-.183.532a6.7,6.7,0,0,1,.114-.884,4.628,4.628,0,0,1,.255-.7l.084-.2Zm.632-.447-.739-.144a.279.279,0,0,0-.323.167c-.075.182-.125.3-.17.41a4.991,4.991,0,0,0-.284.788,9.587,9.587,0,0,0-.149,1.24l-.018.183a.281.281,0,0,0,.106.264l.352.27a.28.28,0,0,0,.448-.12l.361-1.051.2-.073a.277.277,0,0,0,.179-.212l.257-1.382,0-.013A.28.28,0,0,0,2723.577,1341Z" transform="translate(-439.458 182.365)" fill="#143d66" fill-rule="evenodd"/>
          <path id="Tracé_15615" data-name="Tracé 15615" d="M2688.149,1289.153l.715.273.518-1.323-.212-.274.28-1.212-.458.045A5.346,5.346,0,0,0,2688.149,1289.153Z" transform="translate(-394.289 219.886)" fill="#fff" fill-rule="evenodd"/>
          <path id="Tracé_15616" data-name="Tracé 15616" d="M2687.422,1288.787l.715.273a.279.279,0,0,0,.361-.162l.518-1.321a.279.279,0,0,0-.052-.287l-.12-.154.25-1.083a.279.279,0,0,0-.21-.335.276.276,0,0,0-.1,0l-.442.043a.279.279,0,0,0-.223.152l-.091.181a9.638,9.638,0,0,0-.528,1.131,5.027,5.027,0,0,0-.176.819c-.017.1-.037.224-.074.438a.28.28,0,0,0,.176.308Zm.656-.348-.242-.093.035-.216a4.6,4.6,0,0,1,.154-.729,6.748,6.748,0,0,1,.372-.809l-.127.549h0a.279.279,0,0,0,.052.234l.115.147Z" transform="translate(-393.661 220.513)" fill="#143d66" fill-rule="evenodd"/>
          <path id="Tracé_15617" data-name="Tracé 15617" d="M2695.092,1294.82l-.761,2.921c-.007.016-.014.031-.021.047a.667.667,0,0,1-.157.2l-3.308,3.321-1.278-1.459,3.629-2.808.912-2.671C2694.326,1293.728,2695.358,1293.8,2695.092,1294.82Z" transform="translate(-400.411 214.809)" fill="#fff" fill-rule="evenodd"/>
          <path id="Tracé_15618" data-name="Tracé 15618" d="M2694.2,1294.124l-.755,2.9-.012.025a.36.36,0,0,1-.035.052.376.376,0,0,1-.05.055l-.014.014-3.1,3.109-.885-1.011,3.394-2.626a.272.272,0,0,0,.094-.131l.912-2.671a.321.321,0,0,1,.241-.221.225.225,0,0,1,.1,0,.16.16,0,0,1,.072.044c.069.072.1.221.033.463Zm-.221,3.06.761-2.921a1,1,0,0,0-.168-.987.724.724,0,0,0-.323-.195.787.787,0,0,0-.359-.017.878.878,0,0,0-.669.591l-.884,2.592-3.562,2.756-.013.011a.279.279,0,0,0-.026.393l1.271,1.452.02.022a.28.28,0,0,0,.4,0l3.3-3.316a.9.9,0,0,0,.116-.123.99.99,0,0,0,.088-.136l.01-.017.015-.032.015-.034h0A.277.277,0,0,0,2693.974,1297.184Z" transform="translate(-399.784 215.435)" fill="#143d66" fill-rule="evenodd"/>
          <path id="Tracé_15619" data-name="Tracé 15619" d="M2706.05,1319.7v-7.348c-.075-.675-1.069-1.247-1.5-.995l-3.059,1.766a1.4,1.4,0,0,0-.763,1.047v7.882c.014.631,1.118.653,1.5.431l1.153-.666,2.214-1.278A.784.784,0,0,0,2706.05,1319.7Z" transform="translate(-415.002 202.813)" fill="#fff" fill-rule="evenodd"/>
          <path id="Tracé_15620" data-name="Tracé 15620" d="M2705.7,1319.072v-7.348a.319.319,0,0,0,0-.051,1.182,1.182,0,0,0-.153-.435,1.8,1.8,0,0,0-.654-.632,1.411,1.411,0,0,0-.822-.211.748.748,0,0,0-.291.093l-.014.009-3.041,1.755h0a2.087,2.087,0,0,0-.643.566,1.267,1.267,0,0,0-.263.72v7.543h0v.343a.3.3,0,0,0,0,.037.721.721,0,0,0,.1.324h0a.91.91,0,0,0,.51.39,1.8,1.8,0,0,0,.61.086,1.555,1.555,0,0,0,.7-.164l3.369-1.945h0a1.134,1.134,0,0,0,.433-.38,1.257,1.257,0,0,0,.163-.7Zm-.561-7.334v7.334a.77.77,0,0,1-.075.4.678.678,0,0,1-.241.194h0l-3.368,1.944a.991.991,0,0,1-.435.09,1.223,1.223,0,0,1-.418-.057.377.377,0,0,1-.209-.14h0a.172.172,0,0,1-.022-.072v-.354h0v-7.533a.721.721,0,0,1,.156-.4,1.509,1.509,0,0,1,.466-.406h0l3.047-1.759.015-.008a.189.189,0,0,1,.073-.02.858.858,0,0,1,.484.139,1.24,1.24,0,0,1,.448.429A.627.627,0,0,1,2705.143,1311.737Z" transform="translate(-414.378 203.441)" fill="#143d66" fill-rule="evenodd"/>
          <path id="Tracé_15621" data-name="Tracé 15621" d="M2707.357,1310.7a1.128,1.128,0,0,0,1.022,0,.312.312,0,0,0,0-.59,1.133,1.133,0,0,0-1.022,0A.311.311,0,0,0,2707.357,1310.7Z" transform="translate(-419.512 203.716)" fill="#fff" fill-rule="evenodd"/>
          <path id="Tracé_15622" data-name="Tracé 15622" d="M2706.587,1310.316a1.4,1.4,0,0,0,1.3,0,.739.739,0,0,0,.276-.265h0a.527.527,0,0,0,0-.543h0a.737.737,0,0,0-.276-.265,1.4,1.4,0,0,0-1.3,0,.737.737,0,0,0-.276.265.214.214,0,0,0-.011.021.53.53,0,0,0-.063.251h0a.535.535,0,0,0,.076.271h0a.735.735,0,0,0,.276.264Zm.651-.4a.759.759,0,0,1-.371-.084h0a.216.216,0,0,1-.067-.053.235.235,0,0,1,.068-.053.861.861,0,0,1,.742,0,.055.055,0,1,1,0,.106A.761.761,0,0,1,2707.238,1309.917Z" transform="translate(-418.884 204.345)" fill="#0087ca" fill-rule="evenodd"/>
          <path id="Tracé_15623" data-name="Tracé 15623" d="M2706.9,1311.345h1.445l.106,1.375a.273.273,0,0,1,0,.042.414.414,0,0,1-.244.34,1.3,1.3,0,0,1-1.177,0,.413.413,0,0,1-.244-.34.307.307,0,0,1,0-.042Z" transform="translate(-419.267 202.779)" fill="#fff" fill-rule="evenodd"/>
          <path id="Tracé_15624" data-name="Tracé 15624" d="M2706.53,1311h.928l.086,1.115,0,.022h0a.044.044,0,0,1-.011.021h0a.285.285,0,0,1-.094.077,1.034,1.034,0,0,1-.9,0h0a.289.289,0,0,1-.094-.077h0a.046.046,0,0,1-.011-.021h0l0-.022.086-1.116Zm1.187-.56h-1.7l-.126,1.621a.566.566,0,0,0-.005.075h0a.587.587,0,0,0,.115.346h0a.842.842,0,0,0,.268.235h0a1.571,1.571,0,0,0,1.456,0,.855.855,0,0,0,.268-.235h0a.588.588,0,0,0,.115-.346h0c0-.012,0-.026,0-.042a.326.326,0,0,0,0-.033l-.125-1.622Zm-.171,1.7" transform="translate(-418.64 203.407)" fill="#143d66" fill-rule="evenodd"/>
          <path id="Tracé_15625" data-name="Tracé 15625" d="M2706.517,1300.958h-.272a1.233,1.233,0,0,0-1.247,1.248l.064,1.522a1.271,1.271,0,0,0,1.247,1.248h.136a1.273,1.273,0,0,0,1.248-1.248l.071-1.522A1.231,1.231,0,0,0,2706.517,1300.958Z" transform="translate(-418.029 209.965)" fill="#fff" fill-rule="evenodd"/>
          <path id="Tracé_15626" data-name="Tracé 15626" d="M2705.89,1300.048h-.271l-.064,0a1.558,1.558,0,0,0-1.025.446,1.446,1.446,0,0,0-.439,1.03l0,.059.064,1.522a1.614,1.614,0,0,0,.465,1.075,1.49,1.49,0,0,0,1.061.441h.136a1.484,1.484,0,0,0,1.059-.44,1.626,1.626,0,0,0,.468-1.075l.071-1.523c0-.033,0-.055,0-.065a1.44,1.44,0,0,0-.438-1.025,1.564,1.564,0,0,0-1.02-.447l-.071,0Zm-.271.56h.318a1,1,0,0,1,.653.288.879.879,0,0,1,.27.626v.041l-.071,1.523a1.066,1.066,0,0,1-.306.7.93.93,0,0,1-.663.276h-.136a.932.932,0,0,1-.665-.277,1.054,1.054,0,0,1-.3-.7l-.064-1.522v-.037a.888.888,0,0,1,.271-.632,1,1,0,0,1,.656-.287Z" transform="translate(-417.403 210.595)" fill="#143d66" fill-rule="evenodd"/>
          <path id="Tracé_15627" data-name="Tracé 15627" d="M2706.65,1300.958h-.271a1.234,1.234,0,0,0-1.248,1.248l.064,1.522a1.426,1.426,0,0,0,.683-1.2c1.043.122,1.387.064,1.98-.673A1.258,1.258,0,0,0,2706.65,1300.958Z" transform="translate(-418.162 209.965)" fill="#143d66" fill-rule="evenodd"/>
          <path id="Tracé_15628" data-name="Tracé 15628" d="M2706.024,1300.049h-.271l-.064,0a1.558,1.558,0,0,0-1.025.446,1.446,1.446,0,0,0-.44,1.03l0,.059.064,1.522a.279.279,0,0,0,.439.218,1.956,1.956,0,0,0,.564-.577,1.6,1.6,0,0,0,.206-.546,2.506,2.506,0,0,0,.994-.054,1.994,1.994,0,0,0,.956-.751.279.279,0,0,0,.049-.259,1.489,1.489,0,0,0-.549-.783,1.556,1.556,0,0,0-.925-.308Zm-.271.56h.271a1,1,0,0,1,.593.2.954.954,0,0,1,.3.364,1.322,1.322,0,0,1-.588.447,2.665,2.665,0,0,1-1.044,0h0l-.024,0a.279.279,0,0,0-.287.271,1.132,1.132,0,0,1-.152.562l-.037-.886v-.037a.889.889,0,0,1,.271-.632,1,1,0,0,1,.656-.287Z" transform="translate(-417.538 210.595)" fill="#143d66" fill-rule="evenodd"/>
          <path id="Tracé_15629" data-name="Tracé 15629" d="M2717.963,1321.116l-.119-1.312-.857-.272c-.521,1.165-1.105,2.3-1.747,3.465a.6.6,0,0,0-.088.239l-.546,2.989a.483.483,0,0,0,0,.2.49.49,0,0,0,.961.016l.747-2.855Z" transform="translate(-431.367 197.115)" fill="#fff" fill-rule="evenodd"/>
          <path id="Tracé_15630" data-name="Tracé 15630" d="M2716.615,1319.019a.279.279,0,1,0-.509-.228c-.258.575-.532,1.146-.823,1.721s-.592,1.14-.913,1.723a.848.848,0,0,0-.075.154.865.865,0,0,0-.045.181l-.544,2.971a.8.8,0,0,0-.017.149.711.711,0,0,0,.012.153.77.77,0,0,0,1.291.418.783.783,0,0,0,.219-.392h0l.732-2.8,1.627-2.427a.279.279,0,0,0-.464-.311l-1.679,2.506-.759,2.9,0,.011a.21.21,0,0,1-.167.163.215.215,0,0,1-.16-.034.211.211,0,0,1-.087-.135.3.3,0,0,1,0-.044.221.221,0,0,1,.006-.042c.2-1,.351-2.013.551-3.011a.293.293,0,0,1,.018-.067.307.307,0,0,1,.029-.062l.01-.015c.321-.581.628-1.158.923-1.74S2716.35,1319.608,2716.615,1319.019Z" transform="translate(-430.741 197.742)" fill="#143d66" fill-rule="evenodd"/>
        </g>
      </g>
      <path id="Icon_awesome-check" data-name="Icon awesome-check" d="M9.51,25.047l-9.1-9.1a1.4,1.4,0,0,1,0-1.98l1.98-1.98a1.4,1.4,0,0,1,1.98,0l6.13,6.13L23.63,4.987a1.4,1.4,0,0,1,1.98,0l1.98,1.98a1.4,1.4,0,0,1,0,1.98l-16.1,16.1A1.4,1.4,0,0,1,9.51,25.047Z" transform="translate(1228 96.405)" fill="#fff" stroke="#143d66" stroke-width="1"/>
    </g>
  </g>
</svg>
