<svg xmlns="http://www.w3.org/2000/svg" width="98.723" height="90.021" viewBox="0 0 98.723 90.021">
  <g id="Groupe_1830" data-name="Groupe 1830" transform="translate(-2180.456 -1671.625)">
    <g id="Groupe_1827" data-name="Groupe 1827" transform="translate(2181.502 1672.625)">
      <g id="Groupe_1825" data-name="Groupe 1825" transform="translate(7.224 47.689)">
        <path id="Tracé_18967" data-name="Tracé 18967" d="M2206.466,1782.251a2.851,2.851,0,0,1,3.9,1.192,39.894,39.894,0,0,0,27,20.451,39.485,39.485,0,0,0,34.457-9.973,40.849,40.849,0,0,0,9.921-14.948l-7.522,4.674a2.847,2.847,0,0,1-3.96-.985,2.98,2.98,0,0,1,.964-4.044l12.016-7.466a5.356,5.356,0,0,1,5.119-.574,5.548,5.548,0,0,1,3.351,4.146l2.594,13.868a2.941,2.941,0,0,1-2.289,3.443,2.866,2.866,0,0,1-3.372-2.339l-1.579-8.44a46.1,46.1,0,0,1-11.322,16.976,45.435,45.435,0,0,1-31.014,12.273,42.97,42.97,0,0,1-8.48-.837,45.721,45.721,0,0,1-30.952-23.431A2.975,2.975,0,0,1,2206.466,1782.251Z" transform="translate(-2204.953 -1770.176)" fill="none" stroke="#04c38f" stroke-linecap="round" stroke-linejoin="round" stroke-width="2"/>
      </g>
      <g id="Groupe_1826" data-name="Groupe 1826">
        <path id="Tracé_18968" data-name="Tracé 18968" d="M2280.214,1710.718a2.849,2.849,0,0,1-3.9-1.192,39.9,39.9,0,0,0-27-20.452,39.495,39.495,0,0,0-34.459,9.973,40.874,40.874,0,0,0-9.921,14.948l7.522-4.673a2.848,2.848,0,0,1,3.96.985,2.98,2.98,0,0,1-.964,4.045l-12.017,7.465a5.356,5.356,0,0,1-5.119.574,5.547,5.547,0,0,1-3.35-4.146l-2.594-13.867a2.941,2.941,0,0,1,2.29-3.444,2.858,2.858,0,0,1,.544-.052,2.9,2.9,0,0,1,2.827,2.392l1.58,8.44a46.107,46.107,0,0,1,11.32-16.977,45.44,45.44,0,0,1,31.015-12.273,43,43,0,0,1,8.479.837,45.724,45.724,0,0,1,30.953,23.43A2.975,2.975,0,0,1,2280.214,1710.718Z" transform="translate(-2192.322 -1682.462)" fill="none" stroke="#04c38f" stroke-linecap="round" stroke-linejoin="round" stroke-width="2"/>
      </g>
    </g>
    <g id="Groupe_1829" data-name="Groupe 1829" transform="translate(2209.841 1702.508)">
      <path id="Tracé_18969" data-name="Tracé 18969" d="M2285.379,1756.356v-23.741a.9.9,0,0,0-1.294-.776l-11.2,5.082v-4.306a.9.9,0,0,0-1.293-.776l-11.2,5.082v-4.306a.9.9,0,0,0-1.295-.776l-12.3,5.58a.857.857,0,0,0-.514.775v17.856" transform="translate(-2246.293 -1731.753)" fill="none" stroke="#04c38f" stroke-linecap="round" stroke-linejoin="round" stroke-width="2"/>
      <g id="Groupe_1828" data-name="Groupe 1828" transform="translate(4.825 14.471)">
        <rect id="Rectangle_894" data-name="Rectangle 894" width="5.33" height="5.067" rx="2.533" fill="none" stroke="#04c38f" stroke-linecap="round" stroke-linejoin="round" stroke-width="2"/>
        <rect id="Rectangle_895" data-name="Rectangle 895" width="5.33" height="5.067" rx="2.533" transform="translate(12.053)" fill="none" stroke="#04c38f" stroke-linecap="round" stroke-linejoin="round" stroke-width="2"/>
        <rect id="Rectangle_896" data-name="Rectangle 896" width="5.33" height="5.067" rx="2.533" transform="translate(24.107)" fill="none" stroke="#04c38f" stroke-linecap="round" stroke-linejoin="round" stroke-width="2"/>
      </g>
      <path id="Rectangle_897" data-name="Rectangle 897" d="M0,0H39.086a0,0,0,0,1,0,0V1.446a4.47,4.47,0,0,1-4.47,4.47H4.47A4.47,4.47,0,0,1,0,1.446V0A0,0,0,0,1,0,0Z" transform="translate(0 24.602)" fill="none" stroke="#04c38f" stroke-linecap="round" stroke-linejoin="round" stroke-width="2"/>
    </g>
  </g>
</svg>
