<svg xmlns="http://www.w3.org/2000/svg" width="94.799" height="69.042" viewBox="0 0 94.799 69.042">
  <g id="Groupe_2243" data-name="Groupe 2243" transform="translate(-322.54 -495.483)">
    <g id="Groupe_1058" data-name="Groupe 1058" transform="translate(323.555 496.483)">
      <g id="Groupe_1819" data-name="Groupe 1819" transform="translate(0 0)">
        <g id="Groupe_1050" data-name="Groupe 1050">
          <rect id="Rectangle_565" data-name="Rectangle 565" width="51.986" height="37.538" rx="15.382" transform="translate(5.115)" fill="none" stroke="#143d66" stroke-linecap="round" stroke-linejoin="round" stroke-width="2"/>
          <path id="Tracé_10561" data-name="Tracé 10561" d="M570.533-60.379a3.785,3.785,0,0,1-3.785,3.785H512a3.785,3.785,0,0,1-3.785-3.785" transform="translate(-508.205 113.512)" fill="none" stroke="#143d66" stroke-linecap="round" stroke-linejoin="round" stroke-width="2"/>
          <path id="Tracé_10562" data-name="Tracé 10562" d="M564.093-82.036,514.409-82.2c-4.116-.013-6.846-1.132-6.1-2.5l5.541-10.125c.748-1.366,3.919-2.474,7.083-2.474h38.187c3.164,0,6.22,1.123,6.827,2.508l4.5,10.263C571.053-83.135,568.208-82.023,564.093-82.036Z" transform="translate(-508.188 135.835)" fill="none" stroke="#143d66" stroke-linecap="round" stroke-linejoin="round" stroke-width="2"/>
          <path id="Tracé_10563" data-name="Tracé 10563" d="M579.356-162.7l-6.071.815a.444.444,0,0,0-.292.711l1.261,1.634-7.418,5.673a.421.421,0,0,1-.593-.084l-2.519-3.395a.42.42,0,0,0-.609-.07l-9.441,7.986a.973.973,0,0,0-.115,1.372.973.973,0,0,0,1.372.115l7.857-6.646a.421.421,0,0,1,.61.071l2.46,3.315a.421.421,0,0,0,.593.083L575.442-158l1.292,1.675a.444.444,0,0,0,.762-.1l2.33-5.666A.444.444,0,0,0,579.356-162.7Z" transform="translate(-535.486 175.394)" fill="#143d66"/>
        </g>
        <g id="Groupe_1057" data-name="Groupe 1057" transform="translate(66.925 4.439)">
          <g id="Groupe_1056" data-name="Groupe 1056" transform="translate(1.276 25.787)">
            <g id="Groupe_1055" data-name="Groupe 1055">
              <g id="Groupe_1054" data-name="Groupe 1054">
                <g id="Groupe_1053" data-name="Groupe 1053">
                  <g id="Groupe_1051" data-name="Groupe 1051">
                    <path id="Tracé_10564" data-name="Tracé 10564" d="M637.251-126.582v30.366a3.226,3.226,0,0,1-3.229,3.224H615.9a3.226,3.226,0,0,1-3.229-3.224v-30.366a3.228,3.228,0,0,1,3.229-3.226h18.124A3.228,3.228,0,0,1,637.251-126.582Z" transform="translate(-612.668 129.808)" fill="none" stroke="#143d66" stroke-linecap="round" stroke-linejoin="round" stroke-width="2"/>
                  </g>
                  <g id="Groupe_1052" data-name="Groupe 1052" transform="translate(0 28.043)">
                    <path id="Tracé_10565" data-name="Tracé 10565" d="M637.251-50.119v5.549a3.226,3.226,0,0,1-3.229,3.224H615.9a3.226,3.226,0,0,1-3.229-3.224v-5.549Z" transform="translate(-612.668 50.119)" fill="none" stroke="#143d66" stroke-linecap="round" stroke-linejoin="round" stroke-width="2"/>
                  </g>
                </g>
              </g>
            </g>
          </g>
          <path id="Tracé_10566" data-name="Tracé 10566" d="M691.856-164.8a14.406,14.406,0,0,1,3.1,4.424,15.223,15.223,0,0,1,1.359,5.269c.05.645.031,1.289.045,1.934a1.656,1.656,0,0,1-1.659,1.691,1.664,1.664,0,0,1-1.648-1.759,14.172,14.172,0,0,0-.266-3.272,12.372,12.372,0,0,0-.826-2.475,12.119,12.119,0,0,0-1.585-2.569,11.675,11.675,0,0,0-2.212-2.121,12.446,12.446,0,0,0-2.335-1.365,12.759,12.759,0,0,0-2.818-.851,25.593,25.593,0,0,0-3.521-.2,1.494,1.494,0,0,1-1.4-1.085,1.548,1.548,0,0,1,.342-1.66,1.679,1.679,0,0,1,1.273-.541,18.262,18.262,0,0,1,5.114.506,15.736,15.736,0,0,1,3.711,1.51A14.527,14.527,0,0,1,691.856-164.8Z" transform="translate(-676.11 169.395)" fill="none" stroke="#143d66" stroke-linecap="round" stroke-linejoin="round" stroke-width="2"/>
          <path id="Tracé_10567" data-name="Tracé 10567" d="M683.028-147.736a9.076,9.076,0,0,1,2.516,4.786,10.958,10.958,0,0,1,.146,2.962,1.73,1.73,0,0,1-1.644,1.534,1.764,1.764,0,0,1-1.816-1.2,3.673,3.673,0,0,1-.11-1.1,6.949,6.949,0,0,0-.315-2.267,5.632,5.632,0,0,0-2.231-2.9,5.81,5.81,0,0,0-3.37-.951c-.371.006-.743.01-1.114,0a1.76,1.76,0,0,1-1.678-1.1,1.747,1.747,0,0,1,.349-1.959,1.758,1.758,0,0,1,1.348-.562,15.246,15.246,0,0,1,3.062.17A9.445,9.445,0,0,1,681-149.291,9.27,9.27,0,0,1,683.028-147.736Z" transform="translate(-673.253 157.967)" fill="none" stroke="#143d66" stroke-linecap="round" stroke-linejoin="round" stroke-width="2"/>
        </g>
      </g>
    </g>
  </g>
</svg>
