<svg xmlns="http://www.w3.org/2000/svg" width="192.132" height="190.934" viewBox="0 0 192.132 190.934">
  <g id="Groupe_2241" data-name="Groupe 2241" transform="translate(-327.348 -5793)">
    <g id="Groupe_1589" data-name="Groupe 1589" transform="translate(343.893 5793)">
      <path id="Tracé_15407" data-name="Tracé 15407" d="M2678.431,1762.333c-11.429,0-20.694,3.318-20.694,7.412s9.264,7.414,20.694,7.414,20.7-3.319,20.7-7.414S2689.861,1762.333,2678.431,1762.333Z" transform="translate(-2647.702 -1668.459)" fill-rule="evenodd" opacity="0.2"/>
      <path id="Tracé_15408" data-name="Tracé 15408" d="M2671.978,1726.59a4.1,4.1,0,0,1,2.622,3.825c0,.117-.005.231-.014.344l.7,22.162-1.229,22.013,5.861,3.531a1.45,1.45,0,0,1-.854,1.191,4.229,4.229,0,0,1-2.061.493l-6.769-3.193a1.448,1.448,0,0,1-.854-1.19c0-.029,0-.058,0-.087l.42-21.961-1.289-15.27-1.037.037-1.141,19.493-2.624,22.453,5.917,3.635a1.448,1.448,0,0,1-.853,1.19,4.228,4.228,0,0,1-2.063.493l-6.707-3.147a1.79,1.79,0,0,1-.748-.738,2.369,2.369,0,0,1-.08-1.138l1.3-22.816-.791-23.359c-.01-.111-.014-.225-.014-.341,0-2.443,1.516-3.23,3.3-4.243l3.589-2.03,1.66-.939A4.281,4.281,0,0,1,2671.978,1726.59Z" transform="translate(-2647.282 -1679.194)" fill="#fff" fill-rule="evenodd"/>
      <path id="Tracé_15409" data-name="Tracé 15409" d="M2672.674,1725.765a5.281,5.281,0,0,1,3.376,4.921l-.016.395.7,22.073c0,.034,0,.067,0,.1l-1.19,21.3,5.257,3.165a1.176,1.176,0,0,1,.57,1.009,2.264,2.264,0,0,1-.443,1.329h0a3.169,3.169,0,0,1-1,.877h0a4.728,4.728,0,0,1-1.261.489,6.034,6.034,0,0,1-1.389.165,1.165,1.165,0,0,1-.577-.151l-6.694-3.157a1.248,1.248,0,0,1-.165-.095,3.083,3.083,0,0,1-.919-.828v0l0,0a2.257,2.257,0,0,1-.443-1.332,1.063,1.063,0,0,1,.007-.122c.37-7.119.284-14.679.422-21.85l-.513-6.075-.6,10.323-.007.069h0l-2.537,21.711,5.272,3.239a1.172,1.172,0,0,1,.563,1h0a2.271,2.271,0,0,1-.445,1.33l0,0a3.16,3.16,0,0,1-1,.875h0a4.753,4.753,0,0,1-1.263.489,6,6,0,0,1-1.39.165,1.178,1.178,0,0,1-.594-.16l-6.611-3.1a1.268,1.268,0,0,1-.126-.068,3.37,3.37,0,0,1-.658-.5,2.607,2.607,0,0,1-.525-.723,2.726,2.726,0,0,1-.211-1.5c.531-7.635.88-15.342,1.318-22.99l-.787-23.232h0l-.021-.439c0-3.061,1.71-4.025,3.766-5.186l.138-.078v0c1.753-.989,3.5-2.005,5.265-2.975h0a6.388,6.388,0,0,1,2.316-.784,4.97,4.97,0,0,1,2.423.313Zm.509,3.27a2.937,2.937,0,0,0-1.357-1.078,2.661,2.661,0,0,0-1.3-.165,4.091,4.091,0,0,0-1.458.507l-5.236,2.958h0l-.145.082c-1.4.789-2.558,1.445-2.558,3.14v.126l.01.12h0l.792,23.359a.924.924,0,0,1,0,.158l-1.317,23.056-.021.324a.322.322,0,0,0,.054.07,1.22,1.22,0,0,0,.179.139l6.4,3a3.51,3.51,0,0,0,.609-.086,2.606,2.606,0,0,0,.329-.1l-4.739-2.91a1.182,1.182,0,0,1-.608-1.17l2.623-22.446,1.137-19.432a1.18,1.18,0,0,1,1.138-1.111l.947-.032.032,0a1.179,1.179,0,0,1,1.271,1.078l1.289,15.271h0c0,.038,0,.077,0,.114l-.418,21.889c0,.035,0,.072,0,.106a.774.774,0,0,0,.206.176l6.48,3.055a3.243,3.243,0,0,0,.6-.085,2.437,2.437,0,0,0,.315-.094l-4.714-2.838v0a1.173,1.173,0,0,1-.569-1.071l1.228-21.977-.7-22.006a1.233,1.233,0,0,1,0-.225,2.38,2.38,0,0,0,.01-.248,2.918,2.918,0,0,0-.507-1.651ZM2670.829,1776l0,0v-.006l0,0Zm0,.038,0-.031Z" transform="translate(-2647.552 -1679.465)" fill="#143d66" fill-rule="evenodd"/>
      <path id="Tracé_15410" data-name="Tracé 15410" d="M2671.7,1763.771l5.861,3.531a1.451,1.451,0,0,1-.853,1.191,4.238,4.238,0,0,1-2.062.493l-6.769-3.194a1.6,1.6,0,0,1-.828-.963C2669.37,1765.173,2670.645,1765.139,2671.7,1763.771Z" transform="translate(-2644.925 -1668.03)" fill="#00cef0" fill-rule="evenodd"/>
      <path id="Tracé_15411" data-name="Tracé 15411" d="M2672.578,1763.032l5.864,3.53a1.178,1.178,0,0,1,.569,1.01,2.261,2.261,0,0,1-.444,1.33h0a3.152,3.152,0,0,1-1,.876h0a4.724,4.724,0,0,1-1.262.489,6.04,6.04,0,0,1-1.389.165,1.166,1.166,0,0,1-.576-.151l-6.695-3.157c-.036-.017-.073-.037-.107-.057a3.317,3.317,0,0,1-.836-.684,2.4,2.4,0,0,1-.528-1.018,1.178,1.178,0,0,1,1.327-1.432,7.95,7.95,0,0,0,2.406.12,1.769,1.769,0,0,0,1.133-.733,1.175,1.175,0,0,1,1.537-.287v0Zm3.5,4.856-3.912-2.355a3.742,3.742,0,0,1-1.062.62l4.056,1.913a3.284,3.284,0,0,0,.6-.084A2.363,2.363,0,0,0,2676.078,1767.889Z" transform="translate(-2645.196 -1668.3)" fill="#143d66" fill-rule="evenodd"/>
      <path id="Tracé_15412" data-name="Tracé 15412" d="M2663.706,1768l5.917,3.634a1.448,1.448,0,0,1-.854,1.191,4.226,4.226,0,0,1-2.062.493l-6.708-3.148a1.784,1.784,0,0,1-.747-.737.994.994,0,0,1-.082-.249C2661.466,1769.52,2662.657,1769.362,2663.706,1768Z" transform="translate(-2647.275 -1666.769)" fill="#00cef0" fill-rule="evenodd"/>
      <path id="Tracé_15413" data-name="Tracé 15413" d="M2664.587,1767.27l5.918,3.634a1.173,1.173,0,0,1,.563,1h0a2.262,2.262,0,0,1-.444,1.329l0,0a3.16,3.16,0,0,1-1,.875v0a4.776,4.776,0,0,1-1.263.489,5.992,5.992,0,0,1-1.39.165,1.178,1.178,0,0,1-.594-.16l-6.61-3.1a1.142,1.142,0,0,1-.126-.068,3.392,3.392,0,0,1-.659-.5,2.637,2.637,0,0,1-.523-.723h0a2.432,2.432,0,0,1-.109-.27,2.389,2.389,0,0,1-.065-.26,1.177,1.177,0,0,1,1.318-1.394v0a6.6,6.6,0,0,0,2.3.06,1.965,1.965,0,0,0,1.135-.8,1.177,1.177,0,0,1,1.543-.285Zm3.565,4.95-3.979-2.444a3.848,3.848,0,0,1-1.116.679l4.158,1.952a3.426,3.426,0,0,0,.608-.086A2.583,2.583,0,0,0,2668.152,1772.22Z" transform="translate(-2647.544 -1667.039)" fill="#143d66" fill-rule="evenodd"/>
      <path id="Tracé_15414" data-name="Tracé 15414" d="M2686.494,1726.624l-12.181-1.445a1.955,1.955,0,0,1-.138-.147,2.62,2.62,0,0,1-.507-.871l-7.283-16.994,6-2.1,4.732,17.052,9.745,1.377,5.575.023.67,1.182-1,1.436-1.378,1.5c-2.342.184-2.486-.578-4.233-1.013Z" transform="translate(-2645.124 -1685.53)" fill="#fff" fill-rule="evenodd"/>
      <path id="Tracé_15415" data-name="Tracé 15415" d="M2686.559,1728.057l-12.113-1.437a1.174,1.174,0,0,1-.745-.391l-.044-.045-.1-.108a3.668,3.668,0,0,1-.7-1.184l-7.284-16.993a1.176,1.176,0,0,1,.623-1.542.764.764,0,0,1,.113-.042l5.956-2.086a1.176,1.176,0,0,1,1.5.724l.023.074,4.526,16.309,8.917,1.26,5.479.023a1.174,1.174,0,0,1,1.018.594l.673,1.182a1.178,1.178,0,0,1-.076,1.28l-.976,1.4a1.312,1.312,0,0,1-.1.128l-1.378,1.5a1.18,1.18,0,0,1-.773.377h0a5.62,5.62,0,0,1-3.4-.592h0a6.483,6.483,0,0,0-1.126-.432Zm-11.371-3.721,11.664,1.384a1.129,1.129,0,0,1,.288.057,8.265,8.265,0,0,1,1.54.576v0a3.456,3.456,0,0,0,1.781.4l1-1.089.487-.7-4.758-.02a1.17,1.17,0,0,1-.225-.01l-9.744-1.377a1.176,1.176,0,0,1-.972-.852l-4.4-15.842-3.621,1.267,6.788,15.841h0l.031.078a1.426,1.426,0,0,0,.119.252Z" transform="translate(-2645.394 -1685.801)" fill="#143d66" fill-rule="evenodd"/>
      <path id="Tracé_15416" data-name="Tracé 15416" d="M2675.184,1727.936l-.445-4.333,1.464-5.338c1.128-4.116,1.44-10.635-1.868-13.927-1.351-1.345-3.138-2.2-4.158-1.608l-8.552,4.939c-1.31.732-2.974,2.29-3.014,4.129l1.836,16.277-.455,2.627a30.192,30.192,0,0,0-2.578,9.416c-.763,7.417,2.471,12.414,2.448,17.817,6.16,1.265,13.8-3.178,16.178-8.525C2675.9,1747.164,2677.19,1736,2675.184,1727.936Z" transform="translate(-2647.829 -1686.284)" fill="#00cef0" fill-rule="evenodd"/>
      <path id="Tracé_15417" data-name="Tracé 15417" d="M2674.283,1728.3l-.442-4.3a1.2,1.2,0,0,1,.056-.5l1.445-5.271a20.512,20.512,0,0,0,.6-7.755,8.6,8.6,0,0,0-2.162-5.029,5.862,5.862,0,0,0-1.9-1.3,1.176,1.176,0,0,0-.842-.118l-.066.035-8.5,4.91v0a5.9,5.9,0,0,0-1.813,1.579,2.859,2.859,0,0,0-.6,1.465l1.828,16.209a1.176,1.176,0,0,1-.008.325l-.456,2.626a1.069,1.069,0,0,1-.089.291c-3.939,8.906-2.471,14.679-1.195,19.7a32.465,32.465,0,0,1,1.139,6.032,13.653,13.653,0,0,0,7.594-1.7,14.373,14.373,0,0,0,6.252-6.055c-.011-.634.035-1.614.093-2.854.206-4.38.574-12.157-.9-18.1a1.1,1.1,0,0,1-.031-.19Zm1.921-4.33.414,4.037c1.536,6.259,1.163,14.21.951,18.7-.066,1.383-.113,2.421-.084,2.913a1.182,1.182,0,0,1-.1.548,16.552,16.552,0,0,1-7.412,7.421,15.448,15.448,0,0,1-10.072,1.778,1.176,1.176,0,0,1-.94-1.156,26.27,26.27,0,0,0-1.1-6.461c-1.363-5.365-2.93-11.53,1.273-21.111l.4-2.323-1.818-16.111h0a1.148,1.148,0,0,1-.008-.152,5.1,5.1,0,0,1,1.052-2.883,8.328,8.328,0,0,1,2.561-2.251v0l8.479-4.894.061-.037a3.289,3.289,0,0,1,2.87-.039,8.2,8.2,0,0,1,2.706,1.83,10.883,10.883,0,0,1,2.835,6.384,22.959,22.959,0,0,1-.662,8.686Z" transform="translate(-2648.1 -1686.554)" fill="#143d66" fill-rule="evenodd"/>
      <path id="Tracé_15418" data-name="Tracé 15418" d="M2655.8,1736.008l-.761,5.552-1.263.531-1.368,4.711-1.489-1.034c.274-6.431.153-5.247,1.9-10.194l1.317-11.625a2.4,2.4,0,0,1,.3-.961c2.078-4.23,3.524-8.578,5.67-12.568,1.984-3.686,6.289.311,4.32,3.536l-6.053,10.031Z" transform="translate(-2649.736 -1684.375)" fill="#fff" fill-rule="evenodd"/>
      <path id="Tracé_15419" data-name="Tracé 15419" d="M2657.222,1736.5l-.753,5.487a1.172,1.172,0,0,1-.76.948l-.693.291-1.212,4.173a1.175,1.175,0,0,1-1.456.8,1.217,1.217,0,0,1-.346-.165v0l-1.49-1.035a1.179,1.179,0,0,1-.5-1.1l.03-.715a37.667,37.667,0,0,1,.363-4.923,19.41,19.41,0,0,1,.975-3.169c.137-.376.294-.811.545-1.521l1.312-11.549a3.477,3.477,0,0,1,.138-.661,3.421,3.421,0,0,1,.305-.694l.009-.016c.858-1.757,1.651-3.648,2.438-5.521,1-2.374,1.98-4.721,3.209-7.005a3.432,3.432,0,0,1,3.341-2.087,3.546,3.546,0,0,1,1.652.583,4.449,4.449,0,0,1,1.224,1.214,4.546,4.546,0,0,1,.147,4.991v0l-5.951,9.863-2.529,11.8Zm-2.991,4.509.663-4.833a.812.812,0,0,1,.022-.141l2.566-11.98a1.2,1.2,0,0,1,.152-.406l6.052-10.029h0l0-.005a2.226,2.226,0,0,0-.082-2.446,2.071,2.071,0,0,0-.568-.569,1.168,1.168,0,0,0-.544-.2c-.35-.029-.742.212-1.084.851-1.158,2.15-2.127,4.46-3.11,6.8-.771,1.837-1.549,3.692-2.5,5.639a1.107,1.107,0,0,1-.074.155,1.224,1.224,0,0,0-.1.234,1.268,1.268,0,0,0-.049.209l-.006.061-.48,4.232-.836,7.374a1.179,1.179,0,0,1-.062.281c-.179.509-.4,1.129-.6,1.668a18.077,18.077,0,0,0-.874,2.791,22.011,22.011,0,0,0-.252,2.878l.447-1.539a1.177,1.177,0,0,1,.672-.754Z" transform="translate(-2650.007 -1684.646)" fill="#143d66" fill-rule="evenodd"/>
      <path id="Tracé_15420" data-name="Tracé 15420" d="M2664.213,1702.176l5.157.944-.516,4.974a1.18,1.18,0,0,1-.017.153,1.5,1.5,0,0,1-1.092,1.054,4.716,4.716,0,0,1-4.2-.768,1.5,1.5,0,0,1-.65-1.371.854.854,0,0,1,.041-.151Z" transform="translate(-2646.167 -1686.393)" fill="#fff" fill-rule="evenodd"/>
      <path id="Tracé_15421" data-name="Tracé 15421" d="M2664.74,1701.3l5.113.935a1.174,1.174,0,0,1,.957,1.276l-.515,4.958-.007.095c0,.052-.014.107-.024.168a2.3,2.3,0,0,1-.688,1.25,3.207,3.207,0,0,1-1.165.7,5.9,5.9,0,0,1-5.355-.98,3.235,3.235,0,0,1-.848-1.07,2.289,2.289,0,0,1-.2-1.407c.013-.073.023-.128.035-.168l0-.005a.625.625,0,0,1,.029-.1l1.267-4.805a1.177,1.177,0,0,1,1.4-.849Zm3.618,3.052-3.016-.552-1,3.784-.017.051c0-.006.008-.009.01-.005a.9.9,0,0,0,.238.278,3.548,3.548,0,0,0,3.043.557.948.948,0,0,0,.326-.177l0,0,.409-3.939Zm-.409,3.941v0Zm-3.632-.623c0,.015,0,0,0-.008Z" transform="translate(-2646.438 -1686.663)" fill="#143d66" fill-rule="evenodd"/>
      <path id="Tracé_15422" data-name="Tracé 15422" d="M2669.312,1692.277c-2.783-.51-5.833,1.238-6.1,4.077l-.573,6.235c-.241,2.624.723,5.326,3.7,5.87,2.845.519,4.769-1.477,5.532-4.183l1.7-6.028C2674.332,1695.543,2672.16,1692.8,2669.312,1692.277Z" transform="translate(-2646.249 -1689.371)" fill="#fff" fill-rule="evenodd"/>
      <path id="Tracé_15423" data-name="Tracé 15423" d="M2669.372,1693.7c-.127-.023-.251-.041-.369-.051a4.479,4.479,0,0,0-2.818.692,3.27,3.27,0,0,0-1.492,2.124l-.007.034c-.013.077-.021.153-.031.23l-.571,6.233a5.252,5.252,0,0,0,.613,3.235,3.29,3.29,0,0,0,4.591.835,5.265,5.265,0,0,0,1.719-2.805l1.7-6.028a2.611,2.611,0,0,0,.063-.271,3.254,3.254,0,0,0-.63-2.487,4.435,4.435,0,0,0-2.375-1.647c-.141-.039-.273-.069-.4-.093Zm-.157-2.391q.3.027.58.078c.217.039.418.087.608.14a6.814,6.814,0,0,1,3.648,2.541,5.579,5.579,0,0,1,1.035,4.282c-.032.173-.068.333-.111.484l-1.7,6.028a7.585,7.585,0,0,1-2.566,4.05,5.643,5.643,0,0,1-8-1.46,7.587,7.587,0,0,1-.966-4.7l.574-6.234c.012-.144.031-.287.056-.428l.007-.046a5.593,5.593,0,0,1,2.526-3.674A6.843,6.843,0,0,1,2669.216,1691.311Z" transform="translate(-2646.52 -1689.64)" fill="#143d66" fill-rule="evenodd"/>
      <path id="Tracé_15424" data-name="Tracé 15424" d="M2667.587,1700.505l-1.725,9.148a3.584,3.584,0,0,1-2.844,2.142l-3.216-.551c2.54-4.624,1.647-8.584,2.47-12.875.9-4.712,3.53-8.113,8.208-7.331,4.367.731,5.039,4.428,4.583,6.915l-1.881.561Z" transform="translate(-2647.086 -1689.747)" fill="#a6edf8" fill-rule="evenodd"/>
      <path id="Tracé_15425" data-name="Tracé 15425" d="M2668.887,1701.659l-1.6,8.489h0l0,.017a1.117,1.117,0,0,1-.034.138,4.232,4.232,0,0,1-1.661,2.09,3.778,3.778,0,0,1-2.5.832c-1-.105-2.205-.376-3.216-.55a1.177,1.177,0,0,1-.963-1.359,1.193,1.193,0,0,1,.145-.4c1.55-2.84,1.71-5.486,1.868-8.13a33.673,33.673,0,0,1,.461-4.37,11.684,11.684,0,0,1,3.307-6.61,7.175,7.175,0,0,1,6.251-1.658h.009l.123.021c.032.006.065.013.1.022a6.291,6.291,0,0,1,4.719,3.372,7.889,7.889,0,0,1,.623,4.747l0,.009h0l-.02.108a1.176,1.176,0,0,1-.869.94l-1.815.541-4.924,1.752Zm-3.909,8.038,1.713-9.089a1.178,1.178,0,0,1,.773-.943l5.652-2.011,1.149-.341a5.258,5.258,0,0,0-.474-2.7,4.044,4.044,0,0,0-3.056-2.113l-.187-.03v0a4.929,4.929,0,0,0-4.288,1.09,9.42,9.42,0,0,0-2.561,5.3,31.075,31.075,0,0,0-.423,4.065,21.717,21.717,0,0,1-1.46,7.692c.564.1,1.147.183,1.707.292a3.306,3.306,0,0,0,.7-.432,2.188,2.188,0,0,0,.742-.743l.008-.038Z" transform="translate(-2647.356 -1690.018)" fill="#143d66" fill-rule="evenodd"/>
      <path id="Tracé_15426" data-name="Tracé 15426" d="M2682.576,1725.681l7.353-4.039,3.772-3.942-7.353,4.037Z" transform="translate(-2640.297 -1681.765)" fill="#fff" fill-rule="evenodd"/>
      <path id="Tracé_15427" data-name="Tracé 15427" d="M2690.765,1722.945l-7.354,4.038a1.177,1.177,0,0,1-1.418-1.844l2.185-2.284,1.553-1.623a1.167,1.167,0,0,1,.32-.258l7.354-4.037,0,0a1.173,1.173,0,0,1,1.413,1.839l-3.7,3.87A1.124,1.124,0,0,1,2690.765,1722.945Z" transform="translate(-2640.567 -1682.034)" fill="#0087ca" fill-rule="evenodd"/>
    </g>
    <g id="Groupe_1590" data-name="Groupe 1590" transform="translate(327.348 5869.825)">
      <g id="Groupe_1423" data-name="Groupe 1423" transform="translate(68.561)">
        <path id="Tracé_15785" data-name="Tracé 15785" d="M2777.329,1767l7.509,1.8,13.205-3.935,13.519,7.8-6.814,7.625,3.11,4.334,14.151,2.61v11.019l-14.152,2.608-3.109,4.334,6.814,7.625-13.519,7.8-13.205-3.935-7.509,1.8-4.519,8.17h-19.085l-4.519-8.171-7.507-1.794-13.208,3.935-13.518-7.8,6.815-7.625-3.11-4.335-14.15-2.608v-11.019l14.151-2.61,3.109-4.333-6.815-7.625,13.518-7.8,13.208,3.935,7.508-1.8,4.518-8.17h19.085Z" transform="translate(-2698.437 -1737.786)" fill-rule="evenodd" opacity="0.2"/>
        <path id="Tracé_15786" data-name="Tracé 15786" d="M2841.9,1749.747v20.429l-6.814,7.624v-20.429Z" transform="translate(-2734.251 -1735.293)" fill="#0087ca" fill-rule="evenodd"/>
        <path id="Tracé_15787" data-name="Tracé 15787" d="M2842.286,1749.515v20.429a.613.613,0,0,1-.2.451l-6.777,7.583a.615.615,0,0,1-1.074-.41h0v-20.429a.619.619,0,0,1,.195-.451l6.778-7.583a.616.616,0,0,1,1.074.41Zm-1.236,20.2v-18.584l-5.579,6.243v18.583Z" transform="translate(-2734.018 -1735.061)" fill="#0087ca" fill-rule="evenodd"/>
        <path id="Tracé_15788" data-name="Tracé 15788" d="M2853.523,1785.007v20.429l-14.151,2.609v-20.429Z" transform="translate(-2735.427 -1744.966)" fill="#0087ca" fill-rule="evenodd"/>
        <path id="Tracé_15789" data-name="Tracé 15789" d="M2853.907,1784.774V1805.2a.617.617,0,0,1-.556.615l-14.1,2.6a.615.615,0,0,1-.716-.495.572.572,0,0,1-.011-.111h0v-20.429a.617.617,0,0,1,.556-.614l14.1-2.6a.616.616,0,0,1,.716.495.607.607,0,0,1,.011.111Zm-1.234,19.917v-19.178l-12.917,2.382v19.177Z" transform="translate(-2735.194 -1744.733)" fill="#0087ca" fill-rule="evenodd"/>
        <path id="Tracé_15790" data-name="Tracé 15790" d="M2838.2,1788.6v20.429l-3.11,4.334v-20.428Z" transform="translate(-2734.251 -1745.952)" fill="#0087ca" fill-rule="evenodd"/>
        <path id="Tracé_15791" data-name="Tracé 15791" d="M2838.58,1788.368V1808.8a.612.612,0,0,1-.148.4l-3.079,4.292a.616.616,0,0,1-1.115-.359h0V1792.7a.616.616,0,0,1,.148-.4l3.079-4.292a.615.615,0,0,1,1.115.359Zm-1.234,20.235v-18.319l-1.875,2.613v18.318Z" transform="translate(-2734.018 -1745.719)" fill="#0087ca" fill-rule="evenodd"/>
        <path id="Tracé_15792" data-name="Tracé 15792" d="M2839.366,1805.082v20.428l-13.518,7.8v-20.428Z" transform="translate(-2731.717 -1750.473)" fill="#0087ca" fill-rule="evenodd"/>
        <path id="Tracé_15793" data-name="Tracé 15793" d="M2839.751,1804.849v20.428a.619.619,0,0,1-.348.556l-13.479,7.782a.617.617,0,0,1-.925-.533h0v-20.429a.616.616,0,0,1,.347-.556l13.479-7.782a.615.615,0,0,1,.924.533Zm-1.236,20.074v-19.006l-12.283,7.091v19.007Z" transform="translate(-2731.484 -1750.24)" fill="#0087ca" fill-rule="evenodd"/>
        <path id="Tracé_15794" data-name="Tracé 15794" d="M2820.856,1814.349v20.429l-13.206-3.935v-20.429Z" transform="translate(-2726.725 -1751.936)" fill="#00cef0" fill-rule="evenodd"/>
        <path id="Tracé_15795" data-name="Tracé 15795" d="M2821.24,1814.116v20.429a.617.617,0,0,1-.618.617.638.638,0,0,1-.21-.036l-13.172-3.925a.618.618,0,0,1-.44-.591h0v-20.429a.617.617,0,0,1,.617-.617.61.61,0,0,1,.21.037l13.172,3.924a.617.617,0,0,1,.44.591Zm-1.234,19.6v-19.141l-11.971-3.567v19.142Z" transform="translate(-2726.491 -1751.702)" fill="#0087ca" fill-rule="evenodd"/>
        <path id="Tracé_15796" data-name="Tracé 15796" d="M2804.813,1810.414v20.429l-7.508,1.8V1812.21Z" transform="translate(-2723.887 -1751.936)" fill="#0087ca" fill-rule="evenodd"/>
        <path id="Tracé_15797" data-name="Tracé 15797" d="M2805.2,1810.182v20.429a.617.617,0,0,1-.53.611l-7.453,1.782a.616.616,0,0,1-.741-.456.588.588,0,0,1-.017-.142h0v-20.429a.616.616,0,0,1,.53-.611l7.454-1.783a.616.616,0,0,1,.74.457.656.656,0,0,1,.016.141Zm-1.235,19.945v-19.165l-6.274,1.5v19.165Z" transform="translate(-2723.654 -1751.703)" fill="#0087ca" fill-rule="evenodd"/>
        <path id="Tracé_15798" data-name="Tracé 15798" d="M2795.6,1812.889v20.429l-4.519,8.17v-20.429Z" transform="translate(-2722.179 -1752.614)" fill="#0087ca" fill-rule="evenodd"/>
        <path id="Tracé_15799" data-name="Tracé 15799" d="M2795.98,1812.656v20.429a.62.62,0,0,1-.1.332l-4.5,8.134a.616.616,0,0,1-1.157-.3h0v-20.43a.615.615,0,0,1,.1-.331l4.5-8.134a.617.617,0,0,1,1.157.3Zm-1.235,20.272v-17.883l-3.284,5.938v17.882Z" transform="translate(-2721.945 -1752.381)" fill="#0087ca" fill-rule="evenodd"/>
        <rect id="Rectangle_718" data-name="Rectangle 718" width="19.085" height="20.429" transform="translate(49.814 68.444)" fill="#00cef0"/>
        <path id="Tracé_15800" data-name="Tracé 15800" d="M2784.247,1823.913v20.43a.617.617,0,0,1-.618.617h-19.084a.618.618,0,0,1-.619-.617v-20.43a.618.618,0,0,1,.619-.617h19.084a.617.617,0,0,1,.618.617Zm-1.235,19.812V1824.53h-17.851v19.194Z" transform="translate(-2714.73 -1755.469)" fill="#0087ca" fill-rule="evenodd"/>
        <path id="Tracé_15801" data-name="Tracé 15801" d="M2760.232,1820.38v20.428l-4.519-8.17-7.507-1.795v-20.429l7.507,1.8Z" transform="translate(-2710.418 -1751.936)" fill="#a6edf8" fill-rule="evenodd"/>
        <path id="Tracé_15802" data-name="Tracé 15802" d="M2760.615,1820.188v20.388a.615.615,0,0,1-1.154.3h0l-4.387-7.932-7.24-1.731a.616.616,0,0,1-.473-.6v-20.429a.615.615,0,0,1,.616-.615.6.6,0,0,1,.161.022l7.488,1.79a.613.613,0,0,1,.4.3h0l4.519,8.17a.611.611,0,0,1,.075.338Zm-1.23,18v-17.882l-4.312-7.8-6.483-1.55v19.165l6.993,1.672a.614.614,0,0,1,.438.311Z" transform="translate(-2710.186 -1751.703)" fill="#0087ca" fill-rule="evenodd"/>
        <path id="Tracé_15803" data-name="Tracé 15803" d="M2743.213,1810.414v20.429l-13.208,3.935v-20.429Z" transform="translate(-2705.426 -1751.936)" fill="#00cef0" fill-rule="evenodd"/>
        <path id="Tracé_15804" data-name="Tracé 15804" d="M2743.6,1810.181v20.43a.617.617,0,0,1-.474.6l-13.174,3.925a.618.618,0,0,1-.793-.591h0v-20.429a.619.619,0,0,1,.475-.6l13.174-3.925a.618.618,0,0,1,.768.415.612.612,0,0,1,.026.176Zm-1.234,19.97v-19.142l-11.973,3.567v19.142Z" transform="translate(-2705.192 -1751.702)" fill="#0087ca" fill-rule="evenodd"/>
        <path id="Tracé_15805" data-name="Tracé 15805" d="M2720.949,1807.38v20.428l-13.518-7.8V1807.36l-10.444-1.925v-20.429l14.149,2.609,3.111,4.334v11.56Z" transform="translate(-2696.368 -1744.966)" fill="#a6edf8" fill-rule="evenodd"/>
        <path id="Tracé_15806" data-name="Tracé 15806" d="M2721.33,1807.183v20.393a.615.615,0,0,1-.923.533h0l-13.518-7.8a.615.615,0,0,1-.308-.533h0V1807.64l-9.938-1.833a.616.616,0,0,1-.5-.629v-20.4a.614.614,0,0,1,.725-.605l14.151,2.608a.613.613,0,0,1,.389.247h0l3.109,4.335a.607.607,0,0,1,.113.409v11.154l6.4,3.693a.616.616,0,0,1,.306.57Zm-1.23,19.326V1807.5l-6.4-3.693h0a.618.618,0,0,1-.306-.533v-11.359l-2.853-3.976-13.178-2.429v19.177l9.893,1.824a.616.616,0,0,1,.555.614v12.289Z" transform="translate(-2696.135 -1744.733)" fill="#0087ca" fill-rule="evenodd"/>
        <path id="Tracé_15807" data-name="Tracé 15807" d="M2718.193,1757.372V1777.8l-6.815-7.624v-20.429Z" transform="translate(-2700.316 -1735.293)" fill="#a6edf8" fill-rule="evenodd"/>
        <path id="Tracé_15808" data-name="Tracé 15808" d="M2718.577,1757.138v20.429a.618.618,0,0,1-1.114.368l-6.776-7.583a.612.612,0,0,1-.157-.41h0v-20.429a.618.618,0,0,1,1.114-.368l6.777,7.582a.617.617,0,0,1,.156.41Zm-1.235,18.815V1757.37l-5.58-6.243v18.584Z" transform="translate(-2700.082 -1735.06)" fill="#0087ca" fill-rule="evenodd"/>
        <path id="Tracé_15809" data-name="Tracé 15809" d="M2761.284,1774.781v20.429a4.712,4.712,0,0,1,1.191-3.023c2.531-3.036,7.725-4.052,11.509-3.942,3.517.1,8.328,1.271,10.509,4.251a4.587,4.587,0,0,1,.948,2.714v-20.429c-.084-3.84-4.741-5.877-7.926-6.551-4.433-.938-10.633-.373-14.168,2.652a5.437,5.437,0,0,0-2.048,3.541Z" transform="translate(-2714.006 -1740.25)" fill="#0087ca" fill-rule="evenodd"/>
        <path id="Tracé_15810" data-name="Tracé 15810" d="M2761.668,1774.549v17.136l.1-.124a10.922,10.922,0,0,1,4.919-3.137,20.765,20.765,0,0,1,7.08-1.027,19.749,19.749,0,0,1,6.591,1.326,10.2,10.2,0,0,1,4.232,2.959v-17.169a4.7,4.7,0,0,0-1.909-3.45,13.423,13.423,0,0,0-5.527-2.462,20.436,20.436,0,0,0-7.723-.065,12.718,12.718,0,0,0-5.92,2.581,6.04,6.04,0,0,0-1.31,1.536,3.845,3.845,0,0,0-.523,1.591l0,.02-.012.286Zm0,20.4v.024a.618.618,0,0,1-1.236,0v-20.429h0l.015-.34a.386.386,0,0,1,0-.071,5.066,5.066,0,0,1,.687-2.1,7.255,7.255,0,0,1,1.575-1.853,13.924,13.924,0,0,1,6.494-2.855,21.676,21.676,0,0,1,8.2.069,14.714,14.714,0,0,1,6.063,2.718,5.868,5.868,0,0,1,2.351,4.364.469.469,0,0,1,0,.072v20.429h0a.616.616,0,0,1-1.231.027v-.027h0v-.024a4.307,4.307,0,0,0-.218-1.2,4.247,4.247,0,0,0-.611-1.121,8.762,8.762,0,0,0-3.861-2.761,18.475,18.475,0,0,0-6.167-1.24,19.5,19.5,0,0,0-6.651.964,9.717,9.717,0,0,0-4.368,2.755,4.563,4.563,0,0,0-.769,1.246A4.214,4.214,0,0,0,2761.668,1794.953Z" transform="translate(-2713.772 -1740.018)" fill="#0087ca" fill-rule="evenodd"/>
        <path id="Tracé_15811" data-name="Tracé 15811" d="M2769.787,1738.851l7.506,1.8,13.206-3.935,13.518,7.8-6.814,7.624,3.111,4.335,14.15,2.609v11.02l-14.151,2.608-3.111,4.334,6.814,7.626-13.518,7.8-13.206-3.936-7.508,1.8-4.519,8.169h-19.085l-4.518-8.17-7.508-1.8-13.208,3.936q-6.758-3.9-13.518-7.8l6.816-7.626-3.111-4.334-14.149-2.609v-11.019l14.15-2.61,3.11-4.334-6.816-7.624,13.518-7.8,13.208,3.935,7.509-1.8,4.517-8.17h19.085l4.52,8.17Zm-14.062,18.77c-6.67,0-12.079,3.122-12.079,6.974s5.409,6.973,12.079,6.973,12.079-3.122,12.079-6.973S2762.395,1757.621,2755.724,1757.621Z" transform="translate(-2696.368 -1730.063)" fill="#f8f9fd" fill-rule="evenodd"/>
        <path id="Tracé_15812" data-name="Tracé 15812" d="M2769.961,1738.083l7.078,1.693,13.05-3.888a.613.613,0,0,1,.524.082l6.72,3.879h0l6.758,3.9a.616.616,0,0,1,.224.842.625.625,0,0,1-.1.129l-6.459,7.228,2.678,3.733,13.906,2.564a.615.615,0,0,1,.5.6h0v11.019a.618.618,0,0,1-.556.614l-13.854,2.554-2.679,3.734,6.484,7.255a.616.616,0,0,1-.048.869.552.552,0,0,1-.1.074h0l-13.518,7.8a.611.611,0,0,1-.485.057l-13.05-3.888-7.08,1.693-4.387,7.933a.618.618,0,0,1-.54.319h-19.084a.618.618,0,0,1-.559-.353l-4.368-7.9-7.078-1.692-13.052,3.889a.617.617,0,0,1-.508-.071l-6.736-3.89-.032-.02-6.725-3.882a.613.613,0,0,1-.227-.839.572.572,0,0,1,.075-.1l6.485-7.255-2.679-3.734-13.9-2.563a.615.615,0,0,1-.5-.605h0v-11.019a.618.618,0,0,1,.555-.615l13.856-2.554,2.679-3.734-6.485-7.255a.614.614,0,0,1,.048-.868.588.588,0,0,1,.1-.074h0l13.518-7.8a.615.615,0,0,1,.485-.057l13.052,3.887,7.078-1.693,4.387-7.932a.618.618,0,0,1,.54-.32h19.085a.618.618,0,0,1,.559.354l4.369,7.9Zm6.957,2.927-7.467-1.785a.617.617,0,0,1-.438-.311l-4.342-7.849h-18.359l-4.34,7.848h0a.609.609,0,0,1-.4.3l-7.462,1.784a.619.619,0,0,1-.365,0l-12.954-3.858-12.631,7.293,6.275,7.021a.617.617,0,0,1,.078.808l-3.109,4.334h0a.617.617,0,0,1-.389.248l-13.645,2.515v10l13.6,2.507a.618.618,0,0,1,.433.254l3.11,4.335h0a.615.615,0,0,1-.041.768l-6.311,7.062,6.071,3.5.035.019,6.527,3.769,12.954-3.859v0a.62.62,0,0,1,.318-.009l7.466,1.785a.616.616,0,0,1,.438.311l4.341,7.85h18.359l4.342-7.849h0a.618.618,0,0,1,.4-.3l7.463-1.784a.62.62,0,0,1,.363,0l12.952,3.859,12.632-7.293-6.273-7.022a.616.616,0,0,1-.079-.808l3.111-4.334h0a.61.61,0,0,1,.389-.247l13.645-2.515v-9.995l-13.645-2.516a.619.619,0,0,1-.388-.246l-3.11-4.335a.616.616,0,0,1,.041-.77l6.309-7.059-6.1-3.525h0l-6.526-3.768L2777.236,1741h0a.6.6,0,0,1-.317.008Zm-21.427,15.758a18.025,18.025,0,0,0-8.851,2.128c-2.375,1.372-3.847,3.3-3.847,5.464s1.457,4.07,3.813,5.442l.036.023a19.469,19.469,0,0,0,17.7,0c2.377-1.374,3.849-3.3,3.849-5.464s-1.471-4.092-3.847-5.464h0a18.017,18.017,0,0,0-8.848-2.128Zm8.232,3.192a18.293,18.293,0,0,0-16.465,0c-2,1.153-3.229,2.709-3.229,4.4s1.22,3.231,3.2,4.381l.032.016a18.286,18.286,0,0,0,16.467,0c1.994-1.15,3.228-2.708,3.228-4.4s-1.234-3.246-3.23-4.4Z" transform="translate(-2696.134 -1729.83)" fill="#0087ca" fill-rule="evenodd"/>
        <path id="Tracé_15813" data-name="Tracé 15813" d="M2765.161,1750.543c18.654,0,33.776,8.73,33.776,19.5s-15.122,19.5-33.776,19.5-33.774-8.731-33.774-19.5,15.12-19.5,33.774-19.5Zm0,12.526c-6.67,0-12.079,3.122-12.079,6.974s5.408,6.973,12.079,6.973,12.079-3.122,12.079-6.973S2771.832,1763.069,2765.161,1763.069Z" transform="translate(-2705.804 -1735.512)" fill="#00cef0" fill-rule="evenodd"/>
        <path id="Tracé_15814" data-name="Tracé 15814" d="M2764.927,1749.692c9.435,0,17.989,2.214,24.191,5.8l.035.022c6.282,3.639,10.166,8.691,10.166,14.3s-3.9,10.682-10.2,14.322c-6.2,3.581-14.756,5.8-24.189,5.8s-17.987-2.214-24.19-5.8h0c-6.3-3.639-10.2-8.7-10.2-14.322s3.9-10.683,10.2-14.322c6.2-3.581,14.756-5.8,24.191-5.8Zm23.574,6.861c-6.021-3.477-14.356-5.627-23.574-5.627s-17.552,2.15-23.574,5.627c-5.921,3.419-9.583,8.107-9.583,13.256s3.662,9.838,9.583,13.256h0c6.022,3.477,14.356,5.626,23.575,5.626s17.554-2.15,23.577-5.626c5.919-3.419,9.581-8.107,9.581-13.256s-3.649-9.822-9.551-13.239l-.032-.018Zm-23.574,5.664a18.023,18.023,0,0,0-8.85,2.128c-2.375,1.372-3.847,3.3-3.847,5.464s1.457,4.07,3.813,5.442l.035.022a19.466,19.466,0,0,0,17.7,0c2.378-1.373,3.85-3.3,3.85-5.464s-1.471-4.092-3.847-5.464h0a18.013,18.013,0,0,0-8.847-2.128Zm8.233,3.192a18.293,18.293,0,0,0-16.465,0c-1.995,1.152-3.229,2.709-3.229,4.4s1.221,3.231,3.2,4.381l.032.017a18.286,18.286,0,0,0,16.467,0c1.994-1.15,3.227-2.707,3.227-4.4s-1.234-3.246-3.23-4.4Z" transform="translate(-2705.571 -1735.279)" fill="#0087ca" fill-rule="evenodd"/>
        <path id="Tracé_15815" data-name="Tracé 15815" d="M2768.234,1786.623c14.164,0,25.646-6.629,25.646-14.806s-11.482-14.806-25.646-14.806-25.646,6.629-25.646,14.806,11.482,14.806,25.646,14.806Zm0-21.78c6.67,0,12.079,3.122,12.079,6.974s-5.408,6.973-12.079,6.973-12.079-3.122-12.079-6.973S2761.563,1764.843,2768.234,1764.843Z" transform="translate(-2708.878 -1737.286)" fill="#f8f9fd" fill-rule="evenodd"/>
        <path id="Tracé_15816" data-name="Tracé 15816" d="M2768,1785.772c6.975,0,13.278-1.625,17.828-4.253,4.448-2.568,7.2-6.083,7.2-9.936s-2.752-7.367-7.2-9.937l-.03-.018a36.34,36.34,0,0,0-17.8-4.234c-6.973,0-13.274,1.625-17.825,4.253-4.45,2.569-7.2,6.084-7.2,9.936s2.753,7.367,7.2,9.936l.028.018a36.343,36.343,0,0,0,17.8,4.234Zm18.441-3.186c-4.731,2.731-11.252,4.421-18.441,4.421a37.589,37.589,0,0,1-18.405-4.4l-.037-.02c-4.831-2.79-7.82-6.678-7.82-11s2.989-8.213,7.82-11c4.732-2.731,11.252-4.422,18.442-4.422a37.59,37.59,0,0,1,18.406,4.4l.037.02c4.832,2.79,7.821,6.677,7.821,11s-2.989,8.212-7.823,11ZM2768,1763.991a18.013,18.013,0,0,1,8.848,2.128h0c2.376,1.372,3.847,3.3,3.847,5.464s-1.472,4.091-3.85,5.465a19.468,19.468,0,0,1-17.7,0l-.036-.023c-2.356-1.371-3.812-3.292-3.812-5.442s1.471-4.092,3.847-5.464a18.02,18.02,0,0,1,8.85-2.128Zm8.233,3.192h0c2,1.152,3.23,2.709,3.23,4.4s-1.233,3.248-3.227,4.4a18.286,18.286,0,0,1-16.467,0l-.032-.017c-1.976-1.149-3.2-2.7-3.2-4.381s1.234-3.246,3.229-4.4a18.293,18.293,0,0,1,16.465,0Z" transform="translate(-2708.644 -1737.053)" fill="#0087ca" fill-rule="evenodd"/>
        <path id="Tracé_15817" data-name="Tracé 15817" d="M2711.761,1825.278a.615.615,0,1,1-1.23,0v-20.429a.615.615,0,1,1,1.23,0Z" transform="translate(-2700.083 -1750.24)" fill="#0087ca" fill-rule="evenodd"/>
        <path id="Tracé_15818" data-name="Tracé 15818" d="M2758.934,1833.084a.615.615,0,1,1-1.229,0v-20.429a.615.615,0,1,1,1.229,0Z" transform="translate(-2713.024 -1752.382)" fill="#0087ca" fill-rule="evenodd"/>
      </g>
      <path id="Tracé_15819" data-name="Tracé 15819" d="M2663.158,1824.533l5.5,1.315,9.666-2.88,9.895,5.713-4.988,5.581,2.277,3.174,10.358,1.909v8.066l-10.359,1.91-2.276,3.173,4.988,5.582-9.895,5.713-9.666-2.88-5.5,1.314-3.309,5.98h-13.97l-3.306-5.98-5.5-1.314-9.668,2.88-9.9-5.713,4.989-5.582-2.276-3.173-10.358-1.91v-8.066l10.359-1.91,2.275-3.173-4.989-5.581,9.9-5.713,9.668,2.88,5.5-1.315,3.307-5.98h13.97Z" transform="translate(-2603.908 -1754.168)" fill-rule="evenodd" opacity="0.2"/>
      <path id="Tracé_15820" data-name="Tracé 15820" d="M2663.18,1824.44l5.443,1.3,9.679-2.884q5.006,2.879,10,5.775l-5.01,5.605,2.226,3.1,10.389,1.915v8.19l-10.389,1.915-2.225,3.1,5.01,5.606-10,5.775-9.679-2.884-5.444,1.3-3.314,5.99h-14.059l-3.313-5.991-5.443-1.3-9.681,2.884q-4.994-2.9-10-5.775l5.01-5.605-2.224-3.1-10.389-1.915v-8.19l10.39-1.916,2.223-3.1-5.01-5.605,10-5.775,9.681,2.884,5.444-1.3,3.313-5.991h14.059l3.314,5.991Zm5.428,1.451-5.528-1.322-3.3-5.97H2645.9l-3.3,5.97q-2.775.663-5.549,1.326l-9.656-2.876-9.788,5.651,4.968,5.558-2.328,3.245-10.327,1.905v7.942l10.327,1.9q1.166,1.621,2.328,3.246l-4.968,5.558,9.788,5.651,9.656-2.877c1.851.435,3.7.881,5.548,1.327l3.3,5.971h13.883l3.3-5.971q2.772-.667,5.547-1.327l9.656,2.877,9.788-5.651-4.967-5.558q1.165-1.622,2.329-3.246l10.327-1.9v-7.942l-10.327-1.9q-1.161-1.625-2.329-3.246l4.967-5.557-9.788-5.651-9.656,2.876Z" transform="translate(-2603.88 -1754.14)" fill-rule="evenodd" opacity="0.2"/>
      <path id="Tracé_15821" data-name="Tracé 15821" d="M2708.645,1807.666v16.278l-4.988,5.582v-16.278Z" transform="translate(-2629.636 -1751.182)" fill="#0087ca" fill-rule="evenodd"/>
      <path id="Tracé_15822" data-name="Tracé 15822" d="M2709.055,1807.418V1823.7a.655.655,0,0,1-.209.482l-4.949,5.538a.656.656,0,0,1-1.146-.438h0V1813a.654.654,0,0,1,.209-.481l4.949-5.537a.656.656,0,0,1,1.145.438Zm-1.318,16.03v-14.307l-3.67,4.106v14.306Z" transform="translate(-2629.387 -1750.933)" fill="#0087ca" fill-rule="evenodd"/>
      <path id="Tracé_15823" data-name="Tracé 15823" d="M2717.153,1833.477v16.278l-10.358,1.909v-16.277Z" transform="translate(-2630.497 -1758.262)" fill="#0087ca" fill-rule="evenodd"/>
      <path id="Tracé_15824" data-name="Tracé 15824" d="M2717.563,1833.229v16.278a.66.66,0,0,1-.593.656l-10.307,1.9a.658.658,0,0,1-.765-.528.7.7,0,0,1-.01-.118h0v-16.278a.659.659,0,0,1,.593-.656l10.307-1.9a.658.658,0,0,1,.765.528.645.645,0,0,1,.011.118Zm-1.318,15.73v-14.94l-9.04,1.666v14.94Z" transform="translate(-2630.248 -1758.014)" fill="#0087ca" fill-rule="evenodd"/>
      <path id="Tracé_15825" data-name="Tracé 15825" d="M2705.934,1836.108v16.278l-2.277,3.173v-16.278Z" transform="translate(-2629.636 -1758.984)" fill="#0087ca" fill-rule="evenodd"/>
      <path id="Tracé_15826" data-name="Tracé 15826" d="M2706.344,1835.86v16.278a.654.654,0,0,1-.16.43l-2.243,3.127a.657.657,0,0,1-1.19-.384h0v-16.278a.658.658,0,0,1,.159-.429l2.244-3.127a.656.656,0,0,1,1.189.383Zm-1.319,16.07v-14.025l-.958,1.335v14.024Z" transform="translate(-2629.387 -1758.735)" fill="#0087ca" fill-rule="evenodd"/>
      <path id="Tracé_15827" data-name="Tracé 15827" d="M2706.79,1848.173v16.278l-9.9,5.713v-16.278Z" transform="translate(-2627.781 -1762.293)" fill="#0087ca" fill-rule="evenodd"/>
      <path id="Tracé_15828" data-name="Tracé 15828" d="M2707.2,1847.924V1864.2a.66.66,0,0,1-.385.6l-9.842,5.682a.658.658,0,0,1-.9-.242.649.649,0,0,1-.087-.327h0v-16.278a.66.66,0,0,1,.385-.6l9.842-5.682a.656.656,0,0,1,.983.569Zm-1.318,15.9v-14.762l-8.577,4.952v14.762Z" transform="translate(-2627.532 -1762.045)" fill="#0087ca" fill-rule="evenodd"/>
      <path id="Tracé_15829" data-name="Tracé 15829" d="M2693.241,1854.956v16.278l-9.667-2.881v-16.277Z" transform="translate(-2624.128 -1763.364)" fill="#00cef0" fill-rule="evenodd"/>
      <path id="Tracé_15830" data-name="Tracé 15830" d="M2693.652,1854.707v16.278a.66.66,0,0,1-.66.659.67.67,0,0,1-.224-.039l-9.631-2.869a.66.66,0,0,1-.471-.632h0v-16.276a.659.659,0,0,1,.659-.66.648.648,0,0,1,.223.04l9.631,2.869a.658.658,0,0,1,.47.63Zm-1.319,15.394v-14.9l-8.348-2.487v14.9Z" transform="translate(-2623.878 -1763.115)" fill="#0087ca" fill-rule="evenodd"/>
      <path id="Tracé_15831" data-name="Tracé 15831" d="M2681.5,1852.077v16.277l-5.5,1.314V1853.39Z" transform="translate(-2622.05 -1763.364)" fill="#0087ca" fill-rule="evenodd"/>
      <path id="Tracé_15832" data-name="Tracé 15832" d="M2681.907,1851.828V1868.1a.659.659,0,0,1-.566.653l-5.437,1.3a.656.656,0,0,1-.791-.486.69.69,0,0,1-.018-.152h0v-16.278a.66.66,0,0,1,.566-.653l5.437-1.3a.657.657,0,0,1,.808.639Zm-1.318,15.76v-14.927l-4.178,1v14.927Z" transform="translate(-2621.801 -1763.116)" fill="#0087ca" fill-rule="evenodd"/>
      <path id="Tracé_15833" data-name="Tracé 15833" d="M2674.75,1853.887v16.278l-3.308,5.98v-16.278Z" transform="translate(-2620.799 -1763.861)" fill="#0087ca" fill-rule="evenodd"/>
      <path id="Tracé_15834" data-name="Tracé 15834" d="M2675.16,1853.638v16.278a.66.66,0,0,1-.1.354l-3.288,5.943a.658.658,0,0,1-1.235-.316h0v-16.278a.657.657,0,0,1,.1-.355l3.288-5.942a.658.658,0,0,1,1.235.316Zm-1.318,16.111v-13.559l-1.99,3.6v13.558Z" transform="translate(-2620.55 -1763.612)" fill="#0087ca" fill-rule="evenodd"/>
      <rect id="Rectangle_719" data-name="Rectangle 719" width="13.971" height="16.278" transform="translate(36.672 96.006)" fill="#00cef0"/>
      <path id="Tracé_15835" data-name="Tracé 15835" d="M2666.571,1861.879v16.278a.659.659,0,0,1-.659.659h-13.971a.659.659,0,0,1-.659-.659v-16.278a.66.66,0,0,1,.659-.66h13.971a.659.659,0,0,1,.659.66Zm-1.319,15.618v-14.959H2652.6V1877.5Z" transform="translate(-2615.269 -1765.872)" fill="#0087ca" fill-rule="evenodd"/>
      <path id="Tracé_15836" data-name="Tracé 15836" d="M2648.863,1859.37v16.278l-3.308-5.981-5.495-1.314v-16.277l5.5,1.313Z" transform="translate(-2612.19 -1763.364)" fill="#a6edf8" fill-rule="evenodd"/>
      <path id="Tracé_15837" data-name="Tracé 15837" d="M2649.271,1859.166V1875.4a.657.657,0,0,1-1.232.316h0l-3.167-5.726-5.211-1.246a.656.656,0,0,1-.5-.639v-16.276a.657.657,0,0,1,.657-.657.668.668,0,0,1,.172.023l5.476,1.309a.655.655,0,0,1,.424.323h0l3.308,5.982a.662.662,0,0,1,.079.36Zm-1.314,13.686v-13.558l-3.087-5.583-4.4-1.052v14.927l4.947,1.184a.651.651,0,0,1,.468.333Z" transform="translate(-2611.942 -1763.116)" fill="#0087ca" fill-rule="evenodd"/>
      <path id="Tracé_15838" data-name="Tracé 15838" d="M2636.406,1852.077v16.277l-9.669,2.881v-16.278Z" transform="translate(-2608.536 -1763.364)" fill="#00cef0" fill-rule="evenodd"/>
      <path id="Tracé_15839" data-name="Tracé 15839" d="M2636.816,1851.828V1868.1a.661.661,0,0,1-.508.642l-9.633,2.869a.658.658,0,0,1-.846-.631h0v-16.278a.661.661,0,0,1,.508-.642l9.633-2.869a.657.657,0,0,1,.817.443.643.643,0,0,1,.028.189Zm-1.32,15.787v-14.9l-8.349,2.487v14.9Z" transform="translate(-2608.287 -1763.115)" fill="#0087ca" fill-rule="evenodd"/>
      <path id="Tracé_15840" data-name="Tracé 15840" d="M2620.106,1849.855v16.277l-9.9-5.713v-9.255l-7.645-1.409v-16.277l10.359,1.909,2.276,3.173v8.463Z" transform="translate(-2601.905 -1758.262)" fill="#a6edf8" fill-rule="evenodd"/>
      <path id="Tracé_15841" data-name="Tracé 15841" d="M2620.515,1849.644v16.239a.658.658,0,0,1-1,.559l-9.877-5.7a.658.658,0,0,1-.329-.57h0v-8.709l-7.1-1.31a.657.657,0,0,1-.539-.671v-16.251a.657.657,0,0,1,.656-.658.7.7,0,0,1,.118.011l10.358,1.909a.654.654,0,0,1,.416.264h0l2.276,3.173a.654.654,0,0,1,.121.436v8.028l4.579,2.645a.656.656,0,0,1,.327.607Zm-1.314,15.1v-14.759l-4.579-2.645h0a.654.654,0,0,1-.328-.567v-8.248l-2-2.789-9.32-1.718v14.94l7.055,1.3a.659.659,0,0,1,.593.656v8.878Z" transform="translate(-2601.657 -1758.013)" fill="#0087ca" fill-rule="evenodd"/>
      <path id="Tracé_15842" data-name="Tracé 15842" d="M2618.09,1813.248v16.278l-4.988-5.582v-16.278Z" transform="translate(-2604.796 -1751.182)" fill="#a6edf8" fill-rule="evenodd"/>
      <path id="Tracé_15843" data-name="Tracé 15843" d="M2618.5,1813v16.278a.659.659,0,0,1-1.189.393l-4.948-5.537a.648.648,0,0,1-.167-.437h0v-16.278a.66.66,0,0,1,1.19-.393l4.948,5.536a.655.655,0,0,1,.168.438Zm-1.319,14.555v-14.307l-3.67-4.106v14.307Z" transform="translate(-2604.546 -1750.932)" fill="#0087ca" fill-rule="evenodd"/>
      <path id="Tracé_15844" data-name="Tracé 15844" d="M2650.042,1825.743v13.32a8.55,8.55,0,0,1,3.4-2.036,15.42,15.42,0,0,1,5.254-.762,14.637,14.637,0,0,1,4.9.986,8.117,8.117,0,0,1,2.814,1.808v-13.353a3.249,3.249,0,0,0-1.32-2.355,9.618,9.618,0,0,0-3.957-1.76,14.76,14.76,0,0,0-5.573-.046,9.1,9.1,0,0,0-4.237,1.844,4.208,4.208,0,0,0-.915,1.069,2.613,2.613,0,0,0-.355,1.078v.021l-.008.185Zm0,16.254v.024a.659.659,0,1,1-1.318,0v-16.278h0l.01-.242c0-.025,0-.051,0-.077a3.925,3.925,0,0,1,.532-1.625,5.5,5.5,0,0,1,1.2-1.41,10.407,10.407,0,0,1,4.851-2.136,16.094,16.094,0,0,1,6.083.052,10.982,10.982,0,0,1,4.528,2.033,4.5,4.5,0,0,1,1.795,3.33.569.569,0,0,1,0,.077v16.278h0a.657.657,0,0,1-1.314.029l0-.029h0V1842a2.692,2.692,0,0,0-.566-1.574,6.229,6.229,0,0,0-2.737-1.951,13.316,13.316,0,0,0-4.444-.893,14.048,14.048,0,0,0-4.794.7,6.911,6.911,0,0,0-3.107,1.954,3.132,3.132,0,0,0-.528.855A2.874,2.874,0,0,0,2650.042,1842Z" transform="translate(-2614.568 -1754.562)" fill="#0087ca" fill-rule="evenodd"/>
      <path id="Tracé_15845" data-name="Tracé 15845" d="M2655.857,1799.691l5.495,1.313,9.667-2.879,9.9,5.713-4.988,5.581,2.277,3.173,10.358,1.911v8.065l-10.358,1.91-2.277,3.172,4.988,5.582-9.9,5.714-9.667-2.88-5.5,1.315-3.307,5.979h-13.971l-3.307-5.98-5.5-1.314-9.668,2.88-9.9-5.714,4.989-5.582-2.276-3.173-10.358-1.909V1814.5l10.359-1.91,2.276-3.173-4.989-5.581,9.9-5.713,9.668,2.879,5.5-1.315,3.307-5.98h13.971l3.308,5.981Zm-10.294,13.739c-4.883,0-8.842,2.286-8.842,5.106s3.958,5.1,8.842,5.1,8.842-2.286,8.842-5.1S2650.447,1813.43,2645.563,1813.43Z" transform="translate(-2601.906 -1747.353)" fill="#f8f9fd" fill-rule="evenodd"/>
      <path id="Tracé_15846" data-name="Tracé 15846" d="M2656.044,1798.871l5.037,1.2,9.5-2.83a.656.656,0,0,1,.56.088l4.906,2.83.034.022,4.913,2.836a.657.657,0,0,1,.239.9.614.614,0,0,1-.106.138l-4.611,5.159,1.816,2.529,10.1,1.862a.659.659,0,0,1,.54.647h0v8.065a.66.66,0,0,1-.593.656l-10.043,1.852-1.815,2.531,4.635,5.187a.655.655,0,0,1-.051.927.606.606,0,0,1-.126.089l-3.349,1.933h0l-6.529,3.769a.656.656,0,0,1-.517.062l-9.5-2.831-5.038,1.205-3.167,5.726a.661.661,0,0,1-.577.342h-13.971a.66.66,0,0,1-.6-.379l-3.147-5.691-5.037-1.2-9.5,2.831a.656.656,0,0,1-.541-.075l-4.924-2.843-.035-.021-4.91-2.835a.656.656,0,0,1-.242-.9.677.677,0,0,1,.08-.111l4.636-5.187-1.816-2.532-10.1-1.861a.658.658,0,0,1-.539-.646h0v-8.066a.66.66,0,0,1,.594-.656l10.043-1.853,1.814-2.531-4.635-5.186a.657.657,0,0,1,.052-.927.67.67,0,0,1,.109-.08h0l2.966-1.712,6.932-4a.656.656,0,0,1,.515-.06h0l9.5,2.83,5.037-1.205,3.167-5.726a.661.661,0,0,1,.577-.341H2652.3a.659.659,0,0,1,.6.378l3.148,5.691Zm4.907,2.524-5.452-1.3a.66.66,0,0,1-.469-.332l-3.118-5.638h-13.2l-3.118,5.637h0a.652.652,0,0,1-.423.323l-5.447,1.3a.655.655,0,0,1-.389,0l-9.4-2.8c-4.122,2.38-.585.34-6.68,3.859l-2.266,1.308,4.412,4.936a.659.659,0,0,1,.083.863l-2.275,3.172h0a.661.661,0,0,1-.416.264l-9.818,1.811v6.972l9.771,1.8a.661.661,0,0,1,.463.271l2.276,3.174h0a.658.658,0,0,1-.045.82l-4.449,4.979,4.212,2.433.037.019,4.7,2.714,9.4-2.8h0a.661.661,0,0,1,.339-.009l5.452,1.3a.653.653,0,0,1,.468.332l3.118,5.638h13.2l3.119-5.637h0a.651.651,0,0,1,.424-.323l5.447-1.3a.659.659,0,0,1,.39,0l9.4,2.8,6.282-3.627h0l2.668-1.541-4.412-4.937a.66.66,0,0,1-.083-.863l2.277-3.173h0a.656.656,0,0,1,.416-.263l9.818-1.81V1814.8l-9.817-1.811a.658.658,0,0,1-.414-.263l-2.277-3.173a.659.659,0,0,1,.044-.822l4.449-4.977-4.212-2.434-.037-.019-4.7-2.715-9.4,2.8v0A.661.661,0,0,1,2660.951,1801.395Z" transform="translate(-2601.656 -1747.104)" fill="#0087ca" fill-rule="evenodd"/>
      <path id="Tracé_15847" data-name="Tracé 15847" d="M2652.471,1808.249c13.655,0,24.724,6.391,24.724,14.275s-11.07,14.273-24.724,14.273-24.724-6.39-24.724-14.273,11.069-14.275,24.724-14.275Zm0,9.169c-4.883,0-8.842,2.286-8.842,5.106s3.958,5.1,8.842,5.1,8.842-2.286,8.842-5.1S2657.354,1817.418,2652.471,1817.418Z" transform="translate(-2608.813 -1751.341)" fill="#f8f9fd" fill-rule="evenodd"/>
      <path id="Tracé_15848" data-name="Tracé 15848" d="M2667.956,1831.507c3.42-1.963,5.538-4.681,5.538-7.684,0-5.986-8.406-10.839-18.774-10.839s-18.772,4.853-18.772,10.839c0,3,2.118,5.722,5.538,7.684a29.353,29.353,0,0,1,26.47,0Z" transform="translate(-2611.063 -1752.641)" fill="#0087ca" fill-rule="evenodd"/>
      <path id="Tracé_15849" data-name="Tracé 15849" d="M2654.471,1833.751a27.276,27.276,0,0,0,11.925-2.537h0a29.278,29.278,0,0,0-23.846,0,27.275,27.275,0,0,0,11.922,2.536Zm13.307-3.3a30.135,30.135,0,0,0-26.611,0h0c-2.98-1.821-4.808-4.244-4.808-6.881,0-2.74,1.974-5.252,5.168-7.1a28.7,28.7,0,0,1,25.889,0h0c3.192,1.843,5.167,4.353,5.167,7.1,0,2.637-1.827,5.06-4.807,6.881Zm.3,1.351a29.965,29.965,0,0,1-27.2,0c-3.6-2.08-5.83-4.988-5.83-8.232s2.227-6.155,5.828-8.234a29.973,29.973,0,0,1,27.208,0h0c3.6,2.08,5.828,4.988,5.828,8.233S2671.676,1829.726,2668.073,1831.806Z" transform="translate(-2610.814 -1752.391)" fill="#0087ca" fill-rule="evenodd"/>
      <path id="Tracé_15850" data-name="Tracé 15850" d="M2613.51,1864.2a.657.657,0,0,1-1.314,0v-16.277a.657.657,0,1,1,1.313,0Z" transform="translate(-2604.547 -1762.045)" fill="#0087ca" fill-rule="evenodd"/>
      <path id="Tracé_15851" data-name="Tracé 15851" d="M2648.042,1869.916a.657.657,0,1,1-1.314,0v-16.278a.657.657,0,0,1,1.314,0Z" transform="translate(-2614.02 -1763.612)" fill="#0087ca" fill-rule="evenodd"/>
    </g>
  </g>
</svg>
