<svg xmlns="http://www.w3.org/2000/svg" width="192.132" height="114.108" viewBox="0 0 192.132 114.108">
  <g id="Groupe_1590" data-name="Groupe 1590" transform="translate(0 0)">
    <g id="Groupe_1423" data-name="Groupe 1423" transform="translate(68.561)">
      <path id="Tracé_15785" data-name="Tracé 15785" d="M2777.329,1767l7.509,1.8,13.205-3.935,13.519,7.8-6.814,7.625,3.11,4.334,14.151,2.61v11.019l-14.152,2.608-3.109,4.334,6.814,7.625-13.519,7.8-13.205-3.935-7.509,1.8-4.519,8.17h-19.085l-4.519-8.171-7.507-1.794-13.208,3.935-13.518-7.8,6.815-7.625-3.11-4.335-14.15-2.608v-11.019l14.151-2.61,3.109-4.333-6.815-7.625,13.518-7.8,13.208,3.935,7.508-1.8,4.518-8.17h19.085Z" transform="translate(-2698.437 -1737.786)" fill-rule="evenodd" opacity="0.2"/>
      <path id="Tracé_15786" data-name="Tracé 15786" d="M2841.9,1749.747v20.429l-6.814,7.624v-20.429Z" transform="translate(-2734.251 -1735.293)" fill="#0087ca" fill-rule="evenodd"/>
      <path id="Tracé_15787" data-name="Tracé 15787" d="M2842.286,1749.515v20.429a.613.613,0,0,1-.2.451l-6.777,7.583a.615.615,0,0,1-1.074-.41h0v-20.429a.619.619,0,0,1,.195-.451l6.778-7.583a.616.616,0,0,1,1.074.41Zm-1.236,20.2v-18.584l-5.579,6.243v18.583Z" transform="translate(-2734.018 -1735.061)" fill="#0087ca" fill-rule="evenodd"/>
      <path id="Tracé_15788" data-name="Tracé 15788" d="M2853.523,1785.007v20.429l-14.151,2.609v-20.429Z" transform="translate(-2735.427 -1744.966)" fill="#0087ca" fill-rule="evenodd"/>
      <path id="Tracé_15789" data-name="Tracé 15789" d="M2853.907,1784.774V1805.2a.617.617,0,0,1-.556.615l-14.1,2.6a.615.615,0,0,1-.716-.495.572.572,0,0,1-.011-.111h0v-20.429a.617.617,0,0,1,.556-.614l14.1-2.6a.616.616,0,0,1,.716.495.607.607,0,0,1,.011.111Zm-1.234,19.917v-19.178l-12.917,2.382v19.177Z" transform="translate(-2735.194 -1744.733)" fill="#0087ca" fill-rule="evenodd"/>
      <path id="Tracé_15790" data-name="Tracé 15790" d="M2838.2,1788.6v20.429l-3.11,4.334v-20.428Z" transform="translate(-2734.251 -1745.952)" fill="#0087ca" fill-rule="evenodd"/>
      <path id="Tracé_15791" data-name="Tracé 15791" d="M2838.58,1788.368V1808.8a.612.612,0,0,1-.148.4l-3.079,4.292a.616.616,0,0,1-1.115-.359h0V1792.7a.616.616,0,0,1,.148-.4l3.079-4.292a.615.615,0,0,1,1.115.359Zm-1.234,20.235v-18.319l-1.875,2.613v18.318Z" transform="translate(-2734.018 -1745.719)" fill="#0087ca" fill-rule="evenodd"/>
      <path id="Tracé_15792" data-name="Tracé 15792" d="M2839.366,1805.082v20.428l-13.518,7.8v-20.428Z" transform="translate(-2731.717 -1750.473)" fill="#0087ca" fill-rule="evenodd"/>
      <path id="Tracé_15793" data-name="Tracé 15793" d="M2839.751,1804.849v20.428a.619.619,0,0,1-.348.556l-13.479,7.782a.617.617,0,0,1-.925-.533h0v-20.429a.616.616,0,0,1,.347-.556l13.479-7.782a.615.615,0,0,1,.924.533Zm-1.236,20.074v-19.006l-12.283,7.091v19.007Z" transform="translate(-2731.484 -1750.24)" fill="#0087ca" fill-rule="evenodd"/>
      <path id="Tracé_15794" data-name="Tracé 15794" d="M2820.856,1814.349v20.429l-13.206-3.935v-20.429Z" transform="translate(-2726.725 -1751.936)" fill="#00cef0" fill-rule="evenodd"/>
      <path id="Tracé_15795" data-name="Tracé 15795" d="M2821.24,1814.116v20.429a.617.617,0,0,1-.618.617.638.638,0,0,1-.21-.036l-13.172-3.925a.618.618,0,0,1-.44-.591h0v-20.429a.617.617,0,0,1,.617-.617.61.61,0,0,1,.21.037l13.172,3.924a.617.617,0,0,1,.44.591Zm-1.234,19.6v-19.141l-11.971-3.567v19.142Z" transform="translate(-2726.491 -1751.702)" fill="#0087ca" fill-rule="evenodd"/>
      <path id="Tracé_15796" data-name="Tracé 15796" d="M2804.813,1810.414v20.429l-7.508,1.8V1812.21Z" transform="translate(-2723.887 -1751.936)" fill="#0087ca" fill-rule="evenodd"/>
      <path id="Tracé_15797" data-name="Tracé 15797" d="M2805.2,1810.182v20.429a.617.617,0,0,1-.53.611l-7.453,1.782a.616.616,0,0,1-.741-.456.588.588,0,0,1-.017-.142h0v-20.429a.616.616,0,0,1,.53-.611l7.454-1.783a.616.616,0,0,1,.74.457.656.656,0,0,1,.016.141Zm-1.235,19.945v-19.165l-6.274,1.5v19.165Z" transform="translate(-2723.654 -1751.703)" fill="#0087ca" fill-rule="evenodd"/>
      <path id="Tracé_15798" data-name="Tracé 15798" d="M2795.6,1812.889v20.429l-4.519,8.17v-20.429Z" transform="translate(-2722.179 -1752.614)" fill="#0087ca" fill-rule="evenodd"/>
      <path id="Tracé_15799" data-name="Tracé 15799" d="M2795.98,1812.656v20.429a.62.62,0,0,1-.1.332l-4.5,8.134a.616.616,0,0,1-1.157-.3h0v-20.43a.615.615,0,0,1,.1-.331l4.5-8.134a.617.617,0,0,1,1.157.3Zm-1.235,20.272v-17.883l-3.284,5.938v17.882Z" transform="translate(-2721.945 -1752.381)" fill="#0087ca" fill-rule="evenodd"/>
      <rect id="Rectangle_718" data-name="Rectangle 718" width="19.085" height="20.429" transform="translate(49.814 68.444)" fill="#00cef0"/>
      <path id="Tracé_15800" data-name="Tracé 15800" d="M2784.247,1823.913v20.43a.617.617,0,0,1-.618.617h-19.084a.618.618,0,0,1-.619-.617v-20.43a.618.618,0,0,1,.619-.617h19.084a.617.617,0,0,1,.618.617Zm-1.235,19.812V1824.53h-17.851v19.194Z" transform="translate(-2714.73 -1755.469)" fill="#0087ca" fill-rule="evenodd"/>
      <path id="Tracé_15801" data-name="Tracé 15801" d="M2760.232,1820.38v20.428l-4.519-8.17-7.507-1.795v-20.429l7.507,1.8Z" transform="translate(-2710.418 -1751.936)" fill="#a6edf8" fill-rule="evenodd"/>
      <path id="Tracé_15802" data-name="Tracé 15802" d="M2760.615,1820.188v20.388a.615.615,0,0,1-1.154.3h0l-4.387-7.932-7.24-1.731a.616.616,0,0,1-.473-.6v-20.429a.615.615,0,0,1,.616-.615.6.6,0,0,1,.161.022l7.488,1.79a.613.613,0,0,1,.4.3h0l4.519,8.17a.611.611,0,0,1,.075.338Zm-1.23,18v-17.882l-4.312-7.8-6.483-1.55v19.165l6.993,1.672a.614.614,0,0,1,.438.311Z" transform="translate(-2710.186 -1751.703)" fill="#0087ca" fill-rule="evenodd"/>
      <path id="Tracé_15803" data-name="Tracé 15803" d="M2743.213,1810.414v20.429l-13.208,3.935v-20.429Z" transform="translate(-2705.426 -1751.936)" fill="#00cef0" fill-rule="evenodd"/>
      <path id="Tracé_15804" data-name="Tracé 15804" d="M2743.6,1810.181v20.43a.617.617,0,0,1-.474.6l-13.174,3.925a.618.618,0,0,1-.793-.591h0v-20.429a.619.619,0,0,1,.475-.6l13.174-3.925a.618.618,0,0,1,.768.415.612.612,0,0,1,.026.176Zm-1.234,19.97v-19.142l-11.973,3.567v19.142Z" transform="translate(-2705.192 -1751.702)" fill="#0087ca" fill-rule="evenodd"/>
      <path id="Tracé_15805" data-name="Tracé 15805" d="M2720.949,1807.38v20.428l-13.518-7.8V1807.36l-10.444-1.925v-20.429l14.149,2.609,3.111,4.334v11.56Z" transform="translate(-2696.368 -1744.966)" fill="#a6edf8" fill-rule="evenodd"/>
      <path id="Tracé_15806" data-name="Tracé 15806" d="M2721.33,1807.183v20.393a.615.615,0,0,1-.923.533h0l-13.518-7.8a.615.615,0,0,1-.308-.533h0V1807.64l-9.938-1.833a.616.616,0,0,1-.5-.629v-20.4a.614.614,0,0,1,.725-.605l14.151,2.608a.613.613,0,0,1,.389.247h0l3.109,4.335a.607.607,0,0,1,.113.409v11.154l6.4,3.693a.616.616,0,0,1,.306.57Zm-1.23,19.326V1807.5l-6.4-3.693h0a.618.618,0,0,1-.306-.533v-11.359l-2.853-3.976-13.178-2.429v19.177l9.893,1.824a.616.616,0,0,1,.555.614v12.289Z" transform="translate(-2696.135 -1744.733)" fill="#0087ca" fill-rule="evenodd"/>
      <path id="Tracé_15807" data-name="Tracé 15807" d="M2718.193,1757.372V1777.8l-6.815-7.624v-20.429Z" transform="translate(-2700.316 -1735.293)" fill="#a6edf8" fill-rule="evenodd"/>
      <path id="Tracé_15808" data-name="Tracé 15808" d="M2718.577,1757.138v20.429a.618.618,0,0,1-1.114.368l-6.776-7.583a.612.612,0,0,1-.157-.41h0v-20.429a.618.618,0,0,1,1.114-.368l6.777,7.582a.617.617,0,0,1,.156.41Zm-1.235,18.815V1757.37l-5.58-6.243v18.584Z" transform="translate(-2700.082 -1735.06)" fill="#0087ca" fill-rule="evenodd"/>
      <path id="Tracé_15809" data-name="Tracé 15809" d="M2761.284,1774.781v20.429a4.712,4.712,0,0,1,1.191-3.023c2.531-3.036,7.725-4.052,11.509-3.942,3.517.1,8.328,1.271,10.509,4.251a4.587,4.587,0,0,1,.948,2.714v-20.429c-.084-3.84-4.741-5.877-7.926-6.551-4.433-.938-10.633-.373-14.168,2.652a5.437,5.437,0,0,0-2.048,3.541Z" transform="translate(-2714.006 -1740.25)" fill="#0087ca" fill-rule="evenodd"/>
      <path id="Tracé_15810" data-name="Tracé 15810" d="M2761.668,1774.549v17.136l.1-.124a10.922,10.922,0,0,1,4.919-3.137,20.765,20.765,0,0,1,7.08-1.027,19.749,19.749,0,0,1,6.591,1.326,10.2,10.2,0,0,1,4.232,2.959v-17.169a4.7,4.7,0,0,0-1.909-3.45,13.423,13.423,0,0,0-5.527-2.462,20.436,20.436,0,0,0-7.723-.065,12.718,12.718,0,0,0-5.92,2.581,6.04,6.04,0,0,0-1.31,1.536,3.845,3.845,0,0,0-.523,1.591l0,.02-.012.286Zm0,20.4v.024a.618.618,0,0,1-1.236,0v-20.429h0l.015-.34a.386.386,0,0,1,0-.071,5.066,5.066,0,0,1,.687-2.1,7.255,7.255,0,0,1,1.575-1.853,13.924,13.924,0,0,1,6.494-2.855,21.676,21.676,0,0,1,8.2.069,14.714,14.714,0,0,1,6.063,2.718,5.868,5.868,0,0,1,2.351,4.364.469.469,0,0,1,0,.072v20.429h0a.616.616,0,0,1-1.231.027v-.027h0v-.024a4.307,4.307,0,0,0-.218-1.2,4.247,4.247,0,0,0-.611-1.121,8.762,8.762,0,0,0-3.861-2.761,18.475,18.475,0,0,0-6.167-1.24,19.5,19.5,0,0,0-6.651.964,9.717,9.717,0,0,0-4.368,2.755,4.563,4.563,0,0,0-.769,1.246A4.214,4.214,0,0,0,2761.668,1794.953Z" transform="translate(-2713.772 -1740.018)" fill="#0087ca" fill-rule="evenodd"/>
      <path id="Tracé_15811" data-name="Tracé 15811" d="M2769.787,1738.851l7.506,1.8,13.206-3.935,13.518,7.8-6.814,7.624,3.111,4.335,14.15,2.609v11.02l-14.151,2.608-3.111,4.334,6.814,7.626-13.518,7.8-13.206-3.936-7.508,1.8-4.519,8.169h-19.085l-4.518-8.17-7.508-1.8-13.208,3.936q-6.758-3.9-13.518-7.8l6.816-7.626-3.111-4.334-14.149-2.609v-11.019l14.15-2.61,3.11-4.334-6.816-7.624,13.518-7.8,13.208,3.935,7.509-1.8,4.517-8.17h19.085l4.52,8.17Zm-14.062,18.77c-6.67,0-12.079,3.122-12.079,6.974s5.409,6.973,12.079,6.973,12.079-3.122,12.079-6.973S2762.395,1757.621,2755.724,1757.621Z" transform="translate(-2696.368 -1730.063)" fill="#f8f9fd" fill-rule="evenodd"/>
      <path id="Tracé_15812" data-name="Tracé 15812" d="M2769.961,1738.083l7.078,1.693,13.05-3.888a.613.613,0,0,1,.524.082l6.72,3.879h0l6.758,3.9a.616.616,0,0,1,.224.842.625.625,0,0,1-.1.129l-6.459,7.228,2.678,3.733,13.906,2.564a.615.615,0,0,1,.5.6h0v11.019a.618.618,0,0,1-.556.614l-13.854,2.554-2.679,3.734,6.484,7.255a.616.616,0,0,1-.048.869.552.552,0,0,1-.1.074h0l-13.518,7.8a.611.611,0,0,1-.485.057l-13.05-3.888-7.08,1.693-4.387,7.933a.618.618,0,0,1-.54.319h-19.084a.618.618,0,0,1-.559-.353l-4.368-7.9-7.078-1.692-13.052,3.889a.617.617,0,0,1-.508-.071l-6.736-3.89-.032-.02-6.725-3.882a.613.613,0,0,1-.227-.839.572.572,0,0,1,.075-.1l6.485-7.255-2.679-3.734-13.9-2.563a.615.615,0,0,1-.5-.605h0v-11.019a.618.618,0,0,1,.555-.615l13.856-2.554,2.679-3.734-6.485-7.255a.614.614,0,0,1,.048-.868.588.588,0,0,1,.1-.074h0l13.518-7.8a.615.615,0,0,1,.485-.057l13.052,3.887,7.078-1.693,4.387-7.932a.618.618,0,0,1,.54-.32h19.085a.618.618,0,0,1,.559.354l4.369,7.9Zm6.957,2.927-7.467-1.785a.617.617,0,0,1-.438-.311l-4.342-7.849h-18.359l-4.34,7.848h0a.609.609,0,0,1-.4.3l-7.462,1.784a.619.619,0,0,1-.365,0l-12.954-3.858-12.631,7.293,6.275,7.021a.617.617,0,0,1,.078.808l-3.109,4.334h0a.617.617,0,0,1-.389.248l-13.645,2.515v10l13.6,2.507a.618.618,0,0,1,.433.254l3.11,4.335h0a.615.615,0,0,1-.041.768l-6.311,7.062,6.071,3.5.035.019,6.527,3.769,12.954-3.859v0a.62.62,0,0,1,.318-.009l7.466,1.785a.616.616,0,0,1,.438.311l4.341,7.85h18.359l4.342-7.849h0a.618.618,0,0,1,.4-.3l7.463-1.784a.62.62,0,0,1,.363,0l12.952,3.859,12.632-7.293-6.273-7.022a.616.616,0,0,1-.079-.808l3.111-4.334h0a.61.61,0,0,1,.389-.247l13.645-2.515v-9.995l-13.645-2.516a.619.619,0,0,1-.388-.246l-3.11-4.335a.616.616,0,0,1,.041-.77l6.309-7.059-6.1-3.525h0l-6.526-3.768L2777.236,1741h0a.6.6,0,0,1-.317.008Zm-21.427,15.758a18.025,18.025,0,0,0-8.851,2.128c-2.375,1.372-3.847,3.3-3.847,5.464s1.457,4.07,3.813,5.442l.036.023a19.469,19.469,0,0,0,17.7,0c2.377-1.374,3.849-3.3,3.849-5.464s-1.471-4.092-3.847-5.464h0a18.017,18.017,0,0,0-8.848-2.128Zm8.232,3.192a18.293,18.293,0,0,0-16.465,0c-2,1.153-3.229,2.709-3.229,4.4s1.22,3.231,3.2,4.381l.032.016a18.286,18.286,0,0,0,16.467,0c1.994-1.15,3.228-2.708,3.228-4.4s-1.234-3.246-3.23-4.4Z" transform="translate(-2696.134 -1729.83)" fill="#0087ca" fill-rule="evenodd"/>
      <path id="Tracé_15813" data-name="Tracé 15813" d="M2765.161,1750.543c18.654,0,33.776,8.73,33.776,19.5s-15.122,19.5-33.776,19.5-33.774-8.731-33.774-19.5,15.12-19.5,33.774-19.5Zm0,12.526c-6.67,0-12.079,3.122-12.079,6.974s5.408,6.973,12.079,6.973,12.079-3.122,12.079-6.973S2771.832,1763.069,2765.161,1763.069Z" transform="translate(-2705.804 -1735.512)" fill="#00cef0" fill-rule="evenodd"/>
      <path id="Tracé_15814" data-name="Tracé 15814" d="M2764.927,1749.692c9.435,0,17.989,2.214,24.191,5.8l.035.022c6.282,3.639,10.166,8.691,10.166,14.3s-3.9,10.682-10.2,14.322c-6.2,3.581-14.756,5.8-24.189,5.8s-17.987-2.214-24.19-5.8h0c-6.3-3.639-10.2-8.7-10.2-14.322s3.9-10.683,10.2-14.322c6.2-3.581,14.756-5.8,24.191-5.8Zm23.574,6.861c-6.021-3.477-14.356-5.627-23.574-5.627s-17.552,2.15-23.574,5.627c-5.921,3.419-9.583,8.107-9.583,13.256s3.662,9.838,9.583,13.256h0c6.022,3.477,14.356,5.626,23.575,5.626s17.554-2.15,23.577-5.626c5.919-3.419,9.581-8.107,9.581-13.256s-3.649-9.822-9.551-13.239l-.032-.018Zm-23.574,5.664a18.023,18.023,0,0,0-8.85,2.128c-2.375,1.372-3.847,3.3-3.847,5.464s1.457,4.07,3.813,5.442l.035.022a19.466,19.466,0,0,0,17.7,0c2.378-1.373,3.85-3.3,3.85-5.464s-1.471-4.092-3.847-5.464h0a18.013,18.013,0,0,0-8.847-2.128Zm8.233,3.192a18.293,18.293,0,0,0-16.465,0c-1.995,1.152-3.229,2.709-3.229,4.4s1.221,3.231,3.2,4.381l.032.017a18.286,18.286,0,0,0,16.467,0c1.994-1.15,3.227-2.707,3.227-4.4s-1.234-3.246-3.23-4.4Z" transform="translate(-2705.571 -1735.279)" fill="#0087ca" fill-rule="evenodd"/>
      <path id="Tracé_15815" data-name="Tracé 15815" d="M2768.234,1786.623c14.164,0,25.646-6.629,25.646-14.806s-11.482-14.806-25.646-14.806-25.646,6.629-25.646,14.806,11.482,14.806,25.646,14.806Zm0-21.78c6.67,0,12.079,3.122,12.079,6.974s-5.408,6.973-12.079,6.973-12.079-3.122-12.079-6.973S2761.563,1764.843,2768.234,1764.843Z" transform="translate(-2708.878 -1737.286)" fill="#f8f9fd" fill-rule="evenodd"/>
      <path id="Tracé_15816" data-name="Tracé 15816" d="M2768,1785.772c6.975,0,13.278-1.625,17.828-4.253,4.448-2.568,7.2-6.083,7.2-9.936s-2.752-7.367-7.2-9.937l-.03-.018a36.34,36.34,0,0,0-17.8-4.234c-6.973,0-13.274,1.625-17.825,4.253-4.45,2.569-7.2,6.084-7.2,9.936s2.753,7.367,7.2,9.936l.028.018a36.343,36.343,0,0,0,17.8,4.234Zm18.441-3.186c-4.731,2.731-11.252,4.421-18.441,4.421a37.589,37.589,0,0,1-18.405-4.4l-.037-.02c-4.831-2.79-7.82-6.678-7.82-11s2.989-8.213,7.82-11c4.732-2.731,11.252-4.422,18.442-4.422a37.59,37.59,0,0,1,18.406,4.4l.037.02c4.832,2.79,7.821,6.677,7.821,11s-2.989,8.212-7.823,11ZM2768,1763.991a18.013,18.013,0,0,1,8.848,2.128h0c2.376,1.372,3.847,3.3,3.847,5.464s-1.472,4.091-3.85,5.465a19.468,19.468,0,0,1-17.7,0l-.036-.023c-2.356-1.371-3.812-3.292-3.812-5.442s1.471-4.092,3.847-5.464a18.02,18.02,0,0,1,8.85-2.128Zm8.233,3.192h0c2,1.152,3.23,2.709,3.23,4.4s-1.233,3.248-3.227,4.4a18.286,18.286,0,0,1-16.467,0l-.032-.017c-1.976-1.149-3.2-2.7-3.2-4.381s1.234-3.246,3.229-4.4a18.293,18.293,0,0,1,16.465,0Z" transform="translate(-2708.644 -1737.053)" fill="#0087ca" fill-rule="evenodd"/>
      <path id="Tracé_15817" data-name="Tracé 15817" d="M2711.761,1825.278a.615.615,0,1,1-1.23,0v-20.429a.615.615,0,1,1,1.23,0Z" transform="translate(-2700.083 -1750.24)" fill="#0087ca" fill-rule="evenodd"/>
      <path id="Tracé_15818" data-name="Tracé 15818" d="M2758.934,1833.084a.615.615,0,1,1-1.229,0v-20.429a.615.615,0,1,1,1.229,0Z" transform="translate(-2713.024 -1752.382)" fill="#0087ca" fill-rule="evenodd"/>
    </g>
    <path id="Tracé_15819" data-name="Tracé 15819" d="M2663.158,1824.533l5.5,1.315,9.666-2.88,9.895,5.713-4.988,5.581,2.277,3.174,10.358,1.909v8.066l-10.359,1.91-2.276,3.173,4.988,5.582-9.895,5.713-9.666-2.88-5.5,1.314-3.309,5.98h-13.97l-3.306-5.98-5.5-1.314-9.668,2.88-9.9-5.713,4.989-5.582-2.276-3.173-10.358-1.91v-8.066l10.359-1.91,2.275-3.173-4.989-5.581,9.9-5.713,9.668,2.88,5.5-1.315,3.307-5.98h13.97Z" transform="translate(-2603.908 -1754.168)" fill-rule="evenodd" opacity="0.2"/>
    <path id="Tracé_15820" data-name="Tracé 15820" d="M2663.18,1824.44l5.443,1.3,9.679-2.884q5.006,2.879,10,5.775l-5.01,5.605,2.226,3.1,10.389,1.915v8.19l-10.389,1.915-2.225,3.1,5.01,5.606-10,5.775-9.679-2.884-5.444,1.3-3.314,5.99h-14.059l-3.313-5.991-5.443-1.3-9.681,2.884q-4.994-2.9-10-5.775l5.01-5.605-2.224-3.1-10.389-1.915v-8.19l10.39-1.916,2.223-3.1-5.01-5.605,10-5.775,9.681,2.884,5.444-1.3,3.313-5.991h14.059l3.314,5.991Zm5.428,1.451-5.528-1.322-3.3-5.97H2645.9l-3.3,5.97q-2.775.663-5.549,1.326l-9.656-2.876-9.788,5.651,4.968,5.558-2.328,3.245-10.327,1.905v7.942l10.327,1.9q1.166,1.621,2.328,3.246l-4.968,5.558,9.788,5.651,9.656-2.877c1.851.435,3.7.881,5.548,1.327l3.3,5.971h13.883l3.3-5.971q2.772-.667,5.547-1.327l9.656,2.877,9.788-5.651-4.967-5.558q1.165-1.622,2.329-3.246l10.327-1.9v-7.942l-10.327-1.9q-1.161-1.625-2.329-3.246l4.967-5.557-9.788-5.651-9.656,2.876Z" transform="translate(-2603.88 -1754.14)" fill-rule="evenodd" opacity="0.2"/>
    <path id="Tracé_15821" data-name="Tracé 15821" d="M2708.645,1807.666v16.278l-4.988,5.582v-16.278Z" transform="translate(-2629.636 -1751.182)" fill="#0087ca" fill-rule="evenodd"/>
    <path id="Tracé_15822" data-name="Tracé 15822" d="M2709.055,1807.418V1823.7a.655.655,0,0,1-.209.482l-4.949,5.538a.656.656,0,0,1-1.146-.438h0V1813a.654.654,0,0,1,.209-.481l4.949-5.537a.656.656,0,0,1,1.145.438Zm-1.318,16.03v-14.307l-3.67,4.106v14.306Z" transform="translate(-2629.387 -1750.933)" fill="#0087ca" fill-rule="evenodd"/>
    <path id="Tracé_15823" data-name="Tracé 15823" d="M2717.153,1833.477v16.278l-10.358,1.909v-16.277Z" transform="translate(-2630.497 -1758.262)" fill="#0087ca" fill-rule="evenodd"/>
    <path id="Tracé_15824" data-name="Tracé 15824" d="M2717.563,1833.229v16.278a.66.66,0,0,1-.593.656l-10.307,1.9a.658.658,0,0,1-.765-.528.7.7,0,0,1-.01-.118h0v-16.278a.659.659,0,0,1,.593-.656l10.307-1.9a.658.658,0,0,1,.765.528.645.645,0,0,1,.011.118Zm-1.318,15.73v-14.94l-9.04,1.666v14.94Z" transform="translate(-2630.248 -1758.014)" fill="#0087ca" fill-rule="evenodd"/>
    <path id="Tracé_15825" data-name="Tracé 15825" d="M2705.934,1836.108v16.278l-2.277,3.173v-16.278Z" transform="translate(-2629.636 -1758.984)" fill="#0087ca" fill-rule="evenodd"/>
    <path id="Tracé_15826" data-name="Tracé 15826" d="M2706.344,1835.86v16.278a.654.654,0,0,1-.16.43l-2.243,3.127a.657.657,0,0,1-1.19-.384h0v-16.278a.658.658,0,0,1,.159-.429l2.244-3.127a.656.656,0,0,1,1.189.383Zm-1.319,16.07v-14.025l-.958,1.335v14.024Z" transform="translate(-2629.387 -1758.735)" fill="#0087ca" fill-rule="evenodd"/>
    <path id="Tracé_15827" data-name="Tracé 15827" d="M2706.79,1848.173v16.278l-9.9,5.713v-16.278Z" transform="translate(-2627.781 -1762.293)" fill="#0087ca" fill-rule="evenodd"/>
    <path id="Tracé_15828" data-name="Tracé 15828" d="M2707.2,1847.924V1864.2a.66.66,0,0,1-.385.6l-9.842,5.682a.658.658,0,0,1-.9-.242.649.649,0,0,1-.087-.327h0v-16.278a.66.66,0,0,1,.385-.6l9.842-5.682a.656.656,0,0,1,.983.569Zm-1.318,15.9v-14.762l-8.577,4.952v14.762Z" transform="translate(-2627.532 -1762.045)" fill="#0087ca" fill-rule="evenodd"/>
    <path id="Tracé_15829" data-name="Tracé 15829" d="M2693.241,1854.956v16.278l-9.667-2.881v-16.277Z" transform="translate(-2624.128 -1763.364)" fill="#00cef0" fill-rule="evenodd"/>
    <path id="Tracé_15830" data-name="Tracé 15830" d="M2693.652,1854.707v16.278a.66.66,0,0,1-.66.659.67.67,0,0,1-.224-.039l-9.631-2.869a.66.66,0,0,1-.471-.632h0v-16.276a.659.659,0,0,1,.659-.66.648.648,0,0,1,.223.04l9.631,2.869a.658.658,0,0,1,.47.63Zm-1.319,15.394v-14.9l-8.348-2.487v14.9Z" transform="translate(-2623.878 -1763.115)" fill="#0087ca" fill-rule="evenodd"/>
    <path id="Tracé_15831" data-name="Tracé 15831" d="M2681.5,1852.077v16.277l-5.5,1.314V1853.39Z" transform="translate(-2622.05 -1763.364)" fill="#0087ca" fill-rule="evenodd"/>
    <path id="Tracé_15832" data-name="Tracé 15832" d="M2681.907,1851.828V1868.1a.659.659,0,0,1-.566.653l-5.437,1.3a.656.656,0,0,1-.791-.486.69.69,0,0,1-.018-.152h0v-16.278a.66.66,0,0,1,.566-.653l5.437-1.3a.657.657,0,0,1,.808.639Zm-1.318,15.76v-14.927l-4.178,1v14.927Z" transform="translate(-2621.801 -1763.116)" fill="#0087ca" fill-rule="evenodd"/>
    <path id="Tracé_15833" data-name="Tracé 15833" d="M2674.75,1853.887v16.278l-3.308,5.98v-16.278Z" transform="translate(-2620.799 -1763.861)" fill="#0087ca" fill-rule="evenodd"/>
    <path id="Tracé_15834" data-name="Tracé 15834" d="M2675.16,1853.638v16.278a.66.66,0,0,1-.1.354l-3.288,5.943a.658.658,0,0,1-1.235-.316h0v-16.278a.657.657,0,0,1,.1-.355l3.288-5.942a.658.658,0,0,1,1.235.316Zm-1.318,16.111v-13.559l-1.99,3.6v13.558Z" transform="translate(-2620.55 -1763.612)" fill="#0087ca" fill-rule="evenodd"/>
    <rect id="Rectangle_719" data-name="Rectangle 719" width="13.971" height="16.278" transform="translate(36.672 96.006)" fill="#00cef0"/>
    <path id="Tracé_15835" data-name="Tracé 15835" d="M2666.571,1861.879v16.278a.659.659,0,0,1-.659.659h-13.971a.659.659,0,0,1-.659-.659v-16.278a.66.66,0,0,1,.659-.66h13.971a.659.659,0,0,1,.659.66Zm-1.319,15.618v-14.959H2652.6V1877.5Z" transform="translate(-2615.269 -1765.872)" fill="#0087ca" fill-rule="evenodd"/>
    <path id="Tracé_15836" data-name="Tracé 15836" d="M2648.863,1859.37v16.278l-3.308-5.981-5.495-1.314v-16.277l5.5,1.313Z" transform="translate(-2612.19 -1763.364)" fill="#a6edf8" fill-rule="evenodd"/>
    <path id="Tracé_15837" data-name="Tracé 15837" d="M2649.271,1859.166V1875.4a.657.657,0,0,1-1.232.316h0l-3.167-5.726-5.211-1.246a.656.656,0,0,1-.5-.639v-16.276a.657.657,0,0,1,.657-.657.668.668,0,0,1,.172.023l5.476,1.309a.655.655,0,0,1,.424.323h0l3.308,5.982a.662.662,0,0,1,.079.36Zm-1.314,13.686v-13.558l-3.087-5.583-4.4-1.052v14.927l4.947,1.184a.651.651,0,0,1,.468.333Z" transform="translate(-2611.942 -1763.116)" fill="#0087ca" fill-rule="evenodd"/>
    <path id="Tracé_15838" data-name="Tracé 15838" d="M2636.406,1852.077v16.277l-9.669,2.881v-16.278Z" transform="translate(-2608.536 -1763.364)" fill="#00cef0" fill-rule="evenodd"/>
    <path id="Tracé_15839" data-name="Tracé 15839" d="M2636.816,1851.828V1868.1a.661.661,0,0,1-.508.642l-9.633,2.869a.658.658,0,0,1-.846-.631h0v-16.278a.661.661,0,0,1,.508-.642l9.633-2.869a.657.657,0,0,1,.817.443.643.643,0,0,1,.028.189Zm-1.32,15.787v-14.9l-8.349,2.487v14.9Z" transform="translate(-2608.287 -1763.115)" fill="#0087ca" fill-rule="evenodd"/>
    <path id="Tracé_15840" data-name="Tracé 15840" d="M2620.106,1849.855v16.277l-9.9-5.713v-9.255l-7.645-1.409v-16.277l10.359,1.909,2.276,3.173v8.463Z" transform="translate(-2601.905 -1758.262)" fill="#a6edf8" fill-rule="evenodd"/>
    <path id="Tracé_15841" data-name="Tracé 15841" d="M2620.515,1849.644v16.239a.658.658,0,0,1-1,.559l-9.877-5.7a.658.658,0,0,1-.329-.57h0v-8.709l-7.1-1.31a.657.657,0,0,1-.539-.671v-16.251a.657.657,0,0,1,.656-.658.7.7,0,0,1,.118.011l10.358,1.909a.654.654,0,0,1,.416.264h0l2.276,3.173a.654.654,0,0,1,.121.436v8.028l4.579,2.645a.656.656,0,0,1,.327.607Zm-1.314,15.1v-14.759l-4.579-2.645h0a.654.654,0,0,1-.328-.567v-8.248l-2-2.789-9.32-1.718v14.94l7.055,1.3a.659.659,0,0,1,.593.656v8.878Z" transform="translate(-2601.657 -1758.013)" fill="#0087ca" fill-rule="evenodd"/>
    <path id="Tracé_15842" data-name="Tracé 15842" d="M2618.09,1813.248v16.278l-4.988-5.582v-16.278Z" transform="translate(-2604.796 -1751.182)" fill="#a6edf8" fill-rule="evenodd"/>
    <path id="Tracé_15843" data-name="Tracé 15843" d="M2618.5,1813v16.278a.659.659,0,0,1-1.189.393l-4.948-5.537a.648.648,0,0,1-.167-.437h0v-16.278a.66.66,0,0,1,1.19-.393l4.948,5.536a.655.655,0,0,1,.168.438Zm-1.319,14.555v-14.307l-3.67-4.106v14.307Z" transform="translate(-2604.546 -1750.932)" fill="#0087ca" fill-rule="evenodd"/>
    <path id="Tracé_15844" data-name="Tracé 15844" d="M2650.042,1825.743v13.32a8.55,8.55,0,0,1,3.4-2.036,15.42,15.42,0,0,1,5.254-.762,14.637,14.637,0,0,1,4.9.986,8.117,8.117,0,0,1,2.814,1.808v-13.353a3.249,3.249,0,0,0-1.32-2.355,9.618,9.618,0,0,0-3.957-1.76,14.76,14.76,0,0,0-5.573-.046,9.1,9.1,0,0,0-4.237,1.844,4.208,4.208,0,0,0-.915,1.069,2.613,2.613,0,0,0-.355,1.078v.021l-.008.185Zm0,16.254v.024a.659.659,0,1,1-1.318,0v-16.278h0l.01-.242c0-.025,0-.051,0-.077a3.925,3.925,0,0,1,.532-1.625,5.5,5.5,0,0,1,1.2-1.41,10.407,10.407,0,0,1,4.851-2.136,16.094,16.094,0,0,1,6.083.052,10.982,10.982,0,0,1,4.528,2.033,4.5,4.5,0,0,1,1.795,3.33.569.569,0,0,1,0,.077v16.278h0a.657.657,0,0,1-1.314.029l0-.029h0V1842a2.692,2.692,0,0,0-.566-1.574,6.229,6.229,0,0,0-2.737-1.951,13.316,13.316,0,0,0-4.444-.893,14.048,14.048,0,0,0-4.794.7,6.911,6.911,0,0,0-3.107,1.954,3.132,3.132,0,0,0-.528.855A2.874,2.874,0,0,0,2650.042,1842Z" transform="translate(-2614.568 -1754.562)" fill="#0087ca" fill-rule="evenodd"/>
    <path id="Tracé_15845" data-name="Tracé 15845" d="M2655.857,1799.691l5.495,1.313,9.667-2.879,9.9,5.713-4.988,5.581,2.277,3.173,10.358,1.911v8.065l-10.358,1.91-2.277,3.172,4.988,5.582-9.9,5.714-9.667-2.88-5.5,1.315-3.307,5.979h-13.971l-3.307-5.98-5.5-1.314-9.668,2.88-9.9-5.714,4.989-5.582-2.276-3.173-10.358-1.909V1814.5l10.359-1.91,2.276-3.173-4.989-5.581,9.9-5.713,9.668,2.879,5.5-1.315,3.307-5.98h13.971l3.308,5.981Zm-10.294,13.739c-4.883,0-8.842,2.286-8.842,5.106s3.958,5.1,8.842,5.1,8.842-2.286,8.842-5.1S2650.447,1813.43,2645.563,1813.43Z" transform="translate(-2601.906 -1747.353)" fill="#f8f9fd" fill-rule="evenodd"/>
    <path id="Tracé_15846" data-name="Tracé 15846" d="M2656.044,1798.871l5.037,1.2,9.5-2.83a.656.656,0,0,1,.56.088l4.906,2.83.034.022,4.913,2.836a.657.657,0,0,1,.239.9.614.614,0,0,1-.106.138l-4.611,5.159,1.816,2.529,10.1,1.862a.659.659,0,0,1,.54.647h0v8.065a.66.66,0,0,1-.593.656l-10.043,1.852-1.815,2.531,4.635,5.187a.655.655,0,0,1-.051.927.606.606,0,0,1-.126.089l-3.349,1.933h0l-6.529,3.769a.656.656,0,0,1-.517.062l-9.5-2.831-5.038,1.205-3.167,5.726a.661.661,0,0,1-.577.342h-13.971a.66.66,0,0,1-.6-.379l-3.147-5.691-5.037-1.2-9.5,2.831a.656.656,0,0,1-.541-.075l-4.924-2.843-.035-.021-4.91-2.835a.656.656,0,0,1-.242-.9.677.677,0,0,1,.08-.111l4.636-5.187-1.816-2.532-10.1-1.861a.658.658,0,0,1-.539-.646h0v-8.066a.66.66,0,0,1,.594-.656l10.043-1.853,1.814-2.531-4.635-5.186a.657.657,0,0,1,.052-.927.67.67,0,0,1,.109-.08h0l2.966-1.712,6.932-4a.656.656,0,0,1,.515-.06h0l9.5,2.83,5.037-1.205,3.167-5.726a.661.661,0,0,1,.577-.341H2652.3a.659.659,0,0,1,.6.378l3.148,5.691Zm4.907,2.524-5.452-1.3a.66.66,0,0,1-.469-.332l-3.118-5.638h-13.2l-3.118,5.637h0a.652.652,0,0,1-.423.323l-5.447,1.3a.655.655,0,0,1-.389,0l-9.4-2.8c-4.122,2.38-.585.34-6.68,3.859l-2.266,1.308,4.412,4.936a.659.659,0,0,1,.083.863l-2.275,3.172h0a.661.661,0,0,1-.416.264l-9.818,1.811v6.972l9.771,1.8a.661.661,0,0,1,.463.271l2.276,3.174h0a.658.658,0,0,1-.045.82l-4.449,4.979,4.212,2.433.037.019,4.7,2.714,9.4-2.8h0a.661.661,0,0,1,.339-.009l5.452,1.3a.653.653,0,0,1,.468.332l3.118,5.638h13.2l3.119-5.637h0a.651.651,0,0,1,.424-.323l5.447-1.3a.659.659,0,0,1,.39,0l9.4,2.8,6.282-3.627h0l2.668-1.541-4.412-4.937a.66.66,0,0,1-.083-.863l2.277-3.173h0a.656.656,0,0,1,.416-.263l9.818-1.81V1814.8l-9.817-1.811a.658.658,0,0,1-.414-.263l-2.277-3.173a.659.659,0,0,1,.044-.822l4.449-4.977-4.212-2.434-.037-.019-4.7-2.715-9.4,2.8v0A.661.661,0,0,1,2660.951,1801.395Z" transform="translate(-2601.656 -1747.104)" fill="#0087ca" fill-rule="evenodd"/>
    <path id="Tracé_15847" data-name="Tracé 15847" d="M2652.471,1808.249c13.655,0,24.724,6.391,24.724,14.275s-11.07,14.273-24.724,14.273-24.724-6.39-24.724-14.273,11.069-14.275,24.724-14.275Zm0,9.169c-4.883,0-8.842,2.286-8.842,5.106s3.958,5.1,8.842,5.1,8.842-2.286,8.842-5.1S2657.354,1817.418,2652.471,1817.418Z" transform="translate(-2608.813 -1751.341)" fill="#f8f9fd" fill-rule="evenodd"/>
    <path id="Tracé_15848" data-name="Tracé 15848" d="M2667.956,1831.507c3.42-1.963,5.538-4.681,5.538-7.684,0-5.986-8.406-10.839-18.774-10.839s-18.772,4.853-18.772,10.839c0,3,2.118,5.722,5.538,7.684a29.353,29.353,0,0,1,26.47,0Z" transform="translate(-2611.063 -1752.641)" fill="#0087ca" fill-rule="evenodd"/>
    <path id="Tracé_15849" data-name="Tracé 15849" d="M2654.471,1833.751a27.276,27.276,0,0,0,11.925-2.537h0a29.278,29.278,0,0,0-23.846,0,27.275,27.275,0,0,0,11.922,2.536Zm13.307-3.3a30.135,30.135,0,0,0-26.611,0h0c-2.98-1.821-4.808-4.244-4.808-6.881,0-2.74,1.974-5.252,5.168-7.1a28.7,28.7,0,0,1,25.889,0h0c3.192,1.843,5.167,4.353,5.167,7.1,0,2.637-1.827,5.06-4.807,6.881Zm.3,1.351a29.965,29.965,0,0,1-27.2,0c-3.6-2.08-5.83-4.988-5.83-8.232s2.227-6.155,5.828-8.234a29.973,29.973,0,0,1,27.208,0h0c3.6,2.08,5.828,4.988,5.828,8.233S2671.676,1829.726,2668.073,1831.806Z" transform="translate(-2610.814 -1752.391)" fill="#0087ca" fill-rule="evenodd"/>
    <path id="Tracé_15850" data-name="Tracé 15850" d="M2613.51,1864.2a.657.657,0,0,1-1.314,0v-16.277a.657.657,0,1,1,1.313,0Z" transform="translate(-2604.547 -1762.045)" fill="#0087ca" fill-rule="evenodd"/>
    <path id="Tracé_15851" data-name="Tracé 15851" d="M2648.042,1869.916a.657.657,0,1,1-1.314,0v-16.278a.657.657,0,0,1,1.314,0Z" transform="translate(-2614.02 -1763.612)" fill="#0087ca" fill-rule="evenodd"/>
  </g>
</svg>
