<svg xmlns="http://www.w3.org/2000/svg" width="513.949" height="282.105" viewBox="0 0 513.949 282.105">
  <g id="Groupe_2240" data-name="Groupe 2240" transform="translate(-314.62 -3906.659)">
    <g id="Groupe_1914" data-name="Groupe 1914" transform="translate(557.051 3906.659)">
      <g id="Groupe_1907" data-name="Groupe 1907">
        <path id="Tracé_19020" data-name="Tracé 19020" d="M397.28,402.652l161.077-93.165c4.342-2.512,3.8-6.9-1.218-9.8L472.9,250.963c-5.014-2.9-12.6-3.217-16.944-.7L294.877,343.423c-4.342,2.512-3.8,6.9,1.218,9.8l84.241,48.724C385.35,404.85,392.936,405.164,397.28,402.652Z" transform="translate(-290.858 -247.465)" fill="#01e3a6"/>
        <path id="Tracé_19021" data-name="Tracé 19021" d="M390.488,406.039a20.673,20.673,0,0,1-10.112-2.562l-84.241-48.724c-2.981-1.725-4.691-4.086-4.691-6.483,0-2.053,1.233-3.9,3.475-5.191l161.075-93.167c4.717-2.723,12.64-2.415,18.037.707l84.241,48.724c2.981,1.721,4.691,4.084,4.691,6.477,0,2.055-1.231,3.9-3.473,5.2L398.412,404.179A16.073,16.073,0,0,1,390.488,406.039ZM463.9,250.223a13.871,13.871,0,0,0-6.811,1.563L296.011,344.953c-1.092.631-2.391,1.717-2.391,3.319s1.314,3.282,3.607,4.606L381.468,401.6c4.706,2.723,11.816,3.037,15.852.7L558.4,309.139c1.09-.631,2.391-1.719,2.391-3.319s-1.316-3.28-3.609-4.6l-84.241-48.724A18.548,18.548,0,0,0,463.9,250.223Z" transform="translate(-291.444 -248.056)" fill="#fff"/>
      </g>
      <g id="Groupe_1908" data-name="Groupe 1908" transform="translate(56.573 46.215)">
        <path id="Tracé_19022" data-name="Tracé 19022" d="M329.088,305.874l-2.415,1.4-4.691-2.71c-.57-.332-1.075-.64-1.526-.926a2.361,2.361,0,0,1,.017.65l-.169,1.058-2.762-.169.544-3.182,2.142-1.24Z" transform="translate(-317.543 -232.743)" fill="#fff"/>
        <path id="Tracé_19023" data-name="Tracé 19023" d="M334.27,303.189l-6.388,3.689-1.576-.908-.037-2.506A11.943,11.943,0,0,0,326.15,302a1.585,1.585,0,0,0-.217-.579,1.24,1.24,0,0,0-.421-.375,1.427,1.427,0,0,0-.765-.184,1.775,1.775,0,0,0-.83.247,1.434,1.434,0,0,0-.6.624,3.093,3.093,0,0,0-.256.965l-2.846-.134a3.708,3.708,0,0,1,.267-1.168,2.892,2.892,0,0,1,.609-.817,5.6,5.6,0,0,1,1.084-.789,6.321,6.321,0,0,1,1.83-.707,5.637,5.637,0,0,1,1.907-.1,4.16,4.16,0,0,1,1.624.514,3.508,3.508,0,0,1,.835.631,2.209,2.209,0,0,1,.468.733,2.886,2.886,0,0,1,.178.934,19.348,19.348,0,0,1-.115,2.142c.061.039,3.39-1.888,3.39-1.888Z" transform="translate(-314.418 -234.858)" fill="#fff"/>
        <path id="Tracé_19024" data-name="Tracé 19024" d="M330.562,297.441a1.618,1.618,0,0,1,.915,1.108,1.641,1.641,0,0,1-.587,1.333,4.652,4.652,0,0,1,4.335-.043q1.236.715.971,1.684c-.178.648-.839,1.309-1.99,1.973a11.341,11.341,0,0,1-1.42.7,12.711,12.711,0,0,1-1.684.54l-1.988-1.149a10.429,10.429,0,0,0,1.619-.427,7.751,7.751,0,0,0,1.244-.557,2.1,2.1,0,0,0,.919-.789c.091-.219-.019-.423-.336-.6a1.509,1.509,0,0,0-.746-.217,2.729,2.729,0,0,0-.9.173,7.389,7.389,0,0,0-1.184.572l-.542.314-1.8-1.043.553-.321q1.811-1.047.88-1.589a1.233,1.233,0,0,0-.789-.143,2.4,2.4,0,0,0-.889.319,2.631,2.631,0,0,0-1.177,1.337l-2.584-.353a3.02,3.02,0,0,1,.737-1.227,6.642,6.642,0,0,1,1.472-1.088,6.739,6.739,0,0,1,2.688-.926A3.691,3.691,0,0,1,330.562,297.441Z" transform="translate(-310.719 -237.131)" fill="#fff"/>
        <path id="Tracé_19025" data-name="Tracé 19025" d="M338.256,298.435l-.969.561,1.715.991-2.348,1.355-1.715-.991-3.509,2.033-1.754-1.017-1.728-5.233,2.2-1.27,5.354,3.1.969-.559Zm-5.1.884-1.027-.6c-.2-.108-.451-.267-.763-.464s-.479-.306-.486-.319c.108.3.245.555.34.813l.486,1.4Z" transform="translate(-305.393 -239.616)" fill="#fff"/>
        <path id="Tracé_19026" data-name="Tracé 19026" d="M335.047,298.38a7.186,7.186,0,0,1-2.473-2.04,1.75,1.75,0,0,1-.141-1.875,5.01,5.01,0,0,1,1.983-1.782,13.863,13.863,0,0,1,1.359-.665l1.871,1.084a10.306,10.306,0,0,0-1.422.689c-.793.457-1.21.9-1.249,1.333s.323.882,1.082,1.361c-.251-.644-.015-1.179.785-1.641a4.6,4.6,0,0,1,2.577-.616,6.058,6.058,0,0,1,2.764.852q1.46.842,1.489,1.806c.015.644-.464,1.244-1.444,1.812a6.233,6.233,0,0,1-3.457.822A8.048,8.048,0,0,1,335.047,298.38Zm5.23-.748c.251-.145.362-.319.327-.522s-.256-.425-.676-.668a1.821,1.821,0,0,0-1.912-.145c-.271.158-.4.34-.384.546a.718.718,0,0,0,.423.542,3.054,3.054,0,0,0,1.2.408A1.614,1.614,0,0,0,340.278,297.632Z" transform="translate(-300.402 -242.941)" fill="#fff"/>
        <path id="Tracé_19027" data-name="Tracé 19027" d="M344.161,298.288l-3.843-5.714-3.811,2.2-1.979-1.147,6.349-3.674,1.411.817,4.335,6.091Z" transform="translate(-297.711 -245.346)" fill="#fff"/>
        <path id="Tracé_19028" data-name="Tracé 19028" d="M347.489,289.794q2.6,1.5,2.644,2.818t-2.4,2.736a12.417,12.417,0,0,1-1.29.676l-1.895-1.1a8.336,8.336,0,0,0,1.134-.542q1.274-.738,1.435-1.446c.108-.468-.2-.939-.919-1.4a2.372,2.372,0,0,1,.093.672.942.942,0,0,1-.264.5,3.025,3.025,0,0,1-.722.535,4.52,4.52,0,0,1-2.556.59,6.134,6.134,0,0,1-2.764-.854c-.98-.568-1.474-1.173-1.474-1.816s.481-1.244,1.448-1.806a6.266,6.266,0,0,1,3.577-.819A8.881,8.881,0,0,1,347.489,289.794Zm-5.545.629c-.262.154-.382.33-.353.531s.254.429.672.672a2.406,2.406,0,0,0,1,.334,1.526,1.526,0,0,0,.939-.2.665.665,0,0,0,.4-.559.649.649,0,0,0-.395-.561,3,3,0,0,0-1.2-.384A1.751,1.751,0,0,0,341.944,290.423Z" transform="translate(-293.058 -247.022)" fill="#fff"/>
        <path id="Tracé_19029" data-name="Tracé 19029" d="M343.478,287.425a6.655,6.655,0,0,1,2.727-.923,3.887,3.887,0,0,1,2.371.477,1.751,1.751,0,0,1,.871.923,1.485,1.485,0,0,1-.23,1.2,10.4,10.4,0,0,1,2.486-.156,3.986,3.986,0,0,1,1.6.462q1.18.686.98,1.55t-1.723,1.749a7.131,7.131,0,0,1-3.013,1.006,4.481,4.481,0,0,1-2.642-.574,1.939,1.939,0,0,1-.943-.969,1.609,1.609,0,0,1,.247-1.285,7.924,7.924,0,0,1-2.031,0,4.179,4.179,0,0,1-1.515-.5c-.678-.392-.941-.85-.8-1.372A3.189,3.189,0,0,1,343.478,287.425Zm1.715,1.006a.6.6,0,0,0-.338.4c-.024.152.063.28.251.388a2.53,2.53,0,0,0,1.626.128,1.018,1.018,0,0,0,.13-.6.587.587,0,0,0-.312-.36,1.18,1.18,0,0,0-.676-.15A1.475,1.475,0,0,0,345.192,288.431Zm3.791,3.39a1.533,1.533,0,0,0,.867.2,2.059,2.059,0,0,0,.962-.293c.709-.407.8-.763.28-1.066a1.91,1.91,0,0,0-.817-.2,7.759,7.759,0,0,0-1.474.1,1.25,1.25,0,0,0-.193.776A.7.7,0,0,0,348.983,291.821Z" transform="translate(-289.189 -249.407)" fill="#fff"/>
        <path id="Tracé_19030" data-name="Tracé 19030" d="M352.264,286.482a4.953,4.953,0,0,1,1.725-.585,5.843,5.843,0,0,1,1.951.028,5.631,5.631,0,0,1,1.838.668c.991.577,1.452,1.186,1.389,1.834s-.694,1.32-1.895,2.014a9.784,9.784,0,0,1-3,1.177l-1.962-1.134a12.735,12.735,0,0,0,1.585-.453,7.934,7.934,0,0,0,1.292-.568q.66-.38.735-.748c.048-.247-.111-.475-.479-.689a2,2,0,0,0-1.153-.251,3.293,3.293,0,0,0-1.381.47,3.89,3.89,0,0,0-1,.824l-1.309.251-4.346-2.9,5.02-2.9,1.994,1.155-3,1.732,1.06.741a4.821,4.821,0,0,1,.568-.446C352.03,286.621,352.151,286.549,352.264,286.482Z" transform="translate(-284.01 -252.864)" fill="#fff"/>
        <path id="Tracé_19031" data-name="Tracé 19031" d="M363.882,286.057l-6.386,3.7-1.576-.91-.039-2.508a12.3,12.3,0,0,0-.119-1.461,1.48,1.48,0,0,0-.217-.581,1.267,1.267,0,0,0-.418-.373,1.443,1.443,0,0,0-.769-.186,1.756,1.756,0,0,0-.826.245,1.437,1.437,0,0,0-.6.629,3.064,3.064,0,0,0-.256.96l-2.846-.137a3.63,3.63,0,0,1,.269-1.166,2.778,2.778,0,0,1,.607-.815,5.342,5.342,0,0,1,1.084-.789,6.3,6.3,0,0,1,1.83-.707,5.8,5.8,0,0,1,1.905-.1,4.161,4.161,0,0,1,1.626.514,3.614,3.614,0,0,1,.834.631,2.207,2.207,0,0,1,.468.735,2.981,2.981,0,0,1,.18.936,19.727,19.727,0,0,1-.119,2.142c.063.035,3.39-1.89,3.39-1.89Z" transform="translate(-279.842 -254.856)" fill="#fff"/>
        <path id="Tracé_19032" data-name="Tracé 19032" d="M360.175,280.313a1.376,1.376,0,0,1,.327,2.439,4.664,4.664,0,0,1,4.335-.041q1.236.715.971,1.686t-1.988,1.973a11.763,11.763,0,0,1-1.42.7,12.733,12.733,0,0,1-1.686.542l-1.986-1.151a10.373,10.373,0,0,0,1.615-.425,7.54,7.54,0,0,0,1.249-.557,2.144,2.144,0,0,0,.919-.787c.089-.223-.024-.427-.338-.609a1.517,1.517,0,0,0-.746-.217,2.747,2.747,0,0,0-.9.178,7.442,7.442,0,0,0-1.183.57l-.542.31-1.8-1.036.555-.323c1.205-.7,1.5-1.227.878-1.587a1.2,1.2,0,0,0-.787-.145,2.374,2.374,0,0,0-.891.316,2.631,2.631,0,0,0-1.175,1.34L353,283.131a3.044,3.044,0,0,1,.739-1.223,6.594,6.594,0,0,1,1.472-1.092,6.745,6.745,0,0,1,2.688-.923A3.707,3.707,0,0,1,360.175,280.313Z" transform="translate(-276.145 -257.129)" fill="#fff"/>
        <path id="Tracé_19033" data-name="Tracé 19033" d="M368.693,282.964l-2.413,1.4-4.691-2.71c-.568-.329-1.077-.64-1.524-.928a2.484,2.484,0,0,1,.013.652l-.167,1.056-2.759-.167.542-3.182,2.144-1.238Z" transform="translate(-271.293 -259.491)" fill="#fff"/>
        <path id="Tracé_19034" data-name="Tracé 19034" d="M373.5,280.184l-2.415,1.4-4.691-2.714c-.568-.327-1.077-.635-1.524-.921a2.522,2.522,0,0,1,.015.648l-.169,1.058-2.759-.169.542-3.18,2.144-1.24Z" transform="translate(-265.678 -262.739)" fill="#fff"/>
        <path id="Tracé_19035" data-name="Tracé 19035" d="M370.4,275.992a4.907,4.907,0,0,1,1.725-.587,5.858,5.858,0,0,1,1.953.028,5.629,5.629,0,0,1,1.834.67q1.486.858,1.392,1.832t-1.892,2.014a9.881,9.881,0,0,1-3,1.179l-1.962-1.138a12.615,12.615,0,0,0,1.585-.451,8.066,8.066,0,0,0,1.292-.566c.442-.256.685-.505.735-.75s-.111-.475-.479-.687a2.017,2.017,0,0,0-1.153-.254,3.225,3.225,0,0,0-1.379.47,3.988,3.988,0,0,0-1,.824l-1.309.251-4.346-2.9,5.02-2.9,1.994,1.153-3,1.734,1.06.737a5.055,5.055,0,0,1,.572-.444C370.17,276.129,370.289,276.055,370.4,275.992Z" transform="translate(-262.831 -265.113)" fill="#fff"/>
        <path id="Tracé_19036" data-name="Tracé 19036" d="M382.018,275.568l-6.386,3.7-1.576-.91-.037-2.508a12.721,12.721,0,0,0-.121-1.463,1.581,1.581,0,0,0-.215-.581,1.226,1.226,0,0,0-.42-.371,1.423,1.423,0,0,0-.77-.186,1.747,1.747,0,0,0-.828.245,1.459,1.459,0,0,0-.6.624,3.174,3.174,0,0,0-.256.962l-2.844-.134a3.565,3.565,0,0,1,.267-1.166,2.786,2.786,0,0,1,.609-.815,5.257,5.257,0,0,1,1.082-.791,6.455,6.455,0,0,1,1.83-.709,5.741,5.741,0,0,1,1.905-.1,4.2,4.2,0,0,1,1.628.512,3.663,3.663,0,0,1,.832.631,2.217,2.217,0,0,1,.468.737,2.91,2.91,0,0,1,.18.934,19.214,19.214,0,0,1-.119,2.142c.063.035,3.392-1.89,3.392-1.89Z" transform="translate(-258.663 -267.106)" fill="#fff"/>
        <path id="Tracé_19037" data-name="Tracé 19037" d="M378.313,269.821a1.378,1.378,0,0,1,.329,2.439,4.654,4.654,0,0,1,4.333-.041q1.236.715.971,1.689t-1.99,1.973a11.922,11.922,0,0,1-1.42.7,12.922,12.922,0,0,1-1.684.542l-1.986-1.151a10.364,10.364,0,0,0,1.615-.427,7.733,7.733,0,0,0,1.249-.555,2.116,2.116,0,0,0,.919-.789c.089-.223-.024-.427-.338-.609a1.505,1.505,0,0,0-.743-.215,2.693,2.693,0,0,0-.9.178,7.193,7.193,0,0,0-1.184.566l-.542.314-1.8-1.04.555-.319c1.205-.7,1.5-1.227.878-1.587a1.2,1.2,0,0,0-.787-.147,2.37,2.37,0,0,0-.891.319,2.638,2.638,0,0,0-1.177,1.34l-2.586-.355a3.074,3.074,0,0,1,.739-1.227,7.639,7.639,0,0,1,4.158-2.012A3.71,3.71,0,0,1,378.313,269.821Z" transform="translate(-254.966 -269.377)" fill="#fff"/>
      </g>
      <g id="Groupe_1909" data-name="Groupe 1909" transform="translate(95.562 97.434)">
        <path id="Tracé_19038" data-name="Tracé 19038" d="M342.518,315.2l-6.988-4.043L337,310.3l5.768,3.336,2.818-1.63,1.223.713Z" transform="translate(-335.53 -272.811)" fill="#fff"/>
        <path id="Tracé_19039" data-name="Tracé 19039" d="M347.125,309.046c1.157.668,1.764,1.35,1.814,2.04s-.457,1.34-1.522,1.955a6.32,6.32,0,0,1-3.381.88,7.362,7.362,0,0,1-3.535-1.054q-1.743-1.011-1.808-2.04t1.541-1.955a6.3,6.3,0,0,1,3.377-.88A7.368,7.368,0,0,1,347.125,309.046Zm-5.07,2.933a5.362,5.362,0,0,0,2.207.765,3.2,3.2,0,0,0,1.914-.423q1.762-1.015-.594-2.382t-4.116-.351c-.583.338-.828.711-.731,1.112S341.275,311.525,342.055,311.978Z" transform="translate(-331.839 -275.51)" fill="#fff"/>
        <path id="Tracé_19040" data-name="Tracé 19040" d="M347.42,309.932l2.681,1.55-1.472.85-6.991-4.043,2.022-1.17a6.294,6.294,0,0,1,2.616-.91,3.808,3.808,0,0,1,2.257.52,1.5,1.5,0,0,1,.759.828,1.146,1.146,0,0,1-.2.986q3.925.459,5.085.581l-1.634.945-4.34-.592Zm-1.207-.7.477-.275c.466-.271.733-.512.8-.733s-.069-.423-.4-.618a1.6,1.6,0,0,0-1.047-.212,3.575,3.575,0,0,0-1.266.488l-.447.258Z" transform="translate(-328.397 -277.604)" fill="#fff"/>
        <path id="Tracé_19041" data-name="Tracé 19041" d="M355.593,308.424l-4,2.315-6.991-4.045,4-2.313,1.212.7-2.527,1.459,1.537.889,2.35-1.359,1.216.7-2.352,1.361,1.8,1.04,2.527-1.461Z" transform="translate(-324.936 -279.724)" fill="#fff"/>
        <path id="Tracé_19042" data-name="Tracé 19042" d="M357.048,308.65l-7.155-2.207c1.132.635,1.905,1.051,2.278,1.266l3.251,1.879-1.316.763-6.988-4.045,2-1.158,6.991,2.139c.028-.017-3.572-4.116-3.572-4.116l2.005-1.16,6.991,4.043-1.374.8-3.308-1.914c-.158-.093-.334-.2-.531-.316s-.722-.449-1.565-.978c-.041.024,3.642,4.225,3.642,4.225Z" transform="translate(-322 -282.489)" fill="#fff"/>
        <path id="Tracé_19043" data-name="Tracé 19043" d="M359.508,305.375l-6.991-4.045,1.472-.852,6.991,4.043Z" transform="translate(-315.695 -284.281)" fill="#fff"/>
        <path id="Tracé_19044" data-name="Tracé 19044" d="M360.981,299.621c.752.434,1.095.9,1.025,1.4s-.531,1-1.394,1.5l-.633.366,2.486,1.435-1.474.854L354,301.134l2.22-1.283a5.539,5.539,0,0,1,2.469-.8A4.082,4.082,0,0,1,360.981,299.621Zm-2.213,2.566.486-.282c.451-.26.7-.509.743-.746s-.1-.449-.449-.648a1.937,1.937,0,0,0-1.053-.284,2.486,2.486,0,0,0-1.136.371l-.668.388Z" transform="translate(-313.96 -285.949)" fill="#fff"/>
        <path id="Tracé_19045" data-name="Tracé 19045" d="M365.594,300.075c.633.364.9.785.815,1.253s-.535.941-1.337,1.407a7.727,7.727,0,0,1-2.391.9l-1.376-.8a16.32,16.32,0,0,0,1.639-.431,5.511,5.511,0,0,0,1.017-.44c.323-.186.509-.366.557-.54s-.05-.327-.295-.468a1.162,1.162,0,0,0-.481-.145,3.1,3.1,0,0,0-.642.013q-.371.046-1.374.249a10.224,10.224,0,0,1-1.535.217,5.066,5.066,0,0,1-1.153-.078,3.312,3.312,0,0,1-1.049-.388c-.62-.36-.9-.761-.835-1.207s.462-.88,1.2-1.3a6.215,6.215,0,0,1,1.164-.522c.412-.141.878-.267,1.389-.386l.678.945a11.969,11.969,0,0,0-1.24.342,4.577,4.577,0,0,0-.806.364c-.28.16-.427.321-.447.481s.078.306.288.427a1.179,1.179,0,0,0,.434.145,2.29,2.29,0,0,0,.57,0c.223-.024.7-.111,1.422-.256a8.834,8.834,0,0,1,2.276-.23A3.578,3.578,0,0,1,365.594,300.075Z" transform="translate(-310.291 -287.876)" fill="#fff"/>
        <path id="Tracé_19046" data-name="Tracé 19046" d="M364.976,295.441l4.524,2.618a2.288,2.288,0,0,1,1.01.984,1.108,1.108,0,0,1-.1,1.093,3.385,3.385,0,0,1-1.229,1.071,5.708,5.708,0,0,1-2.77.8,4.991,4.991,0,0,1-2.634-.663l-4.5-2.608,1.47-.848,4.279,2.475a3.411,3.411,0,0,0,1.511.5,2.649,2.649,0,0,0,1.444-.4c.483-.277.7-.553.668-.824s-.325-.568-.865-.882l-4.27-2.467Z" transform="translate(-307.807 -290.163)" fill="#fff"/>
        <path id="Tracé_19047" data-name="Tracé 19047" d="M372.619,299.643l-7.155-2.2c1.134.633,1.905,1.047,2.28,1.264l3.249,1.879-1.314.761-6.991-4.043,2-1.16,6.991,2.142c.03-.015-3.572-4.119-3.572-4.119l2.007-1.16,6.988,4.043-1.374.8-3.308-1.912c-.158-.093-.334-.2-.531-.319s-.72-.447-1.563-.978c-.043.026,3.64,4.229,3.64,4.229Z" transform="translate(-303.818 -293.006)" fill="#fff"/>
      </g>
      <g id="Groupe_1910" data-name="Groupe 1910" transform="translate(177.629 74.479)">
        <path id="Tracé_19048" data-name="Tracé 19048" d="M382.032,292.126l-1.47.85-4.047-2.339-.65-.395-.7-.434a4.112,4.112,0,0,1-.026.577l-.152.832-1.6-.106.442-2.332,1.207-.7Z" transform="translate(-373.39 -275.801)" fill="#fff"/>
        <path id="Tracé_19049" data-name="Tracé 19049" d="M384.594,290.644l-1.468.85-4.047-2.339-.652-.395-.7-.434a3.475,3.475,0,0,1-.026.574l-.152.835-1.6-.106.444-2.332,1.207-.7Z" transform="translate(-370.399 -277.532)" fill="#fff"/>
        <path id="Tracé_19050" data-name="Tracé 19050" d="M379.962,285.131l4.4,5.54-1.316.761-4.4-5.54Z" transform="translate(-367.251 -279.246)" fill="#fff"/>
        <path id="Tracé_19051" data-name="Tracé 19051" d="M390.83,287.383l-4.855,2.8-1.032-.592-.026-2.035a7.717,7.717,0,0,0-.1-1.227,1.377,1.377,0,0,0-.228-.527,1.426,1.426,0,0,0-.442-.377,1.609,1.609,0,0,0-.856-.228,1.722,1.722,0,0,0-.819.236,1.582,1.582,0,0,0-.6.561,2.135,2.135,0,0,0-.262.763l-1.751-.087a2.747,2.747,0,0,1,.23-.85,2.135,2.135,0,0,1,.457-.587,4.205,4.205,0,0,1,.791-.574,4.731,4.731,0,0,1,1.392-.529,4.5,4.5,0,0,1,1.441-.061,3.419,3.419,0,0,1,1.264.412,2.38,2.38,0,0,1,.737.622,1.958,1.958,0,0,1,.347.8,5.965,5.965,0,0,1,.017,1.454l-.046,1.006c.065.037,3.093-1.71,3.093-1.71Z" transform="translate(-365.833 -280.516)" fill="#fff"/>
        <path id="Tracé_19052" data-name="Tracé 19052" d="M391.052,285.139l-.837.486,1.45.839-1.435.83-1.45-.839-2.965,1.715-1.025-.6-1.467-4.374,1.353-.783,4.4,2.545.837-.486Zm-3.418.65-1.186-.685c-.2-.115-.477-.284-.837-.512s-.568-.36-.62-.4c.111.245.221.47.308.711l.663,1.858Z" transform="translate(-361.793 -282.416)" fill="#fff"/>
      </g>
      <g id="Groupe_1913" data-name="Groupe 1913" transform="translate(181.034 24.92)">
        <g id="Groupe_1911" data-name="Groupe 1911">
          <path id="Tracé_19053" data-name="Tracé 19053" d="M376.956,274.1l17.861-10.331a7.9,7.9,0,0,1,7.114-.3l11.515,6.661a3.062,3.062,0,0,1,.618.477,2.3,2.3,0,0,0,.711-1.491,2.079,2.079,0,0,0-1.21-1.816l-11.517-6.661a7.89,7.89,0,0,0-7.114.295l-17.861,10.331c-1.337.774-1.912,1.8-1.689,2.716a1.968,1.968,0,0,0,.546.91A4.537,4.537,0,0,1,376.956,274.1Z" transform="translate(-374.521 -259.115)" fill="#01e3a6"/>
          <path id="Tracé_19054" data-name="Tracé 19054" d="M376.37,276.142a.817.817,0,0,1-.577-.238,2.715,2.715,0,0,1-.761-1.292c-.323-1.322.451-2.673,2.07-3.609l17.861-10.331a8.681,8.681,0,0,1,7.936-.295l11.514,6.659a2.883,2.883,0,0,1,1.617,2.534,3.094,3.094,0,0,1-.932,2.033.816.816,0,0,1-.581.258.643.643,0,0,1-.594-.236,1.972,1.972,0,0,0-.447-.347l-11.519-6.663a7.111,7.111,0,0,0-6.295.295L377.805,275.24a3.711,3.711,0,0,0-.841.648A.955.955,0,0,1,376.37,276.142Zm23.038-14.961a7.5,7.5,0,0,0-3.624.9l-17.861,10.331c-.867.5-1.357,1.129-1.327,1.671.124-.085.254-.167.39-.245L394.847,263.5a8.675,8.675,0,0,1,7.934-.293l11.514,6.659a.561.561,0,0,0,.1-.325,1.371,1.371,0,0,0-.8-1.1l-11.517-6.659A5.47,5.47,0,0,0,399.408,261.181Z" transform="translate(-374.961 -259.553)" fill="#fff"/>
        </g>
        <g id="Groupe_1912" data-name="Groupe 1912" transform="translate(0.595 2.832)">
          <path id="Tracé_19055" data-name="Tracé 19055" d="M387.758,280.516a7.89,7.89,0,0,0,7.114-.295l17.861-10.331a4.263,4.263,0,0,0,1.01-.806,3.062,3.062,0,0,0-.618-.477l-11.514-6.661a7.9,7.9,0,0,0-7.114.3l-17.861,10.331a4.537,4.537,0,0,0-1.025.793,3.133,3.133,0,0,0,.631.49Z" transform="translate(-374.796 -260.421)" fill="#01e3a6"/>
          <path id="Tracé_19056" data-name="Tracé 19056" d="M391.295,282.483a7.1,7.1,0,0,1-3.507-.826L376.271,275a3.767,3.767,0,0,1-.8-.62.81.81,0,0,1-.013-1.129,5.4,5.4,0,0,1,1.207-.939l17.861-10.331a8.675,8.675,0,0,1,7.934-.293l11.514,6.659a3.89,3.89,0,0,1,.787.6.813.813,0,0,1,.017,1.132,5.234,5.234,0,0,1-1.194.952l-17.863,10.331A9.051,9.051,0,0,1,391.295,282.483Zm-13.9-8.716,11.213,6.486a7.119,7.119,0,0,0,6.295-.295l17.861-10.331c.089-.052-11.124-6.538-11.124-6.538a7.111,7.111,0,0,0-6.295.295l-17.859,10.331C377.454,273.73,377.424,273.749,377.394,273.767Z" transform="translate(-375.235 -260.859)" fill="#fff"/>
        </g>
      </g>
    </g>
    <path id="Tracé_19057" data-name="Tracé 19057" d="M535.966,322.658c-.127-.024-.241-.073-.366-.1a16.235,16.235,0,0,1-1.858-.509,12.307,12.307,0,0,1-1.975-.9L366.337,225.46c-2.327-1.344-3.367-3.17-3.259-5.061-.125,0-.125,20.809-.125,20.809.065,1.859,1.284,3.725,3.744,5.147L531.49,341.671a18.342,18.342,0,0,0,9.469,2.089l-.06-20.728A21.155,21.155,0,0,1,535.966,322.658Z" transform="translate(-32.614 3843.977)" fill="#01e3a6"/>
    <path id="Tracé_19058" data-name="Tracé 19058" d="M540.945,345.4a18.834,18.834,0,0,1-9.322-2.238L366.829,247.85c-2.658-1.536-4.169-3.666-4.253-5.99V221.015a1.107,1.107,0,0,1,1.823-.7,1.077,1.077,0,0,1,.341.756c-.092,1.6.859,3.032,2.75,4.123l165.432,95.686a11.375,11.375,0,0,0,1.81.826,15.858,15.858,0,0,0,1.739.477c.022.005.233.062.257.068l-.119,1.021.2-.994a20.031,20.031,0,0,0,4.692.352,1.046,1.046,0,0,1,.742.284,1.007,1.007,0,0,1,.314.729l.06,20.728a1.017,1.017,0,0,1-.989,1.019C541.4,345.4,541.172,345.4,540.945,345.4ZM364.616,225.572v16.253c.057,1.566,1.208,3.094,3.237,4.27l164.793,95.315a16.851,16.851,0,0,0,7.935,1.956l-.057-18.685a21.371,21.371,0,0,1-4.121-.412c-.035-.005-.249-.065-.282-.073a19.354,19.354,0,0,1-2.078-.574,13.1,13.1,0,0,1-2.143-.983L366.466,226.953A9.35,9.35,0,0,1,364.616,225.572Z" transform="translate(-33.259 3843.361)" fill="#fff"/>
    <path id="Tracé_19059" data-name="Tracé 19059" d="M509.139,245.352,438.6,286.15a17.9,17.9,0,0,1-2.268,1.1c-.1.041-.211.065-.311.1a21.283,21.283,0,0,1-2.165.715,24.359,24.359,0,0,1-5.226.767l.06,20.728a17.566,17.566,0,0,0,8.138-2.056l73.105-42.285c2.5-1.441,3.676-3.349,3.592-5.242.038,0,.038-19.569.038-19.569C513.065,242.166,511.618,243.919,509.139,245.352Z" transform="translate(79.649 3878.176)" fill="#01e3a6"/>
    <path id="Tracé_19060" data-name="Tracé 19060" d="M429.339,311.219a1.033,1.033,0,0,1-.71-.285,1.012,1.012,0,0,1-.309-.729l-.062-20.728a1.019,1.019,0,0,1,.983-1.019,23.2,23.2,0,0,0,5.009-.734c.7-.187,1.382-.423,2.053-.677l.672.843-.382-.94a16.928,16.928,0,0,0,2.143-1.035l70.534-40.8a8.045,8.045,0,0,0,3.961-4.346,1.006,1.006,0,0,1,1.122-.729,1.018,1.018,0,0,1,.878,1.008c0,12.95,0,17.753-.263,19.536l.225-.011c.106,2.384-1.352,4.576-4.1,6.163l-73.105,42.285a18.612,18.612,0,0,1-8.621,2.195Zm.962-20.785.054,18.7a15.9,15.9,0,0,0,6.61-1.867l73.105-42.285c2.059-1.189,3.154-2.723,3.086-4.316.024-.778.035-8.978.038-16.006a13.152,13.152,0,0,1-2.9,2.213l-70.534,40.8a18.914,18.914,0,0,1-2.4,1.16c-.027.011-.219.076-.244.084-.818.309-1.574.566-2.349.775A25.658,25.658,0,0,1,430.3,290.434Z" transform="translate(79.005 3877.534)" fill="#fff"/>
    <path id="Tracé_19061" data-name="Tracé 19061" d="M609.048,288.267l-59.5,34.415c-3.622,2.094-9.1,2.322-12.24.507l-66.565-38.5c9.23.523,20.146-1.1,30.823-4.646l-6.31-3.649c-12.129,3.094-24.115,2.934-31.137-1.127s-7.3-10.994-1.951-18.008l-5.884-3.405c-6.12,6.166-8.951,12.479-8.057,17.813l-66.018-38.186c-3.137-1.812-2.744-4.982.878-7.079l12.866-7.442-8.607-4.977-19.709,11.4c-2.969,1.718-4.508,3.893-4.63,5.987-.108,1.891.932,3.717,3.259,5.061l165.43,95.684a12.305,12.305,0,0,0,1.975.9,16.235,16.235,0,0,0,1.858.509c.125.027.239.073.366.1a21.153,21.153,0,0,0,4.933.374,23.894,23.894,0,0,0,5.137-.748,20.585,20.585,0,0,0,2.254-.734c.1-.038.211-.062.311-.1a17.887,17.887,0,0,0,2.268-1.1l70.534-40.8c2.479-1.433,3.926-3.186,4.429-4.944.642-2.254-.306-4.514-3.059-6.1l-4.814-2.785L610,281.245C613.044,283.068,612.635,286.192,609.048,288.267Z" transform="translate(-32.541 3833.007)" fill="#01e3a6"/>
    <path id="Tracé_19062" data-name="Tracé 19062" d="M540.6,335.675a21.453,21.453,0,0,1-4.275-.412c-.033,0-.249-.062-.282-.073a19.361,19.361,0,0,1-2.078-.574,13.1,13.1,0,0,1-2.143-.983L366.392,237.948c-2.563-1.485-3.9-3.614-3.763-6,.152-2.56,1.972-4.977,5.137-6.808l19.71-11.4a1.018,1.018,0,0,1,1.024,0l8.607,4.977a1.016,1.016,0,0,1,0,1.758l-12.866,7.442c-1.582.916-2.49,2.054-2.49,3.124a2.76,2.76,0,0,0,1.612,2.2l64.33,37.206c-.043-5.2,2.918-11.035,8.507-16.667a1.016,1.016,0,0,1,1.235-.165l5.887,3.405a1.012,1.012,0,0,1,.3,1.49c-2.8,3.671-3.95,7.225-3.335,10.287.507,2.514,2.184,4.611,4.985,6.231,6.486,3.752,18.13,4.142,30.37,1.021a1.03,1.03,0,0,1,.767.106l6.31,3.649a1.013,1.013,0,0,1-.19,1.842,90.481,90.481,0,0,1-27.2,4.79l63.13,36.515c2.8,1.62,7.932,1.39,11.213-.507l59.5-34.415c1.569-.908,2.473-2.04,2.482-3.1a2.7,2.7,0,0,0-1.536-2.17,1.013,1.013,0,0,1,.013-1.747l7.881-4.557a1.031,1.031,0,0,1,1.024,0l4.817,2.785c3,1.739,4.324,4.454,3.522,7.258-.6,2.127-2.3,4.045-4.9,5.546l-70.534,40.8a18.914,18.914,0,0,1-2.4,1.16c-.027.011-.219.076-.244.084a23.254,23.254,0,0,1-2.446.794,24.538,24.538,0,0,1-5.359.783C541.2,335.669,540.9,335.675,540.6,335.675ZM387.987,215.8l-19.2,11.1c-2.514,1.455-4.018,3.338-4.123,5.169-.092,1.6.859,3.029,2.75,4.121l165.432,95.686a11.38,11.38,0,0,0,1.81.826,15.859,15.859,0,0,0,1.739.477c.022.005.233.062.257.068a19.273,19.273,0,0,0,4.776.379,22.518,22.518,0,0,0,4.917-.715,20.785,20.785,0,0,0,2.146-.7l.672.843-.382-.94a16.933,16.933,0,0,0,2.143-1.035l70.534-40.8a8.045,8.045,0,0,0,3.961-4.346c.545-1.91-.374-3.665-2.587-4.947l-4.3-2.487-6.077,3.511a4.1,4.1,0,0,1,1.246,2.929c-.016,1.8-1.29,3.563-3.5,4.841L550.7,324.2c-3.966,2.295-9.791,2.52-13.262.509l-66.571-38.5a1.016,1.016,0,0,1-.463-1.17.974.974,0,0,1,1.035-.723c8.515.5,18.469-.9,28.268-3.9l-3.964-2.295c-12.782,3.189-24.532,2.7-31.5-1.336-3.278-1.9-5.34-4.519-5.958-7.586-.677-3.376.368-7.158,3.032-10.986l-4.218-2.444c-5.478,5.719-8.041,11.511-7.225,16.369a1.011,1.011,0,0,1-.428,1,1.025,1.025,0,0,1-1.092.043L382.338,235a4.635,4.635,0,0,1-2.628-3.955c0-1.815,1.279-3.6,3.5-4.882l11.349-6.564Z" transform="translate(-33.185 3832.366)" fill="#fff"/>
    <path id="Tracé_19063" data-name="Tracé 19063" d="M372.3,223.26c-3.622,2.1-4.015,5.267-.878,7.079l66.018,38.186c-.894-5.334,1.937-11.647,8.057-17.813l-60.331-34.895Zm16.884,7.559a10.988,10.988,0,0,1-9.954-.016c-2.755-1.6-2.769-4.172-.03-5.757a10.988,10.988,0,0,1,9.954.016C391.91,226.658,391.924,229.234,389.185,230.819Z" transform="translate(-21.758 3836.147)" fill="#01e3a6"/>
    <path id="Tracé_19064" data-name="Tracé 19064" d="M438.089,270.181a1.033,1.033,0,0,1-.515-.138L371.556,231.86a4.635,4.635,0,0,1-2.628-3.955c0-1.815,1.279-3.592,3.5-4.882L385.3,215.58a1.031,1.031,0,0,1,1.024,0l60.329,34.895a1.011,1.011,0,0,1,.214,1.593c-5.855,5.9-8.615,11.912-7.773,16.93a1.023,1.023,0,0,1-1.005,1.184Zm-52.277-52.548-12.354,7.147c-1.582.916-2.49,2.054-2.49,3.124a2.76,2.76,0,0,0,1.612,2.2l64.33,37.206c-.041-4.909,2.6-10.387,7.6-15.724Zm-.927,16.03a11.247,11.247,0,0,1-5.519-1.344,4.49,4.49,0,0,1-2.587-3.774,4.44,4.44,0,0,1,2.555-3.741,11.944,11.944,0,0,1,10.978.019,4.033,4.033,0,0,1,.032,7.515A11.122,11.122,0,0,1,384.885,233.664Zm-.092-8.141a9.07,9.07,0,0,0-4.435,1.04,2.576,2.576,0,0,0-1.539,1.983,2.632,2.632,0,0,0,1.571,2.018,10.016,10.016,0,0,0,8.927.016,2.58,2.58,0,0,0,1.539-1.983,2.618,2.618,0,0,0-1.569-2.016A9.207,9.207,0,0,0,384.793,225.523Z" transform="translate(-22.402 3835.507)" fill="#fff"/>
    <path id="Tracé_19065" data-name="Tracé 19065" d="M437.481,240.916c.1-.038.211-.062.312-.1C437.692,240.854,437.581,240.878,437.481,240.916Z" transform="translate(94.769 3878.869)" fill="#fdfeff"/>
    <path id="Tracé_19066" data-name="Tracé 19066" d="M438.206,242.5a1.059,1.059,0,0,1-1.016-.666.958.958,0,0,1,.531-1.254l.211-.07a1.1,1.1,0,0,1,1.344.6.957.957,0,0,1-.4,1.208c-.19.079-.331.127-.355.133A1.063,1.063,0,0,1,438.206,242.5Z" transform="translate(94.163 3878.258)" fill="#2474ab"/>
    <path id="Tracé_19067" data-name="Tracé 19067" d="M431.382,240.7a12.186,12.186,0,0,0,1.975.9A12.186,12.186,0,0,1,431.382,240.7Z" transform="translate(84.345 3878.677)" fill="#fdfeff"/>
    <path id="Tracé_19068" data-name="Tracé 19068" d="M434,243.261a1.023,1.023,0,0,1-.344-.06,12.954,12.954,0,0,1-2.091-.948,1.047,1.047,0,0,1-.563-.91,1.02,1.02,0,0,1,1.531-.88,11.181,11.181,0,0,0,1.813.826,1.015,1.015,0,0,1-.344,1.972Z" transform="translate(83.7 3878.036)" fill="#2474ab"/>
    <path id="Tracé_19069" data-name="Tracé 19069" d="M432.793,241.222c.13.03.244.076.377.1C433.037,241.3,432.923,241.252,432.793,241.222Z" transform="translate(86.756 3879.568)" fill="#fdfeff"/>
    <path id="Tracé_19070" data-name="Tracé 19070" d="M433.75,242.978a1.122,1.122,0,0,1-.187-.019c-.033-.008-.276-.07-.312-.081a1.133,1.133,0,0,1-.8-1.032.78.78,0,0,1,.03-.222.96.96,0,0,1,1.121-.753c.027.005.222.06.247.065a1.083,1.083,0,0,1,.878,1.027.975.975,0,0,1-.016.176A.994.994,0,0,1,433.75,242.978Z" transform="translate(86.17 3878.93)" fill="#2474ab"/>
    <path id="Tracé_19071" data-name="Tracé 19071" d="M433.589,238.365c-10.677,3.544-21.592,5.169-30.823,4.646l66.565,38.5c3.137,1.815,8.618,1.588,12.24-.507l59.5-34.415c3.587-2.075,4-5.2.956-7.022l-5.982,3.462a4.252,4.252,0,0,1-1.748,1.753,9.031,9.031,0,0,1-3.029,1.008l-33.648,19.46a17.533,17.533,0,0,1-8.138,2.059,18.346,18.346,0,0,1-9.469-2.089Zm44.174,39.118a10.98,10.98,0,0,1-9.954-.019c-2.758-1.593-2.771-4.169-.03-5.757a10.974,10.974,0,0,1,9.951.019C480.488,273.322,480.5,275.9,477.762,277.483Z" transform="translate(35.434 3874.684)" fill="#01e3a6"/>
    <path id="Tracé_19072" data-name="Tracé 19072" d="M475.307,284.4a11.843,11.843,0,0,1-5.841-1.368L402.9,244.53a1.017,1.017,0,0,1,.572-1.894c9.144.52,19.951-1.111,30.446-4.595a1.019,1.019,0,0,1,.832.087l46.428,26.856a17.492,17.492,0,0,0,8.927,1.951,16.562,16.562,0,0,0,7.656-1.921l33.648-19.46a1.027,1.027,0,0,1,.344-.125,7.838,7.838,0,0,0,2.685-.886,3.235,3.235,0,0,0,1.344-1.322,1.049,1.049,0,0,1,.4-.431l5.982-3.46a1.024,1.024,0,0,1,1.038.008,4.585,4.585,0,0,1,2.525,3.928c-.016,1.8-1.29,3.563-3.5,4.841l-59.5,34.415A15.162,15.162,0,0,1,475.307,284.4ZM407.36,244.76l63.13,36.515c2.8,1.62,7.932,1.39,11.213-.507l59.5-34.415c1.569-.908,2.474-2.04,2.482-3.1a2.363,2.363,0,0,0-1.054-1.84l-5.18,3a5.372,5.372,0,0,1-1.994,1.9,9.775,9.775,0,0,1-3.189,1.1l-33.486,19.371a18.648,18.648,0,0,1-8.626,2.194,19.239,19.239,0,0,1-10.008-2.227l-46.029-26.626A90.2,90.2,0,0,1,407.36,244.76Zm66.1,35.569a11.217,11.217,0,0,1-5.519-1.344,4.487,4.487,0,0,1-2.585-3.774,4.442,4.442,0,0,1,2.552-3.741,11.965,11.965,0,0,1,10.98.019,4.032,4.032,0,0,1,.03,7.515A11.123,11.123,0,0,1,473.459,280.33Zm-.089-8.144a9.107,9.107,0,0,0-4.435,1.04,2.588,2.588,0,0,0-1.542,1.986,2.631,2.631,0,0,0,1.571,2.016,10.016,10.016,0,0,0,8.927.019,2.578,2.578,0,0,0,1.541-1.986,2.632,2.632,0,0,0-1.569-2.016A9.229,9.229,0,0,0,473.37,272.186Z" transform="translate(34.79 3874.043)" fill="#fff"/>
    <path id="Tracé_19073" data-name="Tracé 19073" d="M403.887,247.963c7.022,4.061,19.008,4.221,31.137,1.127l-33.087-19.135C396.591,236.969,396.862,243.9,403.887,247.963Z" transform="translate(27.689 3860.31)" fill="#01e3a6"/>
    <path id="Tracé_19074" data-name="Tracé 19074" d="M419.676,252.9c-6.291,0-11.734-1.149-15.659-3.419-3.278-1.9-5.34-4.519-5.958-7.586-.734-3.649.55-7.77,3.709-11.915a1.021,1.021,0,0,1,1.325-.263l33.087,19.135a1.009,1.009,0,0,1,.5,1.019,1.02,1.02,0,0,1-.756.845A66.629,66.629,0,0,1,419.676,252.9Zm-16.813-20.969c-2.411,3.414-3.378,6.705-2.8,9.563.507,2.514,2.184,4.611,4.985,6.231,6.05,3.5,16.583,4.075,27.9,1.607Z" transform="translate(27.045 3859.669)" fill="#fff"/>
    <path id="Tracé_19075" data-name="Tracé 19075" d="M454.975,240.087l-4.776,2.761a9.031,9.031,0,0,0,3.029-1.008A4.252,4.252,0,0,0,454.975,240.087Z" transform="translate(116.507 3877.627)" fill="#fdfeff"/>
    <path id="Tracé_19076" data-name="Tracé 19076" d="M450.842,244.506a1.015,1.015,0,0,1-.512-1.894l4.776-2.763a1.019,1.019,0,0,1,1.428,1.328,5.234,5.234,0,0,1-2.151,2.184,9.968,9.968,0,0,1-3.373,1.135A1.2,1.2,0,0,1,450.842,244.506Z" transform="translate(115.863 3876.985)" fill="#2474ab"/>
    <path id="Tracé_19077" data-name="Tracé 19077" d="M374.249,219.971c-2.739,1.585-2.725,4.161.03,5.757a10.988,10.988,0,0,0,9.954.016c2.739-1.585,2.725-4.161-.03-5.757A10.988,10.988,0,0,0,374.249,219.971Z" transform="translate(-16.805 3841.222)" fill="#01e3a6"/>
    <path id="Tracé_19078" data-name="Tracé 19078" d="M379.929,228.6a11.243,11.243,0,0,1-5.516-1.344,4.49,4.49,0,0,1-2.587-3.774,4.44,4.44,0,0,1,2.555-3.741,11.943,11.943,0,0,1,10.978.019,4.033,4.033,0,0,1,.032,7.515A11.118,11.118,0,0,1,379.929,228.6Zm-.089-8.141a9.07,9.07,0,0,0-4.435,1.04,2.576,2.576,0,0,0-1.539,1.983,2.632,2.632,0,0,0,1.571,2.018,10.016,10.016,0,0,0,8.927.016,2.58,2.58,0,0,0,1.539-1.983,2.618,2.618,0,0,0-1.569-2.016A9.207,9.207,0,0,0,379.84,220.454Z" transform="translate(-17.449 3840.576)" fill="#fff"/>
    <path id="Tracé_19079" data-name="Tracé 19079" d="M438.006,251.438a10.974,10.974,0,0,0-9.951-.019c-2.742,1.588-2.728,4.164.03,5.757a10.98,10.98,0,0,0,9.954.019C440.777,255.61,440.764,253.033,438.006,251.438Z" transform="translate(75.157 3894.973)" fill="#01e3a6"/>
    <path id="Tracé_19080" data-name="Tracé 19080" d="M433.732,260.043a11.213,11.213,0,0,1-5.516-1.344,4.487,4.487,0,0,1-2.585-3.774,4.442,4.442,0,0,1,2.552-3.741,11.965,11.965,0,0,1,10.98.019,4.032,4.032,0,0,1,.03,7.515A11.126,11.126,0,0,1,433.732,260.043Zm-.087-8.144a9.107,9.107,0,0,0-4.435,1.04,2.588,2.588,0,0,0-1.542,1.986,2.631,2.631,0,0,0,1.571,2.016,10.016,10.016,0,0,0,8.927.019,2.584,2.584,0,0,0,1.541-1.986,2.632,2.632,0,0,0-1.569-2.016A9.229,9.229,0,0,0,433.645,251.9Z" transform="translate(74.515 3894.33)" fill="#fff"/>
    <path id="Tracé_19081" data-name="Tracé 19081" d="M465.63,289.532l5.885,3.405L504.6,312.073l6.31,3.649,46.428,26.856a18.346,18.346,0,0,0,9.469,2.089l-.06-20.728a21.153,21.153,0,0,1-4.933-.374c-.133-.027-.247-.073-.377-.1a15.379,15.379,0,0,1-1.848-.509,12.19,12.19,0,0,1-1.975-.9L544.042,314.2l-.368.214a12.775,12.775,0,0,1-8.141,1.672l-.06-20.343a21.181,21.181,0,0,1-4.933-.374c-.125-.024-.238-.07-.36-.1a15.98,15.98,0,0,1-1.861-.515,12.115,12.115,0,0,1-1.978-.9L360.911,198.17c-2.325-1.344-3.368-3.17-3.256-5.064-.127,0-.127,20.812-.127,20.812.068,1.859,1.284,3.725,3.747,5.147L388.8,234.988v7.128c.068,1.859,1.284,3.725,3.744,5.147l4.145,2.4,8.607,4.977Z" transform="translate(-41.889 3797.328)" fill="#01e3a6"/>
    <path id="Tracé_19082" data-name="Tracé 19082" d="M566.792,346.308a18.834,18.834,0,0,1-9.322-2.238l-91.712-53.046-73.081-42.269c-2.658-1.536-4.167-3.663-4.253-5.99v-6.578L361.4,220.561c-2.66-1.539-4.169-3.668-4.253-5.993V193.721a1.106,1.106,0,0,1,1.823-.7,1.078,1.078,0,0,1,.341.756c-.095,1.6.856,3.032,2.75,4.126L527.5,293.59a11.151,11.151,0,0,0,1.807.826,15.317,15.317,0,0,0,1.742.477l.135,1.089.2-1a19.968,19.968,0,0,0,4.7.355,1.124,1.124,0,0,1,.742.284,1.011,1.011,0,0,1,.314.729l.06,19.387a11.375,11.375,0,0,0,6.608-1.593l.371-.214a1.025,1.025,0,0,1,1.024,0l13.573,7.851a11.074,11.074,0,0,0,1.807.824,14.6,14.6,0,0,0,1.728.477l.152,1.092.2-1a19.679,19.679,0,0,0,4.7.358.992.992,0,0,1,.742.282,1.02,1.02,0,0,1,.311.729l.06,20.728a1.019,1.019,0,0,1-.992,1.019C567.247,346.3,567.02,346.308,566.792,346.308Zm-100.01-57.04,91.712,53.046a16.84,16.84,0,0,0,7.933,1.956l-.051-18.685a21.6,21.6,0,0,1-4.121-.412c-.033-.005-.268-.068-.3-.079a19.065,19.065,0,0,1-2.067-.572,13,13,0,0,1-2.14-.981l-13.064-7.556a13.829,13.829,0,0,1-8.588,1.723,1.016,1.016,0,0,1-.937-1.011l-.059-19.311a21.455,21.455,0,0,1-4.118-.412c-.03-.005-.255-.065-.284-.073a19.156,19.156,0,0,1-2.081-.574,13.25,13.25,0,0,1-2.143-.983L361.041,199.662a9.252,9.252,0,0,1-1.85-1.382v16.25c.057,1.566,1.206,3.1,3.237,4.272l27.528,15.922a1.017,1.017,0,0,1,.507.878v7.128c.057,1.566,1.208,3.094,3.238,4.27Z" transform="translate(-42.531 3796.713)" fill="#fff"/>
    <path id="Tracé_19083" data-name="Tracé 19083" d="M515.257,228.468l-70.534,40.8a17.906,17.906,0,0,1-2.268,1.1c-.1.041-.211.065-.312.1a21.315,21.315,0,0,1-2.165.715,24.364,24.364,0,0,1-5.226.767l.06,20.728a17.533,17.533,0,0,0,8.138-2.059l33.648-19.46,4.776-2.761,5.982-3.462,7.881-4.557,20.82-12.042c2.492-1.441,3.674-3.346,3.59-5.242.038,0,.038-19.569.038-19.569C519.183,225.282,517.736,227.035,515.257,228.468Z" transform="translate(90.106 3849.318)" fill="#01e3a6"/>
    <path id="Tracé_19084" data-name="Tracé 19084" d="M435.455,294.335a1.033,1.033,0,0,1-.71-.284,1,1,0,0,1-.311-.729l-.057-20.728a1.013,1.013,0,0,1,.981-1.016,23.535,23.535,0,0,0,5.012-.737,20.624,20.624,0,0,0,2.048-.68l.68.845-.382-.943a17.166,17.166,0,0,0,2.138-1.032l70.537-40.8a8.032,8.032,0,0,0,3.958-4.346.992.992,0,0,1,1.119-.729,1.019,1.019,0,0,1,.881,1.008c0,12.95,0,17.753-.263,19.536l.228-.011c.1,2.387-1.355,4.576-4.1,6.163l-73.105,42.285a18.648,18.648,0,0,1-8.626,2.194Zm.962-20.785.054,18.7a15.914,15.914,0,0,0,6.61-1.867L516.19,248.1c2.059-1.192,3.154-2.725,3.083-4.321.024-.756.033-8.965.035-16a13.118,13.118,0,0,1-2.894,2.213l-70.537,40.8a18.375,18.375,0,0,1-2.4,1.16c-.027.011-.228.081-.255.087a24.269,24.269,0,0,1-2.338.772A25.892,25.892,0,0,1,436.417,273.55Z" transform="translate(89.464 3848.675)" fill="#fff"/>
    <path id="Tracé_19085" data-name="Tracé 19085" d="M530.955,231.567l-28.219-16.32v9.1l15.442,8.932c3.137,1.815,2.745,4.985-.878,7.079l-59.5,34.415c-3.622,2.094-9.1,2.322-12.24.507l-8.667-5.012-10.52,6.085,13.573,7.851a12.193,12.193,0,0,0,1.975.9,15.379,15.379,0,0,0,1.848.509c.13.03.244.076.377.1a21.157,21.157,0,0,0,4.933.374,23.892,23.892,0,0,0,5.137-.748,20.6,20.6,0,0,0,2.254-.734c.1-.038.211-.062.312-.1a17.9,17.9,0,0,0,2.268-1.1l70.534-40.8c2.479-1.433,3.926-3.186,4.43-4.944C534.656,235.417,533.705,233.158,530.955,231.567Z" transform="translate(75.781 3835.171)" fill="#01e3a6"/>
    <path id="Tracé_19086" data-name="Tracé 19086" d="M448.877,287.768a21.606,21.606,0,0,1-4.291-.412c-.033-.005-.268-.068-.3-.079a19.066,19.066,0,0,1-2.067-.572,13.15,13.15,0,0,1-2.14-.981L426.5,277.874a1.014,1.014,0,0,1,0-1.756l10.52-6.088a1.036,1.036,0,0,1,1.027,0l8.67,5.015c2.8,1.62,7.935,1.387,11.213-.509l59.5-34.412c1.582-.916,2.487-2.056,2.487-3.126a2.752,2.752,0,0,0-1.609-2.2l-15.442-8.932a1.011,1.011,0,0,1-.507-.878v-9.1a1.006,1.006,0,0,1,.509-.88,1.032,1.032,0,0,1,1.021,0l28.219,16.32c3.007,1.739,4.327,4.454,3.522,7.261-.6,2.127-2.3,4.045-4.893,5.543l-70.537,40.8a18.375,18.375,0,0,1-2.4,1.16c-.027.013-.225.079-.252.087a22.613,22.613,0,0,1-2.436.791,24.678,24.678,0,0,1-5.359.783C449.462,287.762,449.17,287.768,448.877,287.768ZM429.046,277l12.056,6.973a11.263,11.263,0,0,0,1.81.824,14.411,14.411,0,0,0,1.726.477l.152,1.092.2-1a19.679,19.679,0,0,0,4.7.358A22.77,22.77,0,0,0,454.6,285a19.523,19.523,0,0,0,2.143-.7l.669.848-.374-.943a17.413,17.413,0,0,0,2.14-1.035l70.537-40.8a8.032,8.032,0,0,0,3.958-4.346c.545-1.907-.374-3.666-2.59-4.947L504.4,217.651V224.4l14.936,8.64A4.624,4.624,0,0,1,521.96,237c0,1.815-1.279,3.592-3.5,4.882l-59.5,34.415c-3.966,2.295-9.794,2.52-13.267.507l-8.157-4.717Z" transform="translate(75.137 3834.531)" fill="#fff"/>
    <path id="Tracé_19087" data-name="Tracé 19087" d="M496.064,223.3a4.815,4.815,0,0,1-1.216,3.292,11.139,11.139,0,0,1,9.014.463c2.755,1.593,2.771,4.172.03,5.754a10.972,10.972,0,0,1-9.954-.016c-1.923-1.113-2.479-2.7-1.728-4.1l-51.971,30.061a10.935,10.935,0,0,1,7.085,1c2.755,1.6,2.769,4.172.03,5.757a10.979,10.979,0,0,1-9.954-.019c-1.924-1.111-2.479-2.7-1.729-4.1l-5.416,3.132,8.667,5.012c3.137,1.815,8.618,1.588,12.24-.507l59.5-34.415c3.622-2.094,4.015-5.264.878-7.079L496.1,218.607V223.3Z" transform="translate(82.418 3840.914)" fill="#01e3a6"/>
    <path id="Tracé_19088" data-name="Tracé 19088" d="M444.9,272.429a11.84,11.84,0,0,1-5.844-1.371l-8.67-5.012a1.016,1.016,0,0,1,0-1.758l5.418-3.129a1.023,1.023,0,0,1,1.219.149,1.012,1.012,0,0,1,.192,1.208c-.729,1.352.7,2.365,1.344,2.739a10.016,10.016,0,0,0,8.927.019,2.58,2.58,0,0,0,1.539-1.983,2.628,2.628,0,0,0-1.571-2.018,9.86,9.86,0,0,0-6.391-.878,1.018,1.018,0,0,1-.694-1.88l51.971-30.059a1.031,1.031,0,0,1,1.222.149,1.012,1.012,0,0,1,.192,1.208c-.726,1.355.7,2.368,1.344,2.742a10.016,10.016,0,0,0,8.927.016,2.572,2.572,0,0,0,1.539-1.983,2.63,2.63,0,0,0-1.569-2.016,10.148,10.148,0,0,0-8.117-.4,1.017,1.017,0,0,1-1.173-1.585,3.786,3.786,0,0,0,.983-2.6,1.037,1.037,0,0,1,.038-.317v-4.421a1.013,1.013,0,0,1,.509-.881,1.032,1.032,0,0,1,1.021,0L512.7,227.3a4.624,4.624,0,0,1,2.625,3.953c0,1.815-1.279,3.592-3.5,4.882l-59.5,34.415A15.171,15.171,0,0,1,444.9,272.429Zm-11.969-7.261,7.152,4.134c2.8,1.62,7.935,1.387,11.213-.509l59.5-34.412c1.582-.916,2.487-2.056,2.487-3.126a2.752,2.752,0,0,0-1.609-2.2l-13.912-8.046v2.929a.914.914,0,0,1-.033.26,5.258,5.258,0,0,1-.225,1.441,11.917,11.917,0,0,1,7.513,1.176,4.48,4.48,0,0,1,2.584,3.774,4.432,4.432,0,0,1-2.552,3.739,11.949,11.949,0,0,1-10.98-.019,4.819,4.819,0,0,1-2.5-3.061l-46.8,27.068a10.226,10.226,0,0,1,3.7,1.2,4.03,4.03,0,0,1,.03,7.513,11.938,11.938,0,0,1-10.975-.016,4.826,4.826,0,0,1-2.5-3.064Z" transform="translate(81.773 3840.274)" fill="#fff"/>
    <path id="Tracé_19089" data-name="Tracé 19089" d="M425.934,230.511c.1-.038.217-.065.322-.106C426.151,230.446,426.037,230.473,425.934,230.511Z" transform="translate(75.032 3861.079)" fill="#fdfeff"/>
    <path id="Tracé_19090" data-name="Tracé 19090" d="M426.663,232.089a1.061,1.061,0,0,1-1.016-.661,1.138,1.138,0,0,1-.065-.385.9.9,0,0,1,.582-.87l.225-.076a1.1,1.1,0,0,1,1.344.6,1.174,1.174,0,0,1,.073.4.89.89,0,0,1-.561.853c-.03.011-.228.079-.26.087A1.067,1.067,0,0,1,426.663,232.089Z" transform="translate(74.431 3860.471)" fill="#2474ab"/>
    <path id="Tracé_19091" data-name="Tracé 19091" d="M455.055,228.218a10.972,10.972,0,0,0,9.954.016c2.742-1.582,2.725-4.161-.03-5.754a11.139,11.139,0,0,0-9.014-.463,8.647,8.647,0,0,1-2.376,1.951l-.263.152C452.576,225.52,453.131,227.1,455.055,228.218Z" transform="translate(121.301 3845.488)" fill="#01e3a6"/>
    <path id="Tracé_19092" data-name="Tracé 19092" d="M460.709,231.08a11.219,11.219,0,0,1-5.519-1.346c-2.335-1.352-3.167-3.492-2.119-5.454a1.042,1.042,0,0,1,.393-.4l.265-.152a7.729,7.729,0,0,0,2.1-1.715,1.024,1.024,0,0,1,.4-.3,12.212,12.212,0,0,1,9.913.526,4.48,4.48,0,0,1,2.584,3.774,4.432,4.432,0,0,1-2.552,3.739A11.128,11.128,0,0,1,460.709,231.08Zm-5.947-5.6c-.447,1.233.845,2.148,1.455,2.5a10.016,10.016,0,0,0,8.927.016,2.572,2.572,0,0,0,1.539-1.983,2.63,2.63,0,0,0-1.569-2.016,10.146,10.146,0,0,0-7.895-.485A9.929,9.929,0,0,1,454.763,225.477Z" transform="translate(120.653 3844.851)" fill="#fff"/>
    <path id="Tracé_19093" data-name="Tracé 19093" d="M434.186,240.282a10.979,10.979,0,0,0,9.954.019c2.739-1.585,2.725-4.161-.03-5.757a10.935,10.935,0,0,0-7.085-1l-4.568,2.641C431.707,237.584,432.262,239.171,434.186,240.282Z" transform="translate(85.632 3866.124)" fill="#01e3a6"/>
    <path id="Tracé_19094" data-name="Tracé 19094" d="M439.838,243.146a11.225,11.225,0,0,1-5.513-1.344c-2.341-1.355-3.173-3.5-2.119-5.456a1.014,1.014,0,0,1,.387-.4l4.565-2.644a1.072,1.072,0,0,1,.333-.122,12.017,12.017,0,0,1,7.778,1.124,4.03,4.03,0,0,1,.03,7.513A11.083,11.083,0,0,1,439.838,243.146Zm-4.489-3.1a10.016,10.016,0,0,0,8.927.019,2.58,2.58,0,0,0,1.539-1.983,2.628,2.628,0,0,0-1.571-2.018,9.809,9.809,0,0,0-6.218-.908l-4.129,2.39c-.452,1.23.845,2.148,1.452,2.5Z" transform="translate(84.983 3865.484)" fill="#fff"/>
    <path id="Tracé_19095" data-name="Tracé 19095" d="M503.716,218.06l-70.537,40.8a18.042,18.042,0,0,1-2.265,1.1c-.106.041-.219.068-.322.106a21.787,21.787,0,0,1-2.154.712,24.387,24.387,0,0,1-5.229.767l.06,20.259c3.647.2,5.882-.284,8.141-1.588l.368-.214,10.52-6.085,5.416-3.132,4.568-2.641,51.971-30.061.263-.152a8.648,8.648,0,0,0,2.376-1.951,4.815,4.815,0,0,0,1.216-3.292c.035,0,.035-4.692.035-4.692V213.116C507.641,214.874,506.192,216.627,503.716,218.06Z" transform="translate(70.375 3831.529)" fill="#01e3a6"/>
    <path id="Tracé_19096" data-name="Tracé 19096" d="M425.388,283.5q-.728,0-1.528-.041a1.021,1.021,0,0,1-.967-1.013l-.06-20.259a1.013,1.013,0,0,1,.981-1.016,23.705,23.705,0,0,0,5.012-.737,19.967,19.967,0,0,0,2.04-.675l.68.843-.377-.945a16.718,16.718,0,0,0,2.14-1.032l70.534-40.8a8.052,8.052,0,0,0,3.964-4.346.993.993,0,0,1,1.119-.729,1.018,1.018,0,0,1,.878,1.008v14.876c0,2.455,0,3.852-.084,4.649a5.584,5.584,0,0,1-1.4,3.983,9.738,9.738,0,0,1-2.652,2.184l-.268.154-72.842,42.128A13.3,13.3,0,0,1,425.388,283.5Zm-.458-2.035a11.388,11.388,0,0,0,6.608-1.49l73.113-42.285a7.729,7.729,0,0,0,2.1-1.715,3.8,3.8,0,0,0,.981-2.6.878.878,0,0,1,.011-.19c.03-.577.027-4.549.027-4.549v-11.27a13,13,0,0,1-2.9,2.216l-70.537,40.8a18.2,18.2,0,0,1-2.395,1.159c-.027.011-.225.079-.255.087a23.869,23.869,0,0,1-2.343.772,25.812,25.812,0,0,1-4.467.748Z" transform="translate(69.732 3830.886)" fill="#fff"/>
    <path id="Tracé_19097" data-name="Tracé 19097" d="M360.836,229.391l56.3,32.562,109.133,63.122a12.116,12.116,0,0,0,1.978.9,15.989,15.989,0,0,0,1.861.515c.122.027.236.073.36.1a21.179,21.179,0,0,0,4.934.374,23.872,23.872,0,0,0,5.137-.748,20.853,20.853,0,0,0,2.246-.731c.1-.038.217-.065.322-.106a18.044,18.044,0,0,0,2.265-1.1l70.537-40.8c2.476-1.433,3.926-3.186,4.427-4.944.645-2.254-.3-4.513-3.056-6.1l-165.43-95.684c-4.9-2.831-13.448-2.476-19.1.794l-70.537,40.8c-2.969,1.718-4.508,3.893-4.627,5.985C357.468,226.221,358.511,228.047,360.836,229.391ZM519.077,233.3c10.685,6.18,5.83,19.01-10.845,28.655s-38.858,12.452-49.543,6.272-5.83-19.011,10.845-28.655S508.39,227.118,519.077,233.3Zm84.544,47.928-59.5,34.415c-3.622,2.094-9.1,2.322-12.24.507l-66.568-38.5c14.5.824,33.2-3.674,48.492-12.519,17.575-10.165,25.266-22.933,20.422-31.627L604.5,274.149C607.639,275.962,607.243,279.134,603.621,281.229ZM377.657,219.361l59.5-34.412c3.625-2.1,9.106-2.325,12.243-.509L519.17,224.8c-15.028-2.809-37.111,1.634-54.693,11.8-15.283,8.84-23.082,19.644-21.676,28.029l-66.021-38.184C373.642,224.628,374.035,221.458,377.657,219.361Z" transform="translate(-41.813 3766.106)" fill="#01e3a6"/>
    <path id="Tracé_19098" data-name="Tracé 19098" d="M535.188,328.623a21.611,21.611,0,0,1-4.283-.412c-.03-.005-.255-.065-.284-.073a19.156,19.156,0,0,1-2.081-.574,13.25,13.25,0,0,1-2.143-.983L360.967,230.9c-2.566-1.482-3.9-3.614-3.763-6,.149-2.56,1.972-4.977,5.137-6.806l70.531-40.8c5.925-3.43,14.955-3.782,20.129-.794l165.43,95.684c3.01,1.739,4.329,4.454,3.525,7.261-.607,2.124-2.3,4.042-4.9,5.543l-70.537,40.8a18.189,18.189,0,0,1-2.395,1.159c-.027.011-.225.079-.255.087a22.56,22.56,0,0,1-2.441.794,24.771,24.771,0,0,1-5.356.78C535.782,328.618,535.483,328.623,535.188,328.623ZM444.194,176.471A21.143,21.143,0,0,0,433.9,179.05l-70.534,40.8c-2.517,1.455-4.02,3.338-4.123,5.167-.095,1.6.856,3.032,2.75,4.126l165.432,95.684a11.154,11.154,0,0,0,1.807.826,15.322,15.322,0,0,0,1.742.477l.135,1.089.2-1a19.968,19.968,0,0,0,4.7.355,22.652,22.652,0,0,0,4.917-.715,19.011,19.011,0,0,0,2.135-.694l.68.843-.377-.945a16.716,16.716,0,0,0,2.14-1.032l70.534-40.8A8.052,8.052,0,0,0,620,278.887c.542-1.907-.377-3.666-2.59-4.947l-165.43-95.684A15.873,15.873,0,0,0,444.194,176.471Zm93.66,142.558a11.815,11.815,0,0,1-5.841-1.374l-66.568-38.5a1.017,1.017,0,0,1-.466-1.17,1.052,1.052,0,0,1,1.035-.723c14.9.848,33.256-3.9,47.923-12.381,16.429-9.507,24.673-21.947,20.04-30.256a1.019,1.019,0,0,1,1.406-1.371L605.655,273.9a4.619,4.619,0,0,1,2.625,3.953c0,1.815-1.276,3.6-3.5,4.882l-59.5,34.415A15.191,15.191,0,0,1,537.854,319.03ZM469.91,279.389,533.037,315.9c2.8,1.617,7.938,1.39,11.216-.507l59.5-34.415c1.585-.916,2.492-2.054,2.492-3.126a2.76,2.76,0,0,0-1.612-2.2l-67.716-39.167c2.427,9.171-5.941,20.885-21.953,30.148C501.253,274.564,484.369,279.3,469.91,279.389Zm4.573-6.269c-6.2,0-11.7-1.095-15.662-3.386-4.042-2.338-6.18-5.678-6.18-9.658,0-6.827,6.364-14.586,17.025-20.753,16.933-9.791,39.617-12.606,50.565-6.272,4.042,2.335,6.18,5.676,6.18,9.656,0,6.83-6.361,14.589-17.022,20.755A73.2,73.2,0,0,1,474.483,273.119Zm30.059-41.472c-10.536,0-23.313,3.338-33.852,9.431-9.872,5.714-16.009,12.991-16.009,19,0,3.216,1.785,5.947,5.164,7.9,10.39,6.009,32.153,3.194,48.519-6.275,9.875-5.711,16.009-12.991,16.006-19,0-3.216-1.783-5.947-5.164-7.9C515.511,232.668,510.369,231.647,504.542,231.647Zm-61.1,34.626a1.023,1.023,0,0,1-.512-.138l-66.021-38.186A4.624,4.624,0,0,1,374.286,224c0-1.815,1.276-3.6,3.5-4.885l59.5-34.415c3.966-2.292,9.791-2.517,13.267-.507l69.77,40.356a1.015,1.015,0,0,1-.7,1.875c-15.264-2.853-36.972,1.84-53.994,11.682-14.237,8.236-22.549,18.829-21.181,26.986a1.014,1.014,0,0,1-.425,1A1.025,1.025,0,0,1,443.444,266.273Zm-64.628-45.406c-1.582.916-2.492,2.056-2.492,3.129a2.752,2.752,0,0,0,1.612,2.194L442.262,263.4c-.084-8.724,8.244-18.9,22.343-27.051,15.6-9.024,35.082-13.814,50.3-12.59l-65.373-37.812c-2.8-1.62-7.938-1.39-11.213.509Z" transform="translate(-42.457 3765.478)" fill="#fff"/>
    <path id="Tracé_19099" data-name="Tracé 19099" d="M366,221.16l66.021,38.184c-1.406-8.385,6.394-19.189,21.676-28.029,17.583-10.168,39.665-14.611,54.693-11.8l-69.77-40.356c-3.137-1.815-8.618-1.588-12.243.509l-59.5,34.412C363.253,216.175,362.86,219.344,366,221.16Zm62.52-36.959a10.988,10.988,0,0,1,9.954.016c2.758,1.6,2.772,4.172.033,5.757a10.988,10.988,0,0,1-9.954-.016C425.792,188.362,425.779,185.786,428.518,184.2Zm-54.742,31.663a10.988,10.988,0,0,1,9.954.016c2.758,1.6,2.772,4.172.033,5.757a10.98,10.98,0,0,1-9.954-.019C371.05,220.024,371.036,217.448,373.776,215.863Z" transform="translate(-31.032 3771.389)" fill="#01e3a6"/>
    <path id="Tracé_19100" data-name="Tracé 19100" d="M432.661,261.008a1.023,1.023,0,0,1-.512-.138l-66.021-38.186a4.624,4.624,0,0,1-2.625-3.953c0-1.815,1.276-3.6,3.5-4.885l59.5-34.415c3.966-2.292,9.791-2.517,13.267-.507l69.77,40.356a1.015,1.015,0,0,1-.7,1.875c-15.264-2.853-36.972,1.84-53.994,11.682-14.237,8.236-22.549,18.829-21.181,26.986a1.014,1.014,0,0,1-.425,1A1.025,1.025,0,0,1,432.661,261.008Zm1.3-81.406a13.24,13.24,0,0,0-6.426,1.588l-59.5,34.412c-1.582.916-2.492,2.056-2.492,3.129a2.752,2.752,0,0,0,1.612,2.194l64.327,37.208c-.084-8.724,8.244-18.9,22.343-27.051,15.6-9.024,35.082-13.814,50.3-12.59L438.746,180.68A9.8,9.8,0,0,0,433.959,179.6Zm-54.5,44.886a11.206,11.206,0,0,1-5.516-1.344,4.487,4.487,0,0,1-2.585-3.774,4.429,4.429,0,0,1,2.552-3.739,11.935,11.935,0,0,1,10.978.016,4.478,4.478,0,0,1,2.585,3.774,4.433,4.433,0,0,1-2.552,3.739A11.1,11.1,0,0,1,379.455,224.488Zm-.087-8.144a9.111,9.111,0,0,0-4.438,1.043,2.586,2.586,0,0,0-1.539,1.983,2.626,2.626,0,0,0,1.571,2.016,10.022,10.022,0,0,0,8.929.019,2.58,2.58,0,0,0,1.539-1.983,2.634,2.634,0,0,0-1.571-2.018A9.227,9.227,0,0,0,379.368,216.344Zm54.826-23.519a11.2,11.2,0,0,1-5.513-1.344,4.033,4.033,0,0,1-.033-7.515,11.957,11.957,0,0,1,10.98.019,4.486,4.486,0,0,1,2.582,3.774,4.432,4.432,0,0,1-2.552,3.739A11.094,11.094,0,0,1,434.194,192.825Zm-4.522-7.1a2.576,2.576,0,0,0-1.536,1.983,2.63,2.63,0,0,0,1.569,2.018,10.031,10.031,0,0,0,8.93.016,2.58,2.58,0,0,0,1.539-1.983,2.621,2.621,0,0,0-1.571-2.016,10.022,10.022,0,0,0-8.93-.019Z" transform="translate(-31.675 3770.743)" fill="#fff"/>
    <path id="Tracé_19101" data-name="Tracé 19101" d="M445.832,228.12c-15.3,8.846-33.99,13.343-48.492,12.519l66.568,38.5c3.137,1.815,8.618,1.588,12.24-.507l59.5-34.415c3.622-2.094,4.018-5.267.878-7.079l-70.271-40.646C471.1,205.187,463.407,217.955,445.832,228.12Zm26.5,46.991a10.974,10.974,0,0,1-9.951-.019c-2.758-1.593-2.772-4.172-.032-5.757a10.979,10.979,0,0,1,9.953.019C475.064,270.95,475.078,273.527,472.336,275.111Zm46.587-32.719c-2.758-1.6-2.771-4.172-.033-5.757a10.98,10.98,0,0,1,9.954.019c2.758,1.593,2.771,4.172.03,5.754A10.965,10.965,0,0,1,518.924,242.392Z" transform="translate(26.159 3803.117)" fill="#01e3a6"/>
    <path id="Tracé_19102" data-name="Tracé 19102" d="M469.881,282.033a11.816,11.816,0,0,1-5.841-1.374l-66.568-38.5a1.017,1.017,0,0,1-.466-1.17,1.052,1.052,0,0,1,1.035-.723c14.9.848,33.255-3.9,47.923-12.381,16.429-9.507,24.673-21.947,20.04-30.256a1.019,1.019,0,0,1,1.406-1.371L537.681,236.9a4.619,4.619,0,0,1,2.625,3.953c0,1.815-1.276,3.6-3.5,4.882l-59.5,34.415A15.191,15.191,0,0,1,469.881,282.033Zm-67.944-39.641L465.064,278.9c2.8,1.617,7.938,1.39,11.216-.507l59.5-34.415c1.585-.916,2.492-2.054,2.492-3.126a2.76,2.76,0,0,0-1.612-2.2l-67.716-39.167c2.427,9.171-5.941,20.885-21.953,30.148C433.28,237.567,416.4,242.3,401.937,242.392Zm66.1,35.566a11.217,11.217,0,0,1-5.519-1.344,4.487,4.487,0,0,1-2.585-3.774,4.44,4.44,0,0,1,2.555-3.741,11.952,11.952,0,0,1,10.978.019,4.03,4.03,0,0,1,.03,7.513A11.087,11.087,0,0,1,468.033,277.958Zm-.09-8.141a9.13,9.13,0,0,0-4.435,1.038,2.58,2.58,0,0,0-1.539,1.986,2.625,2.625,0,0,0,1.571,2.016,10.017,10.017,0,0,0,8.927.019,2.58,2.58,0,0,0,1.539-1.986,2.626,2.626,0,0,0-1.569-2.016A9.236,9.236,0,0,0,467.944,269.817Zm56.628-24.559a11.208,11.208,0,0,1-5.516-1.346,4.487,4.487,0,0,1-2.587-3.774,4.438,4.438,0,0,1,2.555-3.739,11.935,11.935,0,0,1,10.978.016,4.487,4.487,0,0,1,2.585,3.774,4.435,4.435,0,0,1-2.552,3.739A11.1,11.1,0,0,1,524.572,245.258Zm-.089-8.144a9.09,9.09,0,0,0-4.432,1.04,2.58,2.58,0,0,0-1.541,1.983,2.634,2.634,0,0,0,1.571,2.018,10.007,10.007,0,0,0,8.927.016,2.581,2.581,0,0,0,1.542-1.983,2.63,2.63,0,0,0-1.571-2.016A9.23,9.23,0,0,0,524.482,237.114Z" transform="translate(25.516 3802.475)" fill="#fff"/>
    <path id="Tracé_19103" data-name="Tracé 19103" d="M398.473,233.415c10.685,6.18,32.868,3.373,49.543-6.272s21.53-22.476,10.845-28.655-32.868-3.373-49.543,6.272S387.788,227.236,398.473,233.415Z" transform="translate(18.402 3800.918)" fill="#01e3a6"/>
    <path id="Tracé_19104" data-name="Tracé 19104" d="M414.267,238.3c-6.2,0-11.7-1.095-15.662-3.386-4.042-2.338-6.18-5.678-6.18-9.658,0-6.827,6.364-14.586,17.025-20.753,16.933-9.791,39.617-12.606,50.565-6.272,4.042,2.335,6.18,5.676,6.18,9.656,0,6.83-6.361,14.589-17.022,20.755A73.2,73.2,0,0,1,414.267,238.3Zm-14.638-5.142c10.39,6.009,32.153,3.194,48.519-6.275,9.875-5.711,16.009-12.991,16.006-19,0-3.216-1.783-5.947-5.164-7.9-10.379-6.009-32.147-3.191-48.516,6.272-9.872,5.714-16.009,12.991-16.009,19,0,3.216,1.785,5.947,5.164,7.9Z" transform="translate(17.759 3800.299)" fill="#fff"/>
    <path id="Tracé_19105" data-name="Tracé 19105" d="M389.061,186.749a10.988,10.988,0,0,0,9.954.016c2.739-1.585,2.725-4.161-.033-5.757a10.988,10.988,0,0,0-9.954-.016C386.289,182.577,386.3,185.153,389.061,186.749Z" transform="translate(8.457 3774.599)" fill="#01e3a6"/>
    <path id="Tracé_19106" data-name="Tracé 19106" d="M394.7,189.615a11.2,11.2,0,0,1-5.513-1.344,4.033,4.033,0,0,1-.033-7.515,11.965,11.965,0,0,1,10.98.019,4.486,4.486,0,0,1,2.582,3.774,4.432,4.432,0,0,1-2.552,3.739A11.094,11.094,0,0,1,394.7,189.615Zm-.087-8.141a9.1,9.1,0,0,0-4.435,1.04,2.576,2.576,0,0,0-1.536,1.983,2.63,2.63,0,0,0,1.569,2.018,10.031,10.031,0,0,0,8.93.016,2.58,2.58,0,0,0,1.539-1.983,2.621,2.621,0,0,0-1.571-2.016A9.2,9.2,0,0,0,394.618,181.474Z" transform="translate(7.814 3773.954)" fill="#fff"/>
    <path id="Tracé_19107" data-name="Tracé 19107" d="M453.45,212.076a10.98,10.98,0,0,0-9.954-.019c-2.739,1.585-2.725,4.161.033,5.757a10.965,10.965,0,0,0,9.951.016C456.221,216.248,456.208,213.669,453.45,212.076Z" transform="translate(101.555 3827.695)" fill="#01e3a6"/>
    <path id="Tracé_19108" data-name="Tracé 19108" d="M449.177,220.684a11.208,11.208,0,0,1-5.516-1.346,4.487,4.487,0,0,1-2.587-3.774,4.438,4.438,0,0,1,2.555-3.739,11.935,11.935,0,0,1,10.978.016,4.487,4.487,0,0,1,2.585,3.774,4.435,4.435,0,0,1-2.552,3.739A11.1,11.1,0,0,1,449.177,220.684Zm-.089-8.144a9.089,9.089,0,0,0-4.432,1.04,2.58,2.58,0,0,0-1.541,1.983,2.634,2.634,0,0,0,1.571,2.018,10.008,10.008,0,0,0,8.927.016,2.581,2.581,0,0,0,1.542-1.983,2.631,2.631,0,0,0-1.571-2.016A9.23,9.23,0,0,0,449.088,212.54Z" transform="translate(100.909 3827.049)" fill="#fff"/>
    <path id="Tracé_19109" data-name="Tracé 19109" d="M368.855,198.433a10.98,10.98,0,0,0,9.954.019c2.739-1.585,2.725-4.161-.033-5.757a10.988,10.988,0,0,0-9.954-.016C366.083,194.264,366.1,196.84,368.855,198.433Z" transform="translate(-26.079 3794.574)" fill="#01e3a6"/>
    <path id="Tracé_19110" data-name="Tracé 19110" d="M374.5,201.3a11.206,11.206,0,0,1-5.516-1.344,4.487,4.487,0,0,1-2.585-3.774,4.429,4.429,0,0,1,2.552-3.739,11.935,11.935,0,0,1,10.978.016,4.478,4.478,0,0,1,2.585,3.774,4.433,4.433,0,0,1-2.552,3.739A11.1,11.1,0,0,1,374.5,201.3Zm-.087-8.144a9.111,9.111,0,0,0-4.438,1.043,2.586,2.586,0,0,0-1.539,1.983,2.626,2.626,0,0,0,1.571,2.016,10.022,10.022,0,0,0,8.929.019,2.58,2.58,0,0,0,1.539-1.983,2.634,2.634,0,0,0-1.571-2.018A9.227,9.227,0,0,0,374.415,193.159Z" transform="translate(-26.722 3793.929)" fill="#fff"/>
    <path id="Tracé_19111" data-name="Tracé 19111" d="M432.581,224.145a10.979,10.979,0,0,0-9.953-.019c-2.739,1.585-2.726,4.164.032,5.757a10.974,10.974,0,0,0,9.951.019C435.352,228.318,435.339,225.741,432.581,224.145Z" transform="translate(65.885 3848.325)" fill="#fdfeff"/>
    <path id="Tracé_19112" data-name="Tracé 19112" d="M428.308,232.751a11.217,11.217,0,0,1-5.519-1.344,4.487,4.487,0,0,1-2.585-3.774,4.44,4.44,0,0,1,2.555-3.741,11.952,11.952,0,0,1,10.978.019,4.03,4.03,0,0,1,.03,7.513A11.087,11.087,0,0,1,428.308,232.751Zm-.09-8.141a9.13,9.13,0,0,0-4.435,1.038,2.58,2.58,0,0,0-1.539,1.986,2.625,2.625,0,0,0,1.571,2.016,10.017,10.017,0,0,0,8.927.019,2.58,2.58,0,0,0,1.539-1.986,2.626,2.626,0,0,0-1.569-2.016A9.236,9.236,0,0,0,428.219,224.61Z" transform="translate(65.24 3847.682)" fill="#2474ab"/>
    <path id="Tracé_19113" data-name="Tracé 19113" d="M428.093,193.1c-5.269-3.051-12.579-4.2-19.357-3.438a28.564,28.564,0,0,0-11,3.381c-4.1,2.373-6.169,5.478-6.226,8.6-.06,3.235,2.043,6.486,6.321,8.962a28.9,28.9,0,0,0,11.04,3.422c6.789.783,14.085-.336,19.322-3.365,4.042-2.338,6.1-5.386,6.218-8.458C434.53,198.927,432.438,195.616,428.093,193.1Z" transform="translate(16.184 3791.062)" fill="#01e3a6"/>
    <path id="Tracé_19114" data-name="Tracé 19114" d="M413.736,215.931a38.26,38.26,0,0,1-4.343-.249,29.888,29.888,0,0,1-11.435-3.554c-4.47-2.585-6.9-6.088-6.83-9.859.07-3.628,2.463-6.984,6.738-9.458a29.482,29.482,0,0,1,11.4-3.511c7.252-.813,14.724.523,19.986,3.568,4.541,2.625,6.965,6.185,6.822,10.019-.136,3.568-2.525,6.868-6.727,9.3A31.865,31.865,0,0,1,413.736,215.931Zm-.252-24.835a35.887,35.887,0,0,0-3.991.222,27.418,27.418,0,0,0-10.6,3.251c-3.636,2.1-5.668,4.849-5.722,7.738-.054,3,2.01,5.865,5.814,8.065a27.862,27.862,0,0,0,10.647,3.292c6.838.788,13.822-.42,18.691-3.235,3.576-2.067,5.605-4.774,5.711-7.618.114-3.048-1.948-5.955-5.806-8.187A30.13,30.13,0,0,0,413.484,191.1Z" transform="translate(15.539 3790.422)" fill="#fff"/>
    <g id="Groupe_1944" data-name="Groupe 1944" transform="translate(399.901 3965.605)">
      <path id="Tracé_19115" data-name="Tracé 19115" d="M425.6,187.978c-5.272-3.048-12.579-4.194-19.357-3.435a28.55,28.55,0,0,0-11,3.381c-4.1,2.373-6.169,5.478-6.226,8.6-.06,3.235,2.04,6.486,6.321,8.962a28.9,28.9,0,0,0,11.04,3.422c6.789.783,14.082-.336,19.325-3.368,4.039-2.335,6.1-5.383,6.215-8.455C432.033,193.8,429.941,190.492,425.6,187.978Z" transform="translate(-387.985 -183.301)" fill="#01e3a6"/>
      <path id="Tracé_19116" data-name="Tracé 19116" d="M411.237,210.8a38.248,38.248,0,0,1-4.34-.247A29.876,29.876,0,0,1,395.461,207c-4.473-2.587-6.9-6.088-6.83-9.859.07-3.625,2.46-6.984,6.735-9.458a29.478,29.478,0,0,1,11.4-3.511c7.244-.813,14.716.52,19.983,3.565,4.541,2.628,6.965,6.185,6.822,10.021-.135,3.565-2.525,6.868-6.727,9.3A31.868,31.868,0,0,1,411.237,210.8ZM411,185.972a36.048,36.048,0,0,0-4,.222,27.476,27.476,0,0,0-10.607,3.248c-3.636,2.105-5.668,4.852-5.719,7.74-.054,3,2.01,5.865,5.814,8.065a27.819,27.819,0,0,0,10.645,3.292c6.846.783,13.822-.423,18.694-3.237,3.576-2.067,5.605-4.771,5.711-7.616.114-3.048-1.948-5.958-5.806-8.19A30.134,30.134,0,0,0,411,185.972Z" transform="translate(-388.63 -183.942)" fill="#fff"/>
    </g>
    <g id="Groupe_1946" data-name="Groupe 1946" transform="translate(399.892 3978.15)">
      <path id="Tracé_19117" data-name="Tracé 19117" d="M432.463,211.509c-5.237,3.029-12.533,4.148-19.322,3.365a28.9,28.9,0,0,1-11.04-3.422,13.315,13.315,0,0,1-5.494-5.408,29.847,29.847,0,0,0,9.813,2.8c6.776.775,14.053-.347,19.281-3.37,4.01-2.322,6.066-5.34,6.21-8.39.014-.263.014-.458.005-.656v-7.255c-.117,3.072-2.176,6.12-6.215,8.455-5.242,3.032-12.536,4.151-19.325,3.368a28.9,28.9,0,0,1-11.04-3.422c-4.129-2.39-6.209-5.5-6.3-8.623,0,2.243-.035,8.133-.035,8.133.249,3.023,2.333,6.02,6.334,8.333.146.084.309.146.458.228-.011,2.49-.027,5.321-.027,5.321.249,3.023,2.333,6.02,6.334,8.334a28.952,28.952,0,0,0,11.083,3.43c6.776.772,14.053-.349,19.279-3.373,4.012-2.322,6.069-5.34,6.212-8.39.014-.263.014-.458.005-.656v-7.255C438.564,206.123,436.505,209.171,432.463,211.509Z" transform="translate(-387.983 -187.931)" fill="#01e3a6"/>
      <path id="Tracé_19118" data-name="Tracé 19118" d="M418,224.618a38.06,38.06,0,0,1-4.294-.244,29.889,29.889,0,0,1-11.479-3.557c-4.121-2.387-6.551-5.627-6.841-9.13l.022-4.784c-4.088-2.381-6.5-5.611-6.787-9.1,0-.089.035-5.974.035-8.217a1.02,1.02,0,0,1,2.04-.027c.081,2.9,2.138,5.66,5.79,7.773a27.786,27.786,0,0,0,10.645,3.289c6.83.788,13.825-.417,18.694-3.235,3.576-2.067,5.605-4.771,5.711-7.616a1.02,1.02,0,0,1,2.04.038v7.255c.008.179.005.4-.005.7-.171,3.541-2.557,6.816-6.722,9.225-5.226,3.021-12.668,4.332-19.907,3.5a32.727,32.727,0,0,1-6.667-1.466,15.828,15.828,0,0,0,2.977,2.189A27.829,27.829,0,0,0,413.9,214.5c6.827.794,13.825-.417,18.691-3.232,3.576-2.067,5.605-4.774,5.711-7.618a1.02,1.02,0,0,1,2.04.038v7.258c.008.182.005.4-.008.7-.168,3.533-2.552,6.808-6.719,9.217A31.886,31.886,0,0,1,418,224.618Zm-20.563-15.705-.014,2.7c.228,2.728,2.3,5.4,5.827,7.448a27.87,27.87,0,0,0,10.688,3.3c6.814.777,13.8-.433,18.65-3.24,3.549-2.054,5.57-4.736,5.7-7.559a5.124,5.124,0,0,0,.008-.566v-1.918a15.767,15.767,0,0,1-4.687,3.955c-5.231,3.029-12.693,4.329-19.951,3.495a29.855,29.855,0,0,1-11.435-3.552A16.085,16.085,0,0,1,397.442,208.913Zm-.2-3.243a1.038,1.038,0,0,1,.455.106,28.974,28.974,0,0,0,9.477,2.7c6.816.783,13.793-.431,18.65-3.243,3.544-2.051,5.573-4.733,5.706-7.559.011-.222.014-.393.005-.566v-1.915a15.839,15.839,0,0,1-4.687,3.955c-5.231,3.029-12.7,4.335-19.951,3.495a29.81,29.81,0,0,1-11.436-3.552,15.981,15.981,0,0,1-4.787-4.056c-.008,1.509-.016,2.7-.016,2.7.228,2.731,2.3,5.408,5.828,7.448.022.008.42.206.439.217A.979.979,0,0,1,397.247,205.67Z" transform="translate(-388.626 -188.572)" fill="#fff"/>
    </g>
    <g id="Groupe_1947" data-name="Groupe 1947" transform="translate(399.902 3977.286)">
      <path id="Tracé_19119" data-name="Tracé 19119" d="M389.007,189.153c0,.114.019.225.022.339C389.029,188.593,389.023,188.262,389.007,189.153Z" transform="translate(-387.985 -187.612)" fill="#fff"/>
      <path id="Tracé_19120" data-name="Tracé 19120" d="M389.673,191.149a1.018,1.018,0,0,1-1.019-.967,3.8,3.8,0,0,1-.024-.406c0-.122.005-.266.019-.42.057-.526.247-1.1,1.011-1.1s.956.466,1.013,1.1c.022.3.022.536.022.78a1.02,1.02,0,0,1-1,1.016Z" transform="translate(-388.63 -188.253)" fill="#fff"/>
    </g>
    <g id="Groupe_1948" data-name="Groupe 1948" transform="translate(476.3 4059.502)">
      <path id="Tracé_19121" data-name="Tracé 19121" d="M417.205,219.5c0,.114.019.225.022.339C417.227,218.94,417.221,218.609,417.205,219.5Z" transform="translate(-416.187 -217.959)" fill="#fdfeff"/>
      <path id="Tracé_19122" data-name="Tracé 19122" d="M417.872,221.5a1.02,1.02,0,0,1-1.021-.992c-.014-.173-.022-.268-.022-.363,0-.141.005-.284.019-.436.057-.531.252-1.105,1.01-1.105s.956.469,1.011,1.1c.022.3.022.536.022.778a1.018,1.018,0,0,1-1.005,1.016Z" transform="translate(-416.829 -218.6)" fill="#2474ab"/>
    </g>
    <g id="Groupe_1949" data-name="Groupe 1949" transform="translate(471.027 4064.701)">
      <path id="Tracé_19123" data-name="Tracé 19123" d="M451.955,229.574c-5.24,3.032-12.535,4.15-19.322,3.367a28.9,28.9,0,0,1-11.04-3.422c-4.132-2.389-6.212-5.5-6.3-8.626,0,2.243-.035,8.136-.035,8.136.247,3.023,2.333,6.017,6.334,8.334a28.953,28.953,0,0,0,11.083,3.427c6.776.775,14.05-.35,19.279-3.373,4.012-2.319,6.066-5.34,6.212-8.388.014-.265.014-.461.005-.656v-7.255C458.056,224.191,456,227.236,451.955,229.574Z" transform="translate(-414.24 -219.878)" fill="#01e3a6"/>
      <path id="Tracé_19124" data-name="Tracé 19124" d="M437.5,242.683a37.434,37.434,0,0,1-4.294-.244,29.843,29.843,0,0,1-11.479-3.557c-4.121-2.384-6.551-5.627-6.841-9.13,0-.089.033-5.974.033-8.217a1.017,1.017,0,0,1,1-1.016.964.964,0,0,1,1.038.989c.081,2.9,2.14,5.662,5.792,7.775a27.8,27.8,0,0,0,10.645,3.289c6.843.788,13.825-.42,18.693-3.235,3.576-2.07,5.605-4.774,5.708-7.616a1.134,1.134,0,0,1,1.038-.978,1.019,1.019,0,0,1,1,1.016v7.255a7.044,7.044,0,0,1-.005.707c-.168,3.53-2.552,6.806-6.719,9.217A31.908,31.908,0,0,1,437.5,242.683Zm-20.563-15.7c-.005,1.509-.014,2.7-.014,2.7.228,2.731,2.3,5.408,5.827,7.45a27.836,27.836,0,0,0,10.688,3.294c6.822.78,13.793-.431,18.65-3.24,3.546-2.051,5.57-4.736,5.7-7.559a4.868,4.868,0,0,0,.008-.553l0-1.926a15.785,15.785,0,0,1-4.684,3.953c-5.234,3.026-12.7,4.329-19.951,3.495a29.869,29.869,0,0,1-11.436-3.552A15.993,15.993,0,0,1,416.934,226.98Z" transform="translate(-414.883 -220.519)" fill="#fff"/>
    </g>
    <g id="Groupe_1950" data-name="Groupe 1950" transform="translate(471.037 4052.157)">
      <path id="Tracé_19125" data-name="Tracé 19125" d="M451.853,219.926c-5.272-3.051-12.579-4.194-19.36-3.435a28.5,28.5,0,0,0-11,3.381c-4.1,2.373-6.172,5.478-6.226,8.6-.06,3.232,2.04,6.486,6.321,8.962a28.9,28.9,0,0,0,11.04,3.422c6.787.783,14.082-.336,19.322-3.367,4.042-2.338,6.1-5.383,6.218-8.455C458.29,225.751,456.2,222.438,451.853,219.926Z" transform="translate(-414.242 -215.248)" fill="#01e3a6"/>
      <path id="Tracé_19126" data-name="Tracé 19126" d="M437.494,242.753a37.641,37.641,0,0,1-4.34-.249,29.87,29.87,0,0,1-11.436-3.552c-4.473-2.587-6.9-6.088-6.83-9.859.07-3.625,2.46-6.984,6.732-9.458a29.539,29.539,0,0,1,11.4-3.514c7.247-.81,14.722.523,19.986,3.568,4.543,2.628,6.965,6.188,6.819,10.021-.133,3.563-2.52,6.865-6.724,9.3A31.862,31.862,0,0,1,437.494,242.753Zm-.247-24.832a35.943,35.943,0,0,0-4,.219,27.556,27.556,0,0,0-10.6,3.251c-3.636,2.1-5.668,4.852-5.719,7.74-.054,3,2.01,5.863,5.814,8.065a27.8,27.8,0,0,0,10.645,3.289c6.843.788,13.825-.42,18.693-3.235,3.576-2.07,5.6-4.774,5.708-7.616.117-3.048-1.942-5.957-5.8-8.19A30.125,30.125,0,0,0,437.247,217.921Z" transform="translate(-414.887 -215.889)" fill="#fff"/>
    </g>
    <g id="Groupe_1954" data-name="Groupe 1954" transform="translate(345.893 4031.3)">
      <path id="Tracé_19127" data-name="Tracé 19127" d="M518.131,291.43a10.989,10.989,0,0,1-5.716-1.392l-143.2-79.946a1.016,1.016,0,1,1,.994-1.772L513.471,288.3a10.14,10.14,0,0,0,6.478.964,1.015,1.015,0,1,1,.287,2.01A15.092,15.092,0,0,1,518.131,291.43Z" transform="translate(-368.694 -208.19)" fill="#fff"/>
    </g>
    <g id="Groupe_1955" data-name="Groupe 1955" transform="translate(502.251 4089.967)">
      <path id="Tracé_19128" data-name="Tracé 19128" d="M426.784,230.22v0Z" transform="translate(-425.765 -229.204)" fill="#fff"/>
      <path id="Tracé_19129" data-name="Tracé 19129" d="M427.427,252a1.017,1.017,0,0,1-1.019-1.016V230.861a1.019,1.019,0,0,1,2.037,0v20.124A1.017,1.017,0,0,1,427.427,252Z" transform="translate(-426.408 -229.845)" fill="#fff"/>
    </g>
    <g id="Groupe_1956" data-name="Groupe 1956" transform="translate(510.831 4084.946)">
      <path id="Tracé_19130" data-name="Tracé 19130" d="M429.951,228.367v0Z" transform="translate(-428.932 -227.351)" fill="#fff"/>
      <path id="Tracé_19131" data-name="Tracé 19131" d="M430.6,250.178a1.019,1.019,0,0,1-1.021-1.016V229.008a1.02,1.02,0,0,1,2.04,0v20.154A1.019,1.019,0,0,1,430.6,250.178Z" transform="translate(-429.575 -227.992)" fill="#fff"/>
    </g>
    <g id="Groupe_1957" data-name="Groupe 1957" transform="translate(519.414 4079.927)">
      <path id="Tracé_19132" data-name="Tracé 19132" d="M433.119,226.514v0Z" transform="translate(-432.1 -225.498)" fill="#fff"/>
      <path id="Tracé_19133" data-name="Tracé 19133" d="M433.762,248.352a1.019,1.019,0,0,1-1.019-1.016V227.155a1.02,1.02,0,0,1,2.04,0v20.181A1.019,1.019,0,0,1,433.762,248.352Z" transform="translate(-432.743 -226.139)" fill="#fff"/>
    </g>
    <g id="Groupe_1958" data-name="Groupe 1958" transform="translate(527.994 4074.907)">
      <path id="Tracé_19134" data-name="Tracé 19134" d="M436.287,224.661v0Z" transform="translate(-435.266 -223.645)" fill="#fff"/>
      <path id="Tracé_19135" data-name="Tracé 19135" d="M436.931,246.529a1.019,1.019,0,0,1-1.021-1.016V225.3a1.02,1.02,0,0,1,2.04,0v20.211A1.017,1.017,0,0,1,436.931,246.529Z" transform="translate(-435.91 -224.286)" fill="#fff"/>
    </g>
    <g id="Groupe_1959" data-name="Groupe 1959" transform="translate(536.576 4069.886)">
      <path id="Tracé_19136" data-name="Tracé 19136" d="M439.454,222.808v0Z" transform="translate(-438.435 -221.792)" fill="#fff"/>
      <path id="Tracé_19137" data-name="Tracé 19137" d="M440.1,244.7a1.019,1.019,0,0,1-1.019-1.016V223.449a1.02,1.02,0,0,1,2.04,0v20.238A1.019,1.019,0,0,1,440.1,244.7Z" transform="translate(-439.078 -222.433)" fill="#fff"/>
    </g>
    <g id="Groupe_1960" data-name="Groupe 1960" transform="translate(545.159 4064.866)">
      <path id="Tracé_19138" data-name="Tracé 19138" d="M442.622,220.955v0Z" transform="translate(-441.603 -219.939)" fill="#fff"/>
      <path id="Tracé_19139" data-name="Tracé 19139" d="M443.265,242.88a1.017,1.017,0,0,1-1.019-1.016V221.6a1.019,1.019,0,0,1,2.037,0v20.268A1.017,1.017,0,0,1,443.265,242.88Z" transform="translate(-442.246 -220.58)" fill="#fff"/>
    </g>
    <g id="Groupe_1961" data-name="Groupe 1961" transform="translate(553.739 4059.846)">
      <path id="Tracé_19140" data-name="Tracé 19140" d="M445.789,219.1v0Z" transform="translate(-444.77 -218.086)" fill="#fff"/>
      <path id="Tracé_19141" data-name="Tracé 19141" d="M446.434,241.054a1.019,1.019,0,0,1-1.021-1.016V219.743a1.02,1.02,0,0,1,2.04,0v20.295A1.019,1.019,0,0,1,446.434,241.054Z" transform="translate(-445.413 -218.727)" fill="#fff"/>
    </g>
    <g id="Groupe_1962" data-name="Groupe 1962" transform="translate(562.322 4054.823)">
      <path id="Tracé_19142" data-name="Tracé 19142" d="M448.957,217.248v0Z" transform="translate(-447.938 -216.232)" fill="#fff"/>
      <path id="Tracé_19143" data-name="Tracé 19143" d="M449.6,239.229a1.017,1.017,0,0,1-1.019-1.016V217.889a1.02,1.02,0,0,1,2.04,0v20.324A1.019,1.019,0,0,1,449.6,239.229Z" transform="translate(-448.581 -216.873)" fill="#fff"/>
    </g>
    <g id="Groupe_1963" data-name="Groupe 1963" transform="translate(570.902 4049.806)">
      <path id="Tracé_19144" data-name="Tracé 19144" d="M452.124,215.4v0Z" transform="translate(-451.105 -214.382)" fill="#fff"/>
      <path id="Tracé_19145" data-name="Tracé 19145" d="M452.769,237.4a1.019,1.019,0,0,1-1.021-1.016V216.037a1.02,1.02,0,0,1,2.04,0v20.352A1.017,1.017,0,0,1,452.769,237.4Z" transform="translate(-451.748 -215.021)" fill="#fff"/>
    </g>
    <g id="Groupe_1965" data-name="Groupe 1965" transform="translate(533.745 4118.305)">
      <path id="Tracé_19146" data-name="Tracé 19146" d="M438.41,240.68v0Z" transform="translate(-437.389 -239.664)" fill="#fff"/>
      <path id="Tracé_19147" data-name="Tracé 19147" d="M439.054,261.965a1.019,1.019,0,0,1-1.021-1.016V241.321a1.02,1.02,0,0,1,2.04,0v19.628A1.019,1.019,0,0,1,439.054,261.965Z" transform="translate(-438.033 -240.305)" fill="#fff"/>
    </g>
    <g id="Groupe_1966" data-name="Groupe 1966" transform="translate(542.328 4113.285)">
      <path id="Tracé_19148" data-name="Tracé 19148" d="M441.577,238.827v0Z" transform="translate(-440.558 -237.811)" fill="#fff"/>
      <path id="Tracé_19149" data-name="Tracé 19149" d="M442.22,260.137a1.017,1.017,0,0,1-1.019-1.016V239.468a1.02,1.02,0,0,1,2.04,0v19.653A1.019,1.019,0,0,1,442.22,260.137Z" transform="translate(-441.201 -238.452)" fill="#fff"/>
    </g>
    <g id="Groupe_1967" data-name="Groupe 1967" transform="translate(550.908 4108.265)">
      <path id="Tracé_19150" data-name="Tracé 19150" d="M444.745,236.974v0Z" transform="translate(-443.724 -235.958)" fill="#fff"/>
      <path id="Tracé_19151" data-name="Tracé 19151" d="M445.389,258.308a1.019,1.019,0,0,1-1.021-1.016V237.615a1.02,1.02,0,0,1,2.04,0v19.677A1.017,1.017,0,0,1,445.389,258.308Z" transform="translate(-444.368 -236.599)" fill="#fff"/>
    </g>
    <g id="Groupe_1968" data-name="Groupe 1968" transform="translate(559.491 4103.245)">
      <path id="Tracé_19152" data-name="Tracé 19152" d="M447.913,235.121v0Z" transform="translate(-446.892 -234.105)" fill="#fff"/>
      <path id="Tracé_19153" data-name="Tracé 19153" d="M448.555,256.482a1.019,1.019,0,0,1-1.019-1.016v-19.7a1.02,1.02,0,0,1,2.04,0v19.7A1.019,1.019,0,0,1,448.555,256.482Z" transform="translate(-447.536 -234.746)" fill="#fff"/>
    </g>
    <g id="Groupe_1969" data-name="Groupe 1969" transform="translate(568.074 4098.225)">
      <path id="Tracé_19154" data-name="Tracé 19154" d="M451.08,233.268v0Z" transform="translate(-450.061 -232.252)" fill="#fff"/>
      <path id="Tracé_19155" data-name="Tracé 19155" d="M451.723,254.653a1.017,1.017,0,0,1-1.019-1.016V233.909a1.019,1.019,0,0,1,2.037,0v19.728A1.017,1.017,0,0,1,451.723,254.653Z" transform="translate(-450.704 -232.893)" fill="#fff"/>
    </g>
    <g id="Groupe_1970" data-name="Groupe 1970" transform="translate(576.653 4093.205)">
      <path id="Tracé_19156" data-name="Tracé 19156" d="M454.248,231.415v0Z" transform="translate(-453.227 -230.399)" fill="#fff"/>
      <path id="Tracé_19157" data-name="Tracé 19157" d="M454.89,252.827a1.019,1.019,0,0,1-1.019-1.016V232.056a1.02,1.02,0,0,1,2.04,0v19.756A1.019,1.019,0,0,1,454.89,252.827Z" transform="translate(-453.871 -231.04)" fill="#fff"/>
    </g>
    <g id="Groupe_1971" data-name="Groupe 1971" transform="translate(585.236 4088.182)">
      <path id="Tracé_19158" data-name="Tracé 19158" d="M457.415,229.562v0Z" transform="translate(-456.396 -228.543)" fill="#fff"/>
      <path id="Tracé_19159" data-name="Tracé 19159" d="M458.058,251a1.015,1.015,0,0,1-1.019-1.013V230.2a1.019,1.019,0,0,1,2.037,0v19.785A1.015,1.015,0,0,1,458.058,251Z" transform="translate(-457.039 -229.186)" fill="#fff"/>
    </g>
    <g id="Groupe_1972" data-name="Groupe 1972" transform="translate(593.816 4083.161)">
      <path id="Tracé_19160" data-name="Tracé 19160" d="M460.583,227.708v0Z" transform="translate(-459.562 -226.692)" fill="#fff"/>
      <path id="Tracé_19161" data-name="Tracé 19161" d="M461.227,249.172a1.017,1.017,0,0,1-1.021-1.013v-19.81a1.02,1.02,0,0,1,2.04,0v19.81A1.016,1.016,0,0,1,461.227,249.172Z" transform="translate(-460.206 -227.333)" fill="#fff"/>
    </g>
    <g id="Groupe_1973" data-name="Groupe 1973" transform="translate(602.399 4078.141)">
      <path id="Tracé_19162" data-name="Tracé 19162" d="M463.75,225.855v0Z" transform="translate(-462.731 -224.839)" fill="#fff"/>
      <path id="Tracé_19163" data-name="Tracé 19163" d="M464.393,247.346a1.017,1.017,0,0,1-1.019-1.016V226.5a1.02,1.02,0,0,1,2.04,0V246.33A1.019,1.019,0,0,1,464.393,247.346Z" transform="translate(-463.374 -225.48)" fill="#fff"/>
    </g>
    <g id="Groupe_1984" data-name="Groupe 1984" transform="translate(516.748 4124.019)">
      <g id="Groupe_1975" data-name="Groupe 1975" transform="translate(0 40.164)">
        <path id="Tracé_19164" data-name="Tracé 19164" d="M432.135,257.614v0Z" transform="translate(-431.116 -256.598)" fill="#fff"/>
        <path id="Tracé_19165" data-name="Tracé 19165" d="M432.778,278.9a1.017,1.017,0,0,1-1.019-1.016V258.255a1.02,1.02,0,0,1,2.04,0v19.628A1.019,1.019,0,0,1,432.778,278.9Z" transform="translate(-431.759 -257.239)" fill="#fff"/>
      </g>
      <g id="Groupe_1976" data-name="Groupe 1976" transform="translate(8.58 35.144)">
        <path id="Tracé_19166" data-name="Tracé 19166" d="M435.3,255.761v0Z" transform="translate(-434.282 -254.745)" fill="#fff"/>
        <path id="Tracé_19167" data-name="Tracé 19167" d="M435.947,277.071a1.019,1.019,0,0,1-1.021-1.016V256.4a1.02,1.02,0,0,1,2.04,0v19.653A1.017,1.017,0,0,1,435.947,277.071Z" transform="translate(-434.926 -255.386)" fill="#fff"/>
      </g>
      <g id="Groupe_1977" data-name="Groupe 1977" transform="translate(17.163 30.124)">
        <path id="Tracé_19168" data-name="Tracé 19168" d="M438.47,253.908v0Z" transform="translate(-437.451 -252.892)" fill="#fff"/>
        <path id="Tracé_19169" data-name="Tracé 19169" d="M439.113,275.242a1.019,1.019,0,0,1-1.019-1.016V254.549a1.02,1.02,0,0,1,2.04,0v19.677A1.019,1.019,0,0,1,439.113,275.242Z" transform="translate(-438.094 -253.533)" fill="#fff"/>
      </g>
      <g id="Groupe_1978" data-name="Groupe 1978" transform="translate(25.746 25.103)">
        <path id="Tracé_19170" data-name="Tracé 19170" d="M441.638,252.055v0Z" transform="translate(-440.619 -251.039)" fill="#fff"/>
        <path id="Tracé_19171" data-name="Tracé 19171" d="M442.281,273.416a1.017,1.017,0,0,1-1.019-1.016V252.693a1.019,1.019,0,0,1,2.037,0V272.4A1.017,1.017,0,0,1,442.281,273.416Z" transform="translate(-441.262 -251.68)" fill="#fff"/>
      </g>
      <g id="Groupe_1979" data-name="Groupe 1979" transform="translate(34.326 20.081)">
        <path id="Tracé_19172" data-name="Tracé 19172" d="M444.8,250.2v0Z" transform="translate(-443.786 -249.185)" fill="#fff"/>
        <path id="Tracé_19173" data-name="Tracé 19173" d="M445.45,271.589a1.019,1.019,0,0,1-1.021-1.016V250.842a1.02,1.02,0,0,1,2.04,0v19.731A1.019,1.019,0,0,1,445.45,271.589Z" transform="translate(-444.429 -249.826)" fill="#fff"/>
      </g>
      <g id="Groupe_1980" data-name="Groupe 1980" transform="translate(42.908 15.06)">
        <path id="Tracé_19174" data-name="Tracé 19174" d="M447.973,248.348v0Z" transform="translate(-446.954 -247.332)" fill="#fff"/>
        <path id="Tracé_19175" data-name="Tracé 19175" d="M448.616,269.763a1.017,1.017,0,0,1-1.019-1.016V248.989a1.02,1.02,0,0,1,2.04,0v19.758A1.019,1.019,0,0,1,448.616,269.763Z" transform="translate(-447.597 -247.973)" fill="#fff"/>
      </g>
      <g id="Groupe_1981" data-name="Groupe 1981" transform="translate(51.488 10.04)">
        <path id="Tracé_19176" data-name="Tracé 19176" d="M451.14,246.5v0Z" transform="translate(-450.121 -245.479)" fill="#fff"/>
        <path id="Tracé_19177" data-name="Tracé 19177" d="M451.785,267.935a1.019,1.019,0,0,1-1.021-1.016V247.136a1.02,1.02,0,0,1,2.04,0v19.783A1.017,1.017,0,0,1,451.785,267.935Z" transform="translate(-450.764 -246.12)" fill="#fff"/>
      </g>
      <g id="Groupe_1982" data-name="Groupe 1982" transform="translate(60.071 5.023)">
        <path id="Tracé_19178" data-name="Tracé 19178" d="M454.308,244.642v0Z" transform="translate(-453.289 -243.629)" fill="#fff"/>
        <path id="Tracé_19179" data-name="Tracé 19179" d="M454.951,266.107a1.019,1.019,0,0,1-1.019-1.016V245.284a1.02,1.02,0,0,1,2.04,0v19.807A1.019,1.019,0,0,1,454.951,266.107Z" transform="translate(-453.932 -244.268)" fill="#fff"/>
      </g>
      <g id="Groupe_1983" data-name="Groupe 1983" transform="translate(68.654)">
        <path id="Tracé_19180" data-name="Tracé 19180" d="M457.476,242.789v0Z" transform="translate(-456.457 -241.773)" fill="#fff"/>
        <path id="Tracé_19181" data-name="Tracé 19181" d="M458.119,264.28a1.017,1.017,0,0,1-1.019-1.016V243.43a1.019,1.019,0,0,1,2.037,0v19.834A1.017,1.017,0,0,1,458.119,264.28Z" transform="translate(-457.1 -242.414)" fill="#fff"/>
      </g>
    </g>
  </g>
</svg>
