<svg xmlns="http://www.w3.org/2000/svg" width="307.658" height="382.944" viewBox="0 0 307.658 382.944">
  <g id="Groupe_1419" data-name="Groupe 1419" transform="translate(0 0)">
    <path id="Tracé_15550" data-name="Tracé 15550" d="M2904.161,1565.191V1370.024c-72.161-37.249-138.462-71.605-204.725-105.944l-66.066-34.236v195q68.555,35.52,137.2,71.09Q2837.354,1530.547,2904.161,1565.191Z" transform="translate(-2615.004 -1189.772)" fill="#01e3a6" fill-rule="evenodd"/>
    <path id="Tracé_15551" data-name="Tracé 15551" d="M2677.877,1343.81a3.7,3.7,0,0,1-7.357,0v-27.495a3.7,3.7,0,0,1,7.357,0Z" transform="translate(-2520.301 -1008.085)" fill="#fff" fill-rule="evenodd"/>
    <path id="Tracé_15552" data-name="Tracé 15552" d="M2914.74,1373.53v201.038a3.506,3.506,0,0,1-3.677,3.3,3.983,3.983,0,0,1-2.062-.568q-68.855-35.707-137.7-71.387-68.949-35.729-137.826-71.411a3.248,3.248,0,0,1-1.832-2.85h-.01V1230.787a3.508,3.508,0,0,1,3.684-3.3,3.948,3.948,0,0,1,2.128.611l70.706,36.625c70.107,36.329,140.258,72.676,204.734,105.96a3.237,3.237,0,0,1,1.837,2.85Zm-7.358,195.323V1375.426c-71.518-36.923-137.231-70.973-202.908-105l-65.479-33.931v193.266q67.954,35.2,135.987,70.459Q2841.165,1534.516,2907.381,1568.853Z" transform="translate(-2619.426 -1194.925)" fill="#fff" fill-rule="evenodd"/>
    <path id="Tracé_15553" data-name="Tracé 15553" d="M2929.528,1400.014v-26.126q-150.484-77.922-300.3-155.6v26.259Q2779.309,1322.264,2929.528,1400.014Z" transform="translate(-2625.549 -1215.004)" fill="#01e3a6" fill-rule="evenodd"/>
    <path id="Tracé_15554" data-name="Tracé 15554" d="M2928.492,1396.576v-18.543c-64.577-33.44-105.879-54.846-147.281-76.307-55.149-28.586-110.331-57.183-145.653-75.478v18.67c55.878,28.935,70.485,36.5,87.562,45.351,70.5,36.525,141.021,73.067,205.372,106.306Zm7.36-20.432v26.126h-.014a2.991,2.991,0,0,1-.493,1.636,3.893,3.893,0,0,1-5,1.214c-75.043-38.756-142.97-73.953-210.908-109.151l-89.088-46.159a3.307,3.307,0,0,1-2.154-3v-26.258h.018a2.992,2.992,0,0,1,.49-1.637,3.9,3.9,0,0,1,5-1.217c65.892,34.121,108.489,56.2,151.188,78.331,57.341,29.721,114.851,59.527,148.8,77.112A3.308,3.308,0,0,1,2935.853,1376.145Z" transform="translate(-2628.195 -1217.26)" fill="#fff" fill-rule="evenodd"/>
    <path id="Tracé_15555" data-name="Tracé 15555" d="M2783.849,1458.94l-145.193-75.214V1241.708l145.192,75.214V1458.94Z" transform="translate(-2601.527 -1163.855)" fill="#01e3a6" fill-rule="evenodd"/>
    <path id="Tracé_15556" data-name="Tracé 15556" d="M2784.3,1463.279l-144.933-75.073a2.844,2.844,0,0,1-1.611-2.5h-.013V1243.691a3.073,3.073,0,0,1,3.224-2.891,3.469,3.469,0,0,1,1.8.494l145,75.115a2.814,2.814,0,0,1,1.6,2.665l.007,108.845h.012v33a3.075,3.075,0,0,1-3.228,2.9,3.449,3.449,0,0,1-1.863-.539ZM2644.2,1384.056l138.746,71.867v-28h.017l-.006-107.345L2644.2,1248.7Z" transform="translate(-2603.846 -1165.838)" fill="#fff" fill-rule="evenodd"/>
    <path id="Tracé_15557" data-name="Tracé 15557" d="M2651.626,1282.652h0c4.105,2.131,7.463,7.35,7.463,11.6h0c0,4.239-3.358,5.968-7.463,3.835h0c-4.1-2.131-7.44-7.341-7.44-11.575h0C2644.186,1282.257,2647.525,1280.52,2651.626,1282.652Z" transform="translate(-2587.43 -1076.405)" fill="#01e3a6" fill-rule="evenodd"/>
    <path id="Tracé_15558" data-name="Tracé 15558" d="M2655.554,1282.137a17.658,17.658,0,0,1,6.441,6.069,15.422,15.422,0,0,1,2.63,8.032,8.147,8.147,0,0,1-1.221,4.464,6.7,6.7,0,0,1-2.59,2.337,7.637,7.637,0,0,1-3.548.844,10.782,10.782,0,0,1-4.936-1.312,17.53,17.53,0,0,1-6.425-6.061,15.368,15.368,0,0,1-2.627-8.015,8.188,8.188,0,0,1,1.223-4.487,6.733,6.733,0,0,1,2.589-2.337,7.647,7.647,0,0,1,3.54-.84,10.74,10.74,0,0,1,4.924,1.305Zm.872,8.942a11.388,11.388,0,0,0-4.1-3.946,3.866,3.866,0,0,0-1.7-.513.839.839,0,0,0-.344.048.692.692,0,0,0-.216.232,3.006,3.006,0,0,0-.345,1.6,10.008,10.008,0,0,0,1.745,5.147,11.405,11.405,0,0,0,4.084,3.935,3.9,3.9,0,0,0,1.713.516.8.8,0,0,0,.349-.05.624.624,0,0,0,.217-.236,2.893,2.893,0,0,0,.344-1.57A9.991,9.991,0,0,0,2656.426,1291.079Z" transform="translate(-2589.746 -1078.39)" fill="#fff" fill-rule="evenodd"/>
    <path id="Tracé_15559" data-name="Tracé 15559" d="M2659.619,1279.019h0c4.106,2.134,7.46,7.353,7.46,11.588h0c0,4.254-3.354,5.97-7.46,3.837h0c-4.1-2.13-7.439-7.327-7.439-11.578h0C2652.18,1278.627,2655.52,1276.885,2659.619,1279.019Z" transform="translate(-2567.053 -1084.344)" fill="#01e3a6" fill-rule="evenodd"/>
    <path id="Tracé_15560" data-name="Tracé 15560" d="M2663.552,1278.5a17.62,17.62,0,0,1,6.433,6.07,15.387,15.387,0,0,1,2.633,8.021,8.157,8.157,0,0,1-1.221,4.471,6.736,6.736,0,0,1-2.584,2.334,7.656,7.656,0,0,1-3.545.837,10.77,10.77,0,0,1-4.944-1.312,17.569,17.569,0,0,1-6.432-6.053,15.351,15.351,0,0,1-2.623-8.022,8.13,8.13,0,0,1,1.224-4.475,6.673,6.673,0,0,1,2.585-2.334,7.615,7.615,0,0,1,3.54-.84,10.77,10.77,0,0,1,4.932,1.3Zm.869,8.939a11.413,11.413,0,0,0-4.1-3.939,3.835,3.835,0,0,0-1.7-.516.859.859,0,0,0-.342.048.64.64,0,0,0-.215.236,2.922,2.922,0,0,0-.346,1.579,9.959,9.959,0,0,0,1.745,5.149,11.313,11.313,0,0,0,4.09,3.932,3.921,3.921,0,0,0,1.716.519.84.84,0,0,0,.343-.047.631.631,0,0,0,.218-.233,2.94,2.94,0,0,0,.34-1.576A10.016,10.016,0,0,0,2664.422,1287.44Z" transform="translate(-2569.37 -1086.327)" fill="#fff" fill-rule="evenodd"/>
    <path id="Tracé_15561" data-name="Tracé 15561" d="M2677.12,1267.849h0c4.1,2.137,7.457,7.354,7.457,11.592h0c0,4.251-3.36,5.968-7.457,3.834h0c-4.1-2.131-7.445-7.328-7.445-11.576h0C2669.675,1267.462,2673.015,1265.72,2677.12,1267.849Z" transform="translate(-2522.456 -1108.736)" fill="#01e3a6" fill-rule="evenodd"/>
    <path id="Tracé_15562" data-name="Tracé 15562" d="M2681.045,1267.338a17.573,17.573,0,0,1,6.438,6.063,15.4,15.4,0,0,1,2.633,8.029,8.1,8.1,0,0,1-1.221,4.467,6.665,6.665,0,0,1-2.585,2.335,7.628,7.628,0,0,1-3.546.84,10.821,10.821,0,0,1-4.944-1.312,17.616,17.616,0,0,1-6.431-6.057,15.414,15.414,0,0,1-2.622-8.018,8.165,8.165,0,0,1,1.221-4.477,6.75,6.75,0,0,1,2.587-2.338,7.658,7.658,0,0,1,3.542-.838,10.767,10.767,0,0,1,4.927,1.306Zm.871,8.936a11.351,11.351,0,0,0-4.1-3.94,3.849,3.849,0,0,0-1.7-.516.867.867,0,0,0-.341.048.657.657,0,0,0-.216.232,2.924,2.924,0,0,0-.344,1.587,10.009,10.009,0,0,0,1.74,5.148,11.428,11.428,0,0,0,4.089,3.933,3.956,3.956,0,0,0,1.718.516.856.856,0,0,0,.346-.048.63.63,0,0,0,.217-.232,2.965,2.965,0,0,0,.341-1.573A9.995,9.995,0,0,0,2681.916,1276.274Z" transform="translate(-2524.771 -1110.72)" fill="#fff" fill-rule="evenodd"/>
    <path id="Tracé_19018" data-name="Tracé 19018" d="M0,0,18.52.832,18.8,6.77.282,5.938Z" transform="matrix(0.872, -0.489, 0.489, 0.872, 68.488, 209.747)" fill="#fff"/>
    <path id="Tracé_19019" data-name="Tracé 19019" d="M0,0,31.433,1.656l.316,6.192L.316,6.192Z" transform="matrix(0.596, -0.803, 0.803, 0.596, 128.278, 194.085)" fill="#fff"/>
    <path id="Tracé_15563" data-name="Tracé 15563" d="M2668.782,1277.544h0c4.107,2.13,7.461,7.353,7.461,11.588h0c0,4.251-3.355,5.968-7.461,3.838h0c-4.1-2.134-7.437-7.328-7.437-11.583h0C2661.345,1277.152,2664.684,1275.41,2668.782,1277.544Z" transform="translate(-2543.692 -1087.565)" fill="#01e3a6" fill-rule="evenodd"/>
    <path id="Tracé_15564" data-name="Tracé 15564" d="M2672.719,1277.032a17.638,17.638,0,0,1,6.438,6.064,15.393,15.393,0,0,1,2.634,8.021,8.1,8.1,0,0,1-1.229,4.471,6.664,6.664,0,0,1-2.582,2.334,7.638,7.638,0,0,1-3.543.841,10.76,10.76,0,0,1-4.94-1.309,17.6,17.6,0,0,1-6.435-6.06,15.387,15.387,0,0,1-2.627-8.021,8.117,8.117,0,0,1,1.228-4.471,6.686,6.686,0,0,1,2.583-2.338,7.636,7.636,0,0,1,3.544-.84,10.736,10.736,0,0,1,4.929,1.308Zm.864,8.932a11.381,11.381,0,0,0-4.086-3.939,3.9,3.9,0,0,0-1.707-.515.794.794,0,0,0-.344.05.693.693,0,0,0-.216.233,3,3,0,0,0-.342,1.579,9.961,9.961,0,0,0,1.743,5.153,11.322,11.322,0,0,0,4.088,3.929,3.864,3.864,0,0,0,1.718.522.841.841,0,0,0,.344-.048.7.7,0,0,0,.218-.233,2.979,2.979,0,0,0,.341-1.58A9.98,9.98,0,0,0,2673.583,1285.964Z" transform="translate(-2546.01 -1089.55)" fill="#fff" fill-rule="evenodd"/>
    <path id="Tracé_15565" data-name="Tracé 15565" d="M2676.958,1284.432l-19.581,3.916-1.385-5.629,19.58-3.912Z" transform="translate(-2557.336 -1082.814)" fill="#fff" fill-rule="evenodd"/>
    <path id="Tracé_15566" data-name="Tracé 15566" d="M2645.375,1300.574a2.928,2.928,0,0,0,2.155,2.729,3.19,3.19,0,0,0,4.292-2.729V1289a2.933,2.933,0,0,0-2.153-2.73,3.193,3.193,0,0,0-4.295,2.73Z" transform="translate(-2584.401 -1066.871)" fill="#fff" fill-rule="evenodd"/>
    <path id="Tracé_15567" data-name="Tracé 15567" d="M2670.88,1374.881c0,2.555,3.433,3.857,5.491,2.057a2.737,2.737,0,0,0,.963-2.057l0-11.575c0-2.557-3.433-3.853-5.489-2.054a2.708,2.708,0,0,0-.963,2.054l0,11.575Zm6.434-98.374c0-2.557-3.431-3.856-5.491-2.057a2.746,2.746,0,0,0-.958,2.06l0,11.568c0,2.561,3.434,3.856,5.493,2.06a2.75,2.75,0,0,0,.957-2.06v-11.572Zm.006,28.934c0-2.557-3.436-3.857-5.49-2.058a2.729,2.729,0,0,0-.964,2.06l.007,11.57c0,2.56,3.429,3.857,5.487,2.057a2.728,2.728,0,0,0,.96-2.057v-11.572Zm0,28.931c0-2.557-3.432-3.853-5.491-2.054a2.724,2.724,0,0,0-.958,2.054v11.575c0,2.557,3.436,3.856,5.494,2.057a2.729,2.729,0,0,0,.957-2.057Z" transform="translate(-2519.426 -1094.156)" fill="#fff" fill-rule="evenodd"/>
    <path id="Tracé_15568" data-name="Tracé 15568" d="M2653.379,1321.856c0,2.7,3.779,3.926,5.712,1.841a2.7,2.7,0,0,0,.735-1.841l0-11.572c0-2.7-3.781-3.93-5.716-1.841a2.7,2.7,0,0,0-.732,1.841l0,11.572Zm6.433-36.638c0-2.7-3.78-3.926-5.71-1.836a2.7,2.7,0,0,0-.734,1.841v7.7c0,2.7,3.786,3.923,5.715,1.837a2.707,2.707,0,0,0,.735-1.84Z" transform="translate(-2564.026 -1075.121)" fill="#fff" fill-rule="evenodd"/>
    <path id="Tracé_15569" data-name="Tracé 15569" d="M2662.545,1343.7a2.905,2.905,0,0,0,1.947,2.663c2.132.815,4.5-.586,4.5-2.663v-11.572a2.9,2.9,0,0,0-1.958-2.659c-2.12-.818-4.493.586-4.493,2.659l0,11.572Zm6.435-59.951a2.9,2.9,0,0,0-1.952-2.658c-2.126-.818-4.5.586-4.5,2.658v2.087a2.9,2.9,0,0,0,1.955,2.659c2.126.818,4.494-.586,4.494-2.659v-2.087Zm0,19.446a2.9,2.9,0,0,0-1.953-2.656c-2.127-.822-4.5.583-4.5,2.66l0,11.572a2.9,2.9,0,0,0,1.953,2.659c2.125.818,4.5-.586,4.5-2.659Z" transform="translate(-2540.66 -1078.345)" fill="#fff" fill-rule="evenodd"/>
    <path id="Tracé_15570" data-name="Tracé 15570" d="M2687.253,1278a2.733,2.733,0,0,1-1.174-3.945,3.429,3.429,0,0,1,4.4-1.052l9.786,5.069a2.734,2.734,0,0,1,1.172,3.946,3.421,3.421,0,0,1-4.395,1.051Z" transform="translate(-2481.743 -1096.349)" fill="#fff" fill-rule="evenodd"/>
    <path id="Tracé_15571" data-name="Tracé 15571" d="M2692.766,1281.178a2.732,2.732,0,0,1-1.172-3.945,3.426,3.426,0,0,1,4.4-1.048l34.253,17.74a2.732,2.732,0,0,1,1.167,3.946,3.427,3.427,0,0,1-4.4,1.051Z" transform="translate(-2467.683 -1089.393)" fill="#fff" fill-rule="evenodd"/>
    <path id="Tracé_15572" data-name="Tracé 15572" d="M2687.262,1286.18a2.726,2.726,0,0,1-1.187-3.933,3.426,3.426,0,0,1,4.388-1.064l9.784,5.07a2.728,2.728,0,0,1,1.185,3.933,3.415,3.415,0,0,1-4.385,1.064Z" transform="translate(-2481.737 -1078.458)" fill="#fff" fill-rule="evenodd"/>
    <path id="Tracé_15573" data-name="Tracé 15573" d="M2692.777,1289.365a2.726,2.726,0,0,1-1.186-3.933,3.418,3.418,0,0,1,4.385-1.064l34.252,17.741a2.727,2.727,0,0,1,1.18,3.937,3.419,3.419,0,0,1-4.381,1.063Z" transform="translate(-2467.677 -1071.503)" fill="#fff" fill-rule="evenodd"/>
    <path id="Tracé_15574" data-name="Tracé 15574" d="M2687.253,1294.369a2.73,2.73,0,0,1-1.174-3.943,3.426,3.426,0,0,1,4.4-1.051l9.789,5.07a2.73,2.73,0,0,1,1.172,3.942,3.431,3.431,0,0,1-4.4,1.051Z" transform="translate(-2481.743 -1060.576)" fill="#fff" fill-rule="evenodd"/>
    <path id="Tracé_15575" data-name="Tracé 15575" d="M2692.774,1297.555a2.728,2.728,0,0,1-1.181-3.937,3.413,3.413,0,0,1,4.38-1.063l34.256,17.747a2.722,2.722,0,0,1,1.181,3.93,3.422,3.422,0,0,1-4.383,1.066Z" transform="translate(-2467.681 -1053.618)" fill="#fff" fill-rule="evenodd"/>
    <path id="Tracé_15576" data-name="Tracé 15576" d="M2687.262,1302.553a2.723,2.723,0,0,1-1.187-3.93,3.418,3.418,0,0,1,4.386-1.063l9.786,5.07a2.725,2.725,0,0,1,1.185,3.929,3.419,3.419,0,0,1-4.385,1.064Z" transform="translate(-2481.737 -1042.686)" fill="#0087ca" fill-rule="evenodd"/>
    <path id="Tracé_15577" data-name="Tracé 15577" d="M2692.766,1305.74a2.727,2.727,0,0,1-1.171-3.941,3.42,3.42,0,0,1,4.393-1.051l34.254,17.744a2.729,2.729,0,0,1,1.167,3.942,3.422,3.422,0,0,1-4.394,1.051Z" transform="translate(-2467.685 -1035.734)" fill="#fff" fill-rule="evenodd"/>
    <path id="Tracé_15578" data-name="Tracé 15578" d="M2687.25,1310.745a2.729,2.729,0,0,1-1.17-3.946,3.422,3.422,0,0,1,4.394-1.047l9.787,5.07a2.728,2.728,0,0,1,1.17,3.941,3.421,3.421,0,0,1-4.393,1.051Z" transform="translate(-2481.744 -1024.804)" fill="#0087ca" fill-rule="evenodd"/>
    <path id="Tracé_15579" data-name="Tracé 15579" d="M2692.766,1313.927a2.728,2.728,0,0,1-1.171-3.942,3.423,3.423,0,0,1,4.393-1.051l34.254,17.743a2.734,2.734,0,0,1,1.167,3.946,3.423,3.423,0,0,1-4.394,1.05Z" transform="translate(-2467.685 -1017.85)" fill="#fff" fill-rule="evenodd"/>
  </g>
</svg>
