<svg xmlns="http://www.w3.org/2000/svg" width="464.236" height="290.902" viewBox="0 0 464.236 290.902">
  <g id="Groupe_2243" data-name="Groupe 2243" transform="translate(-998.765 -4355.164)">
    <g id="Groupe_1400" data-name="Groupe 1400" transform="translate(1051.707 4355.164)">
      <path id="Tracé_14932" data-name="Tracé 14932" d="M2833.069,1517.61c12.365,0,22.39,3.592,22.39,8.021s-10.025,8.019-22.39,8.019-22.389-3.589-22.389-8.019S2820.7,1517.61,2833.069,1517.61Z" transform="translate(-2764.052 -1415.192)" fill="#fff" fill-rule="evenodd"/>
      <path id="Tracé_14934" data-name="Tracé 14934" d="M2807.9,1479.475l-2.2-3.221-4.925,3.307.082,1.446-3.84,3.493c1.042.909,1.924,1.532,5.152-.157C2804.892,1482.915,2804.875,1482.557,2807.9,1479.475Z" transform="translate(-2769.577 -1431.914)" fill="#00ffba" fill-rule="evenodd"/>
      <path id="Tracé_14935" data-name="Tracé 14935" d="M2806.63,1479.7l-.9-1.322-3.272,2.2.042.725a1.277,1.277,0,0,1-.415,1.01l-2.361,2.148a8.153,8.153,0,0,0,2.228-.879,11.336,11.336,0,0,0,3.848-3.01c.244-.258.517-.544.833-.871Zm.487-3.8,2.2,3.223a1.272,1.272,0,0,1-.145,1.61c-.615.625-1.115,1.151-1.536,1.592a13.177,13.177,0,0,1-4.518,3.506,7.775,7.775,0,0,1-4.078,1.2,3.974,3.974,0,0,1-2.5-1.2h0a1.1,1.1,0,0,1-.106-.1,1.275,1.275,0,0,1,.085-1.8l3.393-3.085-.047-.844a1.268,1.268,0,0,1,.563-1.124l4.914-3.3A1.273,1.273,0,0,1,2807.117,1475.9Z" transform="translate(-2769.944 -1432.281)" fill="#fff" fill-rule="evenodd"/>
      <path id="Tracé_14952" data-name="Tracé 14952" d="M2783.919,1489.422a1.27,1.27,0,1,1,1.268,2.2l-5.806,3.352a1.27,1.27,0,0,1-1.267-2.2Z" transform="translate(-2777.479 -1426.658)" fill="#143d66" fill-rule="evenodd"/>
      <path id="Tracé_14957" data-name="Tracé 14957" d="M2805.669,1486.894a2.062,2.062,0,0,1-.763.347,2.1,2.1,0,0,1-1.691-3.746l9.86-7.7,7.844-14.971c.521-1.25,3.451-2.927,5.369-1.83,1.815,1.036,1.647,3.675,1.09,4.653s-.166.269-.26.394l-10.054,14.2a3.2,3.2,0,0,1-.738.825.858.858,0,0,1-.169.112Z" transform="translate(-2767.426 -1439.035)" fill="#00ffba" fill-rule="evenodd"/>
      <path id="Tracé_14958" data-name="Tracé 14958" d="M2806.7,1488.347a3.26,3.26,0,0,1-.5.281,3.379,3.379,0,0,1-.643.221h-.007a3.371,3.371,0,0,1-4.034-2.528l0-.006a3.372,3.372,0,0,1,1.327-3.493l9.6-7.494,7.676-14.647a3.122,3.122,0,0,1,.147-.293,5.789,5.789,0,0,1,2.675-2.157l.072-.029a5.069,5.069,0,0,1,3.847-.154,3.91,3.91,0,0,1,.429.21,4.125,4.125,0,0,1,1.967,2.742,5.56,5.56,0,0,1-.4,3.648c-.081.14-.158.265-.234.379l0,.01a.141.141,0,0,1-.037.049c-.063.091-.126.176-.188.248l-9.865,13.938a4.311,4.311,0,0,1-.461.616,4.757,4.757,0,0,1-.622.579c-.094.066-.162.112-.213.144l-10.437,7.674c-.03.021-.061.041-.092.061Zm-1.551-2.031c.034-.017.07-.037.1-.054l10.465-7.694a1.24,1.24,0,0,1,.148-.106l.1-.057v0a1.786,1.786,0,0,0,.215-.209,1.351,1.351,0,0,0,.159-.208h0a1.115,1.115,0,0,1,.068-.106l9.99-14.116a1.444,1.444,0,0,1,.081-.121,2.367,2.367,0,0,1,.153-.183.109.109,0,0,1,.017-.077,2.789,2.789,0,0,0,.135-1.8,1.652,1.652,0,0,0-.75-1.109,1.418,1.418,0,0,0-.138-.07,2.591,2.591,0,0,0-1.9.148l-.051.024a3.192,3.192,0,0,0-1.46,1.081l-.016.028h0c-.014.033-.03.067-.045.1l-7.829,14.934a1.273,1.273,0,0,1-.361.449l-9.82,7.662c-.03.024-.058.047-.088.067a.834.834,0,0,0-.288.378.821.821,0,0,0-.042.421c.01.037.019.075.025.11a.813.813,0,0,0,.348.457.833.833,0,0,0,.571.116.887.887,0,0,1,.112-.026c.036-.011.069-.024.1-.035Zm10.836-7.924-.029.011v0Z" transform="translate(-2767.792 -1439.401)" fill="#fff" fill-rule="evenodd"/>
      <path id="Tracé_14959" data-name="Tracé 14959" d="M2819.076,1481.425a4.439,4.439,0,0,0-2.833,4.139c0,.125,0,.248.013.372l.053,24.433,1.331,23.816L2811.3,1538a1.569,1.569,0,0,0,.924,1.288,4.557,4.557,0,0,0,2.233.533l7.321-3.453a1.57,1.57,0,0,0,.924-1.289c0-.031,0-.062,0-.093l0-24.066.934-16.212,2.918,1.054,1.237,21.088,2.343,24.157-6.4,3.932a1.565,1.565,0,0,0,.924,1.289,4.563,4.563,0,0,0,2.232.534l7.257-3.405a1.957,1.957,0,0,0,.808-.8,2.59,2.59,0,0,0,.086-1.232l-.918-24.548.854-25.27c.011-.121.015-.246.015-.368,0-2.645-1.636-3.5-3.573-4.593l-4.693-2.654-3.591-2.031A4.625,4.625,0,0,0,2819.076,1481.425Z" transform="translate(-2763.802 -1429.94)" fill="#00ffba" fill-rule="evenodd"/>
      <path id="Tracé_14960" data-name="Tracé 14960" d="M2819.9,1482.978a3.16,3.16,0,0,0-2.018,2.952v.137l.011.135a1.333,1.333,0,0,1,0,.2l.05,24.265,1.331,23.815a1.278,1.278,0,0,1-.614,1.161v0l-5.1,3.07c.107.04.223.074.341.1a3.961,3.961,0,0,0,.65.091l7.009-3.307a.875.875,0,0,0,.225-.189.808.808,0,0,1,0-.144l0-23.98,0-.069,0,0,.937-16.212a1.271,1.271,0,0,1,1.339-1.2,1.211,1.211,0,0,1,.436.1l2.84,1.025a1.272,1.272,0,0,1,.841,1.128h0l1.234,21.088,2.341,24.106a1.27,1.27,0,0,1-.607,1.206l-5.179,3.184a2.944,2.944,0,0,0,.358.108,3.628,3.628,0,0,0,.655.092l6.927-3.248a1.033,1.033,0,0,0,.192-.15.24.24,0,0,0,.06-.07l0,0h0l-.022-.35c0-.056-.008-.109-.013-.282l-.92-24.549a.7.7,0,0,1,0-.109l.855-25.31h0l.013-.128v-.135c0-1.836-1.258-2.547-2.769-3.4l-.157-.088h0l-8.269-4.675a4.433,4.433,0,0,0-1.578-.547,2.865,2.865,0,0,0-1.406.178Zm-3.573-.27a5.756,5.756,0,0,1,2.654-2.1,5.385,5.385,0,0,1,2.623-.337,6.919,6.919,0,0,1,2.5.846h0c2.778,1.529,5.539,3.132,8.3,4.694v0l.148.083c2.225,1.256,4.073,2.3,4.073,5.613l-.021.474h0l-.851,25.158.917,24.51.014.2a2.924,2.924,0,0,1-.229,1.626h0a2.829,2.829,0,0,1-.568.783,3.63,3.63,0,0,1-.711.539,1.139,1.139,0,0,1-.136.075l-7.151,3.355a1.257,1.257,0,0,1-.642.174,6.594,6.594,0,0,1-1.5-.178,5.179,5.179,0,0,1-1.367-.53v0a3.449,3.449,0,0,1-1.083-.947l0,0a2.45,2.45,0,0,1-.482-1.44h0a1.271,1.271,0,0,1,.609-1.085l5.721-3.514-2.262-23.31c0-.037-.007-.073-.011-.11l-1.184-20.249-.524-.189-.838,14.508,0,23.911,0,.047c0,.042.005.088.005.13a2.436,2.436,0,0,1-.48,1.442l0,0,0,0a3.359,3.359,0,0,1-.994.9,1.6,1.6,0,0,1-.178.1l-7.242,3.414a1.269,1.269,0,0,1-.624.163,6.484,6.484,0,0,1-1.5-.179,5.142,5.142,0,0,1-1.366-.529l0,0a3.4,3.4,0,0,1-1.085-.947l0,0a2.429,2.429,0,0,1-.481-1.438,1.273,1.273,0,0,1,.616-1.091l5.686-3.424-1.288-23.05h0l0-.068c-.017-8.145.24-16.72-.069-24.805a5.7,5.7,0,0,1,.995-3.222Zm5.46,52.7v0Zm0,0v0Z" transform="translate(-2764.17 -1430.307)" fill="#fff" fill-rule="evenodd"/>
      <path id="Tracé_14961" data-name="Tracé 14961" d="M2817.639,1518.91l-6.342,3.818a1.567,1.567,0,0,0,.924,1.287,4.554,4.554,0,0,0,2.233.534l7.321-3.453a1.721,1.721,0,0,0,.895-1.043C2820.159,1520.426,2818.782,1520.39,2817.639,1518.91Z" transform="translate(-2763.802 -1414.666)" fill="#00ffba" fill-rule="evenodd"/>
      <path id="Tracé_14962" data-name="Tracé 14962" d="M2817.8,1520.89l-4.231,2.549a3.349,3.349,0,0,0,.341.1,4,4,0,0,0,.65.091l4.389-2.07a4.031,4.031,0,0,1-1.149-.674Zm-6.79,1.114,6.342-3.819,0,0a1.273,1.273,0,0,1,1.665.313,1.919,1.919,0,0,0,1.224.792,8.666,8.666,0,0,0,2.6-.131,1.276,1.276,0,0,1,1.44,1.548,2.617,2.617,0,0,1-.574,1.1,3.578,3.578,0,0,1-.9.741c-.039.021-.075.043-.115.061l-7.242,3.415a1.266,1.266,0,0,1-.624.163,6.5,6.5,0,0,1-1.5-.178,5.181,5.181,0,0,1-1.366-.53l0,0a3.4,3.4,0,0,1-1.085-.947l0,0a2.43,2.43,0,0,1-.481-1.438A1.27,1.27,0,0,1,2811.005,1522Z" transform="translate(-2764.17 -1415.032)" fill="#fff" fill-rule="evenodd"/>
      <path id="Tracé_14963" data-name="Tracé 14963" d="M2814.71,1506.177c-2.574-3.314,1.16-19.421,2.516-23.067l-1.351-6.854a28.086,28.086,0,0,1-.437-8.385l.508-5.579c.318-2.858,4.528-5.284,6.375-4.216l4.9,2.827,3.333,1.926c1.407.786,3.2,2.462,3.239,4.438l-.81,20.692,2.743,12.762c.038.165-.393,8.944-.549,11.676-.047.818.063,1.831-.706,2.275a6.816,6.816,0,0,1-5.3,0l-13.529-7.811A2.706,2.706,0,0,1,2814.71,1506.177Z" transform="translate(-2762.78 -1439.369)" fill="#00ffba" fill-rule="evenodd"/>
      <path id="Tracé_14964" data-name="Tracé 14964" d="M2814.067,1507.32c-1.242-1.6-1.339-5.172-.9-9.158a84.384,84.384,0,0,1,3.109-14.776l-1.285-6.52a29.388,29.388,0,0,1-.451-8.744l.512-5.6h0a5.043,5.043,0,0,1,.67-1.965,7.726,7.726,0,0,1,2.8-2.713,6.083,6.083,0,0,1,3.54-.906,3.236,3.236,0,0,1,1.27.406l.066.041,4.83,2.787h0l3.319,1.915a8.9,8.9,0,0,1,2.754,2.422,5.446,5.446,0,0,1,1.13,3.1v.074l-.8,20.526q1.356,6.306,2.713,12.616a1.31,1.31,0,0,1,.009.486c-.009.745-.064,2.195-.145,3.853-.129,2.771-.3,6.172-.387,7.669-.008.157-.013.255-.015.349-.028,1.071-.059,2.225-1.327,2.957a7.531,7.531,0,0,1-3.39.715,6.54,6.54,0,0,1-3.181-.715l-13.529-7.81a1.461,1.461,0,0,0-.154-.084l-.066-.038a3.161,3.161,0,0,1-1.082-.886Zm1.63-8.89c-.375,3.41-.389,6.339.385,7.335a1.065,1.065,0,0,0,.311.222l.035.017.033.02v0l-.033-.018.033.018v0l13.7,7.912a4.113,4.113,0,0,0,1.915.365,5.006,5.006,0,0,0,2.122-.365,4.517,4.517,0,0,0,.054-.814c.005-.172.01-.334.013-.43.089-1.545.262-4.938.389-7.65.1-2.073.2-3.621.19-3.666l-2.748-12.785h0a1.221,1.221,0,0,1-.027-.314l.809-20.658a3.01,3.01,0,0,0-.641-1.616,6.256,6.256,0,0,0-1.948-1.694l-3.347-1.935v0l-4.828-2.787-.072-.037a.7.7,0,0,0-.271-.077,3.564,3.564,0,0,0-1.994.577,5.146,5.146,0,0,0-1.867,1.785,2.517,2.517,0,0,0-.34.969h0l-.507,5.553a28.2,28.2,0,0,0-.091,4.029,27.817,27.817,0,0,0,.514,4l1.35,6.855h0a1.29,1.29,0,0,1-.058.687A78.438,78.438,0,0,0,2815.7,1498.43Z" transform="translate(-2763.144 -1439.735)" fill="#fff" fill-rule="evenodd"/>
      <path id="Tracé_14965" data-name="Tracé 14965" d="M2835.741,1486.047l-3.916.611.876,5.958,1.363.555,1.521,5.049,2.3-1.24C2837.523,1490.071,2837.666,1491.345,2835.741,1486.047Z" transform="translate(-2755.502 -1427.954)" fill="#00ffba" fill-rule="evenodd"/>
      <path id="Tracé_14966" data-name="Tracé 14966" d="M2835.271,1487.83l-1.637.255.588,4,.685.28a1.27,1.27,0,0,1,.739.813h0l1.073,3.551.218-.119,0-.051a39.556,39.556,0,0,0-.4-4.931,19.132,19.132,0,0,0-.965-2.993l-.3-.8Zm-3.276-2.063,3.858-.6a1.274,1.274,0,0,1,1.449.813c.3.822.489,1.327.651,1.765a20.957,20.957,0,0,1,1.085,3.393,40.888,40.888,0,0,1,.441,5.288l.041.8a1.271,1.271,0,0,1-.663,1.24l-2.258,1.215a1.2,1.2,0,0,1-.285.125,1.275,1.275,0,0,1-1.585-.857l-1.345-4.467-.692-.284a1.274,1.274,0,0,1-.885-1.034l-.876-5.957h0A1.271,1.271,0,0,1,2832,1485.767Z" transform="translate(-2755.868 -1428.321)" fill="#fff" fill-rule="evenodd"/>
      <path id="Tracé_14967" data-name="Tracé 14967" d="M2839.315,1494.833l-2.247-12.792c-.011-.068-.022-.133-.037-.2a2.512,2.512,0,0,0-.192-.567l-6.887-17.309-6.74,3.168,8.855,16.194,3.146,12.381a2.141,2.141,0,0,0,.333.773,2.1,2.1,0,0,0,3.769-1.649Z" transform="translate(-2758.984 -1436.884)" fill="#00ffba" fill-rule="evenodd"/>
      <path id="Tracé_14968" data-name="Tracé 14968" d="M2824.89,1474.338a1.271,1.271,0,1,1,2.232-1.216l5.443,9.961a1.262,1.262,0,0,1,.117.295h0l3.147,12.382c.01.035.017.072.025.109a.458.458,0,0,0,.035.1v0l.005,0a1.012,1.012,0,0,0,.043.093c.028.037.052.073.077.111a.812.812,0,0,0,.484.278.837.837,0,0,0,.56-.092,1.4,1.4,0,0,1,.118-.082.824.824,0,0,0,.235-.331.847.847,0,0,0,.037-.483l-2.258-12.843-.024-.155a1.376,1.376,0,0,0-.04-.143h0a1.359,1.359,0,0,0-.059-.143,1.407,1.407,0,0,1-.057-.144l-6.885-17.229a1.271,1.271,0,0,1,2.363-.936l6.881,17.223a3.5,3.5,0,0,1,.166.411h0v.005a3.647,3.647,0,0,1,.122.429l.03.15c.622,4.241,1.514,8.63,2.259,12.871a3.356,3.356,0,0,1-1.369,3.442l0,0a3.352,3.352,0,0,1-4.685-.829l0,0a3.218,3.218,0,0,1-.336-.594l0,0a3.116,3.116,0,0,1-.185-.543l-3.124-12.287Z" transform="translate(-2758.369 -1437.247)" fill="#fff" fill-rule="evenodd"/>
      <path id="Tracé_14969" data-name="Tracé 14969" d="M2825.265,1457.314h-5.674l-.416,5.395a1,1,0,0,0-.014.167,1.623,1.623,0,0,0,.958,1.333,5.1,5.1,0,0,0,4.618,0,1.625,1.625,0,0,0,.958-1.333,1.013,1.013,0,0,0-.014-.167Z" transform="translate(-2760.621 -1439.573)" fill="#00ffba" fill-rule="evenodd"/>
      <path id="Tracé_14970" data-name="Tracé 14970" d="M2824.453,1458.957h-3.312c-.03.373-.336,4.258-.329,4.267l0,0a.984.984,0,0,0,.31.251,3.872,3.872,0,0,0,3.343,0l.056-.029a.909.909,0,0,0,.253-.222l.007-.006-.33-4.26Zm-4.494-2.553h5.672a1.274,1.274,0,0,1,1.271,1.181l.413,5.341a2.311,2.311,0,0,1,.022.317h0a2.493,2.493,0,0,1-.41,1.349,1.186,1.186,0,0,1-.074.114,3.437,3.437,0,0,1-1.026.92l-.08.052a6.353,6.353,0,0,1-5.9,0,3.521,3.521,0,0,1-1.107-.972h0a2.48,2.48,0,0,1-.487-1.462h0a2.22,2.22,0,0,1,.023-.317l.407-5.282a1.276,1.276,0,0,1,1.275-1.241Zm4.83,6.839" transform="translate(-2760.99 -1439.941)" fill="#fff" fill-rule="evenodd"/>
      <path id="Tracé_14971" data-name="Tracé 14971" d="M2823.133,1446.859c3.063,0,5.968,2.455,5.693,5.529l-.6,6.745c-.252,2.84-1.8,5.528-5.072,5.528-3.131,0-4.787-2.5-5.074-5.528l-.636-6.745C2817.154,1449.359,2820,1446.859,2823.133,1446.859Z" transform="translate(-2761.327 -1443.8)" fill="#00ffba" fill-rule="evenodd"/>
      <path id="Tracé_14972" data-name="Tracé 14972" d="M2823.5,1445.951c.17,0,.381.011.626.033a7.4,7.4,0,0,1,4.384,1.97,6.042,6.042,0,0,1,1.979,4.4c0,.132-.01.3-.03.511l-.6,6.746a8.215,8.215,0,0,1-1.941,4.821,6.1,6.1,0,0,1-8.8,0,8.188,8.188,0,0,1-1.944-4.806l-.637-6.747c-.018-.211-.029-.389-.029-.538a6.036,6.036,0,0,1,1.939-4.358,7.373,7.373,0,0,1,4.375-1.99c.253-.024.48-.036.675-.036Zm.408,2.566c-.1-.01-.234-.013-.408-.013s-.323,0-.437.015a4.807,4.807,0,0,0-2.852,1.294,3.51,3.51,0,0,0-1.149,2.522c0,.13,0,.229.01.3l.637,6.746a5.679,5.679,0,0,0,1.284,3.321,3.564,3.564,0,0,0,5.048,0,5.664,5.664,0,0,0,1.282-3.314l.6-6.745c0-.062.006-.16.006-.293a3.53,3.53,0,0,0-1.167-2.555A4.831,4.831,0,0,0,2823.908,1448.517Z" transform="translate(-2761.695 -1444.168)" fill="#fff" fill-rule="evenodd"/>
      <path id="Tracé_14973" data-name="Tracé 14973" d="M2826.55,1523.77l-6.4,3.93a1.567,1.567,0,0,0,.925,1.29,4.57,4.57,0,0,0,2.232.533l7.255-3.405a1.944,1.944,0,0,0,.809-.8,1.238,1.238,0,0,0,.09-.269C2828.977,1525.41,2827.686,1525.239,2826.55,1523.77Z" transform="translate(-2760.222 -1412.701)" fill="#00ffba" fill-rule="evenodd"/>
      <path id="Tracé_14974" data-name="Tracé 14974" d="M2826.705,1525.761l-4.306,2.645a3.233,3.233,0,0,0,.359.109,3.609,3.609,0,0,0,.656.092l4.5-2.111a4.181,4.181,0,0,1-1.208-.734Zm-6.853,1.221,6.4-3.932a1.276,1.276,0,0,1,1.672.308,2.126,2.126,0,0,0,1.23.862,6.992,6.992,0,0,0,2.435-.055,1.274,1.274,0,0,1,1.486,1.5,2.049,2.049,0,0,1-.075.285,2.113,2.113,0,0,1-.12.288,2.718,2.718,0,0,1-.567.788,3.663,3.663,0,0,1-.712.539,1.14,1.14,0,0,1-.135.074l-7.152,3.355a1.265,1.265,0,0,1-.644.174,6.57,6.57,0,0,1-1.5-.179,5.152,5.152,0,0,1-1.367-.529v0a3.465,3.465,0,0,1-1.084-.947l0,0a2.455,2.455,0,0,1-.482-1.44h0A1.275,1.275,0,0,1,2819.853,1526.982Z" transform="translate(-2760.592 -1413.068)" fill="#fff" fill-rule="evenodd"/>
      <path id="Tracé_14975" data-name="Tracé 14975" d="M2819.971,1462.739a1.272,1.272,0,1,1,2.522.329c-.288,2.2-.472,3.624-.542,4.909a25.684,25.684,0,0,0,.123,4.043,1.271,1.271,0,0,1-2.532.23,28.194,28.194,0,0,1-.132-4.412C2819.483,1466.491,2819.673,1465.019,2819.971,1462.739Z" transform="translate(-2760.538 -1437.828)" fill="#fff" fill-rule="evenodd"/>
      <path id="Tracé_14976" data-name="Tracé 14976" d="M2824.8,1456.229l.056,4.941c.01,1.125,1.805,2.85,2.608,2.832l3.529.04-.123-9.054c-.07-5.19-2.562-9.4-7.308-9.4s-7.638,3.59-7.278,8.766c.017.251.036.486.059.705.192,1.894.405,3.343,2.2,4.584l-.637-6.745-.014-.651,1.339.769Z" transform="translate(-2761.797 -1444.313)" fill="#00ffba" fill-rule="evenodd"/>
      <path id="Tracé_14977" data-name="Tracé 14977" d="M2826.44,1456.586l.055,4.939a2.207,2.207,0,0,0,.656.976,3.522,3.522,0,0,0,.664.6l2.26.025-.106-7.753a10.2,10.2,0,0,0-1.8-6.1,5.159,5.159,0,0,0-4.235-2.036c-.205,0-.384.007-.541.017a5.558,5.558,0,0,0-3.994,1.916,6.108,6.108,0,0,0-1.148,2.179,1.281,1.281,0,0,1,.687.193l6.867,3.958a1.266,1.266,0,0,1,.637,1.091Zm-2.484,4.96-.048-4.211-4.2-2.418.468,4.957a1.272,1.272,0,0,1-1.987,1.187,5.642,5.642,0,0,1-2.16-2.619,10.517,10.517,0,0,1-.583-2.887l-.036-.361-.028-.383c-.023-.338-.034-.651-.034-.937a9.7,9.7,0,0,1,2.094-6.342,8.067,8.067,0,0,1,5.779-2.823c.252-.016.49-.026.71-.026a7.617,7.617,0,0,1,6.248,3.024,12.719,12.719,0,0,1,2.33,7.636l.123,9.078a1.268,1.268,0,0,1-1.279,1.261l-3.517-.04a4.068,4.068,0,0,1-2.52-1.373,4.4,4.4,0,0,1-1.361-2.694Z" transform="translate(-2762.164 -1444.681)" fill="#fff" fill-rule="evenodd"/>
    </g>
    <g id="Groupe_1411" data-name="Groupe 1411" transform="translate(998.765 4386.402)">
      <path id="Tracé_15308" data-name="Tracé 15308" d="M2903.341,1514.314c12.366,0,22.39,3.589,22.39,8.02s-10.024,8.019-22.39,8.019-22.389-3.591-22.389-8.019S2890.975,1514.314,2903.341,1514.314Z" transform="translate(-2880.295 -1404.605)" fill="#fff" fill-rule="evenodd"/>
      <path id="Tracé_15309" data-name="Tracé 15309" d="M2907.365,1472.311l2.261-3.182,4.865,3.4,2.187,2.012-6.043.651Z" transform="translate(-2869.616 -1422.875)" fill="#fff" fill-rule="evenodd"/>
      <path id="Tracé_15310" data-name="Tracé 15310" d="M2909.435,1472.478l.866-1.218,3.744,2.612.071.066-2.69.289-1.99-1.749Zm-.477-3.72-2.216,3.119a1.274,1.274,0,0,0,.148,1.758l3.271,2.876h0a1.267,1.267,0,0,0,.977.31l6.023-.649a1.274,1.274,0,0,0,.746-2.207l-2.186-2.011,0,0a1.3,1.3,0,0,0-.133-.107l-4.813-3.358-.041-.032A1.272,1.272,0,0,0,2908.958,1468.758Z" transform="translate(-2869.981 -1423.242)" fill="#143d66" fill-rule="evenodd"/>
      <path id="Tracé_15311" data-name="Tracé 15311" d="M2893.171,1516.832a1.463,1.463,0,0,1,0-2.771,5.311,5.311,0,0,1,4.8,0l6.306,3.642a1.463,1.463,0,0,1,0,2.771,5.31,5.31,0,0,1-4.8,0Z" transform="translate(-2875.757 -1404.939)" fill="#00ffba" fill-rule="evenodd"/>
      <path id="Tracé_15312" data-name="Tracé 15312" d="M2894.171,1516.1a1.068,1.068,0,0,1-.332-.277l-.009-.011.007-.006,0,0a1.064,1.064,0,0,1,.332-.276l.005,0v0a2.778,2.778,0,0,1,.756-.29,4.647,4.647,0,0,1,2.011,0,2.762,2.762,0,0,1,.754.29l.073.037,6.239,3.6a1.034,1.034,0,0,1,.333.277l.007.011,0,.007,0,0a1.1,1.1,0,0,1-.337.275l-.052.031a2.758,2.758,0,0,1-.705.258,4.261,4.261,0,0,1-1,.111,4.322,4.322,0,0,1-1.009-.111,2.847,2.847,0,0,1-.759-.29l-6.306-3.64Zm-2.4,1.209a3.606,3.606,0,0,0,1.137.993l6.306,3.641a5.409,5.409,0,0,0,1.438.559,6.811,6.811,0,0,0,3.188,0,5.383,5.383,0,0,0,1.357-.514l.086-.045a3.585,3.585,0,0,0,1.134-.994v0a2.47,2.47,0,0,0,.074-2.868c-.023-.038-.047-.076-.073-.114a3.618,3.618,0,0,0-1.141-.993l-6.235-3.6-.066-.041a5.4,5.4,0,0,0-1.442-.559,6.836,6.836,0,0,0-3.188,0,5.442,5.442,0,0,0-1.444.559v0a3.56,3.56,0,0,0-1.134.991l0,0a2.466,2.466,0,0,0-.077,2.869C2891.715,1517.233,2891.74,1517.269,2891.766,1517.307Z" transform="translate(-2876.124 -1405.306)" fill="#fff" fill-rule="evenodd"/>
      <path id="Tracé_15313" data-name="Tracé 15313" d="M2883.7,1522.183a1.463,1.463,0,0,1,0-2.772,5.306,5.306,0,0,1,4.8,0l6.307,3.642a1.462,1.462,0,0,1,0,2.77,5.3,5.3,0,0,1-4.8,0Z" transform="translate(-2879.587 -1402.776)" fill="#00ffba" fill-rule="evenodd"/>
      <path id="Tracé_15314" data-name="Tracé 15314" d="M2884.7,1521.448a1.027,1.027,0,0,1-.333-.276l-.008-.011,0-.006h0a1.038,1.038,0,0,1,.333-.275l0,0v0a2.924,2.924,0,0,1,.754-.29,4.751,4.751,0,0,1,2.014,0,2.905,2.905,0,0,1,.755.29l.071.038,6.24,3.6a1.036,1.036,0,0,1,.333.276l.009.011-.006.007,0,0a1.06,1.06,0,0,1-.337.275l-.051.031a2.933,2.933,0,0,1-.7.26,4.712,4.712,0,0,1-2.011,0,2.85,2.85,0,0,1-.76-.291l-6.305-3.64Zm-2.407,1.21a3.606,3.606,0,0,0,1.141.993l6.3,3.64a5.328,5.328,0,0,0,1.439.559,6.8,6.8,0,0,0,3.188,0,5.446,5.446,0,0,0,1.357-.514l.083-.045a3.535,3.535,0,0,0,1.135-.993v0a2.541,2.541,0,0,0,.5-1.492,2.513,2.513,0,0,0-.422-1.377.949.949,0,0,0-.074-.115,3.57,3.57,0,0,0-1.139-.992l-6.234-3.6-.066-.042a5.352,5.352,0,0,0-1.441-.558,6.837,6.837,0,0,0-3.191,0,5.408,5.408,0,0,0-1.443.558v0a3.569,3.569,0,0,0-1.136.993l0,0a2.539,2.539,0,0,0-.5,1.49,2.51,2.51,0,0,0,.426,1.379C2882.248,1522.581,2882.271,1522.619,2882.3,1522.658Z" transform="translate(-2879.953 -1403.143)" fill="#fff" fill-rule="evenodd"/>
      <path id="Tracé_15315" data-name="Tracé 15315" d="M2901.333,1473.5a4.774,4.774,0,0,1,3.047,4.449c0,.135,0,.27-.017.4l-.055,26.271c0,8.151-.7,17.067-1.043,25.291a1.682,1.682,0,0,1-.993,1.385,5.294,5.294,0,0,1-4.8,0,1.68,1.68,0,0,1-.993-1.385c-.024-8.454-.08-16.914-.08-25.368,0,0,.067.546-.452-3.63l-1.628-13.073-2.629,1.486-.683,22.807c-.3,8.427-.694,16.865-1.042,25.292a1.688,1.688,0,0,1-.994,1.385,5.3,5.3,0,0,1-4.8,0,1.687,1.687,0,0,1-.995-1.385c-.023-8.458-.08-16.915-.08-25.372l-1.549-26.194c-.01-.132-.017-.264-.017-.4,0-2.843,1.763-3.759,3.844-4.937l6.773-3.829,4.817-2.725A4.97,4.97,0,0,1,2901.333,1473.5Z" transform="translate(-2880.059 -1421.232)" fill="#00ffba" fill-rule="evenodd"/>
      <path id="Tracé_15316" data-name="Tracé 15316" d="M2901.239,1475.057a3.491,3.491,0,0,1,2.231,3.264l0,.148-.013.148a1.345,1.345,0,0,0,0,.208l-.055,26.167h-.006c0,5.485-.313,11.238-.619,16.9-.151,2.792-.3,5.562-.417,8.342v.049h0c0,.006-.005,0-.013.008l0,0,0,0a1.081,1.081,0,0,1-.337.277l-.05.03a2.864,2.864,0,0,1-.705.258,4.663,4.663,0,0,1-2.01,0,2.888,2.888,0,0,1-.76-.288,1.079,1.079,0,0,1-.333-.277l-.023-.031q-.014-4.718-.037-9.4c-.017-4.71-.038-9.409-.038-15.94a1.384,1.384,0,0,0-.016-.2l-2.073-16.659a1.276,1.276,0,0,0-1.422-1.111,1.238,1.238,0,0,0-.574.221l-2.524,1.425a1.273,1.273,0,0,0-.646,1.072h0l-.682,22.8c-.2,5.571-.442,11.228-.687,16.882-.116,2.747-.235,5.494-.355,8.4v.051h0c0,.007-.006-.005-.014.007l0,0,0,0a1.076,1.076,0,0,1-.336.277l-.052.031a2.842,2.842,0,0,1-.7.258,4.658,4.658,0,0,1-2.015,0,2.831,2.831,0,0,1-.758-.289,1.011,1.011,0,0,1-.333-.277l-.025-.032c-.008-3.15-.021-6.283-.036-9.416-.016-4.708-.037-9.416-.037-15.929a1.163,1.163,0,0,0-.012-.163l-1.545-26.135h0l-.014-.144v-.149c0-2.029,1.373-2.8,3.024-3.737l.169-.093v0l11.575-6.547a4.926,4.926,0,0,1,1.732-.6,3.215,3.215,0,0,1,1.557.2Zm3.728-.146a6.069,6.069,0,0,0-2.81-2.228,5.715,5.715,0,0,0-2.774-.357,7.351,7.351,0,0,0-2.656.9h0c-3.887,2.137-7.747,4.379-11.607,6.563v0l-.161.091c-2.364,1.334-4.33,2.446-4.33,5.949l.021.5h0l1.541,26.091c0,4.11.026,10.024.049,15.939.014,3.149.027,6.3.036,9.432h-.006a2.513,2.513,0,0,0,.425,1.379c.024.039.047.076.072.113a3.611,3.611,0,0,0,1.141.994,5.444,5.444,0,0,0,1.436.56,6.851,6.851,0,0,0,3.191,0,5.551,5.551,0,0,0,1.358-.514l.083-.046a3.556,3.556,0,0,0,1.135-.994l0,0a2.546,2.546,0,0,0,.5-1.49h0c.111-2.671.233-5.508.355-8.343.242-5.609.484-11.22.683-16.9l.663-22.1.349-.2,1.834,14.736c0,4.092.025,9.989.048,15.875.015,3.146.029,6.293.036,9.419h-.005a2.51,2.51,0,0,0,.424,1.38c.023.039.047.077.073.113a3.574,3.574,0,0,0,1.14.993,5.371,5.371,0,0,0,1.438.561,6.842,6.842,0,0,0,3.188,0,5.481,5.481,0,0,0,1.358-.516l.084-.045a3.542,3.542,0,0,0,1.135-.993l0,0a2.525,2.525,0,0,0,.5-1.49h0c.11-2.64.262-5.441.416-8.26.312-5.753.629-11.6.629-17.031h0c.019-8.765-.247-17.963.077-26.671A6.019,6.019,0,0,0,2904.967,1474.911Z" transform="translate(-2880.426 -1421.599)" fill="#fff" fill-rule="evenodd"/>
      <path id="Tracé_15317" data-name="Tracé 15317" d="M2888.928,1449.083a5.137,5.137,0,0,0,4.607.676c1.379-.546,1.555-1.738.391-2.659a5.142,5.142,0,0,0-4.607-.677C2887.935,1446.97,2887.761,1448.161,2888.928,1449.083Z" transform="translate(-2877.382 -1432.168)" fill="#fff" fill-rule="evenodd"/>
      <path id="Tracé_15318" data-name="Tracé 15318" d="M2888.506,1450.446a6.37,6.37,0,0,0,5.863.863,3.374,3.374,0,0,0,1.425-1.013,2.485,2.485,0,0,0,.52-1.175,2.441,2.441,0,0,0-.16-1.274,3.356,3.356,0,0,0-1.074-1.378,6.388,6.388,0,0,0-5.864-.862,3.357,3.357,0,0,0-1.423,1.013,2.4,2.4,0,0,0-.358,2.449,3.326,3.326,0,0,0,1.072,1.378Zm3.2-1.367a3.522,3.522,0,0,1-1.621-.626.251.251,0,1,1,.071-.483,3.929,3.929,0,0,1,3.354.493,1.044,1.044,0,0,1,.27.285,1.013,1.013,0,0,1-.342.2A3.5,3.5,0,0,1,2891.7,1449.079Z" transform="translate(-2877.75 -1432.534)" fill="#0087ca" fill-rule="evenodd"/>
      <path id="Tracé_15319" data-name="Tracé 15319" d="M2892.472,1452.8c-1.7-3.654,5.675-6.875,7.78-2.276l5.986,18.438,9.956,8.159c2.52,2.064-.361,5.265-2.416,3.825l-10.841-7.58a4.364,4.364,0,0,1-1.86-2.125Z" transform="translate(-2875.739 -1431.318)" fill="#29ffba" fill-rule="evenodd"/>
      <path id="Tracé_15320" data-name="Tracé 15320" d="M2893.994,1452.628a1.5,1.5,0,0,1,.494-1.755,3.63,3.63,0,0,1,1.014-.653,4.084,4.084,0,0,1,1.254-.315,2.585,2.585,0,0,1,2.673,1.439l6.085,18.735,10.242,8.394a1.09,1.09,0,0,1,.5,1.068,1.113,1.113,0,0,1-.2.409,1.234,1.234,0,0,1-.36.318.746.746,0,0,1-.82,0c-3.653-2.556-7.3-5.127-10.964-7.671a3.185,3.185,0,0,1-1.312-1.531l-8.6-18.442Zm-1.241-3.617a3.907,3.907,0,0,0-1.061,4.695l8.6,18.442a5.274,5.274,0,0,0,2.168,2.547l10.955,7.661a3.216,3.216,0,0,0,3.559.118,3.807,3.807,0,0,0,1.107-.987,3.65,3.65,0,0,0,.647-1.375,3.507,3.507,0,0,0-1.36-3.61l-9.668-7.924-5.889-18.132-.038-.082a5.019,5.019,0,0,0-5.231-3,6.56,6.56,0,0,0-2.051.524A6.163,6.163,0,0,0,2892.753,1449.011Z" transform="translate(-2876.108 -1431.686)" fill="#fff" fill-rule="evenodd"/>
      <path id="Tracé_15321" data-name="Tracé 15321" d="M2903.874,1487.983h0a1.858,1.858,0,0,0,1.152-1.926v-33.7c-.343-3.074-4.87-5.682-6.857-4.533l-9.671,5.584-3.587,2.07c-1.511.845-3.434,2.646-3.48,4.771v34.774a1.355,1.355,0,0,0,0,.633v.146l.038-.016c.149.438-.421.831.664,1.457a7.337,7.337,0,0,0,5.7,0l16.04-9.261Z" transform="translate(-2880.118 -1431.602)" fill="#29ffba" fill-rule="evenodd"/>
      <path id="Tracé_15322" data-name="Tracé 15322" d="M2904.771,1489.511a1.249,1.249,0,0,0,.223-.132,3.785,3.785,0,0,0,1.3-1.261,2.68,2.68,0,0,0,.376-1.784v-33.608a1.2,1.2,0,0,0-.022-.236,5.4,5.4,0,0,0-.694-1.98,8.2,8.2,0,0,0-2.981-2.881,6.429,6.429,0,0,0-3.746-.962,3.359,3.359,0,0,0-1.328.424l-13.241,7.645a9.47,9.47,0,0,0-2.933,2.575,5.783,5.783,0,0,0-1.2,3.281v34.647a2.538,2.538,0,0,0-.043.468,2.622,2.622,0,0,0,.036.434v.03a1.28,1.28,0,0,0,.042.319c-.1.682-.115,1.4,1.3,2.223a8.008,8.008,0,0,0,3.6.755,6.939,6.939,0,0,0,3.372-.755l15.937-9.2Zm-.662-2.7a1.242,1.242,0,0,1-.419.386,1.048,1.048,0,0,0-.188.112l-15.933,9.2a4.507,4.507,0,0,1-2.107.406,5.469,5.469,0,0,1-2.332-.406l-.033.232c.011-.075.022-.148.028-.224l.006-.009-.006.009a1.6,1.6,0,0,0-.05-.652c-.008-.041-.022-.083-.035-.126l0-.032,0-.022,0,0a1.347,1.347,0,0,0,.032-.293v-34.747a3.325,3.325,0,0,1,.71-1.835,6.867,6.867,0,0,1,2.123-1.849c.392-.26,1.441-.926,1.441-.926s8.025-4.541,11.833-6.738a.852.852,0,0,1,.329-.1,3.925,3.925,0,0,1,2.2.633,5.611,5.611,0,0,1,2.043,1.955,2.819,2.819,0,0,1,.367,1v33.635h.005a1.351,1.351,0,0,0,.025.259A.189.189,0,0,1,2904.109,1486.812Z" transform="translate(-2880.484 -1431.969)" fill="#fff" fill-rule="evenodd"/>
      <path id="Tracé_15323" data-name="Tracé 15323" d="M2887.646,1447.506h6.59l.484,6.265a1.479,1.479,0,0,1,.016.194,1.889,1.889,0,0,1-1.112,1.547,5.925,5.925,0,0,1-5.363,0,1.885,1.885,0,0,1-1.112-1.547,1.328,1.328,0,0,1,.015-.194Z" transform="translate(-2877.79 -1431.62)" fill="#00ffba" fill-rule="evenodd"/>
      <path id="Tracé_15324" data-name="Tracé 15324" d="M2889.2,1449.148h4.228l.393,5.084.01.1h.006a.239.239,0,0,1-.051.1h0a1.336,1.336,0,0,1-.424.35,4.728,4.728,0,0,1-4.089,0v0a1.383,1.383,0,0,1-.422-.35h-.005a.224.224,0,0,1-.05-.1h0l.01-.1.394-5.084Zm5.408-2.552h-7.769l-.57,7.393a2.574,2.574,0,0,0-.025.343h.006a2.68,2.68,0,0,0,.526,1.578l0,0a3.886,3.886,0,0,0,1.221,1.069H2888a7.152,7.152,0,0,0,6.632,0,3.881,3.881,0,0,0,1.223-1.067l0,0a2.7,2.7,0,0,0,.525-1.58h.007c0-.052-.005-.115-.011-.193,0-.053-.01-.1-.015-.148l-.572-7.395Zm-.776,7.735" transform="translate(-2878.157 -1431.987)" fill="#fff" fill-rule="evenodd"/>
      <path id="Tracé_15325" data-name="Tracé 15325" d="M2894.856,1437.388l-1.222-.18a5.619,5.619,0,0,0-6.451,4.8l-.721,6.907a5.79,5.79,0,0,0,4.8,6.451l.614.09a5.8,5.8,0,0,0,6.452-4.8l1.33-6.817A5.612,5.612,0,0,0,2894.856,1437.388Z" transform="translate(-2878.081 -1435.808)" fill="#00ffba" fill-rule="evenodd"/>
      <path id="Tracé_15326" data-name="Tracé 15326" d="M2895.408,1436.5l-1.224-.182c-.07-.011-.167-.022-.293-.034a7.085,7.085,0,0,0-4.916,1.335,6.6,6.6,0,0,0-2.659,4.356c-.009.062-.022.153-.034.272l-.718,6.909a7.345,7.345,0,0,0,1.39,5.147,6.788,6.788,0,0,0,4.49,2.693l.614.091a6.776,6.776,0,0,0,5.061-1.285,7.416,7.416,0,0,0,2.826-4.53l1.33-6.821c.02-.106.036-.2.05-.293a6.559,6.559,0,0,0-1.291-4.911,7.12,7.12,0,0,0-4.3-2.691c-.106-.021-.212-.04-.325-.056Zm-1.593,2.342,1.226.179.2.035h0a4.56,4.56,0,0,1,2.75,1.726,4.022,4.022,0,0,1,.8,3.007c-.01.069-.021.131-.03.183l-1.331,6.813a4.85,4.85,0,0,1-1.837,2.975,4.244,4.244,0,0,1-3.177.805l-.615-.089a4.246,4.246,0,0,1-2.815-1.688,4.807,4.807,0,0,1-.9-3.372l.719-6.909.022-.163a4.047,4.047,0,0,1,1.643-2.669,4.542,4.542,0,0,1,3.151-.858Z" transform="translate(-2878.448 -1436.174)" fill="#fff" fill-rule="evenodd"/>
      <path id="Tracé_15327" data-name="Tracé 15327" d="M2891.279,1437.371a5.486,5.486,0,0,0-4.106,4.656l-.721,6.906a6.487,6.487,0,0,0,3.874-4.966c4.623,1.24,6.216,1.21,9.376-1.72,1.242-.919,3.705-4.316,2.24-3.94-1.178.3-3.523-.428-5.534-.837A10.793,10.793,0,0,0,2891.279,1437.371Z" transform="translate(-2878.071 -1435.827)" fill="#00ffba" fill-rule="evenodd"/>
      <path id="Tracé_15328" data-name="Tracé 15328" d="M2891.313,1436.5a7.076,7.076,0,0,0-3.444,2.129,6.469,6.469,0,0,0-1.6,3.629l-.719,6.908a1.275,1.275,0,0,0,1.838,1.267,8.925,8.925,0,0,0,2.922-2.229,7.284,7.284,0,0,0,1.295-2.326,11.441,11.441,0,0,0,4.52.411,9.041,9.041,0,0,0,4.768-2.713,12.862,12.862,0,0,0,2.7-3.295,3.642,3.642,0,0,0,.4-1.025,1.44,1.44,0,0,0-.793-1.732,1.7,1.7,0,0,0-1.209-.087,11.08,11.08,0,0,1-3.441-.514c-.465-.109-.937-.219-1.528-.339a18,18,0,0,0-2.743-.383,9.522,9.522,0,0,0-2.969.3Zm-1.529,3.813a4.488,4.488,0,0,1,2.186-1.35,6.96,6.96,0,0,1,2.191-.218,15.333,15.333,0,0,1,2.356.333c.378.077.918.2,1.457.326a25.382,25.382,0,0,0,2.825.553,8.564,8.564,0,0,1-1.454,1.6,1.139,1.139,0,0,0-.146.118,6.919,6.919,0,0,1-3.47,2.1,12.006,12.006,0,0,1-4.659-.668,1.531,1.531,0,0,0-.158-.038,1.279,1.279,0,0,0-1.479,1.038,5.184,5.184,0,0,1-1.051,2.438l.42-4.031A3.932,3.932,0,0,1,2889.784,1440.317Z" transform="translate(-2878.438 -1436.193)" fill="#fff" fill-rule="evenodd"/>
      <path id="Tracé_15329" data-name="Tracé 15329" d="M2910.325,1474.107l-10.61,6.125,12.945-1.395,10.61-6.127Z" transform="translate(-2872.707 -1421.427)" fill="#00ffba" fill-rule="evenodd"/>
      <path id="Tracé_15330" data-name="Tracé 15330" d="M2910.026,1473.388l-10.581,6.107a1.273,1.273,0,0,0,.775,2.368l12.943-1.4a1.269,1.269,0,0,0,.575-.209l10.533-6.082a1.27,1.27,0,0,0-.766-2.364l0,0-12.943,1.4a1.26,1.26,0,0,0-.533.181Zm-4.086,5.3,5.157-2.975,6.69-.721-5.156,2.977Z" transform="translate(-2873.076 -1421.793)" fill="#fff" fill-rule="evenodd"/>
      <path id="Tracé_15331" data-name="Tracé 15331" d="M2902.279,1471.861a5.428,5.428,0,0,1,3.039-.117,3.154,3.154,0,0,1,1.422,2.1l4.791,2c-.265.475-.794,1.387-1.3,1.227-3.177-1-1.857.987-4.045.678-3.046-.43-3.149-.774-7.036-2.659l.993-3.775Z" transform="translate(-2872.938 -1421.992)" fill="#00ffba" fill-rule="evenodd"/>
      <path id="Tracé_15332" data-name="Tracé 15332" d="M2902.792,1473.494l2.237-.084,1.026,1.513a1.283,1.283,0,0,0,.563.46v0l1.514.632a2.772,2.772,0,0,0-.981.757c-.059.062-.116.124-.423.08a11.311,11.311,0,0,1-4.635-1.539c-.321-.161-.678-.341-1.081-.54l.406-1.545.915.233a1.289,1.289,0,0,0,.46.031Zm2.848-2.652-2.846.106-1.971-.5v0a1.273,1.273,0,0,0-1.544.91l-.989,3.757a1.275,1.275,0,0,0,.672,1.489c.809.39,1.447.713,1.984.984a13.159,13.159,0,0,0,5.434,1.788,2.489,2.489,0,0,0,2.626-.856c.09-.1.178-.191,1.212.133a1.9,1.9,0,0,0,2.086-.766,6.412,6.412,0,0,0,.707-1.054c.023-.044.045-.089.065-.135a1.274,1.274,0,0,0-.688-1.666l-4.445-1.856-1.172-1.73A1.265,1.265,0,0,0,2905.641,1470.842Z" transform="translate(-2873.304 -1422.358)" fill="#fff" fill-rule="evenodd"/>
      <path id="Tracé_15333" data-name="Tracé 15333" d="M2889.487,1456.108l-7.619,2.991,8.826,18.1a2.78,2.78,0,0,0,1.933,1.667c.069.016.137.029.205.041l13.7,2.753a2.255,2.255,0,1,0,1.053-4.386l-12.14-3.4Z" transform="translate(-2879.924 -1428.141)" fill="#29ffba" fill-rule="evenodd"/>
      <path id="Tracé_15334" data-name="Tracé 15334" d="M2883.313,1456.376a1.272,1.272,0,1,0-2.314-1.056,5.336,5.336,0,0,0-.1,4.221c.056.138.123.283.2.439.06.116.118.226.18.324l8.812,18.07a4.058,4.058,0,0,0,2.786,2.344c.13.032.107.03.146.039v-.006l13.748,2.76a3.527,3.527,0,1,0,1.655-6.857l-11.448-3.208-3.824-11.4a1.272,1.272,0,1,0-2.413.806l4.255,12.683c4.277,1.2,8.557,2.435,12.841,3.6a.978.978,0,0,1,.493.282.968.968,0,0,1,.25.512.978.978,0,0,1-.807,1.129,1.112,1.112,0,0,1-.2.012h0a.991.991,0,0,1-.19-.027c-4.515-.823-9.319-1.781-13.8-2.772l-.058-.009v-.006c-.108-.022.005.008-.056-.007a1.52,1.52,0,0,1-.631-.323,1.542,1.542,0,0,1-.417-.582l-.035-.085-8.845-18.135-.05-.081a2.361,2.361,0,0,1-.126-.218c-.031-.059-.064-.137-.1-.229a2.758,2.758,0,0,1,.048-2.217Z" transform="translate(-2880.473 -1428.76)" fill="#fff" fill-rule="evenodd"/>
      <path id="Tracé_15335" data-name="Tracé 15335" d="M2896.682,1483.309a1.27,1.27,0,1,0-1.266-2.2l-6.915,3.992a1.271,1.271,0,1,0,1.266,2.2Z" transform="translate(-2877.5 -1418.1)" fill="#fff" fill-rule="evenodd"/>
    </g>
    <g id="Groupe_1412" data-name="Groupe 1412" transform="translate(1072.041 4403.463)">
      <path id="Tracé_15337" data-name="Tracé 15337" d="M3240.764,1545.843v15.59c-.274,3.331-2.067,4.935-4.759,6.659l-147.046,84.9-55.693,32.154a25.545,25.545,0,0,1-23.06,0l-24.7-14.262-14.7-8.49-73.757-42.584-12.837-7.411-26.572-15.341c-2.691-1.718-4.493-3.329-4.763-6.658V1574.8c.27,3.329,2.072,4.941,4.763,6.66L2884.2,1596.8l12.837,7.41L2970.8,1646.8l14.7,8.492,24.7,14.262a25.552,25.552,0,0,0,23.06,0L3236,1552.5C3238.7,1550.779,3240.49,1549.173,3240.764,1545.843Z" transform="translate(-2851.337 -1446.818)" fill="#00ffba" fill-rule="evenodd"/>
      <path id="Tracé_15338" data-name="Tracé 15338" d="M3239.676,1552.47v9.349a5.476,5.476,0,0,1-1.138,3.037,11.506,11.506,0,0,1-2.858,2.355L3033,1684.225a21.2,21.2,0,0,1-5.22,1.971,26.054,26.054,0,0,1-11.212,0,21.114,21.114,0,0,1-5.159-1.934l-24.7-14.263-.086-.046-14.619-8.44v0l-73.758-42.585-.087-.047-12.75-7.362v0l-26.592-15.353a11.448,11.448,0,0,1-2.838-2.343,5.452,5.452,0,0,1-1.139-3.032v-9.354a19.913,19.913,0,0,0,2.413,1.757l.054.034v0l26.571,15.341.085.045,12.753,7.363v0l73.757,42.584.086.047,14.62,8.44v0l24.7,14.263c.048.028.1.052.145.074a24.067,24.067,0,0,0,5.876,2.194,31.786,31.786,0,0,0,6.238.683h.079a31.736,31.736,0,0,0,6.234-.683,24.136,24.136,0,0,0,5.961-2.232,1.531,1.531,0,0,0,.138-.081l202.661-117.006a1.534,1.534,0,0,0,.138-.09,19.824,19.824,0,0,0,2.327-1.7Zm3.061,9.4v-15.591a1.53,1.53,0,0,0-3.055-.126,5.519,5.519,0,0,1-1.145,3.107,11.417,11.417,0,0,1-2.838,2.344c-65.275,36.873-137.028,84.191-202.7,117.026a21.156,21.156,0,0,1-5.219,1.969,26.018,26.018,0,0,1-11.212,0,21.008,21.008,0,0,1-5.144-1.924l-24.717-14.271,0,0-14.623-8.444-.079-.05-73.758-42.584v0l-12.758-7.363-.079-.051-26.571-15.339a11.519,11.519,0,0,1-2.858-2.356,5.459,5.459,0,0,1-1.142-3.049,1.531,1.531,0,0,0-3.06.066v15.591l0,.121a8.447,8.447,0,0,0,1.8,4.764,14.223,14.223,0,0,0,3.585,3.007,1.214,1.214,0,0,0,.137.089l26.571,15.341,0,0,12.756,7.364.079.049,73.757,42.584,0,0,14.622,8.442.08.05,24.7,14.263,0,0,.058.032a24.1,24.1,0,0,0,5.959,2.239,31.678,31.678,0,0,0,6.216.684h.1a31.7,31.7,0,0,0,6.234-.684,24.072,24.072,0,0,0,5.961-2.232l0,0,.063-.034,202.738-117.051v0l.054-.034a14.338,14.338,0,0,0,3.664-3.06,8.418,8.418,0,0,0,1.8-4.695A1.716,1.716,0,0,0,3242.737,1561.874Z" transform="translate(-2851.777 -1447.259)" fill="#fff" fill-rule="evenodd"/>
      <path id="Tracé_15339" data-name="Tracé 15339" d="M3010.2,1697.622l-152.574-88.087c-6.346-3.665-6.346-9.65,0-13.315l202.74-117.051c6.346-3.665,16.713-3.665,23.061,0l24.7,14.263,14.708,8.489,73.756,42.584,12.837,7.412L3236,1567.258c6.357,3.668,6.348,9.648,0,13.314l-202.739,117.05C3026.918,1701.287,3016.559,1701.293,3010.2,1697.622Z" transform="translate(-2851.335 -1474.891)" fill="#00ffba" fill-rule="evenodd"/>
      <path id="Tracé_15340" data-name="Tracé 15340" d="M3011.41,1696.74l-152.572-88.086-.083-.044a8.883,8.883,0,0,1-3.284-3.055,4.281,4.281,0,0,1,0-4.47l.043-.076a8.994,8.994,0,0,1,3.317-3.027l0,0,0,0,202.738-117.049a24.071,24.071,0,0,1,21.529,0l39.407,22.752.087.045,86.509,49.947v0l26.571,15.341a8.933,8.933,0,0,1,3.37,3.105,4.235,4.235,0,0,1,0,4.461v0a8.935,8.935,0,0,1-3.363,3.105l0,0,0,0-202.736,117.05-.073.046a22.134,22.134,0,0,1-10.7,2.5v-.007a22.066,22.066,0,0,1-10.766-2.538l0,0Zm-154.1-85.444,152.573,88.09,0,0,.005,0a25.12,25.12,0,0,0,12.288,2.96v-.007a25.2,25.2,0,0,0,12.2-2.9l.095-.05,202.738-117.051v0a11.926,11.926,0,0,0,4.481-4.216l0,0,0,0a7.29,7.29,0,0,0,0-7.516,11.892,11.892,0,0,0-4.48-4.219l-26.572-15.341h0q-43.189-25.077-86.512-49.946l-.08-.049-39.409-22.754a27.052,27.052,0,0,0-24.592,0l-202.738,117.052v0a11.975,11.975,0,0,0-4.422,4.123l-.056.09a7.263,7.263,0,0,0,0,7.519,11.857,11.857,0,0,0,4.394,4.173Z" transform="translate(-2851.775 -1475.331)" fill="#fff" fill-rule="evenodd"/>
      <path id="Tracé_15341" data-name="Tracé 15341" d="M3063.538,1488.833l-193.03,111.445,138.843,80.161,193.027-111.446Q3132.959,1528.915,3063.538,1488.833Z" transform="translate(-2844.202 -1469.871)" fill="#00ffba" fill-rule="evenodd"/>
      <path id="Tracé_15342" data-name="Tracé 15342" d="M3063.195,1487.964,2870.187,1599.4a1.525,1.525,0,0,0,.017,2.653l138.826,80.151a1.523,1.523,0,0,0,1.54-.012l193.008-111.433a1.523,1.523,0,0,0-.015-2.652l-138.826-80.151a1.525,1.525,0,0,0-1.542.013ZM2874,1600.718l189.979-109.684,135.79,78.4L3009.79,1679.117Z" transform="translate(-2844.642 -1470.31)" fill="#fff" fill-rule="evenodd"/>
      <path id="Tracé_15343" data-name="Tracé 15343" d="M3090.223,1541.758l32.651-18.851-66.079-38.152-32.653,18.852,66.081,38.151Zm-52.115-37.514c7.133-4.118,12.656-7.305,19.786-11.423q25.508,14.724,51.011,29.449l-19.786,11.423Z" transform="translate(-2782.079 -1471.52)" fill="#00ffba" fill-rule="evenodd"/>
      <path id="Tracé_15344" data-name="Tracé 15344" d="M3091.511,1543.467l32.563-18.8a1.527,1.527,0,0,0-.013-2.653l-66.066-38.143a1.53,1.53,0,0,0-1.526,0v0l-32.653,18.853a1.528,1.528,0,0,0,.02,2.654l66.059,38.14a1.531,1.531,0,0,0,1.616-.052Zm28.753-20.121-29.6,17.089-63.028-36.39,29.6-17.09,63.027,36.391Zm-78.665-18.665,7.607-4.393v0l9.126-5.27,47.958,27.69-7.6,4.389,0,0-9.127,5.271c-52.826-30.5,1.509.874-37.036-21.38l-10.923-6.307Zm6.078-7.031v0l9.892-5.712a1.524,1.524,0,0,1,1.549.009l50.993,29.441a1.528,1.528,0,0,1-.088,2.691l-9.807,5.661v0l-9.891,5.711a1.529,1.529,0,0,1-1.549-.01c-48.032-27.733-46.776-27.01-41.321-23.861l-9.665-5.58a1.526,1.526,0,0,1,.012-2.653Z" transform="translate(-2782.519 -1471.959)" fill="#fff" fill-rule="evenodd"/>
      <path id="Tracé_15345" data-name="Tracé 15345" d="M3024.143,1509.067l66.081,38.151v-10.888l-66.079-38.15Z" transform="translate(-2782.078 -1466.093)" fill="#00ffba" fill-rule="evenodd"/>
      <path id="Tracé_15346" data-name="Tracé 15346" d="M3023.864,1510.851l66.039,38.127a1.526,1.526,0,0,0,2.284-1.323v-4.632h.006v-6.256a1.533,1.533,0,0,0-.9-1.393l-65.957-38.077a1.526,1.526,0,0,0-2.284,1.321V1509.5a1.523,1.523,0,0,0,.807,1.346Zm65.272,34.165-63.028-36.39v-7.368l63.022,36.386v5.38h.006Z" transform="translate(-2782.518 -1466.532)" fill="#fff" fill-rule="evenodd"/>
      <path id="Tracé_15347" data-name="Tracé 15347" d="M3192.162,1545.842v15.592a7.191,7.191,0,0,1-1.048,3.336c-1.482,2.344-4.871,3.993-7.225,5.351l-36.6,21.131-57.4,33.142-59.375,34.28-40.444,23.348c-3.76,2.172-6.825,4.234-11.141,5.247a23.534,23.534,0,0,1-5.867.621V1672.3a23.8,23.8,0,0,0,7.387-1.031,38.3,38.3,0,0,0,8.285-4.065l36.2-20.9,57.964-33.466,57.875-33.413,42.718-24.663a36.88,36.88,0,0,0,6.281-4.01A6.961,6.961,0,0,0,3192.162,1545.842Z" transform="translate(-2802.734 -1446.819)" fill="#04c38f" fill-rule="evenodd"/>
      <path id="Tracé_15348" data-name="Tracé 15348" d="M3191.077,1552.466v9.284a6.656,6.656,0,0,1-.281,1.495,5.171,5.171,0,0,1-.534,1.153c-1.062,1.677-3.555,3.074-5.625,4.233-.218.122-.423.237-1.068.608q-96.907,55.95-193.827,111.9v0c-.326.191-.963.564-1.6.939a31.8,31.8,0,0,1-9.126,4.141,22.337,22.337,0,0,1-2.743.466c-.418.044-.833.076-1.25.1v-12.535c.8-.034,1.6-.107,2.386-.215a26.027,26.027,0,0,0,3.914-.859,1.208,1.208,0,0,0,.118-.041,34.13,34.13,0,0,0,7.448-3.558l1.047-.612,36.2-20.9.081-.05,57.883-33.418,0,0,57.869-33.414.081-.049,42.635-24.614c.3-.174.765-.434,1.236-.7a30.039,30.039,0,0,0,5.147-3.356Zm3.051,9.409v-15.466a1.53,1.53,0,1,0-3.05-.251,6.067,6.067,0,0,1-.542,2.155l-.056.1a5.768,5.768,0,0,1-1.3,1.646,26.361,26.361,0,0,1-4.738,3.1c-.389.216-.768.429-1.273.72l-42.641,24.619-.084.045-57.872,33.414v0l-57.88,33.417-.086.046-37.264,21.515a32.012,32.012,0,0,1-6.8,3.288l-.095.025a22.946,22.946,0,0,1-3.46.762,21.722,21.722,0,0,1-3.46.207h-.033a1.523,1.523,0,0,0-1.524,1.524V1688.3a1.527,1.527,0,0,0,1.5,1.557,24.609,24.609,0,0,0,3.116-.129,25.493,25.493,0,0,0,3.126-.527c3.911-.917,6.786-2.611,9.975-4.49.406-.239.827-.487,1.586-.924v0l193.816-111.9,1.045-.586c2.373-1.329,5.231-2.928,6.712-5.275a7.866,7.866,0,0,0,.856-1.845,9.534,9.534,0,0,0,.428-2.177h-.006C3194.124,1561.959,3194.128,1561.917,3194.128,1561.875Z" transform="translate(-2803.173 -1447.259)" fill="#fff" fill-rule="evenodd"/>
      <path id="Tracé_15349" data-name="Tracé 15349" d="M3079.222,1537.027v-1.62l19.1-11.026,5.528,3.194,0-15.654-32.652,18.852v10.888Z" transform="translate(-2763.053 -1460.536)" fill="#04c38f" fill-rule="evenodd"/>
      <path id="Tracé_15350" data-name="Tracé 15350" d="M3081.188,1537.466v-.736l17.572-10.146,4.762,2.752a1.527,1.527,0,0,0,2.291-1.41v-15.565a1.528,1.528,0,0,0-1.527-1.527,1.5,1.5,0,0,0-.8.229l-32.612,18.827a1.526,1.526,0,0,0-.764,1.322V1542.1a1.527,1.527,0,0,0,2.328,1.3l7.982-4.609a1.522,1.522,0,0,0,.768-1.322Zm-3.052-1.621v.74l-4.976,2.873v-7.367l29.6-17.091v10.369l-3.22-1.861a1.526,1.526,0,0,0-1.549-.011l-19.1,11.026v0A1.525,1.525,0,0,0,3078.136,1535.846Z" transform="translate(-2763.492 -1460.975)" fill="#fff" fill-rule="evenodd"/>
      <path id="Tracé_15351" data-name="Tracé 15351" d="M3042.116,1506.554l11.072-6.392.685-9.664-19.784,11.422Z" transform="translate(-2778.057 -1469.199)" fill="#04c38f" fill-rule="evenodd"/>
      <path id="Tracé_15352" data-name="Tracé 15352" d="M3043.337,1508.3l11.049-6.379a1.521,1.521,0,0,0,.762-1.215l0,0,.684-9.666a1.529,1.529,0,0,0-2.388-1.369l-19.681,11.364a1.524,1.524,0,0,0,.013,2.652l8.014,4.626a1.524,1.524,0,0,0,1.542-.014Zm8.822-8.613-9.6,5.545-4.978-2.874,15.006-8.665Z" transform="translate(-2778.495 -1469.639)" fill="#fff" fill-rule="evenodd"/>
      <path id="Tracé_15353" data-name="Tracé 15353" d="M3090.671,1524.977l-42.982-24.816.683-9.664,51.012,29.449Z" transform="translate(-2772.556 -1469.199)" fill="#00ffba" fill-rule="evenodd"/>
      <path id="Tracé_15354" data-name="Tracé 15354" d="M3091.111,1523.653l-41.39-23.895.445-6.28,46.606,26.906-5.661,3.268Zm-43.747-21.73,42.965,24.807a1.523,1.523,0,0,0,1.548.01l8.714-5.031v0a1.487,1.487,0,0,0,.557-.558,1.525,1.525,0,0,0-.561-2.082l-50.907-29.389a1.53,1.53,0,0,0-2.391,1.153l-.684,9.665A1.529,1.529,0,0,0,3047.364,1501.923Z" transform="translate(-2772.997 -1469.638)" fill="#fff" fill-rule="evenodd"/>
      <path id="Tracé_15355" data-name="Tracé 15355" d="M3026.5,1612.746" transform="translate(-2781.126 -1419.766)" fill="#fff" stroke="#0087ca" stroke-linecap="round" stroke-linejoin="round" stroke-width="18.829" fill-rule="evenodd"/>
      <path id="Tracé_15356" data-name="Tracé 15356" d="M3073.782,1541.58c-6.3-3.64-16.521-3.643-22.828,0s-6.31,9.541,0,13.183,16.533,3.639,22.836,0S3080.084,1545.219,3073.782,1541.58Z" transform="translate(-2773.151 -1449.647)" fill="#00ffba" fill-rule="evenodd"/>
      <path id="Tracé_15357" data-name="Tracé 15357" d="M3074.893,1540.649a26.707,26.707,0,0,0-24.266.051,11.871,11.871,0,0,0-4.455,4.194v0a7.373,7.373,0,0,0-1.033,3.722h-.007a7.4,7.4,0,0,0,1.04,3.721,11.832,11.832,0,0,0,4.454,4.188v0a24.909,24.909,0,0,0,12.183,2.938v-.006a24.886,24.886,0,0,0,12.181-2.932,11.849,11.849,0,0,0,4.457-4.192,7.227,7.227,0,0,0,0-7.44,11.852,11.852,0,0,0-4.458-4.193l-.1-.051Zm-12.085.172a21.886,21.886,0,0,1,10.575,2.477l.072.044a8.864,8.864,0,0,1,3.345,3.083,4.141,4.141,0,0,1,0,4.376,8.846,8.846,0,0,1-3.343,3.079,21.768,21.768,0,0,1-10.651,2.528v-.006a21.792,21.792,0,0,1-10.652-2.522l0,0,0,0a8.857,8.857,0,0,1-3.336-3.077,4.362,4.362,0,0,1-.618-2.19h-.008a4.369,4.369,0,0,1,.626-2.19h0l0-.006a8.889,8.889,0,0,1,3.344-3.074A21.8,21.8,0,0,1,3062.808,1540.821Z" transform="translate(-2773.59 -1450.088)" fill="#fff" fill-rule="evenodd"/>
      <path id="Tracé_15358" data-name="Tracé 15358" d="M2931.682,1564.113c-6.3-3.64-16.519-3.642-22.829,0s-6.307,9.543,0,13.181,16.531,3.64,22.836,0S2937.987,1567.752,2931.682,1564.113Z" transform="translate(-2830.609 -1440.536)" fill="#00ffba" fill-rule="evenodd"/>
      <path id="Tracé_15359" data-name="Tracé 15359" d="M2932.8,1563.182a26.707,26.707,0,0,0-24.268.05,11.854,11.854,0,0,0-4.453,4.195l0,0a7.4,7.4,0,0,0-1.032,3.722h-.007a7.4,7.4,0,0,0,1.039,3.721l.055.09a11.934,11.934,0,0,0,4.4,4.1l0,0a26.724,26.724,0,0,0,24.364,0l0,0,0,0a11.83,11.83,0,0,0,4.455-4.191,7.224,7.224,0,0,0,0-7.442l-.056-.088a11.92,11.92,0,0,0-4.4-4.1l-.092-.05Zm-12.089.173a21.871,21.871,0,0,1,10.575,2.476l.073.045a8.994,8.994,0,0,1,3.307,3.007l.041.075a4.133,4.133,0,0,1,0,4.378,8.883,8.883,0,0,1-3.342,3.079v0a23.787,23.787,0,0,1-21.306,0v0l0,0a8.938,8.938,0,0,1-3.294-3l-.043-.076a4.382,4.382,0,0,1-.619-2.191h-.005a4.374,4.374,0,0,1,.624-2.19h0v0a8.894,8.894,0,0,1,3.346-3.076A21.791,21.791,0,0,1,2920.709,1563.355Z" transform="translate(-2831.05 -1440.975)" fill="#fff" fill-rule="evenodd"/>
      <path id="Tracé_15360" data-name="Tracé 15360" d="M2929.54,1564.968a1.526,1.526,0,1,0,1.544,2.632c33.27-19.562,59.641-13.417,85.339-7.428,22.561,5.258,44.616,10.393,70.43-1.43l-5.671,9.277a1.528,1.528,0,1,0,2.608,1.591l8.372-13.7a1.53,1.53,0,0,0-1.968-2.233c-26.888,14.277-49.706,8.959-73.078,3.514C2990.837,1551.069,2963.869,1544.786,2929.54,1564.968Z" transform="translate(-2820.636 -1444.649)" fill="#fff" fill-rule="evenodd"/>
      <path id="Tracé_15361" data-name="Tracé 15361" d="M3050.152,1556.106a1.526,1.526,0,0,0,.108-3.049l-19.229-.735a1.526,1.526,0,1,0-.106,3.05Z" transform="translate(-2779.931 -1444.2)" fill="#fff" fill-rule="evenodd"/>
      <path id="Tracé_15362" data-name="Tracé 15362" d="M3033.267,1526.056a1.531,1.531,0,1,0,0-3.061h-38.621a1.531,1.531,0,1,0,0,3.061Z" transform="translate(-2794.624 -1456.058)" fill="#fff" fill-rule="evenodd"/>
      <path id="Tracé_15363" data-name="Tracé 15363" d="M3006.872,1539.214a1.525,1.525,0,1,0,3.05,0v-22.3a1.525,1.525,0,0,0-3.05,0Z" transform="translate(-2789.063 -1459.133)" fill="#fff" fill-rule="evenodd"/>
      <path id="Tracé_15364" data-name="Tracé 15364" d="M2978.556,1585.053a1.525,1.525,0,1,0,0-3.05h-38.037a1.525,1.525,0,1,0,0,3.05Z" transform="translate(-2816.509 -1432.197)" fill="#fff" fill-rule="evenodd"/>
      <path id="Tracé_15365" data-name="Tracé 15365" d="M2952.537,1598a1.525,1.525,0,1,0,3.05,0l0-21.962a1.525,1.525,0,0,0-3.05,0Z" transform="translate(-2811.033 -1435.227)" fill="#fff" fill-rule="evenodd"/>
      <path id="Tracé_15366" data-name="Tracé 15366" d="M3022.274,1585.091a1.531,1.531,0,1,0,0-3.062h-26.017a1.531,1.531,0,0,0,0,3.062Z" transform="translate(-2793.973 -1432.186)" fill="#fff" fill-rule="evenodd"/>
      <path id="Tracé_15367" data-name="Tracé 15367" d="M3004,1593.453a1.525,1.525,0,1,0,3.049,0v-15.019a1.525,1.525,0,1,0-3.051,0Z" transform="translate(-2790.226 -1434.257)" fill="#fff" fill-rule="evenodd"/>
      <path id="Tracé_15368" data-name="Tracé 15368" d="M2983.947,1538.7a1.531,1.531,0,0,0,0-3.061h-26.015a1.531,1.531,0,1,0,0,3.061Z" transform="translate(-2809.471 -1450.947)" fill="#fff" fill-rule="evenodd"/>
      <path id="Tracé_15369" data-name="Tracé 15369" d="M2965.669,1547.058a1.525,1.525,0,1,0,3.049,0v-15.021a1.526,1.526,0,0,0-3.051,0Z" transform="translate(-2805.723 -1453.018)" fill="#fff" fill-rule="evenodd"/>
    </g>
  </g>
</svg>
