<svg xmlns="http://www.w3.org/2000/svg" width="18.108" height="22.287" viewBox="0 0 18.108 22.287">
  <g id="Groupe_2240" data-name="Groupe 2240" transform="translate(-504 -1254.561)">
    <path id="Icon_metro-bin" data-name="Icon metro-bin" d="M5.892,8.893v13.93a1.4,1.4,0,0,0,1.393,1.393H19.821a1.4,1.4,0,0,0,1.393-1.393V8.893H5.892Zm4.179,12.537H8.678V11.679h1.393Zm2.786,0H11.464V11.679h1.393Zm2.786,0H14.249V11.679h1.393Zm2.786,0H17.035V11.679h1.393ZM21.562,4.714H17.035V2.973a1.048,1.048,0,0,0-1.045-1.045H11.115a1.048,1.048,0,0,0-1.045,1.045V4.714H5.543A1.048,1.048,0,0,0,4.5,5.759V7.5H22.607V5.759a1.048,1.048,0,0,0-1.045-1.045Zm-5.92,0H11.464V3.338h4.179V4.714Z" transform="translate(499.501 1252.633)" fill="#143d66"/>
  </g>
</svg>
