<svg xmlns="http://www.w3.org/2000/svg" width="20.171" height="19.276" viewBox="0 0 20.171 19.276">
  <g id="Groupe_2240" data-name="Groupe 2240" transform="translate(-967.53 -281.544)">
    <path id="Icon_zocial-linkedin" data-name="Icon zocial-linkedin" d="M-.18,2.455A2.1,2.1,0,0,1,.5.849,2.5,2.5,0,0,1,2.273.216,2.426,2.426,0,0,1,4.006.839a2.2,2.2,0,0,1,.681,1.674,2.05,2.05,0,0,1-.662,1.558,2.5,2.5,0,0,1-1.791.643H2.215A2.383,2.383,0,0,1,.482,4.071,2.158,2.158,0,0,1-.18,2.455ZM.073,19.492V6.485H4.4V19.492H.073Zm6.717,0h4.322V12.229a2.8,2.8,0,0,1,.156-1.051,2.824,2.824,0,0,1,.827-1.12A2.115,2.115,0,0,1,13.488,9.6q2.181,0,2.181,2.94v6.951h4.322V12.034a6.267,6.267,0,0,0-1.363-4.371,4.649,4.649,0,0,0-3.6-1.489,4.418,4.418,0,0,0-3.914,2.161v.039h-.019l.019-.039V6.485H6.79q.039.623.039,3.875T6.79,19.492Z" transform="translate(967.71 281.328)" fill="#fff"/>
  </g>
</svg>
