<svg xmlns="http://www.w3.org/2000/svg" xmlns:xlink="http://www.w3.org/1999/xlink" viewBox="0 0 423.35 544.03"><defs><style>.cls-1{fill:#143d66;}.cls-2{fill:url(#radial-gradient);}</style><radialGradient id="radial-gradient" cx="113.65" cy="68.01" fx="-41.712049746647125" fy="32.372809104662984" r="278.89" gradientUnits="userSpaceOnUse"><stop offset="0.19" stop-color="#1bd7ba"/><stop offset="0.28" stop-color="#1bd2bb"/><stop offset="0.39" stop-color="#1ac2be"/><stop offset="0.51" stop-color="#1aa9c2"/><stop offset="0.64" stop-color="#1985c9"/><stop offset="0.7" stop-color="#1872cc"/><stop offset="0.95" stop-color="#143d66"/></radialGradient></defs><g id="Layer_2" data-name="Layer 2"><g id="Layer_1-2" data-name="Layer 1"><path class="cls-1" d="M420.38,270.75c-2-10.56-5.83-29.24-19.26-49.12a125.59,125.59,0,0,0-27.36-28.76,126.34,126.34,0,0,0-81.45-26.23c-32.52.71-122.07.36-244.3,0a45.49,45.49,0,0,0-5,.12,49.4,49.4,0,0,0-23.62,8.42C16,177.53,7.1,183.8,2.65,195.11A40,40,0,0,0,0,210.32V544L152.13,429.58h148.5a138.42,138.42,0,0,0,41.87-9.77,134.16,134.16,0,0,0,45.22-29.87c4-4.15,24.34-25.81,32.38-61.41A136.82,136.82,0,0,0,420.38,270.75ZM355.76,301a61.85,61.85,0,0,1-30.57,51.22,73.38,73.38,0,0,1-34.75,11H127.84L66.3,411.58q.2-90.27.41-180.53H293.93a55.38,55.38,0,0,1,19.26,1.88A56.07,56.07,0,0,1,339,248.84c7.53,8.14,10.59,16.33,12.56,21.77A73.63,73.63,0,0,1,355.76,301Z"/><path class="cls-2" d="M369.12,88.84a89.65,89.65,0,0,0-4.19-13.59,124.63,124.63,0,0,0-10.74-22.33,113.64,113.64,0,0,0-29.12-30.81A116.27,116.27,0,0,0,255.58,0c-1,0-1.78,0-2.13,0h-.18c-.74,0-68.74,0-219.63,0l-.72,0h.18a29.61,29.61,0,0,1,16.67,5.1A29.55,29.55,0,0,0,33.22.1C25.41.1,3.52,9,3.52,29.8a29.85,29.85,0,0,0,29.7,29.71l.56.05h229c1.82.26,4.36.69,7.35,1.42,4.71,1.14,10.45,2.54,16.68,6.21a49.57,49.57,0,0,1,14,12.58,53.43,53.43,0,0,1,6.93,11.31,49.64,49.64,0,0,1,3,8.62c.39,1.6.69,3.22,1.49,6.61.12.56.25,1.12.4,1.67a29.53,29.53,0,0,0,57-.07c.11-.42.2-.84.3-1.26a33.56,33.56,0,0,0,.66-5.26c0-.25,0-.49,0-.73,0-.09,0-.17,0-.25C370.72,96.22,370.06,93.13,369.12,88.84Z"/></g></g></svg>