<svg xmlns="http://www.w3.org/2000/svg" width="148.577" height="121.781" viewBox="0 0 148.577 121.781">
  <g id="Groupe_2242" data-name="Groupe 2242" transform="translate(-1387.544 -2075.066)">
    <g id="Groupe_7" data-name="Groupe 7" transform="translate(1387.544 2103.598)">
      <g id="Groupe_6" data-name="Groupe 6" transform="translate(0 0)">
        <path id="Tracé_210" data-name="Tracé 210" d="M690.065,187.242,670.35,167.815a1.985,1.985,0,0,0-1.394-.569h-41.4a7.838,7.838,0,0,0-7.886,7.771v77.707a7.838,7.838,0,0,0,7.886,7.771h55.2a7.838,7.838,0,0,0,7.886-7.771V188.615A1.925,1.925,0,0,0,690.065,187.242Zm-19.138-13.363,12.985,12.794h-9.042a3.918,3.918,0,0,1-3.943-3.885ZM686.7,252.724a3.919,3.919,0,0,1-3.944,3.885h-55.2a3.918,3.918,0,0,1-3.943-3.885V175.017a3.919,3.919,0,0,1,3.943-3.886h39.431v11.656a7.838,7.838,0,0,0,7.886,7.77H686.7Z" transform="translate(-619.667 -167.246)" fill="#143d66"/>
        <path id="Tracé_211" data-name="Tracé 211" d="M693.457,298.042H650.083a1.943,1.943,0,1,0,0,3.886h43.374a1.943,1.943,0,1,0,0-3.886Z" transform="translate(-636.282 -243.647)" fill="#143d66"/>
        <path id="Tracé_212" data-name="Tracé 212" d="M693.457,270.014H650.083a1.943,1.943,0,1,0,0,3.886h43.374a1.943,1.943,0,1,0,0-3.886Z" transform="translate(-636.282 -227.275)" fill="#143d66"/>
        <path id="Tracé_213" data-name="Tracé 213" d="M693.457,326.069H650.083a1.943,1.943,0,1,0,0,3.886h43.374a1.943,1.943,0,1,0,0-3.886Z" transform="translate(-636.282 -260.018)" fill="#143d66"/>
        <path id="Tracé_214" data-name="Tracé 214" d="M673.741,354.1H650.083a1.943,1.943,0,1,0,0,3.886h23.659a1.943,1.943,0,1,0,0-3.886Z" transform="translate(-636.282 -276.39)" fill="#143d66"/>
        <path id="Tracé_215" data-name="Tracé 215" d="M695.519,243.929a1.956,1.956,0,0,0,1.972,1.943h23.658a1.943,1.943,0,1,0,0-3.886H697.491A1.957,1.957,0,0,0,695.519,243.929Z" transform="translate(-663.974 -210.903)" fill="#143d66"/>
        <g id="Groupe_5" data-name="Groupe 5" transform="translate(10.849 17.96)">
          <path id="Tracé_216" data-name="Tracé 216" d="M663.222,222.984a.43.43,0,0,1,.144.385,4.935,4.935,0,0,1-.977,2.786,6.224,6.224,0,0,1-2.671,2.015,10.3,10.3,0,0,1-4.064.744,8.175,8.175,0,0,1-5.289-1.579,6.426,6.426,0,0,1-2.293-4.454h-1.694a.606.606,0,0,1-.443-.18.591.591,0,0,1-.182-.437v-1.438a.622.622,0,0,1,.182-.462.608.608,0,0,1,.443-.18h1.616v-1h-1.616a.607.607,0,0,1-.443-.18.591.591,0,0,1-.182-.437v-1.463a.592.592,0,0,1,.182-.436.608.608,0,0,1,.443-.18h1.694a6.471,6.471,0,0,1,2.28-4.48,8.165,8.165,0,0,1,5.3-1.579,10.3,10.3,0,0,1,4.064.744,6.223,6.223,0,0,1,2.671,2.015,4.933,4.933,0,0,1,.977,2.785v.052a.434.434,0,0,1-.169.346.576.576,0,0,1-.378.141h-2.475a.787.787,0,0,1-.5-.141.931.931,0,0,1-.287-.475,3.172,3.172,0,0,0-1.367-1.925,4.863,4.863,0,0,0-2.54-.591q-3.31,0-3.778,3.107h4.3a.655.655,0,0,1,.456.18.573.573,0,0,1,.2.436v1.463a.592.592,0,0,1-.182.437.642.642,0,0,1-.469.18h-4.4v1h4.4a.644.644,0,0,1,.469.18.624.624,0,0,1,.182.462v1.438a.592.592,0,0,1-.182.437.642.642,0,0,1-.469.18H651.85q.52,3.081,3.8,3.08a4.86,4.86,0,0,0,2.54-.59,3.171,3.171,0,0,0,1.367-1.925.935.935,0,0,1,.287-.475.789.789,0,0,1,.5-.141h2.475A.581.581,0,0,1,663.222,222.984Z" transform="translate(-645.753 -210.431)" fill="#143d66"/>
        </g>
      </g>
    </g>
    <path id="Icon_awesome-flag-checkered" data-name="Icon awesome-flag-checkered" d="M25.538,20.167V27.4c2.771.627,5.235,1.657,7.815,2.368V22.524c-2.761-.616-5.246-1.646-7.815-2.357ZM49.249,7.106c-3.642,1.688-8.123,3.387-12.424,3.387-5.681,0-10.385-3.7-17.542-3.7a20.646,20.646,0,0,0-7.221,1.274,5.947,5.947,0,1,0-8.952,2.75v41A2.542,2.542,0,0,0,5.659,54.37h1.7a2.542,2.542,0,0,0,2.548-2.549V41.8A29.606,29.606,0,0,1,22.055,39.45c5.692,0,10.385,3.7,17.542,3.7A22.188,22.188,0,0,0,52.6,38.8,3.388,3.388,0,0,0,54.07,36V10.185A3.393,3.393,0,0,0,49.249,7.106ZM17.722,34.566a33.453,33.453,0,0,0-7.815,1.763V28.842a30.379,30.379,0,0,1,7.815-1.848ZM48.984,20.283a33.872,33.872,0,0,1-7.815,2.538v7.55a19.736,19.736,0,0,0,7.815-2.761V35.1a17.158,17.158,0,0,1-7.815,2.878v-7.6a17.961,17.961,0,0,1-7.815-.595v7.157a61.956,61.956,0,0,0-7.815-2.262V27.4a23.6,23.6,0,0,0-7.815-.4V19.561a37.472,37.472,0,0,0-7.815,2.219V14.295c3.525-1.3,5.32-2.1,7.815-2.336v7.6a18.062,18.062,0,0,1,7.815.605V13.01a60.452,60.452,0,0,0,7.815,2.262v7.263a20.229,20.229,0,0,0,7.815.287V15.186A37.571,37.571,0,0,0,48.984,12.8Z" transform="translate(1492.375 2074.738) rotate(36)" fill="#143d66"/>
    <path id="Icon_awesome-check" data-name="Icon awesome-check" d="M23.461,55.075,1.012,32.626a3.454,3.454,0,0,1,0-4.884L5.9,22.857a3.454,3.454,0,0,1,4.884,0L25.9,37.98,58.294,5.589a3.454,3.454,0,0,1,4.884,0l4.884,4.884a3.454,3.454,0,0,1,0,4.884L28.345,55.075A3.454,3.454,0,0,1,23.461,55.075Z" transform="translate(1422.426 2127.76)" fill="#01e3a6" stroke="#143d66" stroke-width="2"/>
  </g>
</svg>
