<svg xmlns="http://www.w3.org/2000/svg" width="123.152" height="107.497" viewBox="0 0 123.152 107.497">
  <g id="Groupe_2082" data-name="Groupe 2082" transform="translate(-447.5 -2038.172)">
    <path id="Icon_awesome-user-circle" data-name="Icon awesome-user-circle" d="M24.05.563A23.862,23.862,0,0,0,0,24.24,23.862,23.862,0,0,0,24.05,47.917,23.862,23.862,0,0,0,48.1,24.24,23.862,23.862,0,0,0,24.05.563Zm0,9.165a8.4,8.4,0,1,1-8.534,8.4A8.469,8.469,0,0,1,24.05,9.728Zm0,32.842A18.7,18.7,0,0,1,9.843,36.059,10.834,10.834,0,0,1,19.4,30.35a2.407,2.407,0,0,1,.689.105,13.023,13.023,0,0,0,3.966.659,12.973,12.973,0,0,0,3.966-.659,2.407,2.407,0,0,1,.689-.105,10.834,10.834,0,0,1,9.552,5.709A18.7,18.7,0,0,1,24.05,42.57Z" transform="translate(522.551 2092.24)" fill="#143d66"/>
    <path id="Icon_awesome-project-diagram" data-name="Icon awesome-project-diagram" d="M46.307,36.844H30.872a3.775,3.775,0,0,0-3.859,3.684V55.267a3.775,3.775,0,0,0,3.859,3.684H46.307a3.775,3.775,0,0,0,3.859-3.684V40.529A3.775,3.775,0,0,0,46.307,36.844ZM23.154,3.684A3.775,3.775,0,0,0,19.295,0H3.859A3.775,3.775,0,0,0,0,3.684V18.422a3.775,3.775,0,0,0,3.859,3.684H15.4l8.823,14.742a7.762,7.762,0,0,1,6.647-3.689h.034L23.154,20.208v-5.47H50.166V7.369H23.154ZM73.32,0H57.884a3.775,3.775,0,0,0-3.859,3.684V18.422a3.775,3.775,0,0,0,3.859,3.684H73.32a3.775,3.775,0,0,0,3.859-3.684V3.684A3.775,3.775,0,0,0,73.32,0Z" transform="translate(454.579 2063.206)" fill="#143d66" stroke="#fff" stroke-width="3"/>
    <g id="Groupe_1824" data-name="Groupe 1824" transform="translate(448.5 2040.172)">
      <g id="Groupe_1823" data-name="Groupe 1823" transform="translate(0 56.425)">
        <path id="Tracé_18965" data-name="Tracé 18965" d="M1415.213,902.651h0a8.532,8.532,0,0,1,.224-12.283l36.27-33.29,9.339,9.261L1427.5,902.427A8.533,8.533,0,0,1,1415.213,902.651Z" transform="translate(-1412.714 -857.078)" fill="#01e3a6" stroke="#143d66" stroke-linecap="round" stroke-linejoin="round" stroke-width="2"/>
      </g>
      <g id="Tracé_18966" data-name="Tracé 18966" transform="translate(-1424.341 -783.829)" fill="#01e3a6" stroke-linecap="round" stroke-linejoin="round">
        <path d="M 1472.79052734375 850.3327026367188 C 1471.94091796875 850.3327026367188 1471.142456054688 850.0017700195312 1470.542358398438 849.4008178710938 L 1463.265625 842.1243896484375 C 1462.026000976562 840.8844604492188 1462.026123046875 838.867431640625 1463.265502929688 837.6279907226562 L 1468.175903320312 832.7178344726562 C 1466.435180664062 829.7557983398438 1465.173461914062 826.5504760742188 1464.422119140625 823.1785278320312 C 1463.62744140625 819.6123046875 1463.424682617188 815.9598999023438 1463.8193359375 812.3228149414062 C 1464.217895507812 808.6512451171875 1465.213989257812 805.1049194335938 1466.780029296875 801.7821655273438 C 1468.401123046875 798.3426513671875 1470.5966796875 795.2250366210938 1473.305786132812 792.515869140625 C 1476.462524414062 789.3592529296875 1480.147827148438 786.9148559570312 1484.259155273438 785.2505493164062 C 1488.228637695312 783.6437377929688 1492.423950195312 782.8290405273438 1496.728637695312 782.8290405273438 C 1501.033203125 782.8290405273438 1505.228515625 783.6437377929688 1509.197875976562 785.2505493164062 C 1513.309204101562 786.9148559570312 1516.994384765625 789.3592529296875 1520.151000976562 792.515869140625 C 1523.3076171875 795.6724853515625 1525.752075195312 799.357666015625 1527.41650390625 803.4691162109375 C 1529.023315429688 807.4385375976562 1529.838012695312 811.6338500976562 1529.838012695312 815.9384765625 C 1529.838012695312 820.2431030273438 1529.023315429688 824.4384155273438 1527.41650390625 828.4078369140625 C 1525.752075195312 832.5192260742188 1523.3076171875 836.2044677734375 1520.151000976562 839.3610229492188 C 1516.995361328125 842.5165405273438 1513.31201171875 844.959716796875 1509.203247070312 846.6227416992188 C 1505.23681640625 848.2282104492188 1501.0439453125 849.042236328125 1496.741088867188 849.042236328125 C 1490.80908203125 849.042236328125 1485.020751953125 847.4710083007812 1479.948608398438 844.4912109375 L 1475.0380859375 849.4013671875 C 1474.438598632812 850.0017700195312 1473.64013671875 850.3327026367188 1472.79052734375 850.3327026367188 Z M 1496.728759765625 790.9984741210938 C 1493.48486328125 790.9984741210938 1490.323852539062 791.6122436523438 1487.333740234375 792.8226928710938 C 1484.238159179688 794.0758056640625 1481.462768554688 795.9169311523438 1479.084716796875 798.2947998046875 C 1474.4892578125 802.8902587890625 1471.900390625 809.0089111328125 1471.795166015625 815.5236206054688 C 1471.690307617188 822.0223388671875 1474.062866210938 828.208251953125 1478.47607421875 832.94189453125 L 1478.586547851562 833.0601806640625 C 1478.756469726562 833.2424926757812 1478.9169921875 833.4147338867188 1479.083984375 833.581298828125 C 1481.462768554688 835.9599609375 1484.238159179688 837.8010864257812 1487.333740234375 839.05419921875 C 1490.323852539062 840.2647094726562 1493.48486328125 840.8784790039062 1496.728759765625 840.8784790039062 C 1499.972534179688 840.8784790039062 1503.133422851562 840.2647094726562 1506.123657226562 839.05419921875 C 1509.219116210938 837.8010864257812 1511.994384765625 835.9599609375 1514.372192382812 833.5820922851562 C 1514.5068359375 833.44775390625 1514.63720703125 833.3079833984375 1514.775268554688 833.159912109375 C 1514.821899414062 833.1099243164062 1514.868530273438 833.059814453125 1514.91552734375 833.0098876953125 C 1517.16064453125 830.619873046875 1518.885620117188 827.8604125976562 1520.04248046875 824.8082275390625 C 1521.162841796875 821.8526000976562 1521.707763671875 818.7435302734375 1521.662109375 815.5673828125 C 1521.568237304688 809.0360717773438 1518.979248046875 802.90185546875 1514.372192382812 798.2947387695312 C 1511.994384765625 795.9168701171875 1509.219116210938 794.0758056640625 1506.123657226562 792.8226928710938 C 1503.133422851562 791.6122436523438 1499.972534179688 790.9984741210938 1496.728759765625 790.9984741210938 Z" stroke="none"/>
        <path d="M 1472.79052734375 849.3327026367188 C 1473.348266601562 849.3327026367188 1473.906005859375 849.119873046875 1474.3310546875 848.6942138671875 L 1479.795166015625 843.23046875 C 1484.963989257812 846.4374389648438 1490.85400390625 848.042236328125 1496.741088867188 848.042236328125 C 1504.963745117188 848.042236328125 1513.182983398438 844.9144897460938 1519.44384765625 838.6539306640625 C 1531.969482421875 826.1286010742188 1531.969482421875 805.7483520507812 1519.44384765625 793.2229614257812 C 1513.181274414062 786.9603271484375 1504.954956054688 783.8290405273438 1496.728515625 783.8290405273438 C 1488.502197265625 783.8290405273438 1480.275756835938 786.9603271484375 1474.012939453125 793.2229614257812 C 1463.26953125 803.9666748046875 1461.75 820.4837646484375 1469.436767578125 832.8712158203125 L 1463.97265625 838.3350830078125 C 1463.12158203125 839.1861572265625 1463.12158203125 840.56591796875 1463.97265625 841.417236328125 L 1471.25 848.6942138671875 C 1471.675048828125 849.119873046875 1472.232788085938 849.3327026367188 1472.79052734375 849.3327026367188 M 1496.728759765625 789.9984741210938 C 1503.374389648438 789.9984741210938 1510.019897460938 792.5281982421875 1515.079345703125 797.587646484375 C 1525.003173828125 807.5116577148438 1525.1875 823.5357055664062 1515.644287109375 833.694580078125 C 1515.456787109375 833.8941650390625 1515.273681640625 834.0953369140625 1515.079345703125 834.2891845703125 C 1510.019897460938 839.3486938476562 1503.374389648438 841.8784790039062 1496.728759765625 841.8784790039062 C 1490.083129882812 841.8784790039062 1483.437377929688 839.3486938476562 1478.377685546875 834.2891845703125 C 1478.159423828125 834.0714111328125 1477.95361328125 833.84716796875 1477.74462890625 833.623779296875 C 1468.27001953125 823.4611206054688 1468.476806640625 807.4884033203125 1478.377685546875 797.587646484375 C 1483.437377929688 792.5281982421875 1490.083129882812 789.9984741210938 1496.728759765625 789.9984741210938 M 1472.79052734375 851.3327026367188 C 1471.673461914062 851.3327026367188 1470.623779296875 850.8975830078125 1469.834838867188 850.107421875 L 1462.558471679688 842.8314819335938 C 1460.929077148438 841.2015991210938 1460.92919921875 838.5501708984375 1462.558471679688 836.9208984375 L 1466.928344726562 832.5511474609375 C 1465.332885742188 829.6887817382812 1464.16357421875 826.6160278320312 1463.446044921875 823.3960571289062 C 1462.627563476562 819.7228393554688 1462.418701171875 815.9609985351562 1462.8251953125 812.2149047851562 C 1463.235717773438 808.4327392578125 1464.261962890625 804.7792358398438 1465.87548828125 801.3558349609375 C 1467.5458984375 797.811767578125 1469.807861328125 794.5996704101562 1472.598754882812 791.8087768554688 C 1475.850708007812 788.5568237304688 1479.647583007812 786.0385131835938 1483.884033203125 784.3236083984375 C 1487.973266601562 782.6683349609375 1492.294799804688 781.8290405273438 1496.728515625 781.8290405273438 C 1501.162353515625 781.8290405273438 1505.48388671875 782.6683349609375 1509.573120117188 784.3236694335938 C 1513.809326171875 786.0385131835938 1517.606201171875 788.556884765625 1520.858032226562 791.8087768554688 C 1524.109985351562 795.0606689453125 1526.62841796875 798.8575439453125 1528.343383789062 803.0938720703125 C 1529.998779296875 807.1830444335938 1530.838134765625 811.504638671875 1530.838134765625 815.9384765625 C 1530.838134765625 820.372314453125 1529.998779296875 824.69384765625 1528.343383789062 828.7830810546875 C 1526.62841796875 833.0194091796875 1524.109985351562 836.8162231445312 1520.858032226562 840.0681762695312 C 1517.607177734375 843.3189697265625 1513.812133789062 845.8360595703125 1509.578491210938 847.5496826171875 C 1505.492309570312 849.20361328125 1501.173217773438 850.042236328125 1496.741088867188 850.042236328125 C 1490.891479492188 850.042236328125 1485.17724609375 848.558837890625 1480.115356445312 845.7386474609375 L 1475.745239257812 850.1084594726562 C 1474.957275390625 850.8975219726562 1473.907592773438 851.3327026367188 1472.79052734375 851.3327026367188 Z M 1496.728637695312 791.9984741210938 C 1493.614013671875 791.9984741210938 1490.579345703125 792.587646484375 1487.708984375 793.7496337890625 C 1484.73828125 794.9522094726562 1482.074584960938 796.7192993164062 1479.791870117188 799.0018920898438 C 1475.380859375 803.4127807617188 1472.896118164062 809.2860717773438 1472.795043945312 815.539794921875 C 1472.6943359375 821.7785034179688 1474.9716796875 827.7164916992188 1479.20751953125 832.2599487304688 L 1479.318237304688 832.3785400390625 C 1479.481811523438 832.553955078125 1479.63623046875 832.7196655273438 1479.790283203125 832.8734130859375 C 1482.074584960938 835.1575317382812 1484.73828125 836.9246826171875 1487.708984375 838.1272583007812 C 1490.579345703125 839.2892456054688 1493.614013671875 839.8784790039062 1496.728637695312 839.8784790039062 C 1499.843383789062 839.8784790039062 1502.8779296875 839.2892456054688 1505.748413085938 838.1272583007812 C 1508.718994140625 836.9247436523438 1511.382568359375 835.1575927734375 1513.665161132812 832.875 C 1513.787841796875 832.7526245117188 1513.912109375 832.6192626953125 1514.043701171875 832.4780883789062 C 1514.091186523438 832.4271240234375 1514.138793945312 832.3760986328125 1514.186645507812 832.3251342773438 C 1518.452392578125 827.7843017578125 1520.752075195312 821.8380126953125 1520.662109375 815.581787109375 C 1520.572021484375 809.3121337890625 1518.087158203125 803.4239501953125 1513.665161132812 799.0018310546875 C 1511.382568359375 796.7192993164062 1508.718994140625 794.9522094726562 1505.748413085938 793.7496337890625 C 1502.8779296875 792.587646484375 1499.843383789062 791.9984741210938 1496.728637695312 791.9984741210938 Z" stroke="none" fill="#143d66"/>
      </g>
    </g>
  </g>
</svg>
