<svg xmlns="http://www.w3.org/2000/svg" width="574.051" height="355.416" viewBox="0 0 574.051 355.416">
  <g id="Groupe_2004" data-name="Groupe 2004" transform="translate(-1028.159 -2482.33)">
    <path id="Tracé_19013" data-name="Tracé 19013" d="M0,0H569.345c2.6,0,4.705,1.416,4.705,3.162V325.686c0,1.746-2.107,3.162-4.705,3.162H0Z" transform="translate(1028.159 2497.917)" fill="#01e3a6"/>
    <g id="Groupe_1422" data-name="Groupe 1422" transform="translate(1139.103 2480.094)">
      <path id="Tracé_15632" data-name="Tracé 15632" d="M2521.155,1420.874l34.357-19.836,39.625,22.878-34.355,19.834Z" transform="translate(-2498.113 -1147.332)" fill="#fff" fill-rule="evenodd"/>
      <path id="Tracé_15633" data-name="Tracé 15633" d="M2521.505,1420.144l34.329-19.817a2.805,2.805,0,0,1,2.835.021l39.591,22.855a2.8,2.8,0,0,1,.005,4.863l0,.005-34.354,19.835a2.812,2.812,0,0,1-2.974-.1l-39.46-22.785a2.806,2.806,0,0,1,.025-4.881ZM2557.231,1406l-28.741,16.593,34.006,19.637,28.745-16.6Z" transform="translate(-2499.835 -1149.053)" fill="#143d66" fill-rule="evenodd"/>
      <path id="Tracé_15634" data-name="Tracé 15634" d="M2525.7,1471.265a2.819,2.819,0,1,1-5.638,0v-71.537a2.819,2.819,0,0,1,5.638,0V1425.8l38.215,22.064a2.814,2.814,0,0,1,1.4,2.432h.008v43.851a2.821,2.821,0,1,1-5.641,0v-42.229L2525.7,1432.29Z" transform="translate(-2499.842 -1153.875)" fill="#143d66" fill-rule="evenodd"/>
      <path id="Tracé_15635" data-name="Tracé 15635" d="M2559.644,1421.891a2.14,2.14,0,0,0,0-4.055,7.733,7.733,0,0,0-7.023,0l-9.236,5.327a2.143,2.143,0,0,0,0,4.059,7.789,7.789,0,0,0,7.026,0Z" transform="translate(-2465.185 -1122.044)" fill="#143d66" fill-rule="evenodd"/>
      <path id="Tracé_15636" data-name="Tracé 15636" d="M2559.909,1421.3l.006,0-.006,0a3.7,3.7,0,0,0-.977-.375,5.96,5.96,0,0,0-1.362-.145,6.028,6.028,0,0,0-1.365.145,3.716,3.716,0,0,0-.974.375l-.131.07-9.109,5.258.09.057a3.788,3.788,0,0,0,.892.32,6.432,6.432,0,0,0,2.722,0,3.664,3.664,0,0,0,.987-.375l9.23-5.325,0-.006Zm4.164,2.467a5.77,5.77,0,0,1-1.813,1.587h0l-9.243,5.333a8.243,8.243,0,0,1-2.235.869,10.355,10.355,0,0,1-4.886,0,8.281,8.281,0,0,1-2.08-.783l-.166-.085a5.788,5.788,0,0,1-1.811-1.587l0-.006,0-.005a4.123,4.123,0,0,1,0-4.924,5.663,5.663,0,0,1,1.819-1.587l9.1-5.258.122-.075a8.246,8.246,0,0,1,2.242-.868,10.376,10.376,0,0,1,4.889,0,8.256,8.256,0,0,1,2.244.868v.005a5.651,5.651,0,0,1,1.8,1.584,4.177,4.177,0,0,1,.828,2.464,4.131,4.131,0,0,1-.678,2.246A2.532,2.532,0,0,1,2564.072,1423.767Z" transform="translate(-2466.625 -1123.483)" fill="#143d66" fill-rule="evenodd"/>
      <path id="Tracé_15637" data-name="Tracé 15637" d="M2567.274,1426.054a2.14,2.14,0,0,0,0-4.055,7.736,7.736,0,0,0-7.024,0l-9.236,5.327a2.143,2.143,0,0,0,0,4.06,7.765,7.765,0,0,0,7.025,0Z" transform="translate(-2453.092 -1115.443)" fill="#fff" fill-rule="evenodd"/>
      <path id="Tracé_15638" data-name="Tracé 15638" d="M2567.537,1425.465l.007,0-.007,0a3.593,3.593,0,0,0-.974-.375,6.493,6.493,0,0,0-2.725,0,3.7,3.7,0,0,0-.977.375l-9.238,5.336h0v0a3.761,3.761,0,0,0,.98.372,6.451,6.451,0,0,0,2.72,0,3.74,3.74,0,0,0,.986-.372l9.23-5.328-.006-.005Zm4.166,2.466a5.816,5.816,0,0,1-1.813,1.59l0-.006-9.242,5.336a8.267,8.267,0,0,1-2.235.869,10.384,10.384,0,0,1-4.886,0,8.28,8.28,0,0,1-2.246-.869l0-.006a5.707,5.707,0,0,1-1.812-1.582,4.106,4.106,0,0,1,.01-4.932,5.532,5.532,0,0,1,1.648-1.494l.152-.1,9.237-5.333a8.234,8.234,0,0,1,2.239-.869,10.4,10.4,0,0,1,4.893,0,8.29,8.29,0,0,1,2.242.869l0,0a5.711,5.711,0,0,1,1.806,1.586,4.209,4.209,0,0,1,.823,2.466,4.158,4.158,0,0,1-.675,2.244C2571.8,1427.785,2571.751,1427.858,2571.7,1427.931Z" transform="translate(-2454.533 -1116.882)" fill="#143d66" fill-rule="evenodd"/>
      <path id="Tracé_15639" data-name="Tracé 15639" d="M2573.983,1457.591l1.78-55.587c.012-.148.016-.3.016-.453a6.722,6.722,0,0,0-10.1-5.808l-37.708,19.432,8.744,15.146,26.025-16.731,1.3,44a2.477,2.477,0,0,0,1.456,2.03,7.794,7.794,0,0,0,7.027,0A2.477,2.477,0,0,0,2573.983,1457.591Z" transform="translate(-2487.302 -1157.165)" fill="#fff" fill-rule="evenodd"/>
      <path id="Tracé_15640" data-name="Tracé 15640" d="M2573.085,1458.76l1.782-55.471h-.006l.012-.153c0-.088-.005.034-.005-.145a4.37,4.37,0,0,0-4.37-4.369,4.474,4.474,0,0,0-1.147.147,4.359,4.359,0,0,0-1.047.442,2.275,2.275,0,0,1-.245.124l-35.385,18.235,6.286,10.889,23.957-15.4a2.344,2.344,0,0,1,3.612,2.032l1.292,43.73a1.288,1.288,0,0,0,.292.211l.085.052a3.839,3.839,0,0,0,.89.32v-.007a6.039,6.039,0,0,0,1.364.152,6.151,6.151,0,0,0,1.361-.142,3.833,3.833,0,0,0,.978-.37l0-.005a1.58,1.58,0,0,0,.29-.2l.007-.072Zm6.452-55.158-1.773,55.307,0,.121a4.167,4.167,0,0,1-.819,2.463l-.005,0v0a5.679,5.679,0,0,1-1.8,1.593l0-.005-.005.005a8.361,8.361,0,0,1-2.233.866,10.559,10.559,0,0,1-4.89.01l0-.007a8.455,8.455,0,0,1-2.081-.784l-.166-.086a5.723,5.723,0,0,1-1.811-1.593,4.181,4.181,0,0,1-.817-2.463h.008l-1.175-39.789-22.542,14.492-.091.054a2.344,2.344,0,0,1-3.2-.853l-8.746-15.144-.054-.1a2.342,2.342,0,0,1,1.009-3.157l37.6-19.373a9.057,9.057,0,0,1,4.562-1.232,9.067,9.067,0,0,1,9.068,9.066l-.025.61Z" transform="translate(-2488.74 -1158.605)" fill="#143d66" fill-rule="evenodd"/>
      <path id="Tracé_15641" data-name="Tracé 15641" d="M2561.977,1433.806c-5.477,3.893-11.173,2.29-17.08-1.419l-10.854-6.264c-11.388-6.576-7.643-24.268-3.7-26.544,3.358-1.938,5.49-1.512,7.967-.4h0l.006,0a8.608,8.608,0,0,1,1.539.894l14.693,8.534,8.85,5.167,23.785-12.256a6.72,6.72,0,0,1,10.711,5.4c0,.153-.006.3-.016.452l-1.737,55.587a2.466,2.466,0,0,1-1.453,2.027,7.766,7.766,0,0,1-7.027,0,2.47,2.47,0,0,1-1.456-2.027l-1.341-43.871Z" transform="translate(-2489.736 -1151.774)" fill="#fff" fill-rule="evenodd"/>
      <path id="Tracé_15642" data-name="Tracé 15642" d="M2564.683,1437.206a13.581,13.581,0,0,1-9.951,2.5,24.558,24.558,0,0,1-9.646-3.9l-10.772-6.218a16.492,16.492,0,0,1-6.106-6.108,22.088,22.088,0,0,1-2.65-11.9,22.668,22.668,0,0,1,2.534-9.846,7.337,7.337,0,0,1,2.515-2.738,10.7,10.7,0,0,1,5.48-1.655,10.9,10.9,0,0,1,4.569,1.125l.084.038a10.738,10.738,0,0,1,.979.5c.25.148.517.321.795.515l14.649,8.507v0l7.739,4.521,22.494-11.592a9.064,9.064,0,0,1,14.278,7.412c-.011.218-.017.445-.032.659l-1.729,55.381h.007a4.178,4.178,0,0,1-.816,2.464,1.632,1.632,0,0,1-.171.208,5.791,5.791,0,0,1-1.643,1.377v0a8.284,8.284,0,0,1-2.241.869,10.379,10.379,0,0,1-4.891,0,8.3,8.3,0,0,1-2.243-.869l-.15-.1a5.58,5.58,0,0,1-1.65-1.494,4.2,4.2,0,0,1-.826-2.464l0-.13-1.21-39.531-19.4,12.468Zm-9.346-2.146a9.1,9.1,0,0,0,6.656-1.685c.049-.038.1-.074.154-.108l22.882-14.712,0,0a2.337,2.337,0,0,1,3.6,1.9l1.337,43.664,0,.073a1.292,1.292,0,0,0,.193.142l.1.057a3.724,3.724,0,0,0,.977.373,6.519,6.519,0,0,0,2.726,0,3.7,3.7,0,0,0,.974-.373l0,0,.007,0a1.6,1.6,0,0,0,.285-.2l1.728-55.326c0-.066,0-.137.005-.2l.009-.165c.006-.1,0,.049,0-.143a4.377,4.377,0,0,0-5.737-4.153,4.413,4.413,0,0,0-1.17.587,2.141,2.141,0,0,1-.379.246l-23.647,12.184a2.35,2.35,0,0,1-2.4.018l-8.851-5.172,0,0-14.684-8.527v-.005c-.067-.039-.138-.083-.2-.132a6.084,6.084,0,0,0-.541-.346c-.174-.1-.362-.2-.558-.287l-.03-.013a6.836,6.836,0,0,0-2.692-.748,6.373,6.373,0,0,0-3.148,1.035,3,3,0,0,0-.792,1.013,17.833,17.833,0,0,0-1.907,7.7,17.475,17.475,0,0,0,2.024,9.389,11.81,11.81,0,0,0,4.38,4.384l10.756,6.209c.059.031.121.065.18.1A20.217,20.217,0,0,0,2555.336,1435.06Z" transform="translate(-2491.171 -1153.208)" fill="#143d66" fill-rule="evenodd"/>
      <path id="Tracé_15643" data-name="Tracé 15643" d="M2541.033,1491.522a2.819,2.819,0,1,1-5.639,0v-90.139a2.819,2.819,0,1,1,5.639,0V1442.8l30.128-17.4a2.814,2.814,0,0,1,4.221,2.435h.005v43.851a2.819,2.819,0,0,1-5.638,0v-38.978l-28.717,16.581Z" transform="translate(-2475.544 -1151.255)" fill="#143d66" fill-rule="evenodd"/>
      <path id="Tracé_15644" data-name="Tracé 15644" d="M2881.9,1404.107l-135.343-78.141-233.221,134.65,135.342,78.14Z" transform="translate(-2510.515 -1266.328)" fill="#fff" fill-rule="evenodd"/>
      <path id="Tracé_15645" data-name="Tracé 15645" d="M2878,1405.83l-129.729-74.9-227.6,131.4,129.73,74.9,227.6-131.4Zm-128.33-80.577,135.313,78.124a2.812,2.812,0,0,1,.028,4.886l-233.055,134.552a2.815,2.815,0,0,1-2.974.1l-135.343-78.141.006-.005a2.8,2.8,0,0,1,.008-4.862l233.18-134.626A2.809,2.809,0,0,1,2749.671,1325.254Z" transform="translate(-2512.234 -1268.048)" fill="#143d66" fill-rule="evenodd"/>
      <path id="Tracé_15646" data-name="Tracé 15646" d="M2512.242,1379.781a2.818,2.818,0,0,1,5.636,0v82.4a2.818,2.818,0,1,1-5.636,0Z" transform="translate(-2512.242 -1185.493)" fill="#143d66" fill-rule="evenodd"/>
      <path id="Tracé_15647" data-name="Tracé 15647" d="M2570.235,1492.416a2.82,2.82,0,0,1-5.639,0V1410.01a2.82,2.82,0,1,1,5.639,0Z" transform="translate(-2429.255 -1137.581)" fill="#143d66" fill-rule="evenodd"/>
      <path id="Tracé_15648" data-name="Tracé 15648" d="M2660.449,1424.837a2.818,2.818,0,0,1-5.635,0v-57.143a2.818,2.818,0,1,1,5.635,0Z" transform="translate(-2286.253 -1204.652)" fill="#143d66" fill-rule="evenodd"/>
      <path id="Tracé_15649" data-name="Tracé 15649" d="M2660.449,1389.695a2.818,2.818,0,1,1-5.635,0v-31.771a2.818,2.818,0,1,1,5.635,0Z" transform="translate(-2286.253 -1220.142)" fill="#143d66" fill-rule="evenodd"/>
      <path id="Tracé_15650" data-name="Tracé 15650" d="M2563.455,1368.424v-21.095l-39.627,22.879V1391.3Z" transform="translate(-2493.88 -1232.466)" fill="#fff" fill-rule="evenodd"/>
      <path id="Tracé_15651" data-name="Tracé 15651" d="M2562.362,1368.54v-14.608l-33.99,19.626v14.606l33.99-19.624Zm5.637-19.481v21.094h-.01a2.809,2.809,0,0,1-1.41,2.433l-39.393,22.743a2.818,2.818,0,0,1-4.448-2.3v-21.092h0a2.813,2.813,0,0,1,1.4-2.431l39.461-22.783a2.818,2.818,0,0,1,4.4,2.337Z" transform="translate(-2495.606 -1234.195)" fill="#143d66" fill-rule="evenodd"/>
      <path id="Tracé_15652" data-name="Tracé 15652" d="M2528.372,1398.687a2.817,2.817,0,1,1-5.634,0v-40.713a2.817,2.817,0,1,1,5.634,0Z" transform="translate(-2495.606 -1220.059)" fill="#143d66" fill-rule="evenodd"/>
      <path id="Tracé_15653" data-name="Tracé 15653" d="M2568.55,1399.977v-55.388c-.63-5.659-8.964-10.46-12.62-8.348l-22.6,13.05c-2.782,1.559-6.324,4.873-6.407,8.784v64.007a2.469,2.469,0,0,0,0,1.166v.269l.07-.029c.049.158.085.29.118.414Z" transform="translate(-2489.089 -1250.847)" fill="#fff" fill-rule="evenodd"/>
      <path id="Tracé_15654" data-name="Tracé 15654" d="M2567.641,1400.061v-53.92a5.223,5.223,0,0,0-.678-1.846,10.35,10.35,0,0,0-3.758-3.6,7.2,7.2,0,0,0-4.056-1.164,1.536,1.536,0,0,0-.608.173l-.128.07-22.5,12.99,0,.007a12.681,12.681,0,0,0-3.908,3.4,6.113,6.113,0,0,0-1.3,3.335h.008v61.875l36.932-21.324Zm4.7-54.036v55.388h-.008a2.342,2.342,0,0,1-1.168,2.027l-41.441,23.928,0,0a2.454,2.454,0,0,1-.56.233,2.8,2.8,0,0,1-3.152-2.642v-.054a4.751,4.751,0,0,1-.069-.8,4.471,4.471,0,0,1,.069-.765V1359.51h.007v-.046a10.705,10.705,0,0,1,2.2-6.042,17.527,17.527,0,0,1,5.4-4.741l0,.005,22.452-12.962.122-.075a6.187,6.187,0,0,1,2.442-.777,11.822,11.822,0,0,1,6.9,1.77,15.116,15.116,0,0,1,5.481,5.3,9.859,9.859,0,0,1,1.283,3.647A2.374,2.374,0,0,1,2572.341,1346.024Z" transform="translate(-2490.528 -1252.284)" fill="#143d66" fill-rule="evenodd"/>
      <path id="Tracé_15655" data-name="Tracé 15655" d="M2542.98,1338.854l21.386,25.97,18.466,16.39a4.114,4.114,0,1,1-5.707,5.928l-18.7-16.724c-4.3-3.158-9.918-8.019-15.441-12.884Z" transform="translate(-2463.52 -1245.899)" fill="#fff" fill-rule="evenodd"/>
      <path id="Tracé_15656" data-name="Tracé 15656" d="M2546.228,1341.375l21.268,25.83,18.389,16.319a6.4,6.4,0,0,1,.847.987l0,0a6.579,6.579,0,0,1,.632,1.143l0,0a6.479,6.479,0,0,1-3.387,8.487h-.008a6.419,6.419,0,0,1-3.707.413,6.489,6.489,0,0,1-3.337-1.721l-18.514-16.554c-2.132-1.574-4.639-3.6-7.321-5.863-2.912-2.453-5.628-4.819-8.223-7.107l-.8-.7v-26.275l4.156,5.049ZM2564,1370.317l-17.228-20.922v11.086c2.642,2.326,5.193,4.552,7.333,6.351,2.557,2.156,4.987,4.12,7.139,5.7l.061.042c6.294,5.62,12.548,11.336,18.89,16.893a1.8,1.8,0,0,0,.914.473,1.779,1.779,0,0,0,1.024-.117l0,0a1.75,1.75,0,0,0,.926-2.322v-.007a1.66,1.66,0,0,0-.176-.308v-.008a1.62,1.62,0,0,0-.225-.261l-18.541-16.459Z" transform="translate(-2464.96 -1249.906)" fill="#143d66" fill-rule="evenodd"/>
      <path id="Tracé_15657" data-name="Tracé 15657" d="M2589.39,1378.72l-22.995-13.274-30.827,17.8,23,13.276Z" transform="translate(-2475.27 -1203.751)" fill="#fff" fill-rule="evenodd"/>
      <path id="Tracé_15658" data-name="Tracé 15658" d="M2586.147,1380.155l-18.32-10.573-26.148,15.094L2560,1395.251l26.143-15.1Zm-17.154-15.3,22.97,13.261a2.339,2.339,0,0,1,.027,4.071l-30.79,17.775a2.346,2.346,0,0,1-2.366.021l-22.969-13.261a2.335,2.335,0,0,1-.028-4.07l30.791-17.777A2.341,2.341,0,0,1,2568.993,1364.851Z" transform="translate(-2476.706 -1205.185)" fill="#143d66" fill-rule="evenodd"/>
      <path id="Tracé_15659" data-name="Tracé 15659" d="M2544.463,1402.771l30.821-17.8,18.172-23.469-30.822,17.795Z" transform="translate(-2461.169 -1210.004)" fill="#fff" fill-rule="evenodd"/>
      <path id="Tracé_15660" data-name="Tracé 15660" d="M2555.04,1396.22l20.112-11.615,10.6-13.7-20.113,11.613-10.6,13.7Zm22.854-7.786-30.819,17.8a2.342,2.342,0,0,1-3.027-3.459l18.169-23.478a2.389,2.389,0,0,1,.687-.595l30.707-17.731a2.343,2.343,0,0,1,3.134,3.394l-18.11,23.392A2.36,2.36,0,0,1,2577.894,1388.433Z" transform="translate(-2462.605 -1211.44)" fill="#143d66" fill-rule="evenodd"/>
      <path id="Tracé_15661" data-name="Tracé 15661" d="M2534.357,1340.13a9.475,9.475,0,0,0,8.575,0c2.365-1.368,2.368-3.586,0-4.951a9.475,9.475,0,0,0-8.575,0C2531.987,1336.547,2531.99,1338.762,2534.357,1340.13Z" transform="translate(-2480.005 -1253.351)" fill="#fff" fill-rule="evenodd"/>
      <path id="Tracé_15662" data-name="Tracé 15662" d="M2536.97,1339.543a7.262,7.262,0,0,0,6.235,0,1.9,1.9,0,0,0,.561-.451,1.949,1.949,0,0,0-.569-.447l-.09-.056a6.58,6.58,0,0,0-3.024-.646,6.441,6.441,0,0,0-3.115.7v0a2.037,2.037,0,0,0-.568.442,1.845,1.845,0,0,0,.564.455l0,0,0,0Zm3.115,5.4a11.144,11.144,0,0,1-5.462-1.344l0-.005a6.253,6.253,0,0,1-2.324-2.216l.007-.005-.007,0a4.541,4.541,0,0,1-.63-2.276h.008a4.516,4.516,0,0,1,.622-2.274,6.229,6.229,0,0,1,2.319-2.228l0,.005.008-.005a11.113,11.113,0,0,1,5.451-1.344,11.233,11.233,0,0,1,5.307,1.262l.157.082a6.19,6.19,0,0,1,2.316,2.218v.007a4.532,4.532,0,0,1,.635,2.277h-.012a4.48,4.48,0,0,1-.529,2.107,1.805,1.805,0,0,1-.094.178,6.229,6.229,0,0,1-2.327,2.221A11.125,11.125,0,0,1,2540.085,1344.942Z" transform="translate(-2481.446 -1254.791)" fill="#0087ca" fill-rule="evenodd"/>
      <path id="Tracé_15663" data-name="Tracé 15663" d="M2533.144,1335.508h12.127l.888,11.53a2.269,2.269,0,0,1,.029.356,3.468,3.468,0,0,1-2.044,2.851,10.915,10.915,0,0,1-9.873,0,3.468,3.468,0,0,1-2.048-2.851,2.417,2.417,0,0,1,.029-.354Z" transform="translate(-2480.568 -1251.203)" fill="#fff" fill-rule="evenodd"/>
      <path id="Tracé_15664" data-name="Tracé 15664" d="M2534.585,1334.6l14.295,0,1.059,13.7.02.168c.012.142.02.263.02.364a5.707,5.707,0,0,1-3.225,4.875l0,.006a13.184,13.184,0,0,1-12.21,0h-.011a7.15,7.15,0,0,1-2.248-1.971l.008,0a4.932,4.932,0,0,1-.979-2.906c0-.093.005-.209.017-.352l.02-.18,1.057-13.7,2.176,0Zm9.952,4.7h-7.782l-.727,9.358-.023.178c0-.013.006-.024,0,0v0s0-.013,0,0a.338.338,0,0,0,.082.175h.01a2.383,2.383,0,0,0,.78.646l-.005.006a8.686,8.686,0,0,0,7.528-.006h.008c.577-.33.863-.62.863-.821h0l0-.015c0-.013,0-.011,0,0l-.023-.165-.723-9.358Zm.751,9.538,0-.015,0,.015Zm0,0c0,.019,0,.011,0,0Zm-.008,0Zm-9.279,0,0,0,0,0Zm.007,0v0Zm0,0" transform="translate(-2482.007 -1252.644)" fill="#143d66" fill-rule="evenodd"/>
      <path id="Tracé_15665" data-name="Tracé 15665" d="M2562.417,1356.3l-5.464,4.666,7.021,8.365,2.629-.438,7.147,6.35c1.454-2.086,2.426-3.823-1.3-9.4C2569.3,1361.132,2568.649,1361.238,2562.417,1356.3Z" transform="translate(-2441.373 -1218.254)" fill="#fff" fill-rule="evenodd"/>
      <path id="Tracé_15666" data-name="Tracé 15666" d="M2563.916,1360.759l-2.235,1.911,4.667,5.567,1.313-.22a2.36,2.36,0,0,1,1.937.561v0l4.395,3.906a14.977,14.977,0,0,0-2.051-3.9c-2.274-3.4-3.135-4.061-6.265-6.463-.528-.4-1.115-.853-1.76-1.358Zm-7.05-.141,5.4-4.608a2.345,2.345,0,0,1,3.049-.113c1.321,1.047,2.347,1.835,3.207,2.494,3.609,2.768,4.6,3.531,7.311,7.582,2.137,3.2,2.934,5.429,2.99,7.246a7.133,7.133,0,0,1-1.611,4.64,2.434,2.434,0,0,1-.271.375,2.347,2.347,0,0,1-3.314.194l-6.308-5.607-1.423.236a2.343,2.343,0,0,1-2.283-.789l-7.02-8.365A2.345,2.345,0,0,1,2556.867,1360.618Z" transform="translate(-2442.808 -1219.691)" fill="#143d66" fill-rule="evenodd"/>
      <path id="Tracé_15667" data-name="Tracé 15667" d="M2543.187,1325.121h-2.28c-5.756,0-10.706,4.713-10.465,10.461l.537,12.773a10.663,10.663,0,0,0,10.467,10.464h1.143a10.678,10.678,0,0,0,10.465-10.464l.6-12.773C2553.919,1329.834,2548.941,1325.121,2543.187,1325.121Z" transform="translate(-2483.408 -1267.667)" fill="#fff" fill-rule="evenodd"/>
      <path id="Tracé_15668" data-name="Tracé 15668" d="M2544.626,1328.91h-2.633a8.366,8.366,0,0,0-5.5,2.409,7.447,7.447,0,0,0-2.269,5.3v.312l.536,12.773a8.826,8.826,0,0,0,2.548,5.883,7.845,7.845,0,0,0,5.579,2.327h1.144a7.807,7.807,0,0,0,5.561-2.322,8.926,8.926,0,0,0,2.564-5.907l.6-12.762v-.346a7.386,7.386,0,0,0-2.262-5.256,8.383,8.383,0,0,0-5.481-2.409l-.382,0Zm-2.28-4.7h2.28c.091,0,.285.006.567.016l.036,0a13.1,13.1,0,0,1,8.547,3.751,12.068,12.068,0,0,1,3.671,8.6c0,.083-.007.266-.017.549l-.6,12.78a13.626,13.626,0,0,1-3.924,9.012,12.457,12.457,0,0,1-8.879,3.691h-1.144a12.494,12.494,0,0,1-8.9-3.7,13.553,13.553,0,0,1-3.9-9.022l-.539-12.771-.018-.5a12.129,12.129,0,0,1,3.687-8.64,13.076,13.076,0,0,1,8.6-3.751Z" transform="translate(-2484.849 -1269.108)" fill="#143d66" fill-rule="evenodd"/>
      <path id="Tracé_15669" data-name="Tracé 15669" d="M2543.187,1325.121h-2.28c-5.756,0-10.706,4.713-10.465,10.461l.537,12.773c3.379-2.379,5.584-5.308,5.726-10.082,8.75,1.024,11.641.543,16.614-5.641A10.547,10.547,0,0,0,2543.187,1325.121Z" transform="translate(-2483.408 -1267.667)" fill="#143d66" fill-rule="evenodd"/>
      <path id="Tracé_15670" data-name="Tracé 15670" d="M2544.626,1328.91h-2.633a8.366,8.366,0,0,0-5.5,2.409,7.453,7.453,0,0,0-2.269,5.3v.313l.313,7.435a9.586,9.586,0,0,0,1.272-4.718,2.336,2.336,0,0,1,2.4-2.276l.2.013v0c4.061.474,6.721.613,8.76-.028,1.679-.528,3.145-1.68,4.932-3.753a7.935,7.935,0,0,0-2.507-3.048,8.349,8.349,0,0,0-4.97-1.646Zm-2.28-4.7h2.28a13.053,13.053,0,0,1,7.757,2.58,12.5,12.5,0,0,1,4.61,6.574,2.342,2.342,0,0,1-.408,2.174c-2.8,3.474-5.075,5.369-8.02,6.295a21,21,0,0,1-8.34.461,13.249,13.249,0,0,1-1.73,4.577,16.356,16.356,0,0,1-4.729,4.839,2.341,2.341,0,0,1-3.686-1.824l-.539-12.768-.018-.5a12.136,12.136,0,0,1,3.687-8.643,13.072,13.072,0,0,1,8.6-3.748Z" transform="translate(-2484.849 -1269.108)" fill="#143d66" fill-rule="evenodd"/>
      <path id="Tracé_15671" data-name="Tracé 15671" d="M2534.942,1372.34l6.249-4.74,7.288,9.427-1.075,2.706,5.108,9.1-4.927,1.581C2538.236,1380.411,2539.855,1382.361,2534.942,1372.34Z" transform="translate(-2476.26 -1200.335)" fill="#fff" fill-rule="evenodd"/>
      <path id="Tracé_15672" data-name="Tracé 15672" d="M2535.024,1371.871l6.186-4.7a2.336,2.336,0,0,1,3.264.434l0,0,7.289,9.43a2.343,2.343,0,0,1,.278,2.4l-.618,1.556,4.565,8.136a2.344,2.344,0,0,1-.9,3.19,2.278,2.278,0,0,1-.568.227l-4.791,1.538a2.341,2.341,0,0,1-2.526-.749l-1.05-1.122a79.432,79.432,0,0,1-6.92-7.875,40.742,40.742,0,0,1-3.336-6.173c-.466-.969-1-2.091-1.624-3.355a2.339,2.339,0,0,1,.748-2.934Zm7.163.429-2.865,2.178.8,1.663a38.1,38.1,0,0,0,2.95,5.511,77.836,77.836,0,0,0,6.5,7.365l.143.149.783-.25-3.7-6.6,0,0a2.332,2.332,0,0,1-.13-2.007l.582-1.462Z" transform="translate(-2477.695 -1201.769)" fill="#143d66" fill-rule="evenodd"/>
      <path id="Tracé_15673" data-name="Tracé 15673" d="M2541.6,1351.717l-14.725-5.181c2.745,10.351,4.932,20.838,6.887,31.812a5.074,5.074,0,0,0,.685,2.026l12.2,22.379a4.114,4.114,0,1,0,7.369-3.663l-10.191-22.561Z" transform="translate(-2489.045 -1233.723)" fill="#fff" fill-rule="evenodd"/>
      <path id="Tracé_15674" data-name="Tracé 15674" d="M2526.049,1348.568a2.342,2.342,0,0,1,4.529-1.194c1.391,5.232,2.631,10.477,3.768,15.784,1.151,5.359,2.191,10.746,3.166,16.222l.018.139a2.7,2.7,0,0,0,.124.562v.009a2.917,2.917,0,0,0,.242.523l12.251,22.459.041.094a2.473,2.473,0,0,0,.192.3,2.045,2.045,0,0,0,.252.261,1.784,1.784,0,0,0,2.5-.194,1.729,1.729,0,0,0,.405-.93,1.829,1.829,0,0,0-.168-1.029l-.045-.082-10.349-22.9-2.269-25.229a2.339,2.339,0,0,1,4.661-.4l2.194,24.4,10.037,22.215-.006,0a6.456,6.456,0,0,1-5.326,9.255h-.012a6.432,6.432,0,0,1-4.687-1.554,6.316,6.316,0,0,1-1.533-1.958L2533.867,1383a7.394,7.394,0,0,1-.65-1.414l0,0a7.2,7.2,0,0,1-.331-1.427c-.98-5.491-2.007-10.821-3.123-16.028C2528.631,1358.865,2527.4,1353.687,2526.049,1348.568Z" transform="translate(-2490.483 -1235.161)" fill="#143d66" fill-rule="evenodd"/>
      <path id="Tracé_15675" data-name="Tracé 15675" d="M2701.85,1400.767l-34.355-19.836-39.629,22.879,34.356,19.836Z" transform="translate(-2328.967 -1179.204)" fill="#fff" fill-rule="evenodd"/>
      <path id="Tracé_15676" data-name="Tracé 15676" d="M2697.96,1402.487l-28.743-16.593-34.012,19.633,28.745,16.594,34.01-19.634Zm-27.345-22.268,34.327,19.82a2.761,2.761,0,0,1,1.063,1.052,2.8,2.8,0,0,1-1.033,3.831l-39.464,22.782a2.817,2.817,0,0,1-2.973.1l-34.355-19.837,0,0a2.806,2.806,0,0,1,.007-4.863l39.586-22.855A2.813,2.813,0,0,1,2670.615,1380.219Z" transform="translate(-2330.688 -1180.924)" fill="#143d66" fill-rule="evenodd"/>
      <path id="Tracé_15677" data-name="Tracé 15677" d="M2615.341,1375.772l32.73-18.9,23.639,13.646-32.726,18.9Z" transform="translate(-2348.822 -1217.334)" fill="#fff" stroke="#143d66" stroke-width="1" fill-rule="evenodd"/>
      <path id="Tracé_15678" data-name="Tracé 15678" d="M2615.694,1375.041l32.7-18.876a2.8,2.8,0,0,1,2.836.023l23.6,13.621a2.8,2.8,0,0,1,1.034,3.831,2.759,2.759,0,0,1-1.027,1.031l0,.005-32.73,18.9a2.815,2.815,0,0,1-2.97-.093l-23.476-13.556a2.807,2.807,0,0,1,.029-4.883Zm34.1-13.205-27.115,15.656,18.021,10.4,27.117-15.654Z" transform="translate(-2350.544 -1219.053)" fill="#143d66" fill-rule="evenodd"/>
      <path id="Tracé_15679" data-name="Tracé 15679" d="M2685.332,1451.16a2.819,2.819,0,0,1-5.639,0v-38.977l-33.988,19.626v42.23a2.82,2.82,0,0,1-5.639,0v-43.85h0a2.819,2.819,0,0,1,1.406-2.433l38.217-22.066v-26.068a2.819,2.819,0,0,1,5.639,0Z" transform="translate(-2309.629 -1185.745)" fill="#143d66" fill-rule="evenodd"/>
      <path id="Tracé_15680" data-name="Tracé 15680" d="M2628.179,1384.286l5.256-3.682-6.761-9.818-2.9.2-7.108-7.642-1.841,3.391C2621.5,1378.692,2620.135,1376.554,2628.179,1384.286Z" transform="translate(-2349.636 -1207.081)" fill="#fff" fill-rule="evenodd"/>
      <path id="Tracé_15681" data-name="Tracé 15681" d="M2629.853,1382.706l1.776-1.246-4.681-6.806-1.578.108a2.351,2.351,0,0,1-1.922-.8l-3.17-3.412a57.34,57.34,0,0,0,3.885,6.4,38.8,38.8,0,0,0,4.349,4.486l1.342,1.269Zm6.36,1.254-5.147,3.6a2.344,2.344,0,0,1-3.072-.15c-.987-.951-1.9-1.817-2.693-2.564a40.4,40.4,0,0,1-4.863-5.074,79.589,79.589,0,0,1-5.388-8.979l-.734-1.321a2.336,2.336,0,0,1-.112-2.422l1.84-3.392h0a2.478,2.478,0,0,1,.464-.6,2.347,2.347,0,0,1,3.313.119l6.343,6.821,1.8-.121v0a2.338,2.338,0,0,1,2.08,1.005l6.755,9.821A2.341,2.341,0,0,1,2636.212,1383.961Z" transform="translate(-2351.076 -1208.518)" fill="#143d66" fill-rule="evenodd"/>
      <path id="Tracé_15682" data-name="Tracé 15682" d="M2631.839,1400.964a2.143,2.143,0,0,1,0-4.057,7.771,7.771,0,0,1,7.025,0l9.237,5.331a2.142,2.142,0,0,1,0,4.057,7.744,7.744,0,0,1-7.027,0Z" transform="translate(-2324.974 -1155.21)" fill="#143d66" fill-rule="evenodd"/>
      <path id="Tracé_15683" data-name="Tracé 15683" d="M2632.117,1404.43a5.717,5.717,0,0,1-1.815-1.587v0l-.007,0a4.1,4.1,0,0,1,.007-4.927l-.007,0a5.676,5.676,0,0,1,1.812-1.592l.164-.088a8.445,8.445,0,0,1,2.081-.781,10.577,10.577,0,0,1,4.888-.01,2.277,2.277,0,0,1,.23.067,8.3,8.3,0,0,1,2.01.811l.123.075,9.112,5.258,0,0a5.763,5.763,0,0,1,1.8,1.59l.006.006,0-.006a4.107,4.107,0,0,1-.008,4.935,5.714,5.714,0,0,1-1.8,1.582l0,.005a8.339,8.339,0,0,1-2.242.868,10.356,10.356,0,0,1-4.89,0,8.237,8.237,0,0,1-2.243-.868l-.125-.076-9.1-5.258Zm2.341-4.056-.008.006,9.109,5.258.134.07a3.564,3.564,0,0,0,.973.374,6.459,6.459,0,0,0,2.727,0,3.608,3.608,0,0,0,.975-.374l0,0,0,0,0-.005-9.106-5.255-.131-.073a3.612,3.612,0,0,0-.819-.333l-.159-.029a5.7,5.7,0,0,0-1.361-.155,5.906,5.906,0,0,0-1.36.145,3.786,3.786,0,0,0-.893.323Z" transform="translate(-2326.415 -1156.649)" fill="#143d66" fill-rule="evenodd"/>
      <path id="Tracé_15684" data-name="Tracé 15684" d="M2622.12,1405.946a2.142,2.142,0,0,1,0-4.056,7.768,7.768,0,0,1,7.029,0l9.235,5.333a2.142,2.142,0,0,1,0,4.056,7.766,7.766,0,0,1-7.027,0Z" transform="translate(-2340.38 -1147.313)" fill="#143d66" fill-rule="evenodd"/>
      <path id="Tracé_15685" data-name="Tracé 15685" d="M2622.387,1409.417a5.78,5.78,0,0,1-1.809-1.594,4.115,4.115,0,0,1,0-4.929,5.732,5.732,0,0,1,1.809-1.592,8.492,8.492,0,0,1,2.245-.869,10.356,10.356,0,0,1,4.889,0,8.478,8.478,0,0,1,2.24.869l.124.077,9.1,5.255a5.717,5.717,0,0,1,1.813,1.59,4.086,4.086,0,0,1,.006,4.927l.006.006a5.73,5.73,0,0,1-1.813,1.59l-.162.085a8.528,8.528,0,0,1-2.082.786,10.456,10.456,0,0,1-4.888,0,8.506,8.506,0,0,1-2.234-.871l-9.242-5.335,0,.005Zm2.35-4.059v0l9.228,5.328a3.644,3.644,0,0,0,.985.374,6.338,6.338,0,0,0,2.722,0,3.833,3.833,0,0,0,.894-.324l.09-.053-9.11-5.258-.13-.072a3.725,3.725,0,0,0-.973-.375,6.629,6.629,0,0,0-2.728,0A3.723,3.723,0,0,0,2624.737,1405.358Z" transform="translate(-2341.819 -1148.754)" fill="#143d66" fill-rule="evenodd"/>
      <path id="Tracé_15686" data-name="Tracé 15686" d="M2635.061,1436.667l-1.78-55.584c-.012-.151-.019-.3-.019-.456a6.724,6.724,0,0,1,10.1-5.808l37.706,19.432-8.745,15.148-26.025-16.734-1.3,44a2.47,2.47,0,0,1-1.454,2.027,7.766,7.766,0,0,1-7.026,0A2.473,2.473,0,0,1,2635.061,1436.667Z" transform="translate(-2320.414 -1190.331)" fill="#fff" fill-rule="evenodd"/>
      <path id="Tracé_15687" data-name="Tracé 15687" d="M2634.157,1437.984l-1.773-55.311h0l-.027-.6a9.066,9.066,0,0,1,11.425-8.754,8.91,8.91,0,0,1,2.147.89l37.651,19.4a2.339,2.339,0,0,1,1.009,3.154,2.088,2.088,0,0,1-.13.222l-8.668,15.02a2.346,2.346,0,0,1-3.2.861l-.1-.06-.006.005-22.539-14.492-1.177,39.787h.008a4.189,4.189,0,0,1-.827,2.463,5.731,5.731,0,0,1-1.8,1.59,8.292,8.292,0,0,1-2.241.871,10.394,10.394,0,0,1-4.891,0,8.293,8.293,0,0,1-2.242-.871l-.156-.1a5.61,5.61,0,0,1-1.649-1.495,4.207,4.207,0,0,1-.824-2.463l0-.122Zm2.9-55.537,1.778,55.388.008.072a.876.876,0,0,0,.188.143l.1.057a3.74,3.74,0,0,0,.975.375,6.5,6.5,0,0,0,2.727,0,3.7,3.7,0,0,0,.974-.375,1.727,1.727,0,0,0,.3-.2l1.293-43.738a2.344,2.344,0,0,1,3.608-2.032l23.962,15.408,6.288-10.891-35.626-18.362a4.376,4.376,0,0,0-6.575,3.782c0,.192-.006.042-.005.139l.012.156h0Z" transform="translate(-2321.853 -1191.77)" fill="#143d66" fill-rule="evenodd"/>
      <path id="Tracé_15688" data-name="Tracé 15688" d="M2654.032,1362l-.648,6.382-11.867-1.1-1.244-2.628-10.139-2.474,2.063-3.26C2645.889,1358.9,2643.359,1358.754,2654.032,1362Z" transform="translate(-2325.373 -1214.108)" fill="#fff" fill-rule="evenodd"/>
      <path id="Tracé_15689" data-name="Tracé 15689" d="M2657.8,1363.664l-.647,6.383a2.343,2.343,0,0,1-2.56,2.1l-11.851-1.1a2.335,2.335,0,0,1-1.9-1.331h0l-.766-1.624-9.049-2.205a2.345,2.345,0,0,1-1.725-2.825,2.389,2.389,0,0,1,.3-.695l2.06-3.263a2.339,2.339,0,0,1,2.083-1.09l1.6,0a79.372,79.372,0,0,1,10.462.311,40.99,40.99,0,0,1,6.8,1.77c1.29.4,2.8.873,3.56,1.109a2.337,2.337,0,0,1,1.651,2.466Zm-5.074,3.609.221-2.166-1.753-.54a37.8,37.8,0,0,0-6.043-1.606,56.278,56.278,0,0,0-7.493-.277l4.506,1.1a2.34,2.34,0,0,1,1.665,1.3l.673,1.424Z" transform="translate(-2326.807 -1215.544)" fill="#143d66" fill-rule="evenodd"/>
      <path id="Tracé_15690" data-name="Tracé 15690" d="M2659.471,1414.849c5.478,3.892,11.175,2.292,17.083-1.421l14.093-8.137c11.39-6.577,7.647-24.269,3.709-26.544-3.357-1.937-5.492-1.513-7.969-.4h0l-.006,0a8.59,8.59,0,0,0-1.54.891l-17.935,10.405-8.851,5.17-23.788-12.259a6.717,6.717,0,0,0-10.707,5.408c0,.151,0,.3.015.45l1.733,55.585a2.468,2.468,0,0,0,1.455,2.029,7.772,7.772,0,0,0,7.027,0,2.472,2.472,0,0,0,1.453-2.029l1.344-43.869Z" transform="translate(-2335.791 -1184.793)" fill="#fff" fill-rule="evenodd"/>
      <path id="Tracé_15691" data-name="Tracé 15691" d="M2662.335,1414.416a9.065,9.065,0,0,0,6.653,1.685,20.08,20.08,0,0,0,7.758-3.219l14.17-8.187.12-.064a11.831,11.831,0,0,0,4.27-4.314,17.462,17.462,0,0,0,2.022-9.392,17.828,17.828,0,0,0-1.9-7.694l0,0a3.134,3.134,0,0,0-.791-1.023,6.327,6.327,0,0,0-3.147-1.031,6.773,6.773,0,0,0-2.694.744l-.029.013a6.061,6.061,0,0,0-1.1.644,2.765,2.765,0,0,1-.291.181l-17.839,10.35h0l-8.853,5.171a2.342,2.342,0,0,1-2.392-.015l-23.646-12.186a2.325,2.325,0,0,1-.381-.243,4.313,4.313,0,0,0-1.172-.59,4.374,4.374,0,0,0-5.737,4.156c0,.2-.009.054,0,.143l.011.16c0,.07.005.137,0,.2l1.729,55.316a1.314,1.314,0,0,0,.293.212l.085.054a3.808,3.808,0,0,0,.892.321,6.5,6.5,0,0,0,2.723,0,3.681,3.681,0,0,0,.979-.37v0a1.216,1.216,0,0,0,.29-.208l.007-.064,1.333-43.662a2.341,2.341,0,0,1,3.605-1.9v0l22.884,14.709.155.109Zm7.261,6.328a13.577,13.577,0,0,1-9.958-2.494l-19.392-12.471-1.21,39.531,0,.13a4.123,4.123,0,0,1-.679,2.244,2.179,2.179,0,0,1-.14.222,5.652,5.652,0,0,1-1.812,1.59l0,0-.009,0a8.274,8.274,0,0,1-2.231.871,10.373,10.373,0,0,1-4.89,0,8.34,8.34,0,0,1-2.079-.785l-.164-.085a5.645,5.645,0,0,1-1.809-1.59l0-.005a4.181,4.181,0,0,1-.825-2.461h.009l-1.73-55.378c-.017-.217-.019-.442-.029-.657a9.064,9.064,0,0,1,9.069-9.068,9.149,9.149,0,0,1,2.835.452,9.056,9.056,0,0,1,2.374,1.2l22.49,11.589,7.746-4.521v0l17.823-10.341c.269-.193.56-.377.865-.555.28-.163.564-.312.846-.444a1.983,1.983,0,0,1,.332-.147,9.823,9.823,0,0,1,9.93.582,7.258,7.258,0,0,1,2.515,2.73l-.005,0,.005,0a22.737,22.737,0,0,1,2.532,9.844,22.081,22.081,0,0,1-2.648,11.907,16.468,16.468,0,0,1-5.962,6.023l-.135.083-14.1,8.14A24.474,24.474,0,0,1,2669.6,1420.744Z" transform="translate(-2337.23 -1186.227)" fill="#143d66" fill-rule="evenodd"/>
      <path id="Tracé_15692" data-name="Tracé 15692" d="M2678.658,1418.774V1365.1c0-8.164-7.72-12.579-15.222-8.246l-.041.026L2640.6,1370.04c-1.716.99-3.851,3.732-3.759,5.635v58.632c.152,5.685,9.5,5.458,12.662,3.632l23.845-13.765C2675.165,1423.125,2678.512,1421.933,2678.658,1418.774Z" transform="translate(-2314.741 -1220.05)" fill="#fff" fill-rule="evenodd"/>
      <path id="Tracé_15693" data-name="Tracé 15693" d="M2677.746,1420.215v-53.67a8.447,8.447,0,0,0-1.054-4.262,6.608,6.608,0,0,0-2.437-2.451,6.943,6.943,0,0,0-3.447-.879,9.509,9.509,0,0,0-4.724,1.354l-.041.026c-.067.039-.137.078-.207.111l-22.624,13.06,0,.005a6.5,6.5,0,0,0-1.917,1.942,3.287,3.287,0,0,0-.676,1.558v.109h.01l0,58.716a1.813,1.813,0,0,0,.225.762,3,3,0,0,0,1.673,1.15,9.769,9.769,0,0,0,3.347.443,8.986,8.986,0,0,0,3.893-.837l.132-.07,23.722-13.693c.329-.192.656-.362,1-.544,1.292-.674,2.98-1.558,3.12-2.829Zm4.7-53.67v53.67h-.009v.1c-.182,4.02-3.287,5.641-5.644,6.872-.315.165-.61.321-.837.452l-23.716,13.691-.12.076a13.87,13.87,0,0,1-6.133,1.46,14.459,14.459,0,0,1-4.981-.683,7.472,7.472,0,0,1-4.205-3.239,6.426,6.426,0,0,1-.844-2.891,1.984,1.984,0,0,1-.021-.307v-58.63h0a7.7,7.7,0,0,1,1.456-4.255,11.447,11.447,0,0,1,3.472-3.408h0l22.635-13.062.163-.1v0l.037-.023a14.2,14.2,0,0,1,7.106-2.017,11.544,11.544,0,0,1,5.76,1.508,11.222,11.222,0,0,1,4.177,4.175A13.074,13.074,0,0,1,2682.444,1366.545Z" transform="translate(-2316.179 -1221.49)" fill="#143d66" fill-rule="evenodd"/>
      <path id="Tracé_15694" data-name="Tracé 15694" d="M2643.137,1354.826h12.178l.9,11.581a2.379,2.379,0,0,1,.027.36,3.485,3.485,0,0,1-2.053,2.862,10.946,10.946,0,0,1-9.916,0,3.486,3.486,0,0,1-2.053-2.862,3.125,3.125,0,0,1,.026-.36Z" transform="translate(-2306.225 -1220.582)" fill="#fff" fill-rule="evenodd"/>
      <path id="Tracé_15695" data-name="Tracé 15695" d="M2644.577,1353.917h12.178a2.347,2.347,0,0,1,2.348,2.283l.879,11.377.025.266c.013.142.022.262.022.365a4.977,4.977,0,0,1-.986,2.919,7.117,7.117,0,0,1-2.249,1.968l0,0a13.206,13.206,0,0,1-12.262,0l-.146-.09a7.051,7.051,0,0,1-2.1-1.88,4.977,4.977,0,0,1-.974-2.919h-.008c0-.106.005-.224.014-.365l.021-.168.894-11.581a2.348,2.348,0,0,1,2.342-2.175v0Zm10.006,4.7h-7.838l-.727,9.407h0a1.609,1.609,0,0,0-.022.193v0H2646v0h-.007v0a.5.5,0,0,0,.094.174,2.323,2.323,0,0,0,.688.591l.108.06a8.709,8.709,0,0,0,7.564,0l0,.005.009-.005a2.476,2.476,0,0,0,.785-.651.357.357,0,0,0,.085-.184v-.01l-.017-.173-.727-9.407Zm.746,9.593,0,0c0,.007,0,.014,0,0Zm0-.018c0-.016,0,0,0,0l0,0Zm-9.329.015Zm0,0c0-.026,0-.015-.007,0Z" transform="translate(-2307.667 -1222.023)" fill="#143d66" fill-rule="evenodd"/>
      <path id="Tracé_15696" data-name="Tracé 15696" d="M2644.352,1359.534a9.535,9.535,0,0,0,8.647,0c2.389-1.38,2.391-3.616,0-4.993a9.567,9.567,0,0,0-8.651,0C2641.96,1355.918,2641.964,1358.154,2644.352,1359.534Z" transform="translate(-2305.68 -1222.674)" fill="#fff" fill-rule="evenodd"/>
      <path id="Tracé_15697" data-name="Tracé 15697" d="M2644.72,1359.453a9.255,9.255,0,0,0,8.318,0l.018-.011a3.594,3.594,0,0,0,1.34-1.246,1.827,1.827,0,0,0,0-1.907,3.6,3.6,0,0,0-1.358-1.257,9.238,9.238,0,0,0-8.318,0l-.018.01a3.6,3.6,0,0,0-1.34,1.247,1.842,1.842,0,0,0,0,1.906,3.664,3.664,0,0,0,1.358,1.259Zm4.159,1.654a9.177,9.177,0,0,1-4.49-1.08,4.263,4.263,0,0,1-1.6-1.5,2.482,2.482,0,0,1,0-2.571,4.218,4.218,0,0,1,1.582-1.487l.016-.01a9.879,9.879,0,0,1,8.986,0,4.236,4.236,0,0,1,1.6,1.5,2.477,2.477,0,0,1,0,2.57,4.238,4.238,0,0,1-1.582,1.486l-.016.013A9.192,9.192,0,0,1,2648.879,1361.107Z" transform="translate(-2305.885 -1222.88)" fill="#0087ca" fill-rule="evenodd"/>
      <path id="Tracé_15698" data-name="Tracé 15698" d="M2653.187,1344.395h-2.274c-5.758,0-10.709,4.712-10.468,10.464l.538,12.772a10.661,10.661,0,0,0,10.467,10.462h1.143a10.679,10.679,0,0,0,10.464-10.462l.6-12.772C2663.922,1349.107,2658.945,1344.395,2653.187,1344.395Z" transform="translate(-2309.043 -1237.119)" fill="#fff" fill-rule="evenodd"/>
      <path id="Tracé_15699" data-name="Tracé 15699" d="M2654.626,1348.184H2652a8.355,8.355,0,0,0-5.5,2.409,7.457,7.457,0,0,0-2.271,5.3v.311l.534,12.773a8.831,8.831,0,0,0,2.549,5.88,7.823,7.823,0,0,0,5.577,2.326h1.145a7.8,7.8,0,0,0,5.561-2.319,8.893,8.893,0,0,0,2.56-5.9l.6-12.774v-.343a7.39,7.39,0,0,0-2.262-5.261,8.4,8.4,0,0,0-5.47-2.41l-.395,0Zm-2.276-4.7h2.276c.1,0,.3.01.6.023a13.105,13.105,0,0,1,8.553,3.748,12.06,12.06,0,0,1,3.674,8.6c0,.08-.007.264-.019.545l-.6,12.773a13.624,13.624,0,0,1-3.924,9.016,12.462,12.462,0,0,1-8.879,3.694h-1.145a12.494,12.494,0,0,1-8.9-3.7,13.548,13.548,0,0,1-3.906-9.02l-.538-12.77-.015-.5a12.116,12.116,0,0,1,3.686-8.643,13.051,13.051,0,0,1,8.6-3.75Z" transform="translate(-2310.483 -1238.561)" fill="#143d66" fill-rule="evenodd"/>
      <path id="Tracé_15700" data-name="Tracé 15700" d="M2652.673,1344.395H2650.4a10.623,10.623,0,0,0-9.636,6.157c1.062,7.528,4.069,6.832,7.617,10.611,3.74,3.989,1.331,10.01,6.172,10.361,1.882.137,6.009-.63,7.4-2.745l.535-.455c.026-.23.044-.46.053-.693l.6-12.772C2663.408,1349.107,2658.43,1344.395,2652.673,1344.395Z" transform="translate(-2308.53 -1237.119)" fill="#fff" fill-rule="evenodd"/>
      <path id="Tracé_15701" data-name="Tracé 15701" d="M2654.106,1348.184h-2.274a8.317,8.317,0,0,0-4.479,1.31,8.1,8.1,0,0,0-2.727,2.869c.649,3.715,1.942,4.651,3.562,5.822l.008.006v-.006a21.44,21.44,0,0,1,3.319,2.815,13.233,13.233,0,0,1,3.086,6.876c.32,1.471.58,2.68,1.546,2.753a9.437,9.437,0,0,0,3.531-.6,3.725,3.725,0,0,0,1.752-1.1,2.333,2.333,0,0,1,.22-.282l.582-12.453v-.343a7.387,7.387,0,0,0-2.263-5.261,8.4,8.4,0,0,0-5.469-2.41l-.4,0Zm-2.274-4.7h2.274c.1,0,.3.01.6.023a13.1,13.1,0,0,1,8.552,3.748,12.066,12.066,0,0,1,3.674,8.6c0,.08-.005.264-.019.545-.208,4.395-.383,8.8-.62,13.194l-.041.419a2.327,2.327,0,0,1-.817,1.541l-.333.281a8.429,8.429,0,0,1-3.788,2.583,14.518,14.518,0,0,1-5.5.886c-4.479-.323-5.076-3.1-5.8-6.457a9.464,9.464,0,0,0-1.913-4.635,17.507,17.507,0,0,0-2.659-2.231l0-.005c-2.627-1.9-4.689-3.394-5.571-9.665a2.315,2.315,0,0,1,.182-1.272,12.731,12.731,0,0,1,4.777-5.491A12.993,12.993,0,0,1,2651.832,1343.484Z" transform="translate(-2309.965 -1238.561)" fill="#143d66" fill-rule="evenodd"/>
      <path id="Tracé_15702" data-name="Tracé 15702" d="M2622.388,1389.259c-.516-.167-.362.122-1.44-.82s-1.893-4.111-.39-5.829a4.13,4.13,0,0,1,4.43-1.2l19.916,11.917,21.794-31.9,7.561,14.107-24.134,27.22a5.105,5.105,0,0,1-5.547,1.079Z" transform="translate(-2341.856 -1210.118)" fill="#fff" fill-rule="evenodd"/>
      <path id="Tracé_15703" data-name="Tracé 15703" d="M2665.561,1382.449a2.339,2.339,0,0,1,3.67,2.9l-15.834,20.029a2.476,2.476,0,0,1-.2.219l0,0a7.458,7.458,0,0,1-8.089,1.572,2.482,2.482,0,0,1-.525-.3c-1.8-1.177-4.4-2.767-7.188-4.475-6.1-3.728-13.128-8.027-16.559-11.02l-.113-.107-.005.006-.114-.124a7.163,7.163,0,0,1-1.708-3.85,6.33,6.33,0,0,1,1.319-5.059c.048-.057.1-.11.154-.162a6.446,6.446,0,0,1,6.794-1.714,2.745,2.745,0,0,1,.5.232l17.945,10.738,3.171-4.875c6.083-9.376,16.018-24.693,16.885-25.326a2.338,2.338,0,0,1,2.754,3.779c-.152.113-9.806,14.988-15.712,24.1-2.248,3.465-3.977,6.129-4.412,6.785a2.346,2.346,0,0,1-3.157.717l-19.653-11.76a1.878,1.878,0,0,0-.858.026,1.788,1.788,0,0,0-.8.46l-.07.088a1.786,1.786,0,0,0-.22,1.352,2.766,2.766,0,0,0,.338,1.123c.058.049.113.1.167.149,3.157,2.72,9.92,6.856,15.794,10.447,2.681,1.641,5.178,3.166,7.224,4.5a2.777,2.777,0,0,0,2.78-.569Z" transform="translate(-2343.292 -1211.29)" fill="#143d66" fill-rule="evenodd"/>
      <path id="Tracé_15704" data-name="Tracé 15704" d="M2666.769,1471.418a2.82,2.82,0,0,1-5.639,0v-42.23l-28.717-16.581v38.975a2.818,2.818,0,1,1-5.635,0V1407.73h0A2.813,2.813,0,0,1,2631,1405.3l30.125,17.395v-41.418a2.82,2.82,0,0,1,5.639,0Z" transform="translate(-2330.694 -1183.125)" fill="#143d66" fill-rule="evenodd"/>
      <path id="Tracé_15705" data-name="Tracé 15705" d="M2680.785,1391.723v-21.092l-39.628,22.879V1414.6Z" transform="translate(-2307.902 -1195.53)" fill="#fff" fill-rule="evenodd"/>
      <path id="Tracé_15706" data-name="Tracé 15706" d="M2679.693,1391.834v-14.6l-33.988,19.624v14.6l33.988-19.623Zm5.639-19.474v21.092h-.009a2.8,2.8,0,0,1-1.4,2.432l-39.457,22.783a2.819,2.819,0,0,1-4.4-2.337v-21.093h0a2.815,2.815,0,0,1,1.406-2.432l39.461-22.783a2.789,2.789,0,0,1,1.575-.483A2.822,2.822,0,0,1,2685.332,1372.361Z" transform="translate(-2309.629 -1197.259)" fill="#143d66" fill-rule="evenodd"/>
      <path id="Tracé_15707" data-name="Tracé 15707" d="M2658.914,1425.554l-34.357-19.834L2584.93,1428.6l34.358,19.834Z" transform="translate(-2397.025 -1139.91)" fill="#fff" fill-rule="evenodd"/>
      <path id="Tracé_15708" data-name="Tracé 15708" d="M2655.022,1427.28l-28.743-16.6-34.014,19.636,28.742,16.6,34.015-19.636Zm-27.345-22.271L2662,1424.826a2.812,2.812,0,0,1,.03,4.886l-39.591,22.852a2.8,2.8,0,0,1-2.835.023l-34.328-19.817a2.809,2.809,0,0,1-.031-4.885l39.591-22.853A2.8,2.8,0,0,1,2627.677,1405.009Z" transform="translate(-2398.747 -1141.632)" fill="#143d66" fill-rule="evenodd"/>
      <path id="Tracé_15709" data-name="Tracé 15709" d="M2642.395,1475.95a2.819,2.819,0,0,1-5.638,0v-38.976l-33.989,19.624v42.232a2.819,2.819,0,0,1-5.638,0v-43.851h.006a2.8,2.8,0,0,1,1.4-2.432l38.216-22.067v-26.067a2.819,2.819,0,1,1,5.638,0Z" transform="translate(-2377.687 -1146.454)" fill="#143d66" fill-rule="evenodd"/>
      <path id="Tracé_15710" data-name="Tracé 15710" d="M2596,1408.3l.188-6.414-11.913-.446-1.573,2.445-10.374,1.135,1.621,3.5C2587.523,1410.317,2584.995,1410.133,2596,1408.3Z" transform="translate(-2416.998 -1146.693)" fill="#fff" fill-rule="evenodd"/>
      <path id="Tracé_15711" data-name="Tracé 15711" d="M2595.155,1407.748l.065-2.169-8.255-.313-.853,1.324a2.336,2.336,0,0,1-1.75,1.067l-4.666.51a57.151,57.151,0,0,0,7.448.705,38.86,38.86,0,0,0,6.2-.812l1.812-.313Zm4.81-4.359-.183,6.318a2.342,2.342,0,0,1-1.966,2.343c-.889.149-2.372.408-3.663.636a40.723,40.723,0,0,1-6.97.863,79.113,79.113,0,0,1-10.411-1.046l-1.564-.207a2.342,2.342,0,0,1-1.947-1.354l-1.614-3.483a2.474,2.474,0,0,1-.209-.752,2.343,2.343,0,0,1,2.082-2.577l9.256-1.013.968-1.505h0a2.342,2.342,0,0,1,2.054-1.072l11.909.449A2.338,2.338,0,0,1,2599.965,1403.389Z" transform="translate(-2418.435 -1148.128)" fill="#143d66" fill-rule="evenodd"/>
      <path id="Tracé_15712" data-name="Tracé 15712" d="M2588.905,1425.753a2.14,2.14,0,0,1,0-4.056,7.763,7.763,0,0,1,7.026,0l9.232,5.333a2.14,2.14,0,0,1,0,4.056,7.788,7.788,0,0,1-7.025,0Z" transform="translate(-2393.031 -1115.917)" fill="#143d66" fill-rule="evenodd"/>
      <path id="Tracé_15713" data-name="Tracé 15713" d="M2589.017,1429.122a5.613,5.613,0,0,1-1.647-1.489l0-.005-.008.005a4.1,4.1,0,0,1,.008-4.927l-.008-.006a5.721,5.721,0,0,1,1.813-1.592l.163-.086a8.511,8.511,0,0,1,2.08-.782,10.352,10.352,0,0,1,4.887,0,8.37,8.37,0,0,1,2.232.868l9.243,5.338,0-.005a5.732,5.732,0,0,1,1.812,1.59c.051.073.1.146.139.219a4.144,4.144,0,0,1,.679,2.247,4.2,4.2,0,0,1-.818,2.466,2.464,2.464,0,0,1-.168.209,5.9,5.9,0,0,1-1.647,1.378l0,0a8.42,8.42,0,0,1-2.241.869,10.379,10.379,0,0,1-4.892,0,8.485,8.485,0,0,1-2.244-.869l-9.231-5.331-.155-.1Zm2.5-3.958,9.236,5.334a3.63,3.63,0,0,0,.976.374,6.594,6.594,0,0,0,2.724,0,3.732,3.732,0,0,0,.977-.374l0,0,0-.005,0,0-9.229-5.328a3.836,3.836,0,0,0-.989-.375,6.479,6.479,0,0,0-2.722,0,3.885,3.885,0,0,0-.892.323Z" transform="translate(-2394.473 -1117.358)" fill="#143d66" fill-rule="evenodd"/>
      <path id="Tracé_15714" data-name="Tracé 15714" d="M2579.185,1430.736a2.141,2.141,0,0,1,0-4.057,7.769,7.769,0,0,1,7.026,0l9.235,5.331a2.141,2.141,0,0,1,0,4.056,7.758,7.758,0,0,1-7.023,0Z" transform="translate(-2408.438 -1108.02)" fill="#143d66" fill-rule="evenodd"/>
      <path id="Tracé_15715" data-name="Tracé 15715" d="M2579.451,1434.2a5.687,5.687,0,0,1-1.813-1.589c-.051-.072-.1-.148-.141-.222a4.13,4.13,0,0,1-.674-2.243,4.19,4.19,0,0,1,.827-2.466,5.677,5.677,0,0,1,1.8-1.585v-.005a8.413,8.413,0,0,1,2.241-.869,10.387,10.387,0,0,1,4.891,0,8.485,8.485,0,0,1,2.243.869l.122.078,9.1,5.255a5.757,5.757,0,0,1,1.821,1.588,2.623,2.623,0,0,1,.141.222,4.136,4.136,0,0,1,.676,2.247,4.209,4.209,0,0,1-.815,2.458l0,0,0,0a5.738,5.738,0,0,1-1.811,1.593l-.163.086a8.457,8.457,0,0,1-2.084.783v.01a10.545,10.545,0,0,1-4.887-.01,8.394,8.394,0,0,1-2.233-.868l-9.244-5.336v0Zm2.341-4.058.008.005-.006,0,9.231,5.328a3.658,3.658,0,0,0,.985.375,5.976,5.976,0,0,0,1.359.144,5.849,5.849,0,0,0,1.364-.155v.011a3.773,3.773,0,0,0,.892-.323l.091-.054-9.108-5.261-.132-.069a3.65,3.65,0,0,0-.978-.373,6.5,6.5,0,0,0-2.723,0,3.6,3.6,0,0,0-.975.373Z" transform="translate(-2409.877 -1109.461)" fill="#143d66" fill-rule="evenodd"/>
      <path id="Tracé_15716" data-name="Tracé 15716" d="M2592.123,1461.455l-.411-12.874,10.547,6.091-.2,6.783a2.474,2.474,0,0,1-1.457,2.029,7.784,7.784,0,0,1-7.024,0,2.473,2.473,0,0,1-1.455-2.029Zm-.971-40.909-.811-14.676c-.01-.149-.016-.3-.016-.453a6.719,6.719,0,0,1,10.1-5.808l7.4,3.815-8.243,11.86v9.78Z" transform="translate(-2388.471 -1151.04)" fill="#fff" fill-rule="evenodd"/>
      <path id="Tracé_15717" data-name="Tracé 15717" d="M2591.217,1462.773l-.407-12.677a2.343,2.343,0,0,1,2.265-2.415,2.319,2.319,0,0,1,1.246.316l10.554,6.088a2.355,2.355,0,0,1,1.162,2.219l-.2,6.592h.006a4.193,4.193,0,0,1-.826,2.466,5.776,5.776,0,0,1-1.8,1.589,8.29,8.29,0,0,1-2.242.871,10.375,10.375,0,0,1-4.89,0,8.359,8.359,0,0,1-2.244-.871l-.148-.1a5.694,5.694,0,0,1-1.662-1.494,2.255,2.255,0,0,1-.138-.218,4.125,4.125,0,0,1-.678-2.249l0-.122Zm4.408-8.616.269,8.469.009.065a1.11,1.11,0,0,0,.195.155l.1.049a3.562,3.562,0,0,0,.973.374,6.437,6.437,0,0,0,2.724,0,3.645,3.645,0,0,0,.976-.374,1.45,1.45,0,0,0,.294-.2l.155-5.249-5.693-3.285Zm-5.373-32.042-.81-14.65-.024-.608a9.063,9.063,0,0,1,13.571-7.863l7.348,3.787a2.342,2.342,0,0,1,1.008,3.156,1.764,1.764,0,0,1-.16.264l0,0-7.82,11.25v9.05a2.351,2.351,0,0,1-3.64,1.965l-8.238-4.418a2.344,2.344,0,0,1-1.234-1.936Zm3.866-14.935.744,13.365,3.81,2.045v-5.866a2.367,2.367,0,0,1,.418-1.341l6.719-9.663-5.122-2.645a4.35,4.35,0,0,0-2.2-.587,4.367,4.367,0,0,0-4.369,4.369c0,.191-.009.042-.007.143C2594.108,1407.059,2594.119,1407.118,2594.119,1407.18Z" transform="translate(-2389.912 -1152.479)" fill="#143d66" fill-rule="evenodd"/>
      <path id="Tracé_15718" data-name="Tracé 15718" d="M2616.536,1439.634c5.478,3.9,11.173,2.293,17.08-1.417l14.1-8.138c11.39-6.574,7.646-24.269,3.708-26.541-3.357-1.939-5.493-1.515-7.969-.4v0l-.006,0a8.966,8.966,0,0,0-1.542.895l-17.93,10.405-8.853,5.17-23.785-12.259a6.718,6.718,0,0,0-10.709,5.406c0,.153,0,.3.018.449l1.734,55.587a2.457,2.457,0,0,0,1.455,2.027,7.736,7.736,0,0,0,7.022,0,2.46,2.46,0,0,0,1.456-2.027l1.343-43.869Z" transform="translate(-2403.847 -1145.5)" fill="#fff" fill-rule="evenodd"/>
      <path id="Tracé_15719" data-name="Tracé 15719" d="M2619.4,1439.208a9.118,9.118,0,0,0,6.655,1.685,20.157,20.157,0,0,0,7.756-3.223l14.171-8.185.121-.067a11.768,11.768,0,0,0,4.265-4.316,17.467,17.467,0,0,0,2.027-9.388,17.827,17.827,0,0,0-1.907-7.694l-.065-.116a2.732,2.732,0,0,0-.724-.905,6.319,6.319,0,0,0-3.149-1.032,6.761,6.761,0,0,0-2.693.743l-.031.013c-.2.09-.384.188-.56.292a5.82,5.82,0,0,0-.54.344,2.311,2.311,0,0,1-.205.135l0,0-17.927,10.4v0l-8.85,5.168a2.35,2.35,0,0,1-2.4-.018l-23.646-12.186a2.184,2.184,0,0,1-.38-.243,4.428,4.428,0,0,0-1.172-.587,4.372,4.372,0,0,0-5.736,4.155c0,.2-.009.055,0,.144l.01.161c.005.069.005.137.005.207l1.725,55.315a1.644,1.644,0,0,0,.3.209l.085.052a3.835,3.835,0,0,0,.892.323,6.387,6.387,0,0,0,2.722,0,3.632,3.632,0,0,0,.979-.37l0-.006a1.377,1.377,0,0,0,.29-.207l.005-.064,1.336-43.662a2.341,2.341,0,0,1,2.4-2.275,2.315,2.315,0,0,1,1.2.366l0,0,22.88,14.712a1.674,1.674,0,0,1,.157.112Zm7.262,6.328a13.594,13.594,0,0,1-9.957-2.5l-19.394-12.471-1.21,39.537v.126a4.142,4.142,0,0,1-.7,2.288,1.746,1.746,0,0,1-.113.178,5.8,5.8,0,0,1-1.812,1.59l0,0-.008,0a8.434,8.434,0,0,1-2.233.871,10.383,10.383,0,0,1-4.888,0,8.731,8.731,0,0,1-2.08-.783l-.164-.088a5.8,5.8,0,0,1-1.813-1.59,4.2,4.2,0,0,1-.816-2.467h.008l-1.729-55.38c-.017-.214-.02-.439-.027-.656a9.053,9.053,0,0,1,14.277-7.412l22.49,11.589,7.742-4.524,0,.006,17.886-10.377c.279-.2.547-.368.8-.518.282-.162.563-.31.846-.444a2.383,2.383,0,0,1,.329-.15,9.848,9.848,0,0,1,9.932.581,7.142,7.142,0,0,1,2.431,2.593l.088.137a22.708,22.708,0,0,1,2.531,9.856,22.1,22.1,0,0,1-2.651,11.9,16.452,16.452,0,0,1-5.959,6.024l-.132.082-14.1,8.141A24.543,24.543,0,0,1,2626.659,1445.536Z" transform="translate(-2405.289 -1146.934)" fill="#143d66" fill-rule="evenodd"/>
      <path id="Tracé_15720" data-name="Tracé 15720" d="M2635.721,1443.563v-53.669c0-8.166-7.716-12.582-15.22-8.247l-.044.024-22.792,13.158c-1.715.993-3.852,3.732-3.756,5.635V1459.1c.15,5.685,9.5,5.458,12.66,3.63l23.845-13.766C2632.229,1447.913,2635.577,1446.719,2635.721,1443.563Z" transform="translate(-2382.799 -1180.757)" fill="#fff" fill-rule="evenodd"/>
      <path id="Tracé_15721" data-name="Tracé 15721" d="M2634.81,1445l0-53.67a8.46,8.46,0,0,0-1.054-4.265,6.619,6.619,0,0,0-2.436-2.449,6.913,6.913,0,0,0-3.445-.881,9.539,9.539,0,0,0-4.761,1.375l-.135.075-22.7,13.1,0,0a6.516,6.516,0,0,0-1.913,1.943,3.3,3.3,0,0,0-.679,1.557,2.057,2.057,0,0,1,0,.219v58.465a1.878,1.878,0,0,0,.231.905,3,3,0,0,0,1.675,1.149,9.724,9.724,0,0,0,3.352.44,9.055,9.055,0,0,0,3.888-.832l.132-.073,23.72-13.695c.329-.189.657-.362,1.007-.543,1.29-.675,2.978-1.553,3.121-2.828Zm4.7-53.67V1445h-.008v.1c-.182,4.025-3.283,5.643-5.643,6.876-.314.163-.613.318-.839.45l-23.715,13.688-.122.077a13.851,13.851,0,0,1-6.125,1.461,14.537,14.537,0,0,1-4.986-.68,7.484,7.484,0,0,1-4.206-3.245,6.544,6.544,0,0,1-.859-3.14l0-58.576a7.535,7.535,0,0,1,1.448-4.363,11.428,11.428,0,0,1,3.475-3.41l0,0,22.719-13.116.114-.07a14.21,14.21,0,0,1,7.108-2.017,11.572,11.572,0,0,1,5.757,1.5,11.262,11.262,0,0,1,4.18,4.175A13.111,13.111,0,0,1,2639.506,1391.334Z" transform="translate(-2384.234 -1182.198)" fill="#143d66" fill-rule="evenodd"/>
      <path id="Tracé_15722" data-name="Tracé 15722" d="M2600.2,1379.615h12.18l.9,11.578a2.464,2.464,0,0,1,.026.359,3.488,3.488,0,0,1-2.052,2.865,10.956,10.956,0,0,1-9.917,0,3.5,3.5,0,0,1-2.055-2.865,2.524,2.524,0,0,1,.029-.356Z" transform="translate(-2374.283 -1181.29)" fill="#fff" fill-rule="evenodd"/>
      <path id="Tracé_15723" data-name="Tracé 15723" d="M2601.64,1378.706h12.177a2.352,2.352,0,0,1,2.35,2.282c.294,3.809.464,7.885.9,11.649.014.146.016.267.016.358a4.962,4.962,0,0,1-.979,2.913l.006.005a7.083,7.083,0,0,1-2.258,1.968v.005a13.219,13.219,0,0,1-12.259,0l-.146-.091a7,7,0,0,1-2.1-1.882,4.927,4.927,0,0,1-.978-2.918h-.007c0-.1,0-.225.015-.36l.021-.173.895-11.582a2.346,2.346,0,0,1,2.34-2.171v0Zm10.01,4.7h-7.839l-.727,9.407-.005,0c0,.043-.026.158-.024.195V1393h.009c0,.011,0,0,0,0v0h-.009l0,0,0,0c0,.016,0,.013,0,.006a.487.487,0,0,0,.095.173,2.317,2.317,0,0,0,.688.592l.11.059a8.713,8.713,0,0,0,7.564,0l0,.006,0-.006a2.416,2.416,0,0,0,.779-.651l.006,0,0,0a.362.362,0,0,0,.082-.183c0-.026.006.01.006,0l-.021-.179-.725-9.407Zm-8.586,9.589,0,0c0-.026,0-.01,0,0Z" transform="translate(-2375.724 -1182.731)" fill="#143d66" fill-rule="evenodd"/>
      <path id="Tracé_15724" data-name="Tracé 15724" d="M2601.414,1384.322a9.552,9.552,0,0,0,8.65,0c2.389-1.378,2.389-3.614,0-4.993a9.562,9.562,0,0,0-8.653,0C2599.022,1380.71,2599.028,1382.944,2601.414,1384.322Z" transform="translate(-2373.736 -1183.383)" fill="#fff" fill-rule="evenodd"/>
      <path id="Tracé_15725" data-name="Tracé 15725" d="M2601.783,1384.24a9.235,9.235,0,0,0,8.319,0l.016-.01a3.531,3.531,0,0,0,1.339-1.247,1.809,1.809,0,0,0,0-1.908,3.583,3.583,0,0,0-1.355-1.254,9.257,9.257,0,0,0-8.319,0l-.018.01a3.6,3.6,0,0,0-1.339,1.246,1.821,1.821,0,0,0,0,1.905,3.605,3.605,0,0,0,1.357,1.257Zm4.158,1.655a9.148,9.148,0,0,1-4.489-1.082,4.282,4.282,0,0,1-1.6-1.5,2.478,2.478,0,0,1,0-2.569,4.229,4.229,0,0,1,1.582-1.489l.016-.01a9.861,9.861,0,0,1,8.986,0,4.253,4.253,0,0,1,1.6,1.5,2.471,2.471,0,0,1,0,2.567,4.253,4.253,0,0,1-1.583,1.492l-.017.007A9.163,9.163,0,0,1,2605.941,1385.9Z" transform="translate(-2373.942 -1183.588)" fill="#0087ca" fill-rule="evenodd"/>
      <path id="Tracé_15726" data-name="Tracé 15726" d="M2610.249,1369.182h-2.273c-5.759,0-10.708,4.713-10.468,10.464l.534,12.773a10.662,10.662,0,0,0,10.467,10.465h1.143a10.678,10.678,0,0,0,10.464-10.465l.6-12.773C2620.985,1373.9,2616.006,1369.182,2610.249,1369.182Z" transform="translate(-2377.1 -1197.827)" fill="#fff" fill-rule="evenodd"/>
      <path id="Tracé_15727" data-name="Tracé 15727" d="M2611.69,1372.972h-2.629a8.358,8.358,0,0,0-5.5,2.406,7.458,7.458,0,0,0-2.271,5.3l0,.313.538,12.77a8.826,8.826,0,0,0,2.549,5.884,7.831,7.831,0,0,0,5.574,2.325h1.147a7.807,7.807,0,0,0,5.56-2.318,8.934,8.934,0,0,0,2.564-5.9l.594-12.773,0-.343a7.377,7.377,0,0,0-2.262-5.258,8.379,8.379,0,0,0-5.479-2.409l-.387,0Zm-2.273-4.7h2.273c.094,0,.287.005.569.018l.037,0a13.073,13.073,0,0,1,8.546,3.751,12.067,12.067,0,0,1,3.674,8.6c0,.08-.008.264-.021.548l-.594,12.77a13.644,13.644,0,0,1-3.924,9.017,12.452,12.452,0,0,1-8.879,3.695h-1.147a12.492,12.492,0,0,1-8.9-3.7,13.546,13.546,0,0,1-3.9-9.016l-.538-12.773-.018-.5a12.135,12.135,0,0,1,3.686-8.641,13.059,13.059,0,0,1,8.6-3.749Z" transform="translate(-2378.541 -1199.266)" fill="#143d66" fill-rule="evenodd"/>
      <path id="Tracé_15728" data-name="Tracé 15728" d="M2610.631,1369.95h-2.274c-2.6,0-8,.542-9.94-1.253-4.537,3.856,5.571,15.526,7.918,18.026,3.741,3.988,1.332,10.009,6.174,10.361,1.879.135,6.005-.631,7.4-2.749l.536-.452c.023-.231.044-.459.052-.7l.6-12.773C2621.367,1374.666,2616.388,1369.95,2610.631,1369.95Z" transform="translate(-2377.482 -1198.596)" fill="#143d66" fill-rule="evenodd"/>
      <path id="Tracé_15729" data-name="Tracé 15729" d="M2612.073,1373.733H2609.8c-.7,0-1.068.013-1.478.023a25.876,25.876,0,0,1-7.3-.488,11.769,11.769,0,0,0,1.339,3.6,46.283,46.283,0,0,0,5.551,7.906c.666.783,1.22,1.4,1.574,1.776a13.178,13.178,0,0,1,3.088,6.871c.318,1.471.58,2.683,1.546,2.753a9.375,9.375,0,0,0,3.528-.594,3.7,3.7,0,0,0,1.757-1.1,2.05,2.05,0,0,1,.22-.282l.577-12.453,0-.344a7.386,7.386,0,0,0-2.26-5.256,8.394,8.394,0,0,0-5.482-2.41l-.386,0Zm-2.274-4.7h2.274c.094,0,.287.005.569.019l.038,0a13.077,13.077,0,0,1,8.544,3.751,12.066,12.066,0,0,1,3.676,8.595c0,.08-.01.264-.023.549-.2,4.4-.384,8.8-.618,13.2l-.042.411a2.316,2.316,0,0,1-.816,1.54l-.333.282a8.38,8.38,0,0,1-3.79,2.581,14.52,14.52,0,0,1-5.493.889c-4.48-.323-5.078-3.1-5.8-6.457a9.505,9.505,0,0,0-1.913-4.638c-.407-.429-1.023-1.111-1.743-1.96a50.506,50.506,0,0,1-6.136-8.781c-2.047-3.952-2.81-7.91-.062-10.485l.214-.194,0,0a2.342,2.342,0,0,1,3.1.07c.9.835,4.338.732,6.746.662C2608.93,1369.057,2609.608,1369.036,2609.8,1369.036Z" transform="translate(-2378.925 -1200.028)" fill="#143d66" fill-rule="evenodd"/>
      <path id="Tracé_15730" data-name="Tracé 15730" d="M2584.793,1432.466a4.087,4.087,0,0,1-1.649-.126,4.132,4.132,0,0,1,.662-8.079l22.335-3.541,10.419-33.392,13.193,6.122-14.874,33.572a5.1,5.1,0,0,1-4.56,3.338Z" transform="translate(-2404.613 -1169.063)" fill="#fff" fill-rule="evenodd"/>
      <path id="Tracé_15731" data-name="Tracé 15731" d="M2624.594,1404.914a2.346,2.346,0,0,1,4.295,1.888l-10.4,23.485a7.461,7.461,0,0,1-6.534,4.775v.006l-25.474,2.1a6.634,6.634,0,0,1-1.251.023,6.563,6.563,0,0,1-1.279-.23l-.009,0a6.478,6.478,0,0,1,1.037-12.663l20.778-3.292,9.121-30.755a8.489,8.489,0,0,1,.473-1.5,16.469,16.469,0,0,1,.817-1.7,2.344,2.344,0,1,1,4.11,2.254,13,13,0,0,0-.58,1.2,3.947,3.947,0,0,0-.217.657h0c-.017.085-.036.171-.06.259l-9.59,32.321a2.345,2.345,0,0,1-1.879,1.65l-22.19,3.521c-.08.015-.164.031-.248.041a1.777,1.777,0,0,0-1.51,1.282,1.8,1.8,0,0,0,.152,1.36,1.778,1.778,0,0,0,1.072.848,1.494,1.494,0,0,0,.357.063,1.728,1.728,0,0,0,.367-.008l25.616-2.117,0,.008.091-.008a2.709,2.709,0,0,0,1.494-.527,2.766,2.766,0,0,0,.955-1.244l.063-.171Z" transform="translate(-2406.052 -1171.429)" fill="#143d66" fill-rule="evenodd"/>
      <path id="Tracé_15732" data-name="Tracé 15732" d="M2623.834,1496.206a2.819,2.819,0,0,1-5.638,0v-42.238l-28.721-16.58v38.98a2.817,2.817,0,1,1-5.635,0v-43.849h.011a2.806,2.806,0,0,1,4.2-2.434l30.141,17.4v-41.423a2.819,2.819,0,0,1,5.638,0Z" transform="translate(-2398.752 -1143.833)" fill="#143d66" fill-rule="evenodd"/>
      <path id="Tracé_15733" data-name="Tracé 15733" d="M2637.847,1416.513v-21.094l-39.626,22.878v21.094Z" transform="translate(-2375.959 -1156.238)" fill="#fff" fill-rule="evenodd"/>
      <path id="Tracé_15734" data-name="Tracé 15734" d="M2636.756,1416.621v-14.6l-33.989,19.624v14.6l33.989-19.626Zm5.638-19.474v21.094h-.007a2.816,2.816,0,0,1-1.4,2.436l-39.459,22.78a2.817,2.817,0,0,1-4.395-2.337v-21.094h.006a2.812,2.812,0,0,1,1.4-2.433L2638,1394.81a2.819,2.819,0,0,1,4.394,2.337Z" transform="translate(-2377.687 -1157.967)" fill="#143d66" fill-rule="evenodd"/>
      <path id="Tracé_15735" data-name="Tracé 15735" d="M2562.015,1396.438l23.006-.492a3.536,3.536,0,1,1,.347,7.063l-24.5,1.287a4.368,4.368,0,0,1-2.262-.491L2530,1388.731a6.407,6.407,0,0,1-3.324-8.73c1.585-3.083,3.844-3.966,6.932-2.381C2543.208,1382.548,2552.539,1390.929,2562.015,1396.438Z" transform="translate(-2490.399 -1185.675)" fill="#143d66" fill-rule="evenodd"/>
      <path id="Tracé_15736" data-name="Tracé 15736" d="M2541.519,1378.773a10.346,10.346,0,0,1-9.376,0c-2.591-1.493-2.591-3.916,0-5.413a10.376,10.376,0,0,1,9.38,0C2544.108,1374.857,2544.108,1377.279,2541.519,1378.773Z" transform="translate(-2483.778 -1192.981)" fill="#fff" fill-rule="evenodd"/>
      <path id="Tracé_15737" data-name="Tracé 15737" d="M2544.134,1382.243a12.639,12.639,0,0,1-11.725,0,6.536,6.536,0,0,1-2.454-2.35l0,0a4.647,4.647,0,0,1,0-4.778c.033-.057.071-.111.105-.168a6.658,6.658,0,0,1,2.353-2.172l0-.005a12.635,12.635,0,0,1,11.725,0,6.569,6.569,0,0,1,2.454,2.345,1.7,1.7,0,0,1,.09.176,4.674,4.674,0,0,1,.572,2.216,4.739,4.739,0,0,1-.661,2.376,6.594,6.594,0,0,1-2.458,2.352l0,.006Zm-5.866-3.257a7.214,7.214,0,0,0,3.514-.8l0,.005.008-.005a2,2,0,0,0,.74-.63.1.1,0,0,0,.017-.046v-.01l-.017-.031a2.016,2.016,0,0,0-.748-.639,8.1,8.1,0,0,0-7.029,0l0,0-.008,0a2.185,2.185,0,0,0-.7.568l-.059.112.018.039,0,0,0,.005a2.013,2.013,0,0,0,.75.63A7.221,7.221,0,0,0,2538.268,1378.986Z" transform="translate(-2485.218 -1194.42)" fill="#146681" fill-rule="evenodd"/>
      <path id="Tracé_15738" data-name="Tracé 15738" d="M2524.958,1437.576l4.43-21.42-2.163-33.578c-.269-1.287,1.51-5.584,3.223-6.574a9.758,9.758,0,0,1,9.718-.116l19.215,11c1.313.737,3.262,2.436,2.877,4.059l-2.678,36.363,6.78,23.585c.394,1.664-1.757,4.111-3.178,4.93a11.856,11.856,0,0,1-10.732,0l-22.878-13.207C2527.77,1441.578,2524.417,1440.159,2524.958,1437.576Z" transform="translate(-2492.178 -1189.162)" fill="#fff" fill-rule="evenodd"/>
      <path id="Tracé_15739" data-name="Tracé 15739" d="M2524.132,1438.451l4.348-21.012-2.146-33.257a10.806,10.806,0,0,1,1.254-4.9,9.219,9.219,0,0,1,3.138-3.866v0a12.578,12.578,0,0,1,6.087-1.67,11.57,11.57,0,0,1,5.971,1.543l19.26,11.031a9.994,9.994,0,0,1,3.026,2.673,4.84,4.84,0,0,1,.965,3.738l-2.638,35.837,7.2,23a4.871,4.871,0,0,1-.549,3.7,7.3,7.3,0,0,1-2.713,2.551l-.155.083c-1.831,1.013-5.654,2.988-7.913,2.988a13.328,13.328,0,0,1-6.529-1.6l-22.888-13.213v0c-.3-.173-.485-.273-.683-.379-2.485-1.357-5.881-3.206-5.053-7.163l.021-.086Zm9-20.391-4.433,21.431c-.121.56,1.509,1.447,2.706,2.1.328.178.641.346.791.434l0,0,22.872,13.2a8.629,8.629,0,0,0,4.2.965c1.518,0,4.518-1.769,5.616-2.371l.1-.062a2.8,2.8,0,0,0,1.007-.843.4.4,0,0,0,.038-.292l-7.26-23.259a2.382,2.382,0,0,1-.077-.794l2.672-36.255a2.64,2.64,0,0,1,.061-.481c.012-.059-.081-.007-.171-.134a5.034,5.034,0,0,0-1.522-1.31c-5.892-3.239-13.841-7.427-19.3-11.054a6.8,6.8,0,0,0-3.56-.918,7.793,7.793,0,0,0-3.792,1.045l0-.006-.008.006a5.2,5.2,0,0,0-1.274,1.867,7.762,7.762,0,0,0-.823,2.179,2.967,2.967,0,0,1,.048.355l2.164,33.578h0A2.348,2.348,0,0,1,2533.134,1418.06Z" transform="translate(-2493.628 -1190.598)" fill="#143d66" fill-rule="evenodd"/>
      <path id="Tracé_15740" data-name="Tracé 15740" d="M2531.231,1373.232h10.439l.769,9.929a1.9,1.9,0,0,1,.023.307,3,3,0,0,1-1.761,2.456,9.4,9.4,0,0,1-8.5,0,2.991,2.991,0,0,1-1.76-2.456,2.143,2.143,0,0,1,.023-.307Z" transform="translate(-2483.399 -1191.407)" fill="#fff" fill-rule="evenodd"/>
      <path id="Tracé_15741" data-name="Tracé 15741" d="M2532.672,1372.323h10.44a2.347,2.347,0,0,1,2.347,2.283l.752,9.723a4.313,4.313,0,0,1,.04.581h-.009a4.57,4.57,0,0,1-.894,2.691l.008.005a6.418,6.418,0,0,1-2.04,1.783,11.659,11.659,0,0,1-10.85,0l-.143-.09a6.388,6.388,0,0,1-1.9-1.693c-.046-.07-.094-.14-.135-.215a4.533,4.533,0,0,1-.752-2.482h-.01a4.987,4.987,0,0,1,.039-.581l.763-9.832a2.347,2.347,0,0,1,2.34-2.171v0Zm8.271,4.7h-6.1l-.6,7.838.007.014a1.635,1.635,0,0,0,.467.408l.1.057a7.157,7.157,0,0,0,6.151,0,1.755,1.755,0,0,0,.571-.465l0,0c.016-.018-.547-7.168-.6-7.856Zm-6.724,7.89" transform="translate(-2484.838 -1192.848)" fill="#143d66" fill-rule="evenodd"/>
      <path id="Tracé_15742" data-name="Tracé 15742" d="M2532.2,1377.427a9.489,9.489,0,0,0,8.588,0c2.369-1.37,2.369-3.587,0-4.958a9.5,9.5,0,0,0-8.591,0C2529.82,1373.84,2529.825,1376.057,2532.2,1377.427Z" transform="translate(-2483.436 -1194.242)" fill="#fff" fill-rule="evenodd"/>
      <path id="Tracé_15743" data-name="Tracé 15743" d="M2534.9,1376.895a6.583,6.583,0,0,0,3.027.651,6.441,6.441,0,0,0,3.128-.706,1.845,1.845,0,0,0,.566-.452,1.958,1.958,0,0,0-.577-.452,7.264,7.264,0,0,0-6.248,0,1.906,1.906,0,0,0-.566.452,1.963,1.963,0,0,0,.579.452l.091.055Zm3.027,5.351a11.21,11.21,0,0,1-5.312-1.269l-.157-.083a6.292,6.292,0,0,1-2.211-2.05c-.035-.057-.075-.111-.108-.17a4.443,4.443,0,0,1,0-4.571h0a6.235,6.235,0,0,1,2.324-2.221,11.765,11.765,0,0,1,10.929,0,6.251,6.251,0,0,1,2.211,2.05,1.524,1.524,0,0,1,.109.17,4.434,4.434,0,0,1,0,4.571l0,0a6.2,6.2,0,0,1-2.328,2.222A11.115,11.115,0,0,1,2537.929,1382.245Z" transform="translate(-2484.876 -1195.683)" fill="#0087ca" fill-rule="evenodd"/>
      <path id="Tracé_15744" data-name="Tracé 15744" d="M2539.211,1362.778c-5.638,0-10.985,4.519-10.481,10.173l1.111,12.418c.467,5.227,3.324,10.175,9.34,10.175,5.765,0,8.816-4.6,9.34-10.175l1.172-12.418C2550.218,1367.379,2544.974,1362.778,2539.211,1362.778Z" transform="translate(-2486.159 -1207.978)" fill="#fff" fill-rule="evenodd"/>
      <path id="Tracé_15745" data-name="Tracé 15745" d="M2540.653,1366.568c-.323,0-.572.007-.75.023a8.851,8.851,0,0,0-5.26,2.361,6.486,6.486,0,0,0-2.156,4.7c0,.245,0,.429.013.54l1.112,12.416a10.417,10.417,0,0,0,2.363,6.1,6.562,6.562,0,0,0,9.29-.007,10.485,10.485,0,0,0,2.368-6.114l1.167-12.415c.013-.13.022-.314.022-.552a6.471,6.471,0,0,0-2.12-4.645,8.839,8.839,0,0,0-5.248-2.382c-.209-.018-.479-.028-.8-.028Zm-1.155-4.639c.451-.038.837-.059,1.155-.059.358,0,.776.021,1.245.067a13.561,13.561,0,0,1,8.054,3.663,11.1,11.1,0,0,1,3.566,8.022c0,.269-.016.6-.053.991l-1.171,12.415a15.124,15.124,0,0,1-3.578,8.849,11.217,11.217,0,0,1-16.192,0,15.121,15.121,0,0,1-3.574-8.871l-1.11-12.417c-.034-.387-.05-.7-.05-.942a11.124,11.124,0,0,1,3.64-8.095A13.636,13.636,0,0,1,2539.5,1361.929Z" transform="translate(-2487.599 -1209.417)" fill="#143d66" fill-rule="evenodd"/>
      <path id="Tracé_15746" data-name="Tracé 15746" d="M2536.1,1388.97c7.473-.243,4.718-13.474,14.486-17.328.079-11.365-20.859-13.613-22.294,3.045C2527.648,1382.236,2528.629,1389.211,2536.1,1388.97Z" transform="translate(-2487.056 -1208.173)" fill="#fff" fill-rule="evenodd"/>
      <path id="Tracé_15747" data-name="Tracé 15747" d="M2537.468,1388.065c2.063-.067,3.025-2.573,4.134-5.47,1.5-3.932,3.208-8.371,7.934-10.94a6.484,6.484,0,0,0-3.825-4.372,9.938,9.938,0,0,0-7.657-.17c-3.016,1.2-5.541,4.126-5.978,9.2-.3,3.464-.245,6.737.683,8.981.722,1.748,2.15,2.854,4.709,2.771Zm8.521-3.8c-1.708,4.462-3.184,8.314-8.373,8.481-4.914.161-7.714-2.1-9.191-5.671-1.266-3.065-1.381-7.058-1.028-11.142.615-7.151,4.4-11.361,8.931-13.169a14.706,14.706,0,0,1,11.308.245,10.821,10.821,0,0,1,6.735,9.9,2.348,2.348,0,0,1-1.488,2.347C2548.826,1376.861,2547.309,1380.811,2545.989,1384.262Z" transform="translate(-2488.493 -1209.609)" fill="#143d66" fill-rule="evenodd"/>
      <path id="Tracé_15748" data-name="Tracé 15748" d="M2532.6,1367.138h0a6.132,6.132,0,0,1,6.116,6.115v23.436a6.134,6.134,0,0,1-6.116,6.117h0a6.136,6.136,0,0,1-6.115-6.117v-23.436A6.133,6.133,0,0,1,2532.6,1367.138Z" transform="translate(-2489.667 -1201.066)" fill="#fff" fill-rule="evenodd"/>
      <path id="Tracé_15749" data-name="Tracé 15749" d="M2534.039,1366.228a8.454,8.454,0,0,1,5.981,2.487c.047.049.092.1.137.15a8.418,8.418,0,0,1,2.346,5.83v23.437a8.444,8.444,0,0,1-2.491,5.974l.008,0a8.428,8.428,0,0,1-11.95,0l-.005,0-.006,0a8.448,8.448,0,0,1-2.483-5.979v-23.437a8.484,8.484,0,0,1,8.463-8.467Zm0,4.7a3.785,3.785,0,0,0-3.767,3.766v23.437a3.746,3.746,0,0,0,1.109,2.657l-.005.005a3.751,3.751,0,0,0,5.32-.005l.006.005,0-.005a3.754,3.754,0,0,0,1.1-2.657v-23.437a3.783,3.783,0,0,0-1.006-2.568l-.1-.09A3.748,3.748,0,0,0,2534.039,1370.929Z" transform="translate(-2491.108 -1202.509)" fill="#143d66" fill-rule="evenodd"/>
      <path id="Tracé_15750" data-name="Tracé 15750" d="M2530.84,1398.162a2.346,2.346,0,1,1,4.678.367l-1.292,16.08a2.347,2.347,0,0,1-4.679-.37Z" transform="translate(-2484.824 -1155.322)" fill="#0087ca" fill-rule="evenodd"/>
      <path id="Tracé_15751" data-name="Tracé 15751" d="M2521.155,1411.831v-21.094l39.627,22.879v21.094Z" transform="translate(-2498.113 -1163.66)" fill="#fff" fill-rule="evenodd"/>
      <path id="Tracé_15752" data-name="Tracé 15752" d="M2520.065,1413.56v-21.092a2.82,2.82,0,0,1,4.395-2.34l39.458,22.785a2.8,2.8,0,0,1,1.4,2.433h.008v21.091a2.822,2.822,0,0,1-4.4,2.337l-39.458-22.782a2.806,2.806,0,0,1-1.4-2.432Zm5.638-16.219v14.6l33.987,19.624v-14.6Z" transform="translate(-2499.842 -1165.388)" fill="#143d66" fill-rule="evenodd"/>
      <path id="Tracé_15753" data-name="Tracé 15753" d="M2550.507,1392.094l-1.292-6.555,9.947-2.048,1.668,1.835,8.874-.5c-.14,2.363-.437,4.188-6.375,6.1C2558.32,1392.545,2557.906,1392.09,2550.507,1392.094Z" transform="translate(-2453.636 -1175.146)" fill="#fff" fill-rule="evenodd"/>
      <path id="Tracé_15754" data-name="Tracé 15754" d="M2554.537,1397.258l-6.571-1.2,1.733-10.007,3.691-.726,2.291-8.943c2.146,1,2.854,2.288,2.463,8.512C2557.813,1390.154,2557.239,1390.374,2554.537,1397.258Z" transform="translate(-2455.619 -1186.409)" fill="#fff" fill-rule="evenodd"/>
      <path id="Tracé_15755" data-name="Tracé 15755" d="M2555.4,1400.965l-6.42-1.169a2.337,2.337,0,0,1-1.889-2.7h-.008l1.734-10.006a2.352,2.352,0,0,1,1.864-1.909l2.245-.444,1.923-7.5a2.338,2.338,0,0,1,2.842-1.688,2.237,2.237,0,0,1,.4.143l0,0a5.647,5.647,0,0,1,3.43,3.7c.49,1.522.6,3.663.389,7.078-.285,4.535-.729,5.62-2.35,9.558-.356.863-.777,1.9-1.413,3.51a2.343,2.343,0,0,1-2.754,1.422Zm-3.3-5.356,2.4.437.734-1.794c1.281-3.113,1.7-4.139,1.945-7.277l-.046.176a2.355,2.355,0,0,1-1.867,1.913l-2.1.416Z" transform="translate(-2457.053 -1187.843)" fill="#143d66" fill-rule="evenodd"/>
      <path id="Tracé_15756" data-name="Tracé 15756" d="M2536.007,1389.837l21.782,26.843a4.409,4.409,0,0,0,1.967,1.525,4.454,4.454,0,0,0,5.885-2.822l7.969-22.635a3.536,3.536,0,1,0-6.58-2.593l-6.407,14.595-15.221-22.586-1.934-2.075Z" transform="translate(-2474.572 -1180.538)" fill="#fff" fill-rule="evenodd"/>
      <path id="Tracé_15757" data-name="Tracé 15757" d="M2536.717,1397.6a2.343,2.343,0,0,1,3.636-2.957l18.96,23.366.078.1,0,0a2.119,2.119,0,0,0,.4.426,2.214,2.214,0,0,0,.526.29.616.616,0,0,0,.151.056,2.084,2.084,0,0,0,2.575-1.24c2.8-7.53,5.382-15.277,8.056-22.871l.054-.141a1.232,1.232,0,0,0,.038-.651,1.169,1.169,0,0,0-.325-.589,1.218,1.218,0,0,0-.407-.269,1.185,1.185,0,0,0-.682-.041l-.115.023a1.189,1.189,0,0,0-.748.7l-6.446,14.685a2.343,2.343,0,0,1-3.083,1.212,2.31,2.31,0,0,1-1-.838l-.006,0c-.732-1.09-1.881-2.964-3.26-5.214-4.583-7.481-11.87-19.375-15.27-20.835a2.344,2.344,0,1,1,1.836-4.312c4.782,2.053,12.55,14.733,17.433,22.708l.839,1.363,4.629-10.547a5.816,5.816,0,0,1,1.233-1.892,5.931,5.931,0,0,1,2.7-1.575c.082-.026.169-.049.254-.069a5.877,5.877,0,0,1,6.761,7.813l-7.964,22.617c-.051.171-.1.322-.152.442a6.823,6.823,0,0,1-8.337,3.995v0c-.12-.035-.229-.072-.327-.108l-.157-.057a6.846,6.846,0,0,1-3-2.329Z" transform="translate(-2474.276 -1183.343)" fill="#143d66" fill-rule="evenodd"/>
      <path id="Tracé_15758" data-name="Tracé 15758" d="M2635.782,1359.579l-18.4-19.638-20.895,9.485,18.405,19.638Z" transform="translate(-2378.711 -1244.177)" fill="#fff" fill-rule="evenodd"/>
      <path id="Tracé_15759" data-name="Tracé 15759" d="M2632.774,1360.361l-14.342-15.3-15.487,7.031,14.342,15.3,15.486-7.032Zm-11.623-20.623,18.327,19.554a2.752,2.752,0,0,1,.6.858,2.808,2.808,0,0,1-1.407,3.72l-20.9,9.482a2.812,2.812,0,0,1-3.2-.635l-18.323-19.555a2.751,2.751,0,0,1-.6-.855,2.817,2.817,0,0,1,1.408-3.723l20.9-9.484A2.808,2.808,0,0,1,2621.151,1339.738Z" transform="translate(-2380.438 -1245.902)" fill="#fff" fill-rule="evenodd"/>
      <path id="Tracé_15760" data-name="Tracé 15760" d="M2634.629,1355.907l-26.326-15.2-19.014,10.978,26.325,15.2Z" transform="translate(-2390.114 -1242.963)" fill="#fff" fill-rule="evenodd"/>
      <path id="Tracé_15761" data-name="Tracé 15761" d="M2630.729,1357.632l-20.708-11.955-13.4,7.731,20.712,11.959,13.394-7.735Zm-19.3-17.635,26.325,15.2,0,0a2.81,2.81,0,0,1-.009,4.865l-18.973,10.951a2.808,2.808,0,0,1-2.838.023l-26.295-15.18a2.809,2.809,0,0,1-.028-4.884l18.851-10.882A2.809,2.809,0,0,1,2611.433,1340Z" transform="translate(-2391.834 -1244.687)" fill="#fff" fill-rule="evenodd"/>
      <path id="Tracé_15762" data-name="Tracé 15762" d="M2607.853,1342.789V1321.7l-39.631,22.878v21.092Z" transform="translate(-2423.507 -1273.093)" fill="#fff" fill-rule="evenodd"/>
      <path id="Tracé_15763" data-name="Tracé 15763" d="M2606.759,1342.9v-14.6l-33.99,19.624v14.6l33.99-19.627Zm5.638-19.473v21.092h-.008a2.81,2.81,0,0,1-1.4,2.436l-39.457,22.781a2.819,2.819,0,0,1-4.394-2.336v-21.092h0a2.807,2.807,0,0,1,1.4-2.435L2608,1321.087a2.822,2.822,0,0,1,4.4,2.338Z" transform="translate(-2425.235 -1274.823)" fill="#143d66" fill-rule="evenodd"/>
      <path id="Tracé_15764" data-name="Tracé 15764" d="M2572.769,1373.052a2.819,2.819,0,1,1-5.637,0v-40.71a2.819,2.819,0,0,1,5.637,0Z" transform="translate(-2425.237 -1260.688)" fill="#143d66" fill-rule="evenodd"/>
      <path id="Tracé_15765" data-name="Tracé 15765" d="M2597.929,1336.581l-4.559,3.358,6.169,8.518,2.557-.239,6.428,6.589,1.551-3.03C2603.941,1341.374,2605.184,1343.23,2597.929,1336.581Z" transform="translate(-2383.646 -1249.503)" fill="#fff" fill-rule="evenodd"/>
      <path id="Tracé_15766" data-name="Tracé 15766" d="M2599.209,1341.041l-1.137.84,4.023,5.555,1.226-.114a2.342,2.342,0,0,1,1.89.7l1.289,1.316a33.856,33.856,0,0,0-2.346-3.528,34.408,34.408,0,0,0-3.912-3.834l-1.031-.936Zm-5.784-1.559,4.554-3.358.006.005a2.334,2.334,0,0,1,2.957.16c.3.277,1.443,1.3,2.438,2.2a35.976,35.976,0,0,1,4.424,4.4,70.325,70.325,0,0,1,4.965,7.845l.76,1.293a2.335,2.335,0,0,1,.065,2.245l-1.486,2.909a2.4,2.4,0,0,1-.511.737,2.344,2.344,0,0,1-3.312-.047l-5.649-5.788-1.279.119a2.35,2.35,0,0,1-2.278-.939l-6.169-8.518A2.346,2.346,0,0,1,2593.425,1339.482Z" transform="translate(-2385.084 -1250.935)" fill="#143d66" fill-rule="evenodd"/>
      <path id="Tracé_15767" data-name="Tracé 15767" d="M2620.065,1366.563c.373.367.365.051.892,1.328s-.373,4.483-2.163,5.224a3.737,3.737,0,0,1-4.355-.868l-17.248-17.191c-.093-.083-.187-.168-.274-.259a4.919,4.919,0,0,1-1.068-1.559l-15.908-30.829,11.538-4.989,11.563,31.931Z" transform="translate(-2404.935 -1279.875)" fill="#fff" fill-rule="evenodd"/>
      <path id="Tracé_15768" data-name="Tracé 15768" d="M2620.122,1369.911c-.075-.063-.157-.136-.256-.231l-17.023-17.217a2.374,2.374,0,0,1-.566-.879l-10.717-29.6-6.954,3.006,14.7,28.482a1.925,1.925,0,0,1,.135.269,2.758,2.758,0,0,0,.468.735l.1.092c.158.16-.034-.013.049.067l.092.072.125.12,17.25,17.191a1.451,1.451,0,0,0,1.8.366l.008,0a1.984,1.984,0,0,0,.642-1.041,3.411,3.411,0,0,0,.26-1.079,2.274,2.274,0,0,1-.119-.353Zm2.957-3.646.114.085c.467.331.765.623,1.369,2.084l.006.02a6.738,6.738,0,0,1-.185,4.483,6.493,6.493,0,0,1-2.985,3.653,2.6,2.6,0,0,1-.487.206,6.17,6.17,0,0,1-3.449.34,6.264,6.264,0,0,1-3.24-1.795l-17.233-17.178-.088-.083c-.208-.191-.136-.108-.211-.185a1.855,1.855,0,0,1-.133-.148,6.736,6.736,0,0,1-.75-.921,7.469,7.469,0,0,1-.665-1.2l-15.848-30.712a2.344,2.344,0,0,1,1.008-3.157,1.993,1.993,0,0,1,.283-.121l11.4-4.932a2.336,2.336,0,0,1,3.071,1.22l.054.132,0,0,11.39,31.448Z" transform="translate(-2406.371 -1281.309)" fill="#143d66" fill-rule="evenodd"/>
      <path id="Tracé_15769" data-name="Tracé 15769" d="M2604.969,1371.514l-.7-11.057,2.28-13.872a51.7,51.7,0,0,0,.575-12.752l-.753-10.368c-.594-5.3-8.393-9.8-11.821-7.815l-17.035,9.831c-2.606,1.461-5.86,4.544-5.938,8.205l3.318,42.02-1.691,14.143Z" transform="translate(-2418.185 -1283.435)" fill="#fff" fill-rule="evenodd"/>
      <path id="Tracé_15770" data-name="Tracé 15770" d="M2603.977,1371.653l-.6-9.611a2.211,2.211,0,0,1,.044-.621l2.262-13.777a49.272,49.272,0,0,0,.547-12.212l-.751-10.324a4.772,4.772,0,0,0-.627-1.75l-.064-.117a9.583,9.583,0,0,0-3.4-3.2,6.6,6.6,0,0,0-3.708-1.073,1.385,1.385,0,0,0-.512.137l0,0-17.063,9.855a11.42,11.42,0,0,0-3.56,3.123,5.694,5.694,0,0,0-1.184,2.931l3.311,41.941a2.381,2.381,0,0,1-.013.5l-1.13,9.461,26.449-15.267Zm4.091-9.651.678,10.8h0a2.346,2.346,0,0,1-1.168,2.174l-31.593,18.236a2.318,2.318,0,0,1-1.61.4,2.345,2.345,0,0,1-2.055-2.605l1.662-13.913-3.3-41.791h.008a1.672,1.672,0,0,1-.008-.227,10.173,10.173,0,0,1,2.068-5.744,16.306,16.306,0,0,1,5.067-4.462l17.009-9.815v.005l.007-.005a5.9,5.9,0,0,1,2.334-.747,11.222,11.222,0,0,1,6.552,1.677,14.4,14.4,0,0,1,5.1,4.875l.09.145a9.451,9.451,0,0,1,1.23,3.56l.016.166.755,10.371a54.335,54.335,0,0,1-.6,13.293Z" transform="translate(-2419.622 -1284.871)" fill="#143d66" fill-rule="evenodd"/>
      <path id="Tracé_15771" data-name="Tracé 15771" d="M2577.615,1319.318a9.462,9.462,0,0,0,8.586,0c2.373-1.367,2.373-3.586,0-4.955a9.5,9.5,0,0,0-8.592,0C2575.24,1315.733,2575.245,1317.951,2577.615,1319.318Z" transform="translate(-2411.44 -1286.348)" fill="#fff" fill-rule="evenodd"/>
      <path id="Tracé_15772" data-name="Tracé 15772" d="M2580.325,1318.79a6.587,6.587,0,0,0,3.028.652,6.461,6.461,0,0,0,3.117-.706,1.869,1.869,0,0,0,.574-.458,1.792,1.792,0,0,0-.567-.447,7.286,7.286,0,0,0-6.247,0v0a1.929,1.929,0,0,0-.572.45,1.953,1.953,0,0,0,.572.454l.094.054Zm3.028,5.349a11.231,11.231,0,0,1-5.312-1.264l-.159-.085a6.222,6.222,0,0,1-2.318-2.218l.005,0-.005-.009a4.524,4.524,0,0,1-.637-2.279h.014a4.459,4.459,0,0,1,.527-2.107c.031-.063.06-.119.1-.179a6.149,6.149,0,0,1,2.318-2.221v.006l.011-.006a11.729,11.729,0,0,1,10.921,0,6.355,6.355,0,0,1,2.214,2.048c.039.056.076.113.11.173a4.444,4.444,0,0,1,0,4.576,6.227,6.227,0,0,1-2.32,2.218A11.134,11.134,0,0,1,2583.353,1324.139Z" transform="translate(-2412.883 -1287.79)" fill="#0087ca" fill-rule="evenodd"/>
      <path id="Tracé_15773" data-name="Tracé 15773" d="M2577.669,1318.757a8.868,8.868,0,0,0,8.026,0c2.215-1.28,2.215-3.355,0-4.635a8.876,8.876,0,0,0-8.029,0C2575.449,1315.4,2575.45,1317.477,2577.669,1318.757Z" transform="translate(-2411.174 -1286.624)" fill="#fff" fill-rule="evenodd"/>
      <path id="Tracé_15774" data-name="Tracé 15774" d="M2580.273,1318.168a6.647,6.647,0,0,0,5.687,0,1.912,1.912,0,0,0,.407-.29,2.056,2.056,0,0,0-.4-.289l-.09-.055a6.023,6.023,0,0,0-2.752-.583,5.892,5.892,0,0,0-2.841.633l0,0a2.467,2.467,0,0,0-.413.287,1.914,1.914,0,0,0,.4.292Zm2.851,5.339a10.565,10.565,0,0,1-5.181-1.283,5.943,5.943,0,0,1-2.233-2.129l0,0,0-.008a4.359,4.359,0,0,1-.616-2.206h.01a4.406,4.406,0,0,1,.606-2.215l0,0a5.971,5.971,0,0,1,2.218-2.132l0,0,.009,0a11.147,11.147,0,0,1,10.21-.083l.158.083a5.956,5.956,0,0,1,2.225,2.13,4.405,4.405,0,0,1,.609,2.215h-.007a4.423,4.423,0,0,1-.6,2.217,5.975,5.975,0,0,1-2.225,2.129A10.6,10.6,0,0,1,2583.124,1323.507Z" transform="translate(-2412.614 -1288.065)" fill="#0087ca" fill-rule="evenodd"/>
      <path id="Tracé_15775" data-name="Tracé 15775" d="M2584.631,1304.671c-5.635,0-10.986,4.518-10.48,10.172l1.111,12.418c.466,5.228,3.321,10.172,9.338,10.172,5.765,0,8.818-4.6,9.342-10.172l1.169-12.418C2595.638,1309.272,2590.4,1304.671,2584.631,1304.671Z" transform="translate(-2414.164 -1300.082)" fill="#fff" fill-rule="evenodd"/>
      <path id="Tracé_15776" data-name="Tracé 15776" d="M2586.074,1308.46c-.324,0-.575.011-.752.024a8.879,8.879,0,0,0-5.261,2.36,6.488,6.488,0,0,0-2.155,4.7c0,.246.006.427.014.541l1.11,12.414a10.419,10.419,0,0,0,2.365,6.1,6.553,6.553,0,0,0,9.287-.005,10.455,10.455,0,0,0,2.368-6.116l1.17-12.417a5.362,5.362,0,0,0,.019-.55,6.475,6.475,0,0,0-2.117-4.646,8.822,8.822,0,0,0-5.248-2.381c-.209-.017-.478-.029-.8-.029Zm-1.155-4.635c.451-.041.836-.065,1.155-.065.355,0,.775.025,1.241.068a13.559,13.559,0,0,1,8.054,3.666,11.108,11.108,0,0,1,3.57,8.022c0,.273-.02.6-.056.99l-1.172,12.417a15.116,15.116,0,0,1-3.576,8.85,11.222,11.222,0,0,1-16.193.006,15.137,15.137,0,0,1-3.573-8.873l-1.107-12.419c-.034-.384-.054-.7-.054-.941a11.132,11.132,0,0,1,3.642-8.1A13.613,13.613,0,0,1,2584.919,1303.826Z" transform="translate(-2415.604 -1301.524)" fill="#143d66" fill-rule="evenodd"/>
      <path id="Tracé_15777" data-name="Tracé 15777" d="M2592.925,1312.859c-.009,4.723-9.507,8.785-9.507,10.413a95,95,0,0,0,.611,10.027c.123.959.991,10.834.666,10.813-3.327-.2-10.341-4.4-10.809-9.715-.528-5.958-2.349-17.635,1.088-24.046,4.592-8.57,19.037-8.809,23.27-.26,2.292,4.637,1.6,10.306,1.18,15.332-.31,3.673-.908,9.257-.482,13.44.24,2.362-.241,2.109-2.735,1.065a27.264,27.264,0,0,1-4.577-2.36,17.225,17.225,0,0,0,1.717-2.034,13.3,13.3,0,0,0,2.48-6.892l1.168-12.419C2596.963,1313.175,2592.927,1311.816,2592.925,1312.859Z" transform="translate(-2416.047 -1301.462)" fill="#143d66" fill-rule="evenodd"/>
      <path id="Tracé_15779" data-name="Tracé 15779" d="M2583.765,1343.694a2.344,2.344,0,0,1-4.682-.238,83.924,83.924,0,0,1,2.212-14.037c.852-3.859,1.589-7.2,1.383-9.9a2.346,2.346,0,1,1,4.679-.349c.254,3.337-.556,7.007-1.49,11.255A79.5,79.5,0,0,0,2583.765,1343.694Z" transform="translate(-2406.299 -1280.538)" fill="#143d66" fill-rule="evenodd"/>
      <path id="Tracé_15780" data-name="Tracé 15780" d="M2589.93,1341.6a2.347,2.347,0,0,1-4.661.551c-1-8.4-4.312-12.978-8.006-18.08-.517-.712-1.042-1.433-1.649-2.3a2.344,2.344,0,1,1,3.833-2.7c.484.685,1.052,1.471,1.612,2.244C2585.134,1326.944,2588.789,1332,2589.93,1341.6Z" transform="translate(-2412.474 -1278.836)" fill="#143d66" fill-rule="evenodd"/>
      <path id="Tracé_15781" data-name="Tracé 15781" d="M2576.079,1345.733l5.445-2.544,4.81,10.07-1.517,2.264,2.878,9.335-3.609-.093C2577.5,1353.768,2578.6,1355.869,2576.079,1345.733Z" transform="translate(-2411.057 -1239.028)" fill="#fff" fill-rule="evenodd"/>
      <path id="Tracé_15782" data-name="Tracé 15782" d="M2576.646,1344.992l5.319-2.487a2.342,2.342,0,0,1,3.106,1.111l.008,0,4.807,10.069a2.35,2.35,0,0,1-.271,2.461l-.8,1.189,2.552,8.269a2.343,2.343,0,0,1-2.4,3.027l-3.5-.09a2.33,2.33,0,0,1-1.954-1.137l-.818-1.362a75.222,75.222,0,0,1-4.782-8.585,38.825,38.825,0,0,1-1.844-6.339c-.172-.721-.379-1.587-.826-3.388a2.343,2.343,0,0,1,1.405-2.735Zm5.194,2.737-1.595.744.373,1.559a35.4,35.4,0,0,0,1.607,5.6,43.668,43.668,0,0,0,2.728,5.054l-.941-3.046a2.35,2.35,0,0,1,.295-1.993l.771-1.147Z" transform="translate(-2412.494 -1240.463)" fill="#143d66" fill-rule="evenodd"/>
      <path id="Tracé_15783" data-name="Tracé 15783" d="M2585.3,1329.256l-6.825-7.779-6.7,2.239-.348,31.719a4.764,4.764,0,0,0,.544,1.929l10.715,23.505c.2.466-.082.35.879,1.267s4.158,1.223,5.447-.127a3.6,3.6,0,0,0,.734-4.216l-8.82-23.581Z" transform="translate(-2418.436 -1273.443)" fill="#fff" fill-rule="evenodd"/>
      <path id="Tracé_15784" data-name="Tracé 15784" d="M2572.989,1320.69a2.343,2.343,0,0,1,3.817,2.717,6.981,6.981,0,0,0-.909,1.779,5.109,5.109,0,0,0-.3,1.667l-.4,31.272a2.421,2.421,0,0,0,.27.946l.063.128,10.742,23.563a4.082,4.082,0,0,1,.2.631l.008-.008c-.008-.1,0-.256.128-.135l.013.01a2.832,2.832,0,0,0,1.016.135,1.863,1.863,0,0,0,1.1-.192l.032-.044.006,0a1.508,1.508,0,0,0,.411-.724v-.01a1.59,1.59,0,0,0-.165-.881c-2.874-8.053-6.023-16.125-9.028-24.142l.626-18.013a2.341,2.341,0,1,1,4.679.147l-.595,17.1,8.61,23.017a5.908,5.908,0,0,1-1.183,6.776l-.037.047-.006,0a6.2,6.2,0,0,1-4.544,1.6,6.585,6.585,0,0,1-4.169-1.429l-.047-.037,0,0c-1.134-1.086-1.254-1.453-1.4-2.05l-10.647-23.367a6.841,6.841,0,0,1-.527-1.316,7.19,7.19,0,0,1-.251-1.484l.4-31.509a9.657,9.657,0,0,1,.541-3.2,11.59,11.59,0,0,1,1.53-2.991Zm13.49,62.7.008-.008-.008.008Zm-4.548,1.106,0,.01,0-.01Zm4.561-1.045" transform="translate(-2419.872 -1276.252)" fill="#143d66" fill-rule="evenodd"/>
    </g>
  </g>
</svg>
