<svg xmlns="http://www.w3.org/2000/svg" width="70.976" height="93.248" viewBox="0 0 70.976 93.248">
  <g id="Groupe_6" data-name="Groupe 6" transform="translate(0 0)">
    <path id="Tracé_210" data-name="Tracé 210" d="M690.065,187.242,670.35,167.815a1.985,1.985,0,0,0-1.394-.569h-41.4a7.838,7.838,0,0,0-7.886,7.771v77.707a7.838,7.838,0,0,0,7.886,7.771h55.2a7.838,7.838,0,0,0,7.886-7.771V188.615A1.925,1.925,0,0,0,690.065,187.242Zm-19.138-13.363,12.985,12.794h-9.042a3.918,3.918,0,0,1-3.943-3.885ZM686.7,252.724a3.919,3.919,0,0,1-3.944,3.885h-55.2a3.918,3.918,0,0,1-3.943-3.885V175.017a3.919,3.919,0,0,1,3.943-3.886h39.431v11.656a7.838,7.838,0,0,0,7.886,7.77H686.7Z" transform="translate(-619.667 -167.246)" fill="#143d66"/>
    <path id="Tracé_211" data-name="Tracé 211" d="M693.457,298.042H650.083a1.943,1.943,0,1,0,0,3.886h43.374a1.943,1.943,0,1,0,0-3.886Z" transform="translate(-636.282 -243.647)" fill="#143d66"/>
    <path id="Tracé_212" data-name="Tracé 212" d="M693.457,270.014H650.083a1.943,1.943,0,1,0,0,3.886h43.374a1.943,1.943,0,1,0,0-3.886Z" transform="translate(-636.282 -227.275)" fill="#143d66"/>
    <path id="Tracé_213" data-name="Tracé 213" d="M693.457,326.069H650.083a1.943,1.943,0,1,0,0,3.886h43.374a1.943,1.943,0,1,0,0-3.886Z" transform="translate(-636.282 -260.018)" fill="#143d66"/>
    <path id="Tracé_214" data-name="Tracé 214" d="M673.741,354.1H650.083a1.943,1.943,0,1,0,0,3.886h23.659a1.943,1.943,0,1,0,0-3.886Z" transform="translate(-636.282 -276.39)" fill="#143d66"/>
    <path id="Tracé_215" data-name="Tracé 215" d="M695.519,243.929a1.956,1.956,0,0,0,1.972,1.943h23.658a1.943,1.943,0,1,0,0-3.886H697.491A1.957,1.957,0,0,0,695.519,243.929Z" transform="translate(-663.974 -210.903)" fill="#143d66"/>
    <g id="Groupe_5" data-name="Groupe 5" transform="translate(10.849 17.96)">
      <path id="Tracé_216" data-name="Tracé 216" d="M663.222,222.984a.43.43,0,0,1,.144.385,4.935,4.935,0,0,1-.977,2.786,6.224,6.224,0,0,1-2.671,2.015,10.3,10.3,0,0,1-4.064.744,8.175,8.175,0,0,1-5.289-1.579,6.426,6.426,0,0,1-2.293-4.454h-1.694a.606.606,0,0,1-.443-.18.591.591,0,0,1-.182-.437v-1.438a.622.622,0,0,1,.182-.462.608.608,0,0,1,.443-.18h1.616v-1h-1.616a.607.607,0,0,1-.443-.18.591.591,0,0,1-.182-.437v-1.463a.592.592,0,0,1,.182-.436.608.608,0,0,1,.443-.18h1.694a6.471,6.471,0,0,1,2.28-4.48,8.165,8.165,0,0,1,5.3-1.579,10.3,10.3,0,0,1,4.064.744,6.223,6.223,0,0,1,2.671,2.015,4.933,4.933,0,0,1,.977,2.785v.052a.434.434,0,0,1-.169.346.576.576,0,0,1-.378.141h-2.475a.787.787,0,0,1-.5-.141.931.931,0,0,1-.287-.475,3.172,3.172,0,0,0-1.367-1.925,4.863,4.863,0,0,0-2.54-.591q-3.31,0-3.778,3.107h4.3a.655.655,0,0,1,.456.18.573.573,0,0,1,.2.436v1.463a.592.592,0,0,1-.182.437.642.642,0,0,1-.469.18h-4.4v1h4.4a.644.644,0,0,1,.469.18.624.624,0,0,1,.182.462v1.438a.592.592,0,0,1-.182.437.642.642,0,0,1-.469.18H651.85q.52,3.081,3.8,3.08a4.86,4.86,0,0,0,2.54-.59,3.171,3.171,0,0,0,1.367-1.925.935.935,0,0,1,.287-.475.789.789,0,0,1,.5-.141h2.475A.581.581,0,0,1,663.222,222.984Z" transform="translate(-645.753 -210.431)" fill="#143d66"/>
    </g>
  </g>
</svg>
