<svg xmlns="http://www.w3.org/2000/svg" width="75.248" height="75.44" viewBox="0 0 75.248 75.44">
  <path id="Icon_awesome-flag-checkered" data-name="Icon awesome-flag-checkered" d="M25.538,20.167V27.4c2.771.627,5.235,1.657,7.815,2.368V22.524c-2.761-.616-5.246-1.646-7.815-2.357ZM49.249,7.106c-3.642,1.688-8.123,3.387-12.424,3.387-5.681,0-10.385-3.7-17.542-3.7a20.646,20.646,0,0,0-7.221,1.274,5.947,5.947,0,1,0-8.952,2.75v41A2.542,2.542,0,0,0,5.659,54.37h1.7a2.542,2.542,0,0,0,2.548-2.549V41.8A29.606,29.606,0,0,1,22.055,39.45c5.692,0,10.385,3.7,17.542,3.7A22.188,22.188,0,0,0,52.6,38.8,3.388,3.388,0,0,0,54.07,36V10.185A3.393,3.393,0,0,0,49.249,7.106ZM17.722,34.566a33.453,33.453,0,0,0-7.815,1.763V28.842a30.379,30.379,0,0,1,7.815-1.848ZM48.984,20.283a33.872,33.872,0,0,1-7.815,2.538v7.55a19.736,19.736,0,0,0,7.815-2.761V35.1a17.158,17.158,0,0,1-7.815,2.878v-7.6a17.961,17.961,0,0,1-7.815-.595v7.157a61.956,61.956,0,0,0-7.815-2.262V27.4a23.6,23.6,0,0,0-7.815-.4V19.561a37.472,37.472,0,0,0-7.815,2.219V14.295c3.525-1.3,5.32-2.1,7.815-2.336v7.6a18.062,18.062,0,0,1,7.815.605V13.01a60.452,60.452,0,0,0,7.815,2.262v7.263a20.229,20.229,0,0,0,7.815.287V15.186A37.571,37.571,0,0,0,48.984,12.8Z" transform="translate(31.503 -0.328) rotate(36)" fill="#143d66"/>
</svg>
