<svg xmlns="http://www.w3.org/2000/svg" xmlns:xlink="http://www.w3.org/1999/xlink" width="186.78" height="291.945" viewBox="0 0 186.78 291.945">
  <defs>
    <linearGradient id="linear-gradient" x1="0.062" y1="0.233" x2="0.764" y2="0.265" gradientUnits="objectBoundingBox">
      <stop offset="0" stop-color="#00ffba"/>
      <stop offset="1" stop-color="#143d66"/>
    </linearGradient>
  </defs>
  <g id="Groupe_1997" data-name="Groupe 1997" transform="translate(-1395.286 -1170.555)">
    <g id="Groupe_1896" data-name="Groupe 1896" transform="translate(1395.286 1170.555)">
      <g id="Groupe_1895" data-name="Groupe 1895" transform="translate(3.398 109.347)">
        <path id="Tracé_12759" data-name="Tracé 12759" d="M5970,3272.654a52.065,52.065,0,0,0-20.192-33.74,54.757,54.757,0,0,0-35.281-11.367c-14.089.308-52.884.156-105.832.013a20.034,20.034,0,0,0-2.162.052,21.392,21.392,0,0,0-10.234,3.646,19.153,19.153,0,0,0-7.251,8.625,17.2,17.2,0,0,0-1.144,6.59v144.557q32.947-24.787,65.9-49.577h64.33a60.056,60.056,0,0,0,18.134-4.229,58.35,58.35,0,0,0,19.595-12.94,57.336,57.336,0,0,0,14.019-26.6A59.212,59.212,0,0,0,5970,3272.654ZM5942,3285.77a26.8,26.8,0,0,1-13.235,22.191,31.8,31.8,0,0,1-15.056,4.777h-70.436q-13.334,10.456-26.667,20.919.1-39.1.183-78.205h98.429a23.89,23.89,0,0,1,19.531,7.71c3.258,3.525,5.442,9.431,5.442,9.431S5942.192,3283.228,5942,3285.77Z" transform="translate(-5787.898 -3227.525)" fill="#143d66"/>
      </g>
      <path id="Tracé_12760" data-name="Tracé 12760" d="M5962.852,3205.662a41.675,41.675,0,0,0-2-6.494,58.783,58.783,0,0,0-5.134-10.675,54.263,54.263,0,0,0-13.918-14.726,55.517,55.517,0,0,0-33.212-10.564c-.471.006-.851.017-1.022.023h-.081c-.356.014-32.858.006-104.992-.023-.1,0-.211.006-.34.008h.093a14.126,14.126,0,0,1,7.96,2.44,14.1,14.1,0,0,0-7.9-2.408c-3.738,0-14.2,4.251-14.2,14.2a14.28,14.28,0,0,0,14.2,14.2l.263.021h109.447c.862.128,2.085.33,3.511.679a27.318,27.318,0,0,1,7.972,2.973,23.685,23.685,0,0,1,6.692,6.01,25.478,25.478,0,0,1,3.306,5.4,23.581,23.581,0,0,1,1.422,4.122c.179.77.328,1.539.711,3.161.057.265.116.531.189.793a14.115,14.115,0,0,0,27.266-.03c.055-.2.092-.4.139-.6a14.335,14.335,0,0,0,.314-2.521c.007-.117.02-.23.02-.35l0-.12A20.266,20.266,0,0,0,5962.852,3205.662Z" transform="translate(-5788.095 -3140.719)" fill="url(#linear-gradient)"/>
      <g id="Groupe_1417" data-name="Groupe 1417" transform="translate(21.563)">
        <path id="Tracé_15482" data-name="Tracé 15482" d="M2642.218,1686c-31.155,0-56.413,9.046-56.413,20.2s25.258,20.207,56.413,20.207,56.407-9.05,56.407-20.207S2673.372,1686,2642.218,1686Z" transform="translate(-2552.087 -1434.459)" fill="#00ffba" fill-rule="evenodd"/>
        <path id="Tracé_15483" data-name="Tracé 15483" d="M2599.53,1620.76l-22.347,12.911,10.025,39.114,22.347-12.9Z" transform="translate(-2573.977 -1600.044)" fill="#fff" fill-rule="evenodd"/>
        <path id="Tracé_15484" data-name="Tracé 15484" d="M2600.22,1620.283l-22.348,12.908a3.207,3.207,0,0,0-1.435,3.771l9.97,38.907a3.217,3.217,0,0,0,4.756,1.954l22.288-12.873a3.2,3.2,0,0,0,1.488-3.63l-10.006-39.055a3.2,3.2,0,0,0-3.89-2.31,3.245,3.245,0,0,0-.819.332l0,0Zm-17.033,17.25,16.59-9.585,8.376,32.672-16.6,9.578Z" transform="translate(-2576.278 -1602.339)" fill="#143d66" fill-rule="evenodd"/>
        <path id="Tracé_15485" data-name="Tracé 15485" d="M2582.583,1658.109l9-1.639-2.372-13.7-5.053-.994-3.137-12.239c-2.936,1.362-3.9,3.129-3.369,11.648C2578.1,1648.382,2578.884,1648.684,2582.583,1658.109Z" transform="translate(-2573.156 -1577.753)" fill="#fff" fill-rule="evenodd"/>
        <path id="Tracé_15486" data-name="Tracé 15486" d="M2585.66,1663.515l8.785-1.6a3.2,3.2,0,0,0,2.591-3.691l.01,0-2.378-13.692a3.213,3.213,0,0,0-2.548-2.615l-3.071-.6-2.632-10.265a3.2,3.2,0,0,0-3.891-2.31,2.828,2.828,0,0,0-.549.194l0-.007a7.736,7.736,0,0,0-4.7,5.074c-.671,2.084-.825,5.01-.532,9.688.39,6.206,1,7.692,3.214,13.076.488,1.186,1.073,2.6,1.935,4.808a3.207,3.207,0,0,0,3.768,1.944Zm4.515-7.328-3.287.6-1-2.455c-1.748-4.264-2.323-5.666-2.662-9.964l.065.245a3.206,3.206,0,0,0,2.549,2.615l2.887.569Z" transform="translate(-2575.453 -1580.05)" fill="#143d66" fill-rule="evenodd"/>
        <path id="Tracé_15487" data-name="Tracé 15487" d="M2595.671,1690.477c-.832-.572.669-2.023,2-2.794s3.262-1.918,4.837-1.153l17.547,8.492a2.947,2.947,0,0,1,0,5.583,10.653,10.653,0,0,1-9.67,0Z" transform="translate(-2527.657 -1433.741)" fill="#00cef0" fill-rule="evenodd"/>
        <path id="Tracé_15488" data-name="Tracé 15488" d="M2595.029,1694.212a3.757,3.757,0,0,0,1.138,1.24l14.6,10.043c.1.075.211.149.32.214a11.632,11.632,0,0,0,3.081,1.2,14.369,14.369,0,0,0,6.724,0,11.694,11.694,0,0,0,3.081-1.2l0-.008a7.8,7.8,0,0,0,2.477-2.18,5.6,5.6,0,0,0,0-6.764,7.679,7.679,0,0,0-2.263-2.049,3.21,3.21,0,0,0-.426-.248l-17.545-8.494c-3.067-1.484-5.809.1-7.753,1.223l-.08.047,0,.007a10.348,10.348,0,0,0-2.878,2.444l-.146.2a4.754,4.754,0,0,0-.723,1.571,3.639,3.639,0,0,0,.4,2.753Zm7.659-2.059c.4-.234.727-.413.727-.413l17.369,8.411-.025.01,0,0a5.2,5.2,0,0,1-1.348.516,9,9,0,0,1-3.758,0,5.207,5.207,0,0,1-1.281-.477Z" transform="translate(-2529.967 -1436.067)" fill="#143d66" fill-rule="evenodd"/>
        <path id="Tracé_15489" data-name="Tracé 15489" d="M2587.354,1695.278c-.832-.573.665-2.021,2-2.793s3.257-1.917,4.833-1.153l17.544,8.492a2.948,2.948,0,0,1,0,5.584,10.681,10.681,0,0,1-9.67,0Z" transform="translate(-2548.769 -1421.553)" fill="#00cef0" fill-rule="evenodd"/>
        <path id="Tracé_15490" data-name="Tracé 15490" d="M2586.712,1699.018a3.756,3.756,0,0,0,1.129,1.225l14.711,10.126.224.139a11.365,11.365,0,0,0,2.754,1.115,2.751,2.751,0,0,0,.315.1,14.865,14.865,0,0,0,6.727,0l0-.014a11.4,11.4,0,0,0,2.86-1.08l.223-.116a7.787,7.787,0,0,0,2.485-2.183l-.006-.008a5.731,5.731,0,0,0,1.135-3.376,5.668,5.668,0,0,0-.935-3.08,2.3,2.3,0,0,0-.194-.305,7.757,7.757,0,0,0-2.273-2.048,3.259,3.259,0,0,0-.425-.244l-17.542-8.5c-3.074-1.486-5.815.1-7.755,1.22v.007l-.07.043a9.95,9.95,0,0,0-3.023,2.639,4.686,4.686,0,0,0-.729,1.585,3.644,3.644,0,0,0,.393,2.756Zm7.655-2.062c.408-.234.73-.415.73-.415l17.36,8.408-.14.08a5.3,5.3,0,0,1-1.224.446l0-.014a8.424,8.424,0,0,1-3.762,0l-.215-.042a5.035,5.035,0,0,1-1.017-.39Z" transform="translate(-2551.077 -1423.88)" fill="#143d66" fill-rule="evenodd"/>
        <path id="Tracé_15491" data-name="Tracé 15491" d="M2617.845,1652.5l-9.048-1.329-2.134,13.736,2.622,2.157-.092,12.164c3.217-.346,5.7-.877,7.915-9.116C2618.979,1663.153,2618.333,1662.616,2617.845,1652.5Z" transform="translate(-2499.149 -1522.845)" fill="#fff" fill-rule="evenodd"/>
        <path id="Tracé_15492" data-name="Tracé 15492" d="M2620.608,1651.629l-9.051-1.327a3.214,3.214,0,0,0-3.646,2.714l-.019.2-2.094,13.509a3.19,3.19,0,0,0,1.129,2.962l1.444,1.188-.085,10.651a3.2,3.2,0,0,0,3.191,3.213,2.68,2.68,0,0,0,.35-.015v.007c2.191-.24,4.144-.555,6.181-2.448,1.724-1.6,3.212-4.261,4.5-9.038,1.623-6.008,1.517-7.607,1.144-13.41-.094-1.489-.208-3.269-.3-5.18a3.2,3.2,0,0,0-2.736-3.021v0Zm-6.84,5.484,3.312.488c.06,1.016.114,1.869.163,2.636.32,4.972.408,6.34-.942,11.347a23.241,23.241,0,0,1-1.571,4.444l.054-6.574a3.211,3.211,0,0,0-1.171-2.563l-1.206-.993Z" transform="translate(-2501.447 -1525.146)" fill="#143d66" fill-rule="evenodd"/>
        <path id="Tracé_15493" data-name="Tracé 15493" d="M2627.673,1676.561l.869,31.486a4.837,4.837,0,1,0,9.674,0l.122-33.574a6.04,6.04,0,0,0-.821-3.06l-22.529-38.1a8.765,8.765,0,0,0-12.152-3.957c-4.113,2.375-5.168,5.52-2.793,9.632C2607.42,1651.778,2619.5,1663.967,2627.673,1676.561Z" transform="translate(-2519.126 -1581.012)" fill="#fff" fill-rule="evenodd"/>
        <path id="Tracé_15494" data-name="Tracé 15494" d="M2626.807,1679.856l.844,30.583a8.043,8.043,0,0,0,4.925,7.346,1.974,1.974,0,0,0,.322.116,7.89,7.89,0,0,0,2.822.508,8.112,8.112,0,0,0,7.395-4.94,2.833,2.833,0,0,0,.122-.33,7.956,7.956,0,0,0,.491-2.8l.123-33.571a9.351,9.351,0,0,0-.306-2.412,9.471,9.471,0,0,0-.946-2.254l-22.483-38.029c-.123-.265-.268-.542-.422-.811a12.027,12.027,0,0,0-15.111-4.915,11.532,11.532,0,0,0-1.035.53c-2.792,1.611-4.582,3.607-5.312,6.023-.74,2.467-.317,5.12,1.342,7.993l.11.174c4.16,7.179,9.685,14.082,15.195,20.97,4.205,5.255,8.4,10.5,11.925,15.821Zm7.246,30.4-.866-31.4a3.2,3.2,0,0,0-.518-1.745c-3.722-5.742-8.252-11.4-12.787-17.072-5.357-6.694-10.724-13.407-14.662-20.192l-.093-.174a3.932,3.932,0,0,1-.735-2.943,4.671,4.671,0,0,1,2.345-2.3,3.865,3.865,0,0,1,.452-.23,5.479,5.479,0,0,1,3.89-.152,5.42,5.42,0,0,1,3.06,2.4c.057.1.113.209.17.329a3.419,3.419,0,0,0,.226.46l22.524,38.1a2.544,2.544,0,0,1,.276.673,2.813,2.813,0,0,1,.11.754l-.121,33.585a1.729,1.729,0,0,1-.07.487l-.068.142A1.643,1.643,0,0,1,2635.7,1712a1.507,1.507,0,0,1-.484-.075l-.153-.063a1.624,1.624,0,0,1-.726-.6,1.607,1.607,0,0,1-.279-.865Z" transform="translate(-2521.433 -1583.31)" fill="#143d66" fill-rule="evenodd"/>
        <path id="Tracé_15495" data-name="Tracé 15495" d="M2596.781,1634.338a14.167,14.167,0,0,0,12.828,0c3.546-2.045,3.55-5.364.006-7.409a14.188,14.188,0,0,0-12.834,0C2593.23,1628.974,2593.237,1632.293,2596.781,1634.338Z" transform="translate(-2530.988 -1588.276)" fill="#fff" fill-rule="evenodd"/>
        <path id="Tracé_15496" data-name="Tracé 15496" d="M2597.478,1639.421a17.324,17.324,0,0,0,16.046,0,8.992,8.992,0,0,0,3.355-3.216h.007a6.342,6.342,0,0,0,0-6.534c-.048-.078-.1-.157-.15-.231a9.125,9.125,0,0,0-3.213-2.977l0,0a17.312,17.312,0,0,0-16.052,0,8.877,8.877,0,0,0-3.356,3.213,1.925,1.925,0,0,0-.124.235,6.274,6.274,0,0,0,.124,6.286,9,9,0,0,0,3.364,3.22l0,.006Zm8.025-4.459a9.887,9.887,0,0,1-4.814-1.1l0,.008-.006-.008a2.721,2.721,0,0,1-1.015-.859l-.025-.068v-.011l.025-.042a2.724,2.724,0,0,1,1.021-.873,11.1,11.1,0,0,1,9.624,0l0-.007.007.007a2.99,2.99,0,0,1,.958.775l.08.152-.026.053.008,0-.008.012a2.816,2.816,0,0,1-1.024.859A9.869,9.869,0,0,1,2605.5,1634.962Z" transform="translate(-2533.293 -1590.581)" fill="#146681" fill-rule="evenodd"/>
        <path id="Tracé_15497" data-name="Tracé 15497" d="M2640.778,1658.156l-1.867,66.474a8.606,8.606,0,0,1-.042.874l-2.666,54.525a6.234,6.234,0,1,1-12.468,0v-.015l-2.667-54.5c-.028-.3-.039-.595-.039-.888l-2.739-41.73-5.148,2.975-3.659,55.749a8.315,8.315,0,0,1-.043.873l-2.664,54.522a6.236,6.236,0,1,1-12.473,0V1797l-2.66-54.5c-.029-.29-.046-.592-.046-.885l-1.933-62.205C2587.979,1666.574,2633.894,1638.6,2640.778,1658.156Z" transform="translate(-2542.41 -1522.216)" fill="#fff" fill-rule="evenodd"/>
        <path id="Tracé_15498" data-name="Tracé 15498" d="M2639.846,1661.018l-1.85,65.916h-.01l0,.286c-1.242,18.17-1.807,36.734-2.7,54.96v.152h-.01a3.013,3.013,0,0,1-.871,2.134l-.014.01a3.034,3.034,0,0,1-4.271-.01l-.123-.117a3.02,3.02,0,0,1-.761-2.017v-.014a3.11,3.11,0,0,0-.024-.4l-2.651-54.249-.032-.445v-.29a3.776,3.776,0,0,0-.024-.418L2623.784,1685a3.2,3.2,0,0,0-3.4-3,3.123,3.123,0,0,0-1.493.477l-5.067,2.922a3.2,3.2,0,0,0-1.593,2.576l-3.658,55.749-.007.2h0v.29c-1.236,18.168-1.8,36.73-2.7,54.956l0,.149h-.008a3.03,3.03,0,0,1-5.158,2.148l-.01-.014a3,3,0,0,1-.874-2.134v-.01a3.122,3.122,0,0,0-.025-.4l-2.655-54.248-.026-.442v-.294a2.913,2.913,0,0,0-.022-.371l-1.92-61.92c0-.113-.013-.219-.026-.329-.555-4.2,6.815-11.291,15.858-16.834a60.471,60.471,0,0,1,12.326-5.853,25.811,25.811,0,0,1,10.611-1.581c2.722.314,4.856,1.54,5.915,3.987Zm4.562,65.916,1.857-66.262a3.28,3.28,0,0,0-.172-1.268c-1.93-5.476-6.091-8.133-11.432-8.756a32.033,32.033,0,0,0-13.354,1.862,67.264,67.264,0,0,0-13.655,6.479c-10.859,6.662-19.6,16.119-18.893,22.945l1.92,61.813,0,.174.021.595.039.51,2.649,54.2v.1a9.434,9.434,0,0,0,2.757,6.663l.022.021a9.416,9.416,0,0,0,13.335,0l.015-.014a9.4,9.4,0,0,0,2.766-6.669h0l2.653-54.337c.016-.166.029-.323.034-.467l.025-.584,3.114-47.485,2,30.489.03.592.03.508,2.652,54.2v.1a9.406,9.406,0,0,0,2.565,6.458c.062.074.128.151.2.223a9.436,9.436,0,0,0,13.343.006l.023-.021a9.435,9.435,0,0,0,2.765-6.666h0l2.654-54.338c.016-.169.027-.325.034-.468l.024-.592Z" transform="translate(-2544.702 -1524.518)" fill="#143d66" fill-rule="evenodd"/>
        <path id="Tracé_15499" data-name="Tracé 15499" d="M2644.252,1713.935l-6.067-29.318,2.96-45.954c.37-1.765-2.069-7.65-4.411-9a13.371,13.371,0,0,0-13.305-.163l-26.294,15.059c-1.8,1.008-4.466,3.334-3.938,5.556l3.665,49.769-7.875,33.97c-.538,2.28,1,3.935,2.947,5.06a16.216,16.216,0,0,0,14.684,0l31.313-18.081C2640.4,1719.409,2644.99,1717.466,2644.252,1713.935Z" transform="translate(-2544.293 -1582.162)" fill="#fff" fill-rule="evenodd"/>
        <path id="Tracé_15500" data-name="Tracé 15500" d="M2649.674,1715.461l-5.953-28.756,2.931-45.519a14.794,14.794,0,0,0-1.712-6.709,12.655,12.655,0,0,0-4.3-5.289l0-.008a17.221,17.221,0,0,0-8.328-2.281,15.758,15.758,0,0,0-8.174,2.112l-26.367,15.094a13.686,13.686,0,0,0-4.135,3.662,6.614,6.614,0,0,0-1.326,5.112l3.614,49.055-7.762,33.489a6.665,6.665,0,0,0,.751,5.067,9.988,9.988,0,0,0,3.713,3.5l.213.114a19.362,19.362,0,0,0,17.678-.114l31.319-18.087,0,.006c.413-.238.67-.378.932-.523,3.406-1.854,8.05-4.388,6.922-9.805l-.027-.117Zm-12.323-27.906,6.07,29.329c.158.77-2.067,1.985-3.7,2.875-.454.244-.879.479-1.084.595l0,.006-31.312,18.071a11.746,11.746,0,0,1-5.744,1.32,11.968,11.968,0,0,1-5.6-1.236l-.137-.085a3.811,3.811,0,0,1-1.379-1.153.535.535,0,0,1-.049-.4l7.842-33.844a3.247,3.247,0,0,0,.11-1.085l-3.654-49.624a3.149,3.149,0,0,0-.088-.658c-.021-.082.114-.014.234-.188a6.972,6.972,0,0,1,2.084-1.794c8.061-4.43,18.944-10.165,26.424-15.13a9.355,9.355,0,0,1,4.869-1.256,10.706,10.706,0,0,1,5.191,1.43l0,0,.012,0a7.175,7.175,0,0,1,1.743,2.561,10.61,10.61,0,0,1,1.129,2.98,2.9,2.9,0,0,0-.066.485l-2.963,45.954h0A3.194,3.194,0,0,0,2637.35,1687.555Z" transform="translate(-2546.602 -1584.46)" fill="#143d66" fill-rule="evenodd"/>
        <path id="Tracé_15501" data-name="Tracé 15501" d="M2609.734,1626.388h-14.295l-1.047,13.591a2.693,2.693,0,0,0-.032.417c0,1.218.8,2.435,2.41,3.361a12.853,12.853,0,0,0,11.638,0c1.6-.926,2.408-2.144,2.408-3.361a2.634,2.634,0,0,0-.032-.417Z" transform="translate(-2530.379 -1585.758)" fill="#fff" fill-rule="evenodd"/>
        <path id="Tracé_15502" data-name="Tracé 15502" d="M2612.042,1625.478h-14.3a3.221,3.221,0,0,0-3.215,3.124l-1.024,13.308a5.513,5.513,0,0,0-.057.793h.015a6.254,6.254,0,0,0,1.224,3.686l-.011.008a8.879,8.879,0,0,0,2.791,2.445,16.023,16.023,0,0,0,14.851,0l.2-.131a8.673,8.673,0,0,0,2.585-2.314,3.388,3.388,0,0,0,.19-.295,6.25,6.25,0,0,0,1.033-3.4h.009a5.478,5.478,0,0,0-.056-.793l-1.037-13.458a3.214,3.214,0,0,0-3.2-2.971v0Zm-11.32,6.43h8.346l.833,10.724-.016.02a2.237,2.237,0,0,1-.64.559l-.141.079a9.8,9.8,0,0,1-8.421,0,2.537,2.537,0,0,1-.779-.638l-.006.008c-.019-.028.755-9.812.825-10.752Zm9.2,10.795" transform="translate(-2532.687 -1588.064)" fill="#143d66" fill-rule="evenodd"/>
        <path id="Tracé_15503" data-name="Tracé 15503" d="M2608.523,1632.791a12.975,12.975,0,0,1-11.752,0c-3.243-1.875-3.249-4.911,0-6.787a12.986,12.986,0,0,1,11.754,0C2611.774,1627.88,2611.77,1630.916,2608.523,1632.791Z" transform="translate(-2530.439 -1590.299)" fill="#fff" fill-rule="evenodd"/>
        <path id="Tracé_15504" data-name="Tracé 15504" d="M2609.092,1632.4a9.011,9.011,0,0,1-4.14.888,8.885,8.885,0,0,1-4.283-.965,2.469,2.469,0,0,1-.777-.623,2.7,2.7,0,0,1,.791-.615,9.97,9.97,0,0,1,8.549,0,2.609,2.609,0,0,1,.782.615,2.712,2.712,0,0,1-.792.623l-.13.077Zm-4.14,7.318a15.357,15.357,0,0,0,7.269-1.731l.215-.115a8.592,8.592,0,0,0,3.027-2.806c.053-.073.1-.152.149-.233a6.086,6.086,0,0,0,0-6.26l-.006,0a8.484,8.484,0,0,0-3.18-3.039,16.075,16.075,0,0,0-14.962,0,8.671,8.671,0,0,0-3.026,2.8c-.048.078-.1.155-.145.232a6.089,6.089,0,0,0,0,6.26l0,0a8.507,8.507,0,0,0,3.184,3.043A15.2,15.2,0,0,0,2604.952,1639.718Z" transform="translate(-2532.747 -1592.604)" fill="#0087ca" fill-rule="evenodd"/>
        <path id="Tracé_15505" data-name="Tracé 15505" d="M2607.013,1615.933c7.712,0,15.039,6.185,14.342,13.928l-1.52,16.993c-.641,7.156-4.549,13.928-12.783,13.928-7.889,0-12.061-6.3-12.784-13.928l-1.6-16.993C2591.949,1622.232,2599.123,1615.933,2607.013,1615.933Z" transform="translate(-2534.804 -1612.291)" fill="#fff" fill-rule="evenodd"/>
        <path id="Tracé_15506" data-name="Tracé 15506" d="M2609.321,1621.458q.654,0,1.026.031a12.164,12.164,0,0,1,7.2,3.227,8.885,8.885,0,0,1,2.944,6.435c0,.336,0,.584-.017.74l-1.519,16.99a14.279,14.279,0,0,1-3.234,8.354,8.977,8.977,0,0,1-12.715-.008,14.335,14.335,0,0,1-3.24-8.37l-1.6-16.995c-.016-.173-.025-.425-.025-.753a8.874,8.874,0,0,1,2.9-6.359,12.118,12.118,0,0,1,7.184-3.256c.286-.028.655-.038,1.1-.038Zm1.575-6.348c-.616-.057-1.144-.086-1.575-.086-.5,0-1.066.033-1.705.093a18.591,18.591,0,0,0-11.027,5.015,15.207,15.207,0,0,0-4.882,10.979c0,.371.028.824.078,1.358l1.6,17a20.62,20.62,0,0,0,4.9,12.111,15.356,15.356,0,0,0,22.156.009,20.678,20.678,0,0,0,4.894-12.146l1.519-17c.05-.528.07-.956.07-1.289a15.244,15.244,0,0,0-4.982-11.081A18.644,18.644,0,0,0,2610.9,1615.11Z" transform="translate(-2537.111 -1614.599)" fill="#143d66" fill-rule="evenodd"/>
        <path id="Tracé_15507" data-name="Tracé 15507" d="M2612.462,1651.829c-10.23-.329-6.459-18.444-19.832-23.72-.1-15.554,28.55-18.629,30.513,4.171C2624.035,1642.609,2622.688,1652.157,2612.462,1651.829Z" transform="translate(-2534.771 -1612.607)" fill="#fff" fill-rule="evenodd"/>
        <path id="Tracé_15508" data-name="Tracé 15508" d="M2614.866,1650.921c-2.826-.087-4.14-3.517-5.665-7.487-2.061-5.374-4.387-11.457-10.86-14.969a8.9,8.9,0,0,1,5.239-5.987,13.626,13.626,0,0,1,10.483-.23c4.125,1.643,7.582,5.647,8.184,12.593.407,4.737.331,9.218-.94,12.288-.986,2.4-2.943,3.906-6.441,3.793Zm-11.666-5.2c2.338,6.107,4.359,11.38,11.463,11.609,6.723.216,10.554-2.88,12.574-7.762,1.74-4.2,1.89-9.661,1.408-15.253-.84-9.784-6.013-15.544-12.223-18.021a20.076,20.076,0,0,0-15.475.337c-5.28,2.4-9.166,7.1-9.217,13.551a3.211,3.211,0,0,0,2.033,3.218C2599.32,1635.59,2601.392,1641,2603.2,1645.72Z" transform="translate(-2537.073 -1614.905)" fill="#143d66" fill-rule="evenodd"/>
        <path id="Tracé_15509" data-name="Tracé 15509" d="M2606.6,1620.292h0a8.393,8.393,0,0,0-8.367,8.372v32.075a8.4,8.4,0,0,0,8.367,8.371h0a8.394,8.394,0,0,0,8.374-8.371v-32.075A8.4,8.4,0,0,0,2606.6,1620.292Z" transform="translate(-2520.542 -1601.227)" fill="#fff" fill-rule="evenodd"/>
        <path id="Tracé_15510" data-name="Tracé 15510" d="M2608.912,1619.383a11.525,11.525,0,0,0-8.18,3.4,2.129,2.129,0,0,0-.193.206,11.531,11.531,0,0,0-3.214,7.978v32.075a11.568,11.568,0,0,0,3.409,8.181l0,.006a11.535,11.535,0,0,0,16.357,0l.007-.006,0,.006a11.559,11.559,0,0,0,3.4-8.187v-32.075a11.614,11.614,0,0,0-11.587-11.588Zm0,6.433a5.176,5.176,0,0,1,5.158,5.154v32.075a5.126,5.126,0,0,1-1.518,3.638l.009.007a5.144,5.144,0,0,1-7.288-.007l0,.007-.005-.007a5.11,5.11,0,0,1-1.508-3.638v-32.075a5.148,5.148,0,0,1,1.384-3.51l.134-.13A5.153,5.153,0,0,1,2608.912,1625.817Z" transform="translate(-2522.851 -1603.534)" fill="#143d66" fill-rule="evenodd"/>
        <path id="Tracé_15511" data-name="Tracé 15511" d="M2611.919,1664.311a3.2,3.2,0,1,0-3.187-5.552l-11.762,6.79a3.2,3.2,0,1,0,3.185,5.552Z" transform="translate(-2527.833 -1504.671)" fill="#143d66" fill-rule="evenodd"/>
        <path id="Tracé_15512" data-name="Tracé 15512" d="M2630.617,1646.586l-29.817,36.749a6.092,6.092,0,0,1-10.747-1.784l-10.907-30.98a4.837,4.837,0,1,1,9-3.546l8.773,19.977,20.834-30.915,2.647-2.844Z" transform="translate(-2569.878 -1568.354)" fill="#fff" fill-rule="evenodd"/>
        <path id="Tracé_15513" data-name="Tracé 15513" d="M2631.533,1657.863a3.2,3.2,0,1,0-4.971-4.044l-25.946,31.981-.109.141-.005,0a2.721,2.721,0,0,1-.559.581,2.954,2.954,0,0,1-.717.4l-.206.078a2.87,2.87,0,0,1-3.527-1.7c-3.829-10.308-7.363-20.911-11.022-31.3l-.076-.194a1.708,1.708,0,0,1-.052-.888,1.579,1.579,0,0,1,.446-.815,1.733,1.733,0,0,1,.551-.367,1.638,1.638,0,0,1,.938-.053l.163.032a1.618,1.618,0,0,1,.663.411,1.563,1.563,0,0,1,.353.548l8.826,20.1a3.205,3.205,0,0,0,4.221,1.66,3.156,3.156,0,0,0,1.372-1.146l.01,0c1.009-1.5,2.58-4.061,4.465-7.14,6.27-10.239,16.243-26.516,20.9-28.514a3.207,3.207,0,0,0-2.514-5.9c-6.544,2.809-17.174,20.16-23.865,31.076l-1.142,1.868-6.343-14.439a7.909,7.909,0,0,0-1.687-2.589,8.134,8.134,0,0,0-3.692-2.152,2.485,2.485,0,0,0-.349-.095,8.043,8.043,0,0,0-9.25,10.7l10.894,30.959q.111.346.212.6a9.338,9.338,0,0,0,11.408,5.467v-.005c.166-.048.315-.1.448-.148l.218-.074a9.465,9.465,0,0,0,4.107-3.192Z" transform="translate(-2572.178 -1572.845)" fill="#143d66" fill-rule="evenodd"/>
        <path id="Tracé_15514" data-name="Tracé 15514" d="M2604.012,1652.112a3.215,3.215,0,0,0-6.409.5l1.768,22.005a3.214,3.214,0,0,0,6.409-.5Z" transform="translate(-2522.172 -1527.969)" fill="#143d66" fill-rule="evenodd"/>
      </g>
    </g>
  </g>
</svg>
