<svg xmlns="http://www.w3.org/2000/svg" xmlns:xlink="http://www.w3.org/1999/xlink" width="213.56" height="286.27" viewBox="0 0 213.56 286.27">
  <defs>
    <linearGradient id="linear-gradient" x1="0.062" y1="0.233" x2="0.764" y2="0.265" gradientUnits="objectBoundingBox">
      <stop offset="0" stop-color="#00ffba"/>
      <stop offset="1" stop-color="#143d66"/>
    </linearGradient>
  </defs>
  <g id="Groupe_2240" data-name="Groupe 2240" transform="translate(-406.519 -309.892)">
    <g id="Groupe_1997" data-name="Groupe 1997" transform="translate(6 -713.143)">
      <g id="Groupe_1896" data-name="Groupe 1896" transform="translate(400.519 1023.035)">
        <g id="Groupe_1895" data-name="Groupe 1895" transform="translate(3.884 99.321)">
          <path id="Tracé_12759" data-name="Tracé 12759" d="M5996.1,3279.125a59.522,59.522,0,0,0-23.087-38.577,62.61,62.61,0,0,0-40.34-13c-16.109.353-60.467.179-121.007.015a22.9,22.9,0,0,0-2.472.059,24.458,24.458,0,0,0-11.7,4.169,21.9,21.9,0,0,0-8.29,9.862,19.677,19.677,0,0,0-1.309,7.535v165.283q37.671-28.34,75.346-56.685H5936.8a68.666,68.666,0,0,0,20.734-4.835,66.72,66.72,0,0,0,22.4-14.8,65.556,65.556,0,0,0,16.028-30.418A67.682,67.682,0,0,0,5996.1,3279.125Zm-32.006,15a30.645,30.645,0,0,1-15.133,25.373,36.364,36.364,0,0,1-17.214,5.462h-80.535q-15.245,11.954-30.491,23.918.116-44.71.209-89.418h112.541a27.315,27.315,0,0,1,22.332,8.815c3.725,4.031,6.223,10.784,6.223,10.784S5964.314,3291.214,5964.1,3294.121Z" transform="translate(-5787.898 -3227.525)" fill="#143d66"/>
        </g>
        <path id="Tracé_12760" data-name="Tracé 12760" d="M5987.909,3211.751a47.641,47.641,0,0,0-2.292-7.425,67.145,67.145,0,0,0-5.87-12.206,62.036,62.036,0,0,0-15.914-16.837,63.483,63.483,0,0,0-37.975-12.079c-.539.007-.972.019-1.169.026h-.092c-.407.016-37.569.007-120.045-.026-.11,0-.241.007-.389.01h.107a16.153,16.153,0,0,1,9.1,2.79,16.127,16.127,0,0,0-9.037-2.753c-4.274,0-16.24,4.861-16.24,16.239a16.327,16.327,0,0,0,16.24,16.237l.3.024h125.14c.985.146,2.384.376,4.014.776a31.24,31.24,0,0,1,9.114,3.4,27.08,27.08,0,0,1,7.651,6.871,29.134,29.134,0,0,1,3.78,6.179,26.907,26.907,0,0,1,1.625,4.712c.2.88.375,1.759.813,3.614.065.3.133.607.216.907a16.138,16.138,0,0,0,31.175-.034c.063-.226.1-.457.159-.683a16.421,16.421,0,0,0,.359-2.883c.009-.134.022-.264.022-.4l0-.137A23.169,23.169,0,0,0,5987.909,3211.751Z" transform="translate(-5788.095 -3163.199)" fill="url(#linear-gradient)"/>
      </g>
    </g>
  </g>
</svg>
