<svg xmlns="http://www.w3.org/2000/svg" width="136.066" height="113.413" viewBox="0 0 136.066 113.413">
  <g id="Groupe_2244" data-name="Groupe 2244" transform="translate(-1345.849 -4953.601)">
    <g id="Groupe_1687" data-name="Groupe 1687" transform="translate(1348.356 4994.105)">
      <g id="Groupe_1686" data-name="Groupe 1686" transform="translate(68.585 5.995)">
        <path id="Tracé_18939" data-name="Tracé 18939" d="M-727,149.224c.262-.047.528-.091.8-.135.1-.018.211-.034.317-.049a66.1,66.1,0,0,1,9.959-.683h3.263l.026,0c2.107.007,4.162.086,6.144.262,1.077.093,2.133.213,3.163.366.5.073.986.15,1.47.238a34.639,34.639,0,0,1,6.5,1.776,23.558,23.558,0,0,1,3.454,1.662c5.381,3.178,8.708,8.408,8.708,16.606a.731.731,0,0,1-.731.733h-61.012a.733.733,0,0,1-.517-.216.725.725,0,0,1-.213-.517C-745.667,156.78-737.942,151.182-727,149.224Z" transform="translate(745.667 -109.119)" fill="none" stroke="#143d66" stroke-linecap="round" stroke-linejoin="round" stroke-width="5"/>
        <ellipse id="Ellipse_29" data-name="Ellipse 29" cx="15.002" cy="15.002" rx="15.002" ry="15.002" transform="translate(12.114 28.312) rotate(-70.67)" fill="none" stroke="#143d66" stroke-linecap="round" stroke-linejoin="round" stroke-width="5"/>
      </g>
      <path id="Tracé_18940" data-name="Tracé 18940" d="M-869.854,35.84A27.16,27.16,0,0,1-852.5,38.195,28.131,28.131,0,0,1-839.78,51.269a22.272,22.272,0,0,1,1.79,7.2c.17,1.413.324,2.827.493,4.24a3.548,3.548,0,0,0,.187.738q1.613,4.079,3.229,8.158l1.676,4.229c.461,1.163,1.258,2.917.291,4.084a2.08,2.08,0,0,1-1.693.748c-1.192-.007-2.383,0-3.632,0-.009.208-.023.386-.023.564,0,2.353,0,4.706,0,7.059a10.819,10.819,0,0,1-10.982,10.947c-1.194,0-3.943,0-4.162,0v4.86a1.652,1.652,0,0,1-1.656,1.652c-8.71-.036-17.392-.34-26.127-.376a1.645,1.645,0,0,1-1.643-1.644c0-3.742,0-13.025.011-18.854a1.26,1.26,0,0,0-.454-.964,27.005,27.005,0,0,1-9.984-19.229C-893.6,49.886-882.819,38.337-869.854,35.84Z" transform="translate(892.545 -35.337)" fill="none" stroke="#143d66" stroke-linecap="round" stroke-linejoin="round" stroke-width="5"/>
    </g>
    <path id="Tracé_19280" data-name="Tracé 19280" d="M5848.132,3242.453a17.24,17.24,0,0,0-6.679-11.161,18.112,18.112,0,0,0-11.672-3.759c-4.66.1-17.493.052-35.008,0a6.85,6.85,0,0,0-4.1,1.224,6.344,6.344,0,0,0-2.4,2.854,5.7,5.7,0,0,0-.376,2.18v47.819q10.895-8.2,21.8-16.4h21.278a19.87,19.87,0,0,0,6-1.4,19.31,19.31,0,0,0,6.479-4.281,18.971,18.971,0,0,0,4.64-8.8A19.581,19.581,0,0,0,5848.132,3242.453Zm-9.26,4.339a8.864,8.864,0,0,1-4.377,7.341,10.527,10.527,0,0,1-4.982,1.58h-23.3q-4.411,3.459-8.82,6.92.03-12.936.059-25.872h32.561a7.9,7.9,0,0,1,6.461,2.551,8.687,8.687,0,0,1,1.8,3.119A10.493,10.493,0,0,1,5838.873,3246.792Z" transform="translate(-4374.234 1727.074)" fill="#04c38f" stroke="#143d66" stroke-width="2"/>
  </g>
</svg>
